<?xml version="1.0" encoding="UTF-8"?>
<svg version="1.1" xmlns="http://www.w3.org/2000/svg" width="253" height="266">
<path d="M0 0 C3.19238281 1.33691406 3.19238281 1.33691406 6.578125 3.078125 C7.18707611 3.39084854 7.79602722 3.70357208 8.4234314 4.02577209 C14.63346832 7.25443795 20.63768028 10.8154963 26.625 14.4375 C28.98875756 15.85513407 31.35538486 17.26793039 33.72265625 18.6796875 C34.62294807 19.21708305 34.62294807 19.21708305 35.54142761 19.76533508 C42.00193209 23.61272944 48.52762241 27.34331444 55.0625 31.0625 C56.22181694 31.72361623 57.38107809 32.3848303 58.5402832 33.04614258 C63.23857236 35.72511069 67.9386486 38.40083045 72.64648438 41.06298828 C75.0555813 42.42531553 77.46243566 43.79145422 79.86694336 45.16186523 C82.0960099 46.43189457 84.32839213 47.69612951 86.56469727 48.95336914 C95.20699285 53.89152715 102.62178665 58.22049414 106 68 C106.5494714 71.78695345 106.54750447 75.51619619 106.51757812 79.33789062 C106.5245874 80.44786911 106.53159668 81.5578476 106.53881836 82.70146179 C106.55635556 86.35331589 106.54478997 90.00438866 106.53125 93.65625 C106.53394612 96.203981 106.53782954 98.75171099 106.54284668 101.29943848 C106.54873599 106.63218966 106.54058126 111.96466345 106.52148438 117.29736328 C106.49971864 123.44598721 106.50677126 129.59408043 106.52879 135.74269152 C106.54919049 141.67902536 106.54695331 147.6151956 106.53526306 153.55155945 C106.53259996 156.06809057 106.53585082 158.58463528 106.54518127 161.10115051 C106.55537102 164.62183198 106.53981 168.14150292 106.51757812 171.66210938 C106.52567505 172.69611374 106.53377197 173.7301181 106.54211426 174.79545593 C106.46057809 181.78619947 105.31491985 187.39223761 100.47447968 192.66028595 C95.45616021 197.40821244 89.16659579 200.57888312 83.1875 203.9375 C81.44623349 204.9287298 79.70497338 205.91997106 77.96411133 206.91191101 C76.16568273 207.93543478 74.3654693 208.95576044 72.56494141 209.97558594 C66.98383511 213.14026553 61.43040847 216.3529978 55.875 219.5625 C54.80685059 220.17875244 53.73870117 220.79500488 52.63818359 221.42993164 C30.38873193 234.22882666 30.38873193 234.22882666 8.37426758 247.42529297 C1.92910655 251.34810151 -3.56265893 251.83491102 -11 251 C-19.62578022 247.65534012 -27.60110299 242.39052826 -35.5 237.625 C-37.88210019 236.19843697 -40.26682377 234.77630456 -42.65234375 233.35546875 C-43.25872177 232.99411331 -43.86509979 232.63275787 -44.48985291 232.26045227 C-50.96961425 228.40809277 -57.51098239 224.66609171 -64.0625 220.9375 C-65.22236538 220.27642798 -66.38219614 219.61529522 -67.54199219 218.95410156 C-72.23646532 216.27882928 -76.93262841 213.60653762 -81.63037109 210.93701172 C-84.02811456 209.57389873 -86.42401544 208.20763706 -88.81811523 206.83813477 C-91.03517565 205.56991375 -93.25458371 204.30578403 -95.47680664 203.04663086 C-113.66348859 192.62147012 -113.66348859 192.62147012 -116.58887863 183.07913589 C-117.04121707 180.79155573 -117.13181909 178.69079613 -117.14044189 176.35882568 C-117.14615204 175.43091721 -117.15186218 174.50300873 -117.15774536 173.54698181 C-117.15942215 172.03050804 -117.15942215 172.03050804 -117.16113281 170.48339844 C-117.16609772 169.41301834 -117.17106262 168.34263824 -117.17617798 167.23982239 C-117.19079083 163.6963334 -117.1976004 160.15288918 -117.203125 156.609375 C-117.20887745 154.14560953 -117.21463517 151.68184406 -117.22039795 149.21807861 C-117.23090563 144.04984326 -117.23674974 138.88162344 -117.24023438 133.71337891 C-117.24571662 127.09803269 -117.26974013 120.48289255 -117.29820633 113.86761093 C-117.31685082 108.7768901 -117.3220393 103.68621871 -117.32357025 98.59546661 C-117.32659352 96.15707524 -117.33461102 93.71868467 -117.34775543 91.28032684 C-117.36485224 87.86478605 -117.36292643 84.44974617 -117.35644531 81.03417969 C-117.3656601 80.0312941 -117.37487488 79.02840851 -117.3843689 77.99513245 C-117.3363571 69.8983731 -115.92763288 62.96865456 -110 57 C-107.64222712 55.41470039 -105.34733516 54.00247328 -102.875 52.625 C-101.77877319 51.99706543 -101.77877319 51.99706543 -100.66040039 51.35644531 C-99.01921283 50.41689444 -97.37558897 49.48159068 -95.72998047 48.54980469 C-91.71841995 46.27244946 -87.72647381 43.96144824 -83.73242188 41.65356445 C-80.38695168 39.72079689 -77.03923793 37.79195491 -73.69140625 35.86328125 C-67.40849081 32.23974333 -61.13870746 28.59412296 -54.875 24.9375 C-53.9048999 24.37144043 -52.9347998 23.80538086 -51.93530273 23.22216797 C-46.7681132 20.20543799 -41.60501615 17.18185956 -36.4453125 14.15234375 C-34.82713623 13.20403687 -34.82713623 13.20403687 -33.17626953 12.23657227 C-31.12129743 11.03217855 -29.06750486 9.82576906 -27.01513672 8.61694336 C-9.55053124 -1.6112054 -9.55053124 -1.6112054 0 0 Z " fill="#649AD1" transform="translate(131,5)"/>
<path d="M0 0 C1.5440991 3.44364275 2.25226431 6.14501622 2.26742554 9.9132843 C2.28022049 11.35769394 2.28022049 11.35769394 2.29327393 12.83128357 C2.29191437 14.39846886 2.29191437 14.39846886 2.29052734 15.99731445 C2.29724457 17.10685486 2.30396179 18.21639526 2.31088257 19.35955811 C2.32988021 23.02751138 2.33378775 26.69528183 2.3359375 30.36328125 C2.34236439 32.91529923 2.34909266 35.46731646 2.35610962 38.01933289 C2.36808696 43.36992396 2.37187569 48.72044701 2.37060547 54.07104492 C2.36940494 60.2417248 2.39049241 66.41205442 2.4220928 72.58264571 C2.4514734 78.5333548 2.45857947 84.48395769 2.45738602 90.43474388 C2.45974361 92.95966204 2.46857599 95.48458289 2.48405075 98.00945473 C2.50368872 101.54476435 2.49788018 105.07917729 2.48583984 108.61450195 C2.49707886 109.65321945 2.50831787 110.69193695 2.51989746 111.76213074 C2.45933962 118.77440934 1.33038071 124.37611142 -3.5256443 129.66009998 C-8.54338057 134.40849867 -14.83354056 137.57895971 -20.8125 140.9375 C-22.55376651 141.9287298 -24.29502662 142.91997106 -26.03588867 143.91191101 C-27.83431727 144.93543478 -29.6345307 145.95576044 -31.43505859 146.97558594 C-37.01616489 150.14026553 -42.56959153 153.3529978 -48.125 156.5625 C-49.19314941 157.17875244 -50.26129883 157.79500488 -51.36181641 158.42993164 C-73.61126807 171.22882666 -73.61126807 171.22882666 -95.62573242 184.42529297 C-102.07089345 188.34810151 -107.56265893 188.83491102 -115 188 C-123.62578022 184.65534012 -131.60110299 179.39052826 -139.5 174.625 C-141.88210019 173.19843697 -144.26682377 171.77630456 -146.65234375 170.35546875 C-147.25872177 169.99411331 -147.86509979 169.63275787 -148.48985291 169.26045227 C-154.96961425 165.40809277 -161.51098239 161.66609171 -168.0625 157.9375 C-169.22236538 157.27642798 -170.38219614 156.61529522 -171.54199219 155.95410156 C-176.23646532 153.27882928 -180.93262841 150.60653762 -185.63037109 147.93701172 C-188.02811456 146.57389873 -190.42401544 145.20763706 -192.81811523 143.83813477 C-195.03517565 142.56991375 -197.25458371 141.30578403 -199.47680664 140.04663086 C-215.45615374 130.88678178 -215.45615374 130.88678178 -218 125 C-210.42751748 120.40132641 -202.86379141 115.84808093 -195.0390625 111.6875 C-192.53753385 110.29847638 -190.09303896 108.86000887 -187.6484375 107.375 C-186.88192871 106.912146 -186.11541992 106.44929199 -185.32568359 105.97241211 C-183.79473767 105.04429824 -182.26883681 104.10780244 -180.74853516 103.16235352 C-180.04776855 102.73881592 -179.34700195 102.31527832 -178.625 101.87890625 C-177.99851563 101.4929126 -177.37203125 101.10691895 -176.7265625 100.70922852 C-175 100 -175 100 -172 101 C-170.2734375 103.1875 -170.2734375 103.1875 -168.375 106 C-157.2050172 121.67041144 -141.0509876 132.43467994 -121.85546875 135.72265625 C-100.17890255 137.82804093 -79.70495509 133.33336369 -62.3125 119.75 C-55.49574355 113.96697199 -49.49822416 107.30828239 -46 99 C-46.70954834 98.73791748 -47.41909668 98.47583496 -48.15014648 98.20581055 C-51.15934574 96.93257872 -53.80965841 95.40940783 -56.59765625 93.70703125 C-57.64630859 93.07732422 -58.69496094 92.44761719 -59.77539062 91.79882812 C-61.97485621 90.4697393 -64.17015944 89.13373889 -66.36132812 87.79101562 C-67.93237305 86.85225586 -67.93237305 86.85225586 -69.53515625 85.89453125 C-70.487854 85.31550049 -71.44055176 84.73646973 -72.42211914 84.13989258 C-74.87522301 82.80357463 -74.87522301 82.80357463 -77.23901367 83.21459961 C-79.61342466 84.27358757 -80.66408063 85.70216237 -82.25 87.75 C-88.16635227 94.83438748 -95.80921117 98.95953334 -105 100 C-115.68612801 100.77784641 -124.0607048 98.46288274 -132.67578125 92.01171875 C-140.29632748 85.41578378 -145.56219262 77.15886536 -146.4140625 67.0078125 C-146.98666253 55.57902543 -145.14248134 46.29074286 -137.27416992 37.51049805 C-130.05993813 30.04450455 -123.01297913 25.92464951 -112.62548828 25.51879883 C-101.27888093 25.4240181 -92.88052122 27.81575811 -84 35 C-81.78838278 37.1843133 -79.7103554 39.39757689 -78 42 C-78 42.66 -78 43.32 -78 44 C-74.71327637 42.11168946 -71.42754884 40.22165659 -68.14266968 38.33013916 C-66.96594752 37.65270572 -65.78904774 36.97558074 -64.61196899 36.29876709 C-58.22936027 32.62778865 -51.86318821 28.93551014 -45.55078125 25.14453125 C-44.55965332 24.55051514 -43.56852539 23.95649902 -42.54736328 23.34448242 C-40.67608076 22.21938059 -38.8084008 21.08825962 -36.94482422 19.95043945 C-36.10064941 19.44343506 -35.25647461 18.93643066 -34.38671875 18.4140625 C-33.29170044 17.74818115 -33.29170044 17.74818115 -32.17456055 17.06884766 C-29.79098093 15.89726221 -27.61475273 15.41012355 -25 15 C-25 14.34 -25 13.68 -25 13 C-24.14664063 12.58878906 -23.29328125 12.17757812 -22.4140625 11.75390625 C-18.94596541 9.97224081 -15.67846125 8.00699856 -12.375 5.9375 C-2.88826816 0 -2.88826816 0 0 0 Z " fill="#014F8C" transform="translate(235,68)"/>
<path d="M0 0 C21.84621804 -0.72530604 41.54770995 8.46864949 57.31640625 23.15234375 C66.33836952 33.38693649 66.33836952 33.38693649 66.29199219 37.11474609 C64.81977152 40.18960938 62.64777276 41.09168926 59.70703125 42.75390625 C59.1432074 43.07644379 58.57938354 43.39898132 57.99847412 43.73129272 C56.19438882 44.75883101 54.380585 45.76775568 52.56640625 46.77734375 C51.3600445 47.46373315 50.15430741 48.15122166 48.94921875 48.83984375 C39.42338477 54.2422348 39.42338477 54.2422348 34.31640625 56.15234375 C33.98769531 55.64445312 33.65898437 55.1365625 33.3203125 54.61328125 C28.29643786 47.3429586 21.67056542 42.11348432 13.0859375 39.6328125 C2.80287881 37.84886861 -6.85514799 37.86569666 -16.03125 43.265625 C-24.47727066 49.27361908 -30.24665447 55.8915468 -32.68359375 66.15234375 C-34.27860092 77.65657826 -32.68871259 87.67007219 -26.14453125 97.453125 C-20.38348028 104.70221994 -11.96619969 110.06234078 -2.68359375 111.15234375 C7.49741634 111.90286693 16.77268083 109.94514829 25.31640625 104.15234375 C27.78489523 101.5584712 30.03026021 98.90578718 32.2109375 96.06640625 C34.31640625 94.15234375 34.31640625 94.15234375 36.56640625 94.0703125 C40.4645898 95.60411483 43.93340338 97.66210142 47.50390625 99.83984375 C48.25406006 100.28956543 49.00421387 100.73928711 49.77709961 101.20263672 C51.96062864 102.51308351 54.13862884 103.83236924 56.31640625 105.15234375 C58.33686348 106.36130586 60.35761283 107.5697802 62.37890625 108.77734375 C63.69189677 109.56819661 65.00463084 110.35947704 66.31640625 111.15234375 C63.72132913 122.88009611 52.19787388 131.96439783 42.5859375 138.1796875 C25.41162281 148.54172922 4.76653126 152.36896491 -14.87109375 147.58984375 C-26.34974513 144.53432465 -36.81047057 139.089695 -45.68359375 131.15234375 C-46.41964844 130.50910156 -47.15570313 129.86585938 -47.9140625 129.203125 C-56.86478611 120.86863021 -64.15697646 109.9077347 -67.68359375 98.15234375 C-67.98007813 97.1778125 -68.2765625 96.20328125 -68.58203125 95.19921875 C-73.94138461 74.45016264 -71.11792894 54.47733387 -60.75097656 35.95898438 C-49.93405624 17.65038181 -31.78485522 6.46647035 -11.68359375 1.15234375 C-7.77245812 0.34105555 -3.97450486 0.22562691 0 0 Z " fill="#FBFDFD" transform="translate(122.68359375,55.84765625)"/>
<path d="M0 0 C4.02270832 2.83001059 7.70684355 6.02985838 10.3125 10.25 C10.3125 11.24 10.3125 12.23 10.3125 13.25 C9.60569092 13.65089844 8.89888184 14.05179688 8.1706543 14.46484375 C4.77895697 16.39063568 1.38901637 18.3194956 -2 20.25 C-2.62242584 20.60437134 -3.24485168 20.95874268 -3.88613892 21.32385254 C-11.04086932 25.40089194 -18.17192767 29.51225167 -25.2421875 33.734375 C-25.8459874 34.09462769 -26.44978729 34.45488037 -27.07188416 34.8260498 C-29.95735442 36.54957639 -32.8381593 38.28012384 -35.71411133 40.01953125 C-41.5607311 43.52525355 -47.36117097 46.69573586 -53.6875 49.25 C-58.70918085 39.56843087 -59.27123199 29.45181284 -56.9453125 18.875 C-53.41226524 8.97215219 -45.75238042 1.0496912 -36.5625 -3.9375 C-24.58890854 -8.6684449 -10.7178303 -6.62556782 0 0 Z " fill="#639AD2" transform="translate(146.6875,99.75)"/>
<path d="M0 0 C2.54525886 0.97281723 4.82842493 2.09783084 7.18359375 3.46875 C7.97378906 3.92378906 8.76398438 4.37882813 9.578125 4.84765625 C10.16980469 5.19699219 10.76148438 5.54632813 11.37109375 5.90625 C11.37109375 6.56625 11.37109375 7.22625 11.37109375 7.90625 C14.34109375 8.89625 17.31109375 9.88625 20.37109375 10.90625 C20.37109375 11.56625 20.37109375 12.22625 20.37109375 12.90625 C21.09296875 13.195 21.81484375 13.48375 22.55859375 13.78125 C25.16276042 14.82291667 27.76692708 15.86458333 30.37109375 16.90625 C29.34040486 22.76421596 24.92545596 26.97961385 20.3046875 30.46484375 C11.17535222 36.30276783 1.60408646 38.29972237 -9.14453125 36.48046875 C-18.36679501 34.11690115 -27.59433831 28.17440223 -32.62890625 19.90625 C-32.62890625 18.91625 -32.62890625 17.92625 -32.62890625 16.90625 C-31.72011719 16.43316406 -30.81132813 15.96007812 -29.875 15.47265625 C-28.60498816 14.80560171 -27.33549793 14.13755353 -26.06640625 13.46875 C-25.39689941 13.1169165 -24.72739258 12.76508301 -24.03759766 12.40258789 C-20.43988659 10.48786675 -16.92103987 8.50314011 -13.46875 6.3359375 C-12.80367432 5.92013428 -12.13859863 5.50433105 -11.45336914 5.07592773 C-10.17489132 4.2678529 -8.90414024 3.44739316 -7.64233398 2.61352539 C-4.98119034 0.93467571 -3.1906831 -0.11378365 0 0 Z " fill="#034782" transform="translate(126.62890625,131.09375)"/>
<path d="M0 0 C2.97 0 5.94 0 9 0 C9 2.64 9 5.28 9 8 C11.64 8 14.28 8 17 8 C17 10.97 17 13.94 17 17 C14.36 17 11.72 17 9 17 C9 19.64 9 22.28 9 25 C6.03 25 3.06 25 0 25 C0 22.36 0 19.72 0 17 C-2.64 17 -5.28 17 -8 17 C-8 14.03 -8 11.06 -8 8 C-5.36 8 -2.72 8 0 8 C0 5.36 0 2.72 0 0 Z " fill="#E7F3F8" transform="translate(183,118)"/>
<path d="M0 0 C2.97 0 5.94 0 9 0 C9 2.64 9 5.28 9 8 C11.64 8 14.28 8 17 8 C17 10.97 17 13.94 17 17 C14.36 17 11.72 17 9 17 C9 19.64 9 22.28 9 25 C6.03 25 3.06 25 0 25 C0 22.36 0 19.72 0 17 C-2.64 17 -5.28 17 -8 17 C-8 14.36 -8 11.72 -8 9 C-5.36 9 -2.72 9 0 9 C0 6.03 0 3.06 0 0 Z " fill="#E9F4F9" transform="translate(214,118)"/>
<path d="M0 0 C2.475 1.98 2.475 1.98 5 4 C4.31188232 4.39678955 3.62376465 4.7935791 2.91479492 5.20239258 C0.8487226 6.39383506 -1.21726938 7.58541685 -3.28320312 8.77709961 C-5.64479056 10.13927136 -8.00682328 11.50066678 -10.36914062 12.86157227 C-15.88446081 16.04010499 -21.39549237 19.22523683 -26.88671875 22.4453125 C-28.19322388 23.20944458 -28.19322388 23.20944458 -29.52612305 23.98901367 C-31.14816731 24.93874116 -32.76820125 25.8919123 -34.38598633 26.84887695 C-39.77694046 30 -39.77694046 30 -42 30 C-42 29.34 -42 28.68 -42 28 C-39.89739659 26.85121668 -37.79303461 25.70588808 -35.6875 24.5625 C-34.79514648 24.07426758 -34.79514648 24.07426758 -33.88476562 23.57617188 C-31.27626374 22.16262616 -28.82154101 20.94051367 -26 20 C-25.71125 19.34 -25.4225 18.68 -25.125 18 C-24 16 -24 16 -21.5625 15.3125 C-20.716875 15.209375 -19.87125 15.10625 -19 15 C-18.01 14.67 -17.02 14.34 -16 14 C-15.67 12.35 -15.34 10.7 -15 9 C-14.34 9.33 -13.68 9.66 -13 10 C-11.09989652 9.17574711 -11.09989652 9.17574711 -9 8 C-8.113125 7.690625 -7.22625 7.38125 -6.3125 7.0625 C-5.549375 6.711875 -4.78625 6.36125 -4 6 C-3.67 5.01 -3.34 4.02 -3 3 C-1.4375 1.3125 -1.4375 1.3125 0 0 Z " fill="#0B4475" transform="translate(202,209)"/>
<path d="M0 0 C0.99 0.33 1.98 0.66 3 1 C-1.16880373 3.47293633 -5.34262117 5.93578814 -9.53125 8.375 C-12.10617173 9.8759594 -14.63769684 11.40408513 -17.15625 13 C-23.73601169 17.02526598 -29.31404222 18.30053655 -37 17 C-39.97703874 15.92661469 -42.28482163 14.670879 -45 13 C-43.171875 11.921875 -43.171875 11.921875 -41 11 C-38.25 12.25 -38.25 12.25 -36 14 C-36 14.66 -36 15.32 -36 16 C-29.80772708 15.75952338 -25.58437948 15.58437948 -21 11 C-20.34 10.67 -19.68 10.34 -19 10 C-19 9.67 -19 9.34 -19 9 C-16.36 8.67 -13.72 8.34 -11 8 C-10.67 7.01 -10.34 6.02 -10 5 C-9.34 5 -8.68 5 -8 5 C-7.67 4.01 -7.34 3.02 -7 2 C-6.21625 1.855625 -5.4325 1.71125 -4.625 1.5625 C-2.03578982 1.12201075 -2.03578982 1.12201075 0 0 Z " fill="#0D4375" transform="translate(157,239)"/>
<path d="M0 0 C0.66 0 1.32 0 2 0 C3.4278535 2.85570699 3.11941486 5.27714356 3.11352539 8.46923828 C3.11367142 9.13277313 3.11381744 9.79630798 3.1139679 10.47994995 C3.11327031 12.67677053 3.10548514 14.8735067 3.09765625 17.0703125 C3.09579152 18.59203037 3.09436788 20.11374884 3.09336853 21.63546753 C3.08954767 25.64351047 3.07972104 29.65151726 3.06866455 33.6595459 C3.05844118 37.74828604 3.05386892 41.83703201 3.04882812 45.92578125 C3.0380984 53.95053744 3.02102713 61.97526422 3 70 C2.67 70 2.34 70 2 70 C1.67 67.03 1.34 64.06 1 61 C0.505 63.97 0.505 63.97 0 67 C-0.66 67 -1.32 67 -2 67 C-2 64.03 -2 61.06 -2 58 C-0.515 57.505 -0.515 57.505 1 57 C0.99666908 56.14008705 0.99666908 56.14008705 0.99327087 55.26280212 C0.9710848 49.27652614 0.95603792 43.2902619 0.94506836 37.30395508 C0.94005095 35.07217942 0.93323554 32.84040702 0.92456055 30.60864258 C0.91238129 27.39403474 0.90674565 24.17947051 0.90234375 20.96484375 C0.89460182 19.47693581 0.89460182 19.47693581 0.88670349 17.95896912 C0.88629395 12.85976487 1.11827743 8.02490337 2 3 C1.01 3 0.02 3 -1 3 C-0.67 2.01 -0.34 1.02 0 0 Z " fill="#0A5890" transform="translate(233,68)"/>
<path d="M0 0 C0.99 0.33 1.98 0.66 3 1 C3 1.66 3 2.32 3 3 C3.99 3 4.98 3 6 3 C6.515625 3.5775 7.03125 4.155 7.5625 4.75 C11.16254098 8.07311475 15.43599788 9.36253359 20 11 C20 11.99 20 12.98 20 14 C20.5775 14.12375 21.155 14.2475 21.75 14.375 C24.02335767 15.00648824 25.9253529 15.88858191 28 17 C28 17.66 28 18.32 28 19 C28.598125 19.144375 29.19625 19.28875 29.8125 19.4375 C31.56150404 19.8872439 33.28677023 20.42892341 35 21 C35.495 22.485 35.495 22.485 36 24 C30.26484919 21.85195409 25.09255421 18.80580127 19.7890625 15.77001953 C18.01113144 14.7563465 16.22461026 13.75909554 14.4375 12.76171875 C3.67017694 6.60721478 3.67017694 6.60721478 0 1 C0 0.67 0 0.34 0 0 Z " fill="#0E4471" transform="translate(17,193)"/>
<path d="M0 0 C-3 1 -3 1 -6.875 0.375 C-10.86130942 -0.21854975 -12.7110516 0.58165559 -16 3 C-16.66 3 -17.32 3 -18 3 C-18 4.32 -18 5.64 -18 7 C-18.60328125 6.91621094 -19.2065625 6.83242187 -19.828125 6.74609375 C-20.62734375 6.64425781 -21.4265625 6.54242188 -22.25 6.4375 C-23.03890625 6.33308594 -23.8278125 6.22867187 -24.640625 6.12109375 C-27.00532874 5.99972651 -28.7511037 6.30366743 -31 7 C-22.01907187 -1.08283532 -11.50715422 -5.14413178 0 0 Z " fill="#6895BE" transform="translate(136,7)"/>
<path d="M0 0 C1.65 0 3.3 0 5 0 C5 0.99 5 1.98 5 3 C6.65 3 8.3 3 10 3 C10 3.33 10 3.66 10 4 C12.64 4.33 15.28 4.66 18 5 C18 5.33 18 5.66 18 6 C15.36 6 12.72 6 10 6 C10 8.64 10 11.28 10 14 C8 13 8 13 7 10 C6.34 10 5.68 10 5 10 C5 8.35 5 6.7 5 5 C3.68 4.67 2.36 4.34 1 4 C0.67 2.68 0.34 1.36 0 0 Z " fill="#1969A5" transform="translate(196,121)"/>
<path d="M0 0 C0.66 0.33 1.32 0.66 2 1 C2 3.64 2 6.28 2 9 C0.58376784 9.05447047 -0.83308191 9.09300508 -2.25 9.125 C-3.03890625 9.14820312 -3.8278125 9.17140625 -4.640625 9.1953125 C-7.24710389 8.97954438 -8.80767583 8.40935125 -11 7 C-11.75 4.875 -11.75 4.875 -12 3 C-10.4221875 3.495 -10.4221875 3.495 -8.8125 4 C-5.61126643 4.83966782 -3.2588992 5.19750904 0 5 C0 3.35 0 1.7 0 0 Z " fill="#085893" transform="translate(212,117)"/>
<path d="M0 0 C2.64 0 5.28 0 8 0 C8 2.64 8 5.28 8 8 C10.97 8 13.94 8 17 8 C17 5.36 17 2.72 17 0 C19.64 0 22.28 0 25 0 C25 0.33 25 0.66 25 1 C22.69 1 20.38 1 18 1 C18.020625 2.299375 18.04125 3.59875 18.0625 4.9375 C18.08399454 6.29165633 18.07148199 7.64756083 18 9 C17 10 17 10 14.71484375 10.09765625 C13.34005859 10.08025391 13.34005859 10.08025391 11.9375 10.0625 C11.01839844 10.05347656 10.09929687 10.04445312 9.15234375 10.03515625 C8.44207031 10.02355469 7.73179687 10.01195312 7 10 C6.34 8.68 5.68 7.36 5 6 C5.66 6 6.32 6 7 6 C7 4.35 7 2.7 7 1 C4.69 1 2.38 1 0 1 C0 0.67 0 0.34 0 0 Z " fill="#1D6292" transform="translate(175,135)"/>
<path d="M0 0 C1.65 0 3.3 0 5 0 C5.33 0.66 5.66 1.32 6 2 C8.30965848 3.05352843 10.6429774 4.05719096 13 5 C13 5.66 13 6.32 13 7 C16.153368 7.70074844 18.72724974 8 22 8 C22 8.99 22 9.98 22 11 C23.9375006 13.18777466 23.9375006 13.18777466 26 15 C22.444218 13.65788025 19.20894833 12.07755303 15.91796875 10.1796875 C14.98662109 9.64472656 14.05527344 9.10976562 13.09570312 8.55859375 C12.13599609 8.00300781 11.17628906 7.44742188 10.1875 6.875 C9.20845703 6.31167969 8.22941406 5.74835938 7.22070312 5.16796875 C4.81210445 3.78155585 2.40528605 2.39214945 0 1 C0 0.67 0 0.34 0 0 Z " fill="#0D4372" transform="translate(79,232)"/>
<path d="M0 0 C0.99 0.33 1.98 0.66 3 1 C2.45730469 2.01578125 1.91460937 3.0315625 1.35546875 4.078125 C-2.91249386 12.23255635 -6.33784648 19.85815563 -8 29 C-8.33 29 -8.66 29 -9 29 C-8.78337054 22.17617191 -7.3233811 16.38965174 -5.0625 10 C-4.79743652 9.245979 -4.53237305 8.49195801 -4.25927734 7.71508789 C-2.26917518 2.26917518 -2.26917518 2.26917518 0 0 Z " fill="#759DC7" transform="translate(61,89)"/>
<path d="M0 0 C2.125 0.375 2.125 0.375 4 1 C-3.03376013 5.96179978 -10.38267036 10.02062223 -18 14 C-16.296875 10.125 -16.296875 10.125 -13.625 9 C-12.75875 8.67 -11.8925 8.34 -11 8 C-10.34 7.34 -9.68 6.68 -9 6 C-6.77810176 3.77810176 -4.91517292 3.07401108 -2 2 C-1.34 1.34 -0.68 0.68 0 0 Z " fill="#0F4372" transform="translate(226,198)"/>
<path d="M0 0 C2.64 0 5.28 0 8 0 C8 0.66 8 1.32 8 2 C6.35 2 4.7 2 3 2 C3.12375 3.1446875 3.12375 3.1446875 3.25 4.3125 C3 7 3 7 1.5 8.875 C-2.25875841 10.56644129 -4.98067496 9.73687626 -9 9 C-9 8.67 -9 8.34 -9 8 C-6.03 8 -3.06 8 0 8 C0 5.36 0 2.72 0 0 Z " fill="#176296" transform="translate(223,135)"/>
<path d="M0 0 C0.66 0 1.32 0 2 0 C2.33 1.65 2.66 3.3 3 5 C4.32 5.33 5.64 5.66 7 6 C7 4.02 7 2.04 7 0 C7.66 0 8.32 0 9 0 C9 2.64 9 5.28 9 8 C6.03 8 3.06 8 0 8 C0 5.36 0 2.72 0 0 Z " fill="#C6E3F2" transform="translate(214,135)"/>
<path d="M0 0 C0.66 0.66 1.32 1.32 2 2 C-6.01949541 10.31651376 -6.01949541 10.31651376 -12 11 C-10.68774191 7.06322574 -8.8038606 6.1728218 -5.4375 3.8125 C-4.42558594 3.09707031 -3.41367188 2.38164062 -2.37109375 1.64453125 C-1.58863281 1.10183594 -0.80617187 0.55914062 0 0 Z " fill="#174F7F" transform="translate(176,185)"/>
<path d="M0 0 C0.33 0 0.66 0 1 0 C1.12117188 0.94359375 1.24234375 1.8871875 1.3671875 2.859375 C2.42151255 10.93712689 3.59508985 18.97407713 5 27 C0.08063756 21.18620803 -0.28541225 15.40524837 -0.125 8.125 C-0.11597656 7.34125 -0.10695313 6.5575 -0.09765625 5.75 C-0.07428063 3.83319945 -0.03841653 1.91655809 0 0 Z " fill="#7FA3C9" transform="translate(89,122)"/>
<path d="M0 0 C0.33 0.66 0.66 1.32 1 2 C0.34 2 -0.32 2 -1 2 C-0.67 3.32 -0.34 4.64 0 6 C-0.680625 6.103125 -1.36125 6.20625 -2.0625 6.3125 C-5.62915989 7.14725019 -8.66222194 8.49472754 -12 10 C-12.66 9.34 -13.32 8.68 -14 8 C-9.38 5.36 -4.76 2.72 0 0 Z " fill="#1A6499" transform="translate(171,104)"/>
<path d="M0 0 C0.99 0.495 0.99 0.495 2 1 C2 2.65 2 4.3 2 6 C4.97 6.495 4.97 6.495 8 7 C8 4.69 8 2.38 8 0 C8.33 0 8.66 0 9 0 C9 2.64 9 5.28 9 8 C6.03 8 3.06 8 0 8 C0 5.36 0 2.72 0 0 Z " fill="#B5D8EB" transform="translate(183,135)"/>
<path d="M0 0 C3.0831351 1.19899698 6.06279492 2.47700477 9 4 C8.34 5.32 7.68 6.64 7 8 C6.67 7.01 6.34 6.02 6 5 C4.68 5.33 3.36 5.66 2 6 C1.34 4.02 0.68 2.04 0 0 Z " fill="#05457F" transform="translate(225,189)"/>
<path d="M0 0 C2.97 0.495 2.97 0.495 6 1 C6.33 3.97 6.66 6.94 7 10 C5.35 10 3.7 10 2 10 C2.99 7.69 3.98 5.38 5 3 C2.525 2.01 2.525 2.01 0 1 C0 0.67 0 0.34 0 0 Z " fill="#2B6493" transform="translate(184,164)"/>
<path d="M0 0 C0 3.9654966 -1.52850211 4.96358831 -4 8 C-5.04451438 9.97711651 -6.05698138 11.97250996 -7 14 C-7.66 12.68 -8.32 11.36 -9 10 C-7.8758824 8.70756532 -6.75067408 7.41607925 -5.625 6.125 C-4.99851562 5.40570313 -4.37203125 4.68640625 -3.7265625 3.9453125 C-2.52573166 2.5923402 -1.2791655 1.2791655 0 0 Z " fill="#79A0CC" transform="translate(102,102)"/>
<path d="M0 0 C0.66 0.33 1.32 0.66 2 1 C-2.105466 4.97185616 -5.02968261 7.70876501 -11 8 C-11 7.34 -11 6.68 -11 6 C-9.21385682 4.96953278 -7.42089982 3.95086764 -5.625 2.9375 C-4.62726563 2.36902344 -3.62953125 1.80054687 -2.6015625 1.21484375 C-1.74304688 0.81394531 -0.88453125 0.41304687 0 0 Z " fill="#6B96BB" transform="translate(76,30)"/>
<path d="M0 0 C0.66 0.33 1.32 0.66 2 1 C0.35 1.66 -1.3 2.32 -3 3 C-3 3.66 -3 4.32 -3 5 C-6.47307692 7.10865385 -6.47307692 7.10865385 -9.140625 6.55859375 C-10.06101562 6.28208984 -10.06101562 6.28208984 -11 6 C-9.73168307 5.18357746 -8.46024069 4.37200895 -7.1875 3.5625 C-6.47980469 3.11003906 -5.77210937 2.65757813 -5.04296875 2.19140625 C-3 1 -3 1 0 0 Z " fill="#7CA3CD" transform="translate(114,95)"/>
<path d="M0 0 C3 1 3 1 4.6875 4.0625 C5.120625 5.031875 5.55375 6.00125 6 7 C5.38125 6.814375 4.7625 6.62875 4.125 6.4375 C1.95839822 5.76313824 1.95839822 5.76313824 0 7 C-0.38133299 5.0085944 -0.71325582 3.00720923 -1 1 C-0.67 0.67 -0.34 0.34 0 0 Z " fill="#185180" transform="translate(60,168)"/>
<path d="M0 0 C0.33 0.99 0.66 1.98 1 3 C-4.41538462 7.06153846 -4.41538462 7.06153846 -7.375 6.75 C-7.91125 6.5025 -8.4475 6.255 -9 6 C-6.11912454 3.59927045 -3.43595166 1.52708963 0 0 Z " fill="#1E6498" transform="translate(185,96)"/>
<path d="M0 0 C4.61513112 1.31860889 8.09897612 3.21355437 12 6 C11.67 6.66 11.34 7.32 11 8 C6.125 6.25 6.125 6.25 5 4 C3.35636866 3.27840576 1.68949614 2.60648579 0 2 C0 1.34 0 0.68 0 0 Z " fill="#6D95BD" transform="translate(146,14)"/>
<path d="M0 0 C2.25597827 2.25597827 2.96574192 4.04603867 4.125 7 C4.47820313 7.886875 4.83140625 8.77375 5.1953125 9.6875 C6 12 6 12 6 14 C5.34 14 4.68 14 4 14 C4 13.01 4 12.02 4 11 C3.34 11 2.68 11 2 11 C0.80712589 7.12315913 0 4.08378077 0 0 Z " fill="#7EA4CB" transform="translate(55,154)"/>
<path d="M0 0 C4.2742558 1.5830577 6.26531794 4.50568404 9 8 C4.25 7.25 4.25 7.25 2 5 C2.33 4.34 2.66 3.68 3 3 C2.01 2.67 1.02 2.34 0 2 C0 1.34 0 0.68 0 0 Z " fill="#205482" transform="translate(66,177)"/>
<path d="M0 0 C0.66 0.33 1.32 0.66 2 1 C2 3.64 2 6.28 2 9 C-0.64 9 -3.28 9 -6 9 C-6 8.67 -6 8.34 -6 8 C-4.02 8 -2.04 8 0 8 C-0.33 7.01 -0.66 6.02 -1 5 C-0.5625 2.3125 -0.5625 2.3125 0 0 Z " fill="#115A8E" transform="translate(181,117)"/>
<path d="M0 0 C0.99 0 1.98 0 3 0 C3 2.31 3 4.62 3 7 C1.68 6.67 0.36 6.34 -1 6 C-1.042721 4.33388095 -1.04063832 2.66617115 -1 1 C-0.67 0.67 -0.34 0.34 0 0 Z " fill="#015A9D" transform="translate(178,118)"/>
<path d="M0 0 C7.45937249 0.61142397 7.45937249 0.61142397 10 2.4375 C11 4 11 4 11 6 C6.49197399 4.74194623 3.5087188 3.09592835 0 0 Z " fill="#0E4473" transform="translate(53,217)"/>
<path d="M0 0 C0.33 0.66 0.66 1.32 1 2 C-0.27984466 5.83953399 -2.81501296 7.65316744 -6 10 C-6.66 9.67 -7.32 9.34 -8 9 C-5.36 6.03 -2.72 3.06 0 0 Z " fill="#22557F" transform="translate(185,175)"/>
<path d="M0 0 C4.69023454 0.56606279 9.34500026 1.18537505 14 2 C14 2.33 14 2.66 14 3 C12.41676312 3.027193 10.83338938 3.04648306 9.25 3.0625 C7.92742187 3.07990234 7.92742187 3.07990234 6.578125 3.09765625 C4.2181162 3.00826198 2.25501476 2.66912821 0 2 C0 1.34 0 0.68 0 0 Z " fill="#2A5E88" transform="translate(116,165)"/>
<path d="M0 0 C2.64 0.66 5.28 1.32 8 2 C7.67 2.66 7.34 3.32 7 4 C4.6859378 4.73075648 2.35171131 5.40138258 0 6 C0 4.02 0 2.04 0 0 Z " fill="#055A93" transform="translate(223,118)"/>
<path d="M0 0 C1.27450447 0.59638333 2.54446877 1.20247416 3.8125 1.8125 C4.52019531 2.14894531 5.22789062 2.48539062 5.95703125 2.83203125 C8.01129035 4.00645471 9.41616278 5.25628016 11 7 C6.4923533 6.46968862 3.58045212 4.74778884 0 2 C0 1.34 0 0.68 0 0 Z " fill="#769FC7" transform="translate(139,96)"/>
<path d="M0 0 C-0.66 1.65 -1.32 3.3 -2 5 C-3.98 5 -5.96 5 -8 5 C-8.33 5.66 -8.66 6.32 -9 7 C-9 6.01 -9 5.02 -9 4 C-2.25 0 -2.25 0 0 0 Z " fill="#11609B" transform="translate(200,88)"/>
<path d="M0 0 C0 3 0 3 -1.53125 4.60546875 C-2.1809375 5.12753906 -2.830625 5.64960937 -3.5 6.1875 C-4.1496875 6.71730469 -4.799375 7.24710937 -5.46875 7.79296875 C-5.9740625 8.19128906 -6.479375 8.58960937 -7 9 C-7.66 8.67 -8.32 8.34 -9 8 C-6.03 5.36 -3.06 2.72 0 0 Z " fill="#E6F3FC" transform="translate(81,71)"/>
<path d="M0 0 C0.99 0.66 1.98 1.32 3 2 C-0.24509304 4.03977277 -3.40608886 5.66511872 -7 7 C-7 6.34 -7 5.68 -7 5 C-2.61538462 2 -2.61538462 2 0 2 C0 1.34 0 0.68 0 0 Z " fill="#5797CF" transform="translate(231,66)"/>
<path d="M0 0 C2.31 0 4.62 0 7 0 C6.01 0.495 6.01 0.495 5 1 C5 1.99 5 2.98 5 4 C4.01 3.67 3.02 3.34 2 3 C1.34 3.66 0.68 4.32 0 5 C0 3.35 0 1.7 0 0 Z " fill="#035A9B" transform="translate(193,136)"/>
<path d="M0 0 C0.66 0.33 1.32 0.66 2 1 C2 2.98 2 4.96 2 7 C0.68 7 -0.64 7 -2 7 C-1.34 5.35 -0.68 3.7 0 2 C-0.66 1.67 -1.32 1.34 -2 1 C-1.34 0.67 -0.68 0.34 0 0 Z " fill="#1264A0" transform="translate(174,102)"/>
<path d="M0 0 C3.93673644 1.31224548 6.22719294 2.91910327 9 6 C8.67 6.66 8.34 7.32 8 8 C6.68 7.34 5.36 6.68 4 6 C4 5.01 4 4.02 4 3 C2.68 2.34 1.36 1.68 0 1 C0 0.67 0 0.34 0 0 Z " fill="#7097BA" transform="translate(224,59)"/>
<path d="M0 0 C-0.66 1.65 -1.32 3.3 -2 5 C-3.32 5 -4.64 5 -6 5 C-5.625 3.0625 -5.625 3.0625 -5 1 C-3 0 -3 0 0 0 Z " fill="#015BA0" transform="translate(221,112)"/>
<path d="M0 0 C1.37478516 0.01740234 1.37478516 0.01740234 2.77734375 0.03515625 C3.69644531 0.04417969 4.61554688 0.05320313 5.5625 0.0625 C6.27277344 0.07410156 6.98304687 0.08570313 7.71484375 0.09765625 C4.43020716 2.28741398 1.507881 3.09572188 -2.28515625 4.09765625 C-2.61515625 3.10765625 -2.94515625 2.11765625 -3.28515625 1.09765625 C-2.28515625 0.09765625 -2.28515625 0.09765625 0 0 Z " fill="#729FCD" transform="translate(99.28515625,57.90234375)"/>
<path d="M0 0 C0.66 0 1.32 0 2 0 C3.38232443 1.62626404 4.71937515 3.2925002 6 5 C2.42424104 5 0.94704065 3.91159393 -2 2 C-1.34 1.34 -0.68 0.68 0 0 Z " fill="#0B4577" transform="translate(73,226)"/>
<path d="M0 0 C0.33 0 0.66 0 1 0 C1 2.64 1 5.28 1 8 C-0.65 8 -2.3 8 -4 8 C-4 7.01 -4 6.02 -4 5 C-2.68 5 -1.36 5 0 5 C0 3.35 0 1.7 0 0 Z " fill="#025B9B" transform="translate(212,117)"/>
<path d="M0 0 C0.99 0 1.98 0 3 0 C5 3 5 3 4.625 5.1875 C4.41875 5.785625 4.2125 6.38375 4 7 C0 2.25 0 2.25 0 0 Z " fill="#DEF2F9" transform="translate(65,172)"/>
</svg>
