<?xml version="1.0" encoding="UTF-8"?>
<svg version="1.1" xmlns="http://www.w3.org/2000/svg" width="302" height="317">
<path d="M0 0 C1.52519276 0.08937803 3.04681929 0.24537146 4.5625 0.4375 C5.80193359 0.59025391 5.80193359 0.59025391 7.06640625 0.74609375 C7.70449219 0.82988281 8.34257812 0.91367188 9 1 C9 1.66 9 2.32 9 3 C95.13 3 181.26 3 270 3 C268.85131949 23.6762491 268.85131949 23.6762491 268.18534851 30.92356873 C268.10972885 31.77432214 268.0341092 32.62507556 267.95619804 33.50160939 C267.70893141 36.27534497 267.4574099 39.04867585 267.20581055 41.82202148 C267.02470437 43.84352845 266.84386525 45.86505935 266.66326904 47.88661194 C266.17615325 53.33065774 265.68529184 58.77435977 265.19367957 64.21800113 C264.67425726 69.97652828 264.15824097 75.73536074 263.64179993 81.49415588 C262.77208692 91.18695986 261.9001391 100.87956059 261.02661133 110.57202148 C259.8087103 124.08564226 258.59506343 137.59964259 257.38218629 151.11371505 C256.52885974 160.61961705 255.67442394 170.12541939 254.81983209 179.6312077 C254.61628491 181.89542237 254.41277255 184.15964017 254.20929694 186.42386127 C252.99376218 199.94951449 251.77346961 213.47472115 250.5444603 226.99915695 C250.17201442 231.09932848 249.80160688 235.19967788 249.43259048 239.30015945 C248.97308586 244.40450496 248.50957468 249.50847172 248.04311907 254.61218655 C247.86945418 256.51954753 247.69717522 258.42703526 247.52635133 260.33465278 C247.29266635 262.94152339 247.054001 265.54789068 246.81404114 268.15419006 C246.74604848 268.92568567 246.67805582 269.69718127 246.60800278 270.49205554 C246.11412402 275.77175197 246.11412402 275.77175197 245 278 C242.61014459 278.82022281 240.26583391 279.51830825 237.82836914 280.16723633 C237.07685074 280.37407547 236.32533234 280.58091461 235.55104065 280.79402161 C233.04775668 281.48096042 230.54152956 282.15645926 228.03515625 282.83203125 C226.28589322 283.30973089 224.53682668 283.78815061 222.78794861 284.26725769 C218.1590558 285.53331281 213.5276142 286.78978594 208.89556885 288.04425049 C204.25245624 289.30333355 199.61163918 290.57081293 194.97070312 291.83789062 C189.71819322 293.27151813 184.46548254 294.70436035 179.21095276 296.13056946 C178.40611702 296.34922228 177.60128128 296.5678751 176.77205658 296.79315376 C175.18411036 297.22403721 173.59585762 297.65379277 172.00728607 298.08236504 C168.05418156 299.15238131 164.11304035 300.25172436 160.18345642 301.40534973 C152.18040086 303.74134506 144.53387133 305.96673012 136.12109375 305.91015625 C135.14152206 305.90468277 134.16195038 305.89920929 133.1526947 305.89356995 C118.17434509 305.31456699 103.7021034 300.37149088 89.43280029 296.13677979 C85.50136024 294.97693664 81.55996367 293.85207288 77.61914062 292.72460938 C71.54816893 290.98406803 65.48330038 289.22387456 59.42236328 287.44873047 C50.68623314 284.8922857 41.92202769 282.44224803 33.14064026 280.04551697 C32.20276169 279.78694412 31.26488312 279.52837128 30.29858398 279.26196289 C29.48598618 279.04037003 28.67338837 278.81877716 27.83616638 278.59046936 C26 278 26 278 25 277 C24.77833008 275.56141492 24.61884872 274.11319563 24.48446655 272.66384888 C24.34919619 271.23955503 24.34919619 271.23955503 24.21119308 269.78648758 C24.11491245 268.72273281 24.01863182 267.65897804 23.91943359 266.56298828 C23.81342457 265.43004711 23.70741554 264.29710594 23.59819412 263.12983322 C23.2993465 259.92277422 23.00477383 256.71535475 22.7121129 253.50772619 C22.45668083 250.71559429 22.19798996 247.92376775 21.93939674 245.13192713 C20.9478135 234.42235727 19.9727183 223.71129735 19 213 C18.91473871 212.06139318 18.82947742 211.12278637 18.74163246 210.15573692 C15.98852312 179.84179044 13.26550302 149.52516212 10.55096126 119.20774102 C9.71777643 109.9048878 8.88156018 100.60230867 8.0447737 91.29977882 C7.22747611 82.21244006 6.41221981 73.12491969 5.59857118 64.0372535 C5.11699737 58.65891815 4.63461349 53.28065862 4.15013504 47.90258408 C3.69956053 42.90011783 3.25152319 37.89743084 2.8054657 32.89455986 C2.64191254 31.06507712 2.47744972 29.23567544 2.3120079 27.40636253 C2.08653054 24.911655 1.86434154 22.41667551 1.64297485 19.92160034 C1.5770305 19.20065245 1.51108615 18.47970455 1.44314349 17.73690975 C1.09881577 13.81140157 0.93678823 9.94016427 1 6 C0.01 6 -0.98 6 -2 6 C-1.125 1.125 -1.125 1.125 0 0 Z " fill="#264EE3" transform="translate(16,12)"/>
<path d="M0 0 C55.77 0 111.54 0 169 0 C165.78742085 40.69266923 165.78742085 40.69266923 163.72314453 59.97314453 C162.4109125 72.44120692 161.44997868 84.94228442 160.4375 97.4375 C160.02093677 102.54048023 159.6026662 107.64331901 159.18359375 112.74609375 C159.08330872 113.96915222 158.98302368 115.19221069 158.87969971 116.45233154 C158.04609594 126.56478169 157.14482844 136.67013209 156.20645142 146.77334595 C155.9225339 149.8355002 155.64468348 152.89819544 155.3671875 155.9609375 C154.91145833 160.97395833 154.45572917 165.98697917 154 171 C147.06550995 173.75769657 139.99820754 175.79379229 132.8125 177.79296875 C131.55542236 178.14386063 130.29834473 178.4947525 129.00317383 178.85627747 C126.35476672 179.59437969 123.7054722 180.32920055 121.05566406 181.06225586 C117.67748037 181.99756336 114.30305565 182.94574808 110.92933655 183.89701366 C107.68456423 184.80890718 104.43578817 185.70618081 101.1875 186.60546875 C99.98520752 186.94603806 98.78291504 187.28660736 97.54418945 187.63749695 C89.96896777 189.71123741 83.2721622 191.22600557 75.53125 189.00390625 C74.72856689 188.77936768 73.92588379 188.5548291 73.09887695 188.32348633 C71.81243286 187.9467981 71.81243286 187.9467981 70.5 187.5625 C69.57727295 187.30170654 68.6545459 187.04091309 67.70385742 186.7722168 C65.6338796 186.18639306 63.5651812 185.59603594 61.49755859 185.00195312 C57.61271209 183.8890528 53.72306212 182.79416021 49.83203125 181.703125 C45.6307628 180.52485101 41.42955451 179.34643414 37.23046875 178.16040039 C29.83004876 176.07040642 22.42378254 174.00561476 15 172 C14.9498877 171.44352783 14.89977539 170.88705566 14.84814453 170.3137207 C14.60763721 167.64659808 14.36628779 164.97955213 14.125 162.3125 C14.03621582 161.32604492 13.94743164 160.33958984 13.85595703 159.32324219 C13.39987701 154.2847202 12.93015659 149.24838747 12.421875 144.21484375 C12.28434814 142.83655396 12.28434814 142.83655396 12.14404297 141.43041992 C11.97006322 139.69709538 11.79226272 137.96414822 11.60986328 136.23168945 C11.02861458 130.3999054 11 124.92859654 11 119 C22.22 119 33.44 119 45 119 C45.66 127.91 46.32 136.82 47 146 C49.64 146.33 52.28 146.66 55 147 C57.03686655 147.48267131 59.06339263 148.0120497 61.07421875 148.59375 C62.15380859 148.90183594 63.23339844 149.20992187 64.34570312 149.52734375 C65.99989258 150.00880859 65.99989258 150.00880859 67.6875 150.5 C69.8992695 151.13705102 72.11149325 151.77252754 74.32421875 152.40625 C75.29447998 152.68791016 76.26474121 152.96957031 77.2644043 153.25976562 C78.16715088 153.50404297 79.06989746 153.74832031 80 154 C80.79124268 154.2364624 81.58248535 154.4729248 82.39770508 154.71655273 C85.96249459 155.10483687 88.94291534 154.16273032 92.3125 153.12890625 C93.00384033 152.9277269 93.69518066 152.72654755 94.4074707 152.51927185 C96.60826062 151.87760769 98.80427407 151.22126595 101 150.5625 C103.19612433 149.90891451 105.39307622 149.25873834 107.5925293 148.61643982 C108.95802506 148.21719223 110.32160271 147.81130618 111.68286133 147.39784241 C115.21826797 146.35891454 118.31318571 145.77397996 122 146 C122.07347656 144.29070312 122.07347656 144.29070312 122.1484375 142.546875 C122.55540995 133.71594959 123.1196091 124.92237551 124 116.125 C124.0829834 115.28807617 124.1659668 114.45115234 124.25146484 113.58886719 C124.6613963 109.6409615 125.21783952 105.91080242 126 102 C87.39 102 48.78 102 9 102 C6 75 6 75 6 68 C46.59 68 87.18 68 129 68 C129.33 60.08 129.66 52.16 130 44 C130.66 40.7 131.32 37.4 132 34 C89.43 34 46.86 34 3 34 C0 6 0 6 0 0 Z " fill="#FCFEFE" transform="translate(67,71)"/>
<path d="M0 0 C36.3 0 72.6 0 110 0 C110 11.24850991 110 11.24850991 109.57275391 15.6796875 C109.47910553 16.67613281 109.38545715 17.67257813 109.28897095 18.69921875 C109.18587616 19.74722656 109.08278137 20.79523437 108.9765625 21.875 C108.87032562 22.99777344 108.76408875 24.12054688 108.65463257 25.27734375 C108.31582834 28.85199898 107.97086884 32.42602198 107.625 36 C107.17663363 40.66637943 106.73130733 45.33303643 106.2890625 50 C106.17895844 51.16127411 106.06885437 52.32254822 105.95541382 53.51901245 C105.10812388 62.57445803 104.38791567 71.63615894 103.70910645 80.70559692 C102.95305174 90.77237872 102.05667776 100.82318429 101.125 110.875 C100.95088279 112.77048874 100.77697927 114.66599713 100.60327148 116.56152344 C100.24563869 120.46199249 99.88712646 124.36237898 99.52783203 128.26269531 C98.69963252 137.25787805 97.88074022 146.25390677 97.0625 155.25 C96.94343292 156.55786469 96.94343292 156.55786469 96.82196045 157.89215088 C94.51330309 183.25831286 92.25857357 208.62933899 90 234 C85.70813869 235.65132743 81.53545548 237.25170678 77.046875 238.28125 C75.75535522 238.58228638 75.75535522 238.58228638 74.43774414 238.8894043 C73.55078857 239.09090088 72.66383301 239.29239746 71.75 239.5 C69.88922647 239.93317964 68.02854874 240.36677106 66.16796875 240.80078125 C65.27899902 241.00654785 64.3900293 241.21231445 63.47412109 241.42431641 C60.33108751 242.15564394 57.19520491 242.91316767 54.0625 243.6875 C53.20785156 243.89761719 52.35320312 244.10773438 51.47265625 244.32421875 C49.73122194 244.80015577 48.00488455 245.3331411 46.29296875 245.90625 C41.98068166 247.33856363 37.62107546 248.5732219 33.25 249.8125 C32.33420166 250.07240723 31.41840332 250.33231445 30.47485352 250.60009766 C28.58320604 251.13627928 26.69135909 251.67175761 24.79931641 252.20654297 C22.11839334 252.9664418 19.43990255 253.73441857 16.76171875 254.50390625 C15.1537379 254.96126131 13.54566927 255.41830792 11.9375 255.875 C10.8232666 256.19754761 10.8232666 256.19754761 9.68652344 256.52661133 C6.28494043 257.48474236 3.56761256 258 0 258 C0 247.11 0 236.22 0 225 C-3.63 224.34 -7.26 223.68 -11 223 C-11 222.34 -11 221.68 -11 221 C-12.32 220.67 -13.64 220.34 -15 220 C-8.37051793 220.89243028 -8.37051793 220.89243028 -6.0625 221.5625 C2.6101085 223.40214423 10.72612695 220.42365156 19 218.0625 C20.44563014 217.65803369 21.89151691 217.25448361 23.33764648 216.85180664 C27.121319 215.7956097 30.90140225 214.72709492 34.68084717 213.65588379 C38.54683966 212.56253549 42.41613299 211.48100172 46.28515625 210.3984375 C53.86003111 208.27710478 61.43115121 206.14273367 69 204 C69.08040527 202.9891333 69.16081055 201.9782666 69.24365234 200.93676758 C69.55143221 197.07286691 69.86137714 193.2091421 70.171875 189.34545898 C70.304273 187.69446229 70.43613518 186.04342252 70.56738281 184.39233398 C71.37288365 174.26471005 72.25602885 164.14852742 73.2353363 154.03620911 C73.84967934 147.66259702 74.42015854 141.28617878 74.96484375 134.90625 C75.04390457 133.9805571 75.12296539 133.0548642 75.204422 132.10112 C75.36599508 130.20642181 75.52743685 128.31171242 75.68875122 126.41699219 C76.86720533 112.59766238 78.08048995 98.79049356 79.5625 85 C81.33938834 67.69465267 82.63086541 50.34237149 84 33 C56.28 32.67 28.56 32.34 0 32 C0 21.44 0 10.88 0 0 Z " fill="#2A64F0" transform="translate(151,38)"/>
<path d="M0 0 C11.22 0 22.44 0 34 0 C34.66 8.91 35.32 17.82 36 27 C38.64 27.33 41.28 27.66 44 28 C46.04788645 28.47247893 48.08600827 28.99020801 50.109375 29.55859375 C51.19347656 29.86216797 52.27757812 30.16574219 53.39453125 30.47851562 C54.50183594 30.79498047 55.60914063 31.11144531 56.75 31.4375 C57.87277344 31.75009766 58.99554688 32.06269531 60.15234375 32.38476562 C64.69657144 33.66876784 68.76016152 34.88008076 73 37 C73 47.89 73 58.78 73 70 C69.20077812 70.94980547 68.39395818 71.09438887 64.921875 70.1015625 C64.10630127 69.87380127 63.29072754 69.64604004 62.45043945 69.41137695 C61.55929443 69.15187256 60.66814941 68.89236816 59.75 68.625 C58.33883911 68.22704224 58.33883911 68.22704224 56.89916992 67.82104492 C54.78562549 67.22413855 52.67331067 66.62286722 50.56201172 66.01806641 C46.65006549 64.89998445 42.73386161 63.79780421 38.81640625 62.69921875 C34.62067477 61.52231809 30.42504568 60.34512071 26.23144531 59.16064453 C18.83068925 57.07060725 11.42410625 55.00570221 4 53 C3.9498877 52.44352783 3.89977539 51.88705566 3.84814453 51.3137207 C3.60763721 48.64659808 3.36628779 45.97955213 3.125 43.3125 C3.03621582 42.32604492 2.94743164 41.33958984 2.85595703 40.32324219 C2.39987701 35.2847202 1.93015659 30.24838747 1.421875 25.21484375 C1.33019043 24.29598389 1.23850586 23.37712402 1.14404297 22.43041992 C0.97006322 20.69709538 0.79226272 18.96414822 0.60986328 17.23168945 C0.02861458 11.3999054 0 5.92859654 0 0 Z " fill="#E9EAEC" transform="translate(78,190)"/>
<path d="M0 0 C55.77 0 111.54 0 169 0 C168.67 1.32 168.34 2.64 168 4 C168 3.01 168 2.02 168 1 C140.28 1 112.56 1 84 1 C84 11.56 84 22.12 84 33 C99.84 33 115.68 33 132 33 C132 33.33 132 33.66 132 34 C89.43 34 46.86 34 3 34 C0 6 0 6 0 0 Z " fill="#E5E8EE" transform="translate(67,71)"/>
<path d="M0 0 C40.59 0 81.18 0 123 0 C123 0.33 123 0.66 123 1 C108.15 1 93.3 1 78 1 C78 11.56 78 22.12 78 33 C91.86 33 105.72 33 120 33 C120 33.33 120 33.66 120 34 C81.39 34 42.78 34 3 34 C0 7 0 7 0 0 Z " fill="#EBEAEB" transform="translate(73,139)"/>
<path d="M0 0 C13.2 0 26.4 0 40 0 C40 3.3 40 6.6 40 10 C39.34 10 38.68 10 38 10 C38 10.66 38 11.32 38 12 C38.66 12 39.32 12 40 12 C40.37534623 22.44713675 39.21312497 32.64511186 38 43 C33.24994858 44.26538411 28.49936726 45.52875237 23.74829102 46.7902832 C22.13323608 47.21942129 20.51832543 47.64910281 18.90356445 48.0793457 C16.57801744 48.69887086 14.25195274 49.31641807 11.92578125 49.93359375 C11.20787918 50.12529648 10.48997711 50.31699921 9.75032043 50.51451111 C6.17423541 51.4612503 2.63193633 52.27361273 -1 53 C-0.67 35.51 -0.34 18.02 0 0 Z " fill="#2A64EF" transform="translate(151,174)"/>
<path d="M0 0 C15.18 0 30.36 0 46 0 C45.34 10.23 44.68 20.46 44 31 C29.48 31 14.96 31 0 31 C0 20.77 0 10.54 0 0 Z " fill="#2964F0" transform="translate(151,107)"/>
<path d="M0 0 C1.52519276 0.08937803 3.04681929 0.24537146 4.5625 0.4375 C5.80193359 0.59025391 5.80193359 0.59025391 7.06640625 0.74609375 C7.70449219 0.82988281 8.34257812 0.91367188 9 1 C9 1.66 9 2.32 9 3 C95.13 3 181.26 3 270 3 C268.85117953 23.67876852 268.85117953 23.67876852 268.24389648 30.20361328 C268.17547546 30.96702026 268.10705444 31.73042725 268.03656006 32.51696777 C267.81764285 34.95168901 267.59445112 37.385995 267.37109375 39.8203125 C267.2153109 41.54334106 267.05980397 43.26639458 266.90455627 44.98947144 C266.50123411 49.45783144 266.0942431 53.92584938 265.68640137 58.39379883 C265.2684697 62.97977389 264.85412699 67.56607317 264.43945312 72.15234375 C263.62975037 81.1018775 262.81615883 90.05105287 262 99 C261.67 99 261.34 99 261 99 C260.97105453 95.54168414 260.95322 92.08339928 260.9375 88.625 C260.92912109 87.64015625 260.92074219 86.6553125 260.91210938 85.640625 C260.90727539 84.22910156 260.90727539 84.22910156 260.90234375 82.7890625 C260.89448853 81.48509521 260.89448853 81.48509521 260.88647461 80.15478516 C261 78 261 78 262 76 C262.14089782 74.27273078 262.22582688 72.54071368 262.28125 70.80859375 C262.31863281 69.78185547 262.35601562 68.75511719 262.39453125 67.69726562 C262.46497 65.52018637 262.53528205 63.34310302 262.60546875 61.16601562 C262.64285156 60.14056641 262.68023437 59.11511719 262.71875 58.05859375 C262.74904297 57.11298584 262.77933594 56.16737793 262.81054688 55.19311523 C263 53 263 53 264 52 C264.14481287 50.45184595 264.22702845 48.89771646 264.28125 47.34375 C264.31863281 46.40402344 264.35601562 45.46429688 264.39453125 44.49609375 C264.44673828 43.01302734 264.44673828 43.01302734 264.5 41.5 C264.56857628 39.5519257 264.64126787 37.60399041 264.71875 35.65625 C264.74904297 34.78806641 264.77933594 33.91988281 264.81054688 33.02539062 C265 31 265 31 266 30 C266.15764405 28.22130274 266.25100677 26.43681524 266.31640625 24.65234375 C266.35830078 23.57275391 266.40019531 22.49316406 266.44335938 21.38085938 C266.50233398 19.67639648 266.50233398 19.67639648 266.5625 17.9375 C266.60568359 16.79732422 266.64886719 15.65714844 266.69335938 14.48242188 C266.79982839 11.65507805 266.90184207 8.82764262 267 6 C267.66 5.67 268.32 5.34 269 5 C181.22 5 93.44 5 3 5 C2.67 7.31 2.34 9.62 2 12 C1.67 12 1.34 12 1 12 C1 10.02 1 8.04 1 6 C0.01 6 -0.98 6 -2 6 C-1.125 1.125 -1.125 1.125 0 0 Z " fill="#2C4ED0" transform="translate(16,12)"/>
<path d="M0 0 C40.59 0 81.18 0 123 0 C123 0.33 123 0.66 123 1 C94.39428716 1.89780868 65.80471934 2.09084791 37.1875 2.0625 C36.31722672 2.06164398 35.44695343 2.06078796 34.55030823 2.05990601 C23.70018471 2.04844698 12.85009251 2.02827231 2 2 C2.144375 2.74121094 2.28875 3.48242188 2.4375 4.24609375 C4.08150104 13.57351632 4.20358298 22.55601176 4 32 C4.83381195 31.99777939 5.6676239 31.99555878 6.52670288 31.99327087 C17.14279261 31.96631598 27.75888136 31.94820481 38.375 31.9375 C39.21796379 31.93664398 40.06092758 31.93578796 40.92943573 31.93490601 C67.29887213 31.91123513 93.6432816 32.09760279 120 33 C120 33.33 120 33.66 120 34 C81.39 34 42.78 34 3 34 C0 7 0 7 0 0 Z " fill="#C4D3FD" transform="translate(73,139)"/>
<path d="M0 0 C2.86422729 -0.36749268 2.86422729 -0.36749268 6.60498047 -0.35644531 C7.63447374 -0.35947788 7.63447374 -0.35947788 8.68476486 -0.36257172 C10.99582794 -0.36555663 13.3062055 -0.34684316 15.6171875 -0.328125 C17.26947883 -0.32539062 18.92177261 -0.32389406 20.57406616 -0.32354736 C25.06997646 -0.31849346 29.56559944 -0.2940989 34.06141663 -0.26589966 C37.80798565 -0.24472767 41.55454992 -0.23464778 45.30116272 -0.22460938 C86.20276414 -0.11234294 127.10290157 0.40823981 168 1 C168 1.33 168 1.66 168 2 C112.56 2 57.12 2 0 2 C0.66 6.62 1.32 11.24 2 16 C2.26229572 19.63749719 2.49042035 23.23574209 2.625 26.875 C2.66367188 27.76574219 2.70234375 28.65648438 2.7421875 29.57421875 C2.83430235 31.71588907 2.9181094 33.85791438 3 36 C0.10218663 33.10218663 -0.1271442 30.53683121 -0.28125 26.61328125 C-0.31863281 25.75669922 -0.35601562 24.90011719 -0.39453125 24.01757812 C-0.42933594 23.12490234 -0.46414062 22.23222656 -0.5 21.3125 C-0.79467651 13.90234881 -0.79467651 13.90234881 -1.65625 6.54296875 C-2 3 -2 3 0 0 Z " fill="#3455CA" transform="translate(67,69)"/>
<path d="M0 0 C1.52519276 0.08937803 3.04681929 0.24537146 4.5625 0.4375 C5.80193359 0.59025391 5.80193359 0.59025391 7.06640625 0.74609375 C7.70449219 0.82988281 8.34257812 0.91367188 9 1 C9 1.66 9 2.32 9 3 C94.14 3 179.28 3 267 3 C267 3.33 267 3.66 267 4 C179.55 4 92.1 4 2 4 C2 6.64 2 9.28 2 12 C1.67 12 1.34 12 1 12 C1 10.02 1 8.04 1 6 C0.01 6 -0.98 6 -2 6 C-1.125 1.125 -1.125 1.125 0 0 Z " fill="#516BC3" transform="translate(16,12)"/>
<path d="M0 0 C42.24 0 84.48 0 128 0 C127.01 11.22 126.02 22.44 125 34 C110.15 34 95.3 34 80 34 C80 33.67 80 33.34 80 33 C94.52 33 109.04 33 124 33 C124.28897562 23.92043986 124.28897562 23.92043986 124.56811523 14.84057617 C124.60622314 13.71111572 124.64433105 12.58165527 124.68359375 11.41796875 C124.72025146 10.26063232 124.75690918 9.1032959 124.79467773 7.91088867 C125 5 125 5 126 2 C124.53820312 2.00785522 124.53820312 2.00785522 123.046875 2.01586914 C94.40210917 2.15301563 65.76679637 1.87350087 37.125 1.5 C36.20775146 1.48804218 35.29050293 1.47608437 34.34545898 1.46376419 C22.8969051 1.31406159 11.44842366 1.15934568 0 1 C0 0.67 0 0.34 0 0 Z " fill="#385EC8" transform="translate(71,105)"/>
<path d="M0 0 C-0.60650895 12.30359826 -1.50342828 24.55400245 -2.62890625 36.8203125 C-2.7846891 38.54334106 -2.94019603 40.26639458 -3.09544373 41.98947144 C-3.49876589 46.45783144 -3.9057569 50.92584938 -4.31359863 55.39379883 C-4.7315303 59.97977389 -5.14587301 64.56607317 -5.56054688 69.15234375 C-6.37024963 78.1018775 -7.18384117 87.05105287 -8 96 C-8.33 96 -8.66 96 -9 96 C-9.02894547 92.54168414 -9.04678 89.08339928 -9.0625 85.625 C-9.07087891 84.64015625 -9.07925781 83.6553125 -9.08789062 82.640625 C-9.09111328 81.69960937 -9.09433594 80.75859375 -9.09765625 79.7890625 C-9.10289307 78.91975098 -9.10812988 78.05043945 -9.11352539 77.15478516 C-9 75 -9 75 -8 73 C-7.85910218 71.27273078 -7.77417312 69.54071368 -7.71875 67.80859375 C-7.68136719 66.78185547 -7.64398438 65.75511719 -7.60546875 64.69726562 C-7.53503 62.52018637 -7.46471795 60.34310302 -7.39453125 58.16601562 C-7.35714844 57.14056641 -7.31976563 56.11511719 -7.28125 55.05859375 C-7.25095703 54.11298584 -7.22066406 53.16737793 -7.18945312 52.19311523 C-7 50 -7 50 -6 49 C-5.85518713 47.45184595 -5.77297155 45.89771646 -5.71875 44.34375 C-5.68136719 43.40402344 -5.64398438 42.46429688 -5.60546875 41.49609375 C-5.57066406 40.50738281 -5.53585937 39.51867188 -5.5 38.5 C-5.43142372 36.5519257 -5.35873213 34.60399041 -5.28125 32.65625 C-5.25095703 31.78806641 -5.22066406 30.91988281 -5.18945312 30.02539062 C-5 28 -5 28 -4 27 C-3.84235595 25.22130274 -3.74899323 23.43681524 -3.68359375 21.65234375 C-3.62075195 20.03295898 -3.62075195 20.03295898 -3.55664062 18.38085938 C-3.51732422 17.24455078 -3.47800781 16.10824219 -3.4375 14.9375 C-3.39431641 13.79732422 -3.35113281 12.65714844 -3.30664062 11.48242188 C-3.20017161 8.65507805 -3.09815793 5.82764262 -3 3 C-2.34 2.67 -1.68 2.34 -1 2 C-16.18 2 -31.36 2 -47 2 C-47 1.67 -47 1.34 -47 1 C-40.7886655 0.85714956 -34.57732102 0.71474428 -28.3659668 0.57275391 C-26.25235721 0.52437418 -24.13875042 0.4758722 -22.02514648 0.42724609 C-18.98942782 0.3574267 -15.95369942 0.28804507 -12.91796875 0.21875 C-11.97100632 0.19687622 -11.02404388 0.17500244 -10.04838562 0.15246582 C-9.16769913 0.13244507 -8.28701263 0.11242432 -7.37963867 0.09179688 C-6.60464523 0.07403198 -5.82965179 0.05626709 -5.03117371 0.03796387 C-3.35436092 0.00662322 -1.67710565 0 0 0 Z " fill="#3150C6" transform="translate(286,15)"/>
<path d="M0 0 C1.52519276 0.08937803 3.04681929 0.24537146 4.5625 0.4375 C5.80193359 0.59025391 5.80193359 0.59025391 7.06640625 0.74609375 C7.70449219 0.82988281 8.34257812 0.91367188 9 1 C9 1.66 9 2.32 9 3 C39.03 3 69.06 3 100 3 C100 3.33 100 3.66 100 4 C67.66 4 35.32 4 2 4 C2 6.64 2 9.28 2 12 C1.67 12 1.34 12 1 12 C1 10.02 1 8.04 1 6 C0.01 6 -0.98 6 -2 6 C-1.125 1.125 -1.125 1.125 0 0 Z " fill="#4862BB" transform="translate(16,12)"/>
<path d="M0 0 C0.33 0 0.66 0 1 0 C1.02887814 3.47914941 1.04675687 6.95826831 1.0625 10.4375 C1.07087891 11.43072266 1.07925781 12.42394531 1.08789062 13.44726562 C1.09272461 14.86362305 1.09272461 14.86362305 1.09765625 16.30859375 C1.10551147 17.62041626 1.10551147 17.62041626 1.11352539 18.95874023 C1 21 1 21 0 22 C-0.14481287 23.54815405 -0.22702845 25.10228354 -0.28125 26.65625 C-0.31863281 27.59597656 -0.35601562 28.53570312 -0.39453125 29.50390625 C-0.42933594 30.49261719 -0.46414062 31.48132813 -0.5 32.5 C-0.56857628 34.4480743 -0.64126787 36.39600959 -0.71875 38.34375 C-0.76418945 39.64602539 -0.76418945 39.64602539 -0.81054688 40.97460938 C-1 43 -1 43 -2 44 C-2.13252559 45.45200327 -2.2032288 46.90977914 -2.24609375 48.3671875 C-2.27896484 49.25277344 -2.31183594 50.13835937 -2.34570312 51.05078125 C-2.40664337 52.92566621 -2.46396623 54.80067243 -2.51757812 56.67578125 C-2.55173828 57.56394531 -2.58589844 58.45210937 -2.62109375 59.3671875 C-2.6461499 60.18300293 -2.67120605 60.99881836 -2.69702148 61.83935547 C-3 64 -3 64 -5 67 C-7.4609375 67.765625 -7.4609375 67.765625 -10.375 68.25 C-11.33148438 68.42015625 -12.28796875 68.5903125 -13.2734375 68.765625 C-16 69 -16 69 -20 68 C-15.38 66.68 -10.76 65.36 -6 64 C-5.81824219 61.64230469 -5.63648438 59.28460938 -5.44921875 56.85546875 C-3.96704385 37.85753999 -2.27879828 18.92159727 0 0 Z " fill="#426DD9" transform="translate(226,178)"/>
<path d="M0 0 C2.475 0.495 2.475 0.495 5 1 C5 1.99 5 2.98 5 4 C6.56234375 3.98259766 6.56234375 3.98259766 8.15625 3.96484375 C18.14904562 3.88971877 28.03615326 4.24902366 38 5 C38 5.33 38 5.66 38 6 C27.11 6 16.22 6 5 6 C6.02475528 16.02275939 6.02475528 16.02275939 7.06469727 26.04394531 C7.25116821 27.91711426 7.25116821 27.91711426 7.44140625 29.828125 C7.57232666 31.1059082 7.70324707 32.38369141 7.83813477 33.70019531 C7.97531689 36.49680702 7.90070048 38.38710531 7 41 C6 40 6 40 5.90234375 37.27734375 C5.91394531 36.17519531 5.92554687 35.07304687 5.9375 33.9375 C5.94652344 32.83277344 5.95554687 31.72804687 5.96484375 30.58984375 C5.97644531 29.73519531 5.98804687 28.88054687 6 28 C5.34 28 4.68 28 4 28 C3.67 20.08 3.34 12.16 3 4 C2.01 3.67 1.02 3.34 0 3 C0 2.01 0 1.02 0 0 Z " fill="#3356D5" transform="translate(73,184)"/>
<path d="M0 0 C11.22 0 22.44 0 34 0 C34.66 8.91 35.32 17.82 36 27 C38.64 27.33 41.28 27.66 44 28 C44.99 28.66 45.98 29.32 47 30 C45.41906283 30.1357675 43.83473048 30.23234745 42.25 30.3125 C41.36828125 30.37050781 40.4865625 30.42851562 39.578125 30.48828125 C37 30 37 30 34.6875 28.25 C32.06053667 23.19066321 32.58109665 18.28784175 32.75 12.6875 C32.8325 8.830625 32.915 4.97375 33 1 C22.44 1 11.88 1 1 1 C1 3.97 1 6.94 1 10 C0.67 10 0.34 10 0 10 C0 6.7 0 3.4 0 0 Z " fill="#D5E0FC" transform="translate(78,190)"/>
<path d="M0 0 C0.33 0 0.66 0 1 0 C1.1430784 8.84150674 0.75339933 17.50185612 -0.09375 26.30078125 C-0.26022034 28.10436348 -0.26022034 28.10436348 -0.43005371 29.94438171 C-0.7811361 33.73429758 -1.14041872 37.52338205 -1.5 41.3125 C-1.74143126 43.90294398 -1.9823216 46.49343843 -2.22265625 49.08398438 C-2.80885952 55.38991926 -3.4017728 61.69519503 -4 68 C-4.33 68 -4.66 68 -5 68 C-5.02730665 65.49992418 -5.04698485 63.0001551 -5.0625 60.5 C-5.07087891 59.80390625 -5.07925781 59.1078125 -5.08789062 58.390625 C-5.10704281 54.25375401 -4.82258475 50.30755071 -4.25170898 46.20068359 C-3.6193843 40.67228914 -3.58703824 35.07532613 -3.39453125 29.51757812 C-3.33845703 28.08768555 -3.33845703 28.08768555 -3.28125 26.62890625 C-3.25095703 25.76338135 -3.22066406 24.89785645 -3.18945312 24.00610352 C-3 22 -3 22 -2 21 C-1.85575512 19.60978423 -1.77312811 18.21302699 -1.71875 16.81640625 C-1.66267578 15.54893555 -1.66267578 15.54893555 -1.60546875 14.25585938 C-1.57066406 13.36705078 -1.53585937 12.47824219 -1.5 11.5625 C-1.43121724 9.8136346 -1.35848817 8.06491862 -1.28125 6.31640625 C-1.25095703 5.53724854 -1.22066406 4.75809082 -1.18945312 3.95532227 C-1 2 -1 2 0 0 Z " fill="#314DC0" transform="translate(270,177)"/>
<path d="M0 0 C0.33 0 0.66 0 1 0 C1.09921812 9.32650366 1.06602831 18.62174855 0.5625 27.9375 C0.52326416 28.69981934 0.48402832 29.46213867 0.44360352 30.24755859 C0.25937219 33.36852924 -0.00640467 36.01921402 -1 39 C-1.38503552 41.72897438 -1.7398891 44.45128163 -2.0625 47.1875 C-2.15337891 47.93708984 -2.24425781 48.68667969 -2.33789062 49.45898438 C-2.5613731 51.30565535 -2.78105513 53.15278554 -3 55 C-3.33 55 -3.66 55 -4 55 C-3.38678357 36.60350718 -1.70544999 18.32035126 0 0 Z " fill="#4B75D7" transform="translate(231,116)"/>
<path d="M0 0 C0.66 0 1.32 0 2 0 C2.04898437 1.27617188 2.09796875 2.55234375 2.1484375 3.8671875 C2.22346191 5.53648072 2.29900988 7.20575046 2.375 8.875 C2.4059375 9.71675781 2.436875 10.55851562 2.46875 11.42578125 C2.50742187 12.23144531 2.54609375 13.03710938 2.5859375 13.8671875 C2.6173584 14.61081543 2.6487793 15.35444336 2.68115234 16.12060547 C2.85419551 18.24010974 2.85419551 18.24010974 5 20 C5.13525391 22.43017578 5.13525391 22.43017578 4.9765625 25.4453125 C4.925 26.52167969 4.8734375 27.59804687 4.8203125 28.70703125 C4.75585938 29.83496094 4.69140625 30.96289062 4.625 32.125 C4.56828125 33.26066406 4.5115625 34.39632812 4.453125 35.56640625 C4.31135306 38.3782163 4.15991439 41.18917281 4 44 C3.67 44 3.34 44 3 44 C2.56523523 39.66314437 2.13837317 35.32559844 1.71826172 30.98730469 C1.57482993 29.5170486 1.42938279 28.04698746 1.28173828 26.57714844 C0.39049436 17.68896076 -0.23172052 8.94698661 0 0 Z " fill="#3753CA" transform="translate(25,102)"/>
<path d="M0 0 C0.66 0 1.32 0 2 0 C3.35439668 2.70879335 3.06501451 5.00933268 3 8 C5.64 7.67 8.28 7.34 11 7 C10.67 8.65 10.34 10.3 10 12 C8.35 12.33 6.7 12.66 5 13 C5 13.66 5 14.32 5 15 C3.68 15 2.36 15 1 15 C-0.09506492 11.71480525 -0.09960608 9.26336585 -0.0625 5.8125 C-0.05347656 4.72582031 -0.04445313 3.63914063 -0.03515625 2.51953125 C-0.02355469 1.68808594 -0.01195313 0.85664063 0 0 Z " fill="#3150D6" transform="translate(113,202)"/>
<path d="M0 0 C2.35329129 2.35329129 2.27019478 2.89888239 2.37890625 6.09765625 C2.41306641 6.89880859 2.44722656 7.69996094 2.48242188 8.52539062 C2.50884766 9.36263672 2.53527344 10.19988281 2.5625 11.0625 C2.26336739 16.45702273 2.26336739 16.45702273 4 21 C4.08737645 22.85369611 4.10698153 24.71067541 4.09765625 26.56640625 C4.09282227 28.2534668 4.09282227 28.2534668 4.08789062 29.97460938 C4.07951172 31.15861328 4.07113281 32.34261719 4.0625 33.5625 C4.05798828 34.75037109 4.05347656 35.93824219 4.04882812 37.16210938 C4.03699675 40.10812226 4.02051287 43.05403681 4 46 C3.67 46 3.34 46 3 46 C2.56569848 41.37823099 2.13879832 36.75585435 1.71826172 32.1328125 C1.57470535 30.56557523 1.42925109 28.99851045 1.28173828 27.43164062 C0.42001457 18.2633693 -0.24303092 9.22167307 0 0 Z " fill="#3451C5" transform="translate(19,34)"/>
<path d="M0 0 C-3.34789402 2.23192935 -6.57869284 3.15751415 -10.40625 4.19921875 C-11.48791443 4.49817802 -11.48791443 4.49817802 -12.59143066 4.80317688 C-14.11373151 5.22193727 -15.63682597 5.6378219 -17.16064453 6.05102539 C-19.49415662 6.68591018 -21.82321327 7.33557782 -24.15234375 7.98632812 C-25.6325648 8.39153093 -27.113026 8.79585774 -28.59375 9.19921875 C-29.63915955 9.49284554 -29.63915955 9.49284554 -30.70568848 9.79240417 C-34.0199756 10.67757323 -35.67172605 11.10942465 -39 10 C-30.57142857 6.57142857 -30.57142857 6.57142857 -26 7 C-26 6.34 -26 5.68 -26 5 C-21.67125466 3.33509795 -17.73275937 2.6654568 -13.1484375 2.34375 C-10.94862219 2.10259271 -10.94862219 2.10259271 -8.9609375 0.9765625 C-6.01106851 -0.49249576 -3.23627498 -0.12447211 0 0 Z " fill="#2F4CC5" transform="translate(235,296)"/>
<path d="M0 0 C0.66 0 1.32 0 2 0 C4.06134225 10.96714131 4.57834581 21.87054854 5 33 C2.10218663 30.10218663 1.8728558 27.53683121 1.71875 23.61328125 C1.68136719 22.75669922 1.64398438 21.90011719 1.60546875 21.01757812 C1.57066406 20.12490234 1.53585938 19.23222656 1.5 18.3125 C1.25448459 12.15188174 0.85336537 6.10867381 0 0 Z " fill="#405CCC" transform="translate(65,72)"/>
<path d="M0 0 C0.33 0 0.66 0 1 0 C1.45441712 4.34076908 1.89971673 8.68234878 2.33666992 13.02490234 C2.48652235 14.5013943 2.63884313 15.97763793 2.79370117 17.45361328 C3.01613723 19.5778419 3.22961825 21.70281162 3.44140625 23.828125 C3.57232666 25.1059082 3.70324707 26.38369141 3.83813477 27.70019531 C3.97531689 30.49680702 3.90070048 32.38710531 3 35 C2 34 2 34 1.90234375 31.27734375 C1.91394531 30.17519531 1.92554687 29.07304687 1.9375 27.9375 C1.94652344 26.83277344 1.95554687 25.72804687 1.96484375 24.58984375 C1.97644531 23.73519531 1.98804687 22.88054687 2 22 C1.34 22 0.68 22 0 22 C0 14.74 0 7.48 0 0 Z " fill="#4562CD" transform="translate(77,190)"/>
<path d="M0 0 C11.02539309 2.91083387 22.01781191 5.93052246 33 9 C33 9.33 33 9.66 33 10 C29.04 9.67 25.08 9.34 21 9 C21 8.34 21 7.68 21 7 C19.7934375 7.0928125 19.7934375 7.0928125 18.5625 7.1875 C14.0024665 6.94749824 10.25896042 5.55630461 6 4 C4.824375 3.608125 3.64875 3.21625 2.4375 2.8125 C1.633125 2.544375 0.82875 2.27625 0 2 C0 1.34 0 0.68 0 0 Z " fill="#3B58C9" transform="translate(103,248)"/>
<path d="M0 0 C0 0.66 0 1.32 0 2 C-1.765625 2.44140625 -3.53125 2.8828125 -5.296875 3.32421875 C-6.02390625 3.50597656 -6.7509375 3.68773437 -7.5 3.875 C-9.61699917 4.40424979 -11.73399405 4.93348106 -13.8515625 5.46044922 C-15.30623271 5.8257698 -16.75933528 6.19738022 -18.2109375 6.57470703 C-21.90837058 7.52869217 -25.16887207 8.2394455 -29 8 C-26.16253617 6.10835745 -24.26924501 5.37698258 -21.03515625 4.4921875 C-19.58786133 4.09580078 -19.58786133 4.09580078 -18.11132812 3.69140625 C-16.6021582 3.28728516 -16.6021582 3.28728516 -15.0625 2.875 C-14.06025391 2.59785156 -13.05800781 2.32070312 -12.02539062 2.03515625 C-7.82863023 0.89847532 -4.37912679 0 0 0 Z " fill="#456FD7" transform="translate(188,252)"/>
<path d="M0 0 C1.52519276 0.08937803 3.04681929 0.24537146 4.5625 0.4375 C5.80193359 0.59025391 5.80193359 0.59025391 7.06640625 0.74609375 C7.70449219 0.82988281 8.34257812 0.91367188 9 1 C9.33 1.99 9.66 2.98 10 4 C7.36 4 4.72 4 2 4 C2 6.64 2 9.28 2 12 C1.67 12 1.34 12 1 12 C1 10.02 1 8.04 1 6 C0.01 6 -0.98 6 -2 6 C-1.125 1.125 -1.125 1.125 0 0 Z " fill="#6B75CA" transform="translate(16,12)"/>
<path d="M0 0 C0.33 0 0.66 0 1 0 C0.03644647 19.96810934 0.03644647 19.96810934 -1 29 C-1.99 29.33 -2.98 29.66 -4 30 C-3.86722656 29.33097656 -3.73445312 28.66195312 -3.59765625 27.97265625 C-2.28159416 20.81596823 -1.64498458 13.78310893 -1.34204102 6.52563477 C-1.09766094 1.09766094 -1.09766094 1.09766094 0 0 Z " fill="#D2E6FC" transform="translate(222,213)"/>
<path d="M0 0 C6.62420382 0.89171975 6.62420382 0.89171975 8.84375 1.53125 C11.6787508 2.14755452 14.35209277 2.09399899 17.25 2.0625 C18.86648437 2.04896484 18.86648437 2.04896484 20.515625 2.03515625 C21.74539062 2.01775391 21.74539062 2.01775391 23 2 C20.80524375 4.49045695 20.34911968 4.96508803 16.875 5.3125 C12.44473642 4.95522068 8.2996335 4.09197041 4 3 C4 2.34 4 1.68 4 1 C2.68 0.67 1.36 0.34 0 0 Z " fill="#4266CF" transform="translate(136,258)"/>
<path d="M0 0 C5.73842251 -0.20413361 10.60539047 -0.27141454 16 2 C16 2.66 16 3.32 16 4 C16.99 4.33 17.98 4.66 19 5 C12.42465139 4.37968409 6.33307408 2.85102717 0 1 C0 0.67 0 0.34 0 0 Z " fill="#D6E1FA" transform="translate(93,245)"/>
<path d="M0 0 C2.64 0 5.28 0 8 0 C4.644661 2.23689267 1.40369426 3.16735541 -2.4375 4.1875 C-3.44006836 4.47270508 -3.44006836 4.47270508 -4.46289062 4.76367188 C-7.93813861 5.69706355 -10.58608679 6.37080403 -14 5 C-10.535 4.505 -10.535 4.505 -7 4 C-7 3.34 -7 2.68 -7 2 C-4.69 2 -2.38 2 0 2 C0 1.34 0 0.68 0 0 Z " fill="#3B69D8" transform="translate(176,217)"/>
<path d="M0 0 C-3.6125362 1.84827434 -7.2089881 3.55049545 -11 5 C-11 4.34 -11 3.68 -11 3 C-13.31 3.33 -15.62 3.66 -18 4 C-15.07089056 2.04726038 -12.91867709 1.24603637 -9.5625 0.3125 C-8.61503906 0.04050781 -7.66757813 -0.23148438 -6.69140625 -0.51171875 C-4.01081763 -0.99803744 -2.53712417 -0.89369149 0 0 Z " fill="#4272DC" transform="translate(206,248)"/>
<path d="M0 0 C3.3 0 6.6 0 10 0 C10 0.66 10 1.32 10 2 C11.98 2 13.96 2 16 2 C16.33 2.99 16.66 3.98 17 5 C8.585 3.02 8.585 3.02 0 1 C0 0.67 0 0.34 0 0 Z " fill="#3C58CE" transform="translate(132,221)"/>
<path d="M0 0 C3.0004856 1.00016187 5.32521756 2.3372974 8 4 C5 6 5 6 1 6 C0.34 4.35 -0.32 2.7 -1 1 C-0.67 0.67 -0.34 0.34 0 0 Z " fill="#2C4AD8" transform="translate(162,310)"/>
<path d="M0 0 C3.3 0 6.6 0 10 0 C10 0.66 10 1.32 10 2 C11.32 2.66 12.64 3.32 14 4 C12.22773547 3.71715982 10.457212 3.42339502 8.6875 3.125 C7.20830078 2.88136719 7.20830078 2.88136719 5.69921875 2.6328125 C3 2 3 2 0 0 Z " fill="#324FC9" transform="translate(107,307)"/>
<path d="M0 0 C0.33 0.99 0.66 1.98 1 3 C2.98567708 3.1953125 4.97135417 3.390625 6.95703125 3.5859375 C9 4 9 4 12 6 C10.37536158 6.05395478 8.75021459 6.09277195 7.125 6.125 C6.22007813 6.14820313 5.31515625 6.17140625 4.3828125 6.1953125 C2 6 2 6 0 4 C0 2.68 0 1.36 0 0 Z " fill="#C9D7F8" transform="translate(113,214)"/>
<path d="M0 0 C0 0.66 0 1.32 0 2 C-3.01868434 3.50934217 -5.67297229 3.17510672 -9 3 C-9.99 2.34 -10.98 1.68 -12 1 C-10.56274129 0.83126522 -9.12518162 0.66509263 -7.6875 0.5 C-6.88699219 0.4071875 -6.08648437 0.314375 -5.26171875 0.21875 C-3 0 -3 0 0 0 Z " fill="#294ECE" transform="translate(83,296)"/>
<path d="M0 0 C0.99 0.33 1.98 0.66 3 1 C2.34 2.65 1.68 4.3 1 6 C0.01 6 -0.98 6 -2 6 C-1.125 1.125 -1.125 1.125 0 0 Z " fill="#DEE3EE" transform="translate(16,12)"/>
</svg>
