<?xml version="1.0" encoding="UTF-8"?>
<svg version="1.1" xmlns="http://www.w3.org/2000/svg" width="500" height="500">
<path d="M0 0 C145.53 0 291.06 0 441 0 C440.41853852 10.46630656 439.83450743 20.86039481 438.88404846 31.28688049 C438.77591023 32.50068309 438.667772 33.71448569 438.55635685 34.96507019 C438.26086105 38.27513892 437.96270016 41.58494633 437.66332114 44.89466465 C437.33848408 48.49348023 437.01722915 52.09261594 436.69551086 55.69171143 C436.13711816 61.93318192 435.57653145 68.17445215 435.01443672 74.41559029 C434.19071532 83.56187326 433.37059378 92.70847647 432.55127489 101.85515475 C431.20683723 116.86319961 429.85978754 131.87100881 428.51098633 146.87866211 C427.22707637 161.16437688 425.9439772 175.45016391 424.66235352 189.73608398 C424.54564351 191.03700475 424.54564351 191.03700475 424.42657574 192.36420675 C423.56676097 201.94848972 422.70720162 211.53279559 421.84781456 221.11711693 C421.61474595 223.71635512 421.38167551 226.31559316 421.14860292 228.914831 C420.99373611 230.64192995 420.83887353 232.36902928 420.6840152 234.09612899 C419.68574848 245.22926119 418.68614044 256.36227195 417.68527114 267.49517047 C416.93162288 275.87839534 416.17866965 284.26168256 415.42626953 292.64501953 C415.31644758 293.86864025 415.31644758 293.86864025 415.20440701 295.11698058 C413.20524671 317.39590537 411.23236126 339.67695712 409.2936331 361.96122229 C408.93546993 366.07741301 408.57620579 370.19350712 408.21670055 374.3095808 C407.98665642 376.94433703 407.75662143 379.57909406 407.52659607 382.21385193 C407.36011213 384.12047081 407.36011213 384.12047081 407.19026488 386.06560725 C406.54966217 393.41055988 405.91581434 400.75605562 405.28729105 408.10205126 C404.90824245 412.51622179 404.52340775 416.92987372 404.13698316 421.34340405 C403.96213353 423.35553218 403.78985034 425.36788528 403.62037158 427.3804729 C403.39154229 430.09545629 403.15384078 432.80952155 402.91392517 435.52354431 C402.81871081 436.69397328 402.81871081 436.69397328 402.72157294 437.88804728 C402.33214553 442.17169329 401.77162698 446.05966456 400 450 C397.25694782 451.28456856 395.02402803 452.06357747 392.12890625 452.7890625 C391.31625809 453.01434128 390.50360992 453.23962006 389.66633606 453.47172546 C386.97088122 454.21310285 384.26733053 454.9186714 381.5625 455.625 C379.67266196 456.13838023 377.7835092 456.65428913 375.89501953 457.17260742 C371.9402385 458.25456758 367.98217086 459.32304066 364.02099609 460.38134766 C355.35278035 462.70251934 346.71555279 465.13396022 338.07540894 467.55706787 C335.4752868 468.28444504 332.87382359 469.00676704 330.27172852 469.72705078 C320.4601165 472.44575091 310.67542366 475.24639722 300.90402222 478.10617065 C288.35962217 481.77646942 275.80500852 485.41069098 263.23891258 489.00600719 C259.46111183 490.08712285 255.68462049 491.17244579 251.91064453 492.2668457 C248.18328728 493.34758365 244.45308781 494.41792485 240.72068787 495.48111153 C239.31952963 495.88212473 237.91939813 496.2867456 236.520401 496.6952343 C222.78654885 500.70043836 214.34600432 499.86749633 200.859375 495.93359375 C199.35444123 495.50296847 197.84924151 495.07327171 196.34379578 494.6444397 C192.31215683 493.49319334 188.28434901 492.3290495 184.25715256 491.16237259 C180.04869645 489.94561597 175.83678605 488.7409352 171.62524414 487.53491211 C163.26295618 485.13813038 154.90458821 482.72793329 146.54742432 480.31335449 C139.01109493 478.13607442 131.47183731 475.96896365 123.93304443 473.80023193 C118.7173253 472.29875935 113.50323435 470.79205884 108.29248047 469.2734375 C98.72772986 466.48933619 89.15512992 463.75178322 79.54096985 461.14253235 C74.92278178 459.88815886 70.30940748 458.61655123 65.69607544 457.3444519 C63.5026787 456.74545758 61.30678364 456.15552904 59.10836792 455.57522583 C56.09433201 454.77937557 53.09000109 453.95366261 50.0859375 453.12109375 C49.18979233 452.89352386 48.29364716 452.66595398 47.37034607 452.43148804 C46.55509964 452.19942657 45.73985321 451.96736511 44.89990234 451.72827148 C44.19070648 451.53812973 43.48151062 451.34798798 42.75082397 451.15208435 C39.88445697 449.26594581 39.75981423 447.33094823 39 444 C38.44427744 439.91905289 38.09042519 435.82834475 37.74511719 431.72485352 C37.63339833 430.46719775 37.52167948 429.20954199 37.4065752 427.91377544 C37.16013791 425.13812042 36.91842382 422.36210674 36.68023872 419.58573151 C36.28634053 414.99448433 35.88212682 410.40417492 35.47703552 405.81390381 C34.87806325 399.01407237 34.28424092 392.21380673 33.69369507 385.41323853 C32.73994927 374.43197186 31.77579596 363.45163176 30.80981445 352.47143555 C30.46836964 348.58925124 30.12696724 344.70706321 29.78556824 340.82487488 C29.69906189 339.84130369 29.61255554 338.8577325 29.52342778 337.84435612 C28.8885604 330.62474976 28.2550943 323.40502114 27.62202454 316.18525696 C24.50497055 280.6469519 21.34959925 245.11209507 18.18359375 209.578125 C18.12155909 208.88185244 18.05952443 208.18557989 17.99560994 207.46820816 C16.61989304 192.02740932 15.24345215 176.58667507 13.86661287 161.14597627 C13.80488721 160.45374618 13.74316156 159.76151609 13.67956543 159.04830933 C13.61790425 158.35680294 13.55624307 157.66529655 13.49271338 156.95283542 C12.25480227 143.06984469 11.01815557 129.18674148 9.78181833 115.30361051 C8.90381473 105.44429972 8.02559438 95.58500824 7.14738655 85.72571564 C6.70787464 80.7914806 6.26841971 75.85724049 5.8290081 70.92299652 C5.31720853 65.17608567 4.80520021 59.42919346 4.2930398 53.68231475 C4.10818643 51.60775293 3.92339908 49.53318523 3.73868895 47.45861065 C3.56705949 45.53103195 3.39532679 43.60346243 3.22348344 41.67590278 C3.05979784 39.83937223 2.8963966 38.00281631 2.73330271 36.16623312 C2.3105062 31.41886001 1.87732111 26.67266984 1.43096352 21.92745018 C1.33787385 20.92970988 1.24478419 19.93196959 1.14887363 18.90399474 C0.97119439 17.00384578 0.79132071 15.10390022 0.60882586 13.20420772 C0.52898607 12.34739018 0.44914627 11.49057265 0.36688709 10.60779095 C0.29588191 9.86067213 0.22487672 9.11355331 0.15171987 8.34379452 C-0.02797226 5.56787981 0 2.7817246 0 0 Z " fill="#E24F27" transform="translate(29,0)"/>
<path d="M0 0 C90.75 0 181.5 0 275 0 C275 18.04931516 272.88948867 36.04985765 271 54 C201.37 54 131.74 54 60 54 C60.99 62.91 61.98 71.82 63 81 C64 94 64 94 64 111 C130.66 111 197.32 111 266 111 C264.68 124.53 263.36 138.06 262 152 C261.01879699 163.44097104 260.04657275 174.88125047 259.11883545 186.32647705 C258.57167315 193.07346152 258.0197663 199.82005589 257.46484375 206.56640625 C257.40506536 207.29439548 257.34528698 208.02238472 257.28369713 208.77243423 C256.2847517 220.90732792 255.18555946 233.03111883 254.02159119 245.15126038 C252.87707503 257.09011244 251.90997943 269.04120385 251 281 C245.33404863 282.60669924 239.66729286 284.21053905 234 285.8125 C232.70163712 286.17956558 232.70163712 286.17956558 231.37704468 286.55404663 C217.01943382 290.61039667 202.63959812 294.58078713 188.24765015 298.51333618 C178.90188675 301.06905666 169.57709901 303.66078949 160.3125 306.5 C155.16713899 308.06697645 150.02495995 309.60476876 144.8125 310.9375 C143.89082031 311.17339844 142.96914062 311.40929687 142.01953125 311.65234375 C134.42785496 312.52641773 127.1064678 310.40753497 119.859375 308.33984375 C118.90737213 308.0743573 117.95536926 307.80887085 116.97451782 307.53533936 C113.89783526 306.67582466 110.82395815 305.80670237 107.75 304.9375 C105.61559622 304.33953958 103.48099188 303.7422946 101.34619141 303.14575195 C97.13453355 301.96812767 92.9237985 300.78729693 88.71386719 299.60351562 C81.60764362 297.60680298 74.49230066 295.64431491 67.375 293.6875 C66.26954834 293.38175049 65.16409668 293.07600098 64.02514648 292.76098633 C58.67158502 291.2804161 53.31507425 289.81220141 47.95135498 288.36891174 C45.22788316 287.63534509 42.50576519 286.89682726 39.78375244 286.15786743 C37.85958625 285.63772832 35.93347472 285.12480265 34.00732422 284.61206055 C32.85635254 284.29922119 31.70538086 283.98638184 30.51953125 283.6640625 C29.49964111 283.39029785 28.47975098 283.1165332 27.42895508 282.83447266 C25 282 25 282 23 280 C22.64650556 277.46311294 22.41220633 275.01170689 22.25390625 272.4609375 C22.19821472 271.68375366 22.14252319 270.90656982 22.08514404 270.10583496 C21.90240117 267.52940798 21.73248467 264.95229755 21.5625 262.375 C21.43802906 260.58603489 21.31260966 258.79713554 21.1862793 257.00830078 C20.92212347 253.25967294 20.66215761 249.51078445 20.40429688 245.76171875 C20.00834648 240.05790591 19.57911749 234.35693202 19.140625 228.65625 C19.07080917 227.74565826 19.00099335 226.83506653 18.92906189 225.8968811 C18.65719846 222.35376741 18.38494843 218.81068548 18.11062622 215.26776123 C17.92185295 212.82189583 17.73599407 210.37582473 17.55078125 207.9296875 C17.49468689 207.2126062 17.43859253 206.4955249 17.38079834 205.75671387 C17.08436394 201.80764478 17 197.97353258 17 194 C35.15 194 53.3 194 72 194 C73.32 208.52 74.64 223.04 76 238 C82.1875 239.5159375 82.1875 239.5159375 88.5 241.0625 C101.0302531 244.16474338 113.42950738 247.62349833 125.78710938 251.35498047 C135.69794404 254.2438182 143.77689724 252.61873823 153.5625 249.9375 C155.31868652 249.47029541 155.31868652 249.47029541 157.11035156 248.99365234 C166.19079483 246.55549833 175.22489123 243.95545666 184.22094727 241.22241211 C189.1576884 239.73927655 193.8714047 238.55252822 199 238 C198.98771866 237.27645828 198.97543732 236.55291656 198.96278381 235.80744934 C198.89192502 228.36891971 199.31266917 221.09683744 200.05859375 213.69921875 C200.1672023 212.5786055 200.27581085 211.45799225 200.38771057 210.30342102 C200.61622447 207.9561684 200.84745145 205.60917844 201.08129883 203.26245117 C201.43824053 199.6800678 201.78723549 196.09697939 202.13476562 192.51367188 C202.35891765 190.2213094 202.58351159 187.92899008 202.80859375 185.63671875 C202.91280136 184.57305588 203.01700897 183.50939301 203.12437439 182.41349792 C203.22440262 181.41167984 203.32443085 180.40986176 203.42749023 179.37768555 C203.51409409 178.50564987 203.60069794 177.6336142 203.68992615 176.7351532 C204.05875874 173.4816907 204.53694372 170.24139393 205 167 C141.97 167 78.94 167 14 167 C9.69767681 127.20351049 9.69767681 127.20351049 8.484375 109.62109375 C7.99265393 102.65332354 7.35184765 95.70317574 6.6875 88.75 C6.56713379 87.48115967 6.44676758 86.21231934 6.32275391 84.9050293 C6.04860477 82.01672352 5.77397767 79.12846362 5.49902344 76.24023438 C5.42067261 75.4170874 5.34232178 74.59394043 5.26159668 73.74584961 C5.07441962 71.78114559 4.88697012 69.81646752 4.69934082 67.85180664 C4.01062652 60.63395598 3.33056144 53.4153527 2.65859985 46.19592285 C2.43037244 43.75873343 2.19945582 41.32179413 1.96566772 38.88513184 C1.63289813 35.41362106 1.30968589 31.94132915 0.98828125 28.46875 C0.88842926 27.44980652 0.78857727 26.43086304 0.68569946 25.38104248 C-0.09114004 16.81861016 0 8.71237778 0 0 Z " fill="#FEFEFD" transform="translate(112,92)"/>
<path d="M0 0 C59.07 0 118.14 0 179 0 C179 9.92240265 178.88925602 19.03586681 177.6875 28.75 C176.45111204 39.49025109 175.4292901 50.22486414 174.5625 61 C173.46115588 74.63359379 172.25896389 88.25507073 171 101.875 C169.73113142 115.61822147 168.55062533 129.36340002 167.5 143.125 C166.41211868 157.3686032 165.12130161 171.58537585 163.73974609 185.80334473 C162.57286263 197.82103574 161.47907423 209.84054591 160.5 221.875 C159.40282718 235.33992502 158.22767772 248.79632559 157 262.25 C156.91478088 263.18418762 156.82956177 264.11837524 156.74176025 265.08087158 C155.64021722 277.13922166 154.51431112 289.1951686 153.375 301.25 C152.47376817 310.78985426 151.61917361 320.330971 150.84375 329.88183594 C149.91245872 341.25961999 148.88864855 352.6293204 147.875 364 C147.7826004 365.03667816 147.69020081 366.07335632 147.59500122 367.14144897 C147.06422421 373.09437903 146.53249447 379.04722334 146 385 C140.97825919 386.44999694 135.94220622 387.82998407 130.890625 389.171875 C110.00742539 394.69057266 110.00742539 394.69057266 89.36108398 401.02026367 C82.87284204 403.1306966 76.27994154 404.65619311 69.63208008 406.17480469 C63.56055079 407.57788207 57.65780489 409.27115834 51.734375 411.19775391 C46.6601955 412.83479309 41.54773535 414.15891753 36.36572266 415.40600586 C29.66813168 417.03680162 23.05745418 418.95106541 16.44458008 420.89428711 C15.60822021 421.13800049 14.77186035 421.38171387 13.91015625 421.6328125 C13.17933838 421.84824707 12.44852051 422.06368164 11.69555664 422.28564453 C7.82696501 423.31086862 3.90683253 424.13181499 0 425 C0 406.52 0 388.04 0 369 C-2.64 369 -5.28 369 -8 369 C-11.9375 368.625 -11.9375 368.625 -15 368 C-15.33 367.34 -15.66 366.68 -16 366 C-16.99 365.34 -17.98 364.68 -19 364 C-15.4151649 364.4389594 -12.17141491 364.94066407 -8.75 366.125 C2.35258836 368.71560395 13.54840625 364.01134344 24.12548828 360.8515625 C28.75807764 359.47917659 33.40920204 358.17513435 38.0625 356.875 C39.05113037 356.59793213 40.03976074 356.32086426 41.05834961 356.03540039 C54.15178106 352.37924404 67.27355021 348.82526027 80.39282227 345.26318359 C82.22414598 344.76539103 84.05544534 344.26750884 85.88671875 343.76953125 C87.20492363 343.41160492 87.20492363 343.41160492 88.54975891 343.04644775 C94.85389766 341.32885942 101.13064916 339.53279895 107.39379883 337.6706543 C110 337 110 337 113 337 C112.97715942 336.11779785 112.97715942 336.11779785 112.95385742 335.21777344 C112.82957855 326.18515107 113.5722116 317.24227748 114.3125 308.25 C114.45002873 306.54207981 114.58747866 304.83415328 114.72485352 303.1262207 C115.63573184 291.91304905 116.67955286 280.71828207 117.80615234 269.5246582 C118.907101 258.40169356 119.80024154 247.26531499 120.68444824 236.1232605 C122.00983616 219.43747053 123.43380613 202.77175841 125.1875 186.125 C125.31437698 184.90694168 125.31437698 184.90694168 125.44381714 183.66427612 C125.68071328 181.40327947 125.92298137 179.14294525 126.16796875 176.8828125 C126.30485107 175.61840332 126.4417334 174.35399414 126.58276367 173.05126953 C127 170 127 170 128 167 C61.34 167 -5.32 167 -74 167 C-77 126 -77 126 -78 110 C-8.37 110 61.26 110 133 110 C133 106.7 133 103.4 133 100 C133.16415936 97.81666511 133.36641755 95.635573 133.62109375 93.4609375 C133.75193359 92.30207031 133.88277344 91.14320312 134.01757812 89.94921875 C134.15615234 88.76972656 134.29472656 87.59023437 134.4375 86.375 C135.61782159 76.24343575 136.36233179 66.20269128 137 56 C46.25 56 -44.5 56 -138 56 C-137.67 63.92 -137.34 71.84 -137 80 C-139 76 -139 76 -139 55 C-93.13 55 -47.26 55 0 55 C0 36.85 0 18.7 0 0 Z " fill="#EF652B" transform="translate(250,36)"/>
<path d="M0 0 C90.75 0 181.5 0 275 0 C275 18.04931516 272.88948867 36.04985765 271 54 C201.37 54 131.74 54 60 54 C60.99 62.91 61.98 71.82 63 81 C64 94 64 94 64 111 C130.66 111 197.32 111 266 111 C265.67 111.99 265.34 112.98 265 114 C265 113.34 265 112.68 265 112 C222.76 112 180.52 112 137 112 C137 129.82 137 147.64 137 166 C148.45514343 165.85106525 148.45514343 165.85106525 159.91015625 165.69335938 C164.58248794 165.62708616 169.25481813 165.56183794 173.92724609 165.50268555 C177.69444955 165.4549289 181.46156387 165.40258224 185.22866058 165.34705925 C186.66553272 165.32668683 188.10242926 165.30796543 189.53934479 165.29092598 C191.55265433 165.2667688 193.56588365 165.23618517 195.57910156 165.20532227 C196.72493713 165.18977798 197.87077271 165.1742337 199.05133057 165.15821838 C201.54139804 165.02460746 203.62652159 164.72326619 206 164 C207.20272819 166.40545638 207.10071472 167.94996953 207.0625 170.625 C207.05347656 171.44226563 207.04445313 172.25953125 207.03515625 173.1015625 C207.01775391 174.04128906 207.01775391 174.04128906 207 175 C206.34 175 205.68 175 205 175 C205.02320313 176.26972656 205.04640625 177.53945313 205.0703125 178.84765625 C205.20254623 189.28191481 205.33506112 199.76609017 203 210 C202.34 210.66 201.68 211.32 201 212 C201.62601403 196.88931643 203.383385 182.0884067 205 167 C141.97 167 78.94 167 14 167 C9.69767681 127.20351049 9.69767681 127.20351049 8.484375 109.62109375 C7.99265393 102.65332354 7.35184765 95.70317574 6.6875 88.75 C6.56713379 87.48115967 6.44676758 86.21231934 6.32275391 84.9050293 C6.04860477 82.01672352 5.77397767 79.12846362 5.49902344 76.24023438 C5.42067261 75.4170874 5.34232178 74.59394043 5.26159668 73.74584961 C5.07441962 71.78114559 4.88697012 69.81646752 4.69934082 67.85180664 C4.01062652 60.63395598 3.33056144 53.4153527 2.65859985 46.19592285 C2.43037244 43.75873343 2.19945582 41.32179413 1.96566772 38.88513184 C1.63289813 35.41362106 1.30968589 31.94132915 0.98828125 28.46875 C0.88842926 27.44980652 0.78857727 26.43086304 0.68569946 25.38104248 C-0.09114004 16.81861016 0 8.71237778 0 0 Z " fill="#ECEAE9" transform="translate(112,92)"/>
<path d="M0 0 C18.15 0 36.3 0 55 0 C56.32 14.52 57.64 29.04 59 44 C63.125 45.010625 67.25 46.02125 71.5 47.0625 C82.03032546 49.66413894 92.46723118 52.47767957 102.83007812 55.68969727 C109.48771242 57.71161461 116.11633858 58.99913605 123 60 C121.515 60.495 121.515 60.495 120 61 C120 79.15 120 97.3 120 116 C124.95 115.505 124.95 115.505 130 115 C124.92343123 118.38437918 119.7798136 118.69890775 113.77850342 117.5892334 C107.42489856 116.11910244 101.1856165 114.23450113 94.9375 112.375 C93.06887446 111.83285688 91.19973556 111.29247994 89.33007812 110.75390625 C85.64868553 109.69138911 81.9702618 108.61939441 78.29370117 107.5402832 C73.32762066 106.08775797 68.34742251 104.69134947 63.359375 103.31640625 C56.65560646 101.46779737 49.97855249 99.54328687 43.3125 97.5625 C33.97389041 94.80111593 24.59190011 92.27479643 15.1340332 89.95336914 C14.22613037 89.72512451 13.31822754 89.49687988 12.3828125 89.26171875 C11.58246582 89.06537842 10.78211914 88.86903809 9.95751953 88.66674805 C8 88 8 88 6 86 C5.64650556 83.46311294 5.41220633 81.01170689 5.25390625 78.4609375 C5.19821472 77.68375366 5.14252319 76.90656982 5.08514404 76.10583496 C4.90240117 73.52940798 4.73248467 70.95229755 4.5625 68.375 C4.43802906 66.58603489 4.31260966 64.79713554 4.1862793 63.00830078 C3.92212347 59.25967294 3.66215761 55.51078445 3.40429688 51.76171875 C3.00834648 46.05790591 2.57911749 40.35693202 2.140625 34.65625 C2.07080917 33.74565826 2.00099335 32.83506653 1.92906189 31.8968811 C1.65719846 28.35376741 1.38494843 24.81068548 1.11062622 21.26776123 C0.92185295 18.82189583 0.73599407 16.37582473 0.55078125 13.9296875 C0.49468689 13.2126062 0.43859253 12.4955249 0.38079834 11.75671387 C0.08436394 7.80764478 0 3.97353258 0 0 Z " fill="#EBE9E9" transform="translate(129,286)"/>
<path d="M0 0 C45.21 0 90.42 0 137 0 C136.67 7.92 136.34 15.84 136 24 C135.7334268 31.40412724 135.7334268 31.40412724 135.4765625 38.80859375 C135 43 135 43 132 52 C88.44 52 44.88 52 0 52 C0 34.84 0 17.68 0 0 Z " fill="#FEFEFE" transform="translate(249,93)"/>
<path d="M0 0 C0.33 0 0.66 0 1 0 C1.33 6.27 1.66 12.54 2 19 C65.03 19 128.06 19 193 19 C192.40027232 29.19537052 191.7764062 39.3174767 190.80859375 49.47265625 C190.69902847 50.64718857 190.5894632 51.82172089 190.47657776 53.03184509 C190.13293974 56.70899124 189.78530434 60.38574584 189.4375 64.0625 C189.20090452 66.5865635 188.96457441 69.11065188 188.72851562 71.63476562 C188.15539999 77.75680046 187.57902035 83.87852096 187 90 C186.2157666 90.21615967 185.4315332 90.43231934 184.62353516 90.6550293 C180.95730673 91.66567141 177.29113213 92.67650861 173.625 93.6875 C172.96373108 93.86985199 172.30246216 94.05220398 171.62115479 94.24008179 C163.70374766 96.42363377 155.78755071 98.61140255 147.875 100.8125 C146.48568267 101.19793682 145.09636006 101.58335457 143.70703125 101.96875 C141.32806736 102.63054817 138.95034212 103.29682458 136.57421875 103.96875 C135.58035156 104.2471875 134.58648437 104.525625 133.5625 104.8125 C132.73878906 105.04582031 131.91507813 105.27914062 131.06640625 105.51953125 C129 106 129 106 126 106 C126 77.95 126 49.9 126 21 C112.48224609 21.01740234 112.48224609 21.01740234 98.69140625 21.03515625 C92.27606454 21.04091161 85.86072476 21.04603854 79.44538212 21.05025387 C71.1239827 21.05580576 62.80259326 21.06286565 54.48120117 21.07543945 C47.89520334 21.08538632 41.30921302 21.09185343 34.72320789 21.09408849 C31.23386929 21.0953956 27.74455216 21.09848142 24.25522041 21.10573006 C20.36618768 21.11374398 16.47717622 21.11399114 12.58813477 21.11352539 C11.42288773 21.11712067 10.25764069 21.12071594 9.05708313 21.12442017 C7.47736725 21.12235817 7.47736725 21.12235817 5.86573792 21.12025452 C4.48443113 21.12163721 4.48443113 21.12163721 3.07521915 21.12304783 C1 21 1 21 0 20 C-0.08669432 18.5112814 -0.10703494 17.018555 -0.09765625 15.52734375 C-0.09443359 14.62822266 -0.09121094 13.72910156 -0.08789062 12.80273438 C-0.07951172 11.85720703 -0.07113281 10.91167969 -0.0625 9.9375 C-0.05798828 8.98810547 -0.05347656 8.03871094 -0.04882812 7.06054688 C-0.0370011 4.70696935 -0.02052025 2.35351523 0 0 Z " fill="#EF652B" transform="translate(124,240)"/>
<path d="M0 0 C25.41 0 50.82 0 77 0 C77 17.82 77 35.64 77 54 C52.91 54 28.82 54 4 54 C1.69230769 24 1.69230769 24 1.17358398 9.30981445 C0.93918651 6.19077855 0.44234211 3.09639478 0 0 Z " fill="#E24F26" transform="translate(173,148)"/>
<path d="M0 0 C0.33 0 0.66 0 1 0 C1.33 6.27 1.66 12.54 2 19 C65.03 19 128.06 19 193 19 C192.67 24.61 192.34 30.22 192 36 C191.67 36 191.34 36 191 36 C191 31.05 191 26.1 191 21 C188.62188614 21.00222061 186.24377228 21.00444122 183.79359436 21.00672913 C161.4400785 21.02712785 139.08656387 21.04202904 116.73304081 21.05181217 C105.23942257 21.05697575 93.74581114 21.06401963 82.25219727 21.07543945 C72.23824813 21.08538439 62.22430392 21.09185297 52.21034998 21.09408849 C46.90454557 21.09539593 41.59875529 21.09848381 36.2929554 21.10573006 C31.30509229 21.11248728 26.31724919 21.11461757 21.32938194 21.11310768 C19.49309811 21.11338414 17.65681365 21.11539102 15.82053375 21.11920547 C13.32479384 21.12413808 10.82913076 21.1229999 8.33338928 21.12025452 C7.59702195 21.12316736 6.86065461 21.1260802 6.10197312 21.12908131 C1.11412121 21.11412121 1.11412121 21.11412121 0 20 C-0.08669432 18.5112814 -0.10703494 17.018555 -0.09765625 15.52734375 C-0.09443359 14.62822266 -0.09121094 13.72910156 -0.08789062 12.80273438 C-0.07951172 11.85720703 -0.07113281 10.91167969 -0.0625 9.9375 C-0.05798828 8.98810547 -0.05347656 8.03871094 -0.04882812 7.06054688 C-0.0370011 4.70696935 -0.02052025 2.35351523 0 0 Z " fill="#CC5A3B" transform="translate(124,240)"/>
<path d="M0 0 C35.2541136 -0.04573804 70.50822121 -0.08099915 105.76235821 -0.10213066 C109.92067375 -0.10463219 114.07898923 -0.10722082 118.23730469 -0.10986328 C119.06518036 -0.1103879 119.89305603 -0.11091252 120.74601884 -0.11145304 C134.16595244 -0.1201651 147.58586897 -0.13593945 161.00579242 -0.15430559 C174.76709203 -0.17298241 188.52838267 -0.18411202 202.28969443 -0.18817699 C210.7870187 -0.19092667 219.28429475 -0.19962361 227.78160419 -0.21583293 C233.60175133 -0.22637247 239.42187341 -0.22960754 245.24202941 -0.22700275 C248.60427159 -0.22571671 251.96636083 -0.22882222 255.32859993 -0.23841095 C258.96696862 -0.24828299 262.60512674 -0.24599733 266.24349976 -0.24050903 C267.31546675 -0.24633472 268.38743375 -0.2521604 269.49188459 -0.25816262 C270.46076726 -0.25418052 271.42964993 -0.25019842 272.42789268 -0.24609566 C273.6889439 -0.24723482 273.6889439 -0.24723482 274.9754709 -0.24839699 C277 0 277 0 279 2 C279.00876962 4.57534391 278.90818751 7.00679628 278.6875 9.5625 C278.63916016 10.26052734 278.59082031 10.95855469 278.54101562 11.67773438 C278.14425223 16.85574777 278.14425223 16.85574777 277 18 C276.85547282 19.47507118 276.77305075 20.9563604 276.71875 22.4375 C276.68136719 23.33210938 276.64398438 24.22671875 276.60546875 25.1484375 C276.55326172 26.55996094 276.55326172 26.55996094 276.5 28 C276.43141512 29.85433195 276.35872187 31.70851808 276.28125 33.5625 C276.25095703 34.38878906 276.22066406 35.21507812 276.18945312 36.06640625 C276 38 276 38 275 39 C274.76321284 41.69235776 274.57801975 44.36498156 274.4375 47.0625 C274.39431641 47.82111328 274.35113281 48.57972656 274.30664062 49.36132812 C274.20026367 51.24065438 274.09960066 53.12030244 274 55 C273.34 55 272.68 55 272 55 C271.76413057 47.02601802 272.50778947 39.28835011 273.4375 31.375 C274.61782159 21.24343575 275.36233179 11.20269128 276 1 C185.25 1 94.5 1 1 1 C1.33 8.92 1.66 16.84 2 25 C0.09920061 21.19840121 -0.24412145 20.01795859 -0.1953125 16.015625 C-0.18886719 15.08105469 -0.18242188 14.14648438 -0.17578125 13.18359375 C-0.15902344 12.21550781 -0.14226562 11.24742188 -0.125 10.25 C-0.11597656 9.26644531 -0.10695313 8.28289062 -0.09765625 7.26953125 C-0.07412785 4.84610593 -0.04125368 2.42317778 0 0 Z " fill="#DE7C5A" transform="translate(111,91)"/>
<path d="M0 0 C2 2 2 2 2.1953125 4.1640625 C2.17210937 4.97617187 2.14890625 5.78828125 2.125 6.625 C2.10695313 7.44226563 2.08890625 8.25953125 2.0703125 9.1015625 C2.04710937 9.72804688 2.02390625 10.35453125 2 11 C1.34 11 0.68 11 0 11 C0.02320313 12.26972656 0.04640625 13.53945313 0.0703125 14.84765625 C0.20254623 25.28191481 0.33506112 35.76609017 -2 46 C-2.99 46.99 -2.99 46.99 -4 48 C-3.37398597 32.88931643 -1.616615 18.0884067 0 3 C-63.03 3 -126.06 3 -191 3 C-191 2.67 -191 2.34 -191 2 C-190.03386371 1.99576806 -189.06772741 1.99153612 -188.07231426 1.98717594 C-164.58783718 1.88408259 -141.10339142 1.77534713 -117.61896801 1.66066074 C-106.26218388 1.60533106 -94.90539662 1.55184946 -83.54858398 1.50268555 C-73.65252341 1.45984061 -63.75648594 1.41356181 -53.86046106 1.36312145 C-48.61832264 1.33652303 -43.37618879 1.31166998 -38.13402367 1.29092598 C-33.20358618 1.27136135 -28.27319266 1.24721804 -23.34279442 1.21950912 C-21.52993568 1.21013778 -19.71706729 1.2024628 -17.90419388 1.19658089 C-15.43540431 1.18832115 -12.96672151 1.17404481 -10.49797058 1.15821838 C-9.77521083 1.15724028 -9.05245107 1.15626217 -8.3077895 1.15525442 C-5.26195156 1.13002293 -2.91422293 0.97140764 0 0 Z " fill="#FED1BC" transform="translate(317,256)"/>
<path d="M0 0 C0.33 0 0.66 0 1 0 C1.02685938 2.14576637 1.04633088 4.29162645 1.0625 6.4375 C1.07410156 7.63246094 1.08570313 8.82742187 1.09765625 10.05859375 C1 13 1 13 0 14 C-0.14452718 15.47507118 -0.22694925 16.9563604 -0.28125 18.4375 C-0.31863281 19.33210938 -0.35601562 20.22671875 -0.39453125 21.1484375 C-0.42933594 22.08945313 -0.46414063 23.03046875 -0.5 24 C-0.56858488 25.85433195 -0.64127813 27.70851808 -0.71875 29.5625 C-0.76418945 30.80193359 -0.76418945 30.80193359 -0.81054688 32.06640625 C-1 34 -1 34 -2 35 C-2.21282691 37.92045812 -2.37700872 40.82554077 -2.5 43.75 C-2.70880744 48.62217353 -3.04145894 53.21478331 -4 58 C-4.30244973 61.88423865 -4.44011013 65.7778699 -4.60546875 69.66992188 C-4.89789724 75.79579447 -4.89789724 75.79579447 -6 78 C-6.14089782 79.72726922 -6.22582688 81.45928632 -6.28125 83.19140625 C-6.31863281 84.21814453 -6.35601562 85.24488281 -6.39453125 86.30273438 C-6.46497 88.47981363 -6.53528205 90.65689698 -6.60546875 92.83398438 C-6.66154297 94.3721582 -6.66154297 94.3721582 -6.71875 95.94140625 C-6.74904297 96.88701416 -6.77933594 97.83262207 -6.81054688 98.80688477 C-7 101 -7 101 -8 102 C-8.36760731 104.32817964 -8.70241581 106.6618385 -9 109 C-9.33 109 -9.66 109 -10 109 C-9.34350391 94.87034319 -8.34966332 80.78405163 -7.1875 66.6875 C-7.10140472 65.63504089 -7.01530945 64.58258179 -6.92660522 63.49822998 C-5.71036575 48.69075537 -4.36471708 33.9011116 -2.8125 19.125 C-2.68589493 17.90857315 -2.68589493 17.90857315 -2.55673218 16.66757202 C-2.31969879 14.40547113 -2.07723882 12.1440404 -1.83203125 9.8828125 C-1.69514893 8.61840332 -1.5582666 7.35399414 -1.41723633 6.05126953 C-1 3 -1 3 0 0 Z " fill="#DF7A51" transform="translate(378,203)"/>
<path d="M0 0 C0.66 0 1.32 0 2 0 C1.39349105 12.30359826 0.49657172 24.55400245 -0.62890625 36.8203125 C-0.7846891 38.54334106 -0.94019603 40.26639458 -1.09544373 41.98947144 C-1.49876589 46.45783144 -1.9057569 50.92584938 -2.31359863 55.39379883 C-2.7315303 59.97977389 -3.14587301 64.56607317 -3.56054688 69.15234375 C-4.37024963 78.1018775 -5.18384117 87.05105287 -6 96 C-6.33 96 -6.66 96 -7 96 C-7.02907584 91.6041806 -7.0468244 87.20838601 -7.0625 82.8125 C-7.07087891 81.56662109 -7.07925781 80.32074219 -7.08789062 79.03710938 C-7.09111328 77.83505859 -7.09433594 76.63300781 -7.09765625 75.39453125 C-7.10289307 74.28956299 -7.10812988 73.18459473 -7.11352539 72.04614258 C-7.00861806 69.23124189 -6.59626333 66.74378317 -6 64 C-5.78048786 60.52961767 -5.61122595 57.06441226 -5.48242188 53.58984375 C-5.30806712 49.93826296 -4.9515404 46.57641318 -4.03125 43.03515625 C-2.29018074 35.7505919 -2.29654378 28.14293852 -1.9375 20.6875 C-1.82156533 18.36374495 -1.70339571 16.04015946 -1.58070374 13.7167511 C-1.50521756 12.28010787 -1.43375727 10.84324566 -1.3669281 9.40617371 C-1.199909 6.15977906 -0.95890007 3.11630094 0 0 Z " fill="#DE8E76" transform="translate(468,0)"/>
<path d="M0 0 C22.11 0 44.22 0 67 0 C66.67 5.61 66.34 11.22 66 17 C65.67 17 65.34 17 65 17 C65 12.05 65 7.1 65 2 C43.55 2 22.1 2 0 2 C0 1.34 0 0.68 0 0 Z " fill="#DB6D3D" transform="translate(250,259)"/>
<path d="M0 0 C18.15 0 36.3 0 55 0 C55.495 4.66125 55.99 9.3225 56.5 14.125 C56.65662109 15.56375488 56.81324219 17.00250977 56.97460938 18.48486328 C57.8560509 27.0462722 58.18113012 35.39799663 58 44 C57.01 43.505 57.01 43.505 56 43 C55.93941406 41.69804687 55.87882812 40.39609375 55.81640625 39.0546875 C55.73195438 37.32811601 55.64730874 35.601554 55.5625 33.875 C55.52318359 33.0190625 55.48386719 32.163125 55.44335938 31.28125 C55.40146484 30.44335938 55.35957031 29.60546875 55.31640625 28.7421875 C55.26141968 27.59532471 55.26141968 27.59532471 55.20532227 26.42529297 C54.96599943 23.59838094 54.46640393 20.79842356 54 18 C54 12.39 54 6.78 54 1 C36.84 1.33 19.68 1.66 2 2 C2 7.94 2 13.88 2 20 C1.67 20 1.34 20 1 20 C0.67 13.4 0.34 6.8 0 0 Z " fill="#FAD1C5" transform="translate(129,286)"/>
<path d="M0 0 C0.33 0.99 0.66 1.98 1 3 C1.66 3 2.32 3 3 3 C3.01981934 3.57040009 3.03963867 4.14080017 3.06005859 4.72848511 C3.57020845 18.89729832 4.45903853 32.99325456 5.72949219 47.11376953 C6.00548102 50.18601345 6.27276288 53.25893365 6.5390625 56.33203125 C6.71304568 58.30733542 6.88750589 60.28259764 7.0625 62.2578125 C7.14169678 63.16604767 7.22089355 64.07428284 7.30249023 65.01004028 C7.67166324 69.07941732 8.18820792 72.99329901 9 77 C9.07700286 78.69257245 9.10805067 80.38773999 9.09765625 82.08203125 C9.09443359 83.01337891 9.09121094 83.94472656 9.08789062 84.90429688 C9.07951172 85.86400391 9.07113281 86.82371094 9.0625 87.8125 C9.05798828 88.79154297 9.05347656 89.77058594 9.04882812 90.77929688 C9.03708684 93.18626111 9.02066419 95.59309857 9 98 C8.67 98 8.34 98 8 98 C6.95274402 86.40399716 5.9093341 74.80765523 4.87078857 63.21086884 C4.38839478 57.82562932 3.90469325 52.44051403 3.41796875 47.05566406 C2.94801842 41.85585146 2.48154818 36.65573718 2.01745605 31.45539856 C1.84007841 29.47464437 1.66146192 27.4940007 1.48156738 25.51347351 C1.22919029 22.732575 0.98128098 19.95131076 0.734375 17.16992188 C0.65956909 16.35711761 0.58476318 15.54431335 0.50769043 14.70687866 C0.07632936 9.78359292 -0.06619694 4.9424115 0 0 Z " fill="#DC846A" transform="translate(46,189)"/>
<path d="M0 0 C1.94337637 2.91506455 2.27674667 3.82971692 2.5625 7.125 C2.56686899 10.77463966 2.56686899 10.77463966 4 12 C4.14470584 13.41628976 4.22700514 14.8390895 4.28125 16.26171875 C4.33732422 17.56979492 4.33732422 17.56979492 4.39453125 18.90429688 C4.42933594 19.82275391 4.46414062 20.74121094 4.5 21.6875 C4.70896074 28.32483803 4.70896074 28.32483803 5.5 34.90625 C6.29818084 39.84499396 6.33503811 44.81782051 6.5 49.8125 C6.77947836 58.46664377 6.77947836 58.46664377 7.65625 67.07421875 C8 71 8 71 6 74 C5.21399762 65.38551291 4.43140082 56.77072508 3.65309143 48.15553951 C3.29154526 44.15472821 2.92884844 40.15402833 2.56347656 36.15356445 C2.21059669 32.28940028 1.86079873 28.42496814 1.51309204 24.56033516 C1.38022475 23.08953562 1.24626691 21.61883416 1.11117554 20.14823723 C0.92144648 18.08076725 0.73567774 16.01297537 0.55078125 13.94506836 C0.44419189 12.77036484 0.33760254 11.59566132 0.2277832 10.38536072 C-0.00585413 6.91299472 -0.03906305 3.47912245 0 0 Z " fill="#DB785E" transform="translate(31,21)"/>
<path d="M0 0 C0.33 0 0.66 0 1 0 C2.89997952 6.83992628 3.36996368 13.4691292 3.65795898 20.52685547 C3.68962158 21.27467285 3.72128418 22.02249023 3.75390625 22.79296875 C3.77783447 23.4583667 3.8017627 24.12376465 3.82641602 24.80932617 C3.97602623 27.11458626 3.97602623 27.11458626 4.48193359 29.82177734 C5.37085193 35.27509445 5.59089353 40.79069429 5.92993164 46.30053711 C6.06021322 48.4006378 6.19871319 50.50008197 6.33789062 52.59960938 C6.92235263 61.7473069 7.11194084 70.83328898 7 80 C6.67 80 6.34 80 6 80 C5.21071472 71.48943419 4.42792305 62.97830523 3.65309143 54.46641254 C3.29299046 50.5127152 2.93077492 46.5592369 2.56347656 42.60620117 C2.20815068 38.78112955 1.85870616 34.95555952 1.51309204 31.12959862 C1.38118699 29.6804153 1.24727247 28.23141323 1.11117554 26.78261757 C0.27247211 17.83718895 -0.18162276 8.98954586 0 0 Z " fill="#D9775C" transform="translate(58,319)"/>
<path d="M0 0 C0.33 0 0.66 0 1 0 C0.33779811 16.11022841 -1.09134942 32.13383803 -2.5625 48.1875 C-2.7991535 50.79879866 -3.03548388 53.41012662 -3.27148438 56.02148438 C-3.84393781 62.34799836 -4.42035464 68.67414111 -5 75 C-5.33 75 -5.66 75 -6 75 C-6.14536918 63.28970477 -5.70495899 51.68623295 -5 40 C-4.90322375 38.3385662 -4.80686758 36.67710787 -4.7109375 35.015625 C-4.47877564 31.01011883 -4.24101688 27.0049827 -4 23 C-3.34 23 -2.68 23 -2 23 C-2.02320313 22.01 -2.04640625 21.02 -2.0703125 20 C-2.18269259 13.06140739 -2.1774038 6.66829915 0 0 Z " fill="#D9765A" transform="translate(447,245)"/>
<path d="M0 0 C0.33 0 0.66 0 1 0 C1.13277344 0.99902344 1.26554687 1.99804688 1.40234375 3.02734375 C1.57894531 4.31769531 1.75554687 5.60804688 1.9375 6.9375 C2.11152344 8.22527344 2.28554687 9.51304687 2.46484375 10.83984375 C2.66162423 13.85466313 2.66162423 13.85466313 4 15 C4.1330364 16.44281814 4.20335679 17.89153562 4.24609375 19.33984375 C4.27896484 20.23896484 4.31183594 21.13808594 4.34570312 22.06445312 C4.40577499 23.94457469 4.463173 25.82478405 4.51757812 27.70507812 C4.48811944 38.40852442 4.48811944 38.40852442 8.57202148 47.78100586 C9.27887085 48.38440796 9.27887085 48.38440796 10 49 C8.02 48.34 6.04 47.68 4 47 C2.77698824 37.30698129 1.73485892 27.60732329 0.875 17.875 C0.78750488 16.90425537 0.70000977 15.93351074 0.60986328 14.93334961 C0.17903424 9.93373895 -0.09730012 5.01790611 0 0 Z " fill="#DD7B64" transform="translate(65,402)"/>
<path d="M0 0 C0.66 0.33 1.32 0.66 2 1 C1.85975781 3.47960136 1.7130815 5.95852402 1.5625 8.4375 C1.52318359 9.14455078 1.48386719 9.85160156 1.44335938 10.58007812 C1.11328125 15.88671875 1.11328125 15.88671875 0 17 C-0.14452718 18.47507118 -0.22694925 19.9563604 -0.28125 21.4375 C-0.31863281 22.33210938 -0.35601562 23.22671875 -0.39453125 24.1484375 C-0.42933594 25.08945313 -0.46414063 26.03046875 -0.5 27 C-0.56858488 28.85433195 -0.64127813 30.70851808 -0.71875 32.5625 C-0.74904297 33.38878906 -0.77933594 34.21507812 -0.81054688 35.06640625 C-1 37 -1 37 -2 38 C-2.23678716 40.69235776 -2.42198025 43.36498156 -2.5625 46.0625 C-2.60568359 46.82111328 -2.64886719 47.57972656 -2.69335938 48.36132812 C-2.79973633 50.24065438 -2.90039934 52.12030244 -3 54 C-3.66 54 -4.32 54 -5 54 C-5.14743673 47.04157146 -4.73551701 40.3046434 -3.90625 33.3984375 C-3.79526978 32.435961 -3.68428955 31.4734845 -3.56994629 30.48184204 C-3.21861935 27.44558081 -2.85945084 24.41030905 -2.5 21.375 C-2.25859276 19.30084192 -2.01770252 17.22662359 -1.77734375 15.15234375 C-1.19086528 10.10084697 -0.5973585 5.05022124 0 0 Z " fill="#DE764B" transform="translate(388,92)"/>
<path d="M0 0 C0.33 0 0.66 0 1 0 C1.02685938 2.14576637 1.04633088 4.29162645 1.0625 6.4375 C1.07410156 7.63246094 1.08570313 8.82742187 1.09765625 10.05859375 C1 13 1 13 0 14 C-0.14452718 15.47507118 -0.22694925 16.9563604 -0.28125 18.4375 C-0.31863281 19.33210938 -0.35601562 20.22671875 -0.39453125 21.1484375 C-0.42933594 22.08945313 -0.46414063 23.03046875 -0.5 24 C-0.56858488 25.85433195 -0.64127813 27.70851808 -0.71875 29.5625 C-0.74904297 30.38878906 -0.77933594 31.21507812 -0.81054688 32.06640625 C-1 34 -1 34 -2 35 C-2.15582303 36.34015221 -2.25044142 37.68758903 -2.31640625 39.03515625 C-2.35830078 39.84404297 -2.40019531 40.65292969 -2.44335938 41.48632812 C-2.48267578 42.33646484 -2.52199219 43.18660156 -2.5625 44.0625 C-2.60568359 44.91650391 -2.64886719 45.77050781 -2.69335938 46.65039062 C-2.79976702 48.76672037 -2.90041731 50.88333813 -3 53 C-3.33 53 -3.66 53 -4 53 C-4.38480004 40.88592482 -3.79375102 28.98512384 -2.5625 16.9375 C-2.49501556 16.26821472 -2.42753113 15.59892944 -2.35800171 14.90936279 C-1.20641035 3.61923105 -1.20641035 3.61923105 0 0 Z " fill="#DE713F" transform="translate(378,203)"/>
<path d="M0 0 C0.33 0 0.66 0 1 0 C0.58065328 18.07282079 -0.03763398 36.01482014 -2 54 C-2.33 54 -2.66 54 -3 54 C-3.02907584 49.6041806 -3.0468244 45.20838601 -3.0625 40.8125 C-3.07087891 39.56662109 -3.07925781 38.32074219 -3.08789062 37.03710938 C-3.09111328 35.83505859 -3.09433594 34.63300781 -3.09765625 33.39453125 C-3.10289307 32.28956299 -3.10812988 31.18459473 -3.11352539 30.04614258 C-3.00859431 27.23060464 -2.59672133 24.74434847 -2 22 C-1.87597184 20.6587058 -1.78105739 19.31432457 -1.71875 17.96875 C-1.66267578 16.87626953 -1.66267578 16.87626953 -1.60546875 15.76171875 C-1.57066406 15.01535156 -1.53585937 14.26898438 -1.5 13.5 C-1.28591318 8.90902704 -1.06914356 4.49040296 0 0 Z " fill="#D96D50" transform="translate(464,42)"/>
<path d="M0 0 C0.99 0.33 1.98 0.66 3 1 C3 1.66 3 2.32 3 3 C26.1 3 49.2 3 73 3 C73 3.33 73 3.66 73 4 C48.91 4 24.82 4 0 4 C0 2.68 0 1.36 0 0 Z " fill="#D8542F" transform="translate(177,198)"/>
<path d="M0 0 C0.33 0 0.66 0 1 0 C1.144375 1.134375 1.28875 2.26875 1.4375 3.4375 C1.61171478 6.80777201 1.61171478 6.80777201 3 8 C3.14459705 9.4515606 3.22697111 10.90945286 3.28125 12.3671875 C3.31863281 13.25277344 3.35601562 14.13835937 3.39453125 15.05078125 C3.44673828 16.44876953 3.44673828 16.44876953 3.5 17.875 C3.56894539 19.70588303 3.64170176 21.53662756 3.71875 23.3671875 C3.74904297 24.18300293 3.77933594 24.99881836 3.81054688 25.83935547 C3.9317238 28.18209314 3.9317238 28.18209314 5 31 C5.26730154 34.09306067 5.44451759 37.18568109 5.62109375 40.28515625 C5.742113 43.14383065 5.742113 43.14383065 8 45 C6.35 44.67 4.7 44.34 3 44 C2.56841128 39.01989474 2.14132585 34.03943044 1.71826172 29.05859375 C1.57396686 27.36708359 1.42847954 25.67567469 1.28173828 23.984375 C1.0700404 21.54192873 0.86274952 19.09914062 0.65625 16.65625 C0.59062866 15.91008423 0.52500732 15.16391846 0.45739746 14.3951416 C0.05573051 9.57917906 -0.05730714 4.83290232 0 0 Z " fill="#CE6042" transform="translate(184,286)"/>
<path d="M0 0 C0.99 0.495 0.99 0.495 2 1 C2.37890625 3.32568359 2.37890625 3.32568359 2.5625 6.3984375 C2.63726562 7.51863281 2.71203125 8.63882813 2.7890625 9.79296875 C2.85867187 10.97503906 2.92828125 12.15710938 3 13.375 C3.45788945 20.89625815 4.04792269 28.20906676 5.5793457 35.59667969 C6.53907341 41.07988316 6.39235632 46.60461926 5 52 C4.67 52 4.34 52 4 52 C3.42593862 45.71987692 2.85679947 39.43932145 2.29101562 33.15844727 C2.09812834 31.02357987 1.90413103 28.88881245 1.70898438 26.75415039 C1.42803947 23.67880711 1.15114078 20.60312167 0.875 17.52734375 C0.78750488 16.57915268 0.70000977 15.63096161 0.60986328 14.65403748 C0.17328457 9.74540931 -0.0948246 4.92791597 0 0 Z " fill="#D97E63" transform="translate(41,133)"/>
<path d="M0 0 C0.33 0 0.66 0 1 0 C2.10831374 10.764792 3.16526732 21.53336076 4.125 32.3125 C4.21249512 33.27164307 4.29999023 34.23078613 4.39013672 35.21899414 C4.82391025 40.16898731 5.09594938 45.03119293 5 50 C4.67 50 4.34 50 4 50 C2.03538701 44.18570002 1.61974903 38.79951001 1.4375 32.6875 C1.3776913 30.89960153 1.31407877 29.11182498 1.24609375 27.32421875 C1.22216553 26.54135498 1.1982373 25.75849121 1.17358398 24.9519043 C1.11304834 22.92090806 1.11304834 22.92090806 0 21 C-0.08400529 19.40552536 -0.10727467 17.80759455 -0.09765625 16.2109375 C-0.09443359 15.26992187 -0.09121094 14.32890625 -0.08789062 13.359375 C-0.07951172 12.37453125 -0.07113281 11.3896875 -0.0625 10.375 C-0.05798828 9.38242188 -0.05347656 8.38984375 -0.04882812 7.3671875 C-0.03702145 4.9113984 -0.020554 2.45572896 0 0 Z " fill="#D16547" transform="translate(119,188)"/>
<path d="M0 0 C7.57874721 -0.42104151 14.59302052 0.72868035 21 5 C23.01658904 5.41516798 23.01658904 5.41516798 25.125 5.5625 C29 6 29 6 30 7 C32.32817964 7.36760731 34.6618385 7.70241581 37 8 C37 8.66 37 9.32 37 10 C37.99 10.33 38.98 10.66 40 11 C36.84895926 12.57552037 34.58410734 11.18412259 31.26953125 10.19921875 C30.60088547 10.00278275 29.93223969 9.80634674 29.24333191 9.60395813 C27.09764173 8.97194144 24.95509629 8.32991838 22.8125 7.6875 C21.38756866 7.2656038 19.96244042 6.84437199 18.53710938 6.42382812 C15.89300136 5.64306679 13.25043948 4.85769552 10.60864258 4.0690918 C7.07838719 3.02322289 3.5418639 2.00565821 0 1 C0 0.67 0 0.34 0 0 Z " fill="#E08B71" transform="translate(147,471)"/>
<path d="M0 0 C0.33 0 0.66 0 1 0 C0.37779839 11.71241204 -0.49837633 23.38244579 -1.5625 35.0625 C-1.70271172 36.62302553 -1.84268653 38.18357237 -1.98242188 39.74414062 C-2.31890272 43.4963433 -2.65852287 47.24824886 -3 51 C-3.33 51 -3.66 51 -4 51 C-4.48331657 16.52341829 -4.48331657 16.52341829 0 0 Z " fill="#DB7C62" transform="translate(460,101)"/>
<path d="M0 0 C-0.89203125 0.24234375 -1.7840625 0.4846875 -2.703125 0.734375 C-3.87359375 1.06953125 -5.0440625 1.4046875 -6.25 1.75 C-7.99023438 2.23726563 -7.99023438 2.23726563 -9.765625 2.734375 C-13.12248491 4.04792888 -14.54469195 5.45835145 -17 8 C-20.1875 7.6875 -20.1875 7.6875 -23 7 C-23.33 7.33 -23.66 7.66 -24 8 C-26.18292774 8.23481693 -28.37203174 8.41363323 -30.5625 8.5625 C-31.76003906 8.64628906 -32.95757812 8.73007812 -34.19140625 8.81640625 C-35.11824219 8.87699219 -36.04507812 8.93757813 -37 9 C-31.87167501 6.1701171 -26.1379531 4.92852251 -20.52783203 3.3762207 C-18.50386563 2.81357461 -16.48447528 2.23618816 -14.46484375 1.65820312 C-13.1747335 1.29856557 -11.88437659 0.93981142 -10.59375 0.58203125 C-8.84094727 0.09053589 -8.84094727 0.09053589 -7.05273438 -0.41088867 C-4.1731167 -0.96659224 -2.70025505 -1.018408 0 0 Z " fill="#E17648" transform="translate(339,381)"/>
<path d="M0 0 C0.33 0 0.66 0 1 0 C0.73510207 3.92874085 0.46849913 7.85736225 0.20043945 11.78588867 C0.06570557 13.76540366 -0.06774876 15.74500561 -0.20117188 17.72460938 C-0.70939311 25.15969787 -1.28133358 32.58216319 -2 40 C-2.66 40 -3.32 40 -4 40 C-4.02685412 37.68756208 -4.04632841 35.3750373 -4.0625 33.0625 C-4.07410156 31.77472656 -4.08570313 30.48695313 -4.09765625 29.16015625 C-4 26 -4 26 -3 25 C-2.76090047 21.56531623 -2.60539878 18.13761962 -2.48242188 14.69726562 C-2.24373411 9.54971631 -1.39197081 4.96488374 0 0 Z " fill="#FDE9D7" transform="translate(365,333)"/>
<path d="M0 0 C1.35490296 0.11674901 2.70890696 0.24393423 4.0625 0.375 C5.19365234 0.47941406 5.19365234 0.47941406 6.34765625 0.5859375 C9.66781169 1.10425337 12.77625214 2.05183886 16 3 C18.80642041 3.73297803 21.62161025 4.42940052 24.4375 5.125 C25.16904297 5.30675781 25.90058594 5.48851562 26.65429688 5.67578125 C28.43592749 6.11827774 30.21792542 6.55929488 32 7 C32 7.66 32 8.32 32 9 C33.65 9 35.3 9 37 9 C37 9.66 37 10.32 37 11 C24.56506542 8.00998744 12.27866607 4.57471083 0 1 C0 0.67 0 0.34 0 0 Z " fill="#D87457" transform="translate(84,453)"/>
<path d="M0 0 C6.625 -0.25 6.625 -0.25 10 2 C14.58852312 3.34956562 19.2635776 3.09287103 24 3 C24 3.66 24 4.32 24 5 C26.475 5.495 26.475 5.495 29 6 C29 6.66 29 7.32 29 8 C29.99 8.33 30.98 8.66 32 9 C24.8706101 8.38569577 18.33494834 6.50188332 11.5 4.4375 C9.83710938 3.9434668 9.83710938 3.9434668 8.140625 3.43945312 C5.42535856 2.63189543 2.71194685 1.81862271 0 1 C0 0.67 0 0.34 0 0 Z " fill="#D56C4A" transform="translate(216,337)"/>
<path d="M0 0 C0.33 0 0.66 0 1 0 C0.49761154 11.42272701 -0.4109323 22.67596413 -2 34 C-2.33 34 -2.66 34 -3 34 C-3.02888146 30.68751813 -3.04675799 27.37506833 -3.0625 24.0625 C-3.07087891 23.11697266 -3.07925781 22.17144531 -3.08789062 21.19726562 C-3.09111328 20.29814453 -3.09433594 19.39902344 -3.09765625 18.47265625 C-3.10289307 17.64000244 -3.10812988 16.80734863 -3.11352539 15.94946289 C-3 14 -3 14 -2 13 C-1.60333773 10.81980521 -1.25684763 8.6303537 -0.9375 6.4375 C-0.76089844 5.23996094 -0.58429688 4.04242188 -0.40234375 2.80859375 C-0.26957031 1.88175781 -0.13679688 0.95492188 0 0 Z " fill="#DA7961" transform="translate(432,415)"/>
<path d="M0 0 C3.5848351 0.4389594 6.82858509 0.94066407 10.25 2.125 C15.3549411 3.31615292 19.84839665 2.69392022 25 2 C26.11955078 1.85304688 26.11955078 1.85304688 27.26171875 1.703125 C28.84346543 1.48495304 30.42225257 1.24542738 32 1 C24.09411314 6.27059124 15.9914174 5.69107387 6.6875 4.625 C5.800625 4.41875 4.91375 4.2125 4 4 C3.67 3.34 3.34 2.68 3 2 C2.01 1.34 1.02 0.68 0 0 Z " fill="#D76644" transform="translate(231,400)"/>
<path d="M0 0 C3.13217778 3.39590209 3.35738037 5.74512078 3.29296875 10.296875 C3.28330078 11.50214844 3.27363281 12.70742187 3.26367188 13.94921875 C3.23853516 15.20347656 3.21339844 16.45773438 3.1875 17.75 C3.17396484 19.01972656 3.16042969 20.28945312 3.14648438 21.59765625 C3.1111324 24.73219844 3.06178248 27.86588545 3 31 C2.67 31 2.34 31 2 31 C1.66080904 27.33385091 1.32971919 23.6670121 1 20 C0.90460937 18.97003906 0.80921875 17.94007812 0.7109375 16.87890625 C0.20678649 11.22521274 -0.109151 5.67585202 0 0 Z " fill="#DC7B60" transform="translate(38,99)"/>
<path d="M0 0 C-2.62437839 1.74958559 -4.18203372 2.4748682 -7.125 3.2890625 C-7.91390625 3.50820313 -8.7028125 3.72734375 -9.515625 3.953125 C-10.33546875 4.17484375 -11.1553125 4.3965625 -12 4.625 C-13.22976563 4.96917969 -13.22976563 4.96917969 -14.484375 5.3203125 C-20.60323661 7 -20.60323661 7 -24 7 C-24 6.34 -24 5.68 -24 5 C-22.88625 4.71125 -21.7725 4.4225 -20.625 4.125 C-16.99708908 3.30758671 -16.99708908 3.30758671 -15 1 C-10.1635091 -0.51140341 -5.01191478 -0.08758686 0 0 Z " fill="#D96D50" transform="translate(394,459)"/>
<path d="M0 0 C1.94337637 2.91506455 2.27674667 3.82971692 2.5625 7.125 C2.56686899 10.77463966 2.56686899 10.77463966 4 12 C4.07319621 14.69654854 4.09242537 17.36691458 4.0625 20.0625 C4.05798828 20.82111328 4.05347656 21.57972656 4.04882812 22.36132812 C4.0370068 24.24091871 4.01907078 26.12046899 4 28 C3.67 28 3.34 28 3 28 C1.40681259 21.58191577 0.62073804 15.53659021 0.375 8.9375 C0.33632813 8.07189453 0.29765625 7.20628906 0.2578125 6.31445312 C0.16479519 4.20993641 0.08137331 2.1049991 0 0 Z " fill="#D86F50" transform="translate(31,21)"/>
<path d="M0 0 C0.33 0.99 0.66 1.98 1 3 C1.66 3 2.32 3 3 3 C3 9.93 3 16.86 3 24 C2.67 24 2.34 24 2 24 C1.66029235 21.50072231 1.32811968 19.00080405 1 16.5 C0.90460937 15.80390625 0.80921875 15.1078125 0.7109375 14.390625 C0.0838378 9.55299871 -0.08789528 4.87818804 0 0 Z " fill="#D87255" transform="translate(46,189)"/>
<path d="M0 0 C0.66 0 1.32 0 2 0 C1.88618103 2.93832645 1.75943449 5.8751065 1.625 8.8125 C1.5940625 9.64587891 1.563125 10.47925781 1.53125 11.33789062 C1.49257813 12.14033203 1.45390625 12.94277344 1.4140625 13.76953125 C1.3826416 14.50792236 1.3512207 15.24631348 1.31884766 16.00708008 C1 18 1 18 -1 21 C-1.0270203 18.24993392 -1.04684883 15.50013454 -1.0625 12.75 C-1.07087891 11.97269531 -1.07925781 11.19539062 -1.08789062 10.39453125 C-1.09111328 9.64042969 -1.09433594 8.88632813 -1.09765625 8.109375 C-1.10289307 7.41811523 -1.10812988 6.72685547 -1.11352539 6.01464844 C-0.99437971 3.90026102 -0.57618237 2.03358485 0 0 Z " fill="#D9775D" transform="translate(468,0)"/>
<path d="M0 0 C-3.37526629 2.25017753 -6.63074995 3.13004999 -10.5 4.125 C-11.51513672 4.39763672 -11.51513672 4.39763672 -12.55078125 4.67578125 C-15.45189063 5.43682178 -17.9877454 6 -21 6 C-21 5.34 -21 4.68 -21 4 C-13.92659284 1.14581816 -7.6926298 -0.18762512 0 0 Z " fill="#DC8468" transform="translate(320,480)"/>
<path d="M0 0 C6.4118727 -0.35621515 12.04495899 0.46939778 18 3 C18.33 3.66 18.66 4.32 19 5 C12.31006781 4.46048934 6.36539272 3.11293829 0 1 C0 0.67 0 0.34 0 0 Z " fill="#D8775D" transform="translate(147,471)"/>
<path d="M0 0 C0.33 0 0.66 0 1 0 C3.06815877 7.97718384 3.6362981 14.81850951 2 23 C1.67 23 1.34 23 1 23 C0.02840067 15.31395526 -0.10920422 7.74136601 0 0 Z " fill="#DA795C" transform="translate(58,319)"/>
<path d="M0 0 C-2.93270882 1.5613959 -5.82068273 2.66538899 -9 3.625 C-10.2684375 4.01558594 -10.2684375 4.01558594 -11.5625 4.4140625 C-14 5 -14 5 -18 5 C-18 4.34 -18 3.68 -18 3 C-16.68 3 -15.36 3 -14 3 C-14 2.34 -14 1.68 -14 1 C-9.27685687 0.22887459 -4.78478822 -0.09764874 0 0 Z " fill="#DE8670" transform="translate(285,490)"/>
<path d="M0 0 C5.78898419 -0.20674944 10.42932723 0.40837921 16 2 C16 2.66 16 3.32 16 4 C16.66 4.33 17.32 4.66 18 5 C11.69632197 4.41632611 6.01339937 2.95928381 0 1 C0 0.67 0 0.34 0 0 Z " fill="#DF866E" transform="translate(203,487)"/>
<path d="M0 0 C0.33 0 0.66 0 1 0 C1.08126087 2.08268593 1.13930839 4.16628658 1.1875 6.25 C1.23970703 7.99023438 1.23970703 7.99023438 1.29296875 9.765625 C0.97982934 13.22268407 0.34290892 14.51565563 -2 17 C-1.85899143 14.72886197 -1.71203245 12.45809275 -1.5625 10.1875 C-1.48128906 8.92292969 -1.40007812 7.65835938 -1.31640625 6.35546875 C-1 3 -1 3 0 0 Z " fill="#DF784A" transform="translate(378,203)"/>
<path d="M0 0 C-5.66221678 3.61752739 -11.40232633 3.69040043 -18 4 C-15.07089056 2.04726038 -12.91867709 1.24603637 -9.5625 0.3125 C-8.61503906 0.04050781 -7.66757812 -0.23148437 -6.69140625 -0.51171875 C-4.01081763 -0.99803744 -2.53712417 -0.89369149 0 0 Z " fill="#FCDCCD" transform="translate(308,332)"/>
<path d="M0 0 C3.96 0 7.92 0 12 0 C8.99559979 2.00293347 7.29006055 2.49271626 3.8125 3.125 C2.46091797 3.37636719 2.46091797 3.37636719 1.08203125 3.6328125 C0.39496094 3.75398438 -0.29210937 3.87515625 -1 4 C-0.67 2.68 -0.34 1.36 0 0 Z " fill="#DD6D50" transform="translate(403,453)"/>
<path d="M0 0 C2 3 2 3 2.4375 6.5 C2.99438509 9.96506278 3.26204915 10.9762972 6 13 C4.02 12.34 2.04 11.68 0 11 C0 7.37 0 3.74 0 0 Z " fill="#CF6548" transform="translate(69,438)"/>
<path d="M0 0 C6.625 -0.25 6.625 -0.25 10 2 C11.65549531 2.38499891 13.3222433 2.72793135 15 3 C15 3.66 15 4.32 15 5 C12.87308203 4.55065113 10.74849961 4.09023527 8.625 3.625 C7.44164062 3.36976563 6.25828125 3.11453125 5.0390625 2.8515625 C2 2 2 2 0 0 Z " fill="#D36D51" transform="translate(216,337)"/>
<path d="M0 0 C-3.00440021 2.00293347 -4.70993945 2.49271626 -8.1875 3.125 C-9.53908203 3.37636719 -9.53908203 3.37636719 -10.91796875 3.6328125 C-11.60503906 3.75398438 -12.29210937 3.87515625 -13 4 C-13 3.34 -13 2.68 -13 2 C-8.49646738 0.24252386 -4.82360189 -0.19294408 0 0 Z " fill="#D87558" transform="translate(429,449)"/>
<path d="M0 0 C-4.10542266 2.29903669 -8.69099505 4.35523153 -13.4375 3.625 C-13.953125 3.41875 -14.46875 3.2125 -15 3 C-9.63560356 0.31780178 -5.98993047 -0.3152595 0 0 Z " fill="#DF6E40" transform="translate(297,333)"/>
<path d="M0 0 C1.77119803 0.14133499 3.54195287 0.28823208 5.3125 0.4375 C6.29863281 0.51871094 7.28476563 0.59992188 8.30078125 0.68359375 C11 1 11 1 14 2 C14 2.66 14 3.32 14 4 C9.13103697 3.40380045 4.67209049 2.43023178 0 1 C0 0.67 0 0.34 0 0 Z " fill="#DE8E73" transform="translate(189,483)"/>
<path d="M0 0 C7.50769231 -0.36923077 7.50769231 -0.36923077 10 1.5 C10.495 2.2425 10.495 2.2425 11 3 C9.741875 2.87625 8.48375 2.7525 7.1875 2.625 C6.12595703 2.52058594 6.12595703 2.52058594 5.04296875 2.4140625 C3 2 3 2 0 0 Z " fill="#E0947F" transform="translate(231,495)"/>
<path d="M0 0 C-0.33 0.99 -0.66 1.98 -1 3 C-3.97 3 -6.94 3 -10 3 C-6.48579734 1.24289867 -3.89581553 0 0 0 Z " fill="#E07F50" transform="translate(301,390)"/>
<path d="M0 0 C-0.33 0.99 -0.66 1.98 -1 3 C-3.875 3.125 -3.875 3.125 -7 3 C-7.66 2.34 -8.32 1.68 -9 1 C-2.25 0 -2.25 0 0 0 Z " fill="#D75B3C" transform="translate(240,340)"/>
</svg>
