<?xml version="1.0" encoding="UTF-8"?>
<svg version="1.1" xmlns="http://www.w3.org/2000/svg" width="311" height="312">
<path d="M0 0 C102.63 0 205.26 0 311 0 C311 102.96 311 205.92 311 312 C208.37 312 105.74 312 0 312 C0 209.04 0 106.08 0 0 Z " fill="#F3E11D" transform="translate(0,0)"/>
<path d="M0 0 C4.8329694 3.93541794 8.74085264 8.61127896 12.1875 13.78125 C12.08544922 15.76660156 12.08544922 15.76660156 11.1875 17.78125 C9.28564453 19.42871094 9.28564453 19.42871094 6.8203125 21.015625 C5.93472656 21.58925781 5.04914063 22.16289062 4.13671875 22.75390625 C2.73873047 23.63369141 2.73873047 23.63369141 1.3125 24.53125 C0.38824219 25.13324219 -0.53601563 25.73523438 -1.48828125 26.35546875 C-8.40293722 30.78125 -8.40293722 30.78125 -11.8125 30.78125 C-13.13671875 29.13671875 -13.13671875 29.13671875 -14.5 26.96875 C-17.66505722 22.55329981 -20.50172052 20.79948216 -25.8125 19.78125 C-31.16478943 19.07700139 -35.24062521 19.80421525 -39.8125 22.78125 C-42.65452804 25.33907523 -42.80599325 26.72454831 -43.25 30.59375 C-43.38324333 34.90195107 -41.42636122 38.47101116 -38.8125 41.78125 C-36.41385734 43.37446608 -34.40116741 44.51213003 -31.8125 45.65625 C-31.12260986 45.98302734 -30.43271973 46.30980469 -29.72192383 46.64648438 C-25.74815686 48.5106881 -21.72479669 50.25901454 -17.69921875 52.0078125 C-2.25758889 58.73706952 12.79146741 66.23227291 19.49609375 82.73828125 C22.81917968 92.55734308 22.92582184 105.73037534 19.25 115.40625 C13.55043705 126.78927544 4.82478733 133.95473407 -7 138.03125 C-24.83359258 143.73425995 -43.20474732 141.75442495 -60.0625 134.09375 C-69.45419003 129.10402387 -77.99983489 121.40658021 -82.8125 111.78125 C-81.357801 107.41715301 -77.98190991 106.39006447 -74.125 104.34375 C-72.70316455 103.57655399 -71.28257137 102.80705088 -69.86328125 102.03515625 C-69.17572754 101.66406738 -68.48817383 101.29297852 -67.77978516 100.91064453 C-65.9239563 99.84523571 -64.21621363 98.68214965 -62.48046875 97.43359375 C-61.60003906 96.88832031 -60.71960938 96.34304687 -59.8125 95.78125 C-56.37109086 96.92838638 -56.08895398 97.54985135 -54.1875 100.46875 C-49.43037674 107.04373178 -42.857271 111.39422052 -34.8125 112.78125 C-27.20213596 113.41931406 -19.52481347 113.22443923 -13.14453125 108.5625 C-10.406188 105.80114546 -9.41988094 103.10668719 -9.125 99.34375 C-9.43266655 95.0721935 -10.60979035 92.5025724 -13.609375 89.4609375 C-20.23655568 84.40829974 -28.32745297 81.40145772 -35.94970703 78.15625 C-50.30207451 72.03111484 -64.03496173 64.51870082 -70.8125 49.78125 C-74.8347207 38.70117032 -75.57947329 27.26189319 -71.00390625 16.27734375 C-65.50879213 4.76462925 -57.88953504 -1.88253546 -45.8125 -6.21875 C-30.8868818 -10.68944999 -13.10062898 -8.67474081 0 0 Z " fill="#080908" transform="translate(268.8125,150.21875)"/>
<path d="M0 0 C10.23 0 20.46 0 31 0 C31.09059052 14.37845723 31.16388309 28.75672298 31.20724869 43.13540173 C31.22779977 49.81295501 31.25628361 56.49028917 31.30175781 63.16772461 C31.34541544 69.61924057 31.36917927 76.07055872 31.37950897 82.52221107 C31.38686464 84.97602766 31.401228 87.42983418 31.42292023 89.8835659 C31.57697168 108.04149282 31.3994122 123.18438209 18.07421875 136.99609375 C7.49641569 146.25914163 -5.7348208 147.98624388 -19.25390625 147.4140625 C-31.27016035 146.55933988 -42.1633638 142.00240016 -50.61328125 133.3125 C-54.54875607 128.69286768 -57.32979436 124.89331628 -59 119 C-55.85211022 117.05600537 -52.70208391 115.11567757 -49.546875 113.18359375 C-47.35606493 111.84062954 -45.18285307 110.47912231 -43.015625 109.09765625 C-42.14421875 108.54980469 -41.2728125 108.00195312 -40.375 107.4375 C-39.21097656 106.69306641 -39.21097656 106.69306641 -38.0234375 105.93359375 C-36 105 -36 105 -33 106 C-31.38671875 108.1796875 -31.38671875 108.1796875 -29.6875 110.875 C-26.87530613 114.99327555 -24.9623953 117.58217277 -20 119 C-14.28941838 119.46053078 -9.39989555 118.9551346 -4 117 C-2.44150449 114.64653258 -2.44150449 114.64653258 -2 112 C-1.505 110.515 -1.505 110.515 -1 109 C-0.89977614 107.50281536 -0.85386839 106.00166171 -0.84178162 104.50117493 C-0.8319928 103.57990814 -0.82220398 102.65864136 -0.81211853 101.7094574 C-0.80636307 100.70101273 -0.8006076 99.69256805 -0.79467773 98.65356445 C-0.78477814 97.58998718 -0.77487854 96.52640991 -0.76467896 95.43060303 C-0.73304175 91.90818523 -0.70829765 88.38575394 -0.68359375 84.86328125 C-0.66302615 82.4237584 -0.64202973 79.98423912 -0.62062073 77.54472351 C-0.56538008 71.11842749 -0.51597954 64.6920992 -0.46777344 58.26574707 C-0.417573 51.71033857 -0.36187932 45.15497702 -0.30664062 38.59960938 C-0.19903464 25.73311151 -0.09810254 12.86657384 0 0 Z " fill="#090A08" transform="translate(140,144)"/>
<path d="M0 0 C0.33 0 0.66 0 1 0 C1.625 2.8125 1.625 2.8125 2 6 C1.01 7.485 1.01 7.485 0 9 C-0.16699232 12.12521833 -0.16699232 12.12521833 0 15 C-2.75078884 15.91692961 -4.35948913 16.10886083 -7.1875 16.0625 C-9.0746875 16.0315625 -9.0746875 16.0315625 -11 16 C-10.01 15.34 -9.02 14.68 -8 14 C-3.72788443 10.76986384 -1.30254699 8.78502724 -0.375 3.3125 C-0.25125 2.219375 -0.1275 1.12625 0 0 Z " fill="#181706" transform="translate(260,247)"/>
<path d="M0 0 C2.64752004 2.57784846 4.94432065 4.91648098 7 8 C6.625 10.1875 6.625 10.1875 6 12 C4.68 12 3.36 12 2 12 C2 10.35 2 8.7 2 7 C1.34 6.67 0.68 6.34 0 6 C0.66 6 1.32 6 2 6 C1.34 5.01 0.68 4.02 0 3 C0 2.01 0 1.02 0 0 Z " fill="#181605" transform="translate(274,156)"/>
<path d="M0 0 C0.33 0.66 0.66 1.32 1 2 C-3.625 6 -3.625 6 -7 6 C-6.67 7.32 -6.34 8.64 -6 10 C-9 10 -12 10 -15 10 C-12.36923129 7.00000059 -9.25820168 5.27617945 -5.8125 3.3125 C-4.72582031 2.68988281 -3.63914062 2.06726563 -2.51953125 1.42578125 C-1.68808594 0.95527344 -0.85664062 0.48476562 0 0 Z " fill="#1E1E05" transform="translate(99,252)"/>
<path d="M0 0 C2.4375 0.8125 2.4375 0.8125 5 2 C5.33 2.99 5.66 3.98 6 5 C8.97 5.495 8.97 5.495 12 6 C11.01 6.33 10.02 6.66 9 7 C9.33 8.65 9.66 10.3 10 12 C5.22864787 8.42148591 2.70923672 5.31427203 0 0 Z " fill="#151507" transform="translate(200,203)"/>
<path d="M0 0 C-1.875 5.75 -1.875 5.75 -3 8 C-3.99 8 -4.98 8 -6 8 C-6.66 6.02 -7.32 4.04 -8 2 C-5.09399739 0.74335022 -3.20395416 0 0 0 Z " fill="#131206" transform="translate(89,261)"/>
<path d="M0 0 C0.33 0 0.66 0 1 0 C1.66 3.3 2.32 6.6 3 10 C0.03 10.66 -2.94 11.32 -6 12 C-5.34 11.67 -4.68 11.34 -4 11 C-2.37299991 7.4409373 -1.21058727 3.71823233 0 0 Z " fill="#1A1A04" transform="translate(140,250)"/>
<path d="M0 0 C3.48331435 3.01887244 4.79157144 5.56909529 6 10 C4.02 9.34 2.04 8.68 0 8 C0 5.36 0 2.72 0 0 Z " fill="#1C1905" transform="translate(281,222)"/>
<path d="M0 0 C0 0.66 0 1.32 0 2 C-0.66 2 -1.32 2 -2 2 C-2.103125 2.639375 -2.20625 3.27875 -2.3125 3.9375 C-2.539375 4.618125 -2.76625 5.29875 -3 6 C-3.99 6.33 -4.98 6.66 -6 7 C-6 6.34 -6 5.68 -6 5 C-6.66 4.67 -7.32 4.34 -8 4 C-2.25 0 -2.25 0 0 0 Z " fill="#181505" transform="translate(208,248)"/>
<path d="M0 0 C0.99 0.33 1.98 0.66 3 1 C3.33 2.65 3.66 4.3 4 6 C1.69 5.34 -0.62 4.68 -3 4 C-2.67 3.01 -2.34 2.02 -2 1 C-1.34 0.67 -0.68 0.34 0 0 Z " fill="#131004" transform="translate(104,249)"/>
<path d="M0 0 C3 1 3 1 4.1875 3.0625 C4.455625 3.701875 4.72375 4.34125 5 5 C3.02 5.99 3.02 5.99 1 7 C0.67 6.01 0.34 5.02 0 4 C0.33 3.34 0.66 2.68 1 2 C0.34 1.67 -0.32 1.34 -1 1 C-0.67 0.67 -0.34 0.34 0 0 Z " fill="#181607" transform="translate(209,246)"/>
<path d="M0 0 C-0.33 0.99 -0.66 1.98 -1 3 C-5.29 3 -9.58 3 -14 3 C-14 2.67 -14 2.34 -14 2 C-12.04200486 1.66468585 -10.08359226 1.33180857 -8.125 1 C-6.48917969 0.7215625 -6.48917969 0.7215625 -4.8203125 0.4375 C-2 0 -2 0 0 0 Z " fill="#292205" transform="translate(134,262)"/>
<path d="M0 0 C6.875 3.75 6.875 3.75 8 6 C5.03 5.505 5.03 5.505 2 5 C2 4.01 2 3.02 2 2 C1.34 2 0.68 2 0 2 C0 1.34 0 0.68 0 0 Z " fill="#2B2408" transform="translate(264,148)"/>
<path d="M0 0 C2 3.75 2 3.75 2 6 C-2.875 4.25 -2.875 4.25 -4 2 C-2.68 1.34 -1.36 0.68 0 0 Z " fill="#141405" transform="translate(221,217)"/>
<path d="M0 0 C0.33 0 0.66 0 1 0 C1.33 2.31 1.66 4.62 2 7 C-0.5 5.625 -0.5 5.625 -3 4 C-3 3.34 -3 2.68 -3 2 C-2.01 2 -1.02 2 0 2 C0 1.34 0 0.68 0 0 Z " fill="#1F1C0A" transform="translate(93,274)"/>
<path d="M0 0 C0.99 0.33 1.98 0.66 3 1 C3 2.98 3 4.96 3 7 C1.68 5.68 0.36 4.36 -1 3 C-0.67 2.01 -0.34 1.02 0 0 Z " fill="#2A2806" transform="translate(187,259)"/>
</svg>
