<?xml version="1.0" encoding="UTF-8"?>
<svg version="1.1" xmlns="http://www.w3.org/2000/svg" width="500" height="500">
<path d="M0 0 C3.96899339 0.01710597 7.93738394 0.00692846 11.90635681 -0.01032448 C27.86516858 -0.06921979 43.53993873 -0.0905525 59.20043945 3.39111328 C59.99276978 3.56563522 60.7851001 3.74015717 61.60144043 3.91996765 C78.77341347 7.74239619 96.80646971 13.57706603 110.20043945 25.39111328 C110.93262695 26.02662109 111.66481445 26.66212891 112.41918945 27.31689453 C120.99721784 35.30278289 128.68003426 47.85567849 129.33466053 59.8504591 C129.34107075 61.23874401 129.34107075 61.23874401 129.34761047 62.65507507 C129.35834343 64.25461029 129.35834343 64.25461029 129.36929321 65.88645935 C129.37198212 67.05161575 129.37467102 68.21677216 129.37744141 69.41723633 C129.3840126 70.64872406 129.3905838 71.88021179 129.39735413 73.14901733 C129.41709627 77.23362472 129.42876333 81.31819276 129.4387207 85.40283203 C129.44277136 86.8152703 129.44688837 88.22770837 129.45107079 89.64014626 C129.47012692 96.28713294 129.48434914 102.93410859 129.49268275 109.58111733 C129.5024146 117.21505752 129.52862515 124.8487046 129.56918365 132.48254174 C129.5995495 138.40470973 129.61417137 144.32679479 129.61746377 150.24903899 C129.61979385 153.77472159 129.62848068 157.30009137 129.65392494 160.82568932 C129.81041136 183.70809802 129.41490103 205.57195013 112.61450195 223.07470703 C99.29936787 235.851203 82.08685123 243.48051663 63.39225769 243.52914429 C62.25583832 243.53459763 61.11941895 243.54005096 59.94856262 243.54566956 C58.09940498 243.54723305 58.09940498 243.54723305 56.21289062 243.54882812 C54.20207881 243.55662802 52.19126701 243.56443194 50.1804558 243.57238603 C48.02491423 243.58008257 45.86937684 243.58547549 43.71382713 243.59034348 C39.20137586 243.60108267 34.68899803 243.62134696 30.17658997 243.64346313 C17.34643968 243.70517627 4.51629312 243.759222 -8.31396484 243.79248047 C-15.40490213 243.81094153 -22.49571655 243.84002392 -29.58656329 243.88048518 C-33.32897287 243.90137407 -37.07122882 243.91698621 -40.81369972 243.91929245 C-65.93764487 243.93932833 -90.19275871 243.97868112 -109.86206055 261.89111328 C-121.84390249 274.4696605 -127.8137972 292.48953773 -127.98901367 309.57983398 C-128.00145363 310.60067329 -128.00145363 310.60067329 -128.0141449 311.64213562 C-128.03141875 313.10600394 -128.04661888 314.56989796 -128.05992126 316.03380775 C-128.08110913 318.3495279 -128.10811181 320.66511747 -128.13659668 322.98075867 C-128.20609777 328.72459308 -128.2659543 334.46851976 -128.32562256 340.21246338 C-128.37652218 345.08209827 -128.43129685 349.95165818 -128.49143982 354.82118797 C-128.51802179 357.10459046 -128.53882138 359.38800009 -128.55944824 361.67146301 C-128.57604427 363.06410058 -128.59291549 364.4567349 -128.61010742 365.84936523 C-128.62889954 367.67634697 -128.62889954 367.67634697 -128.64807129 369.54023743 C-128.79956055 372.39111328 -128.79956055 372.39111328 -129.79956055 374.39111328 C-136.68216091 374.49342401 -143.56456166 374.56295677 -150.44775391 374.61083984 C-152.78409147 374.63082369 -155.12037988 374.65802016 -157.45654297 374.69287109 C-182.2781235 375.05360362 -182.2781235 375.05360362 -192.79956055 370.39111328 C-193.70279053 370.01301514 -194.60602051 369.63491699 -195.53662109 369.24536133 C-214.06514423 361.16221971 -226.10853462 343.53280929 -233.6081543 325.44042969 C-240.66886244 307.13506674 -244.10124883 287.36930825 -244.13549805 267.82470703 C-244.14195658 266.45630264 -244.14868694 265.0878995 -244.15567017 263.71949768 C-244.16754321 260.86806043 -244.17136166 258.01674336 -244.17016602 255.1652832 C-244.170004 252.28644544 -244.18382389 249.40824761 -244.21118164 246.52954102 C-244.3649088 230.10138024 -244.05703921 214.37100845 -239.79956055 198.39111328 C-239.54803223 197.34930908 -239.29650391 196.30750488 -239.03735352 195.23413086 C-238.43608068 192.8243664 -237.7738978 190.45388189 -237.04956055 188.07861328 C-236.67613525 186.8509021 -236.67613525 186.8509021 -236.29516602 185.59838867 C-229.64530889 164.79070576 -216.04851205 145.94927991 -196.5065918 135.65673828 C-182.25916078 129.15282627 -168.28578466 127.94392561 -152.84863281 128.05053711 C-151.10260025 128.05138559 -149.35656662 128.05090395 -147.61053467 128.04920959 C-142.91932742 128.04835682 -138.22835524 128.06586488 -133.53720212 128.08693147 C-128.61652429 128.10581932 -123.69583972 128.10745817 -118.77513123 128.11100769 C-109.47888798 128.12029286 -100.1827519 128.14485835 -90.88655561 128.17505616 C-80.29392143 128.20871068 -69.70128184 128.22511384 -59.10860741 128.24014246 C-37.33886393 128.27141145 -15.5692228 128.32471436 6.20043945 128.39111328 C6.20043945 123.44111328 6.20043945 118.49111328 6.20043945 113.39111328 C4.71403961 113.39333389 3.22763977 113.3955545 1.69619751 113.39784241 C-12.28351742 113.41807783 -26.26323046 113.43314735 -40.24295616 113.44292545 C-47.43077558 113.44808636 -54.61858408 113.45512517 -61.80639648 113.46655273 C-68.06975169 113.47650581 -74.333099 113.4829682 -80.59646189 113.48520178 C-83.91424776 113.48650782 -87.23200567 113.49010747 -90.54978561 113.49684334 C-94.2494315 113.50405854 -97.9490299 113.50510401 -101.64868164 113.50463867 C-103.30700264 113.51003159 -103.30700264 113.51003159 -104.99882507 113.51553345 C-106.00285873 113.51415878 -107.0068924 113.51278412 -108.04135132 113.5113678 C-109.35490632 113.51275049 -109.35490632 113.51275049 -110.69499779 113.51416111 C-112.79956055 113.39111328 -112.79956055 113.39111328 -114.79956055 112.39111328 C-115.15449021 101.14758347 -115.46736312 89.90348488 -115.74237061 78.65771484 C-115.79465161 76.58566847 -115.8527148 74.51377007 -115.91137695 72.44189453 C-116.40239158 54.13082606 -115.97334547 40.51722001 -102.79956055 26.39111328 C-91.41237383 15.80772798 -77.31084055 10.0243676 -62.48706055 6.07861328 C-61.6242749 5.84827393 -60.76148926 5.61793457 -59.87255859 5.38061523 C-56.8609602 4.63476359 -53.84184954 4.00040273 -50.79956055 3.39111328 C-49.86217545 3.19255737 -49.86217545 3.19255737 -48.90585327 2.98999023 C-32.74834346 -0.32833512 -16.41289071 -0.07138946 0 0 Z M-76.79956055 45.39111328 C-81.47896854 51.53757891 -83.31897809 56.59985014 -82.79956055 64.39111328 C-81.40535323 71.47368647 -77.44488879 75.17988052 -71.79956055 79.39111328 C-67.19885267 82.45825187 -62.10272664 82.89468125 -56.6472168 82.06298828 C-50.72002976 80.23201565 -46.61437996 76.15507436 -42.79956055 71.39111328 C-40.39434217 66.68089397 -39.98417164 61.59129766 -40.79956055 56.39111328 C-42.87712114 50.54475475 -45.3939922 45.71761688 -50.79956055 42.39111328 C-51.69674805 41.80330078 -51.69674805 41.80330078 -52.61206055 41.20361328 C-61.3149539 37.97111003 -69.72592495 39.417821 -76.79956055 45.39111328 Z " fill="#3473A5" transform="translate(243.799560546875,-0.39111328125)"/>
<path d="M0 0 C0.90201645 -0.00960754 1.8040329 -0.01921509 2.73338318 -0.02911377 C3.7083223 -0.03336365 4.68326141 -0.03761353 5.68774414 -0.04199219 C6.69825333 -0.04769226 7.70876251 -0.05339233 8.74989319 -0.05926514 C10.89428664 -0.06871931 13.03869464 -0.07525077 15.18310547 -0.07910156 C18.42905997 -0.08873705 21.67436204 -0.11972733 24.92016602 -0.15136719 C44.68971055 -0.25465176 60.36038942 2.55288365 75.19165039 16.78222656 C75.96508789 17.56726563 76.73852539 18.35230469 77.53540039 19.16113281 C78.72649414 20.35416016 78.72649414 20.35416016 79.94165039 21.57128906 C85.3620917 27.27178651 89.17051615 33.07244335 92.53540039 40.16113281 C93.11161133 41.34449219 93.68782227 42.52785156 94.28149414 43.74707031 C100.99486116 57.99761904 105.63854647 73.59792336 105.72827148 89.41943359 C105.73644897 90.22699097 105.74462646 91.03454834 105.75305176 91.86657715 C105.77778167 94.52985937 105.7944014 97.19308821 105.80883789 99.85644531 C105.81416157 100.77478024 105.81948524 101.69311516 105.82497025 102.63927841 C105.85166451 107.51227735 105.87104026 112.38525115 105.88549805 117.25830078 C105.8987555 121.25202759 105.92646044 125.24523352 105.9675293 129.23876953 C106.01745585 134.09577553 106.04169252 138.95231499 106.04872513 143.8095665 C106.05534633 145.64078755 106.07032183 147.47200202 106.09461594 149.30307388 C106.44960565 177.70879242 97.11552603 205.15367092 77.53540039 226.16113281 C59.601369 242.64744174 40.47670239 246.49567007 16.83325195 246.38818359 C15.07780972 246.38761837 13.32236701 246.38793821 11.56692505 246.3890686 C6.83633937 246.38963878 2.1058566 246.37793913 -2.62470531 246.36392069 C-7.58144283 246.35135708 -12.5381831 246.35023841 -17.49493408 246.34786987 C-26.86562197 246.34167158 -36.23626279 246.32528323 -45.60693002 246.30517089 C-56.28172652 246.28276035 -66.95652535 246.27180553 -77.63133955 246.26178002 C-99.57578648 246.24091544 -121.52018841 246.20536547 -143.46459961 246.16113281 C-143.46459961 251.11113281 -143.46459961 256.06113281 -143.46459961 261.16113281 C-103.53459961 261.16113281 -63.60459961 261.16113281 -22.46459961 261.16113281 C-21.10340733 263.88351737 -21.29195535 266.08509747 -21.23999023 269.1328125 C-21.20621277 271.0168277 -21.20621277 271.0168277 -21.17175293 272.93890381 C-21.09568491 278.73043054 -21.04295701 284.52207551 -21.00463867 290.31396484 C-20.98250606 293.35784469 -20.94096113 296.40047064 -20.8815918 299.44384766 C-20.80972788 303.13569791 -20.77369255 306.8263843 -20.76152039 310.51889801 C-20.7512387 311.91417858 -20.72910454 313.30943268 -20.69392395 314.70430756 C-20.36941781 328.29033594 -24.3733047 338.03361029 -33.52709961 348.03613281 C-49.14663151 362.54759424 -69.98227082 368.41785768 -90.46459961 372.16113281 C-91.82004883 372.4110498 -91.82004883 372.4110498 -93.20288086 372.66601562 C-139.40823162 380.64784124 -201.49025019 380.46058043 -241.80297852 353.33886719 C-252.96576689 345.42683499 -262.01290742 334.87407587 -265.12017822 321.29650879 C-267.02316187 308.52755838 -266.66489649 295.7110675 -266.53132153 282.83153725 C-266.49768844 279.41829985 -266.47471327 276.00498631 -266.45001221 272.5916748 C-266.40692112 266.87288142 -266.35510979 261.15421727 -266.2980957 255.43554688 C-266.23246132 248.83995122 -266.18152369 242.24436165 -266.13815379 235.64858484 C-266.09581347 229.26955788 -266.04248937 222.89066607 -265.98441315 216.51176453 C-265.96004416 213.81020979 -265.93958977 211.10866832 -265.92238617 208.40705872 C-265.89609454 204.63807531 -265.85730393 200.8694213 -265.81518555 197.10058594 C-265.80988327 195.98982697 -265.80458099 194.87906799 -265.79911804 193.73464966 C-265.72296443 188.14632234 -265.31306292 183.44267818 -263.46459961 178.16113281 C-263.25319336 177.34128906 -263.04178711 176.52144531 -262.82397461 175.67675781 C-258.87358805 160.98942317 -250.05388207 149.56089122 -237.13256836 141.63110352 C-231.15396102 138.188357 -225.15995165 135.81616365 -218.46459961 134.16113281 C-217.51584961 133.78988281 -216.56709961 133.41863281 -215.58959961 133.03613281 C-206.50499499 130.49244352 -196.50991616 131.0117209 -187.1472168 131.00341797 C-185.19263548 130.99561866 -183.23805418 130.9878153 -181.28347349 130.97986007 C-179.20692547 130.97220793 -177.13038163 130.96679055 -175.05382538 130.96190262 C-170.69659043 130.95109299 -166.3394296 130.93081632 -161.98223877 130.90878296 C-149.60025439 130.8472874 -137.21827691 130.79294393 -124.83618164 130.75976562 C-117.97849892 130.74131133 -111.12094347 130.71224847 -104.26335454 130.67176092 C-100.64905625 130.65088344 -97.03491684 130.63526133 -93.42055511 130.63295364 C-68.27718731 130.61218315 -45.05565973 130.06914807 -25.71459961 111.78613281 C-11.03813439 96.0785342 -8.21237356 74.69328013 -8.05053711 53.99316406 C-8.03178555 52.4618785 -8.01220931 50.93060283 -7.99185181 49.39933777 C-7.94094511 45.40629973 -7.90110012 41.41322835 -7.8637085 37.42004395 C-7.82340592 33.33040399 -7.77243462 29.24089776 -7.72241211 25.15136719 C-7.62614512 17.15471441 -7.54158608 9.15799436 -7.46459961 1.16113281 C-4.6577924 0.22553041 -2.90656244 0.02505514 0 0 Z M-91.96459961 300.59863281 C-95.5088317 306.65336263 -96.13459399 312.26348573 -95.46459961 319.16113281 C-93.71987445 325.59480685 -90.06895025 329.71159025 -84.46459961 333.16113281 C-77.88339577 335.64627397 -72.20392656 335.51624726 -65.62475586 333.14941406 C-61.19400144 331.12232389 -58.03650644 328.27618374 -55.46459961 324.16113281 C-53.53702368 318.12407209 -53.3457543 310.2681043 -55.52709961 304.28613281 C-58.55839597 299.39694513 -62.15607717 296.26520876 -67.33959961 293.78613281 C-76.94463113 291.86512651 -84.76528864 293.57930462 -91.96459961 300.59863281 Z " fill="#FED341" transform="translate(394.464599609375,124.8388671875)"/>
<path d="M0 0 C0.97001953 0.00451172 1.94003906 0.00902344 2.93945312 0.01367188 C5.3138676 0.0253685 7.68815021 0.04175914 10.0625 0.0625 C10.0625 0.3925 10.0625 0.7225 10.0625 1.0625 C9.42183594 1.07667969 8.78117187 1.09085937 8.12109375 1.10546875 C2.39097669 1.42143646 -0.96261863 2.27050632 -5.3984375 5.91796875 C-7.46217583 7.45267771 -9.4046974 7.83224522 -11.9375 8.0625 C-12.5975 10.0425 -13.2575 12.0225 -13.9375 14.0625 C-14.9275 14.0625 -15.9175 14.0625 -16.9375 14.0625 C-16.9375 13.0725 -16.9375 12.0825 -16.9375 11.0625 C-18.9175 11.0625 -20.8975 11.0625 -22.9375 11.0625 C-23.4325 8.5875 -23.4325 8.5875 -23.9375 6.0625 C-26.5775 6.3925 -29.2175 6.7225 -31.9375 7.0625 C-31.9375 7.7225 -31.9375 8.3825 -31.9375 9.0625 C-34.38439931 11.94634561 -36.14374847 13.58828106 -39.9375 14.0625 C-41.2575 14.0625 -42.5775 14.0625 -43.9375 14.0625 C-44.9275 14.3925 -45.9175 14.7225 -46.9375 15.0625 C-47.2675 18.0325 -47.5975 21.0025 -47.9375 24.0625 C-50.9075 24.7225 -53.8775 25.3825 -56.9375 26.0625 C-56.9375 26.7225 -56.9375 27.3825 -56.9375 28.0625 C-55.9475 28.0625 -54.9575 28.0625 -53.9375 28.0625 C-54.2675 28.68125 -54.5975 29.3 -54.9375 29.9375 C-56.07943235 31.97268344 -56.07943235 31.97268344 -55.9375 34.0625 C-55.9375 35.3825 -55.9375 36.7025 -55.9375 38.0625 C-56.5975 38.0625 -57.2575 38.0625 -57.9375 38.0625 C-58.2675 38.7225 -58.5975 39.3825 -58.9375 40.0625 C-60.5875 40.0625 -62.2375 40.0625 -63.9375 40.0625 C-64.2675 41.0525 -64.5975 42.0425 -64.9375 43.0625 C-65.9275 42.7325 -66.9175 42.4025 -67.9375 42.0625 C-61.35249975 25.23416603 -50.14867707 13.68907925 -33.9375 6.0625 C-30.64006812 4.82873679 -27.35310634 3.89897502 -23.9375 3.0625 C-22.885625 2.69125 -21.83375 2.32 -20.75 1.9375 C-13.90847829 -0.19097342 -7.09833892 -0.06307478 0 0 Z " fill="#F9E260" transform="translate(199.9375,255.9375)"/>
<path d="M0 0 C0.90201645 -0.00960754 1.8040329 -0.01921509 2.73338318 -0.02911377 C3.7083223 -0.03336365 4.68326141 -0.03761353 5.68774414 -0.04199219 C6.69825333 -0.04769226 7.70876251 -0.05339233 8.74989319 -0.05926514 C10.89428664 -0.06871931 13.03869464 -0.07525077 15.18310547 -0.07910156 C18.42905997 -0.08873705 21.67436204 -0.11972733 24.92016602 -0.15136719 C37.91366894 -0.21931421 49.59460538 0.08570691 61.28540039 6.34863281 C62.29086914 6.8784375 63.29633789 7.40824219 64.33227539 7.95410156 C65.05930664 8.35242188 65.78633789 8.75074219 66.53540039 9.16113281 C64.69165039 9.74707031 64.69165039 9.74707031 62.53540039 10.16113281 C60.03540039 8.78613281 60.03540039 8.78613281 57.53540039 7.16113281 C55.34409505 6.46533827 55.34409505 6.46533827 53.53540039 6.16113281 C53.53540039 5.50113281 53.53540039 4.84113281 53.53540039 4.16113281 C52.08133789 4.19207031 52.08133789 4.19207031 50.59790039 4.22363281 C47.53540039 4.16113281 47.53540039 4.16113281 46.53540039 3.16113281 C44.90960821 3.03831329 43.27863035 2.98330778 41.6484375 2.95581055 C40.60743393 2.93586533 39.56643036 2.9159201 38.49388123 2.89537048 C37.36160599 2.87865799 36.22933075 2.8619455 35.06274414 2.84472656 C33.90996475 2.82394547 32.75718536 2.80316437 31.56947327 2.78175354 C27.87067883 2.71613318 24.1718108 2.65731526 20.47290039 2.59863281 C17.9722416 2.55545946 15.47159038 2.51184557 12.97094727 2.46777344 C6.82584377 2.36043913 0.68066635 2.25869639 -5.46459961 2.16113281 C-5.45793777 3.00780518 -5.45127594 3.85447754 -5.44441223 4.72680664 C-5.38414782 12.72986629 -5.33854753 20.73284905 -5.30916309 28.73608398 C-5.29354808 32.85003387 -5.27238659 36.96379528 -5.23828125 41.07763672 C-5.2055383 45.0522953 -5.18771531 49.02677329 -5.17996788 53.0015564 C-5.17445104 54.51332438 -5.16367827 56.02508317 -5.14740944 57.53677368 C-4.99677838 72.12149571 -4.99677838 72.12149571 -8.46459961 79.16113281 C-9.6509671 75.60203035 -9.11310143 73.82552497 -8.46459961 70.16113281 C-8.35393966 67.82437129 -8.28926693 65.48518413 -8.25927734 63.14599609 C-8.24937775 62.47212357 -8.23947815 61.79825104 -8.22927856 61.10395813 C-8.19791777 58.89648849 -8.17300777 56.6889974 -8.14819336 54.48144531 C-8.12760182 52.94301828 -8.10660479 51.40459663 -8.08522034 49.86618042 C-8.03022676 45.83195369 -7.98071806 41.79767785 -7.93237305 37.7633667 C-7.88199137 33.640703 -7.8263926 29.51810996 -7.77124023 25.39550781 C-7.6639368 17.3174427 -7.56243098 9.23931817 -7.46459961 1.16113281 C-4.6577924 0.22553041 -2.90656244 0.02505514 0 0 Z " fill="#EDD570" transform="translate(394.464599609375,124.8388671875)"/>
<path d="M0 0 C1.88391785 3.26545761 2.49287967 6.28111761 3 10 C2.34 10 1.68 10 1 10 C0.01691463 12.94925611 -0.12128165 14.8308055 -0.11352539 17.90296936 C-0.1134549 18.91390152 -0.1133844 19.92483368 -0.11331177 20.96640015 C-0.10814545 22.07456085 -0.10297913 23.18272156 -0.09765625 24.32446289 C-0.09619598 25.49211685 -0.09473572 26.65977081 -0.0932312 27.86280823 C-0.08942131 30.40173323 -0.08330068 32.94065556 -0.07516479 35.47957039 C-0.06243881 39.49194996 -0.05575056 43.50431383 -0.05102539 47.51670837 C-0.0399223 56.03198703 -0.02038166 64.54723926 0 73.0625 C0.02200405 82.25828973 0.0425837 91.45406866 0.05341816 100.6498794 C0.05921495 105.28476541 0.07280429 109.91959411 0.08764648 114.55445862 C0.09127729 116.97128253 0.09462923 119.38810689 0.09765625 121.80493164 C0.10282257 122.91511658 0.10798889 124.02530151 0.11331177 125.16912842 C0.11338226 126.17724075 0.11345276 127.18535309 0.11352539 128.22401428 C0.115746 129.10319551 0.11796661 129.98237673 0.12025452 130.88819981 C0 133 0 133 -1 135 C-1.99 134.67 -2.98 134.34 -4 134 C-3.91603487 117.95321622 -3.82087756 101.90654363 -3.71247292 85.8599081 C-3.66239603 78.40882345 -3.61595264 70.95774953 -3.578125 63.5065918 C-3.54513706 57.01057054 -3.50526847 50.51463378 -3.45720994 44.0187059 C-3.4320124 40.58060944 -3.41021142 37.14256854 -3.39665604 33.70440483 C-3.38137775 29.86199845 -3.35073488 26.01979641 -3.31884766 22.17749023 C-3.31668747 21.04316559 -3.31452728 19.90884094 -3.31230164 18.74014282 C-3.25242804 13.09266152 -2.89868096 8.32942844 -1 3 C-0.67 2.01 -0.34 1.02 0 0 Z " fill="#EDDD73" transform="translate(132,300)"/>
<path d="M0 0 C1.04618678 0.00436926 1.04618678 0.00436926 2.11350864 0.00882679 C2.84940249 0.00797237 3.58529634 0.00711794 4.34349 0.00623763 C6.82792449 0.00458063 9.31229258 0.01010775 11.79672092 0.01555592 C13.57024487 0.01583777 15.34376894 0.0156801 17.11729282 0.01511341 C21.9476682 0.01482535 26.77801897 0.02072341 31.6083886 0.02768737 C36.6506112 0.03391955 41.6928343 0.0345246 46.73506016 0.03571278 C56.2902603 0.0388265 65.84544906 0.04704043 75.40064418 0.05706227 C86.27591236 0.06822215 97.15118108 0.07373354 108.02645355 0.0787577 C130.40422803 0.08922301 152.7819924 0.10682324 175.15975803 0.12908131 C175.15975803 0.45908131 175.15975803 0.78908131 175.15975803 1.12908131 C116.41975803 1.12908131 57.67975803 1.12908131 -2.84024197 1.12908131 C-2.84024197 6.07908131 -2.84024197 11.02908131 -2.84024197 16.12908131 C-3.50024197 16.12908131 -4.16024197 16.12908131 -4.84024197 16.12908131 C-5.03413293 13.65026 -5.2206432 11.171272 -5.40274197 8.69158131 C-5.45881619 7.98453053 -5.51489041 7.27747975 -5.57266384 6.54900318 C-5.7021519 4.74480294 -5.77545804 2.93676179 -5.84024197 1.12908131 C-4.18723052 -0.52393014 -2.20858244 0.00699106 0 0 Z " fill="#EAD884" transform="translate(253.84024196863174,369.8709186911583)"/>
<path d="M0 0 C0.96099609 0.00902344 1.92199219 0.01804688 2.91210938 0.02734375 C5.25417805 0.05064792 7.59569792 0.08335942 9.9375 0.125 C9.9375 0.455 9.9375 0.785 9.9375 1.125 C9.29683594 1.13917969 8.65617187 1.15335937 7.99609375 1.16796875 C2.26597669 1.48393646 -1.08761863 2.33300632 -5.5234375 5.98046875 C-7.58717583 7.51517771 -9.5296974 7.89474522 -12.0625 8.125 C-12.7225 10.105 -13.3825 12.085 -14.0625 14.125 C-15.0525 14.125 -16.0425 14.125 -17.0625 14.125 C-17.0625 13.135 -17.0625 12.145 -17.0625 11.125 C-19.0425 11.125 -21.0225 11.125 -23.0625 11.125 C-23.7225 8.815 -24.3825 6.505 -25.0625 4.125 C-16.89123449 0.43475106 -8.85656165 -0.16024398 0 0 Z " fill="#F6DD5D" transform="translate(200.0625,255.875)"/>
<path d="M0 0 C0.33 0 0.66 0 1 0 C0.8926007 10.00508136 0.77998825 20.010089 0.66066074 30.01503563 C0.6054214 34.66038996 0.55199978 39.30575057 0.50268555 43.95117188 C0.45505691 48.43158181 0.40271465 52.91191382 0.34705925 57.39223099 C0.32662889 59.10428561 0.30791694 60.81636161 0.29092598 62.52845383 C0.26689702 64.920578 0.2368405 67.3125543 0.20532227 69.70458984 C0.1995668 70.41740616 0.19381134 71.13022247 0.18788147 71.86463928 C0.11405216 76.77189568 0.11405216 76.77189568 -1 79 C-2.32 78.67 -3.64 78.34 -5 78 C-4.34 78 -3.68 78 -3 78 C-2.11067617 74.1970746 -1.88344207 70.69351602 -1.90234375 66.79199219 C-1.90564697 65.56011169 -1.9089502 64.3282312 -1.91235352 63.059021 C-1.91647247 62.40564507 -1.92059143 61.75226913 -1.92483521 61.07909393 C-1.93768052 59.01790839 -1.94413594 56.9567878 -1.94897461 54.89556885 C-1.96229792 49.77399344 -1.98642843 44.65247962 -2.01037598 39.53094482 C-2.03021698 35.20285629 -2.04581523 30.8747915 -2.05593872 26.54666901 C-2.06235479 24.53001689 -2.07492935 22.51338736 -2.08764648 20.49676514 C-2.1051203 13.91350551 -1.99503235 7.5146786 -1 1 C-0.67 0.67 -0.34 0.34 0 0 Z " fill="#396D8F" transform="translate(115,295)"/>
<path d="M0 0 C0.33 0 0.66 0 1 0 C1.02318444 9.17089258 1.04094622 18.34177504 1.05181217 27.51269054 C1.05702764 31.7712476 1.06410104 36.02978458 1.07543945 40.28833008 C1.0863158 44.39911916 1.09228691 48.50988894 1.09487724 52.6206913 C1.09672293 54.18794369 1.10032707 55.75519503 1.10573006 57.32243919 C1.11300348 59.5199142 1.11398828 61.71730979 1.11352539 63.91479492 C1.115746 65.16499924 1.11796661 66.41520355 1.12025452 67.70329285 C1.01443637 70.60423534 0.67459133 73.18454235 0 76 C-0.33 76 -0.66 76 -1 76 C-1.19656224 73.79245484 -1.38185459 71.58390461 -1.5625 69.375 C-1.66691406 68.14523438 -1.77132813 66.91546875 -1.87890625 65.6484375 C-2 62 -2 62 -1.51147461 59.52661133 C-0.75721669 54.32601199 -0.89858404 49.17313056 -0.9375 43.92578125 C-0.94128662 42.76499557 -0.94507324 41.6042099 -0.94897461 40.4082489 C-0.96116717 36.70962781 -0.9798036 33.01108553 -1 29.3125 C-1.0265278 24.43359593 -1.04654484 19.55473004 -1.0625 14.67578125 C-1.07079834 13.55077713 -1.07909668 12.42577301 -1.08764648 11.26667786 C-1.09260132 9.70441719 -1.09260132 9.70441719 -1.09765625 8.1105957 C-1.10289307 7.19381546 -1.10812988 6.27703522 -1.11352539 5.33247375 C-1 3 -1 3 0 0 Z " fill="#376A8C" transform="translate(372,115)"/>
<path d="M0 0 C0.495 0.99 0.495 0.99 1 2 C3.64 2 6.28 2 9 2 C5.1681704 4.26472251 0.98762496 5.06882609 -3.3125 6 C-4.10922119 6.17370117 -4.90594238 6.34740234 -5.72680664 6.52636719 C-16.76018747 8.86767981 -27.68952843 10.42326089 -39 10 C-39 9.34 -39 8.68 -39 8 C-32.73 8 -26.46 8 -20 8 C-20 7.34 -20 6.68 -20 6 C-18.71802734 5.90912109 -18.71802734 5.90912109 -17.41015625 5.81640625 C-16.30542969 5.73261719 -15.20070313 5.64882813 -14.0625 5.5625 C-12.96035156 5.48128906 -11.85820312 5.40007812 -10.72265625 5.31640625 C-8.08890097 5.29581916 -8.08890097 5.29581916 -7 4 C-5.33382885 3.95936168 -3.66611905 3.957279 -2 4 C-2 3.34 -2 2.68 -2 2 C-1.34 2 -0.68 2 0 2 C0 1.34 0 0.68 0 0 Z " fill="#EDD263" transform="translate(317,489)"/>
<path d="M0 0 C-2.71249941 2.71249941 -5.08053849 2.83810402 -8.8125 3.6875 C-18.67213251 6.11243019 -27.16632918 10.4575936 -35 17 C-33.64352598 12.56063049 -31.83191061 10.5843118 -28 8 C-25.05708986 6.63621237 -22.16299368 5.70288748 -19 5 C-19 4.34 -19 3.68 -19 3 C-17.96875 2.87625 -16.9375 2.7525 -15.875 2.625 C-12.08467136 2.12839499 -12.08467136 2.12839499 -8.9375 0.9375 C-5.798887 -0.064185 -3.27299168 -0.15585675 0 0 Z " fill="#3B7193" transform="translate(170,243)"/>
<path d="M0 0 C0.28875 0.639375 0.5775 1.27875 0.875 1.9375 C1.82823451 4.15206079 1.82823451 4.15206079 4 5 C3.67 6.98 3.34 8.96 3 11 C2.01 11 1.02 11 0 11 C0 10.01 0 9.02 0 8 C-1.98 8 -3.96 8 -6 8 C-6.66 5.69 -7.32 3.38 -8 1 C-5.36 0.67 -2.72 0.34 0 0 Z " fill="#FDDD4F" transform="translate(183,259)"/>
<path d="M0 0 C1.32 0 2.64 0 4 0 C4.33 1.32 4.66 2.64 5 4 C5.99 4 6.98 4 8 4 C8 4.99 8 5.98 8 7 C9.97536745 6.65213292 9.97536745 6.65213292 12 6 C12.33 5.34 12.66 4.68 13 4 C14.04449911 7.13349732 13.93423645 7.98968256 13 11 C13.99 11.33 14.98 11.66 16 12 C15.67 12.66 15.34 13.32 15 14 C8.69571469 11.13698005 3.04215311 6.27444079 0 0 Z " fill="#F7D955" transform="translate(138,463)"/>
<path d="M0 0 C0.99 0 1.98 0 3 0 C4.14530327 4.00856145 4.04171769 6.32490815 2 10 C-1.21232125 11.07077375 -3.63937807 11 -7 11 C-5.35 8.03 -3.7 5.06 -2 2 C-1.34 2 -0.68 2 0 2 C0 1.34 0 0.68 0 0 Z " fill="#FDCA37" transform="translate(341,446)"/>
<path d="M0 0 C0 0.66 0 1.32 0 2 C-0.99 2.66 -1.98 3.32 -3 4 C-2.01 5.485 -2.01 5.485 -1 7 C-4.82320557 8.42258812 -7.91281305 9.24042276 -12 9 C-7.56465517 -0.50431034 -7.56465517 -0.50431034 0 0 Z " fill="#FDCB34" transform="translate(316,486)"/>
<path d="M0 0 C2 1.3125 2 1.3125 4 3 C4 3.99 4 4.98 4 6 C4.66 6.33 5.32 6.66 6 7 C6 7.66 6 8.32 6 9 C2.14974121 8.39644592 -0.86101159 7.23227397 -4.3125 5.4375 C-5.19550781 4.98246094 -6.07851562 4.52742188 -6.98828125 4.05859375 C-7.65214844 3.70925781 -8.31601563 3.35992187 -9 3 C-7.125 1.9375 -7.125 1.9375 -5 1 C-4.34 1.33 -3.68 1.66 -3 2 C-2.01 2 -1.02 2 0 2 C0 1.34 0 0.68 0 0 Z " fill="#F8D85A" transform="translate(170,480)"/>
<path d="M0 0 C0.99 0.495 0.99 0.495 2 1 C2 2.98 2 4.96 2 7 C2.99 6.67 3.98 6.34 5 6 C4.96519531 6.56847656 4.93039063 7.13695312 4.89453125 7.72265625 C4.69753866 13.34163544 5.35894335 17.02262401 8 22 C8.66 22.66 9.32 23.32 10 24 C9.34 24.66 8.68 25.32 8 26 C6.84917315 23.75243216 5.70423142 21.50218252 4.5625 19.25 C4.23701172 18.61578125 3.91152344 17.9815625 3.57617188 17.328125 C0.41561825 11.07218381 -0.11477619 6.88657164 0 0 Z " fill="#F3DB6C" transform="translate(129,437)"/>
<path d="M0 0 C0.7425 0.2475 1.485 0.495 2.25 0.75 C0.57971708 4.69794145 -1.9295565 7.56796118 -4.75 10.75 C-5.08 10.75 -5.41 10.75 -5.75 10.75 C-6.5 7.5 -6.5 7.5 -6.75 3.75 C-4.68515231 0.57331125 -3.83637359 -0.34876124 0 0 Z " fill="#F7CB47" transform="translate(478.75,337.25)"/>
<path d="M0 0 C0.33 0 0.66 0 1 0 C1.1799928 5.21979128 0.97094808 9.07262981 -1 14 C-1.66 14 -2.32 14 -3 14 C-3 16.64 -3 19.28 -3 22 C-4.32 22 -5.64 22 -7 22 C-7.33 22.99 -7.66 23.98 -8 25 C-8.66 24.67 -9.32 24.34 -10 24 C-9.69707031 23.52433594 -9.39414062 23.04867187 -9.08203125 22.55859375 C-4.81546331 15.43014332 -2.44214391 7.88760521 0 0 Z " fill="#F4DB69" transform="translate(384,206)"/>
<path d="M0 0 C0 3.7143695 -1.27231038 5.75194352 -3 9 C-3.33 9.66 -3.66 10.32 -4 11 C-4.928125 10.979375 -5.85625 10.95875 -6.8125 10.9375 C-11.9004688 10.92703093 -16.94286245 11.4878848 -22 12 C-22.33 11.34 -22.66 10.68 -23 10 C-22.29875 9.97421875 -21.5975 9.9484375 -20.875 9.921875 C-12.9530394 9.44827953 -6.96972757 8.26670033 -1.5 2.25 C-1.005 1.5075 -0.51 0.765 0 0 Z " fill="#F3D160" transform="translate(338,449)"/>
<path d="M0 0 C0 0.66 0 1.32 0 2 C-1.32 2 -2.64 2 -4 2 C-4 2.66 -4 3.32 -4 4 C-5.65 4 -7.3 4 -9 4 C-9 4.66 -9 5.32 -9 6 C-10.98 6 -12.96 6 -15 6 C-14.360625 5.38125 -13.72125 4.7625 -13.0625 4.125 C-10.96116416 2.17402388 -10.96116416 2.17402388 -10 0 C-6.52285976 -1.41661269 -3.5974748 -0.73584712 0 0 Z " fill="#FCCA33" transform="translate(452,361)"/>
<path d="M0 0 C0.66 0.33 1.32 0.66 2 1 C1.67 1.66 1.34 2.32 1 3 C1.99 3 2.98 3 4 3 C4 3.66 4 4.32 4 5 C1.03 4.505 1.03 4.505 -2 4 C-2.33 4.99 -2.66 5.98 -3 7 C-4.8125 8.3125 -4.8125 8.3125 -7 9 C-9.13671875 8.04296875 -9.13671875 8.04296875 -11 7 C-9.21475351 5.80286983 -7.4215972 4.61752721 -5.625 3.4375 C-4.62726563 2.77621094 -3.62953125 2.11492187 -2.6015625 1.43359375 C-1.74304688 0.96050781 -0.88453125 0.48742187 0 0 Z " fill="#F6D961" transform="translate(361,243)"/>
<path d="M0 0 C0.66 0.33 1.32 0.66 2 1 C-1.71902213 7.28272674 -4.98547406 12.74582312 -11 17 C-10.39350408 13.39380806 -8.91097948 11.31648105 -6.625 8.5 C-6.01914062 7.7471875 -5.41328125 6.994375 -4.7890625 6.21875 C-3.90347656 5.12046875 -3.90347656 5.12046875 -3 4 C-1.994184 2.67104855 -0.99219148 1.33915415 0 0 Z " fill="#39698B" transform="translate(365,207)"/>
<path d="M0 0 C0.94875 0.350625 1.8975 0.70125 2.875 1.0625 C5.87060172 2.35026777 5.87060172 2.35026777 8 1 C7.61402985 3.79828356 7.19863427 4.8205884 5.0625 6.75 C3 8 3 8 1 8 C0.26919734 6.02253397 -0.39421747 4.01927511 -1 2 C-0.67 1.34 -0.34 0.68 0 0 Z " fill="#FCC936" transform="translate(465,344)"/>
<path d="M0 0 C2.73251686 3.27098341 4.21683758 6.59882422 5.75 10.5625 C6.42289062 12.26599609 6.42289062 12.26599609 7.109375 14.00390625 C8 17 8 17 7 20 C6.01 17.03 5.02 14.06 4 11 C3.34 11 2.68 11 2 11 C0.80712589 7.12315913 0 4.08378077 0 0 Z " fill="#F3D764" transform="translate(487,167)"/>
<path d="M0 0 C0.66 0 1.32 0 2 0 C0.75496833 5.65923484 -0.9353721 8.8337564 -5 13 C-5.66 13 -6.32 13 -7 13 C-5.39516194 8.33138019 -3.02509806 3.90741833 0 0 Z " fill="#3C7AA3" transform="translate(21,159)"/>
<path d="M0 0 C0.99 0.33 1.98 0.66 3 1 C3.33 2.65 3.66 4.3 4 6 C1.69 6.33 -0.62 6.66 -3 7 C-3.33 6.34 -3.66 5.68 -4 5 C-2.52830189 1.26415094 -2.52830189 1.26415094 0 0 Z " fill="#367DAF" transform="translate(179,33)"/>
<path d="M0 0 C-0.90492188 0.58007812 -0.90492188 0.58007812 -1.828125 1.171875 C-7.82801813 5.07616197 -7.82801813 5.07616197 -13 10 C-13 6 -13 6 -11.375 3.9375 C-4.64885496 -1.54961832 -4.64885496 -1.54961832 0 0 Z " fill="#3E78A1" transform="translate(176,40)"/>
<path d="M0 0 C-4.05951034 2.8502945 -7.84952491 3.73532159 -12.6875 4.3125 C-13.70166992 4.46041992 -13.70166992 4.46041992 -14.73632812 4.61132812 C-16.48134562 4.83531545 -18.24217317 4.9271906 -20 5 C-20.66 4.34 -21.32 3.68 -22 3 C-20.87980469 2.79503906 -19.75960938 2.59007812 -18.60546875 2.37890625 C-17.13279176 2.10688311 -15.66013664 1.83474151 -14.1875 1.5625 C-13.44951172 1.42779297 -12.71152344 1.29308594 -11.95117188 1.15429688 C-2.04853289 -0.6828443 -2.04853289 -0.6828443 0 0 Z " fill="#EEDD6E" transform="translate(349,252)"/>
<path d="M0 0 C5.28 0 10.56 0 16 0 C16 0.33 16 0.66 16 1 C15.32453125 1.03738281 14.6490625 1.07476562 13.953125 1.11328125 C13.06109375 1.17902344 12.1690625 1.24476563 11.25 1.3125 C10.36828125 1.37050781 9.4865625 1.42851562 8.578125 1.48828125 C5.66294426 2.06690046 4.27830122 3.15259488 2 5 C1.34 5 0.68 5 0 5 C0 3.35 0 1.7 0 0 Z M-2 5 C-1.01 5.495 -1.01 5.495 0 6 C-0.99 6.495 -0.99 6.495 -2 7 C-2 6.34 -2 5.68 -2 5 Z " fill="#FCED4F" transform="translate(194,256)"/>
<path d="M0 0 C0.66 0 1.32 0 2 0 C2 5.28 2 10.56 2 16 C1.34 16 0.68 16 0 16 C-0.19389096 13.5211787 -0.38040123 11.04219069 -0.5625 8.5625 C-0.61857422 7.85544922 -0.67464844 7.14839844 -0.73242188 6.41992188 C-0.86190993 4.61572163 -0.93521608 2.80768048 -1 1 C-0.67 0.67 -0.34 0.34 0 0 Z " fill="#EED76C" transform="translate(249,370)"/>
<path d="M0 0 C2.96404505 2.80804268 5.44499019 5.18315774 7 9 C4.37886292 9 2.49064888 8.68707555 0 8 C0 5.36 0 2.72 0 0 Z " fill="#F4D65A" transform="translate(474,147)"/>
<path d="M0 0 C2 2 2 2 3.25 4.3125 C6.03200346 8.58486245 9.76529249 11.17686166 14 14 C8.68574782 12.99460094 6.26659097 12.35545463 3 8 C2.01 7.67 1.02 7.34 0 7 C0 4.69 0 2.38 0 0 Z " fill="#F0CD5F" transform="translate(299,445)"/>
<path d="M0 0 C0.33 0.99 0.66 1.98 1 3 C-0.21484375 5.0078125 -0.21484375 5.0078125 -1.9375 7.125 C-4.03913947 9.31769787 -4.03913947 9.31769787 -5 12 C-6.65 12 -8.3 12 -10 12 C-9.61328125 11.55269531 -9.2265625 11.10539063 -8.828125 10.64453125 C-5.81609925 7.1478974 -2.85678969 3.62592537 0 0 Z " fill="#EEDB67" transform="translate(373,231)"/>
<path d="M0 0 C0.33 0.66 0.66 1.32 1 2 C3.64 2 6.28 2 9 2 C3.84335444 4.76248869 -0.12905966 5.1129027 -6 5 C-4.68 4.67 -3.36 4.34 -2 4 C-2 3.34 -2 2.68 -2 2 C-1.34 2 -0.68 2 0 2 C0 1.34 0 0.68 0 0 Z " fill="#F3D257" transform="translate(317,489)"/>
<path d="M0 0 C0.66 0 1.32 0 2 0 C0.6062718 4.43458973 -1.60582235 6.87378374 -5 10 C-5.66 8.68 -6.32 7.36 -7 6 C-5.68 6.33 -4.36 6.66 -3 7 C-3 5.35 -3 3.7 -3 2 C-2.01 2 -1.02 2 0 2 C0 1.34 0 0.68 0 0 Z " fill="#F0CC52" transform="translate(367,460)"/>
<path d="M0 0 C0.33 0 0.66 0 1 0 C1 1.65 1 3.3 1 5 C1.66 5 2.32 5 3 5 C3 5.66 3 6.32 3 7 C1.68 7 0.36 7 -1 7 C-1.33 7.66 -1.66 8.32 -2 9 C-2.99 8.67 -3.98 8.34 -5 8 C-4.19185349 6.66402348 -3.37836819 5.331275 -2.5625 4 C-2.11003906 3.2575 -1.65757812 2.515 -1.19140625 1.75 C-0.79824219 1.1725 -0.40507812 0.595 0 0 Z " fill="#F5E572" transform="translate(140,282)"/>
<path d="M0 0 C0.66 0.33 1.32 0.66 2 1 C-2.15296809 4.68606635 -6.30834891 8.02480663 -11 11 C-9.52202738 7.32943063 -7.52384523 5.58914217 -4.375 3.25 C-3.55773437 2.63640625 -2.74046875 2.0228125 -1.8984375 1.390625 C-0.95871094 0.70226562 -0.95871094 0.70226562 0 0 Z " fill="#3F799F" transform="translate(150,19)"/>
<path d="M0 0 C0.33 0.66 0.66 1.32 1 2 C-2.01031744 2.93423645 -2.86650268 3.04449911 -6 2 C-8.63804589 2.39397335 -8.63804589 2.39397335 -11 3 C-9 0 -9 0 -6.625 -0.75 C-4.04323475 -0.99588241 -2.40313217 -0.94408764 0 0 Z " fill="#F9C937" transform="translate(331,460)"/>
<path d="M0 0 C0.66 0.66 1.32 1.32 2 2 C-2.455 4.97 -2.455 4.97 -7 8 C-7.66 7.67 -8.32 7.34 -9 7 C-4.25 3 -4.25 3 -2 3 C-1.67 2.34 -1.34 1.68 -1 1 C-0.67 0.67 -0.34 0.34 0 0 Z " fill="#3C698D" transform="translate(347,227)"/>
<path d="M0 0 C0.66 0.33 1.32 0.66 2 1 C1.34 4.96 0.68 8.92 0 13 C-2 11 -2 11 -2.25 7.625 C-2.02515633 4.36476676 -1.7239511 2.69367359 0 0 Z " fill="#3B799F" transform="translate(161,52)"/>
<path d="M0 0 C0 0.66 0 1.32 0 2 C-0.99 2.495 -0.99 2.495 -2 3 C-2.65213292 5.02463255 -2.65213292 5.02463255 -3 7 C-3.66 7 -4.32 7 -5 7 C-5 6.34 -5 5.68 -5 5 C-5.66 4.67 -6.32 4.34 -7 4 C-3.375 0 -3.375 0 0 0 Z " fill="#3978B2" transform="translate(158,16)"/>
<path d="M0 0 C0.66 0.33 1.32 0.66 2 1 C0.79157144 5.43090471 -0.51668565 7.98112756 -4 11 C-3.67 8.69 -3.34 6.38 -3 4 C-2.01 4 -1.02 4 0 4 C0 2.68 0 1.36 0 0 Z " fill="#EECD58" transform="translate(485,327)"/>
<path d="M0 0 C2.97 0.495 2.97 0.495 6 1 C3.3144406 3.6855594 0.62378672 4.06049974 -3 5 C-3 4.01 -3 3.02 -3 2 C-2.01 2 -1.02 2 0 2 C0 1.34 0 0.68 0 0 Z " fill="#3C6D8E" transform="translate(332,234)"/>
<path d="M0 0 C4.75 0.875 4.75 0.875 7 2 C7.625 5.0625 7.625 5.0625 8 8 C5.33333333 5.33333333 2.66666667 2.66666667 0 0 Z " fill="#447CA4" transform="translate(193,42)"/>
<path d="M0 0 C0.99 0 1.98 0 3 0 C3.33 1.32 3.66 2.64 4 4 C2 4 0 4 -2 4 C-2 3.34 -2 2.68 -2 2 C-1.34 2 -0.68 2 0 2 C0 1.34 0 0.68 0 0 Z " fill="#F9D949" transform="translate(131,433)"/>
<path d="M0 0 C1.32 0 2.64 0 4 0 C4.66 2.31 5.32 4.62 6 7 C1.125 2.25 1.125 2.25 0 0 Z " fill="#F1DC69" transform="translate(138,463)"/>
<path d="M0 0 C0.99 0 1.98 0 3 0 C2.25 5.75 2.25 5.75 0 8 C0 5.36 0 2.72 0 0 Z " fill="#3179B0" transform="translate(131,99)"/>
</svg>
