<?xml version="1.0" encoding="UTF-8"?>
<svg version="1.1" xmlns="http://www.w3.org/2000/svg" width="212" height="223">
<path d="M0 0 C0.33 0 0.66 0 1 0 C1.79990565 8.16395735 2.16312642 16.23587058 2.125 24.4375 C2.12016602 25.52699951 2.11533203 26.61649902 2.11035156 27.73901367 C1.95269343 48.84786058 1.95269343 48.84786058 -0.921875 52.32421875 C-3 54 -3 54 -5 54 C-5 54.66 -5 55.32 -5 56 C-4.38125 56.268125 -3.7625 56.53625 -3.125 56.8125 C-1 58 -1 58 1 61 C2.57434327 70.70539722 2.31076411 80.96065384 2.4050293 90.77661133 C2.42679367 92.47635992 2.46110884 94.17599122 2.50756836 95.87524414 C2.93796316 111.86418129 2.93796316 111.86418129 -1.02734375 117.16796875 C-2.70288086 118.90698242 -2.70288086 118.90698242 -4 120 C-3.195625 120.5775 -2.39125 121.155 -1.5625 121.75 C4.96182088 128.41486229 2.32203539 145.23090627 2.4050293 154.18334961 C2.42678942 155.94526553 2.4610997 157.70706842 2.50756836 159.46850586 C2.57463981 162.04848932 2.6020084 164.62629912 2.62109375 167.20703125 C2.64892441 167.98633499 2.67675507 168.76563873 2.70542908 169.56855774 C2.68522749 174.96788035 1.25872456 177.68875055 -2.43887329 181.60354614 C-21.97685594 199.08059722 -65.12914339 198.99991322 -90.17822266 202.2019043 C-99.60488978 203.40784559 -109.01456062 204.65743304 -118.3815918 206.27563477 C-122.46059489 206.94189575 -124.80293821 206.83941236 -129 206 C-129 190.16 -129 174.32 -129 158 C-121.125 155.75 -121.125 155.75 -117.90063477 155.31396484 C-117.18041641 155.21401215 -116.46019806 155.11405945 -115.71815491 155.01107788 C-114.59116432 154.86250839 -114.59116432 154.86250839 -113.44140625 154.7109375 C-112.65225327 154.60278717 -111.86310028 154.49463684 -111.05003357 154.38320923 C-108.55481165 154.04235634 -106.05870532 153.70856649 -103.5625 153.375 C-101.85996239 153.1436972 -100.15748768 152.9119309 -98.45507812 152.6796875 C-94.30409333 152.11443099 -90.15230091 151.55550238 -86 151 C-87.08941895 150.85900879 -88.17883789 150.71801758 -89.30126953 150.57275391 C-93.36115186 150.04572243 -97.41996803 149.51083803 -101.47851562 148.97363281 C-103.23181723 148.74266282 -104.98539706 148.5137944 -106.73925781 148.28710938 C-109.26704604 147.9600176 -111.79372161 147.62526298 -114.3203125 147.2890625 C-115.09867462 147.19001617 -115.87703674 147.09096985 -116.6789856 146.98892212 C-120.99263246 146.40652023 -124.89809365 145.53464925 -129 144 C-129.05064156 137.21902652 -129.08570883 130.43810167 -129.10986328 123.65698242 C-129.11993107 121.3493467 -129.13358623 119.04172375 -129.15087891 116.73413086 C-129.17509287 113.42037809 -129.18647526 110.10679374 -129.1953125 106.79296875 C-129.20563507 105.7585112 -129.21595764 104.72405365 -129.22659302 103.6582489 C-129.22674408 102.6974794 -129.22689514 101.7367099 -129.22705078 100.74682617 C-129.231492 99.90077316 -129.23593323 99.05472015 -129.24050903 98.18302917 C-129 96 -129 96 -127 93 C-125.20297241 92.41145325 -125.20297241 92.41145325 -123.00927734 92.10864258 C-121.77822769 91.9287957 -121.77822769 91.9287957 -120.52230835 91.74531555 C-119.63580597 91.62955673 -118.74930359 91.51379791 -117.8359375 91.39453125 C-116.92872955 91.26559982 -116.02152161 91.1366684 -115.08682251 91.00382996 C-112.18446463 90.59426769 -109.2799511 90.20320057 -106.375 89.8125 C-104.40868466 89.53832227 -102.44253595 89.26294668 -100.4765625 88.98632812 C-95.65286634 88.31029613 -90.82715679 87.65084196 -86 87 C-87.08941895 86.85900879 -88.17883789 86.71801758 -89.30126953 86.57275391 C-93.36115186 86.04572243 -97.41996803 85.51083803 -101.47851562 84.97363281 C-103.23181723 84.74266282 -104.98539706 84.5137944 -106.73925781 84.28710938 C-109.26704604 83.9600176 -111.79372161 83.62526298 -114.3203125 83.2890625 C-115.09867462 83.19001617 -115.87703674 83.09096985 -116.6789856 82.98892212 C-120.99263246 82.40652023 -124.89809365 81.53464925 -129 80 C-129.05058729 73.05829978 -129.08568579 66.11664685 -129.10986328 59.17480469 C-129.11993924 56.81183089 -129.13360029 54.44886961 -129.15087891 52.0859375 C-129.17505724 48.69528112 -129.18646699 45.30478916 -129.1953125 41.9140625 C-129.20563507 40.85256989 -129.21595764 39.79107727 -129.22659302 38.69741821 C-129.22674408 37.71655243 -129.22689514 36.73568665 -129.22705078 35.72509766 C-129.23371262 34.42603989 -129.23371262 34.42603989 -129.24050903 33.10073853 C-129 31 -129 31 -127 29 C-125.17285156 28.48510742 -125.17285156 28.48510742 -122.890625 28.10546875 C-121.56937622 27.88298462 -121.56937622 27.88298462 -120.22143555 27.65600586 C-119.24086182 27.50139893 -118.26028809 27.34679199 -117.25 27.1875 C-116.21593018 27.01935791 -115.18186035 26.85121582 -114.11645508 26.67797852 C-102.33990939 24.81335172 -90.51225494 23.32071825 -78.6887207 21.7902832 C-63.32210607 19.79970091 -48.04286548 17.81608365 -33 14 C-31.44404462 13.6248581 -29.88805227 13.24986955 -28.33203125 12.875 C-12.6428029 9.35039674 -12.6428029 9.35039674 0 0 Z " fill="#DE3634" transform="translate(169,10)"/>
<path d="M0 0 C0.33 0 0.66 0 1 0 C2.02472085 9.71701076 2.31452219 19.42046673 2.4050293 29.18334961 C2.42678942 30.94526553 2.4610997 32.70706842 2.50756836 34.46850586 C2.57463981 37.04848932 2.6020084 39.62629912 2.62109375 42.20703125 C2.66283974 43.37598686 2.66283974 43.37598686 2.70542908 44.56855774 C2.68522749 49.96788035 1.25872456 52.68875055 -2.43887329 56.60354614 C-21.97685594 74.08059722 -65.12914339 73.99991322 -90.17822266 77.2019043 C-99.60488978 78.40784559 -109.01456062 79.65743304 -118.3815918 81.27563477 C-122.46059489 81.94189575 -124.80293821 81.83941236 -129 81 C-129 65.16 -129 49.32 -129 33 C-121.125 30.75 -121.125 30.75 -117.90063477 30.31396484 C-117.18041641 30.21401215 -116.46019806 30.11405945 -115.71815491 30.01107788 C-114.96682785 29.91203156 -114.21550079 29.81298523 -113.44140625 29.7109375 C-112.65225327 29.60278717 -111.86310028 29.49463684 -111.05003357 29.38320923 C-108.55481165 29.04235634 -106.05870532 28.70856649 -103.5625 28.375 C-101.85996239 28.1436972 -100.15748768 27.9119309 -98.45507812 27.6796875 C-94.30409333 27.11443099 -90.15230091 26.55550238 -86 26 C-88.31 25.67 -90.62 25.34 -93 25 C-93 24.67 -93 24.34 -93 24 C-91.741875 23.979375 -90.48375 23.95875 -89.1875 23.9375 C-88.47980469 23.92589844 -87.77210937 23.91429687 -87.04296875 23.90234375 C-85 24 -85 24 -82 25 C-73.78271715 25.53707731 -65.83410437 24.03352048 -57.76416016 22.65625 C-55.4030306 22.25476629 -53.03974712 21.86875969 -50.67578125 21.484375 C-38.33091185 19.43576364 -26.24834144 16.70699045 -14.4375 12.5 C-13.34308594 12.1184375 -12.24867188 11.736875 -11.12109375 11.34375 C-6.34682831 9.28824648 -2.69682485 7.64704056 -0.625 2.75 C-0.41875 1.8425 -0.2125 0.935 0 0 Z " fill="#DE3835" transform="translate(169,135)"/>
<path d="M0 0 C0.33 0 0.66 0 1 0 C1.79990565 8.16395735 2.16312642 16.23587058 2.125 24.4375 C2.12016602 25.52699951 2.11533203 26.61649902 2.11035156 27.73901367 C1.95269343 48.84786058 1.95269343 48.84786058 -0.921875 52.32421875 C-3 54 -3 54 -5 54 C-5 54.66 -5 55.32 -5 56 C-3.515 56.495 -3.515 56.495 -2 57 C-3.98 57.99 -3.98 57.99 -6 59 C-6.33 58.01 -6.66 57.02 -7 56 C-7.60956543 56.21092285 -8.21913086 56.4218457 -8.84716797 56.63916016 C-40.71477271 67.48132289 -73.93012668 71.1346839 -107.16015625 75.58203125 C-108.12136383 75.71091736 -109.08257141 75.83980347 -110.07290649 75.97259521 C-115.70876999 76.72012656 -121.34738646 77.39166802 -127 78 C-127 78.66 -127 79.32 -127 80 C-127.66 80 -128.32 80 -129 80 C-129.05058729 73.05829978 -129.08568579 66.11664685 -129.10986328 59.17480469 C-129.11993924 56.81183089 -129.13360029 54.44886961 -129.15087891 52.0859375 C-129.17505724 48.69528112 -129.18646699 45.30478916 -129.1953125 41.9140625 C-129.20563507 40.85256989 -129.21595764 39.79107727 -129.22659302 38.69741821 C-129.22674408 37.71655243 -129.22689514 36.73568665 -129.22705078 35.72509766 C-129.23371262 34.42603989 -129.23371262 34.42603989 -129.24050903 33.10073853 C-129 31 -129 31 -127 29 C-125.17285156 28.48510742 -125.17285156 28.48510742 -122.890625 28.10546875 C-121.56937622 27.88298462 -121.56937622 27.88298462 -120.22143555 27.65600586 C-119.24086182 27.50139893 -118.26028809 27.34679199 -117.25 27.1875 C-116.21593018 27.01935791 -115.18186035 26.85121582 -114.11645508 26.67797852 C-102.33990939 24.81335172 -90.51225494 23.32071825 -78.6887207 21.7902832 C-63.32210607 19.79970091 -48.04286548 17.81608365 -33 14 C-31.44404462 13.6248581 -29.88805227 13.24986955 -28.33203125 12.875 C-12.6428029 9.35039674 -12.6428029 9.35039674 0 0 Z " fill="#DE3936" transform="translate(169,10)"/>
<path d="M0 0 C0.495 0.99 0.495 0.99 1 2 C1.66 1.67 2.32 1.34 3 1 C5.125 1.9375 5.125 1.9375 7 3 C7.7155606 9.08226513 7.7155606 9.08226513 5.76953125 11.578125 C3.09924904 13.87258971 1.57356623 15 -2 15 C-2 15.66 -2 16.32 -2 17 C-20.550426 23.03147929 -39.34091322 26.9923972 -58.625 29.875 C-59.45177246 30.00737061 -60.27854492 30.13974121 -61.13037109 30.27612305 C-73.53085867 31.98759125 -86.24746743 29.85893109 -98.58374023 28.27050781 C-100.72380746 27.99533148 -102.86472853 27.72769975 -105.00585938 27.4609375 C-116.33982729 26.02837486 -116.33982729 26.02837486 -120 25 C-120 24.01 -120 23.02 -120 22 C-108.69308814 19.72165227 -97.36726211 18.03374455 -85.93075562 16.55325317 C-44.82381634 11.32970453 -44.82381634 11.32970453 -4.91235352 0.54736328 C-3 0 -3 0 0 0 Z " fill="#810C1C" transform="translate(162,66)"/>
<path d="M0 0 C0.99 0.99 0.99 0.99 2 2 C3.66014616 2.36442233 5.32706064 2.69972883 7 3 C8 4 8 4 8.4375 7.25 C8 11 8 11 5.8125 13.625 C0.83704243 17.23161159 -5.2676741 18.95530303 -11 21 C-11.76296387 21.32403809 -12.52592773 21.64807617 -13.31201172 21.98193359 C-16.23425594 23.08872364 -19.0704077 23.76325104 -22.12890625 24.40234375 C-23.31967773 24.65161621 -24.51044922 24.90088867 -25.73730469 25.15771484 C-26.99961914 25.41504395 -28.26193359 25.67237305 -29.5625 25.9375 C-30.2073938 26.06972961 -30.8522876 26.20195923 -31.51672363 26.3381958 C-39.73332019 28.01824957 -47.95916176 29.60389417 -56.25 30.875 C-57.01513916 30.99480225 -57.78027832 31.11460449 -58.56860352 31.23803711 C-64.66937398 32.11732362 -71.07834682 32.97388439 -77 31 C-78.81524291 30.90578324 -80.63096246 30.81655178 -82.44775391 30.75952148 C-94.8192018 30.36170405 -106.84528755 28.22697112 -119 26 C-118.505 24.515 -118.505 24.515 -118 23 C-105.27407253 20.41679932 -92.50060809 18.64752866 -79.625 17 C-61.48201124 14.66993054 -43.44989469 12.24679969 -25.625 8.0625 C-24.56667969 7.82337891 -23.50835937 7.58425781 -22.41796875 7.33789062 C-10.38960693 5.2939401 -10.38960693 5.2939401 0 0 Z " fill="#810C1C" transform="translate(161,129)"/>
<path d="M0 0 C3.96 0.33 7.92 0.66 12 1 C11.67 1.66 11.34 2.32 11 3 C6.38 3 1.76 3 -3 3 C-3 3.66 -3 4.32 -3 5 C-3.83660156 5.07516846 -4.67320313 5.15033691 -5.53515625 5.2277832 C-8.67457482 5.51525903 -11.81283863 5.81280681 -14.95068359 6.11694336 C-16.30219877 6.24591211 -17.65409064 6.37100044 -19.00634766 6.49194336 C-20.96353858 6.66769997 -22.91930033 6.85914234 -24.875 7.05078125 C-26.04804687 7.16075439 -27.22109375 7.27072754 -28.4296875 7.3840332 C-32.83787401 8.03007517 -32.83787401 8.03007517 -40 11 C-40 26.18 -40 41.36 -40 57 C-41.485 57.495 -41.485 57.495 -43 58 C-43.05064156 51.21902652 -43.08570883 44.43810167 -43.10986328 37.65698242 C-43.11993107 35.3493467 -43.13358623 33.04172375 -43.15087891 30.73413086 C-43.17509287 27.42037809 -43.18647526 24.10679374 -43.1953125 20.79296875 C-43.20563507 19.7585112 -43.21595764 18.72405365 -43.22659302 17.6582489 C-43.22674408 16.6974794 -43.22689514 15.7367099 -43.22705078 14.74682617 C-43.231492 13.90077316 -43.23593323 13.05472015 -43.24050903 12.18302917 C-43 10 -43 10 -41 7 C-39.20297241 6.41145325 -39.20297241 6.41145325 -37.00927734 6.10864258 C-35.77822769 5.9287957 -35.77822769 5.9287957 -34.52230835 5.74531555 C-33.63580597 5.62955673 -32.74930359 5.51379791 -31.8359375 5.39453125 C-30.92872955 5.26559982 -30.02152161 5.1366684 -29.08682251 5.00382996 C-26.18446463 4.59426769 -23.2799511 4.20320057 -20.375 3.8125 C-18.40868466 3.53832227 -16.44253595 3.26294668 -14.4765625 2.98632812 C-9.65286634 2.31029613 -4.82715679 1.65084196 0 1 C0 0.67 0 0.34 0 0 Z " fill="#D76868" transform="translate(83,96)"/>
<path d="M0 0 C0.33 0 0.66 0 1 0 C1 15.51 1 31.02 1 47 C3.31 46.34 5.62 45.68 8 45 C16.30334719 43.68200838 24.61657428 43.90742229 33 44 C33 44.33 33 44.66 33 45 C29.1055108 45.59888793 25.2094986 46.18649219 21.31176758 46.76391602 C19.33781479 47.05871932 17.36518107 47.36231143 15.39257812 47.66601562 C13.52182617 47.94155273 13.52182617 47.94155273 11.61328125 48.22265625 C10.46641846 48.39547119 9.31955566 48.56828613 8.13793945 48.74633789 C5 49 5 49 0 48 C0 32.16 0 16.32 0 0 Z " fill="#ECB3B0" transform="translate(40,168)"/>
<path d="M0 0 C0.33 0 0.66 0 1 0 C1.33 15.84 1.66 31.68 2 48 C0.515 48.495 0.515 48.495 -1 49 C-1.0252689 42.18238106 -1.04283244 35.36477411 -1.05493164 28.54711914 C-1.05997333 26.22582549 -1.06680651 23.90453503 -1.07543945 21.58325195 C-1.08751225 18.25471205 -1.09322979 14.92621398 -1.09765625 11.59765625 C-1.10281754 10.55287613 -1.10797882 9.50809601 -1.11329651 8.43165588 C-1.11337204 7.47073532 -1.11344757 6.50981476 -1.11352539 5.51977539 C-1.115746 4.66928116 -1.11796661 3.81878693 -1.12025452 2.94252014 C-1 1 -1 1 0 0 Z " fill="#DA9695" transform="translate(41,105)"/>
<path d="M0 0 C0 0.33 0 0.66 0 1 C-4.55712926 2.73437739 -8.5766726 3.32866286 -13.4375 3.5625 C-18.40156018 3.81197585 -23.0497631 4.2928233 -28 5 C-28 20.18 -28 35.36 -28 51 C-28.33 51 -28.66 51 -29 51 C-29 35.49 -29 19.98 -29 4 C-24.21487116 2.40495705 -20.00027274 1.44492268 -15.0625 0.875 C-14.38509766 0.78863281 -13.70769531 0.70226562 -13.00976562 0.61328125 C-8.63182716 0.08440278 -4.39765793 -0.08027016 0 0 Z " fill="#BA4A4A" transform="translate(70,164)"/>
<path d="M0 0 C0.66 0.99 1.32 1.98 2 3 C5.92520897 4.3927668 10.12336373 4.34012826 14.25 4.5625 C14.99507812 4.60568359 15.74015625 4.64886719 16.5078125 4.69335938 C18.338349 4.79896725 20.16915176 4.89994201 22 5 C20 7 20 7 16.11328125 7.21484375 C10.42014093 7.08604999 4.82256618 6.3406241 -0.8125 5.5625 C-1.83537109 5.42779297 -2.85824219 5.29308594 -3.91210938 5.15429688 C-12.06812536 4.05935039 -12.06812536 4.05935039 -16 3 C-16 2.34 -16 1.68 -16 1 C-14.08351538 0.83125293 -12.16680367 0.66508357 -10.25 0.5 C-9.18265625 0.4071875 -8.1153125 0.314375 -7.015625 0.21875 C-4.6820782 0.04947717 -2.33967818 0 0 0 Z " fill="#892E3D" transform="translate(58,88)"/>
<path d="M0 0 C0.33 0.66 0.66 1.32 1 2 C-0.32 2.33 -1.64 2.66 -3 3 C-3.33 2.01 -3.66 1.02 -4 0 C-4.64026123 0.21205078 -5.28052246 0.42410156 -5.94018555 0.64257812 C-8.85350265 1.60269349 -11.77040133 2.55143935 -14.6875 3.5 C-15.69490234 3.83386719 -16.70230469 4.16773437 -17.74023438 4.51171875 C-18.71669922 4.82753906 -19.69316406 5.14335938 -20.69921875 5.46875 C-21.59471436 5.76201172 -22.49020996 6.05527344 -23.4128418 6.35742188 C-26.04593779 7.01140967 -28.29882837 7.11920064 -31 7 C-23.74405445 -0.25594555 -9.64722476 -2.14382772 0 0 Z " fill="#CC3E43" transform="translate(166,66)"/>
<path d="M0 0 C0.33 1.65 0.66 3.3 1 5 C1.77085938 5.04898438 2.54171875 5.09796875 3.3359375 5.1484375 C4.33882812 5.22320312 5.34171875 5.29796875 6.375 5.375 C7.87160156 5.47941406 7.87160156 5.47941406 9.3984375 5.5859375 C12 6 12 6 14 8 C6.97289671 8.27289722 0.40898441 7.22312164 -6.5 6 C-7.60859375 5.80921875 -8.7171875 5.6184375 -9.859375 5.421875 C-12.57400201 4.95383586 -15.28742095 4.47974117 -18 4 C-18 3.67 -18 3.34 -18 3 C-12.72 3.33 -7.44 3.66 -2 4 C-2.99 3.34 -3.98 2.68 -5 2 C-2 0 -2 0 0 0 Z " fill="#A65C67" transform="translate(60,151)"/>
<path d="M0 0 C-1 1 -1 1 -2.84765625 1.09765625 C-4.8984375 1.06510417 -6.94921875 1.03255208 -9 1 C-9 1.66 -9 2.32 -9 3 C-16.60298267 5.48260659 -24.10311193 5.18508331 -32 5 C-32 4.67 -32 4.34 -32 4 C-30.09927734 3.70996094 -30.09927734 3.70996094 -28.16015625 3.4140625 C-26.46091358 3.15119623 -24.76169617 2.88816664 -23.0625 2.625 C-21.81629883 2.43550781 -21.81629883 2.43550781 -20.54492188 2.2421875 C-15.62523308 1.47647718 -10.82430732 0.54285982 -6.00561523 -0.71728516 C-3.73320566 -1.03760777 -2.17169969 -0.68829826 0 0 Z " fill="#DF8280" transform="translate(136,26)"/>
<path d="M0 0 C1.32 0.33 2.64 0.66 4 1 C4 1.66 4 2.32 4 3 C-2.29496102 5.54033338 -8.56707704 7.21580087 -15.1875 8.6875 C-16.64446289 9.02491211 -16.64446289 9.02491211 -18.13085938 9.36914062 C-22.52586473 10.36020078 -26.47498603 11.12784238 -31 11 C-28.24974139 9.16649426 -26.97782429 8.6227891 -23.875 8 C-23.0809375 7.835 -22.286875 7.67 -21.46875 7.5 C-20.6540625 7.335 -19.839375 7.17 -19 7 C-9.04475583 5.16723919 -9.04475583 5.16723919 0 1 C0 0.67 0 0.34 0 0 Z " fill="#D23B3F" transform="translate(148,130)"/>
<path d="M0 0 C-22.54283217 5.37587413 -22.54283217 5.37587413 -31 5 C-28.29567328 2.29567328 -26.25780287 2.43216653 -22.5 1.9375 C-18.10241884 1.45495439 -18.10241884 1.45495439 -14 0 C-12.38147425 -0.25377581 -10.75453544 -0.45576041 -9.125 -0.625 C-8.26132813 -0.72039062 -7.39765625 -0.81578125 -6.5078125 -0.9140625 C-4.09358507 -0.99679303 -2.29257465 -0.71443024 0 0 Z " fill="#D0363B" transform="translate(133,74)"/>
<path d="M0 0 C-3.02754748 2.01836499 -4.60847465 2.46501865 -8.11328125 3.0703125 C-9.6147168 3.33134766 -9.6147168 3.33134766 -11.14648438 3.59765625 C-12.19126953 3.77167969 -13.23605469 3.94570312 -14.3125 4.125 C-15.34568359 4.30675781 -16.37886719 4.48851562 -17.44335938 4.67578125 C-22.3381392 5.51093932 -27.01387176 6.25745929 -32 6 C-31 4 -31 4 -28 3 C-25.20850374 2.63613898 -22.42308162 2.30249531 -19.625 2 C-1.08208508 -0.02516477 -1.08208508 -0.02516477 0 0 Z " fill="#8E0C16" transform="translate(135,153)"/>
<path d="M0 0 C0.66 0 1.32 0 2 0 C2 0.66 2 1.32 2 2 C5.3 1.67 8.6 1.34 12 1 C9.18808439 3.81191561 5.83480922 4.53516103 2.125 5.6875 C1.40441406 5.92533203 0.68382812 6.16316406 -0.05859375 6.40820312 C-3.80303502 7.58394389 -6.25823079 8.1851875 -10 7 C-6.86501708 5.14223235 -4.62528568 4.79859524 -1 5 C-0.67 3.35 -0.34 1.7 0 0 Z " fill="#DB7272" transform="translate(149,193)"/>
<path d="M0 0 C0.33 0 0.66 0 1 0 C1 2.97 1 5.94 1 9 C-1 10 -1 10 -4 10 C-4.99 9.67 -5.98 9.34 -7 9 C-7 8.34 -7 7.68 -7 7 C-7.99 6.67 -8.98 6.34 -10 6 C-9.44570312 5.73445312 -8.89140625 5.46890625 -8.3203125 5.1953125 C-7.59585938 4.84210938 -6.87140625 4.48890625 -6.125 4.125 C-5.40570313 3.77695313 -4.68640625 3.42890625 -3.9453125 3.0703125 C-1.84864981 2.03442457 -1.84864981 2.03442457 0 0 Z " fill="#D72F30" transform="translate(168,140)"/>
<path d="M0 0 C-0.33 0.99 -0.66 1.98 -1 3 C-3.31074405 3.74118205 -5.64811553 4.40206327 -8 5 C-9.35350594 5.62469505 -10.69934483 6.2716331 -12 7 C-12 7.33 -12 7.66 -12 8 C-14.31 8 -16.62 8 -19 8 C-18.01 7.34 -17.02 6.68 -16 6 C-16.99 5.34 -17.98 4.68 -19 4 C-16.39688008 3.32900016 -13.79264602 2.66304662 -11.1875 2 C-10.44951172 1.80921875 -9.71152344 1.6184375 -8.95117188 1.421875 C-5.89464659 0.64737086 -3.16626522 0 0 0 Z " fill="#E16667" transform="translate(155,20)"/>
<path d="M0 0 C0.33 0 0.66 0 1 0 C1.99263429 9.35912329 2.10731538 18.60394198 2 28 C-0.10209857 24.84685215 -0.2434761 24.13896919 -0.1953125 20.55078125 C-0.18564453 19.27944336 -0.18564453 19.27944336 -0.17578125 17.98242188 C-0.15902344 17.10134766 -0.14226562 16.22027344 -0.125 15.3125 C-0.11597656 14.41982422 -0.10695312 13.52714844 -0.09765625 12.60742188 C-0.07409748 10.40467686 -0.04120329 8.20247412 0 6 C-2.31 6.33 -4.62 6.66 -7 7 C-4.66666667 4.66666667 -2.33333333 2.33333333 0 0 Z " fill="#D77070" transform="translate(169,10)"/>
<path d="M0 0 C-0.33 0.66 -0.66 1.32 -1 2 C-2.9609375 2.59765625 -2.9609375 2.59765625 -5.375 3.0625 C-8.02183151 3.58410686 -10.4317625 4.14392083 -13 5 C-13.33 5.66 -13.66 6.32 -14 7 C-14.66 7 -15.32 7 -16 7 C-16 6.34 -16 5.68 -16 5 C-17.32 4.67 -18.64 4.34 -20 4 C-18.33392168 3.52397762 -16.66759225 3.04881636 -15 2.578125 C-13.13713616 2.03964092 -11.28662115 1.458933 -9.4375 0.875 C-6.12678729 0.03227313 -3.39642988 -0.16567951 0 0 Z " fill="#D53A40" transform="translate(145,152)"/>
<path d="M0 0 C0.66 0.66 1.32 1.32 2 2 C-2.91502758 3.29235715 -7.77290102 3.11135517 -12.8125 3.0625 C-13.69615234 3.05798828 -14.57980469 3.05347656 -15.49023438 3.04882812 C-17.66018559 3.03709866 -19.83010172 3.01916495 -22 3 C-22 2.67 -22 2.34 -22 2 C-19.64655194 1.66076424 -17.2924516 1.32849466 -14.9375 1 C-14.28072266 0.90460937 -13.62394531 0.80921875 -12.94726562 0.7109375 C-8.59913436 0.11119526 -4.38629266 -0.262849 0 0 Z " fill="#DC7777" transform="translate(83,34)"/>
<path d="M0 0 C2.0625 0.4375 2.0625 0.4375 4 1 C3.67 1.33 3.34 1.66 3 2 C3.66 2.66 4.32 3.32 5 4 C0.31506124 6.48887372 -2.9444214 5.85687773 -8 5 C-8.33 4.01 -8.66 3.02 -9 2 C-6.94921875 1.77213542 -4.8984375 1.54427083 -2.84765625 1.31640625 C-0.98859771 1.18113386 -0.98859771 1.18113386 0 0 Z " fill="#D5433E" transform="translate(136,25)"/>
<path d="M0 0 C0 0.33 0 0.66 0 1 C-5.70977217 3.39693508 -11.27977515 3.43624465 -17.375 3.625 C-18.90833984 3.68300781 -18.90833984 3.68300781 -20.47265625 3.7421875 C-22.98159597 3.83597964 -25.49053764 3.92167879 -28 4 C-28 3.67 -28 3.34 -28 3 C-24.64703509 2.49171557 -21.29246657 1.99488543 -17.9375 1.5 C-16.52307617 1.28537109 -16.52307617 1.28537109 -15.08007812 1.06640625 C-9.99267758 0.32190861 -5.1412006 -0.17113566 0 0 Z " fill="#DF8988" transform="translate(70,164)"/>
<path d="M0 0 C0 1.65 0 3.3 0 5 C-2.96687001 6.64826111 -5.65626525 7.44271087 -9 8 C-9.33 7.34 -9.66 6.68 -10 6 C-9 4 -9 4 -6 3 C-5.67 2.34 -5.34 1.68 -5 1 C-2 0 -2 0 0 0 Z " fill="#E32F2D" transform="translate(169,16)"/>
<path d="M0 0 C2.71262116 0.2322646 5.40773126 0.41936235 8.125 0.5625 C9.25615234 0.62727539 9.25615234 0.62727539 10.41015625 0.69335938 C12.27321888 0.7994832 14.13658524 0.90025001 16 1 C14 3 14 3 10.3125 3.25 C3.49434509 3.11587236 -3.26380759 1.99400995 -10 1 C-10 0.67 -10 0.34 -10 0 C-2.25 -1.125 -2.25 -1.125 0 0 Z " fill="#853540" transform="translate(64,92)"/>
<path d="M0 0 C-1 2 -1 2 -2.9375 2.6875 C-5 3 -5 3 -7 2 C-7 2.66 -7 3.32 -7 4 C-11.62 4 -16.24 4 -21 4 C-21 3.67 -21 3.34 -21 3 C-18.6263603 2.49265716 -16.25142575 1.99397614 -13.875 1.5 C-13.20984375 1.35691406 -12.5446875 1.21382813 -11.859375 1.06640625 C-7.83943578 0.2387717 -4.10095101 -0.15330658 0 0 Z " fill="#CF363E" transform="translate(136,90)"/>
<path d="M0 0 C5.28 0 10.56 0 16 0 C16 0.33 16 0.66 16 1 C13.81347261 1.33965474 11.62571975 1.67142477 9.4375 2 C7.61025391 2.2784375 7.61025391 2.2784375 5.74609375 2.5625 C2.12372152 2.98555077 -1.35712046 3.07501425 -5 3 C-5 2.67 -5 2.34 -5 2 C-3.35 2 -1.7 2 0 2 C0 1.34 0 0.68 0 0 Z " fill="#E2938F" transform="translate(57,212)"/>
<path d="M0 0 C2.0622048 -0.054348 4.12482816 -0.09294961 6.1875 -0.125 C7.33605469 -0.14820313 8.48460937 -0.17140625 9.66796875 -0.1953125 C12.91740372 -0.00484152 15.08660521 0.60639873 18 2 C18 2.33 18 2.66 18 3 C11.79895188 3.27560214 6.06815522 2.22899346 0 1 C0 0.67 0 0.34 0 0 Z " fill="#740F1F" transform="translate(42,153)"/>
<path d="M0 0 C-1.95649397 0.83764268 -3.91525556 1.66999059 -5.875 2.5 C-6.96554688 2.9640625 -8.05609375 3.428125 -9.1796875 3.90625 C-12 5 -12 5 -14 5 C-14.33 4.01 -14.66 3.02 -15 2 C-13.06524329 1.46906676 -11.12706845 0.95057683 -9.1875 0.4375 C-8.10855469 0.14746094 -7.02960938 -0.14257812 -5.91796875 -0.44140625 C-3 -1 -3 -1 0 0 Z " fill="#D53E43" transform="translate(151,87)"/>
<path d="M0 0 C1.65 0 3.3 0 5 0 C5.33 1.32 5.66 2.64 6 4 C5.01 4 4.02 4 3 4 C3 4.66 3 5.32 3 6 C2.01 5.67 1.02 5.34 0 5 C0 3.35 0 1.7 0 0 Z " fill="#DB302C" transform="translate(43,82)"/>
<path d="M0 0 C0 0.33 0 0.66 0 1 C-6.06815522 2.22899346 -11.79895188 3.27560214 -18 3 C-18 2.67 -18 2.34 -18 2 C-12.12116651 -0.61281488 -6.29268272 -0.18328202 0 0 Z " fill="#E19694" transform="translate(114,206)"/>
<path d="M0 0 C-2.85410334 1.50560497 -5.68124642 2.63216796 -8.75 3.625 C-9.54921875 3.88539062 -10.3484375 4.14578125 -11.171875 4.4140625 C-11.77515625 4.60742188 -12.3784375 4.80078125 -13 5 C-13.33 4.01 -13.66 3.02 -14 2 C-11.01784419 -0.98215581 -3.98171838 -0.09711508 0 0 Z " fill="#D87373" transform="translate(55,102)"/>
<path d="M0 0 C3.63 0 7.26 0 11 0 C7.2311658 1.8844171 5.31987525 2.33429462 1.25 2.625 C0.26515625 2.69976562 -0.7196875 2.77453125 -1.734375 2.8515625 C-2.48203125 2.90054688 -3.2296875 2.94953125 -4 3 C-2.68 2.67 -1.36 2.34 0 2 C0 1.34 0 0.68 0 0 Z " fill="#E59490" transform="translate(119,203)"/>
<path d="M0 0 C1.875 0.3125 1.875 0.3125 4 1 C4.66 1.99 5.32 2.98 6 4 C5.01 4.33 4.02 4.66 3 5 C2.34 4.67 1.68 4.34 1 4 C0.67 5.32 0.34 6.64 0 8 C0 5.36 0 2.72 0 0 Z " fill="#E42E2C" transform="translate(43,41)"/>
<path d="M0 0 C3.3 0.33 6.6 0.66 10 1 C5.78370866 3.10814567 3.60209225 3.17700355 -1 3 C-0.67 2.01 -0.34 1.02 0 0 Z " fill="#D03E3C" transform="translate(109,203)"/>
<path d="M0 0 C1.65 0 3.3 0 5 0 C5.25 2.3125 5.25 2.3125 5 5 C3 6.8125 3 6.8125 1 8 C1.33 5.69 1.66 3.38 2 1 C1.34 0.67 0.68 0.34 0 0 Z " fill="#E15A59" transform="translate(162,122)"/>
<path d="M0 0 C-3.31371 2.20914 -4.3446021 2.22481553 -8.1875 2.125 C-9.08855469 2.10695313 -9.98960938 2.08890625 -10.91796875 2.0703125 C-11.60503906 2.04710938 -12.29210938 2.02390625 -13 2 C-8.53448096 -0.31790713 -4.94391187 -1.64797062 0 0 Z " fill="#900D18" transform="translate(55,87)"/>
<path d="M0 0 C2.97 0.495 2.97 0.495 6 1 C5.01 1.495 5.01 1.495 4 2 C4 2.99 4 3.98 4 5 C2.68 5 1.36 5 0 5 C0 3.35 0 1.7 0 0 Z " fill="#DB3F3C" transform="translate(144,193)"/>
<path d="M0 0 C1.65 0 3.3 0 5 0 C3.35 1.65 1.7 3.3 0 5 C-0.66 4.67 -1.32 4.34 -2 4 C-1.34 2.68 -0.68 1.36 0 0 Z " fill="#DC6362" transform="translate(163,189)"/>
<path d="M0 0 C0 0.33 0 0.66 0 1 C-4.8333472 1.08333357 -9.23692563 0.95261487 -14 0 C-14 -0.33 -14 -0.66 -14 -1 C-8.58264203 -1.93402724 -5.19548425 -2.20808081 0 0 Z " fill="#B16C75" transform="translate(68,93)"/>
<path d="M0 0 C-0.33 0.99 -0.66 1.98 -1 3 C-3.97 3 -6.94 3 -10 3 C-6.41600853 0.61067235 -4.26804999 0 0 0 Z " fill="#DF7B7D" transform="translate(155,20)"/>
<path d="M0 0 C0.99 0.66 1.98 1.32 3 2 C2.01 2.495 2.01 2.495 1 3 C0.34786708 5.02463255 0.34786708 5.02463255 0 7 C-0.99 6.67 -1.98 6.34 -3 6 C-2.42655063 3.13275314 -2.1385485 2.1385485 0 0 Z " fill="#DF2F2A" transform="translate(164,56)"/>
</svg>
