<?xml version="1.0" encoding="UTF-8"?>
<svg version="1.1" xmlns="http://www.w3.org/2000/svg" width="340" height="334">
<path d="M0 0 C112.2 0 224.4 0 340 0 C340 110.22 340 220.44 340 334 C227.8 334 115.6 334 0 334 C0 223.78 0 113.56 0 0 Z " fill="#017ACC" transform="translate(0,0)"/>
<path d="M0 0 C1.41345703 -0.01160156 1.41345703 -0.01160156 2.85546875 -0.0234375 C15.72929058 0.01217473 27.88797313 3.56811291 37.5234375 12.5390625 C46.125 21.72804878 46.125 21.72804878 46.125 26.25 C42.64841106 29.21969 38.7081665 31.57804023 34.875 34.0625 C33.81152344 34.78115234 32.74804688 35.49980469 31.65234375 36.24023438 C30.62753906 36.90990234 29.60273438 37.57957031 28.546875 38.26953125 C27.60424805 38.88932861 26.66162109 39.50912598 25.69042969 40.14770508 C23.125 41.25 23.125 41.25 20.84863281 40.5925293 C18.57115091 38.81860961 18.18419318 36.89798296 17.125 34.25 C15.4107711 33.01603959 15.4107711 33.01603959 13.125 32.25 C12.09375 31.71375 11.0625 31.1775 10 30.625 C4.2992152 28.22208856 -1.56429584 28.40974394 -7.3125 30.5 C-9.93467464 32.29075341 -11.22590151 33.56432532 -12.875 36.25 C-13.38485078 38.85737623 -13.38485078 38.85737623 -13.3125 41.625 C-13.33183594 42.54023438 -13.35117188 43.45546875 -13.37109375 44.3984375 C-12.7046163 48.22937087 -11.36118151 50.26577236 -8.875 53.25 C-6.57343873 54.70561353 -4.51665155 55.83070761 -2.0625 56.9375 C-1.38034424 57.26363281 -0.69818848 57.58976562 0.00463867 57.92578125 C2.36981514 59.05242833 4.74591044 60.15304632 7.125 61.25 C33.07248415 73.23992992 33.07248415 73.23992992 41.125 80.25 C41.78113281 80.78625 42.43726563 81.3225 43.11328125 81.875 C51.47579486 89.32426266 55.56164059 100.32199661 56.33984375 111.2734375 C56.7551781 125.26189841 53.34868571 135.80961448 43.75 146 C32.06663637 157.04562544 18.14823234 159.44097156 2.625 159.5625 C1.42101562 159.59150391 0.21703125 159.62050781 -1.0234375 159.65039062 C-17.25499005 159.76383696 -34.1015779 153.73998787 -45.875 142.25 C-54.05161908 132.58545874 -54.05161908 132.58545874 -54.875 126.25 C-51.72615529 124.30541565 -48.5749499 122.36492843 -45.41796875 120.43359375 C-43.23540214 119.09604349 -41.07748805 117.73557838 -38.92578125 116.34765625 C-38.06339844 115.79980469 -37.20101562 115.25195312 -36.3125 114.6875 C-35.16587891 113.94306641 -35.16587891 113.94306641 -33.99609375 113.18359375 C-31.875 112.25 -31.875 112.25 -29.8046875 112.33203125 C-27.20592028 113.56828691 -26.19637509 115.14472421 -24.5625 117.5 C-18.98271565 124.94759352 -13.06739179 128.51887804 -3.875 130.25 C4.59430505 131.12201589 12.03850797 130.05946327 19.125 125.1875 C22.33732646 122.07555874 22.35848191 119.87617488 22.5 115.5 C22.57347656 113.96085937 22.57347656 113.96085937 22.6484375 112.390625 C21.96415099 108.28490596 20.16624631 105.93931169 17.125 103.25 C14.71226084 101.57312528 12.19022675 100.24569555 9.5625 98.9375 C8.83087646 98.55996582 8.09925293 98.18243164 7.34545898 97.79345703 C1.55512541 94.85049914 -4.36468508 92.23030577 -10.3125 89.625 C-17.4364292 86.50380911 -23.7806863 83.14884065 -29.875 78.25 C-30.7825 77.63125 -31.69 77.0125 -32.625 76.375 C-39.46231846 69.91753256 -45.2624827 59.6255532 -46.05200195 50.11865234 C-46.43447207 35.87125972 -45.79253983 25.2694887 -35.875 14.25 C-25.86085457 3.89053922 -14.20100099 -0.11561195 0 0 Z " fill="#FAFDFD" transform="translate(259.875,153.75)"/>
<path d="M0 0 C40.26 0 80.52 0 122 0 C122 9.24 122 18.48 122 28 C107.15 28 92.3 28 77 28 C77 70.24 77 112.48 77 156 C66.44 156 55.88 156 45 156 C45 113.76 45 71.52 45 28 C30.15 28 15.3 28 0 28 C0 18.76 0 9.52 0 0 Z " fill="#FDFEFE" transform="translate(74,156)"/>
<path d="M0 0 C0.33 0 0.66 0 1 0 C1 9.24 1 18.48 1 28 C-13.85 28 -28.7 28 -44 28 C-44 70.24 -44 112.48 -44 156 C-54.56 156 -65.12 156 -76 156 C-76 137.19 -76 118.38 -76 99 C-75.67 99 -75.34 99 -75 99 C-75 117.48 -75 135.96 -75 155 C-65.1 155 -55.2 155 -45 155 C-45.33 112.76 -45.66 70.52 -46 27 C-43.17382044 26.05794015 -41.61949582 25.90153823 -38.7121582 25.97827148 C-37.42115959 26.00841591 -37.42115959 26.00841591 -36.1040802 26.03916931 C-34.71644722 26.07972191 -34.71644722 26.07972191 -33.30078125 26.12109375 C-32.35059616 26.14470474 -31.40041107 26.16831573 -30.4214325 26.19264221 C-27.38496854 26.26924835 -24.34876157 26.35328603 -21.3125 26.4375 C-19.25456989 26.49072373 -17.19662722 26.54346411 -15.13867188 26.59570312 C-10.09223777 26.72395054 -5.04621934 26.86224097 0 27 C0 18.09 0 9.18 0 0 Z " fill="#DCF7FC" transform="translate(195,156)"/>
<path d="M0 0 C1.81325551 0.11351517 3.62563357 0.24112961 5.4375 0.375 C6.95150391 0.47941406 6.95150391 0.47941406 8.49609375 0.5859375 C9.32238281 0.72257813 10.14867187 0.85921875 11 1 C11.33 1.66 11.66 2.32 12 3 C11.01 3.33 10.02 3.66 9 4 C9.53625 3.855625 10.0725 3.71125 10.625 3.5625 C13.39915827 2.90546252 16.18525388 2.44780052 19 2 C18.01 3.485 18.01 3.485 17 5 C17.33 5.66 17.66 6.32 18 7 C8.43 6.34 -1.14 5.68 -11 5 C-11 4.67 -11 4.34 -11 4 C-5.555 3.505 -5.555 3.505 0 3 C0 2.01 0 1.02 0 0 Z " fill="#1680C7" transform="translate(264,149)"/>
<path d="M0 0 C2.02434654 0.51952256 4.02413655 1.13238987 6.01953125 1.75390625 C2.79437362 3.49052959 -0.49376041 4.64449905 -3.98046875 5.75390625 C-4.31046875 4.76390625 -4.64046875 3.77390625 -4.98046875 2.75390625 C-3.57594973 0.47156284 -2.72095665 -0.33810704 0 0 Z " fill="#117EC9" transform="translate(242.98046875,152.24609375)"/>
<path d="M0 0 C0.33 0.66 0.66 1.32 1 2 C1.99 2.66 2.98 3.32 4 4 C-1.2734375 7.22265625 -1.2734375 7.22265625 -3 8 C-3.66 7.67 -4.32 7.34 -5 7 C-3.70700306 4.11562221 -2.34058637 2.12780579 0 0 Z " fill="#107DCA" transform="translate(224,263)"/>
<path d="M0 0 C0.66 0 1.32 0 2 0 C2.25 5.625 2.25 5.625 0 9 C0.99 9.33 1.98 9.66 3 10 C2.34 10.66 1.68 11.32 1 12 C-3 6.25 -3 6.25 -3 4 C-2.34 3.67 -1.68 3.34 -1 3 C-0.67 2.01 -0.34 1.02 0 0 Z " fill="#127CC7" transform="translate(249,195)"/>
<path d="M0 0 C4.50802601 1.25805377 7.4912812 2.90407165 11 6 C7.7 5.67 4.4 5.34 1 5 C1.33 4.34 1.66 3.68 2 3 C1.34 2.67 0.68 2.34 0 2 C0 1.34 0 0.68 0 0 Z " fill="#137CC3" transform="translate(266,251)"/>
<path d="M0 0 C0.66 0 1.32 0 2 0 C2.33 2.97 2.66 5.94 3 9 C2.01 9.66 1.02 10.32 0 11 C0 7.37 0 3.74 0 0 Z " fill="#C6E2F0" transform="translate(283,264)"/>
<path d="M0 0 C4.95 1.98 4.95 1.98 10 4 C10 4.33 10 4.66 10 5 C7.69 5 5.38 5 3 5 C3 4.34 3 3.68 3 3 C2.01 2.67 1.02 2.34 0 2 C0 1.34 0 0.68 0 0 Z " fill="#2084CB" transform="translate(250,243)"/>
</svg>
