<?xml version="1.0" encoding="UTF-8"?>
<svg version="1.1" xmlns="http://www.w3.org/2000/svg" width="299" height="300">
<path d="M0 0 C3.71004166 0.71366905 5.78087149 3.2818635 8.29263306 5.91802979 C9.11437263 6.75038147 9.11437263 6.75038147 9.95271301 7.59954834 C11.69660683 9.37138993 13.42230135 11.15982768 15.14810181 12.94927979 C16.32858305 14.15484322 17.51021124 15.35928471 18.69302368 16.56256104 C21.58734396 19.51195569 24.46546416 22.47635484 27.33560181 25.44927979 C26.19064398 28.46332652 25.00547987 31.19375712 23.22622681 33.88287354 C22.59889648 34.84036499 22.59889648 34.84036499 21.95889282 35.81719971 C21.50570679 36.50016113 21.05252075 37.18312256 20.58560181 37.88677979 C19.59900525 39.39138561 18.61337876 40.89662783 17.62857056 42.40240479 C17.10053833 43.20871338 16.5725061 44.01502197 16.0284729 44.84576416 C12.33938091 50.51932588 8.73116555 56.24492922 5.10806274 61.96075439 C4.00341108 63.70103919 2.89339435 65.43793487 1.77700806 67.17071533 C0.90271039 68.55279869 0.0536574 69.95190676 -0.74642944 71.37823486 C-2.43696952 74.29956846 -3.3557742 75.34572293 -6.60971069 76.43756104 C-7.65900757 76.54455322 -8.70830444 76.65154541 -9.78939819 76.76177979 C-13.87120165 77.11821136 -13.87120165 77.11821136 -17.66439819 78.44927979 C-22.88066686 78.82052207 -26.2035981 78.10065829 -30.85189819 75.76177979 C-36.14691086 73.17513567 -41.47414215 70.83926804 -46.93392944 68.62506104 C-49.43977929 67.54600409 -51.77881288 66.3302456 -54.16439819 65.01177979 C-57.40541784 63.07519356 -57.40541784 63.07519356 -59.75814819 64.22662354 C-61.79430496 65.43689172 -61.79430496 65.43689172 -63.66439819 67.44927979 C-57.97378386 70.11637117 -52.24297119 72.64588976 -46.41610718 74.99908447 C-43.50799848 76.17828412 -40.6136379 77.3894085 -37.71957397 78.6026001 C-35.80560454 79.39110639 -33.87416026 80.13682132 -31.94174194 80.87896729 C-28.8457416 82.1852654 -26.26768029 83.32278928 -23.66439819 85.44927979 C-22.69029834 88.1991723 -22.52272034 90.27487031 -22.65658569 93.17974854 C-22.87628625 95.73547222 -22.87628625 95.73547222 -20.66439819 98.44927979 C-20.99865592 102.18599317 -22.23904877 104.78925011 -24.21908569 107.93365479 C-24.74607056 108.77799072 -25.27305542 109.62232666 -25.81600952 110.49224854 C-26.38472778 111.38556885 -26.95344604 112.27888916 -27.53939819 113.19927979 C-28.12294067 114.12869385 -28.70648315 115.05810791 -29.30770874 116.01568604 C-33.42597635 122.55570749 -37.58270377 129.07473043 -41.84725952 135.52056885 C-43.96717717 138.73753125 -45.97348564 141.94771969 -47.77377319 145.35552979 C-52.20061706 153.62458127 -52.20061706 153.62458127 -56.09799194 155.82037354 C-59.09579151 156.48198836 -60.75940958 156.45019734 -63.66439819 155.44927979 C-67.10642406 152.63959579 -69.27931786 149.16599197 -71.66439819 145.44927979 C-72.41532478 144.33398653 -73.16933735 143.22076606 -73.92611694 142.10943604 C-75.59577316 139.64293716 -77.24220687 137.16276015 -78.87533569 134.67193604 C-82.01810219 129.89150249 -85.2442344 125.1692165 -88.47689819 120.44927979 C-89.01596802 119.6604541 -89.55503784 118.87162842 -90.11044312 118.05889893 C-93.24395789 113.48430769 -96.42621966 108.95040781 -99.66439819 104.44927979 C-100.98439819 105.43927979 -102.30439819 106.42927979 -103.66439819 107.44927979 C-102.18429959 111.77695938 -99.8647864 115.18660087 -97.16439819 118.82427979 C-93.10281098 124.39564068 -89.22387738 130.0568975 -85.43612671 135.81719971 C-82.04198135 140.95097021 -78.47939827 145.95014551 -74.79916382 150.88287354 C-70.62357909 156.58611121 -70.62357909 156.58611121 -70.66439819 159.44927979 C-72.60189819 162.19927979 -72.60189819 162.19927979 -74.66439819 164.44927979 C-91.02247761 161.41479865 -107.31746728 158.1039954 -123.60189819 154.69927979 C-124.57148468 154.49714874 -125.54107117 154.2950177 -126.54003906 154.08676147 C-129.32022842 153.50662296 -132.09983752 152.92379098 -134.87924194 152.33990479 C-135.72193634 152.16404343 -136.56463074 151.98818207 -137.43286133 151.80699158 C-140.5713382 151.14452992 -143.61853047 150.46456903 -146.66439819 149.44927979 C-143.20647703 154.76751506 -140.60919616 156.85627699 -134.41537476 158.42144775 C-131.88008275 158.95698724 -129.35027899 159.46151243 -126.80502319 159.94146729 C-125.4502445 160.21804218 -124.09598015 160.49714743 -122.74221802 160.77865601 C-119.19658846 161.50932322 -115.64531976 162.20731602 -112.09170532 162.89794922 C-108.46767054 163.60755825 -104.84938549 164.34525964 -101.23080444 165.08209229 C-97.1683026 165.90931255 -93.10560467 166.7341641 -89.0375061 167.53347778 C-87.83575745 167.77107819 -86.63400879 168.00867859 -85.39584351 168.253479 C-84.33472351 168.46108856 -83.27360352 168.66869812 -82.18032837 168.88259888 C-79.66439819 169.44927979 -79.66439819 169.44927979 -77.66439819 170.44927979 C-78.66439819 173.44927979 -78.66439819 173.44927979 -80.66830444 174.47662354 C-81.51264038 174.7769751 -82.35697632 175.07732666 -83.22689819 175.38677979 C-86.43058094 176.58306302 -89.5077497 177.80394015 -92.53939819 179.38677979 C-97.76304636 182.08458985 -103.22237322 184.23618963 -108.66439819 186.44927979 C-108.66439819 187.10927979 -108.66439819 187.76927979 -108.66439819 188.44927979 C-107.67439819 189.43927979 -107.67439819 189.43927979 -106.66439819 190.44927979 C-101.60992483 190.12776743 -97.44386947 188.21800542 -92.91439819 186.13677979 C-91.49937619 185.50580262 -90.08401159 184.8755932 -88.66830444 184.24615479 C-86.27931955 183.17536656 -83.89169357 182.10161046 -81.50424194 181.02740479 C-80.62896851 180.65099854 -79.75369507 180.27459229 -78.85189819 179.88677979 C-78.10295288 179.55549072 -77.35400757 179.22420166 -76.58236694 178.88287354 C-75.94943726 178.7397876 -75.31650757 178.59670166 -74.66439819 178.44927979 C-73.17939819 179.43927979 -73.17939819 179.43927979 -71.66439819 180.44927979 C-72.28676172 183.92348633 -73.63874487 186.06610798 -75.72689819 188.88677979 C-78.64670619 192.98059392 -81.50151568 197.09907046 -84.22689819 201.32427979 C-84.92943726 202.39420166 -85.63197632 203.46412354 -86.35580444 204.56646729 C-87.97498044 207.30788055 -87.97498044 207.30788055 -87.00424194 209.76959229 C-85.75229756 211.58047458 -85.75229756 211.58047458 -83.66439819 212.44927979 C-83.02373413 211.41029541 -82.38307007 210.37131104 -81.72299194 209.30084229 C-79.93760616 206.41016814 -78.12590419 203.53786931 -76.30111694 200.67193604 C-74.73738403 198.2075547 -73.30685084 195.77696162 -71.93392944 193.19537354 C-69.51554418 188.92434352 -68.10169003 186.85687001 -63.26205444 185.48443604 C-53.94904215 184.4752861 -53.94904215 184.4752861 -50.51596069 187.07818604 C-48.30861015 189.90489865 -46.22695884 192.7868666 -44.22689819 195.76177979 C-43.55255737 196.75298828 -43.55255737 196.75298828 -42.86459351 197.76422119 C-41.12632197 200.32263173 -39.39556656 202.88605714 -37.66439819 205.44927979 C-35.48818163 208.66497063 -33.31053882 211.87969575 -31.13291931 215.09443665 C-28.81677058 218.51395978 -26.50184181 221.93429153 -24.19003296 225.35675049 C-19.96938286 231.60134004 -15.72360131 237.82276226 -11.38510132 243.98638916 C-7.96869181 248.87639187 -4.63630749 253.82408114 -1.28939819 258.76177979 C4.5420221 267.35492624 10.39267774 275.93278177 16.33560181 284.44927979 C14.59702964 288.21618614 12.43301806 290.66160516 9.33560181 293.44927979 C8.67560181 293.44927979 8.01560181 293.44927979 7.33560181 293.44927979 C7.06747681 294.04740479 6.79935181 294.64552979 6.52310181 295.26177979 C5.29448928 297.52501339 4.44528834 298.96468556 2.33560181 300.44927979 C-1.65202211 300.07646095 -3.61217362 298.99880029 -6.4032135 296.18475342 C-7.10557129 295.48644913 -7.80792908 294.78814484 -8.53157043 294.06867981 C-9.28656326 293.29773483 -10.04155609 292.52678986 -10.81942749 291.73248291 C-12.03002335 290.52035378 -12.03002335 290.52035378 -13.26507568 289.28373718 C-15.93236994 286.60855382 -18.58532745 283.91959777 -21.23861694 281.23052979 C-23.08661436 279.37253308 -24.93557051 277.51548948 -26.78544617 275.65936279 C-31.15754292 271.26967978 -35.51976625 266.87032667 -39.87816507 262.46704721 C-46.28028317 255.99971055 -52.69514214 249.54503008 -59.11241627 243.09273529 C-59.58267394 242.6199082 -60.05293162 242.14708112 -60.53743953 241.65992594 C-61.93769773 240.25205381 -63.33796371 238.84418941 -64.73822975 237.43632507 C-67.46568883 234.69110719 -70.18892034 231.94175226 -72.91139221 229.19158936 C-74.57339739 227.51637059 -76.2354483 225.84119719 -77.89755249 224.16607666 C-78.65861801 223.39513168 -79.41968353 222.62418671 -80.20381165 221.82987976 C-80.89770996 221.13157547 -81.59160828 220.43327118 -82.30653381 219.71380615 C-82.91026668 219.10395622 -83.51399954 218.49410629 -84.13602734 217.86577606 C-85.62709515 216.35127063 -85.62709515 216.35127063 -87.66439819 215.44927979 C-87.66439819 214.78927979 -87.66439819 214.12927979 -87.66439819 213.44927979 C-88.65439819 213.11927979 -89.64439819 212.78927979 -90.66439819 212.44927979 C-92.06468201 211.02281189 -92.06468201 211.02281189 -93.59823608 209.13555908 C-98.10850645 203.82467429 -103.06499794 198.99890593 -108.03469658 194.12607765 C-110.35144256 191.85191055 -112.65844102 189.56795647 -114.96616459 187.28464031 C-119.24681536 183.04952145 -123.53145997 178.8186252 -127.8321228 174.6038208 C-130.84004625 171.65520846 -133.83568022 168.69459456 -136.82350349 165.72562218 C-137.96052159 164.60034447 -139.10206052 163.47961564 -140.24816704 162.36359596 C-141.84448825 160.80819609 -143.42467499 159.23797413 -145.00204468 157.66339111 C-145.90470566 156.7748494 -146.80736664 155.88630768 -147.73738098 154.97084045 C-149.99022062 152.02293123 -150.12526858 151.05958864 -149.66439819 147.44927979 C-148.28003883 145.44409466 -148.28003883 145.44409466 -146.29907227 143.46922302 C-145.55310287 142.71348999 -144.80713348 141.95775696 -144.03855896 141.17912292 C-143.20948532 140.36488358 -142.38041168 139.55064423 -141.5262146 138.71173096 C-140.66135941 137.84293304 -139.79650421 136.97413513 -138.90544128 136.07901001 C-136.53214276 133.70014662 -134.14822293 131.3329903 -131.7585721 128.97062087 C-129.26207272 126.49793736 -126.7789528 124.01188649 -124.29412842 121.52748108 C-120.12091787 117.35889876 -115.93831227 113.19993974 -111.74935913 109.04718018 C-106.90152316 104.24111878 -102.06590587 99.42304412 -97.23726332 94.59770411 C-92.10123317 89.4652688 -86.95760503 84.34050572 -81.81105757 79.21861863 C-80.32585687 77.73965564 -78.84196259 76.25939188 -77.35829544 74.77889061 C-74.59877825 72.02635087 -71.83064259 69.28258331 -69.06137085 66.53985596 C-68.23634567 65.71549545 -67.4113205 64.89113495 -66.56129456 64.04179382 C-65.80968552 63.30015991 -65.05807648 62.558526 -64.28369141 61.79441833 C-63.30198188 60.81968457 -63.30198188 60.81968457 -62.30043983 59.82525921 C-60.66439819 58.44927979 -60.66439819 58.44927979 -58.66439819 58.44927979 C-58.32732597 57.62668671 -58.32732597 57.62668671 -57.98344421 56.78747559 C-56.27442624 53.75799928 -53.99736732 51.47915983 -51.55966187 49.03814697 C-51.04070847 48.51087006 -50.52175507 47.98359314 -49.98707581 47.44033813 C-48.27426495 45.70348018 -46.55393351 43.97433188 -44.83236694 42.24615479 C-43.6364338 41.04125422 -42.44057817 39.83627672 -41.24479675 38.63122559 C-38.73921106 36.1091638 -36.22927659 33.59151729 -33.71688843 31.07623291 C-30.49690175 27.85085126 -27.29339567 24.60961238 -24.0936079 21.36420822 C-21.63050047 18.87138352 -19.15624058 16.38986272 -16.67873573 13.91135406 C-15.49249374 12.7209024 -14.31037883 11.52632351 -13.13249779 10.32759857 C-11.48567904 8.65396574 -9.8238373 6.99681935 -8.15731812 5.34283447 C-7.6734967 4.84417877 -7.18967529 4.34552307 -6.69119263 3.83175659 C-4.49238535 1.67978796 -3.07068996 0.51779007 0 0 Z " fill="#26C7B6" transform="translate(149.66439819335938,-0.44927978515625)"/>
<path d="M0 0 C0.89589844 0.44859375 1.79179687 0.8971875 2.71484375 1.359375 C4.05648214 1.88842091 5.4034179 2.40412822 6.75390625 2.91015625 C14.10935378 5.73109427 21.40927103 8.5721146 28.546875 11.9140625 C33.06835458 13.97688302 37.64279663 15.91172741 42.21484375 17.859375 C48.67865361 20.61407074 55.1123795 23.40780728 61.48046875 26.37890625 C63.71552335 27.35967322 65.96415084 28.14670929 68.27734375 28.921875 C71.99518642 30.47660921 72.28102088 30.87111936 73.71484375 34.359375 C73.22730118 34.77341583 72.73975861 35.18745667 72.23744202 35.61404419 C67.2227042 39.92910441 62.55248725 44.46780284 57.9609375 49.2265625 C56.51572843 50.70386346 55.06974202 52.1804043 53.62304688 53.65625 C51.3753228 55.95351816 49.13260279 58.25486361 46.90258789 60.56933594 C44.72747942 62.82317168 42.53371615 65.05735669 40.3359375 67.2890625 C39.67532822 67.98377655 39.01471893 68.6784906 38.33409119 69.39425659 C35.2628638 72.48330551 33.38430162 74.17096061 29.12182617 75.37060547 C25.73882411 75.35945405 22.87194832 75.02231052 19.58203125 74.25 C17.87660156 73.85941406 17.87660156 73.85941406 16.13671875 73.4609375 C14.96625 73.17992187 13.79578125 72.89890625 12.58984375 72.609375 C11.44257813 72.34382813 10.2953125 72.07828125 9.11328125 71.8046875 C6.80372865 71.26891291 4.49631239 70.72384302 2.19116211 70.16943359 C-0.16941808 69.61936652 -2.53925858 69.10789674 -4.91577148 68.63134766 C-6.07020752 68.39464355 -7.22464355 68.15793945 -8.4140625 67.9140625 C-9.45119385 67.71280762 -10.4883252 67.51155273 -11.55688477 67.30419922 C-15.51253783 65.93432205 -17.26253943 63.57154152 -19.4296875 60.1015625 C-21.46542692 53.57604161 -20.19256845 46.46613812 -19.04296875 39.8515625 C-18.91453583 39.08184113 -18.78610291 38.31211975 -18.65377808 37.51907349 C-18.38318437 35.90682094 -18.10906864 34.29515581 -17.83154297 32.68408203 C-17.410227 30.23478629 -17.00113237 27.78367896 -16.59375 25.33203125 C-16.32753922 23.75508724 -16.0606357 22.17825999 -15.79296875 20.6015625 C-15.61158859 19.51692215 -15.61158859 19.51692215 -15.42654419 18.41036987 C-13.33114043 6.3387124 -13.33114043 6.3387124 -10.078125 3.29296875 C-9.21832031 2.79925781 -8.35851562 2.30554688 -7.47265625 1.796875 C-6.19455078 1.02150391 -6.19455078 1.02150391 -4.890625 0.23046875 C-2.28515625 -0.640625 -2.28515625 -0.640625 0 0 Z " fill="#26C7B7" transform="translate(219.28515625,124.640625)"/>
<path d="M0 0 C7.14992001 0.60440068 14.13469878 2.16636245 21.15234375 3.6171875 C23.03440269 4.00392136 23.03440269 4.00392136 24.95448303 4.39846802 C27.59991092 4.94266922 30.24481348 5.48934383 32.8894043 6.03759766 C36.25457971 6.7348707 39.62131277 7.42427569 42.98853207 8.11160088 C46.23167502 8.77511624 49.47314811 9.44663709 52.71484375 10.1171875 C53.91197495 10.36105194 55.10910614 10.60491638 56.34251404 10.85617065 C73.30561396 14.39610603 73.30561396 14.39610603 77.12109375 18.0078125 C77.77271484 19.05582031 77.77271484 19.05582031 78.4375 20.125 C80.2228904 23.10364707 80.2228904 23.10364707 83 25 C82.45191689 33.7928022 81.44609908 42.40116553 80.00390625 51.08984375 C79.81030014 52.27800186 79.61669403 53.46615997 79.41722107 54.69032288 C79.01056305 57.1772076 78.60119628 59.6636508 78.18920898 62.1496582 C77.5603097 65.95073822 76.94268673 69.75353448 76.32617188 73.55664062 C75.92775215 75.98448485 75.52868646 78.41222318 75.12890625 80.83984375 C74.85379967 82.53680641 74.85379967 82.53680641 74.57313538 84.26805115 C72.45537007 96.94925126 72.45537007 96.94925126 69.625 100.9375 C68 102 68 102 66.08569336 101.81787109 C63.3349188 100.73919911 62.59002833 99.45221508 61.00390625 96.9765625 C60.45210693 96.13013184 59.90030762 95.28370117 59.33178711 94.41162109 C58.74792236 93.49203613 58.16405762 92.57245117 57.5625 91.625 C56.30579524 89.69198771 55.04795901 87.75971061 53.7890625 85.828125 C53.15516602 84.84908203 52.52126953 83.87003906 51.86816406 82.86132812 C49.12179843 78.65492389 46.28645884 74.51232763 43.4375 70.375 C42.3658376 68.81383491 41.29422306 67.25263696 40.22265625 65.69140625 C39.6930127 64.92070801 39.16336914 64.15000977 38.61767578 63.35595703 C36.41590923 60.14933958 34.22080486 56.93818607 32.02563477 53.72705078 C27.09006854 46.5072978 22.14499962 39.29418593 17.18554688 32.09082031 C14.60294887 28.33792351 12.02861765 24.57952867 9.4609375 20.81640625 C8.86474609 19.94306641 8.26855469 19.06972656 7.65429688 18.16992188 C6.48540896 16.45700709 5.31741222 14.74348375 4.15039062 13.02929688 C3.62380859 12.25779297 3.09722656 11.48628906 2.5546875 10.69140625 C1.85061768 9.65802124 1.85061768 9.65802124 1.13232422 8.60375977 C0.09542057 7.03882027 0.09542057 7.03882027 -1 6 C-1.125 3.5 -1.125 3.5 -1 1 C-0.67 0.67 -0.34 0.34 0 0 Z " fill="#26C7B6" transform="translate(105,177)"/>
<path d="M0 0 C-0.73550934 9.43881158 -1.81659456 18.8377362 -3.08959961 28.21777344 C-3.32265529 29.99782821 -3.53832877 31.78024024 -3.73706055 33.56445312 C-5.41746426 48.51717487 -5.41746426 48.51717487 -9.34814453 52.20019531 C-12.03515625 53.5078125 -12.03515625 53.5078125 -14.64477539 54.28564453 C-17.07567948 54.80705126 -17.07567948 54.80705126 -18.51391602 56.63012695 C-20 58 -20 58 -22.17529297 57.97680664 C-23.02236816 57.78981201 -23.86944336 57.60281738 -24.7421875 57.41015625 C-25.71172363 57.20567871 -26.68125977 57.00120117 -27.68017578 56.79052734 C-28.73446777 56.55027832 -29.78875977 56.3100293 -30.875 56.0625 C-32.52024658 55.70986084 -32.52024658 55.70986084 -34.19873047 55.35009766 C-36.56292051 54.84322435 -38.92567367 54.32961272 -41.28710938 53.81005859 C-46.30572614 52.71512366 -51.33608856 51.68087803 -56.36767578 50.64746094 C-60.06174119 49.88800525 -63.75354109 49.11817388 -67.4453125 48.34765625 C-71.28860662 47.54993971 -75.13270646 46.77387994 -78.9921875 46.05859375 C-79.68940918 45.92791504 -80.38663086 45.79723633 -81.10498047 45.66259766 C-82.81844722 45.34604119 -84.53411369 45.04144866 -86.25 44.73828125 C-89.23724249 43.93630848 -91.43712111 42.71015631 -94 41 C-93.76660156 38.64575195 -93.76660156 38.64575195 -93 36 C-91.17871094 34.67651367 -91.17871094 34.67651367 -88.734375 33.66796875 C-87.79924072 33.269729 -86.86410645 32.87148926 -85.90063477 32.46118164 C-84.86092529 32.0408667 -83.82121582 31.62055176 -82.75 31.1875 C-80.48289542 30.23219195 -78.21598067 29.27643334 -75.94921875 28.3203125 C-74.68156434 27.79308631 -73.41381996 27.26607639 -72.14599609 26.73925781 C-67.56351399 24.82662501 -63.00983399 22.84923075 -58.45703125 20.8671875 C-57.23126877 20.33394615 -57.23126877 20.33394615 -55.98074341 19.78993225 C-54.32725199 19.07054423 -52.67379938 18.351067 -51.02038574 17.63150024 C-31.58695534 9.17938162 -31.58695534 9.17938162 -22.97485352 5.78979492 C-20.33894891 4.7356286 -17.76156907 3.57134395 -15.1875 2.375 C-13.46225902 1.57481438 -11.7332231 0.78274591 -10 0 C-9.17113281 -0.42023438 -8.34226562 -0.84046875 -7.48828125 -1.2734375 C-4.29284663 -2.20648434 -2.96762923 -1.32327277 0 0 Z " fill="#27C7B6" transform="translate(200,128)"/>
<path d="M0 0 C5.80728813 4.88562583 11.48364446 9.90711093 16.98242188 15.13793945 C17.99559481 16.08901154 19.02186548 17.02631693 20.06054688 17.94946289 C28.59207573 25.55441176 28.59207573 25.55441176 29.50878906 31.05029297 C29.28019218 34.46397128 28.69957658 37.65152535 28 41 C27.74106777 42.95002162 27.48256852 44.90015908 27.2421875 46.85255432 C26.89708758 49.55973823 26.48208187 52.25410462 26.06298828 54.95068359 C25.8523504 56.3298524 25.65101495 57.71047062 25.45849609 59.09228516 C25.17468913 61.12758655 24.86394471 63.15714687 24.546875 65.1875 C24.36995117 66.37730469 24.19302734 67.56710938 24.01074219 68.79296875 C22.78522139 72.6814811 21.11964687 74.4274398 18 77 C13.54953422 77.9277844 10.32818485 75.96344436 6.375 74 C-0.40796495 70.68935876 -7.29326459 67.73231042 -14.30126953 64.9296875 C-27.34099641 59.58804559 -27.34099641 59.58804559 -30.5625 54.5625 C-31.70109606 47.89358024 -28.78484761 43.57210862 -25.1875 38.3125 C-24.18492501 36.80813921 -23.18367242 35.30289646 -22.18359375 33.796875 C-21.6613623 33.01505859 -21.13913086 32.23324219 -20.60107422 31.42773438 C-17.91251978 27.3510364 -15.33806675 23.20340679 -12.75 19.0625 C-8.6760242 12.57342063 -4.51960826 6.19059019 0 0 Z " fill="#26C7B6" transform="translate(182,31)"/>
<path d="M0 0 C9.71104885 2.24553309 18.78082646 6.83515194 27.74609375 11.09765625 C31.87619207 13.05377465 36.04174439 14.91064721 40.2265625 16.74609375 C40.2265625 18.39609375 40.2265625 20.04609375 40.2265625 21.74609375 C32.1363238 25.8836143 24.07938164 29.94500534 15.6484375 33.3515625 C11.17062638 35.17642388 6.73121354 37.08636506 2.2890625 38.99609375 C1.39493652 39.37983154 0.50081055 39.76356934 -0.42041016 40.15893555 C-3.2050069 41.35406371 -5.98926641 42.54997436 -8.7734375 43.74609375 C-12.46062295 45.33016091 -16.14808145 46.91358842 -19.8359375 48.49609375 C-20.71378906 48.8729834 -21.59164062 49.24987305 -22.49609375 49.63818359 C-28.13187982 52.05398002 -33.78580824 54.41858684 -39.45703125 56.75 C-41.43491627 57.60052391 -43.36158326 58.56852637 -45.2734375 59.55859375 C-47.7734375 60.74609375 -47.7734375 60.74609375 -51.7734375 60.74609375 C-50.11115515 56.00069554 -47.59326668 51.93538971 -44.9609375 47.68359375 C-44.24212402 46.51570313 -44.24212402 46.51570313 -43.50878906 45.32421875 C-19.42202176 6.40173543 -19.42202176 6.40173543 -14.78515625 5.25390625 C-14.01816406 5.12757812 -13.25117188 5.00125 -12.4609375 4.87109375 C-9.07944173 4.20667845 -7.84600945 3.80516394 -5.0859375 1.55859375 C-2.7734375 -0.25390625 -2.7734375 -0.25390625 0 0 Z " fill="#27C7B7" transform="translate(153.7734375,97.25390625)"/>
<path d="M0 0 C1.10279297 0.22171875 2.20558594 0.4434375 3.34179688 0.671875 C4.48583984 0.92195312 5.62988281 1.17203125 6.80859375 1.4296875 C7.92556641 1.6565625 9.04253906 1.8834375 10.19335938 2.1171875 C13.5532935 2.81059999 16.90023864 3.54637848 20.24609375 4.3046875 C21.38288574 4.56217773 22.51967773 4.81966797 23.69091797 5.08496094 C24.77002441 5.34051758 25.84913086 5.59607422 26.9609375 5.859375 C27.93023193 6.08866699 28.89952637 6.31795898 29.89819336 6.55419922 C32.24609375 7.3046875 32.24609375 7.3046875 34.24609375 9.3046875 C28.61237928 15.97552235 22.54471522 22.18589895 16.38671875 28.3671875 C15.87835228 28.87838135 15.36998581 29.3895752 14.84621429 29.91625977 C12.16756339 32.60977072 9.4861547 35.30049782 6.80224609 37.98876953 C4.03252351 40.76402685 1.27223772 43.54848157 -1.48608017 46.33506775 C-3.61542897 48.48298745 -5.75140485 50.62422094 -7.88928986 52.76364136 C-8.91087159 53.78825145 -9.92994962 54.81536415 -10.94646454 55.84500122 C-12.36056454 57.2760796 -13.78501953 58.69690368 -15.20996094 60.1171875 C-16.42072296 61.33341797 -16.42072296 61.33341797 -17.65594482 62.57421875 C-19.75390625 64.3046875 -19.75390625 64.3046875 -22.75390625 64.3046875 C-22.19560758 53.20933415 -20.58572034 42.28917295 -18.9074707 31.31762695 C-18.4379949 28.21967688 -17.99152551 25.11889728 -17.54492188 22.01757812 C-17.24490095 20.03884799 -16.94351814 18.06032376 -16.640625 16.08203125 C-16.51129074 15.15913803 -16.38195648 14.23624481 -16.248703 13.28538513 C-15.24239777 6.96043534 -15.24239777 6.96043534 -12.94848633 3.88110352 C-12.2242749 3.36088623 -11.50006348 2.84066895 -10.75390625 2.3046875 C-9.96508057 1.71284668 -9.17625488 1.12100586 -8.36352539 0.51123047 C-5.09548471 -0.99973005 -3.49845211 -0.73071287 0 0 Z " fill="#27C7B5" transform="translate(208.75390625,197.6953125)"/>
<path d="M0 0 C2.27168274 1.76374817 2.27168274 1.76374817 4.60668945 4.08911133 C5.48722488 4.95703812 6.36776031 5.8249649 7.27497864 6.7191925 C8.22159153 7.67296418 9.16768011 8.62725648 10.11328125 9.58203125 C11.09204195 10.55809633 12.07139569 11.53356706 13.05131531 12.50846863 C15.09945533 14.55071971 17.1402062 16.60000988 19.17602539 18.65454102 C21.78649951 21.28783449 24.41456234 23.90272166 27.04839802 26.51262379 C29.07250095 28.52227823 31.08698673 30.54135564 33.09868431 32.56342125 C34.06420473 33.53161001 35.03270542 34.49683611 36.0042057 35.45902443 C37.35923944 36.80390667 38.70012099 38.16300294 40.0402832 39.52270508 C41.19014458 40.67734001 41.19014458 40.67734001 42.36323547 41.8553009 C44 44 44 44 44 48 C38.1321667 46.11895795 32.41561172 44.02954148 26.73828125 41.63671875 C25.98516159 41.32225296 25.23204193 41.00778717 24.45610046 40.68379211 C22.07362716 39.68803899 19.69307108 38.68779089 17.3125 37.6875 C15.7377482 37.02901462 14.16287914 36.37080962 12.58789062 35.71289062 C4.41743842 32.29587321 -3.73503609 28.83962088 -11.87133789 25.34204102 C-16.36364109 23.41506554 -20.8681271 21.51759205 -25.375 19.625 C-26.21804687 19.27050781 -27.06109375 18.91601562 -27.9296875 18.55078125 C-29.9529453 17.70009331 -31.97644452 16.84997959 -34 16 C-33.42655063 13.13275314 -33.1385485 12.1385485 -31 10 C-29.64665856 9.38722093 -28.26621187 8.83361495 -26.875 8.3125 C-23.51397564 7.02696952 -20.22087126 5.66093011 -16.95703125 4.1484375 C-16.25271973 3.82576904 -15.5484082 3.50310059 -14.82275391 3.1706543 C-13.41780777 2.52376222 -12.01753069 1.86661496 -10.62255859 1.19848633 C-6.56933939 -0.6497298 -4.24320638 -1.38596456 0 0 Z " fill="#28C7B6" transform="translate(255,103)"/>
<path d="M0 0 C5.79415734 4.79765871 11.17092962 9.95268313 16.50024414 15.26000977 C17.95217334 16.70207364 19.41443428 18.13313988 20.87695312 19.56445312 C21.79283203 20.47517578 22.70871094 21.38589844 23.65234375 22.32421875 C24.90519165 23.5630481 24.90519165 23.5630481 26.18334961 24.8269043 C28 27 28 27 28 30 C1.79759772 42.52365399 1.79759772 42.52365399 -4 42 C-4.99 41.34 -5.98 40.68 -7 40 C-7.75869163 32.8541835 -6.16862816 25.72597268 -4.97363281 18.68896484 C-4.62258314 16.61069175 -4.28734207 14.53025748 -3.953125 12.44921875 C-3.73271236 11.12484296 -3.5113912 9.80061798 -3.2890625 8.4765625 C-2.99056396 6.683396 -2.99056396 6.683396 -2.68603516 4.85400391 C-2 2 -2 2 0 0 Z " fill="#28C7B6" transform="translate(218,67)"/>
<path d="M0 0 C0.33 0.66 0.66 1.32 1 2 C3.52733235 2.65555119 3.52733235 2.65555119 6 3 C6 3.66 6 4.32 6 5 C7.65 5 9.3 5 11 5 C11 5.99 11 6.98 11 8 C10.0925 7.690625 9.185 7.38125 8.25 7.0625 C7.1775 6.711875 6.105 6.36125 5 6 C4.29875 5.71125 3.5975 5.4225 2.875 5.125 C0.74355057 4.76271536 0.74355057 4.76271536 -1.25 6.9375 C-1.8275 7.618125 -2.405 8.29875 -3 9 C-2.01 9.99 -1.02 10.98 0 12 C-0.7425 12.144375 -1.485 12.28875 -2.25 12.4375 C-3.1575 12.623125 -4.065 12.80875 -5 13 C-5.721875 13.144375 -6.44375 13.28875 -7.1875 13.4375 C-9.22656623 13.91606861 -9.22656623 13.91606861 -11 16 C-11.99 16 -12.98 16 -14 16 C-14 16.66 -14 17.32 -14 18 C-14.99 17.67 -15.98 17.34 -17 17 C-11.39 11.39 -5.78 5.78 0 0 Z " fill="#37C4B1" transform="translate(89,58)"/>
<path d="M0 0 C0.33 0 0.66 0 1 0 C0.35890737 9.15412154 -1.06126063 18.14558858 -2.5625 27.1875 C-2.79918386 28.63080108 -3.03551436 30.07416016 -3.27148438 31.51757812 C-3.84359269 35.01239534 -4.42044888 38.50640836 -5 42 C-5.33 42 -5.66 42 -6 42 C-6.08733513 38.91684615 -6.14050127 35.83401173 -6.1875 32.75 C-6.21263672 31.87730469 -6.23777344 31.00460937 -6.26367188 30.10546875 C-6.33834499 23.58401668 -6.33834499 23.58401668 -4.48828125 20.390625 C-3.99714844 19.93171875 -3.50601563 19.4728125 -3 19 C-3.66 19 -4.32 19 -5 19 C-5.30432242 13.82651889 -4.79297291 11.2968814 -2 7 C-1.27833809 4.68308546 -0.59940471 2.35151077 0 0 Z " fill="#36BFAF" transform="translate(183,228)"/>
<path d="M0 0 C9.0066983 7.55316774 9.0066983 7.55316774 12 11 C12 12.32 12 13.64 12 15 C3.09945121 12.24892128 -5.41643491 8.59701637 -14 5 C-10.98968256 4.06576355 -10.13349732 3.95550089 -7 5 C-7 4.01 -7 3.02 -7 2 C-6.01 2 -5.02 2 -4 2 C-4.33 3.32 -4.66 4.64 -5 6 C-0.05 7.98 -0.05 7.98 5 10 C3.93538108 5.74152431 3.00957945 4.91249624 0 2 C0 1.34 0 0.68 0 0 Z " fill="#35C6B2" transform="translate(287,136)"/>
<path d="M0 0 C5.27315333 0.4452885 10.01770224 1.08373163 15 3 C14 6 14 6 11.85546875 7.1328125 C10.97503906 7.46023437 10.09460938 7.78765625 9.1875 8.125 C7.87845703 8.62386719 7.87845703 8.62386719 6.54296875 9.1328125 C4.37137132 9.87335725 2.23495461 10.48945093 0 11 C0 10.34 0 9.68 0 9 C0.99 8.67 1.98 8.34 3 8 C3.33 7.34 3.66 6.68 4 6 C3.34 5.67 2.68 5.34 2 5 C2.99 4.01 3.98 3.02 5 2 C3.35 1.67 1.7 1.34 0 1 C0 0.67 0 0.34 0 0 Z " fill="#36C2B0" transform="translate(57,167)"/>
<path d="M0 0 C0.33 0.66 0.66 1.32 1 2 C0.14453125 3.9453125 0.14453125 3.9453125 -1.1875 6.125 C-1.61417969 6.84945312 -2.04085937 7.57390625 -2.48046875 8.3203125 C-2.98191406 8.87460937 -3.48335937 9.42890625 -4 10 C-5.32 10 -6.64 10 -8 10 C-8.268125 10.61875 -8.53625 11.2375 -8.8125 11.875 C-10 14 -10 14 -13 16 C-13.33 16.99 -13.66 17.98 -14 19 C-15.98689731 20.35278115 -17.98745218 21.68568305 -20 23 C-20.66 23.99 -21.32 24.98 -22 26 C-22.66 26 -23.32 26 -24 26 C-22.4152642 22.13671373 -19.94043113 19.71123077 -16.9921875 16.796875 C-16.50670441 16.3142218 -16.02122131 15.8315686 -15.52102661 15.33428955 C-13.97700134 13.80141438 -12.42615176 12.27565996 -10.875 10.75 C-9.82375991 9.70879639 -8.77297343 8.66713459 -7.72265625 7.625 C-5.15366996 5.07800536 -2.57851839 2.53734823 0 0 Z " fill="#38C1AF" transform="translate(115,32)"/>
<path d="M0 0 C0.66 0.99 1.32 1.98 2 3 C1.360625 3.45375 0.72125 3.9075 0.0625 4.375 C-2.98225157 8.25013836 -2.81649865 12.1922647 -3 17 C-4.17219543 16.21654285 -5.33763668 15.42297164 -6.5 14.625 C-7.1496875 14.18414062 -7.799375 13.74328125 -8.46875 13.2890625 C-8.9740625 12.86367187 -9.479375 12.43828125 -10 12 C-10 11.34 -10 10.68 -10 10 C-10.99 9.67 -11.98 9.34 -13 9 C-12.01 8.01 -11.02 7.02 -10 6 C-8.68 6.99 -7.36 7.98 -6 9 C-3.03 4.545 -3.03 4.545 0 0 Z " fill="#37C2B0" transform="translate(72,203)"/>
<path d="M0 0 C0.33 0.66 0.66 1.32 1 2 C0.109375 4.34765625 0.109375 4.34765625 -1.25 7.0625 C-1.68828125 7.96097656 -2.1265625 8.85945312 -2.578125 9.78515625 C-4 12 -4 12 -7 13 C-7 13.99 -7 14.98 -7 16 C-7.66 16 -8.32 16 -9 16 C-8.67 17.32 -8.34 18.64 -8 20 C-9.98 21.65 -11.96 23.3 -14 25 C-14 21.64464187 -13.42749142 20.6994112 -11.69921875 17.91015625 C-11.21646484 17.12576172 -10.73371094 16.34136719 -10.23632812 15.53320312 C-9.4696582 14.31020508 -9.4696582 14.31020508 -8.6875 13.0625 C-8.18798828 12.25103516 -7.68847656 11.43957031 -7.17382812 10.60351562 C-4.91091757 6.94988918 -2.61701051 3.41271992 0 0 Z " fill="#38C3AE" transform="translate(125,120)"/>
<path d="M0 0 C1.70663437 5.11990311 0.04805051 10.32043466 -0.8125 15.5625 C-0.99103516 16.72458984 -1.16957031 17.88667969 -1.35351562 19.08398438 C-1.53205078 20.19193359 -1.71058594 21.29988281 -1.89453125 22.44140625 C-2.05800049 23.45920166 -2.22146973 24.47699707 -2.38989258 25.52563477 C-3 28 -3 28 -5 30 C-5 27.69 -5 25.38 -5 23 C-5.99 22.67 -6.98 22.34 -8 22 C-7.67 21.34 -7.34 20.68 -7 20 C-6.01 20 -5.02 20 -4 20 C-4.309375 18.88625 -4.309375 18.88625 -4.625 17.75 C-5.06754287 14.50468564 -4.45924577 13.83742234 -3 11 C-2.41987103 9.09462228 -1.87962512 7.17675047 -1.375 5.25 C-0.98441406 3.77273437 -0.98441406 3.77273437 -0.5859375 2.265625 C-0.39257812 1.51796875 -0.19921875 0.7703125 0 0 Z " fill="#3AC4AE" transform="translate(208,75)"/>
<path d="M0 0 C0.33 0.66 0.66 1.32 1 2 C0.67 2.66 0.34 3.32 0 4 C-0.66 4 -1.32 4 -2 4 C-2.1546875 4.86625 -2.1546875 4.86625 -2.3125 5.75 C-3.11536971 8.37757361 -4.17034898 9.95923541 -6 12 C-6.99 12.33 -7.98 12.66 -9 13 C-9.33 13.99 -9.66 14.98 -10 16 C-13.5625 17.1875 -13.5625 17.1875 -17 18 C-11.72898586 11.58930713 -5.90871848 5.81409488 0 0 Z " fill="#36C4B1" transform="translate(37,110)"/>
<path d="M0 0 C1 2 1 2 1 6 C1.66 6.33 2.32 6.66 3 7 C3 8.65 3 10.3 3 12 C1.35 10.68 -0.3 9.36 -2 8 C-3.65 9.32 -5.3 10.64 -7 12 C-7.99 11.34 -8.98 10.68 -10 10 C-6.7 6.7 -3.4 3.4 0 0 Z " fill="#39C1AD" transform="translate(51,96)"/>
<path d="M0 0 C3.1212911 0.34681012 4.60277545 0.56021568 6.75 2.9375 C10.0436891 5.95671501 13.680288 6.29850831 18 7 C18 7.33 18 7.66 18 8 C15.69 8 13.38 8 11 8 C12.32 9.65 13.64 11.3 15 13 C14.67 13.66 14.34 14.32 14 15 C11.66265901 12.69152056 9.33081534 10.37756659 7 8.0625 C6.33226562 7.40314453 5.66453125 6.74378906 4.9765625 6.06445312 C4.34492187 5.43603516 3.71328125 4.80761719 3.0625 4.16015625 C2.47597656 3.57886963 1.88945312 2.99758301 1.28515625 2.39868164 C0 1 0 1 0 0 Z " fill="#3EC0AD" transform="translate(0,151)"/>
<path d="M0 0 C0.86625 0.556875 0.86625 0.556875 1.75 1.125 C1.12606349 4.88619476 -0.59773715 7.31460042 -2.8125 10.375 C-3.45316406 11.26703125 -4.09382813 12.1590625 -4.75390625 13.078125 C-5.24761719 13.75359375 -5.74132812 14.4290625 -6.25 15.125 C-6.58 13.805 -6.91 12.485 -7.25 11.125 C-6.59 11.125 -5.93 11.125 -5.25 11.125 C-5.58 10.135 -5.91 9.145 -6.25 8.125 C-6.25 7.135 -6.25 6.145 -6.25 5.125 C-4.6 4.795 -2.95 4.465 -1.25 4.125 C-1.58 3.465 -1.91 2.805 -2.25 2.125 C-4.27463255 1.47286708 -4.27463255 1.47286708 -6.25 1.125 C-2.80384615 -1.09038462 -2.80384615 -1.09038462 0 0 Z " fill="#34C3B3" transform="translate(76.25,178.875)"/>
<path d="M0 0 C0.99 0.33 1.98 0.66 3 1 C3 1.66 3 2.32 3 3 C4.98 2.34 6.96 1.68 9 1 C9 1.99 9 2.98 9 4 C8.01 4.495 8.01 4.495 7 5 C7.66708984 6.15628906 7.66708984 6.15628906 8.34765625 7.3359375 C8.91355469 8.33882812 9.47945312 9.34171875 10.0625 10.375 C10.63097656 11.37273437 11.19945312 12.37046875 11.78515625 13.3984375 C12.38650391 14.68621094 12.38650391 14.68621094 13 16 C12.67 16.66 12.34 17.32 12 18 C9.99621864 15.19017627 7.99761621 12.37670932 6 9.5625 C5.42765625 8.76005859 4.8553125 7.95761719 4.265625 7.13085938 C3.72421875 6.36708984 3.1828125 5.60332031 2.625 4.81640625 C2.12226563 4.10943604 1.61953125 3.40246582 1.1015625 2.67407227 C0 1 0 1 0 0 Z " fill="#37C3B2" transform="translate(148,246)"/>
<path d="M0 0 C8.93617021 1.93617021 8.93617021 1.93617021 12 5 C12 5.66 12 6.32 12 7 C9.5 8.625 9.5 8.625 7 10 C7.66 8.02 8.32 6.04 9 4 C8.34 4 7.68 4 7 4 C7 4.99 7 5.98 7 7 C5.02 6.34 3.04 5.68 1 5 C0.67 3.35 0.34 1.7 0 0 Z " fill="#33C3AF" transform="translate(281,152)"/>
<path d="M0 0 C0.33 0 0.66 0 1 0 C1 2.31 1 4.62 1 7 C0.31292969 7.32613281 -0.37414062 7.65226563 -1.08203125 7.98828125 C-2.43361328 8.64376953 -2.43361328 8.64376953 -3.8125 9.3125 C-4.70582031 9.74175781 -5.59914062 10.17101562 -6.51953125 10.61328125 C-9.0204397 11.82868778 -9.0204397 11.82868778 -10.5 13.71875 C-12 15 -12 15 -14.48046875 14.85546875 C-15.37378906 14.63503906 -16.26710937 14.41460937 -17.1875 14.1875 C-18.08855469 13.97480469 -18.98960937 13.76210937 -19.91796875 13.54296875 C-20.60503906 13.36378906 -21.29210937 13.18460938 -22 13 C-22 12.67 -22 12.34 -22 12 C-21.28972656 11.95101562 -20.57945312 11.90203125 -19.84765625 11.8515625 C-18.46900391 11.73941406 -18.46900391 11.73941406 -17.0625 11.625 C-16.14597656 11.55539063 -15.22945312 11.48578125 -14.28515625 11.4140625 C-13.15400391 11.20910156 -13.15400391 11.20910156 -12 11 C-11.67 10.34 -11.34 9.68 -11 9 C-7.9375 8.375 -7.9375 8.375 -5 8 C-5 7.34 -5 6.68 -5 6 C-3.35 6 -1.7 6 0 6 C0 4.02 0 2.04 0 0 Z " fill="#3EBCAB" transform="translate(192,171)"/>
<path d="M0 0 C0 3.50468883 -0.75466257 4.54629919 -2.625 7.44921875 C-3.16640625 8.29677734 -3.7078125 9.14433594 -4.265625 10.01757812 C-4.83796875 10.89865234 -5.4103125 11.77972656 -6 12.6875 C-6.57234375 13.58017578 -7.1446875 14.47285156 -7.734375 15.39257812 C-9.15026338 17.59900419 -10.57231286 19.80119726 -12 22 C-12.33 21.01 -12.66 20.02 -13 19 C-12.01 17.515 -12.01 17.515 -11 16 C-11 14.68 -11 13.36 -11 12 C-10.01 11.67 -9.02 11.34 -8 11 C-6.89363605 8.60931266 -6.89363605 8.60931266 -6 6 C-5.34 5.01 -4.68 4.02 -4 3 C-3.34 3 -2.68 3 -2 3 C-2 2.34 -2 1.68 -2 1 C-1.34 0.67 -0.68 0.34 0 0 Z " fill="#39C0AC" transform="translate(109,130)"/>
<path d="M0 0 C0.33 0.66 0.66 1.32 1 2 C0.67 2.99 0.34 3.98 0 5 C-0.66 5 -1.32 5 -2 5 C-2.66 6.65 -3.32 8.3 -4 10 C-5.32 10 -6.64 10 -8 10 C-8.226875 10.61875 -8.45375 11.2375 -8.6875 11.875 C-10.37929835 14.61410209 -11.99244161 15.05024472 -15 16 C-10.30233025 10.33870569 -5.25276628 5.14771096 0 0 Z " fill="#37C2AF" transform="translate(131,16)"/>
<path d="M0 0 C2.37316044 3.55974067 1.91542827 4.90258613 1.109375 8.95117188 C0.94953125 9.68916016 0.7896875 10.42714844 0.625 11.1875 C0.47289062 11.93708984 0.32078125 12.68667969 0.1640625 13.45898438 C-0.21286508 15.30828533 -0.60498603 17.15447775 -1 19 C0.2478125 19.0103125 1.495625 19.020625 2.78125 19.03125 C3.48314453 19.03705078 4.18503906 19.04285156 4.90820312 19.04882812 C7.66558334 18.98446351 10.29955838 18.54008832 13 18 C10.13876855 20.86123145 7.39069616 21.86755275 3.375 22.25 C1 22 1 22 -2 20 C-2.62879413 13.20902344 -1.24417224 6.66520843 0 0 Z " fill="#44BDAD" transform="translate(213,87)"/>
<path d="M0 0 C0 3 0 3 -1.4375 4.5625 C-5.11035314 6.62288103 -8.88818835 7.23909535 -13 8 C-14.010625 8.20625 -15.02125 8.4125 -16.0625 8.625 C-16.701875 8.74875 -17.34125 8.8725 -18 9 C-18 9.66 -18 10.32 -18 11 C-18.99 10.67 -19.98 10.34 -21 10 C-17.22832887 6.70485721 -12.84280331 5.13667312 -8.25 3.3125 C-7.45722656 2.99216797 -6.66445312 2.67183594 -5.84765625 2.34179688 C-3.90055928 1.55592039 -1.95055951 0.7772426 0 0 Z " fill="#36C2AE" transform="translate(179,133)"/>
<path d="M0 0 C0.33 0 0.66 0 1 0 C1.03738281 0.59167969 1.07476562 1.18335938 1.11328125 1.79296875 C1.53910809 7.04960525 1.53910809 7.04960525 3.6875 11.8125 C4.3371875 12.8953125 4.3371875 12.8953125 5 14 C4.1875 16.3125 4.1875 16.3125 3 18 C1 17.0625 1 17.0625 -1 15 C-1.75440788 10.0032725 -1.00806038 4.91429436 0 0 Z " fill="#38C1B1" transform="translate(200,167)"/>
<path d="M0 0 C7.21817221 0.35499208 7.21817221 0.35499208 10.5 3.0625 C10.995 3.701875 11.49 4.34125 12 5 C11.34 5.66 10.68 6.32 10 7 C7.90625 6.8984375 7.90625 6.8984375 5.5 6.375 C4.7059375 6.21773437 3.911875 6.06046875 3.09375 5.8984375 C1 5 1 5 -0.28125 2.9140625 C-0.5184375 2.28242188 -0.755625 1.65078125 -1 1 C-0.67 0.67 -0.34 0.34 0 0 Z " fill="#2BCDBD" transform="translate(159,177)"/>
<path d="M0 0 C2.97 0.495 2.97 0.495 6 1 C6.45572917 2.98567708 6.91145833 4.97135417 7.3671875 6.95703125 C7.98007723 9.27742974 7.98007723 9.27742974 10 12 C9.67 12.99 9.34 13.98 9 15 C7.68325862 13.06537998 6.37174202 11.12720303 5.0625 9.1875 C4.33160156 8.10855469 3.60070312 7.02960938 2.84765625 5.91796875 C1 3 1 3 0 0 Z " fill="#36C7B4" transform="translate(117,200)"/>
<path d="M0 0 C0.33 0.99 0.66 1.98 1 3 C-3.51253482 7.7632312 -3.51253482 7.7632312 -6.1875 9.0625 C-8.18263596 9.86118367 -8.18263596 9.86118367 -8.9375 12 C-10.39836667 14.74986668 -12.11305462 15.08833304 -15 16 C-10.30233025 10.33870569 -5.25276628 5.14771096 0 0 Z " fill="#39C1AC" transform="translate(19,128)"/>
<path d="M0 0 C3.38018638 1.12672879 4.5572011 2.48086363 7 5 C7.99 5.66 8.98 6.32 10 7 C10.1875 10.625 10.1875 10.625 10 14 C5.40783094 9.93265026 2.7832093 5.43614072 0 0 Z " fill="#38C3B1" transform="translate(134,225)"/>
<path d="M0 0 C0.66 0.33 1.32 0.66 2 1 C1.51675181 6.15464734 -1.18610761 9.81550319 -4 14 C-4.33 13.01 -4.66 12.02 -5 11 C-3.5625 8.3125 -3.5625 8.3125 -2 6 C-2.99 5.67 -3.98 5.34 -5 5 C-4.34 3.68 -3.68 2.36 -3 1 C-2.34 1.33 -1.68 1.66 -1 2 C-1 2.66 -1 3.32 -1 4 C-0.34 4 0.32 4 1 4 C0.67 2.68 0.34 1.36 0 0 Z " fill="#34C2AD" transform="translate(127,97)"/>
<path d="M0 0 C1 3 1 3 0.00390625 5.04296875 C-0.47175781 5.75066406 -0.94742188 6.45835937 -1.4375 7.1875 C-1.91058594 7.90292969 -2.38367188 8.61835938 -2.87109375 9.35546875 C-3.24363281 9.89816406 -3.61617188 10.44085938 -4 11 C-3.401875 10.649375 -2.80375 10.29875 -2.1875 9.9375 C0 9 0 9 3 10 C-0.72965139 12.03435531 -2.66905042 13 -7 13 C-5.35821735 8.22390502 -2.73453298 4.20617096 0 0 Z " fill="#3DC2AE" transform="translate(109,145)"/>
<path d="M0 0 C3.64734979 0.22330713 5.38372835 0.38372835 8 3 C7.01 2.71125 6.02 2.4225 5 2.125 C2.31562401 1.7074304 1.3030759 1.81094114 -1.03515625 3.26953125 C-2.38591959 4.38085292 -3.72973081 5.50067923 -5.06640625 6.62890625 C-7.73898306 8.52400617 -9.82138579 8.47679213 -13 8 C-13 7.34 -13 6.68 -13 6 C-12.31292969 5.81824219 -11.62585938 5.63648437 -10.91796875 5.44921875 C-10.01691406 5.19785156 -9.11585938 4.94648437 -8.1875 4.6875 C-7.29417969 4.44386719 -6.40085938 4.20023437 -5.48046875 3.94921875 C-2.9067987 2.96433399 -1.89324953 1.91488667 0 0 Z " fill="#3FBDAA" transform="translate(151,97)"/>
<path d="M0 0 C0.66 0.33 1.32 0.66 2 1 C-2.29 5.29 -6.58 9.58 -11 14 C-11 9.73138235 -9.34474443 7.51711665 -7 4 C-5.34795544 3.29788106 -3.68076231 2.63028587 -2 2 C-1.34 1.34 -0.68 0.68 0 0 Z " fill="#36BEAC" transform="translate(222,226)"/>
<path d="M0 0 C1.37478516 0.01740234 1.37478516 0.01740234 2.77734375 0.03515625 C3.69644531 0.04417969 4.61554688 0.05320313 5.5625 0.0625 C6.27277344 0.07410156 6.98304687 0.08570313 7.71484375 0.09765625 C7.71484375 1.41765625 7.71484375 2.73765625 7.71484375 4.09765625 C4.41484375 4.42765625 1.11484375 4.75765625 -2.28515625 5.09765625 C-2.61515625 3.77765625 -2.94515625 2.45765625 -3.28515625 1.09765625 C-2.28515625 0.09765625 -2.28515625 0.09765625 0 0 Z " fill="#2FCBBC" transform="translate(88.28515625,149.90234375)"/>
<path d="M0 0 C-0.71027344 0.33773437 -1.42054688 0.67546875 -2.15234375 1.0234375 C-3.07144531 1.46945313 -3.99054688 1.91546875 -4.9375 2.375 C-5.85402344 2.81585938 -6.77054688 3.25671875 -7.71484375 3.7109375 C-10.12903802 4.79199162 -10.12903802 4.79199162 -11 7 C-13.97 6.505 -13.97 6.505 -17 6 C-14.39603427 4.26402284 -11.82975532 2.76478888 -9.0625 1.3125 C-8.20785156 0.85488281 -7.35320312 0.39726563 -6.47265625 -0.07421875 C-3.7592717 -1.0901305 -2.65995075 -1.01831061 0 0 Z " fill="#3BC2B2" transform="translate(242,108)"/>
<path d="M0 0 C4.88049925 3.9419417 9.0580583 8.11950075 13 13 C10.03 12.505 10.03 12.505 7 12 C7 11.01 7 10.02 7 9 C5.08512183 7.34043892 3.26423282 6.13211641 1 5 C0.375 2.4375 0.375 2.4375 0 0 Z " fill="#3AC1AC" transform="translate(218,67)"/>
<path d="M0 0 C0.66 0.33 1.32 0.66 2 1 C-1.96 4.96 -5.92 8.92 -10 13 C-10 9.85331714 -9.47264871 8.68541824 -8 6 C-7.67 5.34 -7.34 4.68 -7 4 C-5.33927151 3.31867549 -3.672233 2.65257873 -2 2 C-1.34 1.34 -0.68 0.68 0 0 Z " fill="#39BFAC" transform="translate(286,162)"/>
<path d="M0 0 C6.34146341 0.48780488 6.34146341 0.48780488 9.25 2.75 C11.05581974 5.07176824 12.57215117 7.4298721 14 10 C12.35 9.67 10.7 9.34 9 9 C8.67 7.35 8.34 5.7 8 4 C7.01 3.67 6.02 3.34 5 3 C3.33066942 2.3400321 1.6635479 1.67441131 0 1 C0 0.67 0 0.34 0 0 Z " fill="#3BC3B2" transform="translate(171,191)"/>
<path d="M0 0 C4.38889325 0.66498383 7.9811485 2.18757677 12 4 C12 4.33 12 4.66 12 5 C10.35 5 8.7 5 7 5 C6.67 5.99 6.34 6.98 6 8 C5.34 8 4.68 8 4 8 C4.33 6.35 4.66 4.7 5 3 C2.525 2.01 2.525 2.01 0 1 C0 0.67 0 0.34 0 0 Z " fill="#39BFAF" transform="translate(90,70)"/>
<path d="M0 0 C1.32 0.99 2.64 1.98 4 3 C2.79641403 6.42559084 1.64107354 8.53258609 -1 11 C-1.0270043 9.54176788 -1.04639787 8.08339325 -1.0625 6.625 C-1.07410156 5.81289063 -1.08570313 5.00078125 -1.09765625 4.1640625 C-1 2 -1 2 0 0 Z " fill="#34C5B4" transform="translate(173,22)"/>
<path d="M0 0 C0.66 0 1.32 0 2 0 C2 3.96 2 7.92 2 12 C1.01 12 0.02 12 -1 12 C-1.08159574 7.83861737 -0.98248524 4.0527516 0 0 Z " fill="#31BCAD" transform="translate(203,149)"/>
<path d="M0 0 C1.67542976 0.28604898 3.34385343 0.61781233 5 1 C0.375 5.875 0.375 5.875 -3 7 C-1.125 1.125 -1.125 1.125 0 0 Z " fill="#2ACDC1" transform="translate(40,107)"/>
<path d="M0 0 C0.33 0.99 0.66 1.98 1 3 C-3.455 6.96 -3.455 6.96 -8 11 C-8.66 10.67 -9.32 10.34 -10 10 C-6.7 6.7 -3.4 3.4 0 0 Z " fill="#38C1B0" transform="translate(62,85)"/>
<path d="M0 0 C1.50099423 4.50298268 1.4808956 6.93802221 -0.5 11.3125 C-0.995 12.199375 -1.49 13.08625 -2 14 C-2.33 14 -2.66 14 -3 14 C-2.88617347 12.04098546 -2.75858875 10.0827662 -2.625 8.125 C-2.55539063 7.03445312 -2.48578125 5.94390625 -2.4140625 4.8203125 C-2 2 -2 2 0 0 Z " fill="#37C0AE" transform="translate(208,129)"/>
<path d="M0 0 C0.66 1.32 1.32 2.64 2 4 C1.2575 4.53625 0.515 5.0725 -0.25 5.625 C-3.17674961 8.15264739 -4.98621339 10.71827368 -7 14 C-7 10.11708254 -5.62139506 8.53247465 -3.5 5.3125 C-2.8503125 4.31863281 -2.200625 3.32476562 -1.53125 2.30078125 C-0.77328125 1.16189453 -0.77328125 1.16189453 0 0 Z " fill="#35C1AD" transform="translate(169,51)"/>
<path d="M0 0 C2.71675995 0.36712972 4.61063713 0.72744599 6.875 2.3125 C7.431875 3.1478125 7.431875 3.1478125 8 4 C7.5703125 6.10546875 7.5703125 6.10546875 7 8 C5.83035398 6.8572081 4.66435444 5.71068285 3.5 4.5625 C2.8503125 3.92441406 2.200625 3.28632813 1.53125 2.62890625 C0 1 0 1 0 0 Z " fill="#48C3B6" transform="translate(0,151)"/>
<path d="M0 0 C1.32 0.33 2.64 0.66 4 1 C2.76446724 2.20254524 1.51097661 3.38666232 0.25 4.5625 C-0.79414063 5.55443359 -0.79414063 5.55443359 -1.859375 6.56640625 C-4 8 -4 8 -6.265625 7.71484375 C-6.83796875 7.47894531 -7.4103125 7.24304688 -8 7 C-6 5 -6 5 -4 4.625 C-1.79734983 4.17876824 -1.79734983 4.17876824 -0.75 1.9375 C-0.5025 1.298125 -0.255 0.65875 0 0 Z " fill="#3DBFAD" transform="translate(254,192)"/>
<path d="M0 0 C0.99 0.33 1.98 0.66 3 1 C3 1.66 3 2.32 3 3 C5.475 3.99 5.475 3.99 8 5 C7.67 5.66 7.34 6.32 7 7 C3.31245243 6.50168276 1.39509338 5.89932357 -1 3 C-0.67 2.01 -0.34 1.02 0 0 Z " fill="#35C4B6" transform="translate(165,90)"/>
<path d="M0 0 C1.98 0 3.96 0 6 0 C6 0.66 6 1.32 6 2 C7.32 1.67 8.64 1.34 10 1 C10 1.99 10 2.98 10 4 C3.375 4.25 3.375 4.25 0 2 C0 1.34 0 0.68 0 0 Z " fill="#27CDC0" transform="translate(123,73)"/>
<path d="M0 0 C0 3.50051525 -0.52511319 4.0126916 -2.75 6.5625 C-3.26046875 7.16191406 -3.7709375 7.76132813 -4.296875 8.37890625 C-6.08620137 10.08204947 -7.74733705 11.01568423 -10 12 C-8.52278578 8.54798361 -6.56205999 6.35038064 -3.875 3.75 C-3.15054688 3.04359375 -2.42609375 2.3371875 -1.6796875 1.609375 C-1.12539062 1.07828125 -0.57109375 0.5471875 0 0 Z " fill="#3BBFAA" transform="translate(143,4)"/>
<path d="M0 0 C3.39417765 3.12621626 5.6062718 5.56541027 7 10 C5.109375 9.78515625 5.109375 9.78515625 3 9 C1.953125 6.93359375 1.953125 6.93359375 1.25 4.4375 C1.00765625 3.61121094 0.7653125 2.78492188 0.515625 1.93359375 C0.34546875 1.29550781 0.1753125 0.65742188 0 0 Z " fill="#3CC3AF" transform="translate(142,251)"/>
<path d="M0 0 C0.66 0 1.32 0 2 0 C2.29296875 5.95703125 2.29296875 5.95703125 2 8 C1.01 8.99 0.02 9.98 -1 11 C-0.67 7.37 -0.34 3.74 0 0 Z " fill="#36BFAF" transform="translate(193,212)"/>
<path d="M0 0 C9.41002278 0.96355353 9.41002278 0.96355353 14 2 C14 2.33 14 2.66 14 3 C10.04 3 6.08 3 2 3 C2 2.34 2 1.68 2 1 C1.34 0.67 0.68 0.34 0 0 Z " fill="#3CC0AD" transform="translate(119,180)"/>
<path d="M0 0 C0.33 0.66 0.66 1.32 1 2 C1.66 2.33 2.32 2.66 3 3 C-1.455 4.485 -1.455 4.485 -6 6 C-6 5.34 -6 4.68 -6 4 C-5.34 4 -4.68 4 -4 4 C-4 3.34 -4 2.68 -4 2 C-2.68 1.34 -1.36 0.68 0 0 Z " fill="#39C3B4" transform="translate(51,177)"/>
<path d="M0 0 C0.99 0.33 1.98 0.66 3 1 C1.02 3.97 -0.96 6.94 -3 10 C-3.33 8.68 -3.66 7.36 -4 6 C-3.34 6 -2.68 6 -2 6 C-2.33 5.01 -2.66 4.02 -3 3 C-2.01 2.01 -1.02 1.02 0 0 Z " fill="#31BFAA" transform="translate(119,112)"/>
<path d="M0 0 C0.66 0.99 1.32 1.98 2 3 C1.071875 3.4125 0.14375 3.825 -0.8125 4.25 C-3.88054681 5.93441786 -5.19040465 7.08454083 -7 10 C-6.875 7.25 -6.875 7.25 -6 4 C-2.9375 1.625 -2.9375 1.625 0 0 Z " fill="#2DC9BE" transform="translate(58,92)"/>
<path d="M0 0 C1.32 1.32 2.64 2.64 4 4 C2.68 3.67 1.36 3.34 0 3 C-0.33 3.99 -0.66 4.98 -1 6 C-1.66 6 -2.32 6 -3 6 C-3.33 6.99 -3.66 7.98 -4 9 C-4.33 8.34 -4.66 7.68 -5 7 C-3.35 4.69 -1.7 2.38 0 0 Z " fill="#3ABFB0" transform="translate(182,31)"/>
<path d="M0 0 C2.31 0.33 4.62 0.66 7 1 C7 1.99 7 2.98 7 4 C4.5 5.6875 4.5 5.6875 2 7 C2.226875 6.401875 2.45375 5.80375 2.6875 5.1875 C2.790625 4.465625 2.89375 3.74375 3 3 C1.64555699 1.22809091 1.64555699 1.22809091 0 0 Z " fill="#2DCABC" transform="translate(233,206)"/>
<path d="M0 0 C4.29 0.66 8.58 1.32 13 2 C13 2.33 13 2.66 13 3 C7.96488101 4.0070238 4.76052962 3.97387813 0 2 C0 1.34 0 0.68 0 0 Z " fill="#38BBA9" transform="translate(134,183)"/>
<path d="M0 0 C4.69023454 0.56606279 9.34500026 1.18537505 14 2 C14 2.33 14 2.66 14 3 C10.04 3 6.08 3 2 3 C2 2.34 2 1.68 2 1 C1.34 0.67 0.68 0.34 0 0 Z " fill="#3ABBAB" transform="translate(33,162)"/>
<path d="M0 0 C3.34373475 0.55728913 6.03312999 1.35173889 9 3 C9 3.66 9 4.32 9 5 C7.68428397 4.7452486 6.37239624 4.47065859 5.0625 4.1875 C4.33160156 4.03667969 3.60070312 3.88585937 2.84765625 3.73046875 C2.23792969 3.48941406 1.62820313 3.24835938 1 3 C0.67 2.01 0.34 1.02 0 0 Z " fill="#3BC7AF" transform="translate(262,144)"/>
<path d="M0 0 C0 0.66 0 1.32 0 2 C1.32 2.33 2.64 2.66 4 3 C0.70303895 4.09898702 -0.40494903 3.87124444 -3.6875 3.0625 C-4.89986328 2.77052734 -4.89986328 2.77052734 -6.13671875 2.47265625 C-7.05904297 2.23869141 -7.05904297 2.23869141 -8 2 C-4.91190305 0.23537317 -3.76687864 0 0 0 Z " fill="#39C0B0" transform="translate(48,155)"/>
<path d="M0 0 C4.29 0 8.58 0 13 0 C13 0.99 13 1.98 13 3 C11.58249437 2.88490339 10.16598831 2.75746342 8.75 2.625 C7.96109375 2.55539063 7.1721875 2.48578125 6.359375 2.4140625 C4 2 4 2 0 0 Z " fill="#3FC3AE" transform="translate(26,153)"/>
<path d="M0 0 C0.33 0.99 0.66 1.98 1 3 C1.66 3.66 2.32 4.32 3 5 C2.01 5 1.02 5 0 5 C0 5.66 0 6.32 0 7 C-0.99 7 -1.98 7 -3 7 C-2.25 2.25 -2.25 2.25 0 0 Z " fill="#31C6B6" transform="translate(3,144)"/>
<path d="M0 0 C0.33 0 0.66 0 1 0 C1.33 3.63 1.66 7.26 2 11 C1.01 10.67 0.02 10.34 -1 10 C-2.15837626 5.94568308 -1.83691257 3.78187881 0 0 Z " fill="#25CEC0" transform="translate(196,133)"/>
<path d="M0 0 C0.33 0.66 0.66 1.32 1 2 C-0.65909182 6.10406925 -2.21704034 8.65195608 -6 11 C-4.54955729 6.89041233 -2.48889248 3.56741255 0 0 Z " fill="#3DC0AE" transform="translate(132,109)"/>
<path d="M0 0 C0.99 0.33 1.98 0.66 3 1 C1.68 1.33 0.36 1.66 -1 2 C-0.67 2.99 -0.34 3.98 0 5 C-5.75 3.25 -5.75 3.25 -8 1 C-7.05125 1.020625 -6.1025 1.04125 -5.125 1.0625 C-2.09333717 1.22551826 -2.09333717 1.22551826 0 0 Z " fill="#38C1B1" transform="translate(186,98)"/>
<path d="M0 0 C1.12894876 0.93274109 2.25300876 1.87140122 3.375 2.8125 C4.00148437 3.33457031 4.62796875 3.85664062 5.2734375 4.39453125 C7 6 7 6 9 9 C6.50638429 7.79618552 4.31856917 6.54571278 2 5 C1.34 5 0.68 5 0 5 C0 3.35 0 1.7 0 0 Z " fill="#3AC0AC" transform="translate(188,37)"/>
<path d="M0 0 C1.65 0.33 3.3 0.66 5 1 C5 1.66 5 2.32 5 3 C6.32 3.33 7.64 3.66 9 4 C6.45297384 5.27351308 5.5717055 4.80191925 2.875 4.0625 C2.15054688 3.86785156 1.42609375 3.67320312 0.6796875 3.47265625 C0.12539062 3.31667969 -0.42890625 3.16070312 -1 3 C-0.67 2.01 -0.34 1.02 0 0 Z " fill="#3BBEB4" transform="translate(219,191)"/>
<path d="M0 0 C3.465 1.98 3.465 1.98 7 4 C6.01 4.33 5.02 4.66 4 5 C3.67 5.66 3.34 6.32 3 7 C1.68 5.35 0.36 3.7 -1 2 C-0.67 1.34 -0.34 0.68 0 0 Z " fill="#42C1AB" transform="translate(39,187)"/>
<path d="M0 0 C3.63 0 7.26 0 11 0 C11 0.99 11 1.98 11 3 C7.37 2.34 3.74 1.68 0 1 C0 0.67 0 0.34 0 0 Z " fill="#44C7AE" transform="translate(64,161)"/>
<path d="M0 0 C-1 3 -1 3 -3.25 4.1875 C-5.99791147 4.99938294 -8.15447889 5.16260121 -11 5 C-8.12934225 2.12934225 -4.13678472 0 0 0 Z " fill="#34C2AC" transform="translate(132,154)"/>
<path d="M0 0 C3.39417765 3.12621626 5.6062718 5.56541027 7 10 C3.7770366 7.62518486 1.39997377 5.81811028 0 2 C0 1.34 0 0.68 0 0 Z " fill="#3CC5B4" transform="translate(129,232)"/>
<path d="M0 0 C7.75 0.75 7.75 0.75 10 3 C9.01 3.99 8.02 4.98 7 6 C7 5.01 7 4.02 7 3 C4.69 2.34 2.38 1.68 0 1 C0 0.67 0 0.34 0 0 Z " fill="#40B5A2" transform="translate(233,204)"/>
<path d="M0 0 C-0.99 0.66 -1.98 1.32 -3 2 C-3.33 2.99 -3.66 3.98 -4 5 C-4.99 4.67 -5.98 4.34 -7 4 C-7 2.68 -7 1.36 -7 0 C-2.25 -1.125 -2.25 -1.125 0 0 Z " fill="#27CFBD" transform="translate(202,202)"/>
<path d="M0 0 C0 1.65 0 3.3 0 5 C-2.31 5 -4.62 5 -7 5 C-2.16129032 0 -2.16129032 0 0 0 Z " fill="#34C2AC" transform="translate(204,197)"/>
<path d="M0 0 C0.66 0.66 1.32 1.32 2 2 C1.34 3.32 0.68 4.64 0 6 C-1.65 5.67 -3.3 5.34 -5 5 C-3.35 3.35 -1.7 1.7 0 0 Z " fill="#2BD2C0" transform="translate(127,169)"/>
<path d="M0 0 C0.99 0 1.98 0 3 0 C5.1519437 3.22791555 5.20086443 4.28400809 5 8 C2.74754119 5.31158141 1.11786042 3.35358125 0 0 Z " fill="#39C4AC" transform="translate(161,264)"/>
<path d="M0 0 C1.98 0.66 3.96 1.32 6 2 C6.33 3.65 6.66 5.3 7 7 C5.83040013 6.02433888 4.66438823 5.044375 3.5 4.0625 C2.8503125 3.51722656 2.200625 2.97195312 1.53125 2.41015625 C1.0259375 1.94480469 0.520625 1.47945312 0 1 C0 0.67 0 0.34 0 0 Z " fill="#38C2AD" transform="translate(80,231)"/>
<path d="M0 0 C0.66 0.33 1.32 0.66 2 1 C-0.31 3.31 -2.62 5.62 -5 8 C-5.33 6.68 -5.66 5.36 -6 4 C-5.195625 3.525625 -4.39125 3.05125 -3.5625 2.5625 C-1.15246512 1.23099846 -1.15246512 1.23099846 0 0 Z " fill="#39BAA8" transform="translate(238,210)"/>
<path d="M0 0 C1.32 0.33 2.64 0.66 4 1 C1.69 3.31 -0.62 5.62 -3 8 C-3 4.42424104 -1.91159393 2.94704065 0 0 Z " fill="#3ABCAA" transform="translate(262,184)"/>
<path d="M0 0 C5.57142857 5.14285714 5.57142857 5.14285714 6 9 C5.01 9 4.02 9 3 9 C2.814375 8.1646875 2.814375 8.1646875 2.625 7.3125 C1.94023145 4.77885636 1.00866237 2.42078968 0 0 Z " fill="#39BDAB" transform="translate(73,150)"/>
<path d="M0 0 C2.52588702 2.36292656 3.88820837 3.66462511 5 7 C1.125 6.125 1.125 6.125 0 5 C-0.04063832 3.33382885 -0.042721 1.66611905 0 0 Z " fill="#34C6AC" transform="translate(58,128)"/>
<path d="M0 0 C1.65 0 3.3 0 5 0 C5 0.66 5 1.32 5 2 C6.98 1.34 8.96 0.68 11 0 C9.22510401 2.24197388 8.37824511 2.94326323 5.5 3.375 C2.62175489 2.94326323 1.77489599 2.24197388 0 0 Z " fill="#41C1B1" transform="translate(192,105)"/>
<path d="M0 0 C0.33 0.66 0.66 1.32 1 2 C1.99 2.33 2.98 2.66 4 3 C4 3.33 4 3.66 4 4 C1.33333333 4 -1.33333333 4 -4 4 C-4 3.34 -4 2.68 -4 2 C-2.68 2 -1.36 2 0 2 C0 1.34 0 0.68 0 0 Z " fill="#28CDC1" transform="translate(228,202)"/>
<path d="M0 0 C0.33 0.66 0.66 1.32 1 2 C-0.98 4.97 -0.98 4.97 -3 8 C-4 5 -4 5 -3.1875 2.875 C-2 1 -2 1 0 0 Z " fill="#38C2B1" transform="translate(68,194)"/>
<path d="M0 0 C-3.72965139 2.03435531 -5.66905042 3 -10 3 C-10 2.34 -10 1.68 -10 1 C-3.375 -1.125 -3.375 -1.125 0 0 Z " fill="#42CAA8" transform="translate(112,155)"/>
<path d="M0 0 C-0.33 1.32 -0.66 2.64 -1 4 C-2.65 4 -4.3 4 -6 4 C-6 3.34 -6 2.68 -6 2 C-2.25 0 -2.25 0 0 0 Z " fill="#34C3B5" transform="translate(190,129)"/>
<path d="M0 0 C1.98 0.66 3.96 1.32 6 2 C6 3.32 6 4.64 6 6 C5.34 6 4.68 6 4 6 C4 5.01 4 4.02 4 3 C2.68 2.67 1.36 2.34 0 2 C0 1.34 0 0.68 0 0 Z " fill="#32C1AC" transform="translate(188,112)"/>
</svg>
