<?xml version="1.0" encoding="UTF-8"?>
<svg version="1.1" xmlns="http://www.w3.org/2000/svg" width="474" height="474">
<path d="M0 0 C3.99510466 0.02683571 7.9874008 0.00006921 11.98242188 -0.03173828 C63.77722822 -0.10193473 118.18548889 19.9248299 156.99804688 54.65185547 C157.49143555 55.09174805 157.98482422 55.53164063 158.49316406 55.98486328 C170.11841452 66.39692002 181.6740194 77.08913472 190.99804688 89.65185547 C191.45614746 90.25529785 191.91424805 90.85874023 192.38623047 91.48046875 C216.48268697 123.28348427 231.36522963 157.54868957 238.99804688 196.65185547 C239.16609833 197.50512421 239.33414978 198.35839294 239.5072937 199.23751831 C240.90430062 206.84831925 241.34779441 214.23556811 241.40429688 221.96435547 C241.41569702 223.21273193 241.42709717 224.4611084 241.43884277 225.74731445 C241.45763586 228.38277867 241.47076789 231.01828876 241.47851562 233.65380859 C241.49772684 237.58634395 241.55978634 241.516693 241.62304688 245.44873047 C241.77012264 263.22033856 239.50909522 279.47608972 234.99804688 296.65185547 C234.74829605 297.60835999 234.49854523 298.5648645 234.2412262 299.550354 C218.20953152 360.13241592 176.02879701 412.53706525 122.2668457 444.09521484 C99.36434675 457.19705625 74.51420671 465.96334 48.67123413 471.11659241 C46.97298067 471.45664054 45.27693408 471.80806041 43.58422852 472.17472839 C36.09724066 473.69884078 28.83111389 473.98954036 21.20507812 474.02294922 C19.90140793 474.03197769 18.59773773 474.04100616 17.25456238 474.05030823 C14.5021215 474.06669164 11.7498005 474.07447662 8.99731445 474.07739258 C6.2290147 474.08166402 3.46166186 474.10227862 0.69360352 474.13891602 C-17.08945045 474.3698694 -33.71708223 473.20268324 -51.00195312 468.65185547 C-52.25065186 468.34223877 -53.49935059 468.03262207 -54.78588867 467.71362305 C-57.63014019 466.98115843 -60.44046694 466.18795306 -63.25195312 465.33935547 C-64.23607178 465.04504639 -65.22019043 464.7507373 -66.23413086 464.44750977 C-90.08483208 457.1379589 -112.75703185 446.277464 -133.00195312 431.65185547 C-133.82308594 431.06146484 -134.64421875 430.47107422 -135.49023438 429.86279297 C-140.95185662 425.76900152 -145.92639241 421.14620565 -150.91210938 416.49560547 C-153.20249206 414.36225381 -155.55088642 412.31003061 -157.92382812 410.26904297 C-169.56332077 400.1160597 -179.44045585 388.16840752 -188.50390625 375.71044922 C-189.46882537 374.3844717 -190.44095754 373.06369824 -191.421875 371.74951172 C-210.95355907 345.5410392 -222.82488918 314.86712869 -229.31445312 283.02685547 C-229.47389404 282.24648926 -229.63333496 281.46612305 -229.79760742 280.66210938 C-231.70817798 270.73725911 -232.15906091 260.8178065 -232.16992188 250.72998047 C-232.17325027 249.62692566 -232.17657867 248.52387085 -232.18000793 247.38739014 C-232.18503851 245.06799736 -232.18741747 242.74859744 -232.18725586 240.42919922 C-232.1894386 236.92516866 -232.20762608 233.42145539 -232.2265625 229.91748047 C-232.25651092 218.32130919 -232.10932913 207.08753541 -230.00195312 195.65185547 C-229.83026611 194.67732422 -229.6585791 193.70279297 -229.48168945 192.69873047 C-221.72962113 151.10332601 -202.86825181 113.36486633 -175.00195312 81.65185547 C-174.43605469 80.97509766 -173.87015625 80.29833984 -173.28710938 79.60107422 C-163.97626808 68.53704652 -153.38437254 58.53828556 -142.00195312 49.65185547 C-141.26589844 49.02537109 -140.52984375 48.39888672 -139.77148438 47.75341797 C-126.99484616 36.97793996 -112.15145503 28.59795362 -97.00195312 21.65185547 C-96.2269043 21.28995117 -95.45185547 20.92804687 -94.65332031 20.55517578 C-64.53835828 6.59830084 -33.15101865 -0.26394123 0 0 Z " fill="#FCFCFC" transform="translate(233.001953125,0.34814453125)"/>
<path d="M0 0 C0.66 0 1.32 0 2 0 C2.53367187 0.95777344 3.06734375 1.91554688 3.6171875 2.90234375 C7.58543771 10.00204527 11.60209713 17.06607799 15.75 24.0625 C20.94464038 32.83283257 25.94789048 41.70826437 30.94921875 50.58984375 C33.42584741 54.98790248 35.92339077 59.3732886 38.4375 63.75 C41.15989816 68.49850162 43.80785853 73.27933711 46.3828125 78.109375 C47.82289856 80.68344188 49.31735202 83.20857323 50.83984375 85.734375 C53.78143597 90.61474392 56.62399882 95.54497334 59.4375 100.5 C64.15728298 108.78845454 68.91360771 117.0551021 73.6875 125.3125 C78.07612204 132.90789586 82.44238328 140.51339861 86.72607422 148.16845703 C89.72531018 153.5251344 92.76484301 158.85823979 95.8125 164.1875 C96.31281738 165.0633374 96.81313477 165.9391748 97.32861328 166.84155273 C99.98447045 171.48782024 102.64999954 176.12824847 105.328125 180.76171875 C105.86977295 181.70184814 106.4114209 182.64197754 106.96948242 183.6105957 C108.00291631 185.40394005 109.03935969 187.19555479 110.0793457 188.98510742 C110.54945068 189.80213135 111.01955566 190.61915527 111.50390625 191.4609375 C111.91455322 192.17040527 112.3252002 192.87987305 112.74829102 193.61083984 C114.34270172 196.65412112 115.64663027 199.84213731 117 203 C40.11 203 -36.78 203 -116 203 C-109.25078044 189.50156087 -109.25078044 189.50156087 -106.59765625 185 C-106.01693359 184.01 -105.43621094 183.02 -104.83789062 182 C-104.25201172 181.01 -103.66613281 180.02 -103.0625 179 C-102.48048828 178.01 -101.89847656 177.02 -101.29882812 176 C-98.93925901 171.98638077 -96.57513332 167.97545123 -94.21044922 163.96484375 C-90.87821477 158.28750009 -87.64222619 152.57209241 -84.50976562 146.78222656 C-76.64674851 132.29209993 -68.4905373 117.96175718 -60.06103516 103.79443359 C-58.43415146 101.04303112 -56.84519028 98.26986199 -55.25 95.5 C-52.79776841 91.27221394 -50.19026031 87.21438319 -47.359375 83.23046875 C-45.95138418 80.92023094 -44.96741151 78.54829975 -43.93310547 76.05444336 C-41.98899698 71.7740475 -39.54196659 67.7516536 -37.1875 63.6875 C-36.67896484 62.80126953 -36.17042969 61.91503906 -35.64648438 61.00195312 C-33.11646709 56.60568734 -30.54852583 52.23611773 -27.92578125 47.89453125 C-25.6237372 44.07429327 -23.4228158 40.2117212 -21.27294922 36.30419922 C-18.91298281 32.0323613 -16.48346593 27.79996534 -14.0625 23.5625 C-13.56298828 22.68529297 -13.06347656 21.80808594 -12.54882812 20.90429688 C-4.2567079 6.38506186 -4.2567079 6.38506186 0 0 Z " fill="#020202" transform="translate(239,118)"/>
<path d="M0 0 C0 3.10551666 -0.5393715 4.35261084 -2 7 C-2.66 7 -3.32 7 -4 7 C-4.66 8.32 -5.32 9.64 -6 11 C-5.34 11.66 -4.68 12.32 -4 13 C-4.33 13.99 -4.66 14.98 -5 16 C-7.31 15.67 -9.62 15.34 -12 15 C-12.33 15.66 -12.66 16.32 -13 17 C-13.66 16.34 -14.32 15.68 -15 15 C-10.05 10.05 -5.1 5.1 0 0 Z " fill="#CBCBCB" transform="translate(75,64)"/>
<path d="M0 0 C1.10251165 3.30753495 2.05066101 6.64566891 3 10 C1.02 10.99 -0.96 11.98 -3 13 C-4.1484375 11.296875 -4.1484375 11.296875 -5 9 C-4.1015625 6.640625 -4.1015625 6.640625 -2.625 4.25 C-2.14289063 3.45078125 -1.66078125 2.6515625 -1.1640625 1.828125 C-0.77992188 1.22484375 -0.39578125 0.6215625 0 0 Z " fill="#0F0F0F" transform="translate(204,178)"/>
<path d="M0 0 C-1.79036458 0.9765625 -3.58072917 1.953125 -5.37109375 2.9296875 C-7.16618315 3.91410024 -7.16618315 3.91410024 -8 6 C-8.886875 5.979375 -9.77375 5.95875 -10.6875 5.9375 C-13.64601466 5.99332103 -16.1605577 6.18873077 -19 7 C-19.33 7.66 -19.66 8.32 -20 9 C-20.66 8.34 -21.32 7.68 -22 7 C-18.90249398 5.63021499 -15.79608343 4.28193428 -12.6875 2.9375 C-11.80642578 2.54755859 -10.92535156 2.15761719 -10.01757812 1.75585938 C-9.17001953 1.39169922 -8.32246094 1.02753906 -7.44921875 0.65234375 C-6.27879028 0.14175415 -6.27879028 0.14175415 -5.0847168 -0.37915039 C-3 -1 -3 -1 0 0 Z " fill="#939393" transform="translate(160,14)"/>
<path d="M0 0 C4 0 4 0 6 1 C6.99 1 7.98 1 9 1 C9.99 1.33 10.98 1.66 12 2 C11.67 3.98 11.34 5.96 11 8 C6.99698968 6.23867546 3.3971023 3.73867517 0 1 C0 0.67 0 0.34 0 0 Z " fill="#C6C6C6" transform="translate(92,425)"/>
<path d="M0 0 C1.65 0 3.3 0 5 0 C3.35 3.3 1.7 6.6 0 10 C-0.66 10 -1.32 10 -2 10 C-2.17942163 6.05272412 -2.09350689 3.4019487 0 0 Z " fill="#F2F2F2" transform="translate(162,243)"/>
<path d="M0 0 C0.66 0 1.32 0 2 0 C1.44854729 5.23880078 0.57077907 9.97350697 -1 15 C-3 12 -3 12 -2.79296875 9.3359375 C-2.49326172 7.87027344 -2.49326172 7.87027344 -2.1875 6.375 C-1.89939453 4.90160156 -1.89939453 4.90160156 -1.60546875 3.3984375 C-1 1 -1 1 0 0 Z " fill="#D2D2D2" transform="translate(467,289)"/>
<path d="M0 0 C2.6875 1.4375 2.6875 1.4375 5 3 C4.67 3.66 4.34 4.32 4 5 C1.69 4.67 -0.62 4.34 -3 4 C-3.33 4.66 -3.66 5.32 -4 6 C-4.66 5.34 -5.32 4.68 -6 4 C-3.94766315 1.7522025 -2.99332739 0.9977758 0 0 Z " fill="#E3E3E3" transform="translate(66,75)"/>
<path d="M0 0 C0.33 0.99 0.66 1.98 1 3 C-0.32255312 4.67523395 -1.65705519 6.34106818 -3 8 C-3.78946609 10.68507329 -3.78946609 10.68507329 -4 13 C-4.33 12.34 -4.66 11.68 -5 11 C-6.32 11.33 -7.64 11.66 -9 12 C-6 8 -3 4 0 0 Z " fill="#D0D0D0" transform="translate(59,80)"/>
<path d="M0 0 C1.4606285 2.64738916 2 3.89448334 2 7 C3.32 7 4.64 7 6 7 C5.34 9.97 4.68 12.94 4 16 C0.78235549 11.17353323 -0.36261136 5.80178176 0 0 Z " fill="#A5A5A5" transform="translate(6,289)"/>
<path d="M0 0 C0.66 0.33 1.32 0.66 2 1 C0.33333333 2.66666667 -1.33333333 4.33333333 -3 6 C-3.845625 6.9075 -4.69125 7.815 -5.5625 8.75 C-7.87251995 10.88232611 -8.94189832 11.66021092 -12 12 C-8.57833482 7.29521038 -4.42094803 3.72346836 0 0 Z " fill="#BCBCBC" transform="translate(88,52)"/>
<path d="M0 0 C0.66 0 1.32 0 2 0 C0.85569823 3.87302138 -0.23320098 7.00263439 -3 10 C-3.66 10 -4.32 10 -5 10 C-4.67 7.36 -4.34 4.72 -4 2 C-3.34 2.33 -2.68 2.66 -2 3 C-1.34 2.01 -0.68 1.02 0 0 Z " fill="#E3E3E3" transform="translate(189,201)"/>
<path d="M0 0 C0.45375 0.639375 0.9075 1.27875 1.375 1.9375 C2.83921726 4.09702406 2.83921726 4.09702406 5 5 C4.34 6.65 3.68 8.3 3 10 C1.68 9.67 0.36 9.34 -1 9 C-0.67 6.03 -0.34 3.06 0 0 Z " fill="#EEEEEE" transform="translate(209,156)"/>
<path d="M0 0 C0.84172676 2.35683494 1.10948624 3.6386954 0.375 6.0625 C-1.37634575 8.53030537 -3.34701621 9.60369274 -6 11 C-4.54955729 6.89041233 -2.48889248 3.56741255 0 0 Z " fill="#C4C4C4" transform="translate(43,100)"/>
<path d="M0 0 C1.32 0.66 2.64 1.32 4 2 C4 2.99 4 3.98 4 5 C2.02 5.66 0.04 6.32 -2 7 C-1.34 4.69 -0.68 2.38 0 0 Z " fill="#C5C5C5" transform="translate(349,441)"/>
<path d="M0 0 C2.1875 0.3125 2.1875 0.3125 4 1 C4 1.99 4 2.98 4 4 C3.01 4.495 3.01 4.495 2 5 C1.67 5.66 1.34 6.32 1 7 C-0.32 5.68 -1.64 4.36 -3 3 C-1.75 1.4375 -1.75 1.4375 0 0 Z " fill="#DFDFDF" transform="translate(90,418)"/>
<path d="M0 0 C2.34914492 2.34914492 2.73140357 3.95679446 3.625 7.125 C3.88539063 8.03507813 4.14578125 8.94515625 4.4140625 9.8828125 C4.70410156 10.93082031 4.70410156 10.93082031 5 12 C4.34 12 3.68 12 3 12 C-0.12940055 8.02806853 -0.29162929 4.95769796 0 0 Z " fill="#BCBCBC" transform="translate(457,148)"/>
<path d="M0 0 C2.9375 1.1875 2.9375 1.1875 3.9375 3.1875 C2.25 3.9375 2.25 3.9375 -0.0625 4.1875 C-2.8125 2.25 -2.8125 2.25 -5.0625 0.1875 C-3.0625 -0.8125 -3.0625 -0.8125 0 0 Z " fill="#BBBBBB" transform="translate(122.0625,441.8125)"/>
<path d="M0 0 C-1.62339805 1.70884005 -3.29319053 3.37446717 -5 5 C-5.66 5 -6.32 5 -7 5 C-6.67 3.35 -6.34 1.7 -6 0 C-3 -1 -3 -1 0 0 Z " fill="#D2D2D2" transform="translate(381,426)"/>
<path d="M0 0 C0.66 0 1.32 0 2 0 C0.92598892 2.91517292 0.22189824 4.77810176 -2 7 C-2.66 7 -3.32 7 -4 7 C-4.33 5.68 -4.66 4.36 -5 3 C-3.68 3 -2.36 3 -1 3 C-0.67 2.01 -0.34 1.02 0 0 Z " fill="#EDEDED" transform="translate(209,166)"/>
<path d="M0 0 C4.74361909 0.24966416 5.36290301 1.36290301 9 5 C5.37 4.01 1.74 3.02 -2 2 C-1.34 1.34 -0.68 0.68 0 0 Z " fill="#B6B6B6" transform="translate(154,458)"/>
<path d="M0 0 C0.99 0.99 1.98 1.98 3 3 C2.34 4.32 1.68 5.64 1 7 C0.67 6.34 0.34 5.68 0 5 C-0.99 5 -1.98 5 -3 5 C-2.01 3.35 -1.02 1.7 0 0 Z " fill="#1D1D1D" transform="translate(187,208)"/>
<path d="M0 0 C-4.55491614 2.20399168 -9.02906176 2.58846263 -14 3 C-9.7368213 0.15788087 -5.03577274 -2.0143091 0 0 Z " fill="#878787" transform="translate(181,8)"/>
<path d="M0 0 C0.99 1.32 1.98 2.64 3 4 C2.34 5.32 1.68 6.64 1 8 C-0.32 7.67 -1.64 7.34 -3 7 C-1.68 6.34 -0.36 5.68 1 5 C1 4.34 1 3.68 1 3 C0.34 2.67 -0.32 2.34 -1 2 C-0.67 1.34 -0.34 0.68 0 0 Z " fill="#212121" transform="translate(301,224)"/>
<path d="M0 0 C0 0.66 0 1.32 0 2 C-0.99 2.33 -1.98 2.66 -3 3 C-3.73323796 5.01508358 -3.73323796 5.01508358 -4 7 C-5.32 6.34 -6.64 5.68 -8 5 C-3.16129032 0 -3.16129032 0 0 0 Z " fill="#9E9E9E" transform="translate(122,30)"/>
<path d="M0 0 C0.98120464 3.05263664 0.98120464 4.94736336 0 8 C-1.5625 6.1875 -1.5625 6.1875 -3 4 C-2.67 3.01 -2.34 2.02 -2 1 C-1.34 0.67 -0.68 0.34 0 0 Z " fill="#E7E7E7" transform="translate(347,296)"/>
<path d="M0 0 C0.66 0.99 1.32 1.98 2 3 C0.7260411 5.03833424 -0.61061923 7.03852126 -2 9 C-2.66 9 -3.32 9 -4 9 C-2.80100302 5.9168649 -1.52299523 2.93720508 0 0 Z " fill="#262626" transform="translate(169,239)"/>
<path d="M0 0 C0.99 0.66 1.98 1.32 3 2 C0.1875 3.5625 0.1875 3.5625 -3 5 C-3.99 4.67 -4.98 4.34 -6 4 C-4.04783565 2.04783565 -2.46800047 1.15173355 0 0 Z " fill="#BBBBBB" transform="translate(344,447)"/>
<path d="M0 0 C0.66 0.66 1.32 1.32 2 2 C1.01 3.98 0.02 5.96 -1 8 C-2.0625 6.125 -2.0625 6.125 -3 4 C-2.67 3.34 -2.34 2.68 -2 2 C-1.34 2 -0.68 2 0 2 C0 1.34 0 0.68 0 0 Z " fill="#E6E6E6" transform="translate(176,223)"/>
<path d="M0 0 C1.32 1.32 2.64 2.64 4 4 C3.67 4.66 3.34 5.32 3 6 C2.34 5.67 1.68 5.34 1 5 C0.67 5.66 0.34 6.32 0 7 C-0.93423645 3.98968256 -1.04449911 3.13349732 0 0 Z " fill="#222222" transform="translate(250,136)"/>
</svg>
