<?xml version="1.0" encoding="UTF-8"?>
<svg version="1.1" xmlns="http://www.w3.org/2000/svg" width="492" height="507">
<path d="M0 0 C3.05815076 0.01611481 6.11498407 0.00003812 9.1730957 -0.01904297 C24.68384886 -0.03711849 39.2125355 1.39178008 53.93286133 6.57861328 C54.80700684 6.88049561 55.68115234 7.18237793 56.58178711 7.4934082 C75.7128366 14.24483068 92.02257886 23.20290272 107.49536133 36.39111328 C108.32551758 37.08720703 109.15567383 37.78330078 110.01098633 38.50048828 C125.89821971 52.24343249 135.99082506 68.43466506 138.49536133 89.39111328 C138.75945698 94.12451999 138.78208448 98.83881521 138.74536133 103.57861328 C138.73786865 104.8616333 138.73037598 106.14465332 138.72265625 107.46655273 C138.61564461 116.92363184 138.08930782 126.05742662 136.49536133 135.39111328 C136.35533691 136.2707373 136.2153125 137.15036133 136.07104492 138.05664062 C129.85869514 176.48547517 116.67160237 213.11357996 100.49536133 248.39111328 C99.86911865 249.77121582 99.86911865 249.77121582 99.23022461 251.17919922 C93.07338772 264.70421418 86.05780605 277.60231823 78.49536133 290.39111328 C84.38380127 290.5517071 89.71565811 289.95194488 95.49536133 288.89111328 C119.84601661 284.80083357 119.84601661 284.80083357 130.49536133 291.39111328 C131.58848633 291.98923828 132.68161133 292.58736328 133.80786133 293.20361328 C137.67050825 296.34762821 140.06846509 299.79961159 140.87939453 304.72241211 C141.03175976 307.29038531 141.04142416 309.81927171 140.99536133 312.39111328 C141.01083008 313.25478516 141.02629883 314.11845703 141.04223633 315.00830078 C140.99825546 322.24315418 139.15727952 326.51336389 134.18286133 331.89111328 C133.29598633 332.71611328 132.40911133 333.54111328 131.49536133 334.39111328 C131.05063477 334.88998047 130.6059082 335.38884766 130.14770508 335.90283203 C113.19201677 354.50638775 85.05168603 364.10410555 60.49536133 365.39111328 C53.16196977 365.58260914 45.829302 365.5217714 38.49536133 365.39111328 C38.48077881 366.06239258 38.46619629 366.73367188 38.45117188 367.42529297 C37.48594582 407.76696716 35.81064179 455.66011639 5.03442383 485.80126953 C-15.00367366 503.34212665 -41.8702552 508.58711071 -67.75463867 507.58642578 C-79.47207521 506.75422148 -89.72902201 500.95677963 -98.50463867 493.39111328 C-124.23938392 463.2432807 -125.51386197 417.12485122 -124.50463867 379.39111328 C-125.6622168 379.74044922 -126.81979492 380.08978516 -128.01245117 380.44970703 C-129.55145706 380.90953196 -131.09052274 381.3691568 -132.62963867 381.82861328 C-133.77045898 382.17375977 -133.77045898 382.17375977 -134.93432617 382.52587891 C-155.26827799 388.57347665 -179.41571982 386.75252828 -198.50463867 377.39111328 C-201.35054455 375.56865621 -203.92098854 373.56112484 -206.50463867 371.39111328 C-207.49463867 370.73111328 -208.48463867 370.07111328 -209.50463867 369.39111328 C-209.50463867 368.73111328 -209.50463867 368.07111328 -209.50463867 367.39111328 C-210.17108398 367.85001953 -210.8375293 368.30892578 -211.52416992 368.78173828 C-223.59323953 376.81653147 -234.08138077 380.02995686 -248.50463867 378.39111328 C-264.98121426 374.93634743 -278.31705298 362.1297937 -287.50463867 348.57861328 C-319.16885116 299.80896047 -333.64033567 239.05996251 -345.03466797 182.6998291 C-345.47329145 180.5451055 -345.92349572 178.39318627 -346.37768555 176.24169922 C-349.75038787 159.95129963 -350.96054571 144.16762913 -351.00463867 127.57861328 C-351.00940216 126.70214142 -351.01416565 125.82566956 -351.01907349 124.92263794 C-351.07923764 95.70245336 -344.71843972 66.19105185 -325.50463867 43.39111328 C-324.77245117 42.50810547 -324.04026367 41.62509766 -323.28588867 40.71533203 C-304.1684995 18.53512171 -276.52232607 8.84831135 -247.94750977 6.66210938 C-220.40082398 5.09594489 -190.10735624 8.9147407 -164.20996094 18.73779297 C-159.49218027 20.45457366 -157.05557933 20.48694122 -152.50463867 18.39111328 C-151.33030273 17.86775391 -150.1559668 17.34439453 -148.94604492 16.80517578 C-148.32068848 16.51602295 -147.69533203 16.22687012 -147.05102539 15.92895508 C-138.69726363 12.08515552 -130.52057723 9.33496136 -121.50463867 7.39111328 C-120.46952148 7.16552734 -119.4344043 6.93994141 -118.36791992 6.70751953 C-101.48638179 3.6966671 -83.54531158 4.74765029 -66.62573242 6.95361328 C-59.56042505 7.79361577 -53.42679397 7.67658346 -46.56713867 5.57861328 C-31.04827462 1.19093262 -16.08652001 -0.10058105 0 0 Z " fill="#F7F9FA" transform="translate(351.504638671875,-0.39111328125)"/>
<path d="M0 0 C2.87926037 2.45367918 5.67086542 4.99517722 8.44824219 7.56298828 C8.96193359 8.02753418 9.475625 8.49208008 10.00488281 8.97070312 C26.33014444 23.83423562 40.4960796 44.49688758 47.44824219 65.56298828 C47.44824219 66.55298828 47.44824219 67.54298828 47.44824219 68.56298828 C46.7642334 68.57233398 46.08022461 68.58167969 45.37548828 68.59130859 C19.6115816 68.59985257 19.6115816 68.59985257 -2.10253906 81.10595703 C-10.69697008 90.96800324 -11.32582695 101.62848187 -10.72509766 114.09667969 C-8.68664739 143.10009461 6.85014815 171.23443881 21.36230469 195.87548828 C23.02156085 198.74397796 24.53915413 201.66819886 26.03417969 204.62548828 C30.90163885 214.23743016 35.72208365 222.95664963 42.74511719 231.16455078 C43.30714844 231.95603516 43.86917969 232.74751953 44.44824219 233.56298828 C44.11824219 234.55298828 43.78824219 235.54298828 43.44824219 236.56298828 C41.65386719 237.39830078 41.65386719 237.39830078 39.82324219 238.25048828 C32.66835836 241.62882661 28.76983553 247.05880589 26.09211731 254.39117432 C25.1187708 257.67430713 25.01454203 260.91787378 24.96386719 264.31298828 C24.49438433 277.14120724 22.77112661 289.83242618 21.19824219 302.56298828 C21.04173187 303.84246338 20.88522156 305.12193848 20.72396851 306.44018555 C18.26572784 326.52285226 15.79727152 346.60594272 12.44824219 366.56298828 C12.28791504 367.52414551 12.12758789 368.48530273 11.96240234 369.47558594 C9.66633479 382.70277384 5.81249354 395.12725327 -5.04785156 403.85595703 C-20.39680423 414.32006361 -39.15069153 418.61667871 -57.55175781 416.56298828 C-67.26385682 413.89216105 -74.45184567 407.42979724 -79.56396484 398.86767578 C-90.69785302 378.60630172 -89.65302419 353.51782412 -89.78155327 331.03434944 C-89.79828869 328.21192229 -89.82152254 325.38961158 -89.84645081 322.56724548 C-89.91640595 314.55604042 -89.97749584 306.54479515 -90.02856445 298.53344727 C-90.06046135 293.60010809 -90.10173343 288.66691874 -90.14875984 283.73370171 C-90.1646786 281.86834846 -90.17704631 280.00296114 -90.18566704 278.13755989 C-90.19790847 275.53059828 -90.22208584 272.92398692 -90.2487793 270.31713867 C-90.24936844 269.56111862 -90.24995758 268.80509857 -90.25056458 268.02616882 C-90.4033138 256.68932688 -93.37658938 249.73815671 -101.36425781 241.75048828 C-107.22550166 237.72806604 -113.56224268 236.30655372 -120.55175781 235.56298828 C-119.36288099 229.49546419 -117.7253642 223.86099684 -115.42675781 218.12548828 C-114.97260498 216.96605713 -114.97260498 216.96605713 -114.50927734 215.78320312 C-112.64026702 211.07588951 -110.60481549 206.47696531 -108.45483398 201.89233398 C-94.9051557 172.83984164 -95.21493451 140.64363064 -100.55175781 109.56298828 C-100.66390625 108.85207031 -100.77605469 108.14115234 -100.89160156 107.40869141 C-102.74934611 95.74618398 -106.69158817 85.67440824 -116.21972656 78.26611328 C-126.71738688 70.90692873 -139.68563633 70.36621148 -152.02441406 72.03173828 C-159.82803681 73.50976378 -166.89778001 76.07806018 -174.17675781 79.16064453 C-177.26915747 80.44556522 -180.36246532 81.54688747 -183.55175781 82.56298828 C-183.8240256 74.29044789 -183.1801035 66.65948833 -181.48925781 58.56298828 C-181.26592773 57.48210937 -181.04259766 56.40123047 -180.8125 55.28759766 C-176.33039944 34.56626746 -168.73142331 14.61598358 -154.55175781 -1.43701172 C-153.37806641 -2.90460937 -153.37806641 -2.90460937 -152.18066406 -4.40185547 C-140.09087285 -18.90640051 -119.87730647 -27.76726895 -101.52832031 -30.08544922 C-64.88984514 -33.32460714 -28.48715121 -23.52313001 0 0 Z " fill="#336691" transform="translate(342.5517578125,63.43701171875)"/>
<path d="M0 0 C0.75120621 -0.0033284 1.50241241 -0.0066568 2.27638245 -0.01008606 C3.86222732 -0.01512394 5.44808268 -0.01749536 7.03393555 -0.01733398 C9.4036725 -0.01949681 11.77292474 -0.03762016 14.14257812 -0.05664062 C36.38417565 -0.1387622 56.87051111 4.57856975 78.00390625 11.16796875 C78.00390625 11.82796875 78.00390625 12.48796875 78.00390625 13.16796875 C76.87759212 14.29428288 75.74837877 15.41777012 74.609375 16.53125 C57.39241563 34.08333266 47.045958 60.233248 43.00390625 84.16796875 C42.87822266 84.89709473 42.75253906 85.6262207 42.62304688 86.37744141 C40.35444507 99.65621747 38.84249007 112.48767132 38.95930672 125.9897213 C38.97700433 128.10755996 38.98709281 130.22532004 38.995224 132.34321594 C39.01940069 138.35803644 39.05489138 144.37275082 39.09985352 150.38745117 C39.12699083 154.08835469 39.14379957 157.78919779 39.15472221 161.49018288 C39.16083287 162.88172449 39.17070748 164.27325595 39.1848011 165.66473961 C39.27100925 174.25426524 38.74897171 182.46531296 37.46858215 190.93942261 C34.49740812 211.58299889 39.22392075 231.17125037 51.16015625 248.25390625 C54.21866033 252.14551033 57.47382385 255.70036569 61.00390625 259.16796875 C59.35328279 263.2599335 56.4319575 266.14643301 53.44140625 269.29296875 C52.34984199 270.45924394 51.25869969 271.62591419 50.16796875 272.79296875 C49.62946289 273.36660156 49.09095703 273.94023437 48.53613281 274.53125 C43.39184551 280.02635868 38.41247087 285.61721108 33.69140625 291.48046875 C30.18949616 295.7857943 26.59505495 299.98499935 22.87890625 304.10546875 C22.40026123 304.64921143 21.92161621 305.1929541 21.4284668 305.75317383 C17.52145694 310.02777691 13.39867767 313.2284989 7.703125 314.8046875 C0.58709416 314.98431546 -3.89650998 311.91585709 -8.99609375 307.16796875 C-31.49576936 283.36791945 -43.56356138 247.05182317 -52.26660156 216.16113281 C-53.58237971 211.49650875 -55.08720566 206.93076843 -56.68359375 202.35546875 C-58.46916919 197.08691901 -59.57828838 192.11563539 -60.35546875 186.625 C-61.00312912 183.13000352 -61.91937327 179.8226205 -62.91723633 176.41577148 C-66.27801605 164.91374647 -68.61396708 153.32195327 -70.74609375 141.54296875 C-70.89452728 140.72322571 -71.04296082 139.90348267 -71.19589233 139.05889893 C-71.9022483 135.13949371 -72.5963261 131.21834906 -73.27294922 127.29370117 C-73.69401666 124.85497569 -74.14337379 122.43242018 -74.62939453 120.00512695 C-76.38870957 110.90747146 -76.39138059 101.83891259 -76.37109375 92.60546875 C-76.3712146 91.76236145 -76.37133545 90.91925415 -76.37145996 90.05059814 C-76.34612093 77.65539234 -75.69897004 66.07825126 -71.99609375 54.16796875 C-71.67253906 53.02328125 -71.34898438 51.87859375 -71.015625 50.69921875 C-69.09814227 44.37543898 -66.55923849 38.72762087 -62.99609375 33.16796875 C-62.44308594 32.29398438 -61.89007813 31.42 -61.3203125 30.51953125 C-50.30073243 14.22971724 -33.90489604 5.39010227 -14.99609375 1.16796875 C-9.97675138 0.32988163 -5.0792798 0.00806171 0 0 Z " fill="#336690" transform="translate(104.99609375,34.83203125)"/>
<path d="M0 0 C3.05815076 0.01611481 6.11498407 0.00003812 9.1730957 -0.01904297 C24.68384886 -0.03711849 39.2125355 1.39178008 53.93286133 6.57861328 C54.80700684 6.88049561 55.68115234 7.18237793 56.58178711 7.4934082 C75.7128366 14.24483068 92.02257886 23.20290272 107.49536133 36.39111328 C108.32551758 37.08720703 109.15567383 37.78330078 110.01098633 38.50048828 C125.89821971 52.24343249 135.99082506 68.43466506 138.49536133 89.39111328 C138.75945698 94.12451999 138.78208448 98.83881521 138.74536133 103.57861328 C138.73786865 104.8616333 138.73037598 106.14465332 138.72265625 107.46655273 C138.61564461 116.92363184 138.08930782 126.05742662 136.49536133 135.39111328 C136.35533691 136.2707373 136.2153125 137.15036133 136.07104492 138.05664062 C129.85869514 176.48547517 116.67160237 213.11357996 100.49536133 248.39111328 C99.86911865 249.77121582 99.86911865 249.77121582 99.23022461 251.17919922 C93.07338772 264.70421418 86.05780605 277.60231823 78.49536133 290.39111328 C84.38380127 290.5517071 89.71565811 289.95194488 95.49536133 288.89111328 C119.84601661 284.80083357 119.84601661 284.80083357 130.49536133 291.39111328 C131.58848633 291.98923828 132.68161133 292.58736328 133.80786133 293.20361328 C137.67050825 296.34762821 140.06846509 299.79961159 140.87939453 304.72241211 C141.03175976 307.29038531 141.04142416 309.81927171 140.99536133 312.39111328 C141.01083008 313.25478516 141.02629883 314.11845703 141.04223633 315.00830078 C140.99825546 322.24315418 139.15727952 326.51336389 134.18286133 331.89111328 C133.29598633 332.71611328 132.40911133 333.54111328 131.49536133 334.39111328 C131.05063477 334.88998047 130.6059082 335.38884766 130.14770508 335.90283203 C113.19201677 354.50638775 85.05168603 364.10410555 60.49536133 365.39111328 C53.16196977 365.58260914 45.829302 365.5217714 38.49536133 365.39111328 C38.48077881 366.06239258 38.46619629 366.73367188 38.45117188 367.42529297 C37.48594582 407.76696716 35.81064179 455.66011639 5.03442383 485.80126953 C-15.00367366 503.34212665 -41.8702552 508.58711071 -67.75463867 507.58642578 C-79.47207521 506.75422148 -89.72902201 500.95677963 -98.50463867 493.39111328 C-124.23938392 463.2432807 -125.51386197 417.12485122 -124.50463867 379.39111328 C-125.6622168 379.74044922 -126.81979492 380.08978516 -128.01245117 380.44970703 C-129.55145706 380.90953196 -131.09052274 381.3691568 -132.62963867 381.82861328 C-133.77045898 382.17375977 -133.77045898 382.17375977 -134.93432617 382.52587891 C-155.26827799 388.57347665 -179.41571982 386.75252828 -198.50463867 377.39111328 C-201.35054455 375.56865621 -203.92098854 373.56112484 -206.50463867 371.39111328 C-207.49463867 370.73111328 -208.48463867 370.07111328 -209.50463867 369.39111328 C-209.50463867 368.73111328 -209.50463867 368.07111328 -209.50463867 367.39111328 C-210.17108398 367.85001953 -210.8375293 368.30892578 -211.52416992 368.78173828 C-223.59323953 376.81653147 -234.08138077 380.02995686 -248.50463867 378.39111328 C-264.98121426 374.93634743 -278.31705298 362.1297937 -287.50463867 348.57861328 C-319.16885116 299.80896047 -333.64033567 239.05996251 -345.03466797 182.6998291 C-345.47329145 180.5451055 -345.92349572 178.39318627 -346.37768555 176.24169922 C-349.75038787 159.95129963 -350.96054571 144.16762913 -351.00463867 127.57861328 C-351.00940216 126.70214142 -351.01416565 125.82566956 -351.01907349 124.92263794 C-351.07923764 95.70245336 -344.71843972 66.19105185 -325.50463867 43.39111328 C-324.77245117 42.50810547 -324.04026367 41.62509766 -323.28588867 40.71533203 C-304.1684995 18.53512171 -276.52232607 8.84831135 -247.94750977 6.66210938 C-220.40082398 5.09594489 -190.10735624 8.9147407 -164.20996094 18.73779297 C-159.49218027 20.45457366 -157.05557933 20.48694122 -152.50463867 18.39111328 C-151.33030273 17.86775391 -150.1559668 17.34439453 -148.94604492 16.80517578 C-148.32068848 16.51602295 -147.69533203 16.22687012 -147.05102539 15.92895508 C-138.69726363 12.08515552 -130.52057723 9.33496136 -121.50463867 7.39111328 C-120.46952148 7.16552734 -119.4344043 6.93994141 -118.36791992 6.70751953 C-101.48638179 3.6966671 -83.54531158 4.74765029 -66.62573242 6.95361328 C-59.56042505 7.79361577 -53.42679397 7.67658346 -46.56713867 5.57861328 C-31.04827462 1.19093262 -16.08652001 -0.10058105 0 0 Z M-49.33520508 20.76489258 C-57.14915849 23.18924075 -63.87575037 22.70245423 -71.81713867 20.89111328 C-100.06808869 15.32283836 -128.74855336 19.9541978 -153.50463867 34.39111328 C-153.50463867 35.05111328 -153.50463867 35.71111328 -153.50463867 36.39111328 C-154.24810547 36.13942383 -154.99157227 35.88773438 -155.75756836 35.62841797 C-170.07020537 30.81637268 -184.2176548 26.22044062 -199.15991211 23.78076172 C-201.53497845 23.38607139 -203.89719897 22.94214136 -206.26245117 22.49267578 C-224.99962242 19.10842067 -244.75643823 18.92742856 -263.50463867 22.39111328 C-264.77694336 22.61283203 -266.04924805 22.83455078 -267.36010742 23.06298828 C-288.23111357 27.19168849 -307.4820033 39.86253648 -319.50463867 57.39111328 C-328.09464238 70.22105472 -332.90206151 84.24101181 -335.50463867 99.39111328 C-335.70959961 100.43138672 -335.91456055 101.47166016 -336.12573242 102.54345703 C-341.04861497 131.63939041 -335.84490743 160.138669 -329.18261719 188.4387207 C-328.56945805 191.10884436 -328.01312708 193.78045922 -327.48901367 196.46923828 C-322.64611834 221.20188481 -315.679808 245.45091589 -307.55541992 269.28173828 C-306.29580692 272.97707967 -305.1156088 276.67253221 -304.04370117 280.42626953 C-296.0901832 307.33796915 -280.92986628 344.43993482 -255.96166992 359.97314453 C-248.10290854 364.08963859 -240.44653505 364.70005277 -231.80932617 362.79736328 C-218.22348642 358.19776863 -207.93528817 343.97516812 -199.19213867 333.07861328 C-194.35002681 327.05869042 -189.06631037 321.49230913 -183.77026367 315.87548828 C-180.24701774 312.13430961 -176.83262366 308.30712569 -173.50463867 304.39111328 C-170.99979384 305.38588171 -168.50550843 306.3907368 -166.03198242 307.46142578 C-159.01986617 310.31703874 -153.03340547 310.86412481 -145.50463867 310.39111328 C-147.75364298 314.31505174 -150.26489247 317.51246234 -153.29760742 320.84033203 C-154.70937727 322.32663294 -154.70937727 322.32663294 -154.50463867 324.39111328 C-155.6087207 324.82617188 -155.6087207 324.82617188 -156.73510742 325.27001953 C-158.37569373 325.93412146 -160.00788531 326.62087653 -161.61791992 327.35595703 C-166.81715248 329.65543999 -171.91343696 330.94499028 -177.50463867 331.89111328 C-186.83198924 333.49409863 -194.62022043 335.68321859 -201.50463867 342.39111328 C-202.62618412 344.63420418 -202.76797083 346.0832665 -202.87963867 348.57861328 C-202.92862305 349.31466797 -202.97760742 350.05072266 -203.02807617 350.80908203 C-202.10029501 355.3856742 -199.51897297 358.93507872 -195.73852539 361.66772461 C-193.78039347 362.78425615 -191.80128546 363.7597525 -189.75463867 364.70361328 C-189.08948242 365.03683594 -188.42432617 365.37005859 -187.73901367 365.71337891 C-178.72284916 370.05674277 -170.10763792 370.73367847 -160.19213867 370.70361328 C-158.61529297 370.7277832 -158.61529297 370.7277832 -157.0065918 370.75244141 C-146.20187093 370.75908229 -136.6150647 368.50161042 -127.06713867 363.45361328 C-126.40004883 363.11910156 -125.73295898 362.78458984 -125.0456543 362.43994141 C-121.15197153 360.44110723 -117.89982894 358.18349073 -114.50463867 355.39111328 C-114.48180313 356.06080139 -114.45896759 356.7304895 -114.43544006 357.42047119 C-114.19387521 364.49554919 -113.95007766 371.57054794 -113.70507812 378.64550781 C-113.61435531 381.27341845 -113.52417074 383.90134773 -113.43457031 386.52929688 C-114.18202062 439.17979855 -114.18202062 439.17979855 -89.66088867 483.60986328 C-77.37649508 493.7578406 -63.95141737 495.73325525 -48.50463867 494.39111328 C-37.32757336 492.97887168 -26.61361043 490.46903572 -16.50463867 485.39111328 C-15.72217773 485.02373047 -14.9397168 484.65634766 -14.13354492 484.27783203 C-3.49621199 478.9130766 3.81027424 470.7207808 9.49536133 460.39111328 C10.00325195 459.49392578 10.51114258 458.59673828 11.03442383 457.67236328 C16.05829523 446.38880185 17.52509642 432.94843327 19.45239258 420.82470703 C19.62232727 419.75733307 19.79226196 418.68995911 19.96734619 417.59024048 C21.72136331 406.31844163 23.08283815 395.00721635 24.3605957 383.67285156 C24.75233605 380.20435866 25.15457826 376.73718753 25.55786133 373.27001953 C25.81367699 371.03701611 26.06890819 368.80394563 26.32348633 366.57080078 C26.44218079 365.54791962 26.56087524 364.52503845 26.6831665 363.47116089 C27.24875391 358.40759697 27.62857545 353.48610934 27.49536133 348.39111328 C28.84500977 348.87644531 28.84500977 348.87644531 30.22192383 349.37158203 C35.68643864 350.92210041 41.23134523 350.73213432 46.87036133 350.70361328 C48.02922852 350.69797363 49.1880957 350.69233398 50.38208008 350.68652344 C75.66532576 350.33146117 100.65568015 343.09997131 118.98364258 324.99267578 C124.80706841 319.08778392 124.80706841 319.08778392 127.24536133 311.32861328 C127.09141903 308.69106854 126.69606972 307.63133939 124.98754883 305.58642578 C120.4311933 301.60199773 117.45171633 300.11076823 111.25708008 300.16064453 C107.02219757 300.51405057 103.00544439 301.5646143 98.90161133 302.63720703 C90.78515631 304.43362425 82.65843564 304.5999303 74.37036133 304.64111328 C72.8022168 304.67205078 72.8022168 304.67205078 71.20239258 304.70361328 C65.16002094 304.73416889 60.84121945 304.26848734 55.49536133 301.39111328 C56.83051736 297.83175654 58.41549666 294.65130426 60.36645508 291.39111328 C60.93517334 290.43269531 61.5038916 289.47427734 62.08984375 288.48681641 C62.69803955 287.46523438 63.30623535 286.44365234 63.93286133 285.39111328 C74.99088671 266.59091006 84.7300456 247.36377302 93.49536133 227.39111328 C94.08679932 226.04460693 94.08679932 226.04460693 94.69018555 224.67089844 C97.4559937 218.30541161 100.03498318 211.88054576 102.49536133 205.39111328 C102.89078125 204.34971191 103.28620117 203.30831055 103.69360352 202.23535156 C109.86484363 185.65228484 114.23868649 168.90140427 118.05786133 151.64111328 C118.27586395 150.65867645 118.49386658 149.67623962 118.71847534 148.66403198 C119.34231908 145.83020407 119.95497899 142.99426312 120.56176758 140.15673828 C120.83447983 138.90048393 120.83447983 138.90048393 121.11270142 137.61885071 C125.41980687 117.02597807 127.99961781 87.23190244 117.46020508 68.26611328 C113.70303062 62.76853793 109.17201972 58.10802985 104.49536133 53.39111328 C103.81344727 52.66021484 103.1315332 51.92931641 102.42895508 51.17626953 C83.66778914 31.3967522 55.27531634 18.75108279 28.49536133 15.39111328 C27.84277344 15.3042627 27.19018555 15.21741211 26.51782227 15.12792969 C18.07909078 14.12997354 9.60569345 14.14753975 1.12036133 14.14111328 C0.31922913 14.14043854 -0.48190308 14.13976379 -1.30731201 14.1390686 C-17.95066275 14.16131518 -33.41396788 15.66639659 -49.33520508 20.76489258 Z " fill="#090909" transform="translate(351.504638671875,-0.39111328125)"/>
<path d="M0 0 C2.31203933 0.02374209 4.62292653 0.02050816 6.93505859 0.01391602 C41.83576895 0.07588601 70.72574912 11.65379157 96.18115234 35.33618164 C96.84501953 35.9459082 97.50888672 36.55563477 98.19287109 37.18383789 C106.851665 45.42941386 111.10808768 54.75329886 111.64990234 66.75024414 C112.08452476 96.44737304 106.55834909 123.652046 97.3503418 151.73364258 C96.24144027 155.15042081 95.19201337 158.5798036 94.15771484 162.01977539 C88.36409796 180.90198112 80.23814337 198.7959338 71.61865234 216.52368164 C71.22604218 217.33544861 70.83343201 218.14721558 70.42892456 218.98358154 C65.18921534 229.78064924 59.4997845 240.19523272 53.29666138 250.46792603 C51.54665427 253.39883963 49.86429706 256.36644967 48.18115234 259.33618164 C47.19115234 259.00618164 46.20115234 258.67618164 45.18115234 258.33618164 C45.8219839 254.13951645 47.27171965 250.73831915 49.05615234 246.89868164 C57.92800391 226.54327085 56.30529957 204.56724186 53.26220703 182.99072266 C51.42636636 169.58037555 51.28291483 156.74989777 54.09790039 143.49951172 C55.40656531 136.59484529 55.55047705 129.65918586 55.60302734 122.65008545 C55.61820141 120.64574494 55.65135517 118.64156574 55.68505859 116.63745117 C55.65971642 104.15484699 52.33451082 93.6789816 46.68115234 82.64868164 C46.2524585 81.80490967 45.82376465 80.9611377 45.38208008 80.09179688 C38.03824356 65.98240981 28.97443381 53.01295136 18.18115234 41.33618164 C17.69066406 40.80186523 17.20017578 40.26754883 16.69482422 39.71704102 C3.01647904 24.99054678 -13.20733276 13.0577307 -31.81884766 5.33618164 C-31.81884766 4.67618164 -31.81884766 4.01618164 -31.81884766 3.33618164 C-21.1253912 0.9259134 -10.95785826 -0.11984067 0 0 Z " fill="#346690" transform="translate(349.81884765625,27.663818359375)"/>
<path d="M0 0 C1.051875 0.515625 2.10375 1.03125 3.1875 1.5625 C13.92338801 10.86693628 14.75932361 29.57712808 15.75 42.9375 C15.8593477 45.62745341 15.9426482 48.30924472 16 51 C16.02578125 51.84175781 16.0515625 52.68351562 16.078125 53.55078125 C16.73337591 76.4518004 12.01557577 94.75719672 3.02612305 115.73046875 C0.12815166 122.54437635 -2.38086126 129.45602037 -4.7734375 136.4609375 C-5.7737684 139.34724257 -6.83401984 142.17767419 -8 145 C-20.91794779 146.31220689 -31.97873571 140.48006067 -41.7890625 132.5546875 C-51.77605487 123.47974922 -59.23311596 110.10177421 -60.16601562 96.59667969 C-60.45199334 89.20892201 -60.36235448 81.85160965 -59.48291016 74.50756836 C-58.8519445 68.33611214 -58.95627223 62.21570669 -59.03515625 56.01953125 C-59.04118051 53.53190621 -59.04435092 51.0442729 -59.04492188 48.55664062 C-59.04664546 44.67142387 -59.06288164 40.78927217 -59.12670898 36.90454102 C-59.18409144 33.12896568 -59.17787451 29.35790663 -59.16015625 25.58203125 C-59.19303238 24.42459915 -59.22590851 23.26716705 -59.25978088 22.07466125 C-59.14384419 14.20694637 -59.14384419 14.20694637 -55.85888672 10.74076843 C-50.61810703 6.98529405 -44.92161823 4.36660413 -38.875 2.1875 C-38.12863281 1.90197266 -37.38226563 1.61644531 -36.61328125 1.32226562 C-24.74100891 -3.12725557 -11.83887101 -5.9194355 0 0 Z " fill="#346691" transform="translate(216,151)"/>
<path d="M0 0 C1.52753906 0.01450195 1.52753906 0.01450195 3.0859375 0.02929688 C7.26000772 0.09245715 11.09397319 0.15067083 15.125 1.3125 C15.43121972 7.73177265 15.3280731 13.82130349 14.05053711 20.13916016 C10.11742596 39.64901615 11.53333276 59.83892102 14.04174805 79.44482422 C15.9514771 94.41700666 16.7963926 110.62839429 9.125 124.3125 C5.6176449 121.18720972 3.82593977 118.10090921 1.8125 113.875 C-0.88723656 108.29729315 -3.65833828 102.76236082 -6.51953125 97.265625 C-6.84454117 96.64086777 -7.16955109 96.01611053 -7.50440979 95.37242126 C-8.82329702 92.83917611 -10.14329075 90.30652627 -11.46768188 87.77615356 C-17.76882101 75.73105292 -23.73882019 63.79979402 -27.6875 50.75 C-27.98591797 49.79287109 -28.28433594 48.83574219 -28.59179688 47.84960938 C-30.81872264 40.66614004 -32.10050968 34.59006219 -32.1875 27.0625 C-32.21650391 26.24136719 -32.24550781 25.42023438 -32.27539062 24.57421875 C-32.35177709 17.158856 -30.38607867 11.94315385 -25.25 6.5625 C-17.50814538 0.82944026 -9.39155262 -0.27371753 0 0 Z " fill="#376891" transform="translate(376.875,145.6875)"/>
<path d="M0 0 C4.66770184 1.16692546 7.35136078 3.29235916 10.5 6.875 C12.62994491 10.57925202 12.8408017 13.64381582 12.5 17.875 C6.27939659 28.57907022 -3.17990558 35.49147407 -14.5 39.875 C-15.23347656 40.19597656 -15.96695313 40.51695312 -16.72265625 40.84765625 C-29.30239999 45.61775308 -46.34141884 44.22907329 -58.5 38.875 C-59.52822291 37.90404292 -60.53414359 36.90801568 -61.5 35.875 C-54.15789229 33.3333717 -46.73234697 31.22004378 -39.22851562 29.21289062 C-30.99694778 26.93069296 -24.27248203 24.36904228 -18.5 17.875 C-17.89414063 17.20210938 -17.28828125 16.52921875 -16.6640625 15.8359375 C-12.5555526 11.27220327 -12.5555526 11.27220327 -8.67578125 6.515625 C-4.40350635 1.10087659 -4.40350635 1.10087659 0 0 Z " fill="#386891" transform="translate(226.5,313.125)"/>
<path d="M0 0 C1.24528059 0.63605927 2.47419791 1.30487901 3.6875 2 C9.00637995 4.76983182 14.07712138 4.86197953 20 5 C21.25369385 5.0306958 21.25369385 5.0306958 22.53271484 5.06201172 C34.86707411 5.32306777 46.80956537 4.98160911 59 3 C45.96724147 16.73850358 24.96356981 22.53475552 6.4453125 23.28515625 C4.48457073 23.32595424 2.52357347 23.35593197 0.5625 23.375 C-0.82304077 23.39590698 -0.82304077 23.39590698 -2.23657227 23.41723633 C-8.16259764 23.37593064 -12.57550841 22.39819628 -18 20 C-18.30490481 13.93034047 -18.10318632 9.45732767 -15 4 C-10.00499328 -0.74525638 -6.69417954 -1.42662843 0 0 Z " fill="#396991" transform="translate(399,313)"/>
<path d="M0 0 C5.77939619 2.52158369 5.77939619 2.52158369 7.390625 4.1328125 C7.765625 6.8828125 7.765625 6.8828125 7.390625 10.1328125 C4.84038135 13.23446019 3.21363253 14.85847666 -0.609375 16.1328125 C-7.45582893 16.57451921 -10.41792603 15.61505058 -15.859375 11.3828125 C-18.18335152 8.39484269 -18.32348421 5.84939279 -18.609375 2.1328125 C-12.67311612 -1.61640364 -6.63833311 -2.20615262 0 0 Z " fill="#F3F9FA" transform="translate(212.609375,156.8671875)"/>
<path d="M0 0 C1.04285156 -0.01417969 2.08570313 -0.02835938 3.16015625 -0.04296875 C5.9375 0.1875 5.9375 0.1875 8.9375 2.1875 C8.66051826 6.15757156 8.17065777 7.91139212 5.5625 11 C1.84449007 14.09834161 -1.18920239 14.53964277 -5.9921875 14.46875 C-9.46975731 13.99632542 -11.50167889 12.49848491 -14.0625 10.1875 C-14.9375 7.4375 -14.9375 7.4375 -15.0625 5.1875 C-9.91311677 0.75330888 -6.71609481 0.04161149 0 0 Z " fill="#F5FAFB" transform="translate(370.0625,152.8125)"/>
<path d="M0 0 C5.44575042 0.39846954 9.17431338 2.18357655 13 6 C14.64932227 8.61182998 15.7876691 11.13889908 17 14 C15.02 16.97 13.04 19.94 11 23 C9.68 22.34 8.36 21.68 7 21 C7.47050781 20.60167969 7.94101563 20.20335937 8.42578125 19.79296875 C10.31760553 17.6382607 10.66060789 16.10908118 11.1875 13.3125 C11.34605469 12.50425781 11.50460938 11.69601563 11.66796875 10.86328125 C11.77753906 10.24839844 11.88710937 9.63351563 12 9 C9.03 8.505 9.03 8.505 6 8 C6.66 7.67 7.32 7.34 8 7 C8 6.01 8 5.02 8 4 C7.05125 3.71125 6.1025 3.4225 5.125 3.125 C2 2 2 2 0 0 Z " fill="#416C91" transform="translate(209,149)"/>
<path d="M0 0 C2.475 0.99 2.475 0.99 5 2 C4.57847656 2.77085937 4.15695312 3.54171875 3.72265625 4.3359375 C3.17480469 5.33882813 2.62695312 6.34171875 2.0625 7.375 C1.51722656 8.37273437 0.97195313 9.37046875 0.41015625 10.3984375 C-0.4149759 11.92070346 -1.22564391 13.45128783 -2 15 C-2.99 14.67 -3.98 14.34 -5 14 C-4.34580901 8.93001981 -2.1453591 4.58009223 0 0 Z " fill="#497090" transform="translate(400,272)"/>
<path d="M0 0 C1.8125 0.75 1.8125 0.75 2.8125 2.75 C2.1525 2.75 1.4925 2.75 0.8125 2.75 C0.8125 3.41 0.8125 4.07 0.8125 4.75 C5.1025 4.75 9.3925 4.75 13.8125 4.75 C14.1425 5.41 14.4725 6.07 14.8125 6.75 C13.41837891 6.71519531 13.41837891 6.71519531 11.99609375 6.6796875 C2.71302792 6.51496375 2.71302792 6.51496375 -6.1875 8.75 C-5.68146008 6.58125748 -5.18766187 4.75032373 -4.1875 2.75 C-4.8475 2.42 -5.5075 2.09 -6.1875 1.75 C-3.9127187 0.36888278 -2.68578639 -0.30694702 0 0 Z " fill="#4D7597" transform="translate(363.1875,147.25)"/>
<path d="M0 0 C-0.8125 3.4375 -0.8125 3.4375 -2 7 C-4.33693224 7.77897741 -6.61642277 8.40410569 -9 9 C-9.99 9.33 -10.98 9.66 -12 10 C-10.26157666 3.9155183 -6.51136236 0 0 0 Z " fill="#456E90" transform="translate(359,150)"/>
<path d="M0 0 C4.11200911 0.98992812 5.71661308 2.59021282 8.375 5.8125 C7.488125 5.461875 6.60125 5.11125 5.6875 4.75 C2.25386099 3.77821538 0.6983476 3.64483733 -2.625 4.8125 C-3.6444119 5.79270375 -4.64746356 6.79053008 -5.625 7.8125 C-6.615 7.8125 -7.605 7.8125 -8.625 7.8125 C-8.625 8.4725 -8.625 9.1325 -8.625 9.8125 C-9.285 9.4825 -9.945 9.1525 -10.625 8.8125 C-4.97166237 1.11433812 -4.97166237 1.11433812 0 0 Z " fill="#466C8E" transform="translate(226.625,313.1875)"/>
<path d="M0 0 C2.0625 0.4375 2.0625 0.4375 4 1 C4 3 4 3 1.80078125 5.26171875 C0.87652344 6.16535156 -0.04773438 7.06898437 -1 8 C-2.62781995 9.91767024 -4.23252733 11.85522043 -5.8125 13.8125 C-6.60269531 14.78832031 -7.39289063 15.76414062 -8.20703125 16.76953125 C-8.79871094 17.50558594 -9.39039063 18.24164063 -10 19 C-11 17 -11 17 -10.3125 14.625 C-8.89083271 11.78166541 -7.42207272 10.04362386 -5 8 C-4.34 8 -3.68 8 -3 8 C-3 7.34 -3 6.68 -3 6 C-2.34 6 -1.68 6 -1 6 C-1.020625 5.195625 -1.04125 4.39125 -1.0625 3.5625 C-1 1 -1 1 0 0 Z " fill="#416787" transform="translate(179,45)"/>
<path d="M0 0 C5.37027643 0.39294706 9.1429854 2.32361694 13 6 C14.41687119 10.25061356 13.19320039 12.71851625 12 17 C11.12159004 13.90279155 11.00564594 12.09354597 12 9 C9.03 8.505 9.03 8.505 6 8 C6.66 7.67 7.32 7.34 8 7 C8 6.01 8 5.02 8 4 C7.05125 3.71125 6.1025 3.4225 5.125 3.125 C2 2 2 2 0 0 Z " fill="#456D8E" transform="translate(209,149)"/>
<path d="M0 0 C1 3 1 3 -0.3125 5.9375 C-0.869375 6.948125 -1.42625 7.95875 -2 9 C-2.391875 9.78375 -2.78375 10.5675 -3.1875 11.375 C-3.455625 11.91125 -3.72375 12.4475 -4 13 C-4.99 13 -5.98 13 -7 13 C-7.33 14.32 -7.66 15.64 -8 17 C-8.66 17 -9.32 17 -10 17 C-8.68018255 12.31812124 -6.80204328 8.99625079 -3.875 5.125 C-3.15054688 4.15820312 -2.42609375 3.19140625 -1.6796875 2.1953125 C-1.12539063 1.47085938 -0.57109375 0.74640625 0 0 Z " fill="#456E90" transform="translate(49,58)"/>
<path d="M0 0 C0.66 0.33 1.32 0.66 2 1 C1.67949202 3.33512959 1.34403308 5.66822025 1 8 C0.9175 8.928125 0.835 9.85625 0.75 10.8125 C0 13 0 13 -2.5625 14.3125 C-3.7690625 14.6528125 -3.7690625 14.6528125 -5 15 C-1.92482916 4.44191344 -1.92482916 4.44191344 0 0 Z " fill="#416C8F" transform="translate(227,283)"/>
<path d="M0 0 C3.26464899 0.97057132 4.71692702 1.59111681 6.6875 4.4375 C7.120625 5.283125 7.55375 6.12875 8 7 C8.99 8.485 8.99 8.485 10 10 C6.03869629 10 5.17085599 8.65122875 2.3125 6 C1.50425781 5.2575 0.69601562 4.515 -0.13671875 3.75 C-0.75160156 3.1725 -1.36648438 2.595 -2 2 C-1.34 1.34 -0.68 0.68 0 0 Z " fill="#426C91" transform="translate(352,50)"/>
<path d="M0 0 C0.33 0 0.66 0 1 0 C1.33 3.3 1.66 6.6 2 10 C-2 11 -2 11 -4 11 C-3.52269162 9.5410574 -3.04308958 8.08286504 -2.5625 6.625 C-2.29566406 5.81289062 -2.02882812 5.00078125 -1.75390625 4.1640625 C-1 2 -1 2 0 0 Z " fill="#4E7594" transform="translate(173,85)"/>
<path d="M0 0 C0.33 0 0.66 0 1 0 C1.53084792 2.91516484 2.04999055 5.83160557 2.5625 8.75 C2.71396484 9.575 2.86542969 10.4 3.02148438 11.25 C3.16005859 12.04921875 3.29863281 12.8484375 3.44140625 13.671875 C3.57232666 14.4050293 3.70324707 15.13818359 3.83813477 15.89355469 C4.01247412 18.16233287 3.66874807 19.83778579 3 22 C0.02210887 14.878956 -2.22912519 7.67809786 0 0 Z " fill="#517795" transform="translate(46,216)"/>
<path d="M0 0 C0 1.65 0 3.3 0 5 C-2.97 4.01 -5.94 3.02 -9 2 C-9 1.34 -9 0.68 -9 0 C-5.67465243 -1.10844919 -3.37817425 -0.84454356 0 0 Z " fill="#527593" transform="translate(327,31)"/>
<path d="M0 0 C0.66 0 1.32 0 2 0 C2.33 1.98 2.66 3.96 3 6 C-2.61 6 -8.22 6 -14 6 C-14 5.67 -14 5.34 -14 5 C-7.565 4.505 -7.565 4.505 -1 4 C-0.67 2.68 -0.34 1.36 0 0 Z " fill="#577A96" transform="translate(387,126)"/>
<path d="M0 0 C0.33 0.99 0.66 1.98 1 3 C-0.23889596 4.48847937 -1.4915672 5.96550105 -2.75 7.4375 C-3.79414063 8.67306641 -3.79414063 8.67306641 -4.859375 9.93359375 C-7.01343015 12.01296451 -8.08310781 12.63867326 -11 13 C-10.62488281 12.56429688 -10.24976563 12.12859375 -9.86328125 11.6796875 C-6.54140223 7.81392401 -3.25357073 3.92342352 0 0 Z " fill="#4E7290" transform="translate(215,323)"/>
<path d="M0 0 C0.99 0.66 1.98 1.32 3 2 C1.02 6.29 -0.96 10.58 -3 15 C-4.27351308 12.45297384 -3.80191925 11.5717055 -3.0625 8.875 C-2.86785156 8.15054687 -2.67320312 7.42609375 -2.47265625 6.6796875 C-2.31667969 6.12539063 -2.16070312 5.57109375 -2 5 C-1.34 5 -0.68 5 0 5 C0 3.35 0 1.7 0 0 Z " fill="#436B8D" transform="translate(220,255)"/>
<path d="M0 0 C0.66 0 1.32 0 2 0 C1.33501617 4.38889325 -0.18757677 7.9811485 -2 12 C-2.99 10.68 -3.98 9.36 -5 8 C-4.34 7.01 -3.68 6.02 -3 5 C-2.34 5 -1.68 5 -1 5 C-0.67 3.35 -0.34 1.7 0 0 Z " fill="#466E8E" transform="translate(432,214)"/>
<path d="M0 0 C0.33 0.66 0.66 1.32 1 2 C-0.10152406 3.43952597 -1.2063304 4.87654071 -2.3125 6.3125 C-2.92738281 7.11300781 -3.54226562 7.91351563 -4.17578125 8.73828125 C-5.69916307 10.62701374 -7.24434407 12.33077636 -9 14 C-9.66 13.67 -10.32 13.34 -11 13 C-10.06027344 11.96939453 -10.06027344 11.96939453 -9.1015625 10.91796875 C-8.28429687 10.01691406 -7.46703125 9.11585938 -6.625 8.1875 C-5.81289062 7.29417969 -5.00078125 6.40085937 -4.1640625 5.48046875 C-1.90927093 3.00367326 -1.90927093 3.00367326 0 0 Z " fill="#D8E8F1" transform="translate(143,320)"/>
<path d="M0 0 C2 3.75 2 3.75 2 6 C1.34 6 0.68 6 0 6 C0 8.31 0 10.62 0 13 C-0.66 13 -1.32 13 -2 13 C-2.33 14.32 -2.66 15.64 -3 17 C-4.6168484 13.76630321 -3.00851816 10.69371743 -2.0625 7.375 C-1.76956055 6.31539062 -1.76956055 6.31539062 -1.47070312 5.234375 C-0.98685508 3.48780156 -0.49424877 1.74365876 0 0 Z " fill="#6A8AA4" transform="translate(244,234)"/>
<path d="M0 0 C-6.93 2.97 -6.93 2.97 -14 6 C-13.67 4.68 -13.34 3.36 -13 2 C-9.25 0.875 -9.25 0.875 -7 2 C-7 1.34 -7 0.68 -7 0 C-4 -1 -4 -1 0 0 Z " fill="#466C8B" transform="translate(174,140)"/>
<path d="M0 0 C0.66 0.33 1.32 0.66 2 1 C0 4 0 4 -2.3125 4.875 C-5.67259378 6.28155088 -7.5538473 8.34417707 -10 11 C-10.66 10.67 -11.32 10.34 -12 10 C-4.40952513 2.01578292 -4.40952513 2.01578292 0 0 Z " fill="#D4E5F0" transform="translate(349,137)"/>
<path d="M0 0 C0.66 0 1.32 0 2 0 C1.91276622 1.77174819 1.80458345 3.54247377 1.6875 5.3125 C1.62949219 6.29863281 1.57148438 7.28476563 1.51171875 8.30078125 C0.95377187 11.24384457 0.31459868 12.18182999 -2 14 C-1.03644647 4.58997722 -1.03644647 4.58997722 0 0 Z " fill="#4F7493" transform="translate(162,117)"/>
<path d="M0 0 C1.32 0.33 2.64 0.66 4 1 C4.84454356 4.37817425 5.10844919 6.67465243 4 10 C0 3.375 0 3.375 0 0 Z " fill="#446D8E" transform="translate(386,89)"/>
<path d="M0 0 C0.66 1.32 1.32 2.64 2 4 C1.319375 4.8353125 1.319375 4.8353125 0.625 5.6875 C-1.03733768 8.05313439 -2.02144543 10.29015658 -3 13 C-3.66 13 -4.32 13 -5 13 C-4.54554036 11.58208592 -4.08625056 10.16571954 -3.625 8.75 C-3.24214844 7.56664062 -3.24214844 7.56664062 -2.8515625 6.359375 C-2.04826333 4.13372042 -1.10288338 2.09068328 0 0 Z " fill="#416A8C" transform="translate(241,250)"/>
<path d="M0 0 C1.46015291 0.28241641 2.91809793 0.57626614 4.375 0.875 C5.18710937 1.03742187 5.99921875 1.19984375 6.8359375 1.3671875 C9 2 9 2 11 4 C10.01 4.33 9.02 4.66 8 5 C8 4.34 8 3.68 8 3 C4.37 3.33 0.74 3.66 -3 4 C-2.67 3.34 -2.34 2.68 -2 2 C-1.34 2 -0.68 2 0 2 C0 1.34 0 0.68 0 0 Z " fill="#4C7393" transform="translate(397,34)"/>
<path d="M0 0 C-2.97 2.475 -2.97 2.475 -6 5 C-6.66 4.67 -7.32 4.34 -8 4 C-8 2.68 -8 1.36 -8 0 C-4.94736336 -0.98120464 -3.05263664 -0.98120464 0 0 Z " fill="#4D708D" transform="translate(458,317)"/>
<path d="M0 0 C1.01562016 3.17744022 0.96666643 5.37828389 0.25 8.625 C0.01023437 9.78902344 0.01023437 9.78902344 -0.234375 10.9765625 C-1 13 -1 13 -4 15 C-3.52229477 13.06213915 -3.04278429 11.12472326 -2.5625 9.1875 C-2.29566406 8.10855469 -2.02882813 7.02960938 -1.75390625 5.91796875 C-1.23922588 3.9259157 -0.65062825 1.95188476 0 0 Z " fill="#D1E3EE" transform="translate(451,164)"/>
<path d="M0 0 C2.19726562 1.85546875 2.19726562 1.85546875 4.39453125 3.7109375 C5.8655046 4.89201099 7.43037794 5.95358529 9 7 C3.375 7.25 3.375 7.25 0 5 C-0.1875 2.375 -0.1875 2.375 0 0 Z " fill="#4B6F8D" transform="translate(195,166)"/>
<path d="M0 0 C0.66 0.33 1.32 0.66 2 1 C1.34 2.32 0.68 3.64 0 5 C0.66 5.66 1.32 6.32 2 7 C2 7.99 2 8.98 2 10 C0.0625 9.3125 0.0625 9.3125 -2 8 C-2.9375 5.5625 -2.9375 5.5625 -3 3 C-1.5625 1.1875 -1.5625 1.1875 0 0 Z " fill="#D3E7F2" transform="translate(358,155)"/>
<path d="M0 0 C0 0.66 0 1.32 0 2 C-0.99 2 -1.98 2 -3 2 C-3.20625 2.61875 -3.4125 3.2375 -3.625 3.875 C-5.54775888 6.84653645 -7.66594527 7.13024659 -11 8 C-9.83630874 4.50892621 -9.11026462 4.14777237 -6.0625 2.3125 C-5.35222656 1.87550781 -4.64195312 1.43851563 -3.91015625 0.98828125 C-2 0 -2 0 0 0 Z " fill="#547793" transform="translate(170,157)"/>
<path d="M0 0 C0.33 0 0.66 0 1 0 C1.28875 0.969375 1.5775 1.93875 1.875 2.9375 C2.64214682 6.10664203 2.64214682 6.10664203 5 7 C5 7.99 5 8.98 5 10 C3.35 9.67 1.7 9.34 0 9 C0 6.03 0 3.06 0 0 Z " fill="#4D6F8D" transform="translate(381,324)"/>
<path d="M0 0 C2.0625 0.4375 2.0625 0.4375 4 1 C4 3 4 3 1.625 5.5625 C-1 8 -1 8 -3 9 C-3 8.01 -3 7.02 -3 6 C-2.34 6 -1.68 6 -1 6 C-1.0309375 4.7934375 -1.0309375 4.7934375 -1.0625 3.5625 C-1 1 -1 1 0 0 Z " fill="#4A6D89" transform="translate(179,45)"/>
<path d="M0 0 C0.33 0.99 0.66 1.98 1 3 C1.66 3 2.32 3 3 3 C3 3.99 3 4.98 3 6 C3.66 6 4.32 6 5 6 C4.67 7.32 4.34 8.64 4 10 C-0.60921053 4.64736842 -0.60921053 4.64736842 -1 1 C-0.67 0.67 -0.34 0.34 0 0 Z " fill="#4B718F" transform="translate(161,261)"/>
<path d="M0 0 C1.63800475 4.5500132 0.83757562 9.07850298 -1.0625 13.4375 C-1.5265625 14.2109375 -1.5265625 14.2109375 -2 15 C-2.66 15 -3.32 15 -4 15 C-3.52229477 13.06213915 -3.04278429 11.12472326 -2.5625 9.1875 C-2.29566406 8.10855469 -2.02882813 7.02960938 -1.75390625 5.91796875 C-1.23922588 3.9259157 -0.65062825 1.95188476 0 0 Z " fill="#D0E6EF" transform="translate(446,180)"/>
<path d="M0 0 C1.45880109 0.14107747 2.91703551 0.28802415 4.375 0.4375 C5.59316406 0.55931641 5.59316406 0.55931641 6.8359375 0.68359375 C9 1 9 1 11 2 C10.67 3.32 10.34 4.64 10 6 C6.59244728 4.07119658 3.25852365 2.1723491 0 0 Z " fill="#436A8D" transform="translate(210,156)"/>
<path d="M0 0 C3 1 3 1 4.16796875 3.06640625 C4.50441406 3.89011719 4.84085937 4.71382813 5.1875 5.5625 C5.53167969 6.38878906 5.87585938 7.21507812 6.23046875 8.06640625 C6.48441406 8.70449219 6.73835938 9.34257812 7 10 C6.34 10.66 5.68 11.32 5 12 C3.35 8.04 1.7 4.08 0 0 Z " fill="#456C8C" transform="translate(71,300)"/>
<path d="M0 0 C0.33 0 0.66 0 1 0 C1.33 3.96 1.66 7.92 2 12 C1.34 12 0.68 12 0 12 C-0.19573608 10.56359829 -0.38127816 9.12580496 -0.5625 7.6875 C-0.66691406 6.88699219 -0.77132813 6.08648437 -0.87890625 5.26171875 C-1 3 -1 3 0 0 Z " fill="#466E8F" transform="translate(347,178)"/>
<path d="M0 0 C3.33557632 2.9905167 5.15083921 5.93184627 7 10 C4.625 9.5 4.625 9.5 2 8 C0.91758097 5.33474712 0.50727893 2.8592085 0 0 Z " fill="#4E7592" transform="translate(370,94)"/>
<path d="M0 0 C-0.99 1.32 -1.98 2.64 -3 4 C-5.475 3.01 -5.475 3.01 -8 2 C-7 0 -7 0 -5.125 -0.6875 C-3 -1 -3 -1 0 0 Z " fill="#517595" transform="translate(173,348)"/>
<path d="M0 0 C0.66 0.99 1.32 1.98 2 3 C1.34 4.32 0.68 5.64 0 7 C-1.65 7 -3.3 7 -5 7 C-3.35 4.69 -1.7 2.38 0 0 Z " fill="#4D7496" transform="translate(378,159)"/>
<path d="M0 0 C0 0.66 0 1.32 0 2 C-3.63 3.32 -7.26 4.64 -11 6 C-9 2 -9 2 -6.0625 0.75 C-3 0 -3 0 0 0 Z " fill="#466C8B" transform="translate(357,133)"/>
<path d="M0 0 C0.66 0 1.32 0 2 0 C2 1.98 2 3.96 2 6 C0.02 6.99 0.02 6.99 -2 8 C-1.125 2.25 -1.125 2.25 0 0 Z " fill="#456E90" transform="translate(34,87)"/>
<path d="M0 0 C4.2742558 1.5830577 6.26531794 4.50568404 9 8 C6.5625 7.1875 6.5625 7.1875 4 6 C3.67 5.01 3.34 4.02 3 3 C2.01 3 1.02 3 0 3 C0 2.01 0 1.02 0 0 Z " fill="#416988" transform="translate(349,71)"/>
<path d="M0 0 C0 0.99 0 1.98 0 3 C-0.99 3.33 -1.98 3.66 -3 4 C-3.33 4.99 -3.66 5.98 -4 7 C-4 6.34 -4 5.68 -4 5 C-4.99 4.67 -5.98 4.34 -7 4 C-4.82575883 1.49962266 -3.26954202 0.56371414 0 0 Z " fill="#477095" transform="translate(57,53)"/>
<path d="M0 0 C1 3 1 3 0.22265625 4.82421875 C-0.8515625 6.54947917 -1.92578125 8.27473958 -3 10 C-3.66 9.01 -4.32 8.02 -5 7 C-3.35 4.69 -1.7 2.38 0 0 Z " fill="#517797" transform="translate(49,58)"/>
<path d="M0 0 C6.625 0.75 6.625 0.75 10 3 C7.69 3.33 5.38 3.66 3 4 C2.01 2.68 1.02 1.36 0 0 Z " fill="#426A8C" transform="translate(296,40)"/>
<path d="M0 0 C0.99 1.32 1.98 2.64 3 4 C2.1875 5.9375 2.1875 5.9375 1 8 C0.01 8.33 -0.98 8.66 -2 9 C-1.34 6.03 -0.68 3.06 0 0 Z " fill="#406B8E" transform="translate(365,263)"/>
<path d="M0 0 C-4.22949995 2.41685712 -7.12335991 3.34833144 -12 3 C-4.82142857 -1.78571429 -4.82142857 -1.78571429 0 0 Z " fill="#5D7D96" transform="translate(190,151)"/>
<path d="M0 0 C0.99 0 1.98 0 3 0 C3 0.66 3 1.32 3 2 C3.66 2 4.32 2 5 2 C5.33 3.65 5.66 5.3 6 7 C1.125 3.375 1.125 3.375 0 0 Z " fill="#46698A" transform="translate(266,465)"/>
<path d="M0 0 C0.33 0 0.66 0 1 0 C1.36923077 6.4 1.36923077 6.4 -0.5 9.4375 C-0.995 9.953125 -1.49 10.46875 -2 11 C-2 9.02 -2 7.04 -2 5 C-1.34 5 -0.68 5 0 5 C-0.2784375 4.0409375 -0.2784375 4.0409375 -0.5625 3.0625 C-0.7790625 2.0415625 -0.7790625 2.0415625 -1 1 C-0.67 0.67 -0.34 0.34 0 0 Z " fill="#406889" transform="translate(348,445)"/>
<path d="M0 0 C0.99 0 1.98 0 3 0 C2.67 0.99 2.34 1.98 2 3 C-0.5625 4.1875 -0.5625 4.1875 -3 5 C-3.66 4.01 -4.32 3.02 -5 2 C-3.35 2 -1.7 2 0 2 C0 1.34 0 0.68 0 0 Z " fill="#466C8D" transform="translate(221,345)"/>
<path d="M0 0 C1.9375 0.75 1.9375 0.75 4 2 C4.75 4.125 4.75 4.125 5 6 C4.01 6.33 3.02 6.66 2 7 C1.34 4.69 0.68 2.38 0 0 Z " fill="#476E90" transform="translate(249,313)"/>
<path d="M0 0 C1.32 1.32 2.64 2.64 4 4 C3.67 4.99 3.34 5.98 3 7 C2.01 6.67 1.02 6.34 0 6 C0 4.02 0 2.04 0 0 Z " fill="#4D728F" transform="translate(383,293)"/>
<path d="M0 0 C0.66 0 1.32 0 2 0 C2 0.66 2 1.32 2 2 C2.99 2.66 3.98 3.32 5 4 C3.02 4.66 1.04 5.32 -1 6 C-1.042721 4.33388095 -1.04063832 2.66617115 -1 1 C-0.67 0.67 -0.34 0.34 0 0 Z " fill="#426E93" transform="translate(195,153)"/>
<path d="M0 0 C3 1 3 1 4.25 3.3125 C5.04631835 6.16597407 4.8214856 7.24802325 4 10 C3.32845067 8.71086513 2.66291141 7.41859796 2 6.125 C1.62875 5.40570313 1.2575 4.68640625 0.875 3.9453125 C0 2 0 2 0 0 Z " fill="#4C708F" transform="translate(396,108)"/>
<path d="M0 0 C2.475 0.99 2.475 0.99 5 2 C5 2.99 5 3.98 5 5 C3.02 4.34 1.04 3.68 -1 3 C-0.67 2.01 -0.34 1.02 0 0 Z " fill="#406688" transform="translate(426,48)"/>
<path d="M0 0 C2 3 2 3 3 6 C1.35 6.66 -0.3 7.32 -2 8 C-1.34 5.36 -0.68 2.72 0 0 Z " fill="#5B81A0" transform="translate(224,290)"/>
<path d="M0 0 C2 3 2 3 1.625 6.1875 C1.41875 7.115625 1.2125 8.04375 1 9 C0.01 8.67 -0.98 8.34 -2 8 C-1.34 5.36 -0.68 2.72 0 0 Z " fill="#557B99" transform="translate(230,274)"/>
<path d="M0 0 C1.55078125 1.20703125 1.55078125 1.20703125 3 3 C2.85546875 5.26171875 2.85546875 5.26171875 2.1875 7.6875 C1.86845703 8.89986328 1.86845703 8.89986328 1.54296875 10.13671875 C1.27419922 11.05904297 1.27419922 11.05904297 1 12 C-0.17246771 7.90097902 -0.07076062 4.24563742 0 0 Z " fill="#5A7C9A" transform="translate(220,154)"/>
<path d="M0 0 C0.33 1.32 0.66 2.64 1 4 C-1.07553648 4.5534764 -2.84365964 5 -5 5 C-4.34 3.68 -3.68 2.36 -3 1 C-2.34 1 -1.68 1 -1 1 C-0.67 0.67 -0.34 0.34 0 0 Z " fill="#437198" transform="translate(174,91)"/>
<path d="M0 0 C2.5625 2.25 2.5625 2.25 5 5 C4.8125 7.3125 4.8125 7.3125 4 9 C3.34 9 2.68 9 2 9 C1.855625 8.2575 1.71125 7.515 1.5625 6.75 C1.09812508 4.47972261 0.58136431 2.24240521 0 0 Z " fill="#497091" transform="translate(451,69)"/>
</svg>
