<?xml version="1.0" encoding="UTF-8"?>
<svg version="1.1" xmlns="http://www.w3.org/2000/svg" width="500" height="500">
<path d="M0 0 C0.67160156 0.28568848 1.34320313 0.57137695 2.03515625 0.86572266 C21.92667647 9.4683404 39.73415784 21.16063341 55.66015625 35.84765625 C57.96430584 37.96716614 60.31995434 40.01435342 62.6875 42.0625 C66.84734194 45.77302104 70.4612564 49.69949164 74 54 C74.42651855 54.50354004 74.85303711 55.00708008 75.29248047 55.52587891 C83.65084577 65.40499038 90.56356145 75.7854193 97 87 C97.37108887 87.63373535 97.74217773 88.2674707 98.12451172 88.92041016 C123.54796679 132.55873345 128.52907004 187.40780083 116.1875 235.875 C113.69321928 245.15128254 110.77421976 254.16586188 107 263 C106.71431152 263.67160156 106.42862305 264.34320313 106.13427734 265.03515625 C98.72882119 282.15852326 89.04459478 297.76335441 77 312 C76.29746094 312.83273437 75.59492188 313.66546875 74.87109375 314.5234375 C72.63724857 317.07519234 70.33804876 319.54312664 68 322 C67.44747559 322.58507324 66.89495117 323.17014648 66.32568359 323.77294922 C53.08563306 337.70670973 38.74502868 349.4982644 22 359 C20.86691406 359.65355469 19.73382813 360.30710937 18.56640625 360.98046875 C-21.82010828 383.74367678 -71.56866386 391.15474762 -117 382 C-117.82532227 381.83371094 -118.65064453 381.66742188 -119.50097656 381.49609375 C-153.893045 374.26129945 -184.83801314 358.32942325 -211 335 C-211.52078125 334.54093262 -212.0415625 334.08186523 -212.578125 333.60888672 C-228.48998978 319.55307794 -241.54000965 303.3201395 -251.96630859 284.83251953 C-252.64677674 283.62619125 -253.33443956 282.42388861 -254.02978516 281.22607422 C-279.5562445 237.19262666 -284.68644863 182.22491924 -272.11181641 133.33105469 C-263.73161535 102.63009962 -248.67308451 74.67844952 -227.0859375 51.2734375 C-225.1477745 49.1610576 -223.28976729 47.00001928 -221.4375 44.8125 C-217.93354188 40.80454791 -214.07687172 37.41140297 -210 34 C-209.12601562 33.23816406 -208.25203125 32.47632813 -207.3515625 31.69140625 C-181.24975034 9.26344165 -149.6725112 -5.27701958 -116 -12 C-115.11876465 -12.17644043 -114.2375293 -12.35288086 -113.32958984 -12.53466797 C-75.78245304 -19.65190656 -35.06322549 -14.98010521 0 0 Z M-194 83 C-198.73952153 89.5487534 -201.11289232 95.02136785 -201.14044189 103.13433838 C-201.14615204 104.1463179 -201.15186218 105.15829742 -201.15774536 106.20094299 C-201.15886322 107.30026657 -201.15998108 108.39959015 -201.16113281 109.53222656 C-201.16609772 110.6986821 -201.17106262 111.86513763 -201.17617798 113.06694031 C-201.19077966 116.92484122 -201.19759837 120.782701 -201.203125 124.640625 C-201.20742374 126.64621573 -201.21172302 128.65180647 -201.2160995 130.65739703 C-201.22789968 136.24572036 -201.23544396 141.83403377 -201.2388947 147.42236829 C-201.24337156 154.63127533 -201.26090689 161.83999241 -201.2898953 169.04884171 C-201.31156784 174.63375425 -201.32160196 180.21861355 -201.32293582 185.80356765 C-201.32397996 189.13334125 -201.33126766 192.46279435 -201.34775543 195.79254913 C-201.36485761 199.51190991 -201.3629251 203.2308109 -201.35644531 206.95019531 C-201.3656601 208.04142197 -201.37487488 209.13264862 -201.3843689 210.25694275 C-201.32813023 220.59005999 -199.22689683 227.57717256 -192.0546875 235.1171875 C-186.24996202 240.43634659 -180.03231793 241.12291356 -172.453125 241.12597656 C-171.14827148 241.12978333 -169.84341797 241.13359009 -168.49902344 241.13751221 C-167.80675659 241.13770607 -167.11448975 241.13789993 -166.40124512 241.13809967 C-163.47485673 241.14153493 -160.54868665 241.16291615 -157.62237549 241.18333054 C-152.18181285 241.22126605 -146.74149157 241.25261135 -141.30078125 241.25048828 C-137.50808157 241.24970076 -133.71619367 241.27307269 -129.92370605 241.3123703 C-128.4820928 241.3228189 -127.04038574 241.32436261 -125.59875488 241.31671906 C-123.58144113 241.3070859 -121.56405214 241.33106869 -119.546875 241.35644531 C-118.40057617 241.36009094 -117.25427734 241.36373657 -116.07324219 241.36749268 C-112.0771163 242.1899397 -110.60226982 243.94020365 -108 247 C-107.29774292 247.81500977 -107.29774292 247.81500977 -106.58129883 248.64648438 C-106.21029053 249.12408203 -105.83928223 249.60167969 -105.45703125 250.09375 C-105.0280957 250.64264893 -104.59916016 251.19154785 -104.15722656 251.75708008 C-103.7134668 252.33224365 -103.26970703 252.90740723 -102.8125 253.5 C-102.3390918 254.10803467 -101.86568359 254.71606934 -101.37792969 255.3425293 C-99.91434167 257.22508521 -98.45624685 259.11176119 -97 261 C-96.54866699 261.58475098 -96.09733398 262.16950195 -95.63232422 262.77197266 C-93.51926229 265.51170437 -91.41031338 268.25455011 -89.3046875 271 C-86.22102688 275.01398535 -83.11400717 279.00953385 -80 283 C-77.15371878 282.65799912 -75.44649201 282.41103776 -73.3059082 280.44042969 C-72.80921631 279.77430664 -72.31252441 279.10818359 -71.80078125 278.421875 C-71.23617187 277.67921387 -70.6715625 276.93655273 -70.08984375 276.17138672 C-69.50332031 275.3723291 -68.91679687 274.57327148 -68.3125 273.75 C-67.39210938 272.53014404 -67.39210938 272.53014404 -66.453125 271.28564453 C-65.21049647 269.63799433 -63.97297707 267.98647787 -62.74072266 266.33105469 C-60.36487337 263.1494826 -57.93336351 260.01262093 -55.5 256.875 C-52.32826932 252.75383678 -49.2023515 248.6055794 -46.15625 244.390625 C-45 243 -45 243 -43 242 C-40.95441793 241.89486233 -38.90542673 241.85394682 -36.85717773 241.84228516 C-35.56500839 241.83202301 -34.27283905 241.82176086 -32.94151306 241.81118774 C-32.24824354 241.80774982 -31.55497402 241.8043119 -30.84069633 241.80076981 C-28.66625274 241.78896838 -26.49200665 241.76950829 -24.31764221 241.74765015 C-18.13427411 241.68610633 -11.95092227 241.63217498 -5.76733398 241.59863281 C-1.98471364 241.57756281 1.79755273 241.54215337 5.57996941 241.49787521 C7.01547993 241.48380184 8.45105315 241.47501254 9.8866291 241.47182083 C21.15114182 241.44414717 29.86321665 240.82671519 38.2734375 232.90234375 C43.13488848 227.54594867 45.11280787 222.0761923 45.14717102 214.91671753 C45.15432632 213.89072952 45.16148163 212.86474152 45.16885376 211.80766296 C45.17154266 210.68761368 45.17423157 209.56756439 45.17700195 208.41357422 C45.18685875 206.63725868 45.18685875 206.63725868 45.19691467 204.82505798 C45.21664286 200.90160769 45.22831494 196.9781708 45.23828125 193.0546875 C45.24233109 191.70028794 45.24644808 190.34588857 45.25063133 188.99148941 C45.26967522 182.62483371 45.28390596 176.25818953 45.2922433 169.89151084 C45.30200256 162.56142871 45.32829076 155.2316496 45.36874419 147.90167415 C45.39899347 142.22419932 45.41372062 136.54681089 45.41702431 130.86925709 C45.41936545 127.4840804 45.42820194 124.0992277 45.45348549 120.71413803 C45.47789148 116.93011275 45.47690841 113.14687324 45.4699707 109.36279297 C45.48278076 108.25488907 45.49559082 107.14698517 45.50878906 106.00550842 C45.44408871 96.28802205 43.20986884 88.56336151 36.26953125 81.5703125 C29.91655592 77.17462217 23.84444498 75.40279745 16.18894958 75.49879456 C15.34977605 75.49326016 14.51060252 75.48772576 13.64599949 75.48202366 C10.85931187 75.46850814 8.07353414 75.48333636 5.28686523 75.49829102 C3.27883526 75.49450456 1.27080791 75.48900183 -0.73721313 75.48191833 C-6.1731061 75.4679901 -11.60868161 75.47911475 -17.04455686 75.49562955 C-22.74096486 75.50950931 -28.43735498 75.50301671 -34.1337738 75.49949646 C-43.69755146 75.49679688 -53.26120343 75.5102491 -62.82495117 75.53344727 C-73.87393496 75.56006295 -84.92270874 75.5618007 -95.9717136 75.5500589 C-106.61254212 75.53927166 -117.25329485 75.54547516 -127.89411736 75.55961418 C-132.41745742 75.56536498 -136.94074186 75.56529844 -141.46408272 75.56054878 C-146.79197381 75.5557688 -152.11963557 75.56592315 -157.44748306 75.58750343 C-159.40015451 75.59305725 -161.35284806 75.59354954 -163.30552101 75.58855057 C-165.97591102 75.58257261 -168.64560573 75.59515075 -171.31593323 75.61231995 C-172.46823711 75.60330488 -172.46823711 75.60330488 -173.64381987 75.59410769 C-181.24026281 75.68260432 -188.13993409 78.03168325 -194 83 Z M-119.1875 279.3125 C-120.94984985 279.48857788 -120.94984985 279.48857788 -122.74780273 279.66821289 C-135.2276588 280.94699762 -135.2276588 280.94699762 -147 285 C-147 285.66 -147 286.32 -147 287 C-140.67386765 289.35003463 -134.55647085 290.74216301 -127.875 291.625 C-127.0396875 291.74617188 -126.204375 291.86734375 -125.34375 291.9921875 C-110.52434285 294.03931281 -95.70081864 294.18642035 -80.76953125 294.18530273 C-77.53371781 294.18747734 -74.29825299 294.20566526 -71.0625 294.22460938 C-60.53941579 294.25358838 -50.10155147 294.01515953 -39.61328125 293.1171875 C-38.70956787 293.03997971 -37.80585449 292.96277191 -36.87475586 292.88322449 C-21.5014509 291.62237988 -21.5014509 291.62237988 -7 287 C-7 286.34 -7 285.68 -7 285 C-13.52681034 282.5419287 -19.84050481 281.22715298 -26.75 280.375 C-27.7201001 280.25020264 -28.6902002 280.12540527 -29.68969727 279.99682617 C-36.78477985 279.10394188 -43.85518218 278.34280692 -51 278 C-52.2890625 277.88914062 -53.578125 277.77828125 -54.90625 277.6640625 C-61.94948577 276.97658854 -61.94948577 276.97658854 -68.140625 279.71484375 C-69.72128076 281.81548143 -69.72128076 281.81548143 -70.82421875 284.0546875 C-72.26116204 286.43208869 -73.41346237 287.063495 -76 288 C-80.0102139 287.9146763 -81.62199203 287.32526267 -84.6875 284.6875 C-87 282 -87 282 -88.2734375 279.859375 C-89.88370521 277.75750664 -89.88370521 277.75750664 -92.58984375 277.50390625 C-101.501865 277.65989262 -110.31966835 278.41107228 -119.1875 279.3125 Z " fill="#F52458" transform="translate(328,65)"/>
<path d="M0 0 C0 3.49675538 -1.18304071 5.19058004 -3.02734375 8.0859375 C-4.96697377 11.90288012 -5.12611873 15.91636215 -5.14044189 20.13433838 C-5.14615204 21.1463179 -5.15186218 22.15829742 -5.15774536 23.20094299 C-5.15886322 24.30026657 -5.15998108 25.39959015 -5.16113281 26.53222656 C-5.16609772 27.6986821 -5.17106262 28.86513763 -5.17617798 30.06694031 C-5.19077966 33.92484122 -5.19759837 37.782701 -5.203125 41.640625 C-5.20742374 43.64621573 -5.21172302 45.65180647 -5.2160995 47.65739703 C-5.22789968 53.24572036 -5.23544396 58.83403377 -5.2388947 64.42236829 C-5.24337156 71.63127533 -5.26090689 78.83999241 -5.2898953 86.04884171 C-5.31156784 91.63375425 -5.32160196 97.21861355 -5.32293582 102.80356765 C-5.32397996 106.13334125 -5.33126766 109.46279435 -5.34775543 112.79254913 C-5.36485761 116.51190991 -5.3629251 120.2308109 -5.35644531 123.95019531 C-5.3656601 125.04142197 -5.37487488 126.13264862 -5.3843689 127.25694275 C-5.33159288 136.95384459 -3.57267701 144.20185466 3.16796875 151.33984375 C8.86365424 156.50117922 15.16722926 157.11944562 22.546875 157.1418457 C24.50415527 157.15239738 24.50415527 157.15239738 26.50097656 157.16316223 C27.53937683 157.16588607 27.53937683 157.16588607 28.59875488 157.16866493 C30.77654456 157.17586906 32.95411395 157.1915627 35.13183594 157.21000671 C41.32093373 157.26230528 47.50990447 157.31047055 53.69921875 157.32592773 C57.49184 157.33601802 61.28389616 157.3653597 65.07629395 157.40724754 C66.51790084 157.41953914 67.95958755 157.42468215 69.40124512 157.42244911 C71.41859923 157.42009213 73.4359306 157.44447709 75.453125 157.4699707 C76.59942383 157.47583694 77.74572266 157.48170319 78.92675781 157.48774719 C83.92441537 158.32076456 86.86348237 161.45636517 89.76171875 165.43359375 C90.23593262 166.07619141 90.71014648 166.71878906 91.19873047 167.38085938 C91.69002441 168.05955078 92.18131836 168.73824219 92.6875 169.4375 C93.7453681 170.87423249 94.8039731 172.31042268 95.86328125 173.74609375 C96.38873535 174.4613623 96.91418945 175.17663086 97.45556641 175.91357422 C99.72114884 178.97422352 102.04360933 181.98934993 104.375 185 C107.9562254 189.63826451 111.49882862 194.30105946 115 199 C117.77948585 198.97944927 119.48331276 198.51548604 121.47021484 196.53320312 C123.10809392 194.48069122 124.65709012 192.38388092 126.1875 190.25 C127.33958139 188.69251423 128.49192785 187.1352245 129.64453125 185.578125 C130.21123535 184.80275391 130.77793945 184.02738281 131.36181641 183.22851562 C133.65103928 180.11435373 136.00751294 177.05482202 138.375 174 C140.62460827 171.08356973 142.8730996 168.16699903 145.1015625 165.234375 C145.72804688 164.41453125 146.35453125 163.5946875 147 162.75 C147.53625 162.04359375 148.0725 161.3371875 148.625 160.609375 C150 159 150 159 152 158 C154.04558207 157.89486233 156.09457327 157.85394682 158.14282227 157.84228516 C159.43499161 157.83202301 160.72716095 157.82176086 162.05848694 157.81118774 C162.75175646 157.80774982 163.44502598 157.8043119 164.15930367 157.80076981 C166.33374726 157.78896838 168.50799335 157.76950829 170.68235779 157.74765015 C176.86572589 157.68610633 183.04907773 157.63217498 189.23266602 157.59863281 C193.01528636 157.57756281 196.79755273 157.54215337 200.57996941 157.49787521 C202.01547993 157.48380184 203.45105315 157.47501254 204.8866291 157.47182083 C215.14018709 157.44663079 224.17985602 157.31561856 232 150 C232.66 150.33 233.32 150.66 234 151 C225.89453125 159.10546875 225.89453125 159.10546875 224.42358398 160.57617188 C223.10212323 161.89785926 221.78149537 163.22037925 220.4609375 164.54296875 C218.77729754 166.22393626 217.08822342 167.89947375 215.39453125 169.5703125 C214.54246094 170.41335938 213.69039063 171.25640625 212.8125 172.125 C211.52279297 173.39730469 211.52279297 173.39730469 210.20703125 174.6953125 C207.87938579 176.99149995 207.87938579 176.99149995 206 180 C205.01 180 204.02 180 203 180 C202.73832031 180.5775 202.47664063 181.155 202.20703125 181.75 C199.09809368 187.54530111 194.13053927 192.00958057 189 196 C188.46375 196.721875 187.9275 197.44375 187.375 198.1875 C186 200 186 200 183 201 C180.53322055 200.62804894 178.1283096 200.18750942 175.6875 199.6875 C166.03470807 197.85563704 156.36619901 196.86418028 146.56933594 196.18310547 C144.93087477 196.06633942 143.29325565 195.93651379 141.65722656 195.78955078 C133.80471381 194.79907676 133.80471381 194.79907676 126.89453125 197.71875 C125.27623796 199.81012515 125.27623796 199.81012515 124.17578125 202.0546875 C122.73883796 204.43208869 121.58653763 205.063495 119 206 C114.9897861 205.9146763 113.37800797 205.32526267 110.3125 202.6875 C108 200 108 200 106.7265625 197.859375 C105.11629479 195.75750664 105.11629479 195.75750664 102.41015625 195.50390625 C84.29361347 195.8209986 65.55183177 197.34810474 48 202 C48 202.66 48 203.32 48 204 C50.99699352 204.64310486 53.99643308 205.26388465 57 205.875 C57.80050781 206.04902344 58.60101563 206.22304688 59.42578125 206.40234375 C77.61641637 210.04047077 96.42315474 210.33525471 114.90942383 210.26074219 C118.06546157 210.24998991 121.22093196 210.26074213 124.37695312 210.2734375 C142.48858956 210.28695109 160.64493047 209.48974325 178.4375 205.875 C179.38302734 205.69324219 180.32855469 205.51148438 181.30273438 205.32421875 C183.53742129 204.89316239 185.76951976 204.45221777 188 204 C186.625 206.5 186.625 206.5 185 209 C184.34 209 183.68 209 183 209 C183 209.66 183 210.32 183 211 C181.33784732 212.33895632 179.67036393 213.67130142 178 215 C176.63755204 216.64295195 175.30135125 218.30824337 174 220 C172.375 221.8125 172.375 221.8125 171 223 C170.34 223 169.68 223 169 223 C169 223.66 169 224.32 169 225 C167.948125 225.8353125 167.948125 225.8353125 166.875 226.6875 C164.56279492 228.54731713 162.97518495 230.1219522 161.125 232.375 C158.55006408 235.47286635 155.77724914 238.0223746 152.671875 240.578125 C151.07516626 241.93607355 149.63419246 243.3602279 148.1875 244.875 C146 247 146 247 144 247 C143.938125 247.556875 143.87625 248.11375 143.8125 248.6875 C142.6519231 251.99068042 140.59786554 253.71894733 138 256 C137.34 256 136.68 256 136 256 C135.79375 256.598125 135.5875 257.19625 135.375 257.8125 C134 260 134 260 131.375 261.125 C126.95439471 263.58089183 124.70693523 266.89118658 121.734375 270.91796875 C121.16203125 271.60503906 120.5896875 272.29210937 120 273 C119.34 273 118.68 273 118 273 C118 273.66 118 274.32 118 275 C117.34 275 116.68 275 116 275 C116 275.66 116 276.32 116 277 C113.76064071 279.48817699 111.84512945 281.58950855 108.8125 283.0625 C106.42598502 284.2969043 106.06950369 285.57579163 105 288 C103.5625 290.25 103.5625 290.25 102 292 C101.01 292 100.02 292 99 292 C98.731875 292.598125 98.46375 293.19625 98.1875 293.8125 C97.01506533 295.97224808 95.80630718 297.35790256 94 299 C95.65 299.33 97.3 299.66 99 300 C99 300.33 99 300.66 99 301 C57.73103252 302.36567421 13.76685908 279.01730985 -16 252 C-17.04490483 251.07476579 -18.09048777 250.15029687 -19.13671875 249.2265625 C-34.43166698 235.60774032 -46.91715407 219.65139763 -56.96630859 201.83251953 C-57.64677674 200.62619125 -58.33443956 199.42388861 -59.02978516 198.22607422 C-81.20863794 159.967288 -91.37622898 106.4319879 -80 63 C-79.3676181 61.65006839 -78.70880542 60.31141797 -78 59 C-78.10828125 60.01707031 -78.10828125 60.01707031 -78.21875 61.0546875 C-78.85113709 67.39612473 -79.12438222 73.62886647 -79 80 C-72.18791782 73.81226578 -65.45694112 67.55939225 -58.9375 61.0625 C-58.40229736 60.53180908 -57.86709473 60.00111816 -57.31567383 59.4543457 C-55.0260184 57.15596917 -52.91831091 54.89567049 -50.9140625 52.3359375 C-48.93929405 49.92591396 -46.97490986 48.35285518 -44.4375 46.5625 C-40.66165433 43.73834047 -38.87821207 41.38249483 -37 37 C-36.01 36.67 -35.02 36.34 -34 36 C-33.30957355 34.67881359 -32.64640513 33.34327311 -32 32 C-30.77740093 30.64245622 -29.50175289 29.33152047 -28.1875 28.0625 C-27.52105469 27.41410156 -26.85460937 26.76570313 -26.16796875 26.09765625 C-25.45253906 25.40542969 -24.73710938 24.71320313 -24 24 C-22.33024835 22.33632018 -20.66439725 20.66902129 -19 19 C-17.45199649 17.45164936 -15.90379905 15.9034926 -14.35546875 14.35546875 C-13.51435547 13.51435547 -12.67324219 12.67324219 -11.80664062 11.80664062 C-7.87109375 7.87109375 -3.93554688 3.93554688 0 0 Z " fill="#C11C46" transform="translate(133,148)"/>
<path d="M0 0 C0.00238835 0.6204592 0.00477671 1.24091841 0.00723743 1.88017941 C0.06647555 17.00495978 0.14208163 32.12956324 0.23571491 47.2541647 C0.28060484 54.5684356 0.320035 61.88265855 0.34643555 69.19702148 C0.36947094 75.57516659 0.40293034 81.95315908 0.44870156 88.33118302 C0.47255952 91.70565369 0.49133672 95.07997392 0.49761391 98.4545269 C0.50726155 102.22959609 0.53533078 106.00411862 0.56762695 109.77905273 C0.56619186 110.88748535 0.56475677 111.99591797 0.5632782 113.13793945 C0.68077022 122.87321503 2.39497852 130.16760357 9.16796875 137.33984375 C14.86365424 142.50117922 21.16722926 143.11944562 28.546875 143.1418457 C30.50415527 143.15239738 30.50415527 143.15239738 32.50097656 143.16316223 C33.53937683 143.16588607 33.53937683 143.16588607 34.59875488 143.16866493 C36.77654456 143.17586906 38.95411395 143.1915627 41.13183594 143.21000671 C47.32093373 143.26230528 53.50990447 143.31047055 59.69921875 143.32592773 C63.49184 143.33601802 67.28389616 143.3653597 71.07629395 143.40724754 C72.51790084 143.41953914 73.95958755 143.42468215 75.40124512 143.42244911 C77.41859923 143.42009213 79.4359306 143.44447709 81.453125 143.4699707 C82.59942383 143.47583694 83.74572266 143.48170319 84.92675781 143.48774719 C89.92441537 144.32076456 92.86348237 147.45636517 95.76171875 151.43359375 C96.23593262 152.07619141 96.71014648 152.71878906 97.19873047 153.38085938 C97.69002441 154.05955078 98.18131836 154.73824219 98.6875 155.4375 C99.7453681 156.87423249 100.8039731 158.31042268 101.86328125 159.74609375 C102.38873535 160.4613623 102.91418945 161.17663086 103.45556641 161.91357422 C105.72114884 164.97422352 108.04360933 167.98934993 110.375 171 C113.9562254 175.63826451 117.49882862 180.30105946 121 185 C123.77948585 184.97944927 125.48331276 184.51548604 127.47021484 182.53320312 C129.10809392 180.48069122 130.65709012 178.38388092 132.1875 176.25 C133.33958139 174.69251423 134.49192785 173.1352245 135.64453125 171.578125 C136.21123535 170.80275391 136.77793945 170.02738281 137.36181641 169.22851562 C139.65103928 166.11435373 142.00751294 163.05482202 144.375 160 C146.62460827 157.08356973 148.8730996 154.16699903 151.1015625 151.234375 C151.72804688 150.41453125 152.35453125 149.5946875 153 148.75 C153.53625 148.04359375 154.0725 147.3371875 154.625 146.609375 C156 145 156 145 158 144 C160.04558207 143.89486233 162.09457327 143.85394682 164.14282227 143.84228516 C165.43499161 143.83202301 166.72716095 143.82176086 168.05848694 143.81118774 C168.75175646 143.80774982 169.44502598 143.8043119 170.15930367 143.80076981 C172.33374726 143.78896838 174.50799335 143.76950829 176.68235779 143.74765015 C182.86572589 143.68610633 189.04907773 143.63217498 195.23266602 143.59863281 C199.01528636 143.57756281 202.79755273 143.54215337 206.57996941 143.49787521 C208.01547993 143.48380184 209.45105315 143.47501254 210.8866291 143.47182083 C221.14018709 143.44663079 230.17985602 143.31561856 238 136 C238.66 136.33 239.32 136.66 240 137 C231.89453125 145.10546875 231.89453125 145.10546875 230.42358398 146.57617188 C229.10212323 147.89785926 227.78149537 149.22037925 226.4609375 150.54296875 C224.77729754 152.22393626 223.08822342 153.89947375 221.39453125 155.5703125 C220.54246094 156.41335938 219.69039062 157.25640625 218.8125 158.125 C217.52279297 159.39730469 217.52279297 159.39730469 216.20703125 160.6953125 C213.87938579 162.99149995 213.87938579 162.99149995 212 166 C211.01 166 210.02 166 209 166 C208.73832031 166.5775 208.47664062 167.155 208.20703125 167.75 C205.09809368 173.54530111 200.13053927 178.00958057 195 182 C194.46375 182.721875 193.9275 183.44375 193.375 184.1875 C192 186 192 186 189 187 C186.53322055 186.62804894 184.1283096 186.18750942 181.6875 185.6875 C172.03470807 183.85563704 162.36619901 182.86418028 152.56933594 182.18310547 C150.93087477 182.06633942 149.29325565 181.93651379 147.65722656 181.78955078 C139.80471381 180.79907676 139.80471381 180.79907676 132.89453125 183.71875 C131.27623796 185.81012515 131.27623796 185.81012515 130.17578125 188.0546875 C128.73883796 190.43208869 127.58653763 191.063495 125 192 C120.9897861 191.9146763 119.37800797 191.32526267 116.3125 188.6875 C114 186 114 186 112.75390625 183.8515625 C111.09166334 181.71611985 111.09166334 181.71611985 108.1640625 181.57421875 C106.41222656 181.63029297 106.41222656 181.63029297 104.625 181.6875 C103.30628906 181.72230469 101.98757812 181.75710938 100.62890625 181.79296875 C99.08582589 181.85943676 97.54286309 181.92866633 96 182 C95.08976074 182.03818848 94.17952148 182.07637695 93.24169922 182.11572266 C87.15901397 182.3726222 81.07912452 182.66973691 75 183 C75 182.67 75 182.34 75 182 C84.9 181.01 94.8 180.02 105 179 C106.71415813 170.88416816 106.71415813 170.88416816 104.75 167.4375 C102.99108835 165.68263029 102.99108835 165.68263029 100 166 C99.01 165.67 98.02 165.34 97 165 C97 164.01 97 163.02 97 162 C97.66 162 98.32 162 99 162 C98.67 160.68 98.34 159.36 98 158 C96.02 158 94.04 158 92 158 C92 156.68 92 155.36 92 154 C91.34 153.67 90.68 153.34 90 153 C89.375 149.9375 89.375 149.9375 89 147 C88.01 147 87.02 147 86 147 C86.33 147.66 86.66 148.32 87 149 C85.02 149.99 85.02 149.99 83 151 C83 150.34 83 149.68 83 149 C82.34 149 81.68 149 81 149 C81 148.01 81 147.02 81 146 C62.52 146 44.04 146 25 146 C25 147.32 25 148.64 25 150 C22 149 22 149 20.125 147.0625 C17.29376917 144.31454066 14.55805733 143.34623496 10.75 142.5 C10.1725 142.335 9.595 142.17 9 142 C8.67 141.34 8.34 140.68 8 140 C6.68 140 5.36 140 4 140 C3.81824219 139.34773437 3.63648438 138.69546875 3.44921875 138.0234375 C2.01781681 133.04656307 0.36433126 128.62119292 -2 124 C-2.81942228 120.65348561 -3.12407989 117.54781825 -3.12025452 114.10881042 C-3.12162918 113.1511377 -3.12300385 112.19346497 -3.12442017 111.20677185 C-3.12082489 110.16811478 -3.11722961 109.1294577 -3.11352539 108.05932617 C-3.11367142 106.95644257 -3.11381744 105.85355896 -3.1139679 104.71725464 C-3.11327184 101.07580593 -3.10549373 97.43440851 -3.09765625 93.79296875 C-3.09579098 91.26662728 -3.09436759 88.74028544 -3.09336853 86.21394348 C-3.08994192 80.24650924 -3.08206226 74.27909699 -3.07201904 68.31167156 C-3.06083089 61.51604054 -3.05534065 54.72040864 -3.05032361 47.92477071 C-3.03987891 33.94983698 -3.02229632 19.97491949 -3 6 C-3.99 5.67 -4.98 5.34 -6 5 C-5.34 4.67 -4.68 4.34 -4 4 C-3.67 3.01 -3.34 2.02 -3 1 C-1 0 -1 0 0 0 Z " fill="#B01A40" transform="translate(127,162)"/>
<path d="M0 0 C4.73049673 1.45574834 9.12214223 3.38517083 13.55859375 5.5546875 C14.61966087 6.06891769 14.61966087 6.06891769 15.7021637 6.59353638 C17.19138028 7.31628684 18.67972464 8.04083698 20.16723633 8.76708984 C22.42501821 9.86890877 24.68588667 10.96417979 26.94726562 12.05859375 C28.40123029 12.76523703 29.8550124 13.47225607 31.30859375 14.1796875 C31.97547714 14.50274872 32.64236053 14.82580994 33.32945251 15.15866089 C37.65749101 17.27661329 41.83763174 19.5719799 46 22 C46.23315639 25.39466737 46.37464625 28.78727962 46.5 32.1875 C46.60054688 33.62706055 46.60054688 33.62706055 46.703125 35.09570312 C46.72890625 36.02705078 46.7546875 36.95839844 46.78125 37.91796875 C46.82314453 38.77156982 46.86503906 39.6251709 46.90820312 40.50463867 C45.39593233 44.65972464 41.7744192 46.00945506 38 48 C37.32573975 48.35870682 36.65147949 48.71741364 35.95678711 49.08699036 C33.8859398 50.15734748 31.7995578 51.18775152 29.703125 52.20703125 C28.9470697 52.57728928 28.1910144 52.9475473 27.41204834 53.32902527 C25.83002503 54.10178847 24.24686035 54.87221914 22.66259766 55.64038086 C20.23800833 56.81832594 17.8201543 58.00938644 15.40234375 59.20117188 C13.85716196 59.95392839 12.31160215 60.70590956 10.765625 61.45703125 C10.0457843 61.81320023 9.3259436 62.1693692 8.58428955 62.53633118 C5.07223876 64.22422428 2.96881318 65 -1 65 C-2.76078179 61.47843642 -2.184646 57.44108049 -2.1875 53.5625 C-2.19974609 52.69044922 -2.21199219 51.81839844 -2.22460938 50.91992188 C-2.22654297 50.08138672 -2.22847656 49.24285156 -2.23046875 48.37890625 C-2.23457764 47.6113501 -2.23868652 46.84379395 -2.24291992 46.05297852 C-2 44 -2 44 0 41 C2.06298828 39.92504883 2.06298828 39.92504883 4.5703125 38.95703125 C5.46621094 38.60576172 6.36210937 38.25449219 7.28515625 37.89257812 C8.22230469 37.53615234 9.15945313 37.17972656 10.125 36.8125 C11.06988281 36.44447266 12.01476562 36.07644531 12.98828125 35.69726562 C15.32234614 34.78957372 17.65949069 33.89091376 20 33 C13.70387909 30.07936597 7.408236 27.30746918 0.8984375 24.89453125 C-1 24 -1 24 -2 22 C-2.23799705 18.6720413 -2.18518365 15.33553913 -2.1875 12 C-2.19974609 11.071875 -2.21199219 10.14375 -2.22460938 9.1875 C-2.22654297 8.300625 -2.22847656 7.41375 -2.23046875 6.5 C-2.23457764 5.6853125 -2.23868652 4.870625 -2.24291992 4.03125 C-2 2 -2 2 0 0 Z " fill="#A7193E" transform="translate(283,192)"/>
<path d="M0 0 C0 7.26 0 14.52 0 22 C-4.85472753 24.42736376 -9.44841076 26.67279772 -14.4375 28.6875 C-17.9801978 29.92238811 -17.9801978 29.92238811 -21 32 C-14.07 34.97 -7.14 37.94 0 41 C0 48.26 0 55.52 0 63 C-5.65009064 64.13001813 -7.83427033 63.05008643 -12.64453125 60.51953125 C-13.37314865 60.15027023 -14.10176605 59.78100922 -14.85246277 59.40055847 C-17.17939092 58.21754685 -19.49585292 57.0154995 -21.8125 55.8125 C-23.35936754 55.02149739 -24.90688784 54.23176992 -26.45507812 53.44335938 C-29.97776635 51.64702852 -33.49379721 49.83841653 -37.00332642 48.01651001 C-38.40834025 47.30121501 -39.82311094 46.60492421 -41.24447632 45.92269897 C-41.96906036 45.57397736 -42.69364441 45.22525574 -43.44018555 44.8659668 C-44.09850876 44.55531784 -44.75683197 44.24466888 -45.43510437 43.92460632 C-47 43 -47 43 -48 41 C-48.20411054 38.04622888 -48.32382545 35.14399311 -48.375 32.1875 C-48.43107422 30.97610352 -48.43107422 30.97610352 -48.48828125 29.74023438 C-48.49988281 28.95326172 -48.51148438 28.16628906 -48.5234375 27.35546875 C-48.54325684 26.64028076 -48.56307617 25.92509277 -48.58349609 25.18823242 C-47.66998964 21.7623921 -45.66710348 20.2644876 -43 18 C-39.92895508 16.2265625 -39.92895508 16.2265625 -36.51953125 14.625 C-35.90663742 14.33318848 -35.29374359 14.04137695 -34.66227722 13.74072266 C-32.71693102 12.81706042 -30.76511823 11.90817201 -28.8125 11 C-26.88505172 10.09114164 -24.95903618 9.17930053 -23.03317261 8.26708984 C-21.78157923 7.67590628 -20.52859819 7.087651 -19.27420044 6.50244141 C-14.78311718 4.40251536 -10.39836599 2.14374086 -6.05737305 -0.25 C-4 -1 -4 -1 0 0 Z " fill="#AA193E" transform="translate(217,193)"/>
<path d="M0 0 C0.73283203 -0.00773438 1.46566406 -0.01546875 2.22070312 -0.0234375 C7.68413018 -0.00336982 7.68413018 -0.00336982 9.9375 2.25 C9.57737858 6.42841393 7.85507864 9.81045458 6.015625 13.53515625 C5.71937225 14.14018982 5.42311951 14.74522339 5.1178894 15.36859131 C4.4791393 16.67217563 3.83789129 17.9745384 3.19439697 19.27578735 C1.47392259 22.75589706 -0.22766367 26.24521369 -1.9296875 29.734375 C-2.27722076 30.44596268 -2.62475403 31.15755035 -2.9828186 31.89070129 C-5.83028425 37.73624803 -8.5888101 43.61968206 -11.30786133 49.52587891 C-12.90645204 52.99512011 -14.52494988 56.45458262 -16.14453125 59.9140625 C-18.00191565 63.89786078 -19.767983 67.89991934 -21.44921875 71.9609375 C-26.375791 83.47842035 -26.375791 83.47842035 -31 85.59375 C-34.22344606 85.94832907 -36.86983446 85.77707063 -40.0625 85.25 C-41.32126953 85.13785156 -41.32126953 85.13785156 -42.60546875 85.0234375 C-44.43432454 84.8486442 -46.25222415 84.56331697 -48.0625 84.25 C-47.548669 79.00272099 -46.23805439 74.87448154 -43.8515625 70.15625 C-43.52759995 69.49593781 -43.20363739 68.83562561 -42.86985779 68.15530396 C-41.81787688 66.01572898 -40.7526982 63.88302056 -39.6875 61.75 C-38.95392075 60.26273727 -38.22142614 58.77493909 -37.48999023 57.28662109 C-36.02967857 54.31654704 -34.5654208 51.348475 -33.09814453 48.38183594 C-30.39270691 42.90232913 -27.7530426 37.39196767 -25.125 31.875 C-24.69203613 30.97112549 -24.25907227 30.06725098 -23.81298828 29.13598633 C-21.67582508 24.66852309 -19.56726652 20.18987033 -17.49609375 15.69140625 C-17.08544678 14.80565918 -16.6747998 13.91991211 -16.25170898 13.00732422 C-15.48215833 11.34436175 -14.71947755 9.67819557 -13.96508789 8.00830078 C-13.62598389 7.27724121 -13.28687988 6.54618164 -12.9375 5.79296875 C-12.64617187 5.15383545 -12.35484375 4.51470215 -12.0546875 3.85620117 C-9.21970888 -0.73319951 -4.73842638 -0.05027508 0 0 Z " fill="#AB193F" transform="translate(269.0625,181.75)"/>
<path d="M0 0 C0.00238835 0.6204592 0.00477671 1.24091841 0.00723743 1.88017941 C0.06647555 17.00495978 0.14208163 32.12956324 0.23571491 47.2541647 C0.28060484 54.5684356 0.320035 61.88265855 0.34643555 69.19702148 C0.36947094 75.57516659 0.40293034 81.95315908 0.44870156 88.33118302 C0.47255952 91.70565369 0.49133672 95.07997392 0.49761391 98.4545269 C0.50726155 102.22959609 0.53533078 106.00411862 0.56762695 109.77905273 C0.56619186 110.88748535 0.56475677 111.99591797 0.5632782 113.13793945 C0.68077022 122.87321503 2.39497852 130.16760357 9.16796875 137.33984375 C14.86365424 142.50117922 21.16722926 143.11944562 28.546875 143.1418457 C30.50415527 143.15239738 30.50415527 143.15239738 32.50097656 143.16316223 C33.53937683 143.16588607 33.53937683 143.16588607 34.59875488 143.16866493 C36.77654456 143.17586906 38.95411395 143.1915627 41.13183594 143.21000671 C47.32093373 143.26230528 53.50990447 143.31047055 59.69921875 143.32592773 C63.49184 143.33601802 67.28389616 143.3653597 71.07629395 143.40724754 C72.51790084 143.41953914 73.95958755 143.42468215 75.40124512 143.42244911 C77.41859923 143.42009213 79.4359306 143.44447709 81.453125 143.4699707 C82.59942383 143.47583694 83.74572266 143.48170319 84.92675781 143.48774719 C89.92441537 144.32076456 92.86348237 147.45636517 95.76171875 151.43359375 C96.23609375 152.07643311 96.71046875 152.71927246 97.19921875 153.3815918 C97.69035156 154.0600415 98.18148437 154.73849121 98.6875 155.4375 C99.74278764 156.87030892 100.79878858 158.30259274 101.85546875 159.734375 C102.6431665 160.80655273 102.6431665 160.80655273 103.44677734 161.90039062 C105.7590997 165.02613288 108.12422041 168.10985729 110.5 171.1875 C111.2734375 172.19167969 112.046875 173.19585937 112.84375 174.23046875 C114.87413623 176.83833802 116.92848417 179.42472919 119 182 C118.67 182.66 118.34 183.32 118 184 C116.02 183.01 116.02 183.01 114 182 C114.639375 182.5775 115.27875 183.155 115.9375 183.75 C117.98223868 185.98062401 118.58205199 187.07436391 119 190 C118.01 189.67 117.02 189.34 116 189 C115.4225 187.824375 114.845 186.64875 114.25 185.4375 C112.99187055 183.43266492 112.99187055 183.43266492 111 182 C106.76535333 181.28101587 102.65919088 181.54018907 98.38623047 181.83984375 C95.70764427 182.01962199 93.02991856 182.13810748 90.34765625 182.25 C85.22982334 182.46697407 80.11486057 182.72212288 75 183 C75 182.67 75 182.34 75 182 C84.9 181.01 94.8 180.02 105 179 C106.71415813 170.88416816 106.71415813 170.88416816 104.75 167.4375 C102.99108835 165.68263029 102.99108835 165.68263029 100 166 C99.01 165.67 98.02 165.34 97 165 C97 164.01 97 163.02 97 162 C97.66 162 98.32 162 99 162 C98.67 160.68 98.34 159.36 98 158 C96.02 158 94.04 158 92 158 C92 156.68 92 155.36 92 154 C91.34 153.67 90.68 153.34 90 153 C89.375 149.9375 89.375 149.9375 89 147 C88.01 147 87.02 147 86 147 C86.33 147.66 86.66 148.32 87 149 C85.02 149.99 85.02 149.99 83 151 C83 150.34 83 149.68 83 149 C82.34 149 81.68 149 81 149 C81 148.01 81 147.02 81 146 C62.52 146 44.04 146 25 146 C25 147.32 25 148.64 25 150 C22 149 22 149 20.125 147.0625 C17.29376917 144.31454066 14.55805733 143.34623496 10.75 142.5 C10.1725 142.335 9.595 142.17 9 142 C8.67 141.34 8.34 140.68 8 140 C6.68 140 5.36 140 4 140 C3.81824219 139.34773437 3.63648438 138.69546875 3.44921875 138.0234375 C2.01781681 133.04656307 0.36433126 128.62119292 -2 124 C-2.81942228 120.65348561 -3.12407989 117.54781825 -3.12025452 114.10881042 C-3.12162918 113.1511377 -3.12300385 112.19346497 -3.12442017 111.20677185 C-3.12082489 110.16811478 -3.11722961 109.1294577 -3.11352539 108.05932617 C-3.11367142 106.95644257 -3.11381744 105.85355896 -3.1139679 104.71725464 C-3.11327184 101.07580593 -3.10549373 97.43440851 -3.09765625 93.79296875 C-3.09579098 91.26662728 -3.09436759 88.74028544 -3.09336853 86.21394348 C-3.08994192 80.24650924 -3.08206226 74.27909699 -3.07201904 68.31167156 C-3.06083089 61.51604054 -3.05534065 54.72040864 -3.05032361 47.92477071 C-3.03987891 33.94983698 -3.02229632 19.97491949 -3 6 C-3.99 5.67 -4.98 5.34 -6 5 C-5.34 4.67 -4.68 4.34 -4 4 C-3.67 3.01 -3.34 2.02 -3 1 C-1 0 -1 0 0 0 Z " fill="#821534" transform="translate(127,162)"/>
<path d="M0 0 C-1.375 2 -1.375 2 -3 4 C-3.66 4 -4.32 4 -5 4 C-5 4.66 -5 5.32 -5 6 C-6.53125 7.2890625 -6.53125 7.2890625 -8.5 8.625 C-9.47453125 9.29402344 -9.47453125 9.29402344 -10.46875 9.9765625 C-11.22671875 10.48316406 -11.22671875 10.48316406 -12 11 C-11.67 10.01 -11.34 9.02 -11 8 C-11.7425 7.855625 -12.485 7.71125 -13.25 7.5625 C-16 7 -16 7 -17.84765625 6.4375 C-20.44438952 5.90967037 -22.55795053 6.13015006 -25.1875 6.4375 C-29.47275032 6.88948234 -33.62474332 7.06844887 -37.9296875 6.9375 C-40.03633573 6.93706512 -40.03633573 6.93706512 -42.18945312 7.48193359 C-45.49480044 8.09120627 -48.67952645 8.23456809 -52.0390625 8.3515625 C-52.71382126 8.37521378 -53.38858002 8.39886505 -54.08378601 8.42323303 C-56.26404631 8.49661958 -58.4444173 8.5619563 -60.625 8.625 C-61.73432388 8.65818832 -61.73432388 8.65818832 -62.86605835 8.69204712 C-71.68976964 8.94731556 -80.49089409 9.13028331 -89.3125 8.6875 C-90.0564502 8.65285645 -90.80040039 8.61821289 -91.56689453 8.58251953 C-95.1372642 8.34994713 -97.94464326 7.92432494 -101 6 C-95.40530596 4.80369088 -89.9720832 4.90700484 -84.28515625 4.97265625 C-82.13086114 4.98533034 -79.97656416 4.99768914 -77.82226562 5.00976562 C-74.47072294 5.03426131 -71.11928221 5.06192355 -67.76782227 5.09594727 C-55.99642842 5.20770379 -44.31409182 5.1377044 -32.578125 4.1328125 C-31.67663223 4.0561586 -30.77513947 3.9795047 -29.84632874 3.90052795 C-22.5022928 3.19704289 -15.32198838 1.85702212 -8.12828064 0.23570251 C-2.18428049 -1.09214025 -2.18428049 -1.09214025 0 0 Z " fill="#8A193A" transform="translate(321,353)"/>
<path d="M0 0 C0.08681476 3.62484999 0.14032721 7.24943443 0.1875 10.875 C0.21263672 11.90753906 0.23777344 12.94007813 0.26367188 14.00390625 C0.27333984 14.99003906 0.28300781 15.97617188 0.29296875 16.9921875 C0.3086792 17.90339355 0.32438965 18.81459961 0.34057617 19.75341797 C0.17199097 20.86547607 0.17199097 20.86547607 0 22 C-0.99 22.66 -1.98 23.32 -3 24 C-3.99 23.67 -4.98 23.34 -6 23 C-4.68 22.67 -3.36 22.34 -2 22 C-2 16.72 -2 11.44 -2 6 C-3.98 6.33 -5.96 6.66 -8 7 C-8 6.34 -8 5.68 -8 5 C-15.1171435 7.11607648 -21.25676341 10.11955687 -27.69335938 13.77148438 C-31.27106447 15.74300724 -34.45649052 17.22459664 -38.46484375 18.08984375 C-39.63144531 18.39019531 -40.79804688 18.69054687 -42 19 C-42.33 19.99 -42.66 20.98 -43 22 C-43.99 22 -44.98 22 -46 22 C-45.98839844 22.70125 -45.97679687 23.4025 -45.96484375 24.125 C-45.91028816 29.86113102 -46.14381623 35.32778253 -47 41 C-47.33 41 -47.66 41 -48 41 C-48.13539281 38.10259378 -48.23426829 35.21154379 -48.3125 32.3125 C-48.35439453 31.49587891 -48.39628906 30.67925781 -48.43945312 29.83789062 C-48.45556641 29.04189453 -48.47167969 28.24589844 -48.48828125 27.42578125 C-48.51446533 26.69786377 -48.54064941 25.96994629 -48.56762695 25.2199707 C-47.68271927 21.7591253 -45.68929786 20.27747485 -43 18 C-39.92895508 16.2265625 -39.92895508 16.2265625 -36.51953125 14.625 C-35.90663742 14.33318848 -35.29374359 14.04137695 -34.66227722 13.74072266 C-32.71693102 12.81706042 -30.76511823 11.90817201 -28.8125 11 C-26.88505172 10.09114164 -24.95903618 9.17930053 -23.03317261 8.26708984 C-21.78157923 7.67590628 -20.52859819 7.087651 -19.27420044 6.50244141 C-14.78311718 4.40251536 -10.39836599 2.14374086 -6.05737305 -0.25 C-3.61149207 -1.14162767 -2.4122025 -0.87159328 0 0 Z " fill="#831F3A" transform="translate(217,193)"/>
<path d="M0 0 C0.73734375 -0.01224609 1.4746875 -0.02449219 2.234375 -0.03710938 C4.15770058 -0.04237395 6.08054263 0.06546553 8 0.1875 C8.66 0.8475 9.32 1.5075 10 2.1875 C9.63885698 6.39161059 7.89205957 9.82609642 6.05859375 13.58203125 C5.77146011 14.17424973 5.48432648 14.7664682 5.18849182 15.37663269 C4.27686001 17.25375694 3.35732876 19.12688103 2.4375 21 C1.81522806 22.2777382 1.19347768 23.55573054 0.57226562 24.83398438 C-0.94579843 27.95478672 -2.47096811 31.07205393 -4 34.1875 C-5 31.1875 -5 31.1875 -4 28.1875 C-4.33 27.8575 -4.66 27.5275 -5 27.1875 C-5.375 24.8125 -5.375 24.8125 -5 22.1875 C-2.6167054 20.36866991 -1.04181663 19.1875 2 19.1875 C2.495 14.7325 2.495 14.7325 3 10.1875 C3.66 10.1875 4.32 10.1875 5 10.1875 C4.79375 9.589375 4.5875 8.99125 4.375 8.375 C4 6.1875 4 6.1875 6 3.1875 C-1.56407533 2.98160279 -1.56407533 2.98160279 -9 4.1875 C-9 4.8475 -9 5.5075 -9 6.1875 C-9.99 6.1875 -10.98 6.1875 -12 6.1875 C-9.57546227 -0.56656939 -6.68777367 0.00584596 0 0 Z " fill="#901838" transform="translate(269,181.8125)"/>
<path d="M0 0 C0 0.66 0 1.32 0 2 C12.62848839 4.55507923 25.17604161 6.72264635 38 8 C38 8.33 38 8.66 38 9 C35.7722603 9.22307542 33.54268636 9.42788178 31.3125 9.625 C30.07113281 9.74101562 28.82976562 9.85703125 27.55078125 9.9765625 C24.00267268 9.99998236 22.17338082 9.43071067 19 8 C16.21984407 7.65936828 13.82829609 7.81453796 11 8 C10.34 8.66 9.68 9.32 9 10 C5.875 10.125 5.875 10.125 3 10 C3 9.34 3 8.68 3 8 C1.948125 8.2784375 1.948125 8.2784375 0.875 8.5625 C-2.33888698 9.05156976 -4.83560336 8.66231558 -8 8 C-8 7.34 -8 6.68 -8 6 C-7.34 6 -6.68 6 -6 6 C-6 5.34 -6 4.68 -6 4 C-2.47058824 0 -2.47058824 0 0 0 Z " fill="#A3173B" transform="translate(181,350)"/>
<path d="M0 0 C0.66 0 1.32 0 2 0 C2 39.6 2 79.2 2 120 C0 118 0 118 -0.24609566 115.98914146 C-0.24333028 114.74195556 -0.24333028 114.74195556 -0.24050903 113.46957397 C-0.24325836 112.51602524 -0.24600769 111.5624765 -0.24884033 110.58003235 C-0.24164978 109.53058945 -0.23445923 108.48114655 -0.22705078 107.39990234 C-0.22734283 106.29745682 -0.22763489 105.19501129 -0.22793579 104.05915833 C-0.22653822 100.40133903 -0.2109568 96.74372138 -0.1953125 93.0859375 C-0.19158389 90.55530916 -0.1887362 88.02467937 -0.18673706 85.49404907 C-0.17987111 79.50523494 -0.16409512 73.51650788 -0.14403808 67.52772868 C-0.12170069 60.71040993 -0.1106911 53.89308775 -0.10064721 47.07574153 C-0.07972945 33.050454 -0.04453999 19.02523098 0 5 C-0.99 4.67 -1.98 4.34 -3 4 C-2.34 3.67 -1.68 3.34 -1 3 C-0.67 2.01 -0.34 1.02 0 0 Z " fill="#971C3E" transform="translate(124,163)"/>
<path d="M0 0 C1.24546405 2.49092811 0.7767578 3.41080733 0 6 C0.66 6.33 1.32 6.66 2 7 C1.09373216 8.2989839 0.17450463 9.58893167 -0.75 10.875 C-1.26046875 11.59429687 -1.7709375 12.31359375 -2.296875 13.0546875 C-4.11103387 15.12682309 -5.43209775 16.04836564 -8 17 C-11.125 16.9375 -11.125 16.9375 -14 16 C-15.1875 13.5625 -15.1875 13.5625 -16 11 C-16.99 10.34 -17.98 9.68 -19 9 C-19 8.34 -19 7.68 -19 7 C-16.03824877 7.61277612 -14.61941217 8.25372522 -12 10 C-8.62862616 9.87632919 -7.35581338 9.36407211 -4.98046875 6.93359375 C-4.38878906 6.10988281 -3.79710937 5.28617187 -3.1875 4.4375 C-2.58292969 3.61121094 -1.97835938 2.78492188 -1.35546875 1.93359375 C-0.68451172 0.97646484 -0.68451172 0.97646484 0 0 Z " fill="#9C193D" transform="translate(260,337)"/>
<path d="M0 0 C1.32 0.33 2.64 0.66 4 1 C4 2.65 4 4.3 4 6 C5.32 6.33 6.64 6.66 8 7 C7.4453125 8.953125 7.4453125 8.953125 6 11 C2.7421875 11.609375 2.7421875 11.609375 -1.125 11.75 C-2.40632813 11.80671875 -3.68765625 11.8634375 -5.0078125 11.921875 C-5.99523437 11.94765625 -6.98265625 11.9734375 -8 12 C-7.37377674 7.28718579 -6.82452533 5.01326238 -3 2 C-2.34 2 -1.68 2 -1 2 C-0.67 1.34 -0.34 0.68 0 0 Z " fill="#BD1D47" transform="translate(268,331)"/>
<path d="M0 0 C0.33 0 0.66 0 1 0 C0.93941406 0.59683594 0.87882812 1.19367188 0.81640625 1.80859375 C0.16464079 8.55687309 -0.27688749 15.3014477 -0.60717773 22.07202148 C-0.75644776 24.89182041 -0.92042739 27.62477896 -1.50708008 30.39111328 C-2.41788478 35.21174677 -2.18458144 40.10849888 -2.1875 45 C-2.19974609 46.08023438 -2.21199219 47.16046875 -2.22460938 48.2734375 C-2.22654297 49.31757813 -2.22847656 50.36171875 -2.23046875 51.4375 C-2.23457764 52.38496094 -2.23868652 53.33242188 -2.24291992 54.30859375 C-1.87736804 58.35868816 -0.88308172 61.11691828 2 64 C1.01 64.99 1.01 64.99 0 66 C0.33 66.66 0.66 67.32 1 68 C-0.485 68.495 -0.485 68.495 -2 69 C-2 66.36 -2 63.72 -2 61 C-2.66 61 -3.32 61 -4 61 C-4.71113781 18.2223255 -4.71113781 18.2223255 0 0 Z " fill="#C02953" transform="translate(54,207)"/>
<path d="M0 0 C1 3 1 3 0.0625 5.1875 C-0.288125 5.785625 -0.63875 6.38375 -1 7 C-0.67 7.33 -0.34 7.66 0 8 C-0.598125 8.886875 -1.19625 9.77375 -1.8125 10.6875 C-2.534375 11.780625 -3.25625 12.87375 -4 14 C-4.556875 14.763125 -5.11375 15.52625 -5.6875 16.3125 C-7.03883197 19.07951309 -7.1662597 20.60757522 -7.3125 23.625 C-7.484375 25.97265625 -7.484375 25.97265625 -8 28 C-11.0625 30.0625 -11.0625 30.0625 -14 31 C-12.65832024 23.62076131 -10.34601807 17.11128513 -7 10.4375 C-6.65582031 9.74720703 -6.31164062 9.05691406 -5.95703125 8.34570312 C-4.30835317 5.15257373 -2.7950487 2.31464971 0 0 Z " fill="#AE2046" transform="translate(239,227)"/>
<path d="M0 0 C0 3.53060249 -1.2632025 5.25275928 -3.04296875 8.21484375 C-4.22785306 10.42501571 -4.69941412 12.52016648 -5 15 C-5.825 15.020625 -6.65 15.04125 -7.5 15.0625 C-14.21725325 16.86176426 -18.99652163 22.49521724 -23 28 C-23.66 27.67 -24.32 27.34 -25 27 C-23.7770756 23.3312268 -21.71691897 21.60413825 -19 19 C-17.44905894 17.45459184 -15.90118402 15.90610374 -14.35546875 14.35546875 C-9.5703125 9.5703125 -4.78515625 4.78515625 0 0 Z " fill="#B7163E" transform="translate(133,148)"/>
<path d="M0 0 C0.495 0.99 0.495 0.99 1 2 C-2.41250798 5.51914885 -5.97072446 8.7309155 -9.7421875 11.86328125 C-11.71999847 13.73501586 -13.45603093 15.63921882 -15.23046875 17.69921875 C-19.09725758 22.17788708 -23.23035638 26.3428956 -27.4375 30.5 C-28.16904297 31.22703125 -28.90058594 31.9540625 -29.65429688 32.703125 C-31.43389824 34.47109499 -33.21580918 36.23666378 -35 38 C-35.495 36.515 -35.495 36.515 -36 35 C-35.33613281 34.40832031 -34.67226563 33.81664062 -33.98828125 33.20703125 C-27.89531495 27.75449353 -22.07600325 22.42960411 -17 16 C-16.0206121 14.97980427 -15.02104551 13.97850195 -14 13 C-13.443125 12.4225 -12.88625 11.845 -12.3125 11.25 C-9.56990966 8.58153372 -6.69938303 6.08739138 -3.8046875 3.5859375 C-2.49559495 2.43552284 -1.23231027 1.23231027 0 0 Z " fill="#E01F51" transform="translate(94,187)"/>
<path d="M0 0 C0.08685287 3.29150125 0.14033895 6.5827096 0.1875 9.875 C0.22520508 11.28072266 0.22520508 11.28072266 0.26367188 12.71484375 C0.27817383 14.05869141 0.27817383 14.05869141 0.29296875 15.4296875 C0.31653442 16.67081299 0.31653442 16.67081299 0.34057617 17.93701172 C0.22818604 18.61779785 0.1157959 19.29858398 0 20 C-0.99 20.66 -1.98 21.32 -3 22 C-3.99 21.67 -4.98 21.34 -6 21 C-4.68 20.67 -3.36 20.34 -2 20 C-2 14.72 -2 9.44 -2 4 C-3.98 4.33 -5.96 4.66 -8 5 C-8 4.34 -8 3.68 -8 3 C-8.99 3.33 -9.98 3.66 -11 4 C-11 3.34 -11 2.68 -11 2 C-6.76279771 -0.4634897 -4.73029789 -1.2168228 0 0 Z " fill="#8F1A3A" transform="translate(217,195)"/>
<path d="M0 0 C10.84337054 5.04210705 21.53340587 10.21258913 32 16 C32 22.93 32 29.86 32 37 C30.68 37.66 29.36 38.32 28 39 C28.33 38.01 28.66 37.02 29 36 C29.66 36 30.32 36 31 36 C30.505 26.595 30.505 26.595 30 17 C28.865625 16.525625 27.73125 16.05125 26.5625 15.5625 C19.47411389 12.42594576 12.69363365 8.6602929 5.87182617 4.98974609 C3.92906487 3.96249237 1.96909401 2.97568458 0 2 C0 1.34 0 0.68 0 0 Z " fill="#7A1B36" transform="translate(297,198)"/>
<path d="M0 0 C-0.33 0.99 -0.66 1.98 -1 3 C-1.66 3 -2.32 3 -3 3 C-3 3.66 -3 4.32 -3 5 C-4.53125 6.2890625 -4.53125 6.2890625 -6.5 7.625 C-7.1496875 8.07101562 -7.799375 8.51703125 -8.46875 8.9765625 C-8.9740625 9.31429688 -9.479375 9.65203125 -10 10 C-9.67 9.01 -9.34 8.02 -9 7 C-9.7425 6.855625 -10.485 6.71125 -11.25 6.5625 C-14 6 -14 6 -15.875 5.4375 C-18.33222659 4.93160041 -20.26878568 5.10910399 -22.75 5.4375 C-23.54921875 5.53933594 -24.3484375 5.64117187 -25.171875 5.74609375 C-25.77515625 5.82988281 -26.3784375 5.91367187 -27 6 C-27.33 5.34 -27.66 4.68 -28 4 C-27.35450195 3.91435791 -26.70900391 3.82871582 -26.04394531 3.74047852 C-23.11231113 3.35017375 -20.18115667 2.95637418 -17.25 2.5625 C-16.23421875 2.42779297 -15.2184375 2.29308594 -14.171875 2.15429688 C-13.1921875 2.02216797 -12.2125 1.89003906 -11.203125 1.75390625 C-10.30239258 1.63345947 -9.40166016 1.5130127 -8.47363281 1.38891602 C-5.60671186 0.93816542 -2.90165507 0 0 0 Z " fill="#A1163A" transform="translate(319,354)"/>
<path d="M0 0 C5.38401726 0.6947119 8.60599071 2.60266254 14 5 C14 12.26 14 19.52 14 27 C8.5403812 28.09192376 7.56969675 27.65680044 3 25 C3.99 24.34 4.98 23.68 6 23 C6.66 23.66 7.32 24.32 8 25 C9.32 25.33 10.64 25.66 12 26 C11.67 19.4 11.34 12.8 11 6 C7.37 4.35 3.74 2.7 0 1 C0 0.67 0 0.34 0 0 Z " fill="#741A34" transform="translate(203,229)"/>
<path d="M0 0 C0.99 0.33 1.98 0.66 3 1 C3 1.66 3 2.32 3 3 C3.66 3 4.32 3 5 3 C5 2.34 5 1.68 5 1 C6.32 1 7.64 1 9 1 C8.67 1.99 8.34 2.98 8 4 C14.93 4.495 14.93 4.495 22 5 C22 5.33 22 5.66 22 6 C19.14630381 6.22346404 16.29311502 6.42913552 13.4375 6.625 C12.23770508 6.72167969 12.23770508 6.72167969 11.01367188 6.8203125 C5.81522739 7.15980275 1.92384688 6.70827341 -3 5 C-4.33130115 4.65864073 -5.66358148 4.32074044 -7 4 C-7 3.34 -7 2.68 -7 2 C-4.69 2 -2.38 2 0 2 C0 1.34 0 0.68 0 0 Z " fill="#A71B3E" transform="translate(215,336)"/>
<path d="M0 0 C1 3 1 3 0.19555664 5.17651367 C-0.22862549 5.99869385 -0.65280762 6.82087402 -1.08984375 7.66796875 C-1.54423828 8.56064453 -1.99863281 9.45332031 -2.46679688 10.37304688 C-2.95212891 11.30181641 -3.43746094 12.23058594 -3.9375 13.1875 C-4.65969727 14.59805664 -4.65969727 14.59805664 -5.39648438 16.03710938 C-6.58884124 18.36279553 -7.79026546 20.68331881 -9 23 C-9.33 23 -9.66 23 -10 23 C-11 15.375 -11 15.375 -11 12 C-8.41041797 9.06047445 -6.74633486 7.24877829 -3 6 C-1.29144978 2.99992729 -1.29144978 2.99992729 0 0 Z " fill="#A4173C" transform="translate(251,241)"/>
<path d="M0 0 C0.70125 0.07863281 1.4025 0.15726562 2.125 0.23828125 C4 0.6875 4 0.6875 6 2.6875 C5.46428571 6.22321429 5.46428571 6.22321429 4 7.6875 C1.30917128 7.51114548 -1.32851446 7.06914079 -4 6.6875 C-4 6.0275 -4 5.3675 -4 4.6875 C-4.66 4.6875 -5.32 4.6875 -6 4.6875 C-6 3.3675 -6 2.0475 -6 0.6875 C-3.63106495 -0.49696753 -2.5933174 -0.31939755 0 0 Z " fill="#DB2150" transform="translate(186,432.3125)"/>
<path d="M0 0 C0.66 0.33 1.32 0.66 2 1 C1.50628906 1.54269531 1.01257813 2.08539063 0.50390625 2.64453125 C-0.45708984 3.71767578 -0.45708984 3.71767578 -1.4375 4.8125 C-2.07558594 5.52019531 -2.71367188 6.22789063 -3.37109375 6.95703125 C-5.19086012 8.99896152 -5.19086012 8.99896152 -6 12 C-6.99 12.33 -7.98 12.66 -9 13 C-9.99 14.485 -9.99 14.485 -11 16 C-12.66500443 16.34153937 -14.33178677 16.67449498 -16 17 C-17.79385992 18.4579186 -17.79385992 18.4579186 -19 20 C-19.66 19.67 -20.32 19.34 -21 19 C-18.44038523 16.58026226 -15.87679983 14.16477147 -13.3125 11.75 C-12.59126953 11.06808594 -11.87003906 10.38617188 -11.12695312 9.68359375 C-7.52652647 6.29689105 -3.93037062 3.0078576 0 0 Z " fill="#D42958" transform="translate(126,92)"/>
<path d="M0 0 C13.20359826 3.77245665 25.31952657 10.92092519 37 18 C35 19 35 19 32.9375 18.6875 C31 18 31 18 30 16 C28.03700146 15.15934368 26.03929129 14.53482652 24.0078125 13.87890625 C21.77334552 12.90078354 20.67776875 11.74417121 19 10 C14.40743186 7.07211541 10.54902171 5.44509783 5 6 C4.67 5.01 4.34 4.02 4 3 C1.99983534 1.79117904 1.99983534 1.79117904 0 1 C0 0.67 0 0.34 0 0 Z " fill="#C52952" transform="translate(321,63)"/>
<path d="M0 0 C7.2044044 -0.25461741 13.87084595 0.44045417 20.9375 1.8125 C21.89736816 1.99264648 22.85723633 2.17279297 23.84619141 2.35839844 C30.31860847 3.59992471 36.70966902 5.01357969 43 7 C43 7.33 43 7.66 43 8 C40.66705225 8.04241723 38.33297433 8.04092937 36 8 C35.505 7.505 35.505 7.505 35 7 C33.50503158 6.79300437 32.0033408 6.63320741 30.5 6.5 C26.11111111 6.11111111 26.11111111 6.11111111 25 5 C23.15285176 4.63131932 21.29472921 4.31726937 19.43359375 4.02734375 C17.7465332 3.76147461 17.7465332 3.76147461 16.02539062 3.49023438 C14.24938477 3.21663086 14.24938477 3.21663086 12.4375 2.9375 C11.24962891 2.75123047 10.06175781 2.56496094 8.83789062 2.37304688 C5.89247669 1.91171698 2.94651904 1.45420899 0 1 C0 0.67 0 0.34 0 0 Z " fill="#C42855" transform="translate(266,51)"/>
<path d="M0 0 C2.475 0.99 2.475 0.99 5 2 C0.30217584 7.93409367 -4.98649896 12.42451008 -11 17 C-11.66 16.67 -12.32 16.34 -13 16 C-12.34 14.35 -11.68 12.7 -11 11 C-9.68 11.33 -8.36 11.66 -7 12 C-6.814375 11.1028125 -6.814375 11.1028125 -6.625 10.1875 C-6 8 -6 8 -4 5 C-3.01 5.66 -2.02 6.32 -1 7 C-0.67 4.69 -0.34 2.38 0 0 Z " fill="#DC2354" transform="translate(381,394)"/>
<path d="M0 0 C2.475 0.99 2.475 0.99 5 2 C5.84888195 7.37625234 6.0024305 11.65370398 5 17 C5.66 17.33 6.32 17.66 7 18 C6.34 18.66 5.68 19.32 5 20 C2.29466594 13.26812223 0.47567125 7.25398658 0 0 Z " fill="#DA2051" transform="translate(57,296)"/>
<path d="M0 0 C5.49152542 1.83050847 5.49152542 1.83050847 8 4 C8.44273108 7.0397268 8.28778111 9.94952028 8 13 C7.01 13.33 6.02 13.66 5 14 C4.34 13.67 3.68 13.34 3 13 C2.63473747 10.67145135 2.30649316 8.33701038 2 6 C1.37743972 3.98583438 0.72433347 1.97984481 0 0 Z " fill="#D01E4A" transform="translate(64,320)"/>
<path d="M0 0 C4.29 0 8.58 0 13 0 C11 5 11 5 8 7 C4 7 4 7 1.75 5.1875 C0 3 0 3 0 0 Z " fill="#BB1E46" transform="translate(171,232)"/>
<path d="M0 0 C0.88816406 0.25394531 1.77632812 0.50789063 2.69140625 0.76953125 C14.64562316 4.03846157 26.7035103 5.59708819 39 7 C39 7.33 39 7.66 39 8 C36.7722603 8.22307542 34.54268636 8.42788178 32.3125 8.625 C30.45044922 8.79902344 30.45044922 8.79902344 28.55078125 8.9765625 C24.90465534 9.00062934 23.27363567 8.4413769 20 7 C16.95848955 6.21640961 13.88599794 5.58261569 10.8125 4.9375 C9.19350062 4.59484789 7.57498408 4.24990399 5.95703125 3.90234375 C5.24522705 3.75273193 4.53342285 3.60312012 3.80004883 3.44897461 C2 3 2 3 0 2 C0 1.34 0 0.68 0 0 Z " fill="#821736" transform="translate(180,351)"/>
<path d="M0 0 C0.33 0 0.66 0 1 0 C1.46988863 4.51093084 1.32447855 6.91789868 -1.3125 10.65625 C-4.18483868 15.05217702 -5.77134658 19.50650027 -7.3125 24.5 C-7.57611328 25.32242188 -7.83972656 26.14484375 -8.11132812 26.9921875 C-8.7507006 28.9916796 -9.37677958 30.99541472 -10 33 C-11.11997548 29.67961874 -10.88356519 27.82417708 -9.70703125 24.55078125 C-9.40603516 23.70193359 -9.10503906 22.85308594 -8.79492188 21.97851562 C-8.47072266 21.09873047 -8.14652344 20.21894531 -7.8125 19.3125 C-7.50763672 18.45205078 -7.20277344 17.59160156 -6.88867188 16.70507812 C-4.84371514 11.0160685 -2.53200142 5.48864493 0 0 Z " fill="#C02D54" transform="translate(68,165)"/>
<path d="M0 0 C0.66 0.33 1.32 0.66 2 1 C-3.47484395 7.31354345 -7.61264056 11.940516 -16.1640625 12.9140625 C-16.76992188 12.94242187 -17.37578125 12.97078125 -18 13 C-18.66 11.68 -19.32 10.36 -20 9 C-19.31035156 9.020625 -18.62070312 9.04125 -17.91015625 9.0625 C-10.42383322 8.89819113 -6.86081145 6.97513435 -1.58203125 1.71484375 C-1.05996094 1.14894531 -0.53789062 0.58304687 0 0 Z " fill="#A2153C" transform="translate(365,298)"/>
<path d="M0 0 C0.99 0.495 0.99 0.495 2 1 C1.01 1.495 1.01 1.495 0 2 C0 1.34 0 0.68 0 0 Z M-1 2 C-1 5 -1 5 -3.08203125 7.4453125 C-3.98308594 8.32960938 -4.88414062 9.21390625 -5.8125 10.125 C-6.70582031 11.01445312 -7.59914062 11.90390625 -8.51953125 12.8203125 C-11 15 -11 15 -14 16 C-14.66 16.66 -15.32 17.32 -16 18 C-17.32 17.01 -18.64 16.02 -20 15 C-19.67 14.34 -19.34 13.68 -19 13 C-17.948125 13.12375 -16.89625 13.2475 -15.8125 13.375 C-12.14375238 13.39054999 -12.14375238 13.39054999 -10.4921875 11.6640625 C-9.293847 10.13564019 -8.14428317 8.56930263 -7 7 C-6.34 7 -5.68 7 -5 7 C-5 6.34 -5 5.68 -5 5 C-3 3.375 -3 3.375 -1 2 Z " fill="#D61D4C" transform="translate(141,387)"/>
<path d="M0 0 C0.66 0.99 1.32 1.98 2 3 C1.01 3.33 0.02 3.66 -1 4 C-1.37015482 5.32358389 -1.6987718 6.65904867 -2 8 C-4.97575873 12.29413286 -8.71281021 16.02278487 -13 19 C-13.66 19 -14.32 19 -15 19 C-15.66 20.32 -16.32 21.64 -17 23 C-17.66 22.67 -18.32 22.34 -19 22 C-16.62575183 18.73540876 -14.05654207 16.10604426 -11 13.5 C-6.34980691 9.51412021 -3.04040202 5.32070354 0 0 Z " fill="#DC2655" transform="translate(369,293)"/>
<path d="M0 0 C1.43088528 2.86177057 0.59991697 4.93375773 0 8 C0.66 8.33 1.32 8.66 2 9 C-0.64738916 10.4606285 -1.89448334 11 -5 11 C-5.433125 12.4540625 -5.433125 12.4540625 -5.875 13.9375 C-7 17 -7 17 -9 18 C-7.65072455 13.46152802 -5.80840652 9.68067754 -3.375 5.625 C-2.74335937 4.56539062 -2.11171875 3.50578125 -1.4609375 2.4140625 C-0.73777344 1.21910156 -0.73777344 1.21910156 0 0 Z " fill="#D52A58" transform="translate(78,147)"/>
<path d="M0 0 C2.875 -0.125 2.875 -0.125 6 0 C9.00617269 3.00617269 8.59585316 5.82381598 9 10 C7.86800647 9.0919838 6.74467637 8.17316174 5.625 7.25 C4.99851562 6.73953125 4.37203125 6.2290625 3.7265625 5.703125 C1.91687682 3.91800519 0.99882545 2.32050356 0 0 Z " fill="#E22154" transform="translate(104,384)"/>
<path d="M0 0 C0.33 0 0.66 0 1 0 C1 7.26 1 14.52 1 22 C-5.75 20.875 -5.75 20.875 -9 18 C-8.01 17.67 -7.02 17.34 -6 17 C-5.34 17.66 -4.68 18.32 -4 19 C-2.68 19.33 -1.36 19.66 0 20 C0 13.4 0 6.8 0 0 Z " fill="#891A3A" transform="translate(215,235)"/>
<path d="M0 0 C1.15518918 0.90484792 2.29885406 1.8244206 3.4375 2.75 C4.07558594 3.26046875 4.71367187 3.7709375 5.37109375 4.296875 C7.18810554 6.19667629 7.60423197 7.43586908 8 10 C6.02 10 4.04 10 2 10 C2 8.68 2 7.36 2 6 C1.34 5.67 0.68 5.34 0 5 C-0.6875 3 -0.6875 3 -1 1 C-0.67 0.67 -0.34 0.34 0 0 Z " fill="#9F193D" transform="translate(217,310)"/>
<path d="M0 0 C-2.37386666 0.94954666 -4.74811383 1.89786755 -7.125 2.83984375 C-9.00959513 3.60033934 -10.88523039 4.38351601 -12.75 5.19140625 C-14.049375 5.74634766 -14.049375 5.74634766 -15.375 6.3125 C-16.16648438 6.65925781 -16.95796875 7.00601563 -17.7734375 7.36328125 C-20.31496054 8.09006766 -21.51108364 7.7219882 -24 7 C-20.75744348 5.62749639 -17.50496348 4.28028452 -14.25 2.9375 C-13.32960937 2.54755859 -12.40921875 2.15761719 -11.4609375 1.75585938 C-10.57148438 1.39169922 -9.68203125 1.02753906 -8.765625 0.65234375 C-7.94868164 0.31195068 -7.13173828 -0.02844238 -6.29003906 -0.37915039 C-3.75573236 -1.06622309 -2.44491668 -0.86652168 0 0 Z " fill="#C62C56" transform="translate(192,60)"/>
<path d="M0 0 C2 2 2 2 2 5.9375 C1.69140625 8.08984375 1.69140625 8.08984375 1 10 C-2.0625 12 -2.0625 12 -5 13 C-3.78184562 8.31479085 -2.30440013 4.29456388 0 0 Z " fill="#BE1D48" transform="translate(230,245)"/>
<path d="M0 0 C0 3.53060249 -1.2632025 5.25275928 -3.04296875 8.21484375 C-4.22785306 10.42501571 -4.69941412 12.52016648 -5 15 C-5.99 14.67 -6.98 14.34 -8 14 C-7.1302597 7.91181789 -4.44621124 4.13957599 0 0 Z " fill="#941536" transform="translate(133,148)"/>
<path d="M0 0 C-0.125 2.3125 -0.125 2.3125 -1 5 C-5.83997253 8.22664835 -5.83997253 8.22664835 -9.19921875 7.5703125 C-9.79347656 7.38210937 -10.38773438 7.19390625 -11 7 C-9.54634731 5.82750647 -8.08692581 4.66216184 -6.625 3.5 C-5.40683594 2.52546875 -5.40683594 2.52546875 -4.1640625 1.53125 C-2 0 -2 0 0 0 Z " fill="#D72A57" transform="translate(139,84)"/>
<path d="M0 0 C1.65 0.33 3.3 0.66 5 1 C1.19791273 4.30616284 -4.83581485 8 -10 8 C-10 7.34 -10 6.68 -10 6 C-9.34 6 -8.68 6 -8 6 C-7.67 5.01 -7.34 4.02 -7 3 C-6.67 3.66 -6.34 4.32 -6 5 C-5.34 4.67 -4.68 4.34 -4 4 C-4.33 3.34 -4.66 2.68 -5 2 C-4.01 1.67 -3.02 1.34 -2 1 C-2 1.66 -2 2.32 -2 3 C-1.34 3 -0.68 3 0 3 C0 2.01 0 1.02 0 0 Z " fill="#D72450" transform="translate(340,425)"/>
<path d="M0 0 C-1.6188996 1.03048037 -3.24532489 2.04914678 -4.875 3.0625 C-5.77992188 3.63097656 -6.68484375 4.19945312 -7.6171875 4.78515625 C-8.40351563 5.18605469 -9.18984375 5.58695312 -10 6 C-10.66 5.67 -11.32 5.34 -12 5 C-11.34 3.35 -10.68 1.7 -10 0 C-2.25 -1.125 -2.25 -1.125 0 0 Z " fill="#DB214F" transform="translate(358,419)"/>
<path d="M0 0 C0.66 0 1.32 0 2 0 C1.1875 3.4375 1.1875 3.4375 0 7 C-0.99 7.33 -1.98 7.66 -3 8 C-3.66 7.34 -4.32 6.68 -5 6 C-4.625 3.375 -4.625 3.375 -4 1 C-2.02 1.495 -2.02 1.495 0 2 C0 1.34 0 0.68 0 0 Z " fill="#D41F4E" transform="translate(142,408)"/>
<path d="M0 0 C2.81699062 1.87799375 5.43981482 3.78578579 8 6 C8 6.66 8 7.32 8 8 C7.34 8 6.68 8 6 8 C6.33 9.65 6.66 11.3 7 13 C4.64283596 10.84545751 3.21033856 8.80280126 1.8125 5.9375 C1.29623047 4.89916016 1.29623047 4.89916016 0.76953125 3.83984375 C0 2 0 2 0 0 Z " fill="#B52049" transform="translate(68,333)"/>
<path d="M0 0 C0.66 0.33 1.32 0.66 2 1 C2 1.66 2 2.32 2 3 C2.66 3.33 3.32 3.66 4 4 C-1.625 9 -1.625 9 -5 9 C-3.50163895 5.88801935 -1.80066242 2.9465385 0 0 Z " fill="#E92355" transform="translate(392,383)"/>
<path d="M0 0 C0.33 0.66 0.66 1.32 1 2 C0.00390625 4.6015625 0.00390625 4.6015625 -1.4375 7.625 C-1.91058594 8.62789063 -2.38367188 9.63078125 -2.87109375 10.6640625 C-3.24363281 11.43492187 -3.61617188 12.20578125 -4 13 C-4.66 11.68 -5.32 10.36 -6 9 C-5.34 8.67 -4.68 8.34 -4 8 C-4 6.35 -4 4.7 -4 3 C-3.34 3 -2.68 3 -2 3 C-2 2.34 -2 1.68 -2 1 C-1.34 0.67 -0.68 0.34 0 0 Z " fill="#D42553" transform="translate(432,330)"/>
<path d="M0 0 C1.4606285 2.64738916 2 3.89448334 2 7 C1.34 7 0.68 7 0 7 C0.33 8.32 0.66 9.64 1 11 C0.01 11.33 -0.98 11.66 -2 12 C-3.35384615 5.72307692 -3.35384615 5.72307692 -1.5625 2.0625 C-1.046875 1.381875 -0.53125 0.70125 0 0 Z " fill="#BF1C47" transform="translate(246,212)"/>
<path d="M0 0 C0.66 0 1.32 0 2 0 C2 0.66 2 1.32 2 2 C3.65 2.33 5.3 2.66 7 3 C6.67 3.99 6.34 4.98 6 6 C4.02 6 2.04 6 0 6 C-1.125 2.25 -1.125 2.25 0 0 Z " fill="#D3204F" transform="translate(161,424)"/>
<path d="M0 0 C0 3.8148669 -1.06277405 5.72675616 -3 9 C-5.6875 11.375 -5.6875 11.375 -8 13 C-8 9.00717059 -6.52191924 7.84668408 -4 4.8125 C-3.2575 3.91144531 -2.515 3.01039063 -1.75 2.08203125 C-1.1725 1.39496094 -0.595 0.70789063 0 0 Z " fill="#90193A" transform="translate(280,311)"/>
<path d="M0 0 C2.125 0.375 2.125 0.375 4 1 C4.5625 2.9375 4.5625 2.9375 5 5 C4 6 4 6 1.4375 6.0625 C0.2309375 6.0315625 0.2309375 6.0315625 -1 6 C-1.625 4.125 -1.625 4.125 -2 2 C-1.34 1.34 -0.68 0.68 0 0 Z " fill="#C11E49" transform="translate(284,249)"/>
<path d="M0 0 C0.33 0.99 0.66 1.98 1 3 C1.33 3.33 1.66 3.66 2 4 C2 4.99 2 5.98 2 7 C0.68 7.33 -0.64 7.66 -2 8 C-1.67 7.01 -1.34 6.02 -1 5 C-3.97 4.505 -3.97 4.505 -7 4 C-7 3.01 -7 2.02 -7 1 C-5.824375 1.309375 -5.824375 1.309375 -4.625 1.625 C-3.75875 1.74875 -2.8925 1.8725 -2 2 C-1.34 1.34 -0.68 0.68 0 0 Z " fill="#8D1436" transform="translate(254,345)"/>
<path d="M0 0 C0.66 0 1.32 0 2 0 C2.25 3.3125 2.25 3.3125 2 7 C0 8.9375 0 8.9375 -2 10 C-2.33 8.35 -2.66 6.7 -3 5 C-2.34 5 -1.68 5 -1 5 C-0.67 3.35 -0.34 1.7 0 0 Z " fill="#D01D4C" transform="translate(77,336)"/>
<path d="M0 0 C1 3 1 3 -0.21484375 5.91796875 C-0.78332031 6.99691406 -1.35179687 8.07585937 -1.9375 9.1875 C-2.50339844 10.27417969 -3.06929687 11.36085937 -3.65234375 12.48046875 C-4.09707031 13.31191406 -4.54179687 14.14335937 -5 15 C-5.33 15 -5.66 15 -6 15 C-6 12.33333333 -6 9.66666667 -6 7 C-5.01 6.67 -4.02 6.34 -3 6 C-1.29144978 2.99992729 -1.29144978 2.99992729 0 0 Z " fill="#841535" transform="translate(251,241)"/>
<path d="M0 0 C0.33 0 0.66 0 1 0 C1.50866669 2.35258344 2.0070625 4.70661404 2.5 7.0625 C2.64308594 7.71927734 2.78617187 8.37605469 2.93359375 9.05273438 C3.83952455 13.43139988 4.14031146 17.50418704 4 22 C3.67 22 3.34 22 3 22 C2.87882812 21.20335937 2.75765625 20.40671875 2.6328125 19.5859375 C1.59909943 12.95455784 1.59909943 12.95455784 -0.1875 6.5 C-1.05883705 3.81896292 -0.99902683 2.59746977 0 0 Z " fill="#C8244F" transform="translate(444,202)"/>
<path d="M0 0 C-0.33 1.32 -0.66 2.64 -1 4 C-3.31 3.01 -5.62 2.02 -8 1 C-8 0.34 -8 -0.32 -8 -1 C-4.37673261 -2.2077558 -3.35853631 -1.54311128 0 0 Z " fill="#E32156" transform="translate(216,443)"/>
<path d="M0 0 C-1.98 2.31 -3.96 4.62 -6 7 C-8 4 -8 4 -8 1 C-5.07175348 0.02391783 -3.04386724 -0.08226668 0 0 Z " fill="#DD2553" transform="translate(403,379)"/>
<path d="M0 0 C2.0625 0.4375 2.0625 0.4375 4 1 C4 1.66 4 2.32 4 3 C4.66 3.33 5.32 3.66 6 4 C6 5.32 6 6.64 6 8 C2.17053157 6.54744301 0.87949705 4.57104439 -1 1 C-0.67 0.67 -0.34 0.34 0 0 Z " fill="#D62354" transform="translate(114,393)"/>
<path d="M0 0 C0.33 1.32 0.66 2.64 1 4 C-1.64 6.31 -4.28 8.62 -7 11 C-7 7.22089522 -6.00296038 6.53893899 -3.5 3.8125 C-2.8503125 3.09707031 -2.200625 2.38164063 -1.53125 1.64453125 C-1.0259375 1.10183594 -0.520625 0.55914062 0 0 Z " fill="#CE2C57" transform="translate(100,117)"/>
<path d="M0 0 C-0.66 1.98 -1.32 3.96 -2 6 C-2.99 5.67 -3.98 5.34 -5 5 C-6.66621616 4.96125079 -8.33394172 4.9549714 -10 5 C-3.63636364 0 -3.63636364 0 0 0 Z " fill="#A0183D" transform="translate(198,202)"/>
<path d="M0 0 C-1.65 0.66 -3.3 1.32 -5 2 C-5 2.33 -5 2.66 -5 3 C-9.21015871 3.95685425 -11.25712373 4.13181214 -15 2 C-13.25364835 1.46706165 -11.50272348 0.94909337 -9.75 0.4375 C-8.77546875 0.14746094 -7.8009375 -0.14257812 -6.796875 -0.44140625 C-4.03756068 -0.99249836 -2.6087176 -0.93789609 0 0 Z " fill="#CD2B55" transform="translate(207,56)"/>
<path d="M0 0 C2.64 0 5.28 0 8 0 C8 0.66 8 1.32 8 2 C6 4 6 4 3 5 C3 4.34 3 3.68 3 3 C2.01 2.67 1.02 2.34 0 2 C0 1.34 0 0.68 0 0 Z " fill="#C61D4B" transform="translate(313,344)"/>
<path d="M0 0 C0 0.99 0 1.98 0 3 C-4.95 5.475 -4.95 5.475 -10 8 C-7.71928365 3.43856731 -6.49935759 2.96846895 -2 1 C-1.34 0.67 -0.68 0.34 0 0 Z " fill="#A21B3C" transform="translate(278,320)"/>
<path d="M0 0 C0.99 0.99 1.98 1.98 3 3 C3 3.66 3 4.32 3 5 C3.66 5.66 4.32 6.32 5 7 C4.34 7.66 3.68 8.32 3 9 C3.33 9.66 3.66 10.32 4 11 C3.01 11.33 2.02 11.66 1 12 C0.67 8.04 0.34 4.08 0 0 Z " fill="#D22452" transform="translate(51,264)"/>
<path d="M0 0 C0.33 0 0.66 0 1 0 C1.33292585 4.24480464 1.43885872 6.35542625 -1 9.9375 C-1.66 10.618125 -2.32 11.29875 -3 12 C-2.49202991 7.6822542 -1.80317221 3.96697886 0 0 Z " fill="#D42B58" transform="translate(68,165)"/>
<path d="M0 0 C-0.33 0.99 -0.66 1.98 -1 3 C-1.66 3 -2.32 3 -3 3 C-3 3.66 -3 4.32 -3 5 C-3.99 5.33 -4.98 5.66 -6 6 C-6 5.34 -6 4.68 -6 4 C-6.66 3.67 -7.32 3.34 -8 3 C-5.48696401 0.48696401 -3.51117809 0 0 0 Z " fill="#AE153F" transform="translate(319,354)"/>
<path d="M0 0 C2.00720923 0.28674418 4.0085944 0.61866701 6 1 C6 1.66 6 2.32 6 3 C5.34 3 4.68 3 4 3 C3.34 4.32 2.68 5.64 2 7 C1.01 5.02 0.02 3.04 -1 1 C-0.67 0.67 -0.34 0.34 0 0 Z " fill="#9F153A" transform="translate(257,217)"/>
<path d="M0 0 C0.33 0.66 0.66 1.32 1 2 C-2.16952847 5.26008643 -5.39937989 8.22237877 -9 11 C-7.59928507 5.70841026 -4.14512755 3.22521956 0 0 Z " fill="#D31B49" transform="translate(94,187)"/>
<path d="M0 0 C1.32 0 2.64 0 4 0 C4.33 1.32 4.66 2.64 5 4 C2.69 4.33 0.38 4.66 -2 5 C-1.34 3.35 -0.68 1.7 0 0 Z " fill="#DF235A" transform="translate(143,138)"/>
<path d="M0 0 C5.00918744 1.47329042 7.51807722 4.27515238 11 8 C10.67 8.66 10.34 9.32 10 10 C9.52949219 9.59007813 9.05898438 9.18015625 8.57421875 8.7578125 C7.95160156 8.21898438 7.32898438 7.68015625 6.6875 7.125 C6.07261719 6.59132813 5.45773437 6.05765625 4.82421875 5.5078125 C2.86501788 3.8359553 2.86501788 3.8359553 0 2 C0 1.34 0 0.68 0 0 Z " fill="#C5264F" transform="translate(384,103)"/>
<path d="M0 0 C0.66 0.33 1.32 0.66 2 1 C2.625 3.5625 2.625 3.5625 3 6 C1.68 6.33 0.36 6.66 -1 7 C-1.625 4.625 -1.625 4.625 -2 2 C-1.34 1.34 -0.68 0.68 0 0 Z " fill="#D72352" transform="translate(102,377)"/>
<path d="M0 0 C1.98 0 3.96 0 6 0 C6 0.99 6 1.98 6 3 C4 4.6875 4 4.6875 2 6 C2 5.34 2 4.68 2 4 C1.34 4 0.68 4 0 4 C0 2.68 0 1.36 0 0 Z " fill="#A1183C" transform="translate(208,307)"/>
<path d="M0 0 C0.99 0.33 1.98 0.66 3 1 C2.34 2.65 1.68 4.3 1 6 C-0.32 5.34 -1.64 4.68 -3 4 C-2.67 3.01 -2.34 2.02 -2 1 C-1.34 0.67 -0.68 0.34 0 0 Z " fill="#E22451" transform="translate(421,347)"/>
<path d="M0 0 C0.99 0.495 0.99 0.495 2 1 C2.53417154 4.36528073 3 7.59627516 3 11 C2.34 11 1.68 11 1 11 C0.67 7.37 0.34 3.74 0 0 Z " fill="#D82252" transform="translate(53,277)"/>
<path d="M0 0 C0.66 0.66 1.32 1.32 2 2 C0 4 0 4 -2.0625 4.9375 C-4.34565884 5.90403542 -4.34565884 5.90403542 -5 9 C-5.33 8.34 -5.66 7.68 -6 7 C-4.31525278 3.63050557 -3.1808342 2.12055614 0 0 Z " fill="#B61C45" transform="translate(254,201)"/>
<path d="M0 0 C0.99 0.33 1.98 0.66 3 1 C2.67 1.99 2.34 2.98 2 4 C0.68 4 -0.64 4 -2 4 C-2.99 4.66 -3.98 5.32 -5 6 C-3.63016497 2.83884224 -3.0109362 2.0072908 0 0 Z " fill="#A1173E" transform="translate(286,307)"/>
<path d="M0 0 C2.97 0.99 5.94 1.98 9 3 C9 3.66 9 4.32 9 5 C7.68 5.33 6.36 5.66 5 6 C4.67 5.01 4.34 4.02 4 3 C1.99983534 1.79117904 1.99983534 1.79117904 0 1 C0 0.67 0 0.34 0 0 Z " fill="#CF2957" transform="translate(321,63)"/>
<path d="M0 0 C2.99332739 0.9977758 3.94766315 1.7522025 6 4 C5.34 4 4.68 4 4 4 C4 4.66 4 5.32 4 6 C3.01 5.67 2.02 5.34 1 5 C0.67 3.35 0.34 1.7 0 0 Z " fill="#D52150" transform="translate(64,320)"/>
<path d="M0 0 C0.99 0.33 1.98 0.66 3 1 C4.33106622 1.34227417 5.66400079 1.67751743 7 2 C7 2.66 7 3.32 7 4 C4.36 3.67 1.72 3.34 -1 3 C-0.67 2.01 -0.34 1.02 0 0 Z " fill="#E32057" transform="translate(200,440)"/>
<path d="M0 0 C2.97 0.495 2.97 0.495 6 1 C5.34 2.32 4.68 3.64 4 5 C2 3.625 2 3.625 0 2 C0 1.34 0 0.68 0 0 Z " fill="#E82356" transform="translate(121,400)"/>
<path d="M0 0 C5.78461538 3.44615385 5.78461538 3.44615385 6.875 6.25 C6.936875 7.11625 6.936875 7.11625 7 8 C3.28631113 6.76210371 2.22645819 5.14775123 0 2 C0 1.34 0 0.68 0 0 Z " fill="#7D1432" transform="translate(239,344)"/>
<path d="M0 0 C1.98 0.99 3.96 1.98 6 3 C2.42355152 4.2380014 -0.33694766 3.74926071 -4 3 C-2.68 2.01 -1.36 1.02 0 0 Z " fill="#A72246" transform="translate(310,344)"/>
<path d="M0 0 C0.99 0 1.98 0 3 0 C3 0.66 3 1.32 3 2 C2.34 2 1.68 2 1 2 C0.87625 2.639375 0.7525 3.27875 0.625 3.9375 C0.41875 4.618125 0.2125 5.29875 0 6 C-0.99 6.495 -0.99 6.495 -2 7 C-1.125 1.125 -1.125 1.125 0 0 Z " fill="#B41F4A" transform="translate(256,344)"/>
<path d="M0 0 C0.99 0.33 1.98 0.66 3 1 C1.35 2.98 -0.3 4.96 -2 7 C-2 5 -2 3 -2 1 C-1.34 0.67 -0.68 0.34 0 0 Z " fill="#C61946" transform="translate(333,328)"/>
<path d="M0 0 C0.33 0.99 0.66 1.98 1 3 C-0.65 4.32 -2.3 5.64 -4 7 C-4.66 6.67 -5.32 6.34 -6 6 C-4.02 4.02 -2.04 2.04 0 0 Z " fill="#E82656" transform="translate(347,318)"/>
<path d="M0 0 C1.98 0 3.96 0 6 0 C6 1.65 6 3.3 6 5 C3 4 3 4 0 2 C0 1.34 0 0.68 0 0 Z " fill="#A1173B" transform="translate(146,307)"/>
<path d="M0 0 C0.33 0.66 0.66 1.32 1 2 C0.06553465 4.03144641 -0.93224776 6.03533587 -2 8 C-2.33 8 -2.66 8 -3 8 C-3.33 6.02 -3.66 4.04 -4 2 C-2.68 1.34 -1.36 0.68 0 0 Z " fill="#881435" transform="translate(244,256)"/>
<path d="M0 0 C0.33 0.66 0.66 1.32 1 2 C1.66 2 2.32 2 3 2 C2.67 2.99 2.34 3.98 2 5 C0.35 5 -1.3 5 -3 5 C-3 3 -3 3 -1.5 1.375 C-1.005 0.92125 -0.51 0.4675 0 0 Z " fill="#AE1A41" transform="translate(197,242)"/>
<path d="M0 0 C2.475 0.99 2.475 0.99 5 2 C5 2.99 5 3.98 5 5 C2.525 4.01 2.525 4.01 0 3 C0 2.01 0 1.02 0 0 Z " fill="#C81C4C" transform="translate(171,232)"/>
<path d="M0 0 C1 2 1 2 0.25 4.5625 C-1 7 -1 7 -4 8 C-2.87548273 5.0280615 -1.77706209 2.66559313 0 0 Z " fill="#CC2B54" transform="translate(83,139)"/>
</svg>
