<?xml version="1.0" encoding="UTF-8"?>
<svg version="1.1" xmlns="http://www.w3.org/2000/svg" width="500" height="500">
<path d="M0 0 C1.15113281 0.01675781 2.30226563 0.03351562 3.48828125 0.05078125 C43.24422083 1.44923139 81.23131651 13.57220989 115.5 33.375 C116.24902588 33.80401611 116.99805176 34.23303223 117.76977539 34.67504883 C119.54914613 35.72465763 121.28043369 36.85504124 123 38 C123 38.66 123 39.32 123 40 C123.7425 40.28875 124.485 40.5775 125.25 40.875 C127.56739797 41.82302644 129.77917115 42.84845911 132 44 C132 44.66 132 45.32 132 46 C132.53625 46.2475 133.0725 46.495 133.625 46.75 C136.5823982 48.30652537 139.29724051 50.03435673 142 52 C142 52.66 142 53.32 142 54 C142.86818359 54.40798828 142.86818359 54.40798828 143.75390625 54.82421875 C149.76302543 57.96986201 157.06390622 63.01392457 160.0625 69.1875 C160.85632056 71.15823287 160.85632056 71.15823287 162.875 71.9375 C165.76105552 73.38052776 167.04451995 75.45195024 169 78 C170.14082031 79.13501953 170.14082031 79.13501953 171.3046875 80.29296875 C174.0810592 83.08141164 176.66094587 85.98801111 179.1875 89 C179.62513672 89.50789063 180.06277344 90.01578125 180.51367188 90.5390625 C183.03486858 93.54140362 184.77310579 96.27133826 186 100 C186.66 100 187.32 100 188 100 C189.41015625 101.87890625 189.41015625 101.87890625 191.0625 104.5625 C191.68382812 105.57054688 192.30515625 106.57859375 192.9453125 107.6171875 C193.62335938 108.73351562 194.30140625 109.84984375 195 111 C195.72599555 112.16962293 196.45257042 113.33888646 197.1796875 114.5078125 C228.67573391 165.5422471 237.53863538 225.16705962 228 284 C227.88785156 284.72783691 227.77570313 285.45567383 227.66015625 286.20556641 C222.43175638 319.27842299 207.09130434 351.45661012 187 378 C186.44828125 378.73476563 185.8965625 379.46953125 185.328125 380.2265625 C183.58353364 382.51114643 181.80058563 384.75927121 180 387 C179.26910156 387.9178125 178.53820312 388.835625 177.78515625 389.78125 C166.34792931 403.73854389 153.47724651 417.17862382 139 428 C137.87884859 428.86190416 136.75775894 429.72388867 135.63671875 430.5859375 C84.28905113 469.59664872 21.0322734 483.13212792 -42.45727539 475.48095703 C-82.27157642 470.00788915 -119.6635672 454.12836524 -151.171875 429.23046875 C-154.2844468 426.7756642 -157.47416715 424.44925051 -160.70703125 422.15625 C-161.13371094 421.7746875 -161.56039062 421.393125 -162 421 C-162 420.34 -162 419.68 -162 419 C-162.84558472 418.64119751 -162.84558472 418.64119751 -163.70825195 418.27514648 C-166.49438503 416.72492031 -168.40967665 414.84959272 -170.66796875 412.59765625 C-171.56193359 411.70626953 -172.45589844 410.81488281 -173.37695312 409.89648438 C-174.30443359 408.96126953 -175.23191406 408.02605469 -176.1875 407.0625 C-177.09564453 406.16208984 -178.00378906 405.26167969 -178.93945312 404.33398438 C-198.64470231 384.57231357 -214.94330556 360.62047598 -226 335 C-226.46921875 333.93265625 -226.9384375 332.8653125 -227.421875 331.765625 C-228.66643974 328.8616406 -229.84709624 325.94148392 -231 323 C-231.39703125 322.00871094 -231.7940625 321.01742188 -232.203125 319.99609375 C-247.43978711 279.92752979 -249.09212756 235.91287418 -242 194 C-241.79632813 192.73671875 -241.59265625 191.4734375 -241.3828125 190.171875 C-238.15070265 172.05609881 -231.59574143 154.69789038 -224 138 C-223.7004541 137.32839844 -223.4009082 136.65679687 -223.09228516 135.96484375 C-216.12285748 120.49602027 -206.51743376 105.93537082 -195.61328125 92.953125 C-193.99538421 90.99441188 -192.55735895 88.97194048 -191.125 86.875 C-190.42375 85.92625 -189.7225 84.9775 -189 84 C-188.34 84 -187.68 84 -187 84 C-186.72414062 83.40832031 -186.44828125 82.81664063 -186.1640625 82.20703125 C-183.06963271 76.34007543 -178.02562941 72.00813833 -173.02734375 67.77734375 C-170.34395498 65.42485456 -167.89516627 62.87744337 -165.4453125 60.28515625 C-164 59 -164 59 -162 59 C-162 58.34 -162 57.68 -162 57 C-159.74592092 55.04018712 -157.4867439 53.19599236 -155.125 51.375 C-154.47402344 50.859375 -153.82304687 50.34375 -153.15234375 49.8125 C-148.26064401 46 -148.26064401 46 -146 46 C-146 45.34 -146 44.68 -146 44 C-139.25 40 -139.25 40 -137 40 C-137 39.34 -137 38.68 -137 38 C-133.85314118 35.72324039 -130.366473 33.9322868 -127 32 C-126.030625 31.39929688 -125.06125 30.79859375 -124.0625 30.1796875 C-97.74323588 14.24621143 -68.10449118 6.69348506 -38 2 C-36.75476563 1.80277344 -35.50953125 1.60554687 -34.2265625 1.40234375 C-30.27911023 0.91010697 -26.34637888 0.64496965 -22.375 0.4375 C-21.58230713 0.3957666 -20.78961426 0.3540332 -19.97290039 0.31103516 C-13.30707488 -0.01925653 -6.67384597 -0.16744416 0 0 Z " fill="#818181" transform="translate(257,11)"/>
<path d="M0 0 C1.18142578 -0.01611328 2.36285156 -0.03222656 3.58007812 -0.04882812 C14.92943972 -0.05504695 25.34786146 1.83222703 35.5 7 C36.15677734 7.32033203 36.81355469 7.64066406 37.49023438 7.97070312 C39.06190185 8.73932882 40.62569113 9.52403494 42.1875 10.3125 C42.1875 10.9725 42.1875 11.6325 42.1875 12.3125 C43.02087891 12.68761719 43.02087891 12.68761719 43.87109375 13.0703125 C46.58541716 14.52588559 48.84454853 16.26459007 51.25 18.1875 C52.10722656 18.86554688 52.96445313 19.54359375 53.84765625 20.2421875 C56.0027856 22.14906322 57.64320467 23.8922601 59.1875 26.3125 C59.1875 26.9725 59.1875 27.6325 59.1875 28.3125 C59.8475 28.3125 60.5075 28.3125 61.1875 28.3125 C72.55226084 47.96704211 72.55226084 47.96704211 75.1875 57.3125 C75.35975098 57.92335449 75.53200195 58.53420898 75.70947266 59.16357422 C79.53601246 72.96513932 80.1875 84.6815807 80.1875 99.3125 C36.2975 99.3125 -7.5925 99.3125 -52.8125 99.3125 C-49.53520326 127.09417868 -49.53520326 127.09417868 -32.8125 147.3125 C-32.8125 147.9725 -32.8125 148.6325 -32.8125 149.3125 C-32.08289063 149.5909375 -31.35328125 149.869375 -30.6015625 150.15625 C-28.01121787 151.23011836 -25.64326516 152.46552513 -23.1875 153.8125 C-10.36725507 160.17569624 7.7448256 160.47885626 21.40234375 156.42578125 C29.05750132 153.36586553 35.09865557 149.8074725 40.1875 143.3125 C40.8475 143.3125 41.5075 143.3125 42.1875 143.3125 C44.30294222 138.02389445 46.24093066 132.66556569 48.1875 127.3125 C57.7575 127.3125 67.3275 127.3125 77.1875 127.3125 C75.77092373 135.10366947 74.60530112 140.55066326 71.1875 147.3125 C70.80851563 148.08335937 70.42953125 148.85421875 70.0390625 149.6484375 C69.10173211 151.54304148 68.14649114 153.4287674 67.1875 155.3125 C66.5275 155.3125 65.8675 155.3125 65.1875 155.3125 C64.960625 155.869375 64.73375 156.42625 64.5 157 C62.81372733 159.97105185 60.657146 161.95772125 58.1875 164.3125 C56.9190625 165.611875 56.9190625 165.611875 55.625 166.9375 C50.10855263 172.3125 50.10855263 172.3125 46.1875 172.3125 C46.1875 172.9725 46.1875 173.6325 46.1875 174.3125 C43.98775094 175.43702158 41.77982734 176.53605564 39.5625 177.625 C38.964375 177.93373047 38.36625 178.24246094 37.75 178.56054688 C26.47454763 184.0256896 14.28065519 184.84712343 1.9375 184.75 C1.26351166 184.74695862 0.58952332 184.74391724 -0.10488892 184.74078369 C-23.572299 184.58466503 -42.42173564 178.31837022 -59.44140625 161.75390625 C-60.22386719 160.94824219 -61.00632812 160.14257812 -61.8125 159.3125 C-62.51503906 158.6525 -63.21757813 157.9925 -63.94140625 157.3125 C-70.23455461 150.58579445 -73.51750024 140.77440968 -76.8125 132.3125 C-77.06128906 131.70172607 -77.31007813 131.09095215 -77.56640625 130.46166992 C-79.45473313 125.69235918 -80.6361576 121.06134902 -81.4375 116 C-81.56084717 115.2265625 -81.68419434 114.453125 -81.8112793 113.65625 C-85.89290243 86.49281567 -83.81807279 57.27853158 -67.29296875 34.28515625 C-66.80441406 33.63417969 -66.31585938 32.98320312 -65.8125 32.3125 C-65.27238281 31.54808594 -64.73226562 30.78367188 -64.17578125 29.99609375 C-61.17634729 25.82012637 -61.17634729 25.82012637 -59.8125 24.3125 C-59.1525 24.3125 -58.4925 24.3125 -57.8125 24.3125 C-57.8125 23.6525 -57.8125 22.9925 -57.8125 22.3125 C-53.34191176 18.3125 -53.34191176 18.3125 -50.8125 18.3125 C-50.3175 16.8275 -50.3175 16.8275 -49.8125 15.3125 C-44.8763545 10.74393981 -38.50155771 8.13144021 -32.375 5.5625 C-31.6840625 5.26891602 -30.993125 4.97533203 -30.28125 4.67285156 C-20.29840506 0.63772966 -10.70030715 -0.02890413 0 0 Z " fill="#FEFEFE" transform="translate(158.8125,157.6875)"/>
<path d="M0 0 C5.26487906 -0.27341578 10.52557601 -0.47215375 15.79589844 -0.60424805 C17.5850423 -0.65933093 19.37369613 -0.73423072 21.16113281 -0.82983398 C36.01185499 -1.60382647 36.01185499 -1.60382647 40.88085938 2.32397461 C42.92699766 5.13411452 44.47060924 7.88492841 46 11 C47.13906462 12.66505563 48.30192816 14.31438499 49.5 15.9375 C52.03410665 19.5691449 54.49541554 23.24343072 56.9375 26.9375 C59.55416492 30.88775476 62.24923509 34.74992864 65.0625 38.5625 C68.36962053 43.05397094 71.36913271 47.67811234 74.32421875 52.40625 C76.69856535 56.08122935 79.30548882 59.5553685 82 63 C82.66 62.01 83.32 61.02 84 60 C84.66 60 85.32 60 86 60 C86.37125 59.195625 86.37125 59.195625 86.75 58.375 C93.93400007 44.72539986 104.42256322 31.80803859 113.87109375 19.65625 C115.19120002 17.88141894 115.19120002 17.88141894 116 15 C116.66 15 117.32 15 118 15 C118.28875 14.236875 118.5775 13.47375 118.875 12.6875 C120 10 120 10 122 7 C122.66 7 123.32 7 124 7 C124.309375 6.21625 124.61875 5.4325 124.9375 4.625 C126 2 126 2 127 0 C139.21 0 151.42 0 164 0 C163.34 1.65 162.68 3.3 162 5 C161.34 5 160.68 5 160 5 C159.74347656 5.556875 159.48695313 6.11375 159.22265625 6.6875 C157.83177231 9.31818144 156.20262839 11.60370448 154.4375 14 C153.37208984 15.44826172 153.37208984 15.44826172 152.28515625 16.92578125 C148.54051249 21.9634473 144.77635634 26.98607369 141 32 C139.9996058 33.33303759 138.99955815 34.66633539 138 36 C132.5 43.33333333 127 50.66666667 121.5 58 C120.76394531 58.98226562 120.02789062 59.96453125 119.26953125 60.9765625 C117.70767591 63.05724414 116.14302392 65.13551937 114.57421875 67.2109375 C113.78660156 68.25507813 112.99898438 69.29921875 112.1875 70.375 C111.47980469 71.31085938 110.77210938 72.24671875 110.04296875 73.2109375 C107.93696126 76.08606053 105.95679504 79.02173334 104 82 C103.34 82.99 102.68 83.98 102 85 C102.50789063 85.68964844 103.01578125 86.37929687 103.5390625 87.08984375 C116 104.1011236 116 104.1011236 116 107 C116.66 107 117.32 107 118 107 C122 112.41176471 122 112.41176471 122 115 C122.66 115 123.32 115 124 115 C125.26171875 116.6171875 125.26171875 116.6171875 126.6875 118.875 C130.00187649 124.00950171 133.47850247 129.00575722 137 134 C137.90898055 135.29548425 138.81782444 136.59106439 139.7265625 137.88671875 C145.1361081 145.58761678 150.60728544 153.23509815 156.19287109 160.80932617 C159.36005522 165.10930301 162.45794925 169.45125193 165.49609375 173.84375 C166.94479211 175.9208448 168.4369349 177.96023463 169.9375 180 C172 183 172 183 172 185 C166.66154426 185.12368107 161.32392376 185.21437609 155.984375 185.2746582 C154.16847201 185.299789 152.35267004 185.33389961 150.53710938 185.37719727 C147.92552777 185.43791511 145.31528406 185.46622281 142.703125 185.48828125 C141.89256653 185.51408768 141.08200806 185.5398941 140.24688721 185.56648254 C136.27033292 185.56845729 134.46257233 185.45191612 131.5625 182.61865234 C131.046875 181.75449707 130.53125 180.8903418 130 180 C129.43796875 179.21238281 128.8759375 178.42476562 128.296875 177.61328125 C127.78640625 176.85402344 127.2759375 176.09476563 126.75 175.3125 C126.22921875 174.54550781 125.7084375 173.77851563 125.171875 172.98828125 C124 171 124 171 124 169 C123.34 169 122.68 169 122 169 C121.5978125 168.21689453 121.5978125 168.21689453 121.1875 167.41796875 C118.27370261 161.94501378 114.91384299 157.03307158 111.22265625 152.05859375 C107.44558574 146.86097299 103.9431561 141.48178972 100.40332031 136.12109375 C97.82175499 132.21910357 95.22191193 128.3292854 92.625 124.4375 C91.6379474 122.95708021 90.65096478 121.47661376 89.6640625 119.99609375 C89.2093457 119.31659668 88.75462891 118.63709961 88.28613281 117.93701172 C87.45803861 116.68984024 86.6389099 115.43664514 85.83105469 114.17626953 C83.91807118 111.06642764 83.91807118 111.06642764 81 109 C80.505 110.98 80.505 110.98 80 113 C79.34 113 78.68 113 78 113 C77.74347656 113.71929687 77.48695313 114.43859375 77.22265625 115.1796875 C75.92884605 118.16413148 74.35684394 120.50443437 72.4375 123.125 C70.45648138 125.83500053 69.06538377 127.8038487 68 131 C67.38125 131.598125 66.7625 132.19625 66.125 132.8125 C63.69059284 135.31850737 62.43809163 137.83619841 61 141 C60.34 141 59.68 141 59 141 C58.71125 141.7425 58.4225 142.485 58.125 143.25 C57.17697356 145.56739797 56.15154089 147.77917115 55 150 C54.34 150 53.68 150 53 150 C52.71125 150.7425 52.4225 151.485 52.125 152.25 C51.17697356 154.56739797 50.15154089 156.77917115 49 159 C48.34 159 47.68 159 47 159 C46.71125 159.7425 46.4225 160.485 46.125 161.25 C45.17697356 163.56739797 44.15154089 165.77917115 43 168 C42.34 168 41.68 168 41 168 C40.731875 168.721875 40.46375 169.44375 40.1875 170.1875 C39.00098638 172.99766383 37.72514361 175.48416557 36 178 C35.34 178 34.68 178 34 178 C33.87625 178.598125 33.7525 179.19625 33.625 179.8125 C33 182 33 182 31 185 C28.16272675 185.26667539 25.54616955 185.34791234 22.7109375 185.29296875 C21.89251373 185.28872391 21.07408997 185.28447906 20.23086548 185.28010559 C17.61191164 185.26328679 14.99372198 185.22562974 12.375 185.1875 C10.6015736 185.17245726 8.82813516 185.15876814 7.0546875 185.14648438 C2.7028297 185.11337292 -1.64845551 185.06156952 -6 185 C-4.34968617 181.63600245 -2.49887405 178.48444209 -0.5 175.3125 C0.1084375 174.33925781 0.716875 173.36601562 1.34375 172.36328125 C3 170 3 170 5 169 C6.11634152 167.34948712 6.11634152 167.34948712 7.125 165.4375 C7.74375 164.303125 8.3625 163.16875 9 162 C9.66 162 10.32 162 11 162 C11.26425781 161.27167969 11.52851563 160.54335938 11.80078125 159.79296875 C13.00729929 156.98300002 14.40020016 154.78690825 16.1875 152.3125 C16.80238281 151.45269531 17.41726563 150.59289062 18.05078125 149.70703125 C18.69402344 148.81371094 19.33726562 147.92039062 20 147 C21.29480663 145.16888294 22.5866035 143.33563295 23.875 141.5 C24.44992187 140.6853125 25.02484375 139.870625 25.6171875 139.03125 C27.02656893 137.05824023 27.02656893 137.05824023 28 135 C28.66 135 29.32 135 30 135 C30.20625 134.34 30.4125 133.68 30.625 133 C32.11677202 129.74522468 33.9381429 127.28992851 36.1171875 124.46875 C39.71852515 119.74666412 43.11856533 114.87500218 46.55566406 110.03271484 C48.11470149 107.83857259 49.67854314 105.64789233 51.2421875 103.45703125 C52.32834994 101.92984746 53.41429104 100.40250622 54.5 98.875 C55.01643066 98.15256104 55.53286133 97.43012207 56.06494141 96.68579102 C56.54882324 96.00315186 57.03270508 95.3205127 57.53125 94.6171875 C57.95986328 94.01503418 58.38847656 93.41288086 58.83007812 92.79248047 C61.40722867 89.06258367 61.40722867 89.06258367 61.625 84.75 C61.315625 83.88375 61.315625 83.88375 61 83 C60.34 83 59.68 83 59 83 C55 77.58823529 55 77.58823529 55 75 C54.34 75 53.68 75 53 75 C51.73828125 73.34765625 51.73828125 73.34765625 50.3125 71.0625 C47.65387508 66.92830575 44.78549261 63.07064924 41.7109375 59.23828125 C39.67426208 56.57386341 37.85872024 53.79149712 36 51 C34.2340475 48.52263668 32.43121267 46.07311048 30.625 43.625 C30.13604248 42.96016602 29.64708496 42.29533203 29.14331055 41.61035156 C26.71484764 38.31206988 24.27654911 35.02182278 21.8125 31.75 C20.87411964 30.50066075 19.93670892 29.25059292 19 28 C18.29488281 27.05898437 17.58976562 26.11796875 16.86328125 25.1484375 C16.12464844 24.15070313 15.38601563 23.15296875 14.625 22.125 C13.93664062 21.19945312 13.24828125 20.27390625 12.5390625 19.3203125 C11 17 11 17 11 15 C10.34 15 9.68 15 9 15 C5 9.58823529 5 9.58823529 5 7 C4.34 7 3.68 7 3 7 C0 2.61538462 0 2.61538462 0 0 Z " fill="#FDFDFD" transform="translate(252,158)"/>
<path d="M0 0 C0.763125 0.7425 1.52625 1.485 2.3125 2.25 C2.3125 2.91 2.3125 3.57 2.3125 4.25 C2.9725 4.25 3.6325 4.25 4.3125 4.25 C9.80772365 11.04027636 13.30090184 17.81036261 15.3125 26.25 C15.9003125 27.85875 15.9003125 27.85875 16.5 29.5 C17.3125 32.25 17.3125 32.25 17.3125 38.25 C-16.0175 38.25 -49.3475 38.25 -83.6875 38.25 C-83.6875 28.08076923 -83.6875 28.08076923 -82.375 24.0625 C-82.13136719 23.28519531 -81.88773437 22.50789063 -81.63671875 21.70703125 C-76.30552533 7.90735774 -66.8222764 -2.1826118 -53.6875 -8.75 C-35.2684635 -15.11293988 -15.32120344 -12.09945505 0 0 Z " fill="#818181" transform="translate(190.6875,194.75)"/>
<path d="M0 0 C0.33 0.66 0.66 1.32 1 2 C4.46528538 3.15509513 7.32211319 3.21072591 10.9765625 3.31640625 C12.0035878 3.3475779 12.0035878 3.3475779 13.05136108 3.37937927 C14.50211552 3.42259416 15.9529359 3.46364213 17.40380859 3.50268555 C19.5961849 3.56172404 21.78830588 3.62690774 23.98046875 3.69335938 C30.98812289 3.89989003 37.98865611 4.0551454 45 4 C41.45879522 6.36080319 39.93884507 6.25726869 35.7421875 6.265625 C34.4835791 6.26949219 33.2249707 6.27335937 31.92822266 6.27734375 C30.57714263 6.26913424 29.22606793 6.26000403 27.875 6.25 C27.19959167 6.24822754 26.52418335 6.24645508 25.82830811 6.24462891 C15.44753824 6.21247786 5.25530483 5.68415563 -5 4 C-2 2 -2 2 0 2 C0 1.34 0 0.68 0 0 Z " fill="#7B7778" transform="translate(220,482)"/>
<path d="M0 0 C0.66 0 1.32 0 2 0 C2.391875 1.19625 2.78375 2.3925 3.1875 3.625 C4.60442161 7.8690176 6.0724421 12.09360825 7.5625 16.3125 C7.97628906 17.48425781 8.39007813 18.65601563 8.81640625 19.86328125 C9.75470352 22.34992386 10.74731224 24.66203437 12 27 C11.34 27.33 10.68 27.66 10 28 C7.13543344 22.50127767 4.77597299 17.04318214 2.75 11.1875 C2.481875 10.43791016 2.21375 9.68832031 1.9375 8.91601562 C0.85687361 5.83126837 0 3.29243708 0 0 Z " fill="#757071" transform="translate(22,320)"/>
<path d="M0 0 C0.99 0.99 1.98 1.98 3 3 C2.01 4.485 2.01 4.485 1 6 C1 6.66 1 7.32 1 8 C1.66 8.33 2.32 8.66 3 9 C3 10.32 3 11.64 3 13 C2.34 13 1.68 13 1 13 C0.32332002 11.75539217 -0.34094719 10.50403104 -1 9.25 C-1.37125 8.55390625 -1.7425 7.8578125 -2.125 7.140625 C-3 5 -3 5 -3 1 C-2.01 0.67 -1.02 0.34 0 0 Z " fill="#7C797A" transform="translate(36,346)"/>
<path d="M0 0 C-1.56641751 4.30764815 -3.68336156 8.06171464 -6 12 C-7.26467795 9.47064411 -6.7249339 8.65809097 -6 6 C-6 5.01 -6 4.02 -6 3 C-3.9398797 0.3512739 -3.48011144 0 0 0 Z " fill="#7B797A" transform="translate(464,356)"/>
<path d="M0 0 C0.33 0.66 0.66 1.32 1 2 C3.34907875 2.68931344 3.34907875 2.68931344 6.0625 3.125 C6.98160156 3.29257812 7.90070313 3.46015625 8.84765625 3.6328125 C9.91306641 3.81457031 9.91306641 3.81457031 11 4 C11 4.33 11 4.66 11 5 C9.2709226 5.02725341 7.54171824 5.04650987 5.8125 5.0625 C4.36810547 5.07990234 4.36810547 5.07990234 2.89453125 5.09765625 C0.14423487 5.00486622 -2.32479591 4.62111685 -5 4 C-2 2 -2 2 0 2 C0 1.34 0 0.68 0 0 Z " fill="#757072" transform="translate(220,482)"/>
<path d="M0 0 C3.3 0 6.6 0 10 0 C6.43688534 2.672336 4.15414253 3.77263971 0 5 C0 3.35 0 1.7 0 0 Z " fill="#777573" transform="translate(357,458)"/>
<path d="M0 0 C0.33 0 0.66 0 1 0 C1.05447047 1.41623216 1.09300508 2.83308191 1.125 4.25 C1.14820313 5.03890625 1.17140625 5.8278125 1.1953125 6.640625 C1 9 1 9 -1 13 C-1.33 9.7 -1.66 6.4 -2 3 C-1.34 3 -0.68 3 0 3 C0 2.01 0 1.02 0 0 Z " fill="#777172" transform="translate(485,279)"/>
<path d="M0 0 C2.97 0.495 2.97 0.495 6 1 C6.0825 1.61875 6.165 2.2375 6.25 2.875 C6.81258459 5.18437567 6.81258459 5.18437567 9.0625 6.25 C9.701875 6.4975 10.34125 6.745 11 7 C7.41584854 7 6.58796261 6.21108216 3.8125 4.0625 C3.09707031 3.51722656 2.38164063 2.97195313 1.64453125 2.41015625 C1.10183594 1.94480469 0.55914062 1.47945313 0 1 C0 0.67 0 0.34 0 0 Z " fill="#757172" transform="translate(111,443)"/>
<path d="M0 0 C3 1 3 1 4.25 2.8125 C5.11637742 5.33943414 4.88492145 6.52221994 4 9 C3.01 8.34 2.02 7.68 1 7 C0.875 4.5 0.875 4.5 1 2 C0.67 1.34 0.34 0.68 0 0 Z " fill="#7A7879" transform="translate(465,150)"/>
<path d="M0 0 C2.475 0.495 2.475 0.495 5 1 C5.59732819 3.76264289 6 6.16032769 6 9 C4.99406757 7.8803014 3.9954151 6.7540588 3 5.625 C2.443125 4.99851562 1.88625 4.37203125 1.3125 3.7265625 C0 2 0 2 0 0 Z " fill="#767475" transform="translate(58,390)"/>
<path d="M0 0 C4.0042343 3.49087093 5.62671065 5.64951939 6 11 C3.37997275 8.62949916 1.64180091 6.12723983 0 3 C0 2.01 0 1.02 0 0 Z " fill="#757273" transform="translate(39,360)"/>
<path d="M0 0 C0 3.57575896 -1.08840607 5.05295935 -3 8 C-3.66 6.68 -4.32 5.36 -5 4 C-4.01 3.67 -3.02 3.34 -2 3 C-2 2.34 -2 1.68 -2 1 C-1.34 0.67 -0.68 0.34 0 0 Z " fill="#777475" transform="translate(456,368)"/>
<path d="M0 0 C-2.40545638 1.20272819 -3.94996953 1.10071472 -6.625 1.0625 C-7.85089844 1.04896484 -7.85089844 1.04896484 -9.1015625 1.03515625 C-10.04128906 1.01775391 -10.04128906 1.01775391 -11 1 C-3.91420118 -2.60946746 -3.91420118 -2.60946746 0 0 Z " fill="#757070" transform="translate(297,484)"/>
<path d="M0 0 C0.66 0.33 1.32 0.66 2 1 C0.02 3.97 0.02 3.97 -2 7 C-2.99 6.67 -3.98 6.34 -5 6 C-4.34 5.01 -3.68 4.02 -3 3 C-2.34 3 -1.68 3 -1 3 C-0.67 2.01 -0.34 1.02 0 0 Z " fill="#787477" transform="translate(445,384)"/>
</svg>
