<?xml version="1.0" encoding="UTF-8"?>
<svg version="1.1" xmlns="http://www.w3.org/2000/svg" width="281" height="281">
<path d="M0 0 C1.09054688 0.02320312 2.18109375 0.04640625 3.3046875 0.0703125 C4.40039062 0.08835937 5.49609375 0.10640625 6.625 0.125 C7.88957031 0.15980469 7.88957031 0.15980469 9.1796875 0.1953125 C10.44017872 2.71629493 10.24432219 4.4502433 10.1796875 7.2578125 C10.14191648 8.90321236 10.13326271 10.55013406 10.1796875 12.1953125 C12.48759969 14.50322469 18.0521371 13.65525227 21.17578125 13.81640625 C24.1796875 14.1953125 24.1796875 14.1953125 26.1796875 16.1953125 C26.334375 17.6803125 26.334375 17.6803125 26.4921875 19.1953125 C26.7190625 20.1853125 26.9459375 21.1753125 27.1796875 22.1953125 C30.76928566 24.00969121 34.59660399 24.87852308 38.4921875 25.8203125 C39.56082031 26.08070312 40.62945312 26.34109375 41.73046875 26.609375 C42.94283203 26.89941406 42.94283203 26.89941406 44.1796875 27.1953125 C44.6746875 29.6703125 44.6746875 29.6703125 45.1796875 32.1953125 C46.06398438 32.30230469 46.94828125 32.40929688 47.859375 32.51953125 C51.2539511 33.21042733 53.35984183 34.22919776 56.3046875 36.0078125 C61.20158269 38.79937588 66.02405494 40.57973692 71.3828125 42.2734375 C78.24415802 44.53499831 83.19119494 47.01958209 87.1796875 53.1953125 C86.9921875 55.5703125 86.9921875 55.5703125 86.1796875 57.1953125 C80.54084853 57.50288553 76.51719396 56.79057346 71.2265625 54.875 C68.7367602 54.04823359 66.774129 53.72359586 64.1796875 54.1953125 C61.52083587 58.18358994 62.08351082 61.41216424 62.3671875 66.0078125 C62.443927 67.3695459 62.443927 67.3695459 62.5222168 68.75878906 C64.72026473 104.48522544 68.15898098 135.28592499 92.1796875 163.1953125 C92.91316406 164.05253906 93.64664063 164.90976563 94.40234375 165.79296875 C110.73884726 184.4344463 134.86437045 200.00635471 160.0546875 203.1328125 C164.41886158 202.92578337 166.27520998 200.29205771 169.1171875 197.1953125 C169.93832031 196.28007812 170.75945312 195.36484375 171.60546875 194.421875 C174.5739324 191.8543116 175.93829995 191.51577953 179.8046875 191.5703125 C182.34375 191.84375 182.34375 191.84375 184.1796875 192.1953125 C183.76189759 197.905108 181.60422179 200.80488392 178.1796875 205.1953125 C179.10910156 205.18371094 180.03851563 205.17210937 180.99609375 205.16015625 C192.32940977 205.07743132 192.32940977 205.07743132 196.3671875 205.8203125 C199.38186616 206.5370498 199.38186616 206.5370498 202.1796875 204.1953125 C204.19026071 204.45743167 206.18962943 204.80700849 208.1796875 205.1953125 C211.89385002 205.49800663 215.61938883 205.63369061 219.34179688 205.80078125 C225.07613767 206.09176267 225.07613767 206.09176267 226.1796875 207.1953125 C226.25148714 208.71459288 226.26360757 210.23698732 226.2421875 211.7578125 C226.23316406 212.58410156 226.22414063 213.41039062 226.21484375 214.26171875 C226.19744141 215.21884766 226.19744141 215.21884766 226.1796875 216.1953125 C223.32701377 217.01338084 220.47273565 217.82489046 217.6171875 218.6328125 C216.41739258 218.97795898 216.41739258 218.97795898 215.19335938 219.33007812 C209.51570516 220.92909094 204.00192679 222.36464686 198.0546875 222.0078125 C194.31910757 222.18856637 191.92601908 222.88472793 188.4296875 224.09765625 C181.46645225 226.29036145 174.59438226 227.19207468 167.35107422 227.77880859 C165.31173831 227.94473881 163.27535805 228.13270708 161.23828125 228.32421875 C146.87574546 229.62121498 132.77805831 229.34346298 118.4296875 227.9453125 C117.38686111 227.8454454 117.38686111 227.8454454 116.32296753 227.74356079 C78.08353192 224.0271836 44.626672 210.35099279 19.1640625 180.6796875 C-0.50148374 156.059043 -13.54389409 129.09827779 -21.20263672 98.62402344 C-22.23824758 94.55198515 -23.33493291 90.49750427 -24.4453125 86.4453125 C-24.63939697 85.71908691 -24.83348145 84.99286133 -25.03344727 84.24462891 C-25.96785892 80.84367154 -26.99718182 77.79990753 -28.4453125 74.5625 C-29.84945569 71.12394481 -30.2241884 68.75680176 -30.1953125 65.0703125 C-30.20304687 64.07773438 -30.21078125 63.08515625 -30.21875 62.0625 C-29.55887702 57.3140023 -27.27306757 54.35870751 -23.6953125 51.3203125 C-20.44370332 48.22848756 -20.24028282 45.64699792 -19.8203125 41.1953125 C-17.78509165 38.60560423 -15.7798553 37.60608148 -12.6953125 36.5703125 C-10.02013308 35.77008557 -10.02013308 35.77008557 -7.8203125 34.1953125 C-7.67395196 30.82901999 -7.74837771 28.41111688 -8.8203125 25.1953125 C-4.24756423 20.49554345 -4.24756423 20.49554345 -1.5078125 18.5703125 C-0.9509375 18.1165625 -0.3940625 17.6628125 0.1796875 17.1953125 C0.1796875 16.2053125 0.1796875 15.2153125 0.1796875 14.1953125 C-1.0578125 13.0815625 -1.0578125 13.0815625 -2.3203125 11.9453125 C-4.8203125 9.1953125 -4.8203125 9.1953125 -5.2578125 5.5078125 C-4.71240237 1.37827864 -4.23475158 0.29326535 0 0 Z " fill="#161616" transform="translate(41.8203125,25.8046875)"/>
<path d="M0 0 C9.03256026 1.90894315 18.69679895 4.00118786 25.1875 11.0625 C27 14 27 14 26.8125 16.375 C26.4103125 17.179375 26.4103125 17.179375 26 18 C20.36116103 18.30757303 16.33750646 17.59526096 11.046875 15.6796875 C8.5570727 14.85292109 6.5944415 14.52828336 4 15 C1.34114837 18.98827744 1.90382332 22.21685174 2.1875 26.8125 C2.2642395 28.1742334 2.2642395 28.1742334 2.3425293 29.56347656 C4.54057723 65.28991294 7.97929348 96.09061249 32 124 C33.10021484 125.28583984 33.10021484 125.28583984 34.22265625 126.59765625 C44.23026272 138.01727069 54.82107669 145.67667719 68 153 C66.02 153.99 66.02 153.99 64 155 C64.7425 155.94875 65.485 156.8975 66.25 157.875 C66.66765625 158.40867188 67.0853125 158.94234375 67.515625 159.4921875 C70.51275013 162.53663565 73.5872474 163.2576983 77.75 163.625 C78.54921875 163.69976562 79.3484375 163.77453125 80.171875 163.8515625 C81.07679688 163.92503906 81.07679688 163.92503906 82 164 C82 164.99 82 165.98 82 167 C86.29 167.99 90.58 168.98 95 170 C95 170.66 95 171.32 95 172 C87.25847464 172.39363688 80.47941368 170.94210433 73 169 C72.34 171.31 71.68 173.62 71 176 C70.01 176 69.02 176 68 176 C68 175.01 68 174.02 68 173 C67.278125 173.185625 66.55625 173.37125 65.8125 173.5625 C62.87173027 174.01995307 60.85896942 173.73516357 58 173 C59.55500981 169.18315774 62.03595495 166.80804268 65 164 C63.41590006 164.11487748 61.83271037 164.24234508 60.25 164.375 C58.92742187 164.47941406 58.92742187 164.47941406 57.578125 164.5859375 C54.98371378 165.00261567 53.29724142 165.77480458 51 167 C49.00889599 167.38290462 47.00899487 167.72604615 45 168 C44.46375 167.175 43.9275 166.35 43.375 165.5 C41.2059317 162.65859876 41.2059317 162.65859876 37.8125 162.75 C36.884375 162.8325 35.95625 162.915 35 163 C34 162 34 162 33.90234375 160.15234375 C33.93489583 158.1015625 33.96744792 156.05078125 34 154 C33.18015625 154.02320313 32.3603125 154.04640625 31.515625 154.0703125 C30.43796875 154.08835938 29.3603125 154.10640625 28.25 154.125 C27.18265625 154.14820313 26.1153125 154.17140625 25.015625 154.1953125 C22.03860778 154.0025005 20.44018152 153.67197623 18 152 C16.75 149.375 16.75 149.375 16 147 C17.65 147 19.3 147 21 147 C21 147.99 21 148.98 21 150 C23.97 150.33 26.94 150.66 30 151 C24.01369934 143.36845777 16.71660862 136.30130204 7 134 C7 134.66 7 135.32 7 136 C8.65 136.33 10.3 136.66 12 137 C12 137.33 12 137.66 12 138 C10.02 138 8.04 138 6 138 C6 138.66 6 139.32 6 140 C1.44262737 139.56179109 -1.57653445 139.14958831 -5 136 C-4.67 135.34 -4.34 134.68 -4 134 C-2.35 134.66 -0.7 135.32 1 136 C1 135.34 1 134.68 1 134 C2.32 133.67 3.64 133.34 5 133 C1.05751755 130.9941756 -2.81634138 129.04492286 -6.9375 127.4375 C-7.948125 126.963125 -8.95875 126.48875 -10 126 C-10.33 125.01 -10.66 124.02 -11 123 C-7.43339484 123.61141803 -4.34584541 124.64357619 -1 126 C-0.34 126 0.32 126 1 126 C1 126.66 1 127.32 1 128 C2.32 128 3.64 128 5 128 C2.42840934 121.29142709 2.42840934 121.29142709 -3.375 117.5625 C-6.37855659 116.26786354 -8.61280069 115.19622336 -11 113 C-11 112.34 -11 111.68 -11 111 C-9.35 110.34 -7.7 109.68 -6 109 C-6.44469329 103.96014269 -8.71343362 101.62365012 -12 98 C-11.505 101.465 -11.505 101.465 -11 105 C-11.66 104.67 -12.32 104.34 -13 104 C-13.625 101.4375 -13.625 101.4375 -14 99 C-15.98 98.34 -17.96 97.68 -20 97 C-20 97.99 -20 98.98 -20 100 C-20.66 100 -21.32 100 -22 100 C-22 99.34 -22 98.68 -22 98 C-23.175625 98.0928125 -23.175625 98.0928125 -24.375 98.1875 C-25.24125 98.125625 -26.1075 98.06375 -27 98 C-29 95 -29 95 -29.75 91.625 C-31.34244877 87.00689856 -33.18489269 85.90279904 -37 83 C-37 82.34 -37 81.68 -37 81 C-34.36 81.33 -31.72 81.66 -29 82 C-29.495 81.113125 -29.99 80.22625 -30.5 79.3125 C-31.94378674 76.12413762 -32.30159922 74.41812454 -32 71 C-28.98672434 72.50663783 -28.38943382 75.03166411 -27 78 C-25.35 78 -23.7 78 -22 78 C-21.49450706 75.75574568 -21.49450706 75.75574568 -22 73 C-23.79340357 70.76086748 -25.83452663 68.87545461 -28 67 C-27.67 68.98 -27.34 70.96 -27 73 C-28.70840281 71.36587557 -29.93453047 70.13093906 -31 68 C-31.33 68.66 -31.66 69.32 -32 70 C-32.66 70 -33.32 70 -34 70 C-34 70.99 -34 71.98 -34 73 C-38.34285714 77 -38.34285714 77 -41 77 C-41 74.03 -41 71.06 -41 68 C-41.99 68.495 -41.99 68.495 -43 69 C-43.40729228 71.32156597 -43.74438677 73.6568787 -44 76 C-44.99 76 -45.98 76 -47 76 C-45.06143438 79.5863464 -43.2775413 81.62660802 -40 84 C-40 84.66 -40 85.32 -40 86 C-42.475 86.99 -42.475 86.99 -45 88 C-45.32613281 87.39671875 -45.65226562 86.7934375 -45.98828125 86.171875 C-46.42527344 85.37265625 -46.86226562 84.5734375 -47.3125 83.75 C-47.74175781 82.96109375 -48.17101563 82.1721875 -48.61328125 81.359375 C-49.94419187 78.97138481 -49.94419187 78.97138481 -51.66796875 76.890625 C-53 75 -53 75 -53 72 C-54.9375006 69.81222534 -54.9375006 69.81222534 -57 68 C-56.3125 65.5625 -56.3125 65.5625 -55 63 C-52.375 62.1875 -52.375 62.1875 -50 62 C-49.34 63.65 -48.68 65.3 -48 67 C-48.66 67 -49.32 67 -50 67 C-49.40138258 69.35171131 -48.73075648 71.6859378 -48 74 C-47.01 74.495 -47.01 74.495 -46 75 C-46.33 70.71 -46.66 66.42 -47 62 C-45.35 62.33 -43.7 62.66 -42 63 C-41.67 61.68 -41.34 60.36 -41 59 C-40.01 59 -39.02 59 -38 59 C-38 58.34 -38 57.68 -38 57 C-38.763125 56.71125 -39.52625 56.4225 -40.3125 56.125 C-43 55 -43 55 -46 53 C-46 53.66 -46 54.32 -46 55 C-45.34 55 -44.68 55 -44 55 C-44 55.66 -44 56.32 -44 57 C-44.66 57 -45.32 57 -46 57 C-46.495 57.99 -46.495 57.99 -47 59 C-47.99 58.505 -47.99 58.505 -49 58 C-49 58.66 -49 59.32 -49 60 C-50.27875 59.896875 -51.5575 59.79375 -52.875 59.6875 C-53.95394531 59.60048828 -53.95394531 59.60048828 -55.0546875 59.51171875 C-57 59 -57 59 -59 56 C-59 55.01 -59 54.02 -59 53 C-58.01 53 -57.02 53 -56 53 C-55.855625 52.360625 -55.71125 51.72125 -55.5625 51.0625 C-55 49 -55 49 -54 48 C-51.66702567 47.95907063 -49.33294775 47.95758277 -47 48 C-46.76459464 43.7948368 -46.76459464 43.7948368 -48.0625 39.875 C-49.25862062 37.48275875 -48.7396585 36.49311467 -48 34 C-47.30132812 33.90203125 -46.60265625 33.8040625 -45.8828125 33.703125 C-44.97273438 33.55359375 -44.06265625 33.4040625 -43.125 33.25 C-42.22007813 33.11078125 -41.31515625 32.9715625 -40.3828125 32.828125 C-37.83785757 32.22016157 -37.83785757 32.22016157 -36.6796875 29.921875 C-36.45539063 29.28765625 -36.23109375 28.6534375 -36 28 C-33.69 28 -31.38 28 -29 28 C-28.505 26.515 -28.505 26.515 -28 25 C-25.69 25.33 -23.38 25.66 -21 26 C-21.33 25.67 -21.66 25.34 -22 25 C-21.505 23.515 -21.505 23.515 -21 22 C-18.69 21.67 -16.38 21.34 -14 21 C-14 20.34 -14 19.68 -14 19 C-17.83488256 19.2511794 -21.66734421 19.52950739 -25.5 19.8125 C-27.11648437 19.91788086 -27.11648437 19.91788086 -28.765625 20.02539062 C-35.06512116 20.50553515 -40.21464675 21.43731319 -46 24 C-46.66 22.35 -47.32 20.7 -48 19 C-46.68 18.67 -45.36 18.34 -44 18 C-44.495 17.01 -44.495 17.01 -45 16 C-47.52733235 15.34444881 -47.52733235 15.34444881 -50 15 C-50 15.66 -50 16.32 -50 17 C-50.66 17 -51.32 17 -52 17 C-52 16.34 -52 15.68 -52 15 C-52.66 15 -53.32 15 -54 15 C-53.67 15.99 -53.34 16.98 -53 18 C-53.33 18.99 -53.66 19.98 -54 21 C-53.401875 21.12375 -52.80375 21.2475 -52.1875 21.375 C-50 22 -50 22 -47 24 C-47 24.66 -47 25.32 -47 26 C-50.87684087 27.19287411 -53.91621923 28 -58 28 C-58 27.34 -58 26.68 -58 26 C-61.96 26.495 -61.96 26.495 -66 27 C-66.33 28.32 -66.66 29.64 -67 31 C-72.43396226 30.39622642 -72.43396226 30.39622642 -74.875 28.6875 C-76 27 -76 27 -76 23 C-75.34 23 -74.68 23 -74 23 C-74 22.34 -74 21.68 -74 21 C-77.11320156 21.76113268 -77.11320156 21.76113268 -80 24 C-80.85174772 27.3266373 -80.98714943 30.5753227 -81 34 C-81.66 34 -82.32 34 -83 34 C-85.2240673 29.6826929 -85.35763349 26.66686514 -84 22 C-79.62278998 17.94307364 -75.72366945 17.39473582 -70 17 C-69.835 17.78375 -69.67 18.5675 -69.5 19.375 C-68.29603101 22.1093471 -68.29603101 22.1093471 -66.0859375 22.77734375 C-64.07483301 23.26413052 -62.037362 23.63853255 -60 24 C-60 23.34 -60 22.68 -60 22 C-60.66 22 -61.32 22 -62 22 C-62 20.68 -62 19.36 -62 18 C-62.66 17.67 -63.32 17.34 -64 17 C-64 16.01 -64 15.02 -64 14 C-62.94039062 13.79503906 -61.88078125 13.59007813 -60.7890625 13.37890625 C-59.40101178 13.10692334 -58.01299256 12.83477956 -56.625 12.5625 C-55.92632812 12.42779297 -55.22765625 12.29308594 -54.5078125 12.15429688 C-50.64371266 11.4227578 -50.64371266 11.4227578 -47 10 C-44.6670134 9.95977609 -42.33293334 9.95679753 -40 10 C-40 10.66 -40 11.32 -40 12 C-36.04 12 -32.08 12 -28 12 C-28 11.01 -28 10.02 -28 9 C-31.63 9.33 -35.26 9.66 -39 10 C-32.45098734 5.63399156 -24.81811861 4 -17 4 C-17 5.65 -17 7.3 -17 9 C-15.35 9 -13.7 9 -12 9 C-12.99 6.03 -12.99 6.03 -14 3 C-11.23547967 1.61773984 -8.9538637 1.90474613 -5.875 1.9375 C-4.77929688 1.94652344 -3.68359375 1.95554687 -2.5546875 1.96484375 C-1.29011719 1.98224609 -1.29011719 1.98224609 0 2 C0 1.34 0 0.68 0 0 Z " fill="#F3F3F3" transform="translate(102,65)"/>
<path d="M0 0 C9.03256026 1.90894315 18.69679895 4.00118786 25.1875 11.0625 C27 14 27 14 26.8125 16.375 C26.4103125 17.179375 26.4103125 17.179375 26 18 C20.36116103 18.30757303 16.33750646 17.59526096 11.046875 15.6796875 C8.5570727 14.85292109 6.5944415 14.52828336 4 15 C1.34114837 18.98827744 1.90382332 22.21685174 2.1875 26.8125 C2.2642395 28.1742334 2.2642395 28.1742334 2.3425293 29.56347656 C4.54057723 65.28991294 7.97929348 96.09061249 32 124 C33.10021484 125.28583984 33.10021484 125.28583984 34.22265625 126.59765625 C43.30664302 136.96333427 52.66715894 144.32143707 64.6328125 151.03125 C66.29957031 152.00578125 66.29957031 152.00578125 68 153 C68 153.33 68 153.66 68 154 C59.7493837 156.31017256 53.21299372 152.8839197 46 149 C40.72838384 145.51262315 37.68490083 141.97791658 35.18359375 136.23046875 C33.10756051 132.31820809 30.09762239 129.12310645 27.25390625 125.75 C23.24402296 120.85752541 19.74366149 115.70426367 17 110 C15.515 110.495 15.515 110.495 14 111 C13.38125 110.195625 12.7625 109.39125 12.125 108.5625 C10.25835959 105.96125481 10.25835959 105.96125481 8 105 C8.495 103.515 8.495 103.515 9 102 C9.66 102 10.32 102 11 102 C10.5875 100.783125 10.175 99.56625 9.75 98.3125 C3.64196676 79.90114266 3.64196676 79.90114266 3 73 C2.01 73 1.02 73 0 73 C-0.33 73.66 -0.66 74.32 -1 75 C-0.625 72.5625 -0.625 72.5625 0 70 C0.66 69.67 1.32 69.34 2 69 C1.86722656 68.2471875 1.73445313 67.494375 1.59765625 66.71875 C0.4140936 59.60009581 -0.32345606 52.58275274 -0.65795898 45.3828125 C-0.82972932 41.66473651 -0.82972932 41.66473651 -1.5234375 38.01953125 C-2.2838611 34.79708041 -2.10294055 31.54123865 -2.0625 28.25 C-2.05798828 27.55261719 -2.05347656 26.85523437 -2.04882812 26.13671875 C-2.0371002 24.42444197 -2.01916653 22.71220967 -2 21 C-3.65614657 20.61781233 -5.32457024 20.28604898 -7 20 C-7.495 20.495 -7.495 20.495 -8 21 C-9.99958364 21.04080783 -12.00045254 21.04254356 -14 21 C-14 20.34 -14 19.68 -14 19 C-17.83488256 19.2511794 -21.66734421 19.52950739 -25.5 19.8125 C-27.11648437 19.91788086 -27.11648437 19.91788086 -28.765625 20.02539062 C-35.06512116 20.50553515 -40.21464675 21.43731319 -46 24 C-46.66 22.35 -47.32 20.7 -48 19 C-46.68 18.67 -45.36 18.34 -44 18 C-44.495 17.01 -44.495 17.01 -45 16 C-47.52733235 15.34444881 -47.52733235 15.34444881 -50 15 C-50 15.66 -50 16.32 -50 17 C-50.66 17 -51.32 17 -52 17 C-52 16.34 -52 15.68 -52 15 C-52.66 15 -53.32 15 -54 15 C-53.67 15.99 -53.34 16.98 -53 18 C-53.33 18.99 -53.66 19.98 -54 21 C-53.401875 21.12375 -52.80375 21.2475 -52.1875 21.375 C-50 22 -50 22 -47 24 C-47 24.66 -47 25.32 -47 26 C-50.87684087 27.19287411 -53.91621923 28 -58 28 C-58 27.34 -58 26.68 -58 26 C-61.96 26.495 -61.96 26.495 -66 27 C-66.33 28.32 -66.66 29.64 -67 31 C-72.43396226 30.39622642 -72.43396226 30.39622642 -74.875 28.6875 C-76 27 -76 27 -76 23 C-75.34 23 -74.68 23 -74 23 C-74 22.34 -74 21.68 -74 21 C-77.11320156 21.76113268 -77.11320156 21.76113268 -80 24 C-80.85174772 27.3266373 -80.98714943 30.5753227 -81 34 C-81.66 34 -82.32 34 -83 34 C-85.2240673 29.6826929 -85.35763349 26.66686514 -84 22 C-79.62278998 17.94307364 -75.72366945 17.39473582 -70 17 C-69.835 17.78375 -69.67 18.5675 -69.5 19.375 C-68.29603101 22.1093471 -68.29603101 22.1093471 -66.0859375 22.77734375 C-64.07483301 23.26413052 -62.037362 23.63853255 -60 24 C-60 23.34 -60 22.68 -60 22 C-60.66 22 -61.32 22 -62 22 C-62 20.68 -62 19.36 -62 18 C-62.66 17.67 -63.32 17.34 -64 17 C-64 16.01 -64 15.02 -64 14 C-62.94039062 13.79503906 -61.88078125 13.59007813 -60.7890625 13.37890625 C-59.40101178 13.10692334 -58.01299256 12.83477956 -56.625 12.5625 C-55.92632812 12.42779297 -55.22765625 12.29308594 -54.5078125 12.15429688 C-50.64371266 11.4227578 -50.64371266 11.4227578 -47 10 C-44.6670134 9.95977609 -42.33293334 9.95679753 -40 10 C-40 10.66 -40 11.32 -40 12 C-36.04 12 -32.08 12 -28 12 C-28 11.01 -28 10.02 -28 9 C-31.63 9.33 -35.26 9.66 -39 10 C-32.45098734 5.63399156 -24.81811861 4 -17 4 C-17 5.65 -17 7.3 -17 9 C-15.35 9 -13.7 9 -12 9 C-12.99 6.03 -12.99 6.03 -14 3 C-11.23547967 1.61773984 -8.9538637 1.90474613 -5.875 1.9375 C-4.77929688 1.94652344 -3.68359375 1.95554687 -2.5546875 1.96484375 C-1.29011719 1.98224609 -1.29011719 1.98224609 0 2 C0 1.34 0 0.68 0 0 Z " fill="#383838" transform="translate(102,65)"/>
<path d="M0 0 C4.455 0.99 4.455 0.99 9 2 C7.68 2.33 6.36 2.66 5 3 C5.12375 3.886875 5.2475 4.77375 5.375 5.6875 C5 9 5 9 2.5625 11.6875 C-7.00244213 18.58571863 -21.59634064 19.7004073 -33.0625 20.5 C-37.84432813 20.8436482 -41.61000944 22.09490976 -46 24 C-46.66 22.35 -47.32 20.7 -48 19 C-46.68 18.67 -45.36 18.34 -44 18 C-44.495 17.01 -44.495 17.01 -45 16 C-47.52733235 15.34444881 -47.52733235 15.34444881 -50 15 C-50 15.66 -50 16.32 -50 17 C-50.66 17 -51.32 17 -52 17 C-52 16.34 -52 15.68 -52 15 C-52.66 15 -53.32 15 -54 15 C-53.67 15.99 -53.34 16.98 -53 18 C-53.33 18.99 -53.66 19.98 -54 21 C-53.401875 21.12375 -52.80375 21.2475 -52.1875 21.375 C-50 22 -50 22 -47 24 C-47 24.66 -47 25.32 -47 26 C-50.87684087 27.19287411 -53.91621923 28 -58 28 C-58 27.34 -58 26.68 -58 26 C-61.96 26.495 -61.96 26.495 -66 27 C-66.33 28.32 -66.66 29.64 -67 31 C-72.43396226 30.39622642 -72.43396226 30.39622642 -74.875 28.6875 C-76 27 -76 27 -76 23 C-75.34 23 -74.68 23 -74 23 C-74 22.34 -74 21.68 -74 21 C-77.11320156 21.76113268 -77.11320156 21.76113268 -80 24 C-80.85174772 27.3266373 -80.98714943 30.5753227 -81 34 C-81.66 34 -82.32 34 -83 34 C-85.2240673 29.6826929 -85.35763349 26.66686514 -84 22 C-79.62278998 17.94307364 -75.72366945 17.39473582 -70 17 C-69.835 17.78375 -69.67 18.5675 -69.5 19.375 C-68.29603101 22.1093471 -68.29603101 22.1093471 -66.0859375 22.77734375 C-64.07483301 23.26413052 -62.037362 23.63853255 -60 24 C-60 23.34 -60 22.68 -60 22 C-60.66 22 -61.32 22 -62 22 C-62 20.68 -62 19.36 -62 18 C-62.66 17.67 -63.32 17.34 -64 17 C-64 16.01 -64 15.02 -64 14 C-62.94039062 13.79503906 -61.88078125 13.59007813 -60.7890625 13.37890625 C-59.40101178 13.10692334 -58.01299256 12.83477956 -56.625 12.5625 C-55.92632812 12.42779297 -55.22765625 12.29308594 -54.5078125 12.15429688 C-50.64371266 11.4227578 -50.64371266 11.4227578 -47 10 C-44.6670134 9.95977609 -42.33293334 9.95679753 -40 10 C-40 10.66 -40 11.32 -40 12 C-36.04 12 -32.08 12 -28 12 C-28 11.01 -28 10.02 -28 9 C-31.63 9.33 -35.26 9.66 -39 10 C-32.45098734 5.63399156 -24.81811861 4 -17 4 C-17 5.65 -17 7.3 -17 9 C-15.35 9 -13.7 9 -12 9 C-12.99 6.03 -12.99 6.03 -14 3 C-11.23547967 1.61773984 -8.9538637 1.90474613 -5.875 1.9375 C-4.77929688 1.94652344 -3.68359375 1.95554687 -2.5546875 1.96484375 C-1.29011719 1.98224609 -1.29011719 1.98224609 0 2 C0 1.34 0 0.68 0 0 Z " fill="#F6F6F6" transform="translate(102,65)"/>
<path d="M0 0 C0.66 0.99 1.32 1.98 2 3 C2.33 3.33 2.66 3.66 3 4 C3.33 3.01 3.66 2.02 4 1 C6.52709628 3.18678905 8.92608855 5.37232162 11 8 C10.9375 10.9375 10.9375 10.9375 10 13 C8.35 13.33 6.7 13.66 5 14 C3.10786631 11.61426621 1.97608217 9.92824652 1 7 C1.53725895 10.37705625 2.11064623 13.696686 3 17 C-2.75 17.125 -2.75 17.125 -5 16 C-4.236875 16.763125 -3.47375 17.52625 -2.6875 18.3125 C-1.800625 19.199375 -0.91375 20.08625 0 21 C0.8353125 21.6496875 0.8353125 21.6496875 1.6875 22.3125 C3.90329037 25.16137334 4.25514147 28.50489458 5 32 C6.65 32.33 8.3 32.66 10 33 C10 33.66 10 34.32 10 35 C10.66 35 11.32 35 12 35 C12 34.01 12 33.02 12 32 C15.26954202 32.56371414 16.82575883 33.49962266 19 36 C19 35.67 19 35.34 19 35 C19.33 34.01 19.66 33.02 20 32 C21.20276695 33.40372802 22.38680519 34.82352097 23.5625 36.25 C24.22378906 37.03890625 24.88507813 37.8278125 25.56640625 38.640625 C27 41 27 41 26.71484375 43.296875 C26.47894531 43.85890625 26.24304688 44.4209375 26 45 C23.525 45.495 23.525 45.495 21 46 C23.73395432 49.06534272 25.74198993 50.89136418 29.5625 52.5 C33.35032361 54.15286848 34.86524374 55.49899973 37 59 C37 60.32 37 61.64 37 63 C35.68 63 34.36 63 33 63 C33 62.34 33 61.68 33 61 C32.42765625 61.20496094 31.8553125 61.40992188 31.265625 61.62109375 C28.40089864 62.10019454 27.26525264 61.44588895 24.75 60.0625 C23.69039062 59.49208984 23.69039062 59.49208984 22.609375 58.91015625 C22.07828125 58.60980469 21.5471875 58.30945313 21 58 C23.48952921 60.66735273 25.63408134 62.55746343 29 64 C28.34 64 27.68 64 27 64 C27 64.66 27 65.32 27 66 C24.03 65.01 24.03 65.01 21 64 C21.495 67.465 21.495 67.465 22 71 C20.35 70.34 18.7 69.68 17 69 C17 68.01 17 67.02 17 66 C16.67 66.66 16.34 67.32 16 68 C14.02 68 12.04 68 10 68 C11.98 67.505 11.98 67.505 14 67 C14 66.34 14 65.68 14 65 C15.5 63.375 15.5 63.375 17 62 C16.360625 61.0925 15.72125 60.185 15.0625 59.25 C13.38571047 56.60778619 12.46310002 55.0101501 12 52 C10.68 51.67 9.36 51.34 8 51 C8.49831724 47.31245243 9.10067643 45.39509338 12 43 C10.8553125 42.814375 10.8553125 42.814375 9.6875 42.625 C7 42 7 42 4 40 C3.67 39.34 3.34 38.68 3 38 C3.99 38 4.98 38 6 38 C5.57847656 37.5153125 5.15695313 37.030625 4.72265625 36.53125 C0.70062863 31.61018091 -0.77284549 28.3603264 -1 22 C-1.66 22 -2.32 22 -3 22 C-2.67 23.65 -2.34 25.3 -2 27 C-4.875 26.6875 -4.875 26.6875 -8 26 C-8.66 25.01 -9.32 24.02 -10 23 C-9.01 22.67 -8.02 22.34 -7 22 C-7.763125 21.236875 -8.52625 20.47375 -9.3125 19.6875 C-10.199375 18.800625 -11.08625 17.91375 -12 17 C-12.598125 16.46375 -13.19625 15.9275 -13.8125 15.375 C-15 14 -15 14 -15 11 C-14.01 11 -13.02 11 -12 11 C-12 8.69 -12 6.38 -12 4 C-11.01 3.67 -10.02 3.34 -9 3 C-9 5.97 -9 8.94 -9 12 C-7.824375 11.01 -7.824375 11.01 -6.625 10 C-4 8 -4 8 -2 8 C-2 7.01 -2 6.02 -2 5 C-1.34 5 -0.68 5 0 5 C0 3.35 0 1.7 0 0 Z " fill="#101010" transform="translate(70,130)"/>
<path d="M0 0 C0.33 0 0.66 0 1 0 C1.08975098 0.54712646 1.17950195 1.09425293 1.27197266 1.65795898 C5.2781269 25.54770943 11.87059713 43.467758 28 62 C28.7321875 62.85464844 29.464375 63.70929688 30.21875 64.58984375 C39.29755959 74.96334273 48.66593289 82.32074955 60.6328125 89.03125 C61.74398437 89.6809375 62.85515625 90.330625 64 91 C64 91.33 64 91.66 64 92 C55.7493837 94.31017256 49.21299372 90.8839197 42 87 C36.72838384 83.51262315 33.68490083 79.97791658 31.18359375 74.23046875 C29.10756051 70.31820809 26.09762239 67.12310645 23.25390625 63.75 C19.24402296 58.85752541 15.74366149 53.70426367 13 48 C11.515 48.495 11.515 48.495 10 49 C9.38125 48.195625 8.7625 47.39125 8.125 46.5625 C6.25835959 43.96125481 6.25835959 43.96125481 4 43 C4.33 42.01 4.66 41.02 5 40 C5.66 40 6.32 40 7 40 C6.5875 38.783125 6.175 37.56625 5.75 36.3125 C5.48058594 35.48234375 5.21117188 34.6521875 4.93359375 33.796875 C4.29957461 31.89747039 3.62333016 30.01174796 2.91015625 28.140625 C-0.46922703 18.66392029 -0.40054267 9.91343111 0 0 Z " fill="#3C3C3C" transform="translate(106,127)"/>
<path d="M0 0 C0.66 0.99 1.32 1.98 2 3 C8.04352766 6.76918038 13.77678952 9.98498325 21 9 C21 9.99 21 10.98 21 12 C22.010625 11.9175 23.02125 11.835 24.0625 11.75 C28.50500203 11.74198104 32.65825893 12.71439996 36.9375 13.8125 C37.61240479 13.97782227 38.28730957 14.14314453 38.98266602 14.31347656 C40.90234375 14.83203125 40.90234375 14.83203125 44 16 C44.495 17.485 44.495 17.485 45 19 C49.58434301 20.09686735 54.11213962 20.31052521 58.80078125 20.53515625 C59.63715622 20.57813339 60.47353119 20.62111053 61.33525085 20.66539001 C63.99417166 20.80122438 66.65331584 20.93193331 69.3125 21.0625 C71.12045987 21.15395826 72.92840283 21.24575141 74.73632812 21.33789062 C79.15736564 21.56247336 83.57861052 21.78246118 88 22 C87.67 22.66 87.34 23.32 87 24 C74.00809483 24.34852408 61.23864318 24.06514812 48.3125 22.625 C47.16160889 22.49891357 46.01071777 22.37282715 44.82495117 22.24291992 C39.84174374 21.64728339 35.63874646 20.95759677 31 19 C28.48220097 18.36848195 25.96665302 17.76810504 23.4375 17.1875 C13.07436665 14.69043089 3.8701467 10.97029105 -5 5 C-4.67 4.34 -4.34 3.68 -4 3 C-1.9375 2.375 -1.9375 2.375 0 2 C0 1.34 0 0.68 0 0 Z " fill="#CDCDCD" transform="translate(102,227)"/>
<path d="M0 0 C2.75395152 2.75395152 3.73037324 6.06016924 5.125 9.625 C13.24825339 29.76972856 23.73269987 47.79316469 37.70458984 64.45068359 C38.78396525 65.74162146 39.842017 67.0503511 40.89453125 68.36328125 C61.9762194 93.95881017 95.00220068 106.29204184 127 110 C127.75112061 110.09063721 128.50224121 110.18127441 129.27612305 110.2746582 C139.04322223 111.31199942 148.87600279 111.35046712 158.6875 111.5625 C160.56446097 111.60578082 162.44141422 111.64939784 164.31835938 111.69335938 C168.87882646 111.79945023 173.43937398 111.90098746 178 112 C178 112.33 178 112.66 178 113 C163.28754064 114.38937222 148.94403568 114.18183315 134.25 112.75 C133.20717361 112.6501329 133.20717361 112.6501329 132.14328003 112.54824829 C93.90384442 108.8318711 60.4469845 95.15568029 34.984375 65.484375 C22.08264421 49.33181441 0 21.63368095 0 0 Z " fill="#D8D8D8" transform="translate(26,141)"/>
<path d="M0 0 C3.27084102 2.94865968 5.00014943 5.69197209 6.8125 9.6875 C9.21025244 14.68434287 11.92353979 18.82799326 15.484375 23.0625 C16.97415477 24.96696074 17.93779638 26.83912225 19 29 C19.598125 29.53625 20.19625 30.0725 20.8125 30.625 C23.04486525 33.04871084 24.01839817 35.02507251 25.375 38 C27.54545572 42.5679745 29.61719023 44.38896439 34 47 C35.38123963 48.96722008 36.71488126 50.96868328 38 53 C42.41249804 58.0428549 48.00763733 62.00381866 54 65 C54 65.99 54 66.98 54 68 C49.25298497 67.90312214 46.90734402 67.3200352 43.5625 63.875 C42.985 63.23949219 42.4075 62.60398438 41.8125 61.94921875 C40.00550292 60.00591801 38.11040335 58.37142052 36.0625 56.6875 C27.32318233 49.05315353 21.6399466 39.4035774 15.75 29.55078125 C13.28925722 25.44234308 10.69728428 21.43556125 8.0625 17.4375 C0 5.0995915 0 5.0995915 0 0 Z " fill="#D6D6D6" transform="translate(35,154)"/>
<path d="M0 0 C6.67074003 -0.72508044 11.41521198 1.39296153 17 5 C19.25872358 6.93251842 20.40691811 8.41810865 22 11 C21.8125 13.375 21.8125 13.375 21 15 C15.35948223 15.30766461 11.33581413 14.59276414 6.04296875 12.6796875 C3.54178057 11.84755223 1.60720832 11.53990441 -1 12 C-2.81476003 13.39585785 -2.81476003 13.39585785 -4 15 C-3.5012629 12.75568304 -2.89454223 10.74953781 -2 8.625 C-0.90814525 5.75888129 -0.42290178 3.0307961 0 0 Z " fill="#3F3F3F" transform="translate(107,68)"/>
<path d="M0 0 C2 3 2 3 2 7 C2.66 7 3.32 7 4 7 C4 6.34 4 5.68 4 5 C4.99 5 5.98 5 7 5 C7.33 5.33 7.66 5.66 8 6 C8.33 5.01 8.66 4.02 9 3 C12.14356516 8.76513611 14.16533233 13.44189685 15 20 C15.92492092 22.38237206 16.96521175 24.67684235 18.0625 26.984375 C19 29 19 29 20 32 C19.34 32 18.68 32 18 32 C17.67 32.66 17.34 33.32 17 34 C16.01 32.35 15.02 30.7 14 29 C13.67 29.99 13.34 30.98 13 32 C12.34 32 11.68 32 11 32 C9.99580363 29.5433053 8.99649499 27.08481647 8 24.625 C7.71382812 23.92632812 7.42765625 23.22765625 7.1328125 22.5078125 C5 17.2265625 5 17.2265625 5 15 C4.34 15 3.68 15 3 15 C2.49363393 13.25183142 1.99515381 11.50137737 1.5 9.75 C1.2215625 8.77546875 0.943125 7.8009375 0.65625 6.796875 C0 4 0 4 0 0 Z " fill="#2F2F2F" transform="translate(22,126)"/>
<path d="M0 0 C1.4540625 1.2375 1.4540625 1.2375 2.9375 2.5 C3.58847656 3.05171875 4.23945313 3.6034375 4.91015625 4.171875 C6.26256073 5.35491294 7.58587579 6.57242144 8.87109375 7.828125 C14.4824271 13.20975465 20.67775079 16.96395825 27.41162109 20.76269531 C29.28655342 21.82056421 31.14504855 22.90747406 33 24 C33 24.33 33 24.66 33 25 C24.02158342 27.51395664 16.51642586 23.04753596 8.765625 18.765625 C7.125 17.625 7.125 17.625 5 15 C4.81785703 12.92441731 4.93719655 11.00342186 5.12109375 8.9296875 C5.17168246 6.60942651 5.17168246 6.60942651 2.5 4.125 C1.675 3.42375 0.85 2.7225 0 2 C0 1.34 0 0.68 0 0 Z " fill="#535353" transform="translate(137,194)"/>
<path d="M0 0 C2.8125 1 2.8125 1 5 2 C4.67 2.99 4.34 3.98 4 5 C3.34 5 2.68 5 2 5 C2.33 5.99 2.66 6.98 3 8 C2.34 8 1.68 8 1 8 C1 8.66 1 9.32 1 10 C1.598125 10.061875 2.19625 10.12375 2.8125 10.1875 C7.38098225 11.88436483 8.97270387 17.84886984 11 22 C7.32617676 21.42231401 4.58823394 20.42308392 1.375 18.5625 C0.61960937 18.13066406 -0.13578125 17.69882813 -0.9140625 17.25390625 C-2.63898854 16.21701251 -4.32542391 15.11638406 -6 14 C-5.67 13.34 -5.34 12.68 -5 12 C-5.33 11.34 -5.66 10.68 -6 10 C-7 8 -8 6 -9 4 C-8.34 4 -7.68 4 -7 4 C-7 3.01 -7 2.02 -7 1 C-4.44744228 -0.27627886 -2.84227731 -0.19829842 0 0 Z " fill="#E3E3E3" transform="translate(77,171)"/>
<path d="M0 0 C0.165 0.78375 0.33 1.5675 0.5 2.375 C1.70396899 5.1093471 1.70396899 5.1093471 3.9140625 5.77734375 C5.92516699 6.26413052 7.962638 6.63853255 10 7 C9.01 7.33 8.02 7.66 7 8 C7 8.66 7 9.32 7 10 C6.01 10 5.02 10 4 10 C3.67 11.32 3.34 12.64 3 14 C-2.43396226 13.39622642 -2.43396226 13.39622642 -4.875 11.6875 C-6 10 -6 10 -6 6 C-5.34 6 -4.68 6 -4 6 C-4 5.34 -4 4.68 -4 4 C-7.11320156 4.76113268 -7.11320156 4.76113268 -10 7 C-10.85174772 10.3266373 -10.98714943 13.5753227 -11 17 C-11.66 17 -12.32 17 -13 17 C-15.2240673 12.6826929 -15.35763349 9.66686514 -14 5 C-9.34649264 1.07037157 -5.94540416 0 0 0 Z " fill="#E3E3E3" transform="translate(32,82)"/>
<path d="M0 0 C-1.65 0.66 -3.3 1.32 -5 2 C-4.34 2.66 -3.68 3.32 -3 4 C-4.32 4 -5.64 4 -7 4 C-7 4.66 -7 5.32 -7 6 C-7.66 6 -8.32 6 -9 6 C-9 5.34 -9 4.68 -9 4 C-9.66 4 -10.32 4 -11 4 C-10.67 4.99 -10.34 5.98 -10 7 C-10.33 7.99 -10.66 8.98 -11 10 C-10.401875 10.12375 -9.80375 10.2475 -9.1875 10.375 C-7 11 -7 11 -4 13 C-4 13.66 -4 14.32 -4 15 C-7.87684087 16.19287411 -10.91621923 17 -15 17 C-15 16.34 -15 15.68 -15 15 C-16.65 15 -18.3 15 -20 15 C-19.01 14.67 -18.02 14.34 -17 14 C-17 13.01 -17 12.02 -17 11 C-17.66 11 -18.32 11 -19 11 C-19 9.68 -19 8.36 -19 7 C-19.66 6.67 -20.32 6.34 -21 6 C-21 5.01 -21 4.02 -21 3 C-19.94039062 2.79503906 -18.88078125 2.59007813 -17.7890625 2.37890625 C-16.40101178 2.10692334 -15.01299256 1.83477956 -13.625 1.5625 C-12.92632812 1.42779297 -12.22765625 1.29308594 -11.5078125 1.15429688 C-2.24106927 -0.67232078 -2.24106927 -0.67232078 0 0 Z " fill="#ECECEC" transform="translate(59,76)"/>
<path d="M0 0 C13 2 13 2 17 4 C33.91620863 6.83002734 50.89276073 7.41952358 68 7 C62.06 6.67 56.12 6.34 50 6 C50 5.67 50 5.34 50 5 C53.45831586 4.97105453 56.91660072 4.95322 60.375 4.9375 C61.85226563 4.92493164 61.85226563 4.92493164 63.359375 4.91210938 C64.77089844 4.90727539 64.77089844 4.90727539 66.2109375 4.90234375 C67.51490479 4.89448853 67.51490479 4.89448853 68.84521484 4.88647461 C71 5 71 5 73 6 C73 6.66 73 7.32 73 8 C50.69691567 15.43436144 20.83175577 8.58335424 -1 2 C-0.67 1.34 -0.34 0.68 0 0 Z " fill="#313131" transform="translate(121,243)"/>
<path d="M0 0 C0.66 0.99 1.32 1.98 2 3 C2.33 3.33 2.66 3.66 3 4 C3.33 3.01 3.66 2.02 4 1 C6.52709628 3.18678905 8.92608855 5.37232162 11 8 C10.9375 10.9375 10.9375 10.9375 10 13 C8.35 13.33 6.7 13.66 5 14 C3.10786631 11.61426621 1.97608217 9.92824652 1 7 C1 8.65 1 10.3 1 12 C0.34 12 -0.32 12 -1 12 C-1 11.01 -1 10.02 -1 9 C-5.95562913 12.73021313 -5.95562913 12.73021313 -9 18 C-11.46800047 16.84826645 -13.04783565 15.95216435 -15 14 C-15 13.01 -15 12.02 -15 11 C-14.01 11 -13.02 11 -12 11 C-12 8.69 -12 6.38 -12 4 C-11.01 3.67 -10.02 3.34 -9 3 C-9 5.97 -9 8.94 -9 12 C-7.824375 11.01 -7.824375 11.01 -6.625 10 C-4 8 -4 8 -2 8 C-2 7.01 -2 6.02 -2 5 C-1.34 5 -0.68 5 0 5 C0 3.35 0 1.7 0 0 Z " fill="#595959" transform="translate(70,130)"/>
<path d="M0 0 C2.55813813 2.55813813 3.6339837 5.22943937 5.1875 8.5 C7.72793698 13.71569423 10.52557128 18.38879829 13.953125 23.08203125 C16.78039305 27.11250689 19.39841278 31.25879332 22 35.4375 C22.50563477 36.23188477 23.01126953 37.02626953 23.53222656 37.84472656 C23.9959668 38.59592773 24.45970703 39.34712891 24.9375 40.12109375 C25.56978516 41.13320923 25.56978516 41.13320923 26.21484375 42.16577148 C27 44 27 44 26 47 C15.10827814 34.79051426 4.72807234 19.43159788 -1 4 C-0.671875 1.6171875 -0.671875 1.6171875 0 0 Z " fill="#181818" transform="translate(35,156)"/>
<path d="M0 0 C0.66 0 1.32 0 2 0 C2.25523438 0.88751953 2.25523438 0.88751953 2.515625 1.79296875 C4.01616973 6.68570237 5.57224913 10.09945591 9 14 C9 14.66 9 15.32 9 16 C4.25886932 16.74080167 1.69042567 14.77002418 -2.0703125 12.22265625 C-4.06375786 10.8482887 -4.06375786 10.8482887 -6.875 10.0625 C-9 9 -9 9 -10.3125 5.875 C-10.539375 4.92625 -10.76625 3.9775 -11 3 C-2.42857143 4 -2.42857143 4 1 5 C0.67 3.35 0.34 1.7 0 0 Z " fill="#E1E1E1" transform="translate(67,152)"/>
<path d="M0 0 C1.32 0 2.64 0 4 0 C4.66 1.65 5.32 3.3 6 5 C5.34 5 4.68 5 4 5 C5.12697043 9.96911366 5.12697043 9.96911366 8 14 C8.103125 14.61875 8.20625 15.2375 8.3125 15.875 C9.30802953 18.95209127 11.49041506 20.06955005 14 22 C14 22.66 14 23.32 14 24 C12.35 24.66 10.7 25.32 9 26 C8.51080078 25.09507812 8.51080078 25.09507812 8.01171875 24.171875 C7.57472656 23.37265625 7.13773438 22.5734375 6.6875 21.75 C6.25824219 20.96109375 5.82898437 20.1721875 5.38671875 19.359375 C4.05580813 16.97138481 4.05580813 16.97138481 2.33203125 14.890625 C1 13 1 13 1 10 C-0.9375006 7.81222534 -0.9375006 7.81222534 -3 6 C-1.125 1.125 -1.125 1.125 0 0 Z " fill="#DDDDDD" transform="translate(48,127)"/>
<path d="M0 0 C4.29274732 0.82552833 6.43687099 1.25468219 9.125 4.8125 C9.74375 5.864375 10.3625 6.91625 11 8 C15.41249804 13.0428549 21.00763733 17.00381866 27 20 C27 20.99 27 21.98 27 23 C22.25298497 22.90312214 19.90734402 22.3200352 16.5625 18.875 C15.98886719 18.24464844 15.41523437 17.61429688 14.82421875 16.96484375 C12.95252132 14.94886129 10.97776319 13.20887086 8.875 11.4375 C5.50049973 8.52256203 2.66402599 5.57978493 0 2 C0 1.34 0 0.68 0 0 Z " fill="#E6E6E6" transform="translate(62,199)"/>
<path d="M0 0 C2.9719385 1.12451727 5.33440687 2.22293791 8 4 C8 4.66 8 5.32 8 6 C7.01 6 6.02 6 5 6 C4.67 7.65 4.34 9.3 4 11 C2.68 10.67 1.36 10.34 0 10 C0 13.96 0 17.92 0 22 C-0.99 21.67 -1.98 21.34 -3 21 C-3.33 18.69 -3.66 16.38 -4 14 C-3.34 14 -2.68 14 -2 14 C-2.78130071 11.50447516 -2.78130071 11.50447516 -4 9 C-4.99 8.67 -5.98 8.34 -7 8 C-7.99 7.34 -8.98 6.68 -10 6 C-7.69 6.33 -5.38 6.66 -3 7 C-3 6.34 -3 5.68 -3 5 C-1.35 4.67 0.3 4.34 2 4 C2 3.34 2 2.68 2 2 C1.34 2 0.68 2 0 2 C0 1.34 0 0.68 0 0 Z " fill="#636363" transform="translate(56,118)"/>
<path d="M0 0 C0.33 1.98 0.66 3.96 1 6 C0.34 5.67 -0.32 5.34 -1 5 C-1.66 6.65 -2.32 8.3 -3 10 C-7 10 -7 10 -9.75 7.5 C-10.4925 6.675 -11.235 5.85 -12 5 C-12 5.66 -12 6.32 -12 7 C-14.64 6.67 -17.28 6.34 -20 6 C-19.67 5.01 -19.34 4.02 -19 3 C-12.87327009 0.38348793 -6.59110674 -0.37308151 0 0 Z " fill="#ECECEC" transform="translate(75,60)"/>
<path d="M0 0 C0 0.99 0 1.98 0 3 C1.32 3.66 2.64 4.32 4 5 C4 5.99 4 6.98 4 8 C-1.75 8.125 -1.75 8.125 -4 7 C-3.690625 7.515625 -3.38125 8.03125 -3.0625 8.5625 C-1.70940713 11.66665423 -1.38640576 14.65115007 -1 18 C-3.875 17.6875 -3.875 17.6875 -7 17 C-7.66 16.01 -8.32 15.02 -9 14 C-8.01 13.67 -7.02 13.34 -6 13 C-6.5878125 11.9171875 -6.5878125 11.9171875 -7.1875 10.8125 C-8 8 -8 8 -6.8125 5.375 C-2.71052632 0 -2.71052632 0 0 0 Z " fill="#0D0D0D" transform="translate(69,139)"/>
<path d="M0 0 C0.33 0.99 0.66 1.98 1 3 C0.67 3.33 0.34 3.66 0 4 C-0.39993686 6.68862664 -0.75134543 9.36352217 -1.0625 12.0625 C-1.15337891 12.82111328 -1.24425781 13.57972656 -1.33789062 14.36132812 C-1.5624374 16.2404301 -1.78170978 18.12016095 -2 20 C-2.33 20 -2.66 20 -3 20 C-3.495 15.05 -3.495 15.05 -4 10 C-5.65614657 9.61781233 -7.32457024 9.28604898 -9 9 C-9.33 9.33 -9.66 9.66 -10 10 C-11.99958364 10.04080783 -14.00045254 10.04254356 -16 10 C-16 9.34 -16 8.68 -16 8 C-17.98 8 -19.96 8 -22 8 C-17.66499722 5.53042629 -13.03365171 4.86082161 -8.19140625 3.87890625 C-5.01520702 3.00418798 -2.72236734 1.82678482 0 0 Z " fill="#282828" transform="translate(104,76)"/>
<path d="M0 0 C3.28486915 1.17316755 6.44459477 2.5031996 9.625 3.9375 C8.635 4.4325 8.635 4.4325 7.625 4.9375 C6.965 4.6075 6.305 4.2775 5.625 3.9375 C4.965 6.2475 4.305 8.5575 3.625 10.9375 C2.635 10.9375 1.645 10.9375 0.625 10.9375 C0.625 9.9475 0.625 8.9575 0.625 7.9375 C-0.096875 8.123125 -0.81875 8.30875 -1.5625 8.5 C-4.50326973 8.95745307 -6.51603058 8.67266357 -9.375 7.9375 C-7.70924108 3.69738637 -4.88204596 -0.12847489 0 0 Z " fill="#323232" transform="translate(169.375,230.0625)"/>
<path d="M0 0 C0.33 0 0.66 0 1 0 C1.09498779 0.5576001 1.18997559 1.1152002 1.2878418 1.68969727 C3.16674258 12.54494897 5.29199282 22.92426226 9.14453125 33.26171875 C10 36 10 36 9 38 C8.505 36.515 8.505 36.515 8 35 C6.515 35.495 6.515 35.495 5 36 C0.93092484 23.70558004 -0.68827146 12.93950347 0 0 Z " fill="#484848" transform="translate(106,127)"/>
<path d="M0 0 C0.67417969 0.67546875 1.34835938 1.3509375 2.04296875 2.046875 C2.50106934 2.50384766 2.95916992 2.96082031 3.43115234 3.43164062 C4.52068174 4.52083092 5.60670184 5.61353841 6.68994141 6.70898438 C8.54676987 8.57438359 10.42772719 10.41287059 12.3125 12.25 C12.93833984 12.88679687 13.56417969 13.52359375 14.20898438 14.1796875 C18.74606256 18.55389621 21.67450792 19.85958952 28 20 C28 20.66 28 21.32 28 22 C24.41819603 22.87321632 21.58654863 22.90348172 18 22 C13.05625354 18.79770197 8.95909814 14.32068963 5 10 C4.50580566 9.4730957 4.01161133 8.94619141 3.50244141 8.40332031 C0.69804912 5.27068106 0 4.37071785 0 0 Z " fill="#202020" transform="translate(62,201)"/>
<path d="M0 0 C0.66 0.99 1.32 1.98 2 3 C4.00021095 4.13862424 6.04903226 5.19368565 8.125 6.1875 C9.22070312 6.71730469 10.31640625 7.24710938 11.4453125 7.79296875 C12.70988281 8.39044922 12.70988281 8.39044922 14 9 C13.34 10.32 12.68 11.64 12 13 C5.65660349 11.19389405 0.43061745 8.74372266 -5 5 C-4.67 4.34 -4.34 3.68 -4 3 C-1.9375 2.375 -1.9375 2.375 0 2 C0 1.34 0 0.68 0 0 Z " fill="#797979" transform="translate(102,227)"/>
<path d="M0 0 C5.27656762 4.27150712 6.13962478 10.65473278 7 17 C7.9119402 20.36185523 8.93868769 23.68256465 10 27 C5.52168665 23.3228528 3.60853251 18.52228593 1.25 13.375 C0.83878906 12.50359375 0.42757813 11.6321875 0.00390625 10.734375 C-3 4.28745328 -3 4.28745328 -3 2 C-2.34 2 -1.68 2 -1 2 C-0.67 2.33 -0.34 2.66 0 3 C0 2.01 0 1.02 0 0 Z " fill="#DFDFDF" transform="translate(30,129)"/>
<path d="M0 0 C0 0.99 0 1.98 0 3 C1.010625 2.9175 2.02125 2.835 3.0625 2.75 C9.87406325 2.7007301 16.51334039 5.10805762 23 7 C23 7.66 23 8.32 23 9 C16.51876593 10.26105459 12.35878655 9.6153916 6.25 7.25 C5.50878906 6.98445312 4.76757812 6.71890625 4.00390625 6.4453125 C0.24180283 5.05394211 -2.93908036 3.67427716 -6 1 C-3 0 -3 0 0 0 Z " fill="#9F9F9F" transform="translate(123,236)"/>
<path d="M0 0 C3.57692693 1.47518494 5.37657695 3.40576836 7.8125 6.375 C16.59015869 16.3673594 27.58811426 24.26200509 39 31 C38.67 31.66 38.34 32.32 38 33 C5.72092143 13.69842853 5.72092143 13.69842853 0 0 Z " fill="#EBEBEB" transform="translate(60,204)"/>
<path d="M0 0 C0.66 0 1.32 0 2 0 C2.33 0.99 2.66 1.98 3 3 C4.8653245 4.01754868 4.8653245 4.01754868 7.0625 4.6875 C7.79597656 4.93886719 8.52945313 5.19023437 9.28515625 5.44921875 C9.85105469 5.63097656 10.41695312 5.81273437 11 6 C10.67 6.99 10.34 7.98 10 9 C6.7 9 3.4 9 0 9 C0 8.34 0 7.68 0 7 C-0.804375 6.731875 -1.60875 6.46375 -2.4375 6.1875 C-3.283125 5.795625 -4.12875 5.40375 -5 5 C-5.33 4.01 -5.66 3.02 -6 2 C-4.02 1.67 -2.04 1.34 0 1 C0 0.67 0 0.34 0 0 Z " fill="#D0D0D0" transform="translate(85,196)"/>
<path d="M0 0 C1.63885071 1.39985164 3.27678227 2.80079312 4.91015625 4.20703125 C6.34885035 5.44135012 7.79460656 6.66746951 9.24609375 7.88671875 C9.96925781 8.50160156 10.69242188 9.11648437 11.4375 9.75 C12.11683594 10.32234375 12.79617187 10.8946875 13.49609375 11.484375 C15 13 15 13 15 15 C12.75 16.75 12.75 16.75 10 18 C7.75 17.4375 7.75 17.4375 6 16 C5.02825877 13.65162535 4.99031915 12.09438826 5.25 9.5625 C4.88419875 5.81303717 2.6846925 4.48334056 0 2 C0 1.34 0 0.68 0 0 Z " fill="#5F5F5F" transform="translate(137,194)"/>
<path d="M0 0 C0.99 1.485 0.99 1.485 2 3 C2.33 3.33 2.66 3.66 3 4 C3.33 3.01 3.66 2.02 4 1 C6.52709628 3.18678905 8.92608855 5.37232162 11 8 C10.9375 10.9375 10.9375 10.9375 10 13 C8.35 13.33 6.7 13.66 5 14 C1.34133706 9.67612562 0 5.65076098 0 0 Z " fill="#1F1F1F" transform="translate(70,130)"/>
<path d="M0 0 C2.97 0.66 5.94 1.32 9 2 C9 2.33 9 2.66 9 3 C4.38 3 -0.24 3 -5 3 C-5 4.32 -5 5.64 -5 7 C-6.32 7.33 -7.64 7.66 -9 8 C-9 8.66 -9 9.32 -9 10 C-9.66 10 -10.32 10 -11 10 C-14 5.61538462 -14 5.61538462 -14 3 C-11.23547967 1.61773984 -8.9538637 1.90474613 -5.875 1.9375 C-4.77929688 1.94652344 -3.68359375 1.95554687 -2.5546875 1.96484375 C-1.71164063 1.97644531 -0.86859375 1.98804687 0 2 C0 1.34 0 0.68 0 0 Z " fill="#C5C5C5" transform="translate(102,65)"/>
<path d="M0 0 C5.46124158 1.78902741 10.89364646 3.64863114 16.3125 5.5625 C17.48425781 5.97628906 18.65601563 6.39007813 19.86328125 6.81640625 C22.34992386 7.75470352 24.66203437 8.74731224 27 10 C21.05636551 9.57545468 15.4069091 8.51443082 9.625 7.125 C8.5721582 6.88281738 8.5721582 6.88281738 7.49804688 6.63574219 C3.90119279 5.74087269 1.27591896 5.04034976 -1 2 C-0.67 1.34 -0.34 0.68 0 0 Z " fill="#E5E5E5" transform="translate(115,237)"/>
<path d="M0 0 C1.98 0.66 3.96 1.32 6 2 C6 1.34 6 0.68 6 0 C7.46109063 0.25554054 8.91888096 0.53000372 10.375 0.8125 C11.59316406 1.03873047 11.59316406 1.03873047 12.8359375 1.26953125 C15 2 15 2 17 5 C15.35 5 13.7 5 12 5 C12 5.66 12 6.32 12 7 C7.24518354 6.42365861 4.02951788 4.44931479 0 2 C0 1.34 0 0.68 0 0 Z " fill="#2B2B2B" transform="translate(91,194)"/>
<path d="M0 0 C0.66 0 1.32 0 2 0 C5.75960806 3.75960806 6.58894145 6.75900345 7 12 C6.34 12 5.68 12 5 12 C4.67 12.66 4.34 13.32 4 14 C3.38125 13.195625 2.7625 12.39125 2.125 11.5625 C0.25835959 8.96125481 0.25835959 8.96125481 -2 8 C-1.67 7.01 -1.34 6.02 -1 5 C-0.34 5 0.32 5 1 5 C0.67 3.35 0.34 1.7 0 0 Z " fill="#131313" transform="translate(112,162)"/>
<path d="M0 0 C6.75 0.875 6.75 0.875 9 2 C9 4.31 9 6.62 9 9 C6.75 9.375 6.75 9.375 4 9 C1.42485131 5.8680624 0 4.10589421 0 0 Z " fill="#E6E6E6" transform="translate(56,51)"/>
<path d="M0 0 C0.69609375 0.54527344 0.69609375 0.54527344 1.40625 1.1015625 C8.65577233 6.37640151 16.60544548 9.09538114 25 12 C25 12.66 25 13.32 25 14 C19.20263589 13.49983525 14.94020163 11.81162677 9.8125 9.125 C8.76545898 8.59712891 8.76545898 8.59712891 7.69726562 8.05859375 C4.23095325 6.2842112 1.02344876 4.48438425 -2 2 C-1.34 2 -0.68 2 0 2 C0 1.34 0 0.68 0 0 Z " fill="#2B2B2B" transform="translate(96,230)"/>
<path d="M0 0 C-0.33 0.99 -0.66 1.98 -1 3 C0.65 3.33 2.3 3.66 4 4 C4 4.33 4 4.66 4 5 C2.02 5 0.04 5 -2 5 C-2 5.66 -2 6.32 -2 7 C-6.55737263 6.56179109 -9.57653445 6.14958831 -13 3 C-12.67 2.34 -12.34 1.68 -12 1 C-9.525 1.99 -9.525 1.99 -7 3 C-7 2.34 -7 1.68 -7 1 C-3.375 -1.125 -3.375 -1.125 0 0 Z " fill="#7B7B7B" transform="translate(110,198)"/>
<path d="M0 0 C0.99 0.33 1.98 0.66 3 1 C3 1.66 3 2.32 3 3 C3.66 3 4.32 3 5 3 C5.33 6.63 5.66 10.26 6 14 C5.01 14.33 4.02 14.66 3 15 C-0.16727335 9.8531808 -0.35050464 5.841744 0 0 Z " fill="#101010" transform="translate(89,128)"/>
<path d="M0 0 C0.66 0 1.32 0 2 0 C2 0.66 2 1.32 2 2 C2.66 2 3.32 2 4 2 C4 1.34 4 0.68 4 0 C5.65 0 7.3 0 9 0 C9.33 0.99 9.66 1.98 10 3 C9.01 3.33 8.02 3.66 7 4 C8.3089572 7.12197478 8.3089572 7.12197478 11 9 C9.4375 9.75 9.4375 9.75 7 10 C4.49713591 8.86915563 2.32992278 7.47860484 0 6 C0 4.02 0 2.04 0 0 Z " fill="#474747" transform="translate(48,80)"/>
<path d="M0 0 C2.76056118 2.56957896 4.90765815 5.45626875 7.125 8.5 C7.82882813 9.4590625 8.53265625 10.418125 9.2578125 11.40625 C11 14 11 14 12 17 C11.34 17 10.68 17 10 17 C9.67 17.66 9.34 18.32 9 19 C8.03874097 17.58531689 7.08111675 16.1681636 6.125 14.75 C5.32449219 13.56664062 5.32449219 13.56664062 4.5078125 12.359375 C3 10 3 10 1.9296875 7.765625 C1.12382792 5.81897286 1.12382792 5.81897286 -1 5 C-0.34 5 0.32 5 1 5 C0.67 3.35 0.34 1.7 0 0 Z " fill="#676767" transform="translate(118,169)"/>
<path d="M0 0 C1.65322266 0.01740234 1.65322266 0.01740234 3.33984375 0.03515625 C4.99693359 0.04869141 4.99693359 0.04869141 6.6875 0.0625 C7.54214844 0.07410156 8.39679687 0.08570312 9.27734375 0.09765625 C8.94734375 0.75765625 8.61734375 1.41765625 8.27734375 2.09765625 C7.61734375 1.76765625 6.95734375 1.43765625 6.27734375 1.09765625 C6.60734375 2.74765625 6.93734375 4.39765625 7.27734375 6.09765625 C2.82234375 6.59265625 2.82234375 6.59265625 -1.72265625 7.09765625 C-1.72265625 5.44765625 -1.72265625 3.79765625 -1.72265625 2.09765625 C-2.38265625 1.76765625 -3.04265625 1.43765625 -3.72265625 1.09765625 C-2.72265625 0.09765625 -2.72265625 0.09765625 0 0 Z " fill="#9A9A9A" transform="translate(41.72265625,25.90234375)"/>
<path d="M0 0 C2.97 0.33 5.94 0.66 9 1 C9 1.66 9 2.32 9 3 C8.0925 3.28875 7.185 3.5775 6.25 3.875 C3.11697634 4.85309428 3.11697634 4.85309428 0.875 6.1875 C-1.50023246 7.2167674 -2.5924468 6.80251773 -5 6 C-5.66 6 -6.32 6 -7 6 C-7 5.34 -7 4.68 -7 4 C-7.66 4 -8.32 4 -9 4 C-9 3.01 -9 2.02 -9 1 C-8.01 1 -7.02 1 -6 1 C-6 1.66 -6 2.32 -6 3 C-3.52733235 2.65555119 -3.52733235 2.65555119 -1 2 C-0.67 1.34 -0.34 0.68 0 0 Z " fill="#5B5B5B" transform="translate(186,236)"/>
<path d="M0 0 C7.36259293 -0.22424141 13.87049629 0.09879901 21 2 C21 2.33 21 2.66 21 3 C13.74 3 6.48 3 -1 3 C-0.67 2.01 -0.34 1.02 0 0 Z " fill="#DADADA" transform="translate(206,234)"/>
<path d="M0 0 C2 1 2 1 3 3 C2.01 3.66 1.02 4.32 0 5 C-0.58189266 7.42521494 -0.58189266 7.42521494 -0.6875 10.125 C-0.75324219 11.03507812 -0.81898437 11.94515625 -0.88671875 12.8828125 C-0.92410156 13.58148438 -0.96148438 14.28015625 -1 15 C-1.66 15 -2.32 15 -3 15 C-5.2220333 10.68664124 -5.21360476 7.68104691 -4 3 C-1.9375 1.0625 -1.9375 1.0625 0 0 Z " fill="#BDBDBD" transform="translate(22,84)"/>
<path d="M0 0 C3.45831586 -0.02894547 6.91660072 -0.04678 10.375 -0.0625 C11.35984375 -0.07087891 12.3446875 -0.07925781 13.359375 -0.08789062 C14.77089844 -0.09272461 14.77089844 -0.09272461 16.2109375 -0.09765625 C17.51490479 -0.10551147 17.51490479 -0.10551147 18.84521484 -0.11352539 C21 0 21 0 23 1 C23 1.66 23 2.32 23 3 C20.17588235 3.94137255 18.47081968 4.11725382 15.55078125 4.09765625 C14.70322266 4.09443359 13.85566406 4.09121094 12.98242188 4.08789062 C12.10134766 4.07951172 11.22027344 4.07113281 10.3125 4.0625 C9.41982422 4.05798828 8.52714844 4.05347656 7.60742188 4.04882812 C5.40488013 4.03704983 3.20247401 4.02060164 1 4 C1 3.67 1 3.34 1 3 C9.415 2.505 9.415 2.505 18 2 C12.06 1.67 6.12 1.34 0 1 C0 0.67 0 0.34 0 0 Z " fill="#656565" transform="translate(171,248)"/>
<path d="M0 0 C3.02093215 3.02093215 2.46676834 6.56372072 2.625 10.625 C2.66367188 11.42679688 2.70234375 12.22859375 2.7421875 13.0546875 C2.83653931 15.03607556 2.91936215 17.01800645 3 19 C2.34 17.68 1.68 16.36 1 15 C0.01 15 -0.98 15 -2 15 C-2.33 15.66 -2.66 16.32 -3 17 C-2.625 14.5625 -2.625 14.5625 -2 12 C-1.34 11.67 -0.68 11.34 0 11 C-0.185625 9.9275 -0.37125 8.855 -0.5625 7.75 C-0.9304568 4.59608454 -1.04465343 2.90181508 0 0 Z " fill="#1E1E1E" transform="translate(104,123)"/>
<path d="M0 0 C3.99307785 2.77779328 6.21133443 4.49526679 7.375 9.3125 C7.58125 10.529375 7.7875 11.74625 8 13 C9.65 13.33 11.3 13.66 13 14 C13 14.33 13 14.66 13 15 C11.02 15.33 9.04 15.66 7 16 C2.87010523 11.73688282 2.38728235 8.71241466 2 3 C1.01 3.33 0.02 3.66 -1 4 C-0.67 2.68 -0.34 1.36 0 0 Z " fill="#313131" transform="translate(67,149)"/>
<path d="M0 0 C0 0.66 0 1.32 0 2 C-4.75 1.125 -4.75 1.125 -7 0 C-7 0.66 -7 1.32 -7 2 C-4.525 2.99 -4.525 2.99 -2 4 C-2 4.66 -2 5.32 -2 6 C-5.66881155 5.29445932 -8.70450534 3.72264494 -12 2 C-12 1.01 -12 0.02 -12 -1 C-7.65429709 -2.44856764 -4.27334122 -1.42444707 0 0 Z " fill="#2B2B2B" transform="translate(72,116)"/>
<path d="M0 0 C0 0.66 0 1.32 0 2 C1.98 2 3.96 2 6 2 C6 2.33 6 2.66 6 3 C5.154375 3.06058594 4.30875 3.12117188 3.4375 3.18359375 C-2.7359922 3.63959033 -8.86689384 4.15820112 -15 5 C-15 4.34 -15 3.68 -15 3 C-13.25183142 2.49363393 -11.50137737 1.99515381 -9.75 1.5 C-8.77546875 1.2215625 -7.8009375 0.943125 -6.796875 0.65625 C-4 0 -4 0 0 0 Z " fill="#707070" transform="translate(55,64)"/>
<path d="M0 0 C1.65 0 3.3 0 5 0 C5 0.99 5 1.98 5 3 C8.3 3 11.6 3 15 3 C15 3.66 15 4.32 15 5 C11.61821575 7.39543051 8.75995827 7.15668349 4.83984375 6.55078125 C3 6 3 6 1 4.0625 C0 2 0 2 0 0 Z " fill="#636363" transform="translate(118,212)"/>
<path d="M0 0 C0.33 0 0.66 0 1 0 C1 2.64 1 5.28 1 8 C1.66 7.01 2.32 6.02 3 5 C2.125 10.75 2.125 10.75 1 13 C0.01 13 -0.98 13 -2 13 C-3.19876651 7.55106131 -2.91360308 4.77830905 0 0 Z " fill="#292929" transform="translate(96,94)"/>
<path d="M0 0 C-0.99 0.495 -0.99 0.495 -2 1 C0.31 1 2.62 1 5 1 C5 1.99 5 2.98 5 4 C1.04 4 -2.92 4 -7 4 C-7 3.34 -7 2.68 -7 2 C-7.66 1.67 -8.32 1.34 -9 1 C-5.57367167 -0.61798838 -3.61944899 -1.34053666 0 0 Z " fill="#747474" transform="translate(69,73)"/>
<path d="M0 0 C3.36983816 3.02701912 5.1933021 5.98166176 7.125 10.0625 C8.62922865 13.21514503 10.06001969 16.09002953 12 19 C9.55964535 18.6344576 8.34459785 18.44957703 6.81152344 16.44946289 C6.49731445 15.7971167 6.18310547 15.14477051 5.859375 14.47265625 C5.33730469 13.40821289 5.33730469 13.40821289 4.8046875 12.32226562 C4.45664062 11.57654297 4.10859375 10.83082031 3.75 10.0625 C3.38648438 9.32064453 3.02296875 8.57878906 2.6484375 7.81445312 C0 2.32342575 0 2.32342575 0 0 Z " fill="#CECECE" transform="translate(35,154)"/>
<path d="M0 0 C1.90318884 2.85478326 2.4619099 4.41941308 3.125 7.6875 C3.29257813 8.49574219 3.46015625 9.30398437 3.6328125 10.13671875 C3.75398438 10.75160156 3.87515625 11.36648437 4 12 C3.01 12.33 2.02 12.66 1 13 C0.34 12.67 -0.32 12.34 -1 12 C-1.40729228 9.67843403 -1.74438677 7.3431213 -2 5 C-1.34 5 -0.68 5 0 5 C0 3.35 0 1.7 0 0 Z " fill="#AAAAAA" transform="translate(109,155)"/>
<path d="M0 0 C3.56660516 0.61141803 6.65415459 1.64357619 10 3 C10.66 3 11.32 3 12 3 C12 3.66 12 4.32 12 5 C13.32 5.33 14.64 5.66 16 6 C10.50171799 7.3745705 7.61492757 6.79691233 2.6015625 4.203125 C1 3 1 3 0 0 Z " fill="#969696" transform="translate(91,188)"/>
<path d="M0 0 C3.10807864 3.86155226 6.16039201 7.76248332 9.1875 11.6875 C9.63802734 12.26822266 10.08855469 12.84894531 10.55273438 13.44726562 C13.88317897 17.76635794 13.88317897 17.76635794 15 20 C14.01 20 13.02 20 12 20 C10.17703421 17.7633953 8.5490296 15.56843529 6.9375 13.1875 C6.49083984 12.54490234 6.04417969 11.90230469 5.58398438 11.24023438 C0 3.18560818 0 3.18560818 0 0 Z " fill="#D9D9D9" transform="translate(47,184)"/>
<path d="M0 0 C1.32 0 2.64 0 4 0 C4.1875 2.375 4.1875 2.375 4 5 C1 7 1 7 -1.6875 6.625 C-2.450625 6.41875 -3.21375 6.2125 -4 6 C-2.84826645 3.53199953 -1.95216435 1.95216435 0 0 Z " fill="#B7B7B7" transform="translate(164,232)"/>
<path d="M0 0 C1.875 0.25 1.875 0.25 4 1 C5.3125 2.875 5.3125 2.875 6 5 C5.67 5.99 5.34 6.98 5 8 C5.66 8.33 6.32 8.66 7 9 C6.01 9.33 5.02 9.66 4 10 C1.16625119 6.79663178 0.4794463 4.21912747 0 0 Z " fill="#0F0F0F" transform="translate(137,198)"/>
<path d="M0 0 C2.475 0.495 2.475 0.495 5 1 C5.66 2.98 6.32 4.96 7 7 C5.02 7.99 5.02 7.99 3 9 C3 8.34 3 7.68 3 7 C2.34 7 1.68 7 1 7 C0.67 4.69 0.34 2.38 0 0 Z " fill="#BBBBBB" transform="translate(98,127)"/>
<path d="M0 0 C0.66 0 1.32 0 2 0 C1.67 2.97 1.34 5.94 1 9 C-1.4375 8.3125 -1.4375 8.3125 -4 7 C-4.8125 4.375 -4.8125 4.375 -5 2 C-4.34 2 -3.68 2 -3 2 C-3 2.66 -3 3.32 -3 4 C-2.01 4 -1.02 4 0 4 C0 2.68 0 1.36 0 0 Z " fill="#5A5A5A" transform="translate(70,105)"/>
<path d="M0 0 C5.06233487 0.63279186 10.03074771 1.86259336 15 3 C12 5 12 5 9.625 4.828125 C8.75875 4.63734375 7.8925 4.4465625 7 4.25 C6.13375 4.06953125 5.2675 3.8890625 4.375 3.703125 C2 3 2 3 -1 1 C-0.67 0.67 -0.34 0.34 0 0 Z " fill="#535353" transform="translate(121,243)"/>
<path d="M0 0 C3.78083039 1.52951775 5.85198638 3.81890209 8.5 6.875 C11.24516173 10.024415 14.01134184 13.07926589 17 16 C12.64063302 15.5557991 10.26638801 12.67552531 7.375 9.6875 C6.88515625 9.20087891 6.3953125 8.71425781 5.890625 8.21289062 C3.37708634 5.66158021 1.34841166 3.33930181 0 0 Z " fill="#E4E4E4" transform="translate(60,204)"/>
<path d="M0 0 C2.49361571 1.20381448 4.68143083 2.45428722 7 4 C7 4.66 7 5.32 7 6 C5.35 6.66 3.7 7.32 2 8 C-0.1519437 4.77208445 -0.20086443 3.71599191 0 0 Z " fill="#E8E8E8" transform="translate(55,145)"/>
<path d="M0 0 C0.66 0 1.32 0 2 0 C2 3.63 2 7.26 2 11 C0.68 10.67 -0.64 10.34 -2 10 C-2.33 8.68 -2.66 7.36 -3 6 C-2.01 6 -1.02 6 0 6 C0 4.02 0 2.04 0 0 Z " fill="#2A2A2A" transform="translate(58,135)"/>
<path d="M0 0 C3.18616521 2.94451785 4.55828766 5.89111984 6 10 C5.6875 12.4375 5.6875 12.4375 5 14 C1.84888788 11.47047712 1.41201983 9.23243734 0.8125 5.3125 C0.65394531 4.31863281 0.49539062 3.32476562 0.33203125 2.30078125 C0.22246094 1.54152344 0.11289062 0.78226563 0 0 Z " fill="#C8C8C8" transform="translate(30,129)"/>
<path d="M0 0 C0.66 0 1.32 0 2 0 C2 3.63 2 7.26 2 11 C1.01 10.67 0.02 10.34 -1 10 C-1.33 7.69 -1.66 5.38 -2 3 C-1.34 3 -0.68 3 0 3 C0 2.01 0 1.02 0 0 Z " fill="#131313" transform="translate(54,129)"/>
<path d="M0 0 C0.66 0.33 1.32 0.66 2 1 C1.195625 1.804375 0.39125 2.60875 -0.4375 3.4375 C-3.68813058 7.26663263 -3.88073863 11.1211256 -4 16 C-4.33 16 -4.66 16 -5 16 C-6.02375125 13.00699475 -6.83515727 10.16923442 -7 7 C-4.75 4.0625 -4.75 4.0625 -2 2 C-1.34 1.34 -0.68 0.68 0 0 Z " fill="#A3A3A3" transform="translate(40,44)"/>
<path d="M0 0 C-0.66 0.66 -1.32 1.32 -2 2 C-4.91952568 1.98251781 -7.72297885 1.86055367 -10.625 1.625 C-11.42679688 1.56828125 -12.22859375 1.5115625 -13.0546875 1.453125 C-15.03715498 1.31152018 -17.01869051 1.15697741 -19 1 C-13.02154267 -2.35376875 -6.50084979 -1.08347497 0 0 Z " fill="#4A4A4A" transform="translate(172,251)"/>
<path d="M0 0 C0.33 0.99 0.66 1.98 1 3 C-5.435 3.495 -5.435 3.495 -12 4 C-12 3.34 -12 2.68 -12 2 C-7.8794254 0.00214565 -4.54805635 -0.17835515 0 0 Z " fill="#919191" transform="translate(56,56)"/>
<path d="M0 0 C2.28459758 2.28459758 2.97129748 4.12537344 4.125 7.125 C4.47820313 8.03507813 4.83140625 8.94515625 5.1953125 9.8828125 C5.46085937 10.58148438 5.72640625 11.28015625 6 12 C5.01 12.33 4.02 12.66 3 13 C2.29819469 11.5903653 1.61406042 10.17192359 0.9375 8.75 C0.55464844 7.96109375 0.17179687 7.1721875 -0.22265625 6.359375 C-1.08564091 3.74006478 -0.93045933 2.55144824 0 0 Z " fill="#1E1E1E" transform="translate(35,156)"/>
<path d="M0 0 C0.33 0.66 0.66 1.32 1 2 C0.34 2 -0.32 2 -1 2 C-1 2.66 -1 3.32 -1 4 C-3.64 3.67 -6.28 3.34 -9 3 C-8.67 2.01 -8.34 1.02 -8 0 C-5.08447442 -1.20642438 -2.93446575 -1.11307322 0 0 Z " fill="#C9C9C9" transform="translate(64,63)"/>
<path d="M0 0 C2.31 0 4.62 0 7 0 C7.33 1.32 7.66 2.64 8 4 C5.69 4.33 3.38 4.66 1 5 C1.33 4.01 1.66 3.02 2 2 C1.34 1.34 0.68 0.68 0 0 Z " fill="#C0C0C0" transform="translate(43,102)"/>
<path d="M0 0 C4.455 0.99 4.455 0.99 9 2 C9 2.33 9 2.66 9 3 C2.07 3 -4.86 3 -12 3 C-12 2.67 -12 2.34 -12 2 C-8.04 2 -4.08 2 0 2 C0 1.34 0 0.68 0 0 Z " fill="#8D8D8D" transform="translate(102,65)"/>
<path d="M0 0 C0.66 0 1.32 0 2 0 C2 0.66 2 1.32 2 2 C2.66 2 3.32 2 4 2 C4 1.34 4 0.68 4 0 C5.65 0 7.3 0 9 0 C9.33 0.99 9.66 1.98 10 3 C7.8125 4.1875 7.8125 4.1875 5 5 C2.1875 3.75 2.1875 3.75 0 2 C0 1.34 0 0.68 0 0 Z " fill="#868686" transform="translate(48,80)"/>
<path d="M0 0 C3.5 0.3125 3.5 0.3125 7 1 C7.33 1.66 7.66 2.32 8 3 C5.625 4.0625 5.625 4.0625 3 5 C2.34 4.67 1.68 4.34 1 4 C1 3.34 1 2.68 1 2 C0.34 1.67 -0.32 1.34 -1 1 C-0.67 0.67 -0.34 0.34 0 0 Z " fill="#1E1E1E" transform="translate(179,235)"/>
<path d="M0 0 C-1.65 0.66 -3.3 1.32 -5 2 C-4.34 2.66 -3.68 3.32 -3 4 C-4.32 4 -5.64 4 -7 4 C-7 4.66 -7 5.32 -7 6 C-7.66 6 -8.32 6 -9 6 C-9 4.68 -9 3.36 -9 2 C-9.66 1.67 -10.32 1.34 -11 1 C-3.57142857 -1.42857143 -3.57142857 -1.42857143 0 0 Z " fill="#C4C4C4" transform="translate(59,76)"/>
<path d="M0 0 C2.375 -0.1875 2.375 -0.1875 5 0 C7 3 7 3 7 6 C5.35 6 3.7 6 2 6 C2 4.35 2 2.7 2 1 C1.34 0.67 0.68 0.34 0 0 Z " fill="#292929" transform="translate(83,68)"/>
<path d="M0 0 C0.99 0 1.98 0 3 0 C3 1.98 3 3.96 3 6 C1.68 6.33 0.36 6.66 -1 7 C-1.04254356 5.00045254 -1.04080783 2.99958364 -1 1 C-0.67 0.67 -0.34 0.34 0 0 Z " fill="#969696" transform="translate(171,234)"/>
<path d="M0 0 C2.93200474 2.85276137 5.64315404 5.65079784 8 9 C7.01 9.33 6.02 9.66 5 10 C0 4.5 0 4.5 0 0 Z " fill="#292929" transform="translate(62,201)"/>
<path d="M0 0 C5.53846154 0.61538462 5.53846154 0.61538462 7.875 2.5625 C8.431875 3.2740625 8.431875 3.2740625 9 4 C6.29120665 5.35439668 3.99066732 5.06501451 1 5 C1.33 4.34 1.66 3.68 2 3 C1.34 2.67 0.68 2.34 0 2 C0 1.34 0 0.68 0 0 Z " fill="#424242" transform="translate(109,199)"/>
<path d="M0 0 C0.598125 0.20625 1.19625 0.4125 1.8125 0.625 C1.1525 1.945 0.4925 3.265 -0.1875 4.625 C-1.8375 4.295 -3.4875 3.965 -5.1875 3.625 C-5.1875 2.965 -5.1875 2.305 -5.1875 1.625 C-2.1875 -0.375 -2.1875 -0.375 0 0 Z " fill="#161616" transform="translate(152.1875,209.375)"/>
<path d="M0 0 C1.32 0.66 2.64 1.32 4 2 C3.67 3.32 3.34 4.64 3 6 C1.0625 5.6875 1.0625 5.6875 -1 5 C-1.33 4.01 -1.66 3.02 -2 2 C-1.34 2 -0.68 2 0 2 C0 1.34 0 0.68 0 0 Z " fill="#181818" transform="translate(57,123)"/>
<path d="M0 0 C4.67692308 1.47692308 4.67692308 1.47692308 6.3125 4.125 C6.539375 4.74375 6.76625 5.3625 7 6 C6.34 6 5.68 6 5 6 C4.67 6.66 4.34 7.32 4 8 C2.68 5.36 1.36 2.72 0 0 Z " fill="#585858" transform="translate(123,180)"/>
<path d="M0 0 C2.64752004 2.57784846 4.94432065 4.91648098 7 8 C6.34 8 5.68 8 5 8 C4.67 8.66 4.34 9.32 4 10 C3.54625 9.195625 3.0925 8.39125 2.625 7.5625 C1.25274335 4.91143428 1.25274335 4.91143428 -1 4 C-0.67 2.68 -0.34 1.36 0 0 Z " fill="#3F3F3F" transform="translate(35,150)"/>
<path d="M0 0 C3.875 1.75 3.875 1.75 5 4 C4.67 4.66 4.34 5.32 4 6 C2.02 5.34 0.04 4.68 -2 4 C-2 2 -2 2 0 0 Z " fill="#ACACAC" transform="translate(122,73)"/>
<path d="M0 0 C0.33 0 0.66 0 1 0 C1.2475 1.0725 1.495 2.145 1.75 3.25 C2.99883146 6.99649437 4.02488658 8.52073882 7 11 C6.67 11.99 6.34 12.98 6 14 C0.11816193 8.24070022 0.11816193 8.24070022 -0.375 3.0625 C-0.25125 2.051875 -0.1275 1.04125 0 0 Z " fill="#D8D8D8" transform="translate(37,28)"/>
<path d="M0 0 C0.99 0 1.98 0 3 0 C3 0.66 3 1.32 3 2 C4.65 2 6.3 2 8 2 C7.67 2.99 7.34 3.98 7 5 C5.35 5 3.7 5 2 5 C2 4.34 2 3.68 2 3 C1.34 3 0.68 3 0 3 C0 2.01 0 1.02 0 0 Z " fill="#6A6A6A" transform="translate(177,237)"/>
<path d="M0 0 C1.485 0.99 1.485 0.99 3 2 C5.0492094 2.45139459 5.0492094 2.45139459 7.1875 2.625 C8.445625 2.74875 9.70375 2.8725 11 3 C11 3.66 11 4.32 11 5 C7.7 5 4.4 5 1 5 C0.67 3.35 0.34 1.7 0 0 Z " fill="#535353" transform="translate(79,218)"/>
<path d="M0 0 C0.99 0.33 1.98 0.66 3 1 C3 1.66 3 2.32 3 3 C1.54077307 2.88590407 0.08259402 2.75834456 -1.375 2.625 C-2.59316406 2.52058594 -2.59316406 2.52058594 -3.8359375 2.4140625 C-6 2 -6 2 -8 0 C-5.11301479 -1.4434926 -3.10530768 -0.63373626 0 0 Z " fill="#848484" transform="translate(69,115)"/>
<path d="M0 0 C1.65 0.33 3.3 0.66 5 1 C4.34 2.32 3.68 3.64 3 5 C1.68 4.34 0.36 3.68 -1 3 C-0.67 2.01 -0.34 1.02 0 0 Z " fill="#959595" transform="translate(111,235)"/>
<path d="M0 0 C3.63 1.65 7.26 3.3 11 5 C11 5.33 11 5.66 11 6 C3.25531915 5.25531915 3.25531915 5.25531915 0 2 C0 1.34 0 0.68 0 0 Z " fill="#C4C4C4" transform="translate(97,199)"/>
<path d="M0 0 C2.46800047 1.15173355 4.04783565 2.04783565 6 4 C5.625 6.125 5.625 6.125 5 8 C0 2.25 0 2.25 0 0 Z " fill="#DCDCDC" transform="translate(45,173)"/>
<path d="M0 0 C0.66 0 1.32 0 2 0 C2.33 1.65 2.66 3.3 3 5 C0.36 5 -2.28 5 -5 5 C-3.625 3.5 -3.625 3.5 -2 2 C-1.34 2 -0.68 2 0 2 C0 1.34 0 0.68 0 0 Z " fill="#5F5F5F" transform="translate(126,77)"/>
<path d="M0 0 C0 0.66 0 1.32 0 2 C2.64 2 5.28 2 8 2 C8.33 3.32 8.66 4.64 9 6 C8.34 6 7.68 6 7 6 C7 5.01 7 4.02 7 3 C6.06027344 3.03480469 6.06027344 3.03480469 5.1015625 3.0703125 C3.87566406 3.09738281 3.87566406 3.09738281 2.625 3.125 C1.81289062 3.14820313 1.00078125 3.17140625 0.1640625 3.1953125 C-2 3 -2 3 -4 1 C-2 0 -2 0 0 0 Z " fill="#505050" transform="translate(177,226)"/>
<path d="M0 0 C0.66 0.99 1.32 1.98 2 3 C2.66 2.67 3.32 2.34 4 2 C4 2.99 4 3.98 4 5 C2.02 5.33 0.04 5.66 -2 6 C-2.33 5.01 -2.66 4.02 -3 3 C-2.01 3 -1.02 3 0 3 C0 2.01 0 1.02 0 0 Z " fill="#5D5D5D" transform="translate(88,166)"/>
<path d="M0 0 C2.625 -0.1875 2.625 -0.1875 5 0 C5.33 0.99 5.66 1.98 6 3 C3.36 3 0.72 3 -2 3 C-1.34 2.01 -0.68 1.02 0 0 Z " fill="#FAFAFA" transform="translate(43,28)"/>
<path d="M0 0 C3.63 0 7.26 0 11 0 C11 0.66 11 1.32 11 2 C5.04296875 3.07421875 5.04296875 3.07421875 3 3 C2.01 2.01 1.02 1.02 0 0 Z " fill="#5B5B5B" transform="translate(135,243)"/>
<path d="M0 0 C0 0.99 0 1.98 0 3 C0.99 3.33 1.98 3.66 3 4 C2.01 4.495 2.01 4.495 1 5 C-1.35981813 4.06421005 -3.69631264 3.06652192 -6 2 C-3 0 -3 0 0 0 Z " fill="#838383" transform="translate(123,236)"/>
<path d="M0 0 C0.99 0 1.98 0 3 0 C2.625 2.9375 2.625 2.9375 2 6 C1.01 6.495 1.01 6.495 0 7 C-0.38133299 5.0085944 -0.71325582 3.00720923 -1 1 C-0.67 0.67 -0.34 0.34 0 0 Z " fill="#6E6E6E" transform="translate(223,218)"/>
<path d="M0 0 C1.65 0 3.3 0 5 0 C5.33 1.65 5.66 3.3 6 5 C3.5625 4.1875 3.5625 4.1875 1 3 C0.67 2.01 0.34 1.02 0 0 Z " fill="#ECECEC" transform="translate(118,212)"/>
<path d="M0 0 C0.33 0.66 0.66 1.32 1 2 C-0.32 2 -1.64 2 -3 2 C-3.33 2.66 -3.66 3.32 -4 4 C-4.99 4 -5.98 4 -7 4 C-7 3.01 -7 2.02 -7 1 C-4.53721199 -0.231394 -2.7204945 -0.07159196 0 0 Z " fill="#B0B0B0" transform="translate(77,171)"/>
<path d="M0 0 C2.95183101 2.95183101 3.08663988 5.95511947 4 10 C1.24049934 7.50754779 -0.62030099 5.79699009 -1 2 C-0.67 1.34 -0.34 0.68 0 0 Z " fill="#CDCDCD" transform="translate(36,146)"/>
<path d="M0 0 C0.33 0 0.66 0 1 0 C1 2.97 1 5.94 1 9 C0.34 8.67 -0.32 8.34 -1 8 C-1.75 5.0625 -1.75 5.0625 -2 2 C-1.34 1.34 -0.68 0.68 0 0 Z " fill="#F0F0F0" transform="translate(19,89)"/>
<path d="M0 0 C0 0.66 0 1.32 0 2 C1.32 2.66 2.64 3.32 4 4 C2.02 4 0.04 4 -2 4 C-2 3.34 -2 2.68 -2 2 C-3.98 2 -5.96 2 -8 2 C-4.91190305 0.23537317 -3.76687864 0 0 0 Z " fill="#535353" transform="translate(90,82)"/>
<path d="M0 0 C1.98 0 3.96 0 6 0 C5.67 0.99 5.34 1.98 5 3 C3.02 3 1.04 3 -1 3 C-0.67 2.01 -0.34 1.02 0 0 Z " fill="#080808" transform="translate(90,82)"/>
<path d="M0 0 C1.24546405 2.49092811 0.7767578 3.41080733 0 6 C0.66 6 1.32 6 2 6 C2 6.66 2 7.32 2 8 C0.68 7.67 -0.64 7.34 -2 7 C-2 5.02 -2 3.04 -2 1 C-1.34 0.67 -0.68 0.34 0 0 Z " fill="#1A1A1A" transform="translate(40,27)"/>
<path d="M0 0 C0.99 0 1.98 0 3 0 C2.625 2.4375 2.625 2.4375 2 5 C1.01 5.495 1.01 5.495 0 6 C0 5.01 0 4.02 0 3 C-0.66 2.67 -1.32 2.34 -2 2 C-1.34 1.34 -0.68 0.68 0 0 Z " fill="#F2F2F2" transform="translate(165,233)"/>
<path d="M0 0 C0 1.65 0 3.3 0 5 C-2 5 -4 5 -6 5 C-6 4.01 -6 3.02 -6 2 C-1.125 0 -1.125 0 0 0 Z " fill="#7A7A7A" transform="translate(136,221)"/>
<path d="M0 0 C2 0 2 0 4 1.875 C4.66 2.57625 5.32 3.2775 6 4 C6.66 4.66 7.32 5.32 8 6 C5.125 6.1875 5.125 6.1875 2 6 C0 3 0 3 0 0 Z " fill="#B6B6B6" transform="translate(59,194)"/>
<path d="M0 0 C2.12038635 2.61514317 4.13091744 5.19637616 6 8 C4.1875 7.875 4.1875 7.875 2 7 C0.25 3.9375 0.25 3.9375 -1 1 C-0.67 0.67 -0.34 0.34 0 0 Z " fill="#B9B9B9" transform="translate(41,165)"/>
<path d="M0 0 C0.99 0.33 1.98 0.66 3 1 C3 1.66 3 2.32 3 3 C3.66 3.33 4.32 3.66 5 4 C3.68 4 2.36 4 1 4 C1 5.65 1 7.3 1 9 C0.67 9 0.34 9 0 9 C0 6.03 0 3.06 0 0 Z " fill="#484848" transform="translate(89,128)"/>
<path d="M0 0 C0.99 0.66 1.98 1.32 3 2 C3 2.66 3 3.32 3 4 C2.34 4 1.68 4 1 4 C1.33 5.32 1.66 6.64 2 8 C0.68 8.33 -0.64 8.66 -2 9 C-2.33 8.34 -2.66 7.68 -3 7 C-2.01 7 -1.02 7 0 7 C0 4.69 0 2.38 0 0 Z " fill="#444444" transform="translate(65,53)"/>
<path d="M0 0 C5.53846154 0.49230769 5.53846154 0.49230769 7.875 3.0625 C8.431875 4.0215625 8.431875 4.0215625 9 5 C5.22454612 3.90931332 2.52956528 3.0916909 0 0 Z " fill="#BABABA" transform="translate(101,230)"/>
<path d="M0 0 C2.25 -0.3125 2.25 -0.3125 5 0 C7.3125 2.5 7.3125 2.5 9 5 C8.01 5 7.02 5 6 5 C6 4.34 6 3.68 6 3 C5.01 2.67 4.02 2.34 3 2 C2.01 1.34 1.02 0.68 0 0 Z " fill="#404040" transform="translate(46,124)"/>
</svg>
