<?xml version="1.0" encoding="UTF-8"?>
<svg version="1.1" xmlns="http://www.w3.org/2000/svg" width="500" height="500">
<path d="M0 0 C1.14264181 -0.00445784 2.28528362 -0.00891569 3.46255094 -0.01350862 C4.71330386 -0.01332426 5.96405677 -0.01313989 7.2527113 -0.01294994 C8.59855908 -0.01625097 9.94440589 -0.01997704 11.29025143 -0.02409142 C14.98778259 -0.03409296 18.68529751 -0.03782526 22.38284028 -0.04048073 C26.37151439 -0.04438942 30.36017573 -0.05396755 34.34884167 -0.0626936 C43.98280924 -0.08244486 53.61677783 -0.09252375 63.25076059 -0.10142139 C67.79184921 -0.10580757 72.33293668 -0.11117363 76.87402439 -0.11641026 C91.97810944 -0.13342326 107.08219377 -0.14791532 122.18628693 -0.155159 C126.10484665 -0.15706878 130.02340636 -0.15898913 133.94196606 -0.16094494 C135.40281181 -0.16167055 135.40281181 -0.16167055 136.8931696 -0.16241082 C152.65393714 -0.17070318 168.41462858 -0.19602635 184.17536292 -0.22852562 C200.37093772 -0.26164807 216.56647392 -0.27961255 232.76208276 -0.28280324 C241.84938283 -0.28496383 250.93657203 -0.29364595 260.023839 -0.31926441 C267.76666013 -0.34104259 275.50934347 -0.34898711 283.25219176 -0.33929763 C287.19751058 -0.33477308 291.14254551 -0.3365304 295.08782482 -0.35605907 C325.46884521 -0.49817263 325.46884521 -0.49817263 338.30695629 4.13422108 C339.22610978 4.45936538 340.14526327 4.78450968 341.0922699 5.11950684 C343.27937401 5.93222343 345.37943388 6.83783087 347.49445629 7.82172108 C348.24146801 8.16275867 348.98847973 8.50379627 349.75812817 8.85516834 C375.89020469 21.19065048 394.02837277 43.6277652 404.30695629 70.13422108 C407.90620776 80.25711582 408.45571941 89.56093536 408.45412731 100.24455738 C408.45743047 101.58388168 408.46115699 102.92320499 408.46526879 104.26252705 C408.47524551 107.93273638 408.47899858 111.60292936 408.4816581 115.27315032 C408.48557405 119.23588586 408.49515144 123.19860861 408.50387096 127.16133595 C408.52359885 136.72624359 408.53369684 146.29115224 408.54259875 155.85607514 C408.54698762 160.36627734 408.55235287 164.87647837 408.55758762 169.38667965 C408.57459611 184.38962116 408.58908883 199.39256196 408.59633636 214.39551163 C408.59824609 218.28554695 408.60016645 222.17558226 408.60212231 226.06561756 C408.60260605 227.0324025 408.60308979 227.99918744 408.60358819 228.99526889 C408.61188317 244.64597855 408.63721282 260.29661165 408.66970298 275.94728791 C408.70282559 292.03444484 408.72078981 308.12156293 408.72398061 324.20875412 C408.72614087 333.23342647 408.73481852 342.25798715 408.76044178 351.28262615 C408.78221995 358.97050237 408.79016437 366.65823979 408.780475 374.34614336 C408.77595083 378.26312313 408.77770559 382.17981696 408.79723644 386.09675694 C408.93938775 416.2576981 408.93938775 416.2576981 404.30695629 429.13422108 C403.87862987 430.3664221 403.87862987 430.3664221 403.44165039 431.62351608 C393.55455127 457.86788354 374.72351606 479.4793854 349.02765942 491.17133045 C336.06233564 496.71564178 324.90325674 499.43663572 310.72159863 499.40164661 C309.35508525 499.40538838 307.98857402 499.409992 306.62206614 499.41537726 C302.88601217 499.42755787 299.15004808 499.42735265 295.41397882 499.42498851 C291.37698867 499.42457908 287.34002686 499.43563156 283.30305004 499.44510365 C275.40041212 499.46168808 267.49780403 499.46721206 259.59515016 499.4683284 C253.16766669 499.4692802 246.74019303 499.47339708 240.31271267 499.47972965 C222.06980654 499.497336 203.8269239 499.50656961 185.58400922 499.5050687 C184.60135616 499.50498879 183.61870311 499.50490888 182.6062727 499.50482655 C181.62241276 499.50474478 180.63855283 499.50466302 179.62487896 499.50457878 C163.68908971 499.50376632 147.75339509 499.52289561 131.8176332 499.55110328 C115.43547934 499.57987108 99.05337156 499.59364139 82.67119181 499.59191573 C73.48170927 499.59125311 64.29232589 499.5966887 55.10286617 499.61827183 C47.27702929 499.63653509 39.45133652 499.64078898 31.62548749 499.62725298 C27.63774105 499.62074885 23.65027065 499.62051278 19.66255093 499.63795948 C16.0018208 499.65380983 12.34158281 499.65070659 8.68086381 499.63339122 C6.75079126 499.62892107 4.82070269 499.6438843 2.89069116 499.65987051 C-9.63105473 499.56233525 -21.21327372 496.44081582 -32.44304371 490.88422108 C-33.24669361 490.49363514 -34.05034351 490.1030492 -34.87834644 489.70062733 C-41.3399618 486.47796755 -47.15355292 482.78631771 -52.69304371 478.13422108 C-53.98081715 477.05334217 -53.98081715 477.05334217 -55.29460621 475.95062733 C-69.62850824 463.45718099 -80.56008952 448.21444613 -86.69304371 430.13422108 C-87.02771184 429.20206115 -87.36237997 428.26990122 -87.70718956 427.30949402 C-91.94700904 413.37433691 -91.25744404 398.98615584 -91.20128334 384.56855214 C-91.19007501 380.55693904 -91.20214826 376.5453819 -91.21112537 372.53377247 C-91.22499223 364.69621398 -91.21755097 356.85881761 -91.20244979 349.02126697 C-91.18551306 339.88014602 -91.18880948 330.73906459 -91.19254387 321.59793278 C-91.19841019 305.28195266 -91.18429791 288.96604994 -91.15959644 272.65009022 C-91.13566747 256.84244354 -91.12859838 241.03490019 -91.13908863 225.22723866 C-91.1505134 207.98065014 -91.15240956 190.7341093 -91.13799053 173.48752135 C-91.13646481 171.64657128 -91.13494445 169.80562121 -91.13342953 167.96467113 C-91.13267171 167.05906381 -91.1319139 166.15345648 -91.13113312 165.22040651 C-91.12640327 158.85837115 -91.1282324 152.49635719 -91.13249493 146.13432217 C-91.13743562 138.3766738 -91.13137454 130.61912286 -91.11160063 122.86149672 C-91.10177049 118.90843315 -91.09657698 114.9555175 -91.10449314 111.00244617 C-91.11160622 107.37608024 -91.10461574 103.75001133 -91.08688951 100.12368425 C-91.08099876 98.20739849 -91.08961236 96.29108456 -91.09893602 94.37481242 C-91.01597917 82.91865599 -88.78804634 72.39542907 -83.94304371 62.00922108 C-83.59016285 61.24061756 -83.23728199 60.47201405 -82.87370777 59.68011951 C-70.84333305 34.00883473 -50.0220185 15.41610802 -23.69304371 5.13422108 C-15.84359668 2.46053141 -8.34121134 0.01513352 0 0 Z " fill="#2D2F37" transform="translate(90.69304370880127,0.865778923034668)"/>
<path d="M0 0 C3.74628064 0.01025639 7.49252561 0.0006994 11.23880816 -0.00554466 C17.52764824 -0.01278663 23.81629937 -0.00332673 30.10511065 0.01581764 C37.33010531 0.03756082 44.55464784 0.03053981 51.7796315 0.00851202 C58.02901898 -0.00976406 64.27827202 -0.01214074 70.52767766 -0.0017333 C74.23981635 0.00443768 77.9517441 0.00551773 81.66386843 -0.00787926 C106.59599403 -0.08564028 128.09611515 1.10553162 146.8746419 19.28730202 C157.98340682 30.74429837 163.38025369 45.7193964 163.8121419 61.53730202 C163.33533795 74.61961021 161.08905852 85.66276292 153.3746419 96.53730202 C152.75331377 97.42159889 152.13198565 98.30589577 151.4918294 99.21698952 C140.99776932 113.1949076 127.92710112 119.28452912 111.3746419 123.53730202 C110.73051348 123.71511208 110.08638506 123.89292213 109.4227376 124.07612038 C106.72096788 124.6844936 104.04347865 124.69788065 101.28382158 124.77558327 C84.21976437 125.31527047 70.46809703 130.65545994 57.9371419 142.41230202 C48.36771973 152.76039237 43.63854534 164.80494031 41.3746419 178.53730202 C41.0446419 178.53730202 40.7146419 178.53730202 40.3746419 178.53730202 C40.3746419 160.38730202 40.3746419 142.23730202 40.3746419 123.53730202 C35.65409502 123.54890358 30.93354815 123.56050514 26.0699544 123.57245827 C23.0621405 123.5775736 20.05433205 123.58238799 17.0465169 123.58613014 C12.28250803 123.59208554 7.51851856 123.59909669 2.75452471 123.61274147 C-1.09044942 123.62368391 -4.93540271 123.62960269 -8.78039122 123.63217926 C-10.24024104 123.63401319 -11.70008986 123.63759397 -13.15993071 123.64303207 C-33.11310431 123.71433899 -49.53466776 120.82394165 -64.3753581 106.28730202 C-76.01417001 94.42489923 -82.0263745 79.12351206 -81.8753581 62.59980202 C-81.88309248 61.75739967 -81.89082685 60.91499733 -81.8987956 60.04706764 C-81.85148556 44.68313075 -75.91231071 29.84101545 -65.1878581 18.72480202 C-45.97515899 0.8356444 -25.05519922 -0.09026088 0 0 Z " fill="#FE7161" transform="translate(208.6253581047058,63.462697982788086)"/>
<path d="M0 0 C1.49072217 0.00186802 2.98144496 0.00329011 4.47216797 0.00428772 C8.37162 0.00808269 12.27103404 0.01788675 16.17047119 0.0289917 C20.86207799 0.04108254 25.55369759 0.04562246 30.24531555 0.05144501 C37.35107003 0.06110047 44.45674133 0.08027804 51.5625 0.09765625 C51.8925 16.26765625 52.2225 32.43765625 52.5625 49.09765625 C54.51768852 43.24413767 54.51768852 43.24413767 56.44921875 37.3828125 C58.91651314 30.53456613 62.75061326 25.50416777 67.5625 20.09765625 C68.09617187 19.46988281 68.62984375 18.84210938 69.1796875 18.1953125 C77.79360828 8.74571284 90.51684566 1.77433408 103.33154297 0.91113281 C123.75410674 0.1252749 138.5147808 2.63626849 154.5625 16.09765625 C155.45001953 16.71640625 155.45001953 16.71640625 156.35546875 17.34765625 C166.61564605 24.86082956 172.38159469 38.68551651 174.29736328 50.92626953 C176.35849756 67.80631396 173.35355026 81.46934862 164.5625 96.09765625 C163.88380859 97.33515625 163.88380859 97.33515625 163.19140625 98.59765625 C156.58170911 108.74203555 144.70330681 115.95639424 133.5625 120.09765625 C132.76070312 120.41605469 131.95890625 120.73445313 131.1328125 121.0625 C116.83306229 125.89590467 101.13035733 124.08542703 87.5625 118.09765625 C86.71429688 117.72511719 85.86609375 117.35257812 84.9921875 116.96875 C75.59729577 112.27130413 68.08753361 104.1803902 61.5625 96.09765625 C61.046875 95.47117187 60.53125 94.8446875 60 94.19921875 C58.36057543 91.80245131 57.45697563 89.52435369 56.5 86.78515625 C56.17902344 85.88152344 55.85804688 84.97789062 55.52734375 84.046875 C54.45134226 80.75788259 53.51318 77.42503627 52.5625 74.09765625 C52.2325 90.26765625 51.9025 106.43765625 51.5625 123.09765625 C34.40484267 123.25809149 34.40484267 123.25809149 27.0078125 123.29296875 C21.98940805 123.31674413 16.97129956 123.34465823 11.953125 123.39941406 C7.90061864 123.44334881 3.8484303 123.46689202 -0.20429611 123.47716522 C-1.73903779 123.48447226 -3.273765 123.49873704 -4.80836868 123.52057648 C-23.04918736 123.76949274 -38.61310491 119.29882247 -52.15625 106.44140625 C-64.50080078 93.7586486 -72.15410478 77.09352264 -71.98046875 59.21118164 C-71.19930255 42.34897686 -62.90022477 27.01627731 -50.92724609 15.45507812 C-36.08418745 1.93042948 -19.1263154 -0.07072126 0 0 Z " fill="#A159FD" transform="translate(197.4375,186.90234375)"/>
<path d="M0 0 C1.35194871 0.00113252 2.70389987 0.00048675 4.05584717 -0.00177002 C7.67283634 -0.00290235 11.28927832 0.02036179 14.906142 0.04852581 C18.70571426 0.0737911 22.50530359 0.07590101 26.3049469 0.08062744 C33.47629973 0.09298431 40.64740419 0.1257054 47.8186484 0.1660254 C55.9929288 0.21097227 64.16722202 0.23278733 72.34159553 0.25280714 C89.13485739 0.29444598 105.92787047 0.3646536 122.72094727 0.45410156 C122.72094727 0.78410156 122.72094727 1.11410156 122.72094727 1.45410156 C100.28094727 1.45410156 77.84094727 1.45410156 54.72094727 1.45410156 C54.72094727 41.71410156 54.72094727 81.97410156 54.72094727 123.45410156 C43.87219727 123.47472656 33.02344727 123.49535156 21.84594727 123.51660156 C18.43911621 123.52570557 15.03228516 123.53480957 11.5222168 123.54418945 C8.79939819 123.54711212 6.07657914 123.54965985 3.35375977 123.55175781 C2.65926727 123.55437119 1.96477478 123.55698456 1.24923706 123.55967712 C-18.72835043 123.63099798 -35.16752618 120.76115052 -50.02905273 106.20410156 C-61.66786464 94.34169878 -67.68006912 79.04031161 -67.52905273 62.51660156 C-67.53678711 61.67419922 -67.54452148 60.83179688 -67.55249023 59.96386719 C-67.50518019 44.5999303 -61.56600534 29.757815 -50.84155273 18.64160156 C-36.35625288 5.15417792 -19.59233521 -0.22960993 0 0 Z " fill="#F14E1E" transform="translate(194.279052734375,63.5458984375)"/>
<path d="M0 0 C1.52412156 0.00748877 3.04825294 0.01316917 4.5723877 0.01715088 C8.52459759 0.03220055 12.47619044 0.0712947 16.42816162 0.1159668 C20.48457499 0.15737446 24.54109108 0.17525753 28.59765625 0.1953125 C36.51329953 0.23781673 44.42844737 0.30580582 52.34375 0.390625 C52.41357631 9.45785844 52.46672568 18.52499785 52.49918652 27.59244251 C52.51477415 31.80383179 52.53588454 36.01503572 52.57006836 40.22631836 C52.60291031 44.29824812 52.62065478 48.37000075 52.62838173 52.44205284 C52.63388105 53.98762483 52.64461854 55.53318826 52.66094017 57.07868385 C52.78378136 69.20408242 51.24369949 79.61436316 45.65625 90.515625 C45.30667236 91.20011719 44.95709473 91.88460937 44.59692383 92.58984375 C37.41896989 106.15731911 25.58130861 114.99791987 11.34375 120.390625 C10.51746094 120.7103125 9.69117188 121.03 8.83984375 121.359375 C-3.04713296 125.27935511 -16.9922098 124.70856296 -28.65625 120.390625 C-29.48125 120.12378906 -30.30625 119.85695313 -31.15625 119.58203125 C-46.23495217 114.28092502 -57.70678827 102.52368041 -64.65625 88.390625 C-71.57996801 72.91959695 -73.19351478 57.72456376 -67.65625 41.390625 C-62.41977656 28.03836366 -53.82373276 17.14924255 -41.65625 9.390625 C-41.01945312 8.95363281 -40.38265625 8.51664062 -39.7265625 8.06640625 C-27.79652384 0.57074045 -13.66966248 -0.20194633 0 0 Z " fill="#0BCC82" transform="translate(196.65625,309.609375)"/>
<path d="M0 0 C1.39774815 1.16437189 2.79373597 2.33086202 4.1875 3.5 C4.77917969 3.9125 5.37085938 4.325 5.98046875 4.75 C16.24064605 12.26317331 22.00659469 26.08786026 23.92236328 38.32861328 C25.98349756 55.20865771 22.97855026 68.87169237 14.1875 83.5 C13.73503906 84.325 13.28257812 85.15 12.81640625 86 C6.20670911 96.1443793 -5.67169319 103.35873799 -16.8125 107.5 C-17.61429687 107.81839844 -18.41609375 108.13679688 -19.2421875 108.46484375 C-33.54193771 113.29824842 -49.24464267 111.48777078 -62.8125 105.5 C-63.66070312 105.12746094 -64.50890625 104.75492187 -65.3828125 104.37109375 C-74.77770423 99.67364788 -82.28746639 91.58273395 -88.8125 83.5 C-89.328125 82.87351562 -89.84375 82.24703125 -90.375 81.6015625 C-92.01442457 79.20479506 -92.91802437 76.92669744 -93.875 74.1875 C-94.19597656 73.28386719 -94.51695312 72.38023437 -94.84765625 71.44921875 C-95.16605469 70.47597656 -95.48445312 69.50273437 -95.8125 68.5 C-96.17601562 67.48292969 -96.53953125 66.46585937 -96.9140625 65.41796875 C-98.39949331 60.10165185 -98.14114363 54.60091983 -98.125 49.125 C-98.14111328 48.03960937 -98.15722656 46.95421875 -98.17382812 45.8359375 C-98.17788653 39.11522613 -97.34077752 33.71470595 -94.8125 27.5 C-94.51988281 26.60410156 -94.22726563 25.70820313 -93.92578125 24.78515625 C-91.45848686 17.93690988 -87.62438674 12.90651152 -82.8125 7.5 C-82.27882813 6.87222656 -81.74515625 6.24445313 -81.1953125 5.59765625 C-60.79511157 -16.78166865 -23.42459346 -17.99743041 0 0 Z " fill="#1ABBFB" transform="translate(347.8125,199.5)"/>
<path d="M0 0 C17.49 0 34.98 0 53 0 C49.55349402 1.72325299 46.80668828 2.61223881 43.125 3.5625 C27.19080341 8.38398356 14.82020022 19.43413088 7 34 C3.96138325 40.77772459 2.20536592 47.68850408 1 55 C0.67 55 0.34 55 0 55 C0 36.85 0 18.7 0 0 Z " fill="#333142" transform="translate(249,187)"/>
<path d="M0 0 C0.33 0 0.66 0 1 0 C1.06058594 0.77085937 1.12117188 1.54171875 1.18359375 2.3359375 C1.26738281 3.33882812 1.35117188 4.34171875 1.4375 5.375 C1.51871094 6.37273437 1.59992188 7.37046875 1.68359375 8.3984375 C1.84965626 10.97927613 1.84965626 10.97927613 3 13 C3.06285434 15.15550871 3.05753137 17.31311059 3.02172852 19.46923828 C3.01212097 20.13277313 3.00251343 20.79630798 2.99261475 21.47994995 C2.95958935 23.67684422 2.91927073 25.87354182 2.87890625 28.0703125 C2.85460858 29.59202375 2.83076484 31.11374232 2.80735779 32.63546753 C2.74448167 36.64357827 2.67542507 40.65155982 2.60510254 44.6595459 C2.5344509 48.74823109 2.46961498 52.83700799 2.40429688 56.92578125 C2.27523909 64.95062236 2.13965514 72.97533635 2 81 C-7.11906745 81.0464592 -16.23809379 81.081938 -25.35725403 81.10362434 C-29.59221596 81.11403573 -33.82709658 81.12814633 -38.06201172 81.15087891 C-42.15336907 81.17270199 -46.24464848 81.1845885 -50.33605957 81.18975449 C-51.89246852 81.19343331 -53.44887349 81.20061694 -55.00524902 81.21146011 C-70.02435959 81.31188082 -70.02435959 81.31188082 -77 79 C-77 78.67 -77 78.34 -77 78 C-75.54176788 77.9729957 -74.08339325 77.95360213 -72.625 77.9375 C-71.81289062 77.92589844 -71.00078125 77.91429687 -70.1640625 77.90234375 C-68 78 -68 78 -66 79 C-63.87583 79.09175034 -61.74870545 79.11750694 -59.62255859 79.11352539 C-58.64188667 79.11374443 -58.64188667 79.11374443 -57.6414032 79.1139679 C-55.47704773 79.11327036 -53.31277796 79.1054854 -51.1484375 79.09765625 C-49.64913988 79.09579151 -48.14984166 79.09436787 -46.65054321 79.09336853 C-42.70168378 79.08954779 -38.75286104 79.07972128 -34.80401611 79.06866455 C-30.77559913 79.05844091 -26.74717622 79.05386887 -22.71875 79.04882812 C-14.81248315 79.03809862 -6.90624614 79.0210275 1 79 C0.96970703 77.81486816 0.93941406 76.62973633 0.90820312 75.40869141 C0.27309188 50.26739338 -0.16581087 25.14968248 0 0 Z " fill="#8D66EA" transform="translate(247,229)"/>
<path d="M0 0 C3.63 0 7.26 0 11 0 C10.67 0.99 10.34 1.98 10 3 C15.49935998 5.30588347 19.7522029 6.38135306 25.79296875 6.43237305 C26.89199776 6.44766052 26.89199776 6.44766052 28.01322937 6.46325684 C30.4047331 6.49314809 32.79583479 6.50261561 35.1875 6.51171875 C36.85759792 6.52858323 38.52768329 6.54673584 40.19775391 6.56611633 C44.57061844 6.61343058 48.94343205 6.64335965 53.31646729 6.66955566 C57.78790337 6.69945541 62.25916431 6.74595319 66.73046875 6.79101562 C75.48689273 6.87683717 84.24333299 6.94427593 93 7 C93 7.66 93 8.32 93 9 C84.4369955 9.02326932 75.87400443 9.04098897 67.31097603 9.05181217 C63.33393352 9.05700928 59.35691279 9.06404866 55.37988281 9.07543945 C51.53490869 9.08638189 47.68995539 9.09230068 43.84496689 9.09487724 C42.38511706 9.09671117 40.92526825 9.10029195 39.4654274 9.10573006 C17.66964231 9.18362193 17.66964231 9.18362193 9.625 5.625 C8.64789063 5.20476562 7.67078125 4.78453125 6.6640625 4.3515625 C4 3 4 3 0 0 Z " fill="#E24E48" transform="translate(156,178)"/>
<path d="M0 0 C0.99 0 1.98 0 3 0 C2.91528359 8.95430321 2.82028156 17.90842311 2.71247292 26.86247826 C2.66271879 31.02107847 2.61638853 35.17965583 2.578125 39.33837891 C2.54100632 43.35854031 2.49457782 47.37850006 2.44193649 51.39848709 C2.42353268 52.92528336 2.40837417 54.45212262 2.39665604 55.97898483 C2.23675026 76.11071612 2.23675026 76.11071612 -2.125 85.125 C-2.47820312 85.87007813 -2.83140625 86.61515625 -3.1953125 87.3828125 C-3.46085938 87.91648437 -3.72640625 88.45015625 -4 89 C-4.66 89 -5.32 89 -6 89 C-5.80664062 88.45472656 -5.61328125 87.90945313 -5.4140625 87.34765625 C-5.02347656 86.21650391 -5.02347656 86.21650391 -4.625 85.0625 C-4.36976563 84.33160156 -4.11453125 83.60070312 -3.8515625 82.84765625 C-1.01850772 73.37381711 -0.65992235 64.4069428 -0.5859375 54.58984375 C-0.56719806 53.01085937 -0.54762264 51.43188471 -0.5272522 49.85292053 C-0.47621785 45.72504442 -0.43643981 41.59713595 -0.39910889 37.46911621 C-0.3588879 33.24560733 -0.3078787 29.02222974 -0.2578125 24.79882812 C-0.16139365 16.53264222 -0.07688152 8.26639061 0 0 Z " fill="#124E3C" transform="translate(249,310)"/>
<path d="M0 0 C48.84 0 97.68 0 148 0 C148 0.66 148 1.32 148 2 C148.99 2.495 148.99 2.495 150 3 C148.80302994 2.83734146 147.60605988 2.67468292 146.37281799 2.50709534 C139.93231546 1.79700253 133.507359 1.86838092 127.03491211 1.88647461 C125.64443972 1.88675718 124.25396718 1.88659739 122.86349487 1.8860321 C119.11413412 1.88574685 115.36480579 1.89159952 111.61545253 1.89860606 C107.68769291 1.90488496 103.75993244 1.90544697 99.83216858 1.90663147 C92.40573285 1.90973146 84.97931195 1.9179268 77.55288273 1.92798096 C69.09334488 1.93918358 60.63380631 1.94466298 52.17426288 1.94967639 C34.78283336 1.9601106 17.39141825 1.97768412 0 2 C0 1.34 0 0.68 0 0 Z " fill="#462927" transform="translate(176,63)"/>
<path d="M0 0 C0.33 0 0.66 0 1 0 C1.53251766 1.91345327 2.05059483 3.8309295 2.5625 5.75 C2.85253906 6.81734375 3.14257812 7.8846875 3.44140625 8.984375 C4.00364157 12.01965938 3.76615214 13.129528 3 16 C2.84889043 18.83388831 2.74368466 21.64860548 2.68359375 24.484375 C2.66281265 25.29996887 2.64203156 26.11556274 2.62062073 26.95587158 C2.55538703 29.55383105 2.49636232 32.15188913 2.4375 34.75 C2.39428986 36.514333 2.35067478 38.27865613 2.30664062 40.04296875 C2.19973255 44.36187884 2.09839173 48.68088784 2 53 C1.01 53.495 1.01 53.495 0 54 C0 36.18 0 18.36 0 0 Z " fill="#3D336C" transform="translate(249,256)"/>
<path d="M0 0 C9.18034698 -0.06986493 18.36060082 -0.12299496 27.54115677 -0.15543652 C31.80520344 -0.17101587 36.06906667 -0.19211068 40.33300781 -0.22631836 C44.45681278 -0.25919041 48.58044259 -0.27691096 52.70436859 -0.28463173 C54.26865135 -0.29012575 55.83292578 -0.30085244 57.39713287 -0.31719017 C78.75372192 -0.5311487 78.75372192 -0.5311487 87.25 5.1875 C87.8275 5.785625 88.405 6.38375 89 7 C85.49758836 6.56219854 82.43594095 5.83452985 79.1875 4.5 C70.23318812 1.04026175 60.1499088 1.79620579 50.68359375 1.68359375 C49.2167152 1.66298215 47.74984203 1.64198471 46.28297424 1.62062073 C42.45100298 1.56583373 38.61898204 1.51623611 34.78692627 1.46777344 C30.86506817 1.41723849 26.94328081 1.36172067 23.02148438 1.30664062 C15.34771643 1.19959086 7.67388902 1.09803138 0 1 C0 0.67 0 0.34 0 0 Z " fill="#EE796A" transform="translate(250,65)"/>
<path d="M0 0 C3.3 0 6.6 0 10 0 C2.39515159 7.60484841 -11.9496988 10.06736482 -22.4375 10.1875 C-30.97015425 10.06600547 -39.48536948 9.54061146 -48 9 C-48 8.67 -48 8.34 -48 8 C-35.13 7.67 -22.26 7.34 -9 7 C-9 6.34 -9 5.68 -9 5 C-4.545 4.505 -4.545 4.505 0 4 C0 2.68 0 1.36 0 0 Z " fill="#C87978" transform="translate(332,178)"/>
<path d="M0 0 C1.45823212 -0.0270043 2.91660675 -0.04639787 4.375 -0.0625 C5.18710938 -0.07410156 5.99921875 -0.08570313 6.8359375 -0.09765625 C9 0 9 0 11 1 C13.15411574 1.12077053 15.31191961 1.17746022 17.46923828 1.20532227 C18.46454056 1.22017166 18.46454056 1.22017166 19.47994995 1.23532104 C21.67670097 1.26694916 23.87347363 1.29169854 26.0703125 1.31640625 C27.59203661 1.33697466 29.113755 1.3579711 30.63546753 1.37937927 C34.6434465 1.43461171 38.65147713 1.48401578 42.6595459 1.53222656 C46.74833787 1.58243305 50.83705468 1.63812356 54.92578125 1.69335938 C62.95045732 1.80095528 70.9751962 1.90239704 79 2 C79 2.33 79 2.66 79 3 C69.88093255 3.0464592 60.76190621 3.081938 51.64274597 3.10362434 C47.40778404 3.11403573 43.17290342 3.12814633 38.93798828 3.15087891 C34.84663093 3.17270199 30.75535152 3.1845885 26.66394043 3.18975449 C25.10753148 3.19343331 23.55112651 3.20061694 21.99475098 3.21146011 C6.97564041 3.31188082 6.97564041 3.31188082 0 1 C0 0.67 0 0.34 0 0 Z " fill="#7A77DC" transform="translate(170,307)"/>
<path d="M0 0 C3.25696479 0.41755959 4.63443291 0.63443291 7 3 C6.67 3.33 6.34 3.66 6 4 C6.598125 4.103125 7.19625 4.20625 7.8125 4.3125 C10.31258286 5.09824033 11.37535082 5.96918853 13 8 C13 8.66 13 9.32 13 10 C14.98 9.67 16.96 9.34 19 9 C18.01 9.495 18.01 9.495 17 10 C17 10.99 17 11.98 17 13 C13.70050653 11.74387705 10.69696058 10.29249885 7.625 8.5625 C1.09613873 5.21893165 -5.83010026 4.17586356 -13 3 C-13 2.67 -13 2.34 -13 2 C-12.14535156 1.93941406 -11.29070312 1.87882813 -10.41015625 1.81640625 C-8.75306641 1.69072266 -8.75306641 1.69072266 -7.0625 1.5625 C-5.96035156 1.48128906 -4.85820312 1.40007812 -3.72265625 1.31640625 C-1.08890097 1.29581916 -1.08890097 1.29581916 0 0 Z " fill="#1D3D51" transform="translate(329,185)"/>
<path d="M0 0 C4.95501358 4.95501358 5.22178642 14.06988789 5.375 20.75 C5.04302671 33.2681594 2.9652538 44.36051847 -4 55 C-5.30339523 51.08981432 -4.34282308 49.89449113 -2.6875 46.1875 C3.47646363 32.25235013 4.15124172 20.74435746 0.65625 6.00390625 C0 3 0 3 0 0 Z " fill="#DB7368" transform="translate(367,104)"/>
<path d="M0 0 C0.495 1.485 0.495 1.485 1 3 C-1.83236982 7.24855473 -5.35887973 11.14342045 -10.3125 12.75 C-11.1478125 12.87375 -11.1478125 12.87375 -12 13 C-12 13.66 -12 14.32 -12 15 C-14.70255241 16.23642995 -17.40711187 17.46761941 -20.1171875 18.6875 C-21.75836189 19.43470135 -23.39366942 20.19606882 -25.0078125 21 C-29.5544236 23.19929095 -33.05961677 23.26002017 -38 23 C-38 22.67 -38 22.34 -38 22 C-36.90042969 21.72027344 -35.80085938 21.44054687 -34.66796875 21.15234375 C-21.34402191 17.60432391 -7.95914665 11.93871997 0 0 Z " fill="#553233" transform="translate(358,164)"/>
<path d="M0 0 C1.9375 0.625 1.9375 0.625 4 2 C4.75 5.125 4.75 5.125 5 8 C5.66 8 6.32 8 7 8 C7 10.31 7 12.62 7 15 C7.66 15 8.32 15 9 15 C9.05793591 19.43744539 9.09357467 23.87479389 9.125 28.3125 C9.14175781 29.57513672 9.15851563 30.83777344 9.17578125 32.13867188 C9.18222656 33.34716797 9.18867188 34.55566406 9.1953125 35.80078125 C9.20578613 36.91622314 9.21625977 38.03166504 9.22705078 39.1809082 C9 42 9 42 7 45 C7.02094727 44.38705078 7.04189453 43.77410156 7.06347656 43.14257812 C7.5169819 27.79228339 7.37241984 13.87873878 0 0 Z " fill="#194258" transform="translate(364,218)"/>
<path d="M0 0 C0.66 0 1.32 0 2 0 C2 0.66 2 1.32 2 2 C5.465 1.505 5.465 1.505 9 1 C9 1.99 9 2.98 9 4 C16.92 4 24.84 4 33 4 C29.15699243 6.56200505 25.95717257 6.34251769 21.5 6.3125 C20.69498047 6.30976074 19.88996094 6.30702148 19.06054688 6.30419922 C4.04225222 6.04225222 4.04225222 6.04225222 -1 1 C-0.67 0.67 -0.34 0.34 0 0 Z " fill="#26A87A" transform="translate(167,427)"/>
<path d="M0 0 C1.37589617 0.28740942 2.75067322 0.58017742 4.125 0.875 C4.89070313 1.03742188 5.65640625 1.19984375 6.4453125 1.3671875 C9 2 9 2 11.6875 3.05859375 C16.13759482 4.3233023 20.27446822 4.25244064 24.875 4.1875 C25.73480469 4.18685547 26.59460938 4.18621094 27.48046875 4.18554688 C32.73527205 4.1496643 37.79978922 3.75409089 43 3 C41.90600586 4.47949219 41.90600586 4.47949219 40 6 C37.06079102 6.35644531 37.06079102 6.35644531 33.50390625 6.328125 C32.22322266 6.32296875 30.94253906 6.3178125 29.62304688 6.3125 C28.956521 6.3021875 28.28999512 6.291875 27.60327148 6.28125 C25.57321689 6.25016411 23.54394068 6.24028339 21.51367188 6.234375 C10.73451047 6.1476648 10.73451047 6.1476648 7 5 C7 4.34 7 3.68 7 3 C4.69 2.67 2.38 2.34 0 2 C0 1.34 0 0.68 0 0 Z " fill="#174051" transform="translate(285,305)"/>
<path d="M0 0 C0.66 0 1.32 0 2 0 C2 0.66 2 1.32 2 2 C2.66 2 3.32 2 4 2 C4.77436153 3.66503034 5.54428115 5.33212662 6.3125 7 C6.74175781 7.928125 7.17101562 8.85625 7.61328125 9.8125 C8.29970703 11.3903125 8.29970703 11.3903125 9 13 C9.27416748 13.59683594 9.54833496 14.19367188 9.83081055 14.80859375 C12.15557503 20.2763628 12.36391044 25.11060538 12.1875 31 C12.17396484 31.87011719 12.16042969 32.74023438 12.14648438 33.63671875 C12.11151678 35.75808627 12.0577253 37.87912974 12 40 C11.67 40 11.34 40 11 40 C10.90203125 38.83984375 10.8040625 37.6796875 10.703125 36.484375 C9.46268669 23.05709857 6.4471041 11.94299612 0 0 Z " fill="#593533" transform="translate(361,90)"/>
<path d="M0 0 C0.66 0.33 1.32 0.66 2 1 C0.6875 3 0.6875 3 -1 5 C-1.99 5 -2.98 5 -4 5 C-4.0825 5.5775 -4.165 6.155 -4.25 6.75 C-5.21811062 9.65433187 -6.75441157 10.95255172 -9 13 C-11.81924806 15.70647813 -14.2423535 18.48470699 -16 22 C-16.66 22 -17.32 22 -18 22 C-14.61140893 12.65272705 -7.48850082 6.23192699 0 0 Z " fill="#8F5BD8" transform="translate(152,198)"/>
<path d="M0 0 C1.11375 0.309375 2.2275 0.61875 3.375 0.9375 C8.20509012 2.15800664 13.04290069 2.61399637 18 3 C18 3.66 18 4.32 18 5 C15.91957837 5.39083065 13.83547661 5.7621087 11.75 6.125 C10.00976562 6.43824219 10.00976562 6.43824219 8.234375 6.7578125 C4.96445684 7.00266144 3.67507166 6.78779541 1 5 C1.33 4.34 1.66 3.68 2 3 C1.34 3 0.68 3 0 3 C0 2.01 0 1.02 0 0 Z " fill="#492E3F" transform="translate(164,183)"/>
<path d="M0 0 C0.66 0 1.32 0 2 0 C2.33 0.99 2.66 1.98 3 3 C4.32 2.67 5.64 2.34 7 2 C7.33 2.66 7.66 3.32 8 4 C8.66 4 9.32 4 10 4 C9.62875 5.0725 9.2575 6.145 8.875 7.25 C7.68508268 10.81629347 7.68508268 10.81629347 8.875 13.4375 C9.431875 14.2109375 9.431875 14.2109375 10 15 C5.81340142 11.17225273 2.62179138 7.05392126 0 2 C0 1.34 0 0.68 0 0 Z " fill="#DD5127" transform="translate(133,152)"/>
<path d="M0 0 C0.60328125 0.19851563 1.2065625 0.39703125 1.828125 0.6015625 C0.89505079 2.04193919 -0.04352577 3.47875235 -0.984375 4.9140625 C-1.50644531 5.71457031 -2.02851563 6.51507813 -2.56640625 7.33984375 C-3.97577349 9.3253027 -5.39284157 10.9507477 -7.171875 12.6015625 C-7.171875 11.2815625 -7.171875 9.9615625 -7.171875 8.6015625 C-7.275 7.7765625 -7.378125 6.9515625 -7.484375 6.1015625 C-7.171875 3.6015625 -7.171875 3.6015625 -4.921875 1.2265625 C-2.171875 -0.3984375 -2.171875 -0.3984375 0 0 Z " fill="#1F3835" transform="translate(139.171875,331.3984375)"/>
<path d="M0 0 C-4.3130983 2.31058837 -7.8783505 3.12898493 -12.765625 3.09765625 C-13.65507812 3.09443359 -14.54453125 3.09121094 -15.4609375 3.08789062 C-16.38132812 3.07951172 -17.30171875 3.07113281 -18.25 3.0625 C-19.18585938 3.05798828 -20.12171875 3.05347656 -21.0859375 3.04882812 C-23.39069041 3.03706918 -25.69531227 3.02063426 -28 3 C-28 2.67 -28 2.34 -28 2 C-18.61304896 0.66581407 -9.50904899 -0.32417212 0 0 Z " fill="#27A3D4" transform="translate(328,307)"/>
<path d="M0 0 C0.5625 1.9375 0.5625 1.9375 1 4 C0.67 4.33 0.34 4.66 0 5 C-0.20604085 6.32781878 -0.3662959 7.66295895 -0.5 9 C-0.88888889 12.88888889 -0.88888889 12.88888889 -2 14 C-2.15740605 15.70563778 -2.25093392 17.41727244 -2.31640625 19.12890625 C-2.35830078 20.16337891 -2.40019531 21.19785156 -2.44335938 22.26367188 C-2.48267578 23.35228516 -2.52199219 24.44089844 -2.5625 25.5625 C-2.60568359 26.65498047 -2.64886719 27.74746094 -2.69335938 28.87304688 C-2.79982068 31.58189564 -2.90183516 34.29083992 -3 37 C-3.33 37 -3.66 37 -4 37 C-4.08802152 33.0209757 -4.14073233 29.04220612 -4.1875 25.0625 C-4.21263672 23.94552734 -4.23777344 22.82855469 -4.26367188 21.67773438 C-4.32397731 14.82301682 -3.62501268 9.33141738 -1 3 C-0.67 2.01 -0.34 1.02 0 0 Z " fill="#30A3E5" transform="translate(254,224)"/>
<path d="M0 0 C0.66 0.33 1.32 0.66 2 1 C1.38125 1.391875 0.7625 1.78375 0.125 2.1875 C-2.16002722 3.83695666 -2.16002722 3.83695666 -2.875 6.375 C-4.49623517 10.15788207 -6.65631452 11.61165323 -10 14 C-10.99 14 -11.98 14 -13 14 C-11.54238919 10.63163511 -9.6759774 8.43494248 -7.0625 5.875 C-6.37285156 5.19179687 -5.68320312 4.50859375 -4.97265625 3.8046875 C-3 2 -3 2 0 0 Z " fill="#2AAAE0" transform="translate(275,198)"/>
<path d="M0 0 C0.33 0 0.66 0 1 0 C0.83628906 1.1034375 0.67257813 2.206875 0.50390625 3.34375 C-0.12840414 8.40223315 -0.1105947 13.40936048 -0.0625 18.5 C-0.05798828 19.4178125 -0.05347656 20.335625 -0.04882812 21.28125 C-0.03716326 23.52090391 -0.02079614 25.76041545 0 28 C-0.99 28 -1.98 28 -3 28 C-3.08736736 24.27098186 -3.14051482 20.54222835 -3.1875 16.8125 C-3.21263672 15.75740234 -3.23777344 14.70230469 -3.26367188 13.61523438 C-3.27333984 12.59365234 -3.28300781 11.57207031 -3.29296875 10.51953125 C-3.31653442 9.11344604 -3.31653442 9.11344604 -3.34057617 7.67895508 C-2.93513955 4.48981092 -1.85974809 2.59541444 0 0 Z " fill="#33294E" transform="translate(127,232)"/>
<path d="M0 0 C0.66 0.33 1.32 0.66 2 1 C1.38511719 2.21236328 1.38511719 2.21236328 0.7578125 3.44921875 C0.21898437 4.51785156 -0.31984375 5.58648437 -0.875 6.6875 C-1.40867188 7.74324219 -1.94234375 8.79898438 -2.4921875 9.88671875 C-4.97540776 15.01398961 -6.33088558 19.31252744 -7 25 C-7.33 25 -7.66 25 -8 25 C-8 21.7 -8 18.4 -8 15 C-7.34 15 -6.68 15 -6 15 C-6 13.02 -6 11.04 -6 9 C-5.34 9 -4.68 9 -4 9 C-3.855625 8.4225 -3.71125 7.845 -3.5625 7.25 C-3.2840625 6.13625 -3.2840625 6.13625 -3 5 C-2.855625 4.278125 -2.71125 3.55625 -2.5625 2.8125 C-2.376875 2.214375 -2.19125 1.61625 -2 1 C-1.34 0.67 -0.68 0.34 0 0 Z " fill="#593028" transform="translate(135,91)"/>
<path d="M0 0 C0.33 0.66 0.66 1.32 1 2 C0.505 2.5775 0.01 3.155 -0.5 3.75 C-2.36980013 6.10400629 -2.36980013 6.10400629 -2 10 C-5.64793184 11.27253436 -9.1936543 12.32829194 -13 13 C-10.37127258 10.29395707 -7.74727437 7.74733604 -4.8125 5.375 C-1.88119654 3.12277665 -1.88119654 3.12277665 0 0 Z " fill="#194037" transform="translate(234,411)"/>
<path d="M0 0 C3.25696479 0.41755959 4.63443291 0.63443291 7 3 C6 4 6 4 3.26953125 4.1328125 C2.12871094 4.13023437 0.98789062 4.12765625 -0.1875 4.125 C-1.31542969 4.12757813 -2.44335938 4.13015625 -3.60546875 4.1328125 C-6.82415367 4.00688006 -9.83980072 3.60422627 -13 3 C-13 2.67 -13 2.34 -13 2 C-12.14535156 1.93941406 -11.29070312 1.87882813 -10.41015625 1.81640625 C-8.75306641 1.69072266 -8.75306641 1.69072266 -7.0625 1.5625 C-5.96035156 1.48128906 -4.85820312 1.40007812 -3.72265625 1.31640625 C-1.08890097 1.29581916 -1.08890097 1.29581916 0 0 Z " fill="#2A3C49" transform="translate(329,185)"/>
<path d="M0 0 C3.63 0 7.26 0 11 0 C10.67 0.99 10.34 1.98 10 3 C14.95 4.98 14.95 4.98 20 7 C15.37596714 8.15600822 14.24946799 7.59851857 10 5.75 C8.96875 5.31171875 7.9375 4.8734375 6.875 4.421875 C4 3 4 3 0 0 Z " fill="#CC4F2F" transform="translate(156,178)"/>
<path d="M0 0 C0.8971875 0.309375 0.8971875 0.309375 1.8125 0.625 C0.76449219 1.56472656 0.76449219 1.56472656 -0.3046875 2.5234375 C-1.21476563 3.34070313 -2.12484375 4.15796875 -3.0625 5 C-3.96742188 5.81210938 -4.87234375 6.62421875 -5.8046875 7.4609375 C-7.29646183 8.81576205 -8.76255435 10.20005435 -10.1875 11.625 C-10.1875 9.645 -10.1875 7.665 -10.1875 5.625 C-9.5275 5.625 -8.8675 5.625 -8.1875 5.625 C-8.1875 4.965 -8.1875 4.305 -8.1875 3.625 C-7.1975 3.625 -6.2075 3.625 -5.1875 3.625 C-5.1875 2.965 -5.1875 2.305 -5.1875 1.625 C-2.1875 -0.375 -2.1875 -0.375 0 0 Z " fill="#392B54" transform="translate(149.1875,199.375)"/>
<path d="M0 0 C-8.26986507 6.86356822 -8.26986507 6.86356822 -14 7 C-14.66 6.67 -15.32 6.34 -16 6 C-4.57142857 -2.28571429 -4.57142857 -2.28571429 0 0 Z " fill="#925BDC" transform="translate(170,191)"/>
<path d="M0 0 C3.96 0.33 7.92 0.66 12 1 C12 1.33 12 1.66 12 2 C6.06 3.32 0.12 4.64 -6 6 C-4.73577236 3.47154472 -3.47154472 3.23577236 -1 2 C-0.67 1.34 -0.34 0.68 0 0 Z " fill="#1D3F3D" transform="translate(168,309)"/>
<path d="M0 0 C3 1 3 1 4 3 C4.99 2.01 5.98 1.02 7 0 C7.6875 2.8125 7.6875 2.8125 8 6 C6.51953125 7.69921875 6.51953125 7.69921875 5 9 C4.16396622 7.68921847 3.3312426 6.37632511 2.5 5.0625 C2.0359375 4.33160156 1.571875 3.60070312 1.09375 2.84765625 C0 1 0 1 0 0 Z " fill="#23394A" transform="translate(358,208)"/>
<path d="M0 0 C0 0.66 0 1.32 0 2 C0.66 2.33 1.32 2.66 2 3 C0.35 4.98 -1.3 6.96 -3 9 C-5 6 -5 6 -4.75 3.375 C-4.5025 2.59125 -4.255 1.8075 -4 1 C-2 0 -2 0 0 0 Z " fill="#ED7264" transform="translate(358,160)"/>
<path d="M0 0 C3.59634744 3.49359465 6.83451967 7.11098131 10 11 C8.35 10.67 6.7 10.34 5 10 C5 9.01 5 8.02 5 7 C3.35 7.33 1.7 7.66 0 8 C0.33 7.01 0.66 6.02 1 5 C0.60602665 2.36195411 0.60602665 2.36195411 0 0 Z " fill="#4C2E2B" transform="translate(136,160)"/>
<path d="M0 0 C4.18423892 3.50897269 8.19588166 7.08060535 12 11 C11.67 11.66 11.34 12.32 11 13 C10.566875 12.525625 10.13375 12.05125 9.6875 11.5625 C7.97690387 9.76313043 7.97690387 9.76313043 5 9 C4.67 8.01 4.34 7.02 4 6 C1.99983534 4.79117904 1.99983534 4.79117904 0 4 C0 2.68 0 1.36 0 0 Z " fill="#55555C" transform="translate(464,26)"/>
<path d="M0 0 C6.6 0 13.2 0 20 0 C20 0.66 20 1.32 20 2 C20.66 2.33 21.32 2.66 22 3 C14.74 2.34 7.48 1.68 0 1 C0 0.67 0 0.34 0 0 Z " fill="#4D2E31" transform="translate(304,63)"/>
<path d="M0 0 C0.50789062 0.26554687 1.01578125 0.53109375 1.5390625 0.8046875 C5.62218902 2.89977489 9.5873062 4.67619186 14 6 C9.91556885 7.53166168 6.20544343 6.63081652 2 6 C1.34 4.02 0.68 2.04 0 0 Z " fill="#184336" transform="translate(154,423)"/>
<path d="M0 0 C0.66 0.33 1.32 0.66 2 1 C1.21086057 3.08429193 0.41859037 5.16739869 -0.375 7.25 C-0.81585938 8.41015625 -1.25671875 9.5703125 -1.7109375 10.765625 C-2.70590855 13.26209781 -3.74410046 15.62904947 -5 18 C-4.71311275 10.99995111 -3.49595688 6.08973134 0 0 Z " fill="#19425A" transform="translate(255,218)"/>
<path d="M0 0 C0.66 0.99 1.32 1.98 2 3 C1.34 3 0.68 3 0 3 C-0.103125 3.721875 -0.20625 4.44375 -0.3125 5.1875 C-1.05986932 8.24491993 -2.28045189 10.38329635 -4 13 C-4.99 12.67 -5.98 12.34 -7 12 C-6.57847656 11.30132812 -6.15695312 10.60265625 -5.72265625 9.8828125 C-5.17480469 8.97273437 -4.62695312 8.06265625 -4.0625 7.125 C-3.51722656 6.22007812 -2.97195313 5.31515625 -2.41015625 4.3828125 C-1.56101983 2.94798364 -0.74562276 1.49124552 0 0 Z " fill="#573535" transform="translate(366,151)"/>
<path d="M0 0 C-3.15314785 2.10209857 -3.86103081 2.2434761 -7.44921875 2.1953125 C-8.72055664 2.18564453 -8.72055664 2.18564453 -10.01757812 2.17578125 C-10.89865234 2.15902344 -11.77972656 2.14226562 -12.6875 2.125 C-13.58017578 2.11597656 -14.47285156 2.10695313 -15.39257812 2.09765625 C-17.59532314 2.07409748 -19.79752588 2.04120329 -22 2 C-22 1.67 -22 1.34 -22 1 C-21.03578125 0.93941406 -20.0715625 0.87882812 -19.078125 0.81640625 C-17.81484375 0.73261719 -16.5515625 0.64882813 -15.25 0.5625 C-13.99703125 0.48128906 -12.7440625 0.40007812 -11.453125 0.31640625 C-1.77464789 -0.57042254 -1.77464789 -0.57042254 0 0 Z " fill="#1A445B" transform="translate(328,309)"/>
<path d="M0 0 C1.65 0 3.3 0 5 0 C3.49776416 4.20626034 0.71449966 5.73900021 -3 8 C-3 6.35 -3 4.7 -3 3 C-2.01 2.67 -1.02 2.34 0 2 C0.66 2.33 1.32 2.66 2 3 C2 2.34 2 1.68 2 1 C1.34 0.67 0.68 0.34 0 0 Z " fill="#27ADDF" transform="translate(350,290)"/>
<path d="M0 0 C1.39211215 4.17633644 -0.0464421 5.78960515 -1.9375 9.6875 C-2.50339844 10.86699219 -3.06929687 12.04648437 -3.65234375 13.26171875 C-4.09707031 14.16535156 -4.54179687 15.06898438 -5 16 C-6.25955231 12.22134307 -5.48087189 10.96588214 -4.0625 7.3125 C-3.68222656 6.31863281 -3.30195313 5.32476562 -2.91015625 4.30078125 C-2.60980469 3.54152344 -2.30945313 2.78226562 -2 2 C-1.34 2 -0.68 2 0 2 C0 1.34 0 0.68 0 0 Z " fill="#22B882" transform="translate(246,387)"/>
<path d="M0 0 C1.98 0 3.96 0 6 0 C3.65890118 1.56073255 1.43666597 2.86373867 -1.0625 4.125 C-2.10083984 4.65480469 -2.10083984 4.65480469 -3.16015625 5.1953125 C-5 6 -5 6 -7 6 C-6.625 4.0625 -6.625 4.0625 -6 2 C-3.50907189 0.75453595 -2.58919267 1.2232422 0 2 C0 1.34 0 0.68 0 0 Z " fill="#482D2C" transform="translate(162,67)"/>
<path d="M0 0 C0.66 0.33 1.32 0.66 2 1 C-1.0657052 5.65987191 -3.58657319 6.85485202 -9 8 C-6.37347975 4.40069448 -4.06036357 1.92333011 0 0 Z " fill="#1EB27C" transform="translate(155,319)"/>
<path d="M0 0 C0.66 0 1.32 0 2 0 C2 0.66 2 1.32 2 2 C5.465 1.505 5.465 1.505 9 1 C9 1.99 9 2.98 9 4 C9.66 4.33 10.32 4.66 11 5 C2.42857143 4.28571429 2.42857143 4.28571429 -1 1 C-0.67 0.67 -0.34 0.34 0 0 Z " fill="#1CB77E" transform="translate(167,427)"/>
<path d="M0 0 C0 0.66 0 1.32 0 2 C-1.65071396 3.02611949 -3.31970006 4.02308143 -5 5 C-6.75149165 6.58245275 -6.75149165 6.58245275 -8 8 C-8.66 7.34 -9.32 6.68 -10 6 C-4.4 0 -4.4 0 0 0 Z " fill="#C84F2E" transform="translate(159,72)"/>
<path d="M0 0 C0 0.66 0 1.32 0 2 C-0.99 2.495 -0.99 2.495 -2 3 C-2 3.99 -2 4.98 -2 6 C-5.3 6.33 -8.6 6.66 -12 7 C-9 5 -9 5 -5 5 C-4.814375 4.0409375 -4.814375 4.0409375 -4.625 3.0625 C-4.41875 2.381875 -4.2125 1.70125 -4 1 C-2 0 -2 0 0 0 Z " fill="#1F3533" transform="translate(221,424)"/>
<path d="M0 0 C5.68046944 0.94055703 9.72424312 1.86217076 14 6 C8.94744036 5.36843005 4.70406799 3.86540627 0 2 C0 1.34 0 0.68 0 0 Z " fill="#CF6E65" transform="translate(325,66)"/>
<path d="M0 0 C2.31 0 4.62 0 7 0 C7 0.66 7 1.32 7 2 C7.66 2.33 8.32 2.66 9 3 C9 3.99 9 4.98 9 6 C5.06326356 4.68775452 2.77280706 3.08089673 0 0 Z " fill="#1BB77D" transform="translate(151,420)"/>
<path d="M0 0 C5.77807024 -0.2358396 10.51324804 0.13216954 16 2 C16 2.33 16 2.66 16 3 C10.21101581 3.20674944 5.57067277 2.59162079 0 1 C0 0.67 0 0.34 0 0 Z " fill="#815BCF" transform="translate(170,307)"/>
<path d="M0 0 C0.99 0 1.98 0 3 0 C3.33 0.99 3.66 1.98 4 3 C4.66 3.33 5.32 3.66 6 4 C6.73075648 6.3140622 7.40138258 8.64828869 8 11 C2.19794344 5.35475578 2.19794344 5.35475578 0 2 C0 1.34 0 0.68 0 0 Z " fill="#2CA0D1" transform="translate(256,277)"/>
<path d="M0 0 C-1.90401138 1.90401138 -3.33425686 2.93520439 -6.046875 3.19921875 C-8.03233273 3.1886578 -10.0169914 3.09915043 -12 3 C-4.82142857 -1.78571429 -4.82142857 -1.78571429 0 0 Z " fill="#2DA2D6" transform="translate(297,190)"/>
<path d="M0 0 C0.66 0.33 1.32 0.66 2 1 C2.40729228 3.32156597 2.74438677 5.6568787 3 8 C1.02 6.35 -0.96 4.7 -3 3 C-2.01 2.01 -1.02 1.02 0 0 Z " fill="#452F37" transform="translate(358,81)"/>
<path d="M0 0 C0 0.66 0 1.32 0 2 C-0.99 2.33 -1.98 2.66 -3 3 C-3.99 4.485 -3.99 4.485 -5 6 C-5.66 6 -6.32 6 -7 6 C-7 5.34 -7 4.68 -7 4 C-7.99 3.67 -8.98 3.34 -10 3 C-8.70990357 2.49596232 -7.41786211 1.99690074 -6.125 1.5 C-5.04605469 1.08234375 -5.04605469 1.08234375 -3.9453125 0.65625 C-2 0 -2 0 0 0 Z " fill="#1F4258" transform="translate(338,304)"/>
<path d="M0 0 C1.8125 0.1875 1.8125 0.1875 4 1 C6.14197494 3.90696599 7 5.35521088 7 9 C4.03595495 6.19195732 1.55500981 3.81684226 0 0 Z " fill="#935DE3" transform="translate(137,282)"/>
<path d="M0 0 C3.08980073 1.54490037 3.68367403 3.88868408 5 7 C5.1875 9.875 5.1875 9.875 5 12 C1.94063363 8.24532309 0 4.91886939 0 0 Z " fill="#965FE0" transform="translate(130,267)"/>
<path d="M0 0 C2.91227269 3.28804981 4.49701212 5.59885603 5 10 C4.34 9.67 3.68 9.34 3 9 C3 8.01 3 7.02 3 6 C1.68 5.67 0.36 5.34 -1 5 C-0.67 3.35 -0.34 1.7 0 0 Z " fill="#27A4D4" transform="translate(364,219)"/>
<path d="M0 0 C5.75 1.625 5.75 1.625 8 5 C5.69 4.67 3.38 4.34 1 4 C0.67 2.68 0.34 1.36 0 0 Z " fill="#3D2E33" transform="translate(142,170)"/>
<path d="M0 0 C0.515625 0.2475 1.03125 0.495 1.5625 0.75 C-4.8375 4.81153846 -4.8375 4.81153846 -7.875 4.5 C-8.390625 4.2525 -8.90625 4.005 -9.4375 3.75 C-3.0375 -0.31153846 -3.0375 -0.31153846 0 0 Z " fill="#21AE7A" transform="translate(166.4375,314.25)"/>
<path d="M0 0 C1.32 0 2.64 0 4 0 C4 0.66 4 1.32 4 2 C5.98 1.67 7.96 1.34 10 1 C9.01 1.495 9.01 1.495 8 2 C8 2.99 8 3.98 8 5 C4.62496331 3.8141763 2.35277269 2.72426311 0 0 Z " fill="#214960" transform="translate(338,193)"/>
<path d="M0 0 C-4.36200187 2.44697666 -8.02693484 3.50269348 -13 4 C-11.72807637 1.45615274 -10.80051531 1.30631844 -8.1875 0.3125 C-7.50042969 0.04050781 -6.81335938 -0.23148437 -6.10546875 -0.51171875 C-3.70623504 -1.06812731 -2.3105636 -0.77364938 0 0 Z " fill="#C14F32" transform="translate(172,68)"/>
<path d="M0 0 C0.66 0 1.32 0 2 0 C1.67 1.32 1.34 2.64 1 4 C0.34 4 -0.32 4 -1 4 C-1 4.66 -1 5.32 -1 6 C-2.32 6.33 -3.64 6.66 -5 7 C-4.21654285 5.82780457 -3.42297164 4.66236332 -2.625 3.5 C-2.18414062 2.8503125 -1.74328125 2.200625 -1.2890625 1.53125 C-0.65097656 0.77328125 -0.65097656 0.77328125 0 0 Z " fill="#184357" transform="translate(357,288)"/>
<path d="M0 0 C1.70884005 1.62339805 3.37446717 3.29319053 5 5 C5 5.66 5 6.32 5 7 C4.34 7 3.68 7 3 7 C3 6.34 3 5.68 3 5 C1.68 5 0.36 5 -1 5 C-0.67 3.35 -0.34 1.7 0 0 Z " fill="#1E3B4E" transform="translate(257,280)"/>
<path d="M0 0 C1.98 1.65 3.96 3.3 6 5 C5.34 5.66 4.68 6.32 4 7 C4 6.34 4 5.68 4 5 C2.68 5 1.36 5 0 5 C0 3.35 0 1.7 0 0 Z " fill="#1C4053" transform="translate(262,287)"/>
<path d="M0 0 C1 2 1 2 0.0625 5.125 C-0.288125 6.07375 -0.63875 7.0225 -1 8 C-1.99 8 -2.98 8 -4 8 C-2.87548273 5.0280615 -1.77706209 2.66559313 0 0 Z " fill="#20445A" transform="translate(363,280)"/>
<path d="M0 0 C0.99 0.66 1.98 1.32 3 2 C1.35 3.65 -0.3 5.3 -2 7 C-2.33 5.35 -2.66 3.7 -3 2 C-2.01 2 -1.02 2 0 2 C0 1.34 0 0.68 0 0 Z " fill="#213949" transform="translate(259,210)"/>
<path d="M0 0 C0.99 0.33 1.98 0.66 3 1 C4.1875 3.5625 4.1875 3.5625 5 6 C3.35 5.67 1.7 5.34 0 5 C0 3.35 0 1.7 0 0 Z " fill="#27A5D7" transform="translate(356,208)"/>
<path d="M0 0 C-0.33 1.32 -0.66 2.64 -1 4 C-3.31 4.33 -5.62 4.66 -8 5 C-3.16129032 0 -3.16129032 0 0 0 Z " fill="#2EA4D8" transform="translate(285,193)"/>
<path d="M0 0 C0.66 0.33 1.32 0.66 2 1 C1.67 1.99 1.34 2.98 1 4 C0.34 4 -0.32 4 -1 4 C-1 4.66 -1 5.32 -1 6 C-2.32 5.67 -3.64 5.34 -5 5 C-3.35 3.35 -1.7 1.7 0 0 Z " fill="#C84F31" transform="translate(147,79)"/>
<path d="M0 0 C1.32 0 2.64 0 4 0 C3.6875 1.9375 3.6875 1.9375 3 4 C2.01 4.33 1.02 4.66 0 5 C-0.33 4.01 -0.66 3.02 -1 2 C-0.67 1.34 -0.34 0.68 0 0 Z " fill="#20B7F0" transform="translate(342,296)"/>
<path d="M0 0 C0.99 0 1.98 0 3 0 C1.25 5.75 1.25 5.75 -1 8 C-0.67 5.36 -0.34 2.72 0 0 Z " fill="#29B0E5" transform="translate(364,272)"/>
<path d="M0 0 C3.71888239 0.50712033 6.73454239 1.11608215 10 3 C10 3.66 10 4.32 10 5 C5 3 5 3 0 1 C0 0.67 0 0.34 0 0 Z " fill="#513233" transform="translate(331,67)"/>
</svg>
