<?xml version="1.0" encoding="UTF-8"?>
<svg version="1.1" xmlns="http://www.w3.org/2000/svg" width="474" height="474">
<path d="M0 0 C0.92675537 0.01957764 1.85351074 0.03915527 2.80834961 0.05932617 C9.94540449 0.3813509 14.31612402 1.61877522 19.4375 6.75 C20.3965625 7.59691406 21.355625 8.44382812 22.34375 9.31640625 C28.27310247 14.55421637 33.89671296 20.10540431 39.4375 25.75 C40.30375 26.595625 41.17 27.44125 42.0625 28.3125 C43.945731 30.24528971 45.69565513 32.19426938 47.4375 34.25 C52.06266566 39.69481528 57.21757251 44.35029025 62.64453125 48.98046875 C63.23621094 49.56441406 63.82789063 50.14835937 64.4375 50.75 C64.4375 51.41 64.4375 52.07 64.4375 52.75 C65.00301449 52.99075256 65.56852898 53.23150513 66.15118027 53.47955322 C68.90854753 55.01174852 70.78561713 56.84627386 73.01861572 59.07714844 C74.38995667 60.44002991 74.38995667 60.44002991 75.78900146 61.83044434 C76.79465634 62.83998761 77.80020706 63.84963465 78.80566406 64.859375 C79.86986578 65.92086623 80.93449242 66.98193161 81.99951172 68.04260254 C84.88817703 70.92215072 87.77048099 73.80798872 90.65141773 76.69526672 C93.6646651 79.71357491 96.68278593 82.72700349 99.70013428 85.74121094 C104.76430643 90.80174481 109.8242472 95.86648089 114.88183594 100.93359375 C120.73574654 106.79840037 126.59684336 112.65595125 132.46170259 118.50980759 C137.49302311 123.53206532 142.52045207 128.55819362 147.54462218 133.58760452 C150.54721368 136.59331977 153.55115369 139.59765376 156.55860138 142.59851074 C159.3833675 145.41751826 162.20323193 148.24133734 165.01931763 151.0690155 C166.05605924 152.10841118 167.09452425 153.14609099 168.13478851 154.18196106 C169.5492375 155.59098301 170.9569826 157.00672535 172.36431885 158.42285156 C173.15555271 159.21483948 173.94678658 160.00682739 174.76199722 160.82281494 C176.4375 162.75 176.4375 162.75 176.4375 164.75 C177.30375 165.0903125 177.30375 165.0903125 178.1875 165.4375 C181.01664534 167.08783478 182.42024596 169.18258577 184.4375 171.75 C185.675 172.74 185.675 172.74 186.9375 173.75 C189.4375 175.75 189.4375 175.75 191.375 178.1875 C193.77153549 181.16501379 196.48008417 183.33578299 199.4375 185.75 C201.11525892 187.40550009 202.78065144 189.07357273 204.4375 190.75 C205.31148438 191.61238281 206.18546875 192.47476563 207.0859375 193.36328125 C211.79376694 198.0238975 216.37734331 202.71291767 220.66796875 207.765625 C223.51956687 210.96344364 226.62254523 213.90394985 229.71484375 216.8671875 C231.4375 218.75 231.4375 218.75 231.4375 220.75 C232.0975 220.75 232.7575 220.75 233.4375 220.75 C237.47745015 226.6167802 238.11258303 231.14081708 238.0625 238.1875 C238.11083984 239.54198242 238.11083984 239.54198242 238.16015625 240.92382812 C238.17045157 248.03274324 236.17144764 251.59953011 231.4375 256.75 C230.54538818 257.79885376 230.54538818 257.79885376 229.63525391 258.86889648 C222.05581508 267.61093323 213.64989206 275.61157759 205.4375 283.75 C202.4346447 286.72630933 199.43509729 289.70589625 196.4375 292.6875 C195.74906006 293.3676416 195.06062012 294.0477832 194.35131836 294.74853516 C193.40397827 295.69092041 193.40397827 295.69092041 192.4375 296.65234375 C191.880625 297.20398193 191.32375 297.75562012 190.75 298.32397461 C189.32957489 299.7352981 189.32957489 299.7352981 188.4375 301.75 C187.7775 301.75 187.1175 301.75 186.4375 301.75 C186.4375 302.41 186.4375 303.07 186.4375 303.75 C185.7775 303.75 185.1175 303.75 184.4375 303.75 C184.19 304.36875 183.9425 304.9875 183.6875 305.625 C182.20009631 308.15358627 181.00071991 308.46839004 178.4375 309.75 C177.73598848 311.0653341 177.07224075 312.40117592 176.4375 313.75 C174.4375 316 174.4375 316 172.4375 317.75 C171.7775 317.75 171.1175 317.75 170.4375 317.75 C170.4375 318.41 170.4375 319.07 170.4375 319.75 C169.7775 319.75 169.1175 319.75 168.4375 319.75 C168.4375 320.41 168.4375 321.07 168.4375 321.75 C167.7775 321.75 167.1175 321.75 166.4375 321.75 C166.17926453 322.34584396 165.92102905 322.94168793 165.65496826 323.55558777 C164.33243003 325.93938221 163.06033634 327.14486635 160.95800781 328.8605957 C155.72982145 333.29160913 150.93860007 338.124017 146.109375 342.98046875 C145.09678202 343.99498517 144.08395796 345.00927101 143.07092285 346.02334595 C140.90443842 348.19297094 138.73951234 350.36413439 136.57580566 352.53652954 C133.14805192 355.97790468 129.71639861 359.41537386 126.28417969 362.85229492 C118.99897425 370.14855982 111.71801319 377.44905343 104.4375 384.75 C96.5752219 392.63434425 88.71220047 400.51793864 80.84427261 408.39664555 C77.43885602 411.80701705 74.03588608 415.21980494 70.63482666 418.63452148 C68.51206513 420.76478952 66.38719137 422.8929413 64.26176453 425.02054977 C63.28378866 426.00038333 62.30667019 426.9810736 61.33052063 427.96272659 C56.4014232 432.91871548 51.44185326 437.75793142 46.10821533 442.27934265 C43.48829816 444.5855407 41.24803371 447.13325098 38.9375 449.75 C35.2989354 453.80458011 31.58421988 457.59603805 27.40625 461.09765625 C24.42948216 463.59601497 21.58115343 466.23599659 18.7109375 468.85546875 C12.82306652 473.7620279 8.93097575 475.49530862 1.375 475.5625 C0.60478516 475.61986328 -0.16542969 475.67722656 -0.95898438 475.73632812 C-12.18746157 475.89240671 -20.94133469 466.53988093 -28.51905251 459.25002766 C-32.62723609 455.22472423 -36.69600395 451.1609667 -40.75208569 447.08331299 C-43.30236357 444.52389314 -45.86423908 441.97612327 -48.42456055 439.42675781 C-53.42275688 434.44625169 -58.41019687 429.45511027 -63.3937307 424.4599371 C-67.4454201 420.39918004 -71.50103831 416.34238549 -75.55943298 412.28833008 C-76.13905386 411.70932213 -76.71867474 411.13031419 -77.31585988 410.53376055 C-78.4936524 409.35724704 -79.67145383 408.18074246 -80.84926409 407.00424671 C-91.8647781 396.00010959 -102.86804953 384.98379676 -113.86710113 373.9632082 C-123.2944394 364.51798261 -132.73224191 355.08331964 -142.17773438 345.65625 C-153.167569 334.68784054 -164.15086172 323.71294752 -175.1238513 312.72768402 C-176.29459023 311.55567098 -177.46533748 310.38366625 -178.63609314 309.21166992 C-179.2120179 308.63512806 -179.78794265 308.05858621 -180.38131967 307.46457338 C-184.43055041 303.41189611 -188.48438909 299.36386397 -192.54005432 295.31762695 C-197.48264 290.38628009 -202.41799306 285.44782774 -207.34432083 280.50023746 C-209.85544012 277.9786361 -212.36959536 275.46028239 -214.89259338 272.95056152 C-217.63143734 270.225913 -220.35451338 267.48584014 -223.07629395 264.74414062 C-223.86996132 263.95939613 -224.6636287 263.17465164 -225.48134661 262.36612701 C-232.11598234 255.63713488 -237.11863137 249.1237819 -237.35791016 239.40332031 C-237.3429248 238.56897461 -237.32793945 237.73462891 -237.3125 236.875 C-237.30653809 236.00456055 -237.30057617 235.13412109 -237.29443359 234.23730469 C-237.01002659 226.71943273 -235.05605877 221.16898558 -229.5625 215.75 C-228.9025 215.75 -228.2425 215.75 -227.5625 215.75 C-227.34191705 215.20396118 -227.1213341 214.65792236 -226.89406681 214.09533691 C-225.13720989 211.0009211 -222.77153107 208.70015381 -220.25743103 206.22460938 C-219.7107927 205.6783789 -219.16415438 205.13214842 -218.60095125 204.5693655 C-216.76723106 202.73937695 -214.92646734 200.91664097 -213.08569336 199.09375 C-211.76951801 197.78305025 -210.45380457 196.47188651 -209.13851929 195.16029358 C-206.30335888 192.33485007 -203.46517052 189.51249582 -200.62467766 186.69241333 C-196.12568327 182.22525116 -191.63487266 177.749923 -187.145401 173.27319336 C-175.98631903 162.14819639 -164.81808095 151.03240299 -153.64477539 139.92169189 C-144.97328864 131.29877224 -136.30508008 122.67261919 -127.64740473 114.03582954 C-123.19381797 109.59370931 -118.73340008 105.15860442 -114.26759613 100.72876835 C-111.47626665 97.95677129 -108.69134334 95.17840441 -105.90807724 92.39831352 C-104.62608389 91.12030498 -103.34153644 89.84485198 -102.05411339 88.57231331 C-95.27633157 81.87001198 -89.05573743 75.20097245 -83.50632572 67.42466736 C-78.73713626 60.86235303 -73.77317864 54.99909189 -66.63919067 51.02622986 C-59.65002965 46.73104228 -53.94805375 40.23356432 -48.2578125 34.40234375 C-46.68925371 32.81140356 -45.12022896 31.22092267 -43.55078125 29.63085938 C-41.11515254 27.15817849 -38.68274349 24.68262732 -36.25830078 22.19897461 C-33.89244077 19.77824505 -31.51374307 17.37074035 -29.1328125 14.96484375 C-28.42206573 14.23031479 -27.71131897 13.49578583 -26.97903442 12.73899841 C-19.00443308 4.72384668 -11.54030995 -0.36567323 0 0 Z " fill="#DF4B35" transform="translate(236.5625,-0.75)"/>
<path d="M0 0 C0 0.99 0 1.98 0 3 C0.8971875 3.4021875 0.8971875 3.4021875 1.8125 3.8125 C3.99847854 4.99917406 5.41332594 6.09599113 7 8 C7 8.66 7 9.32 7 10 C7.99 10.33 8.98 10.66 10 11 C10 11.66 10 12.32 10 13 C10.66 13 11.32 13 12 13 C13.625 14.375 13.625 14.375 15 16 C15 16.66 15 17.32 15 18 C15.99 18.33 16.98 18.66 18 19 C18 19.66 18 20.32 18 21 C18.5775 21.2475 19.155 21.495 19.75 21.75 C22.32939979 23.18299988 24.06121592 24.78424676 26 27 C26 27.66 26 28.32 26 29 C26.66 29 27.32 29 28 29 C29.625 30.375 29.625 30.375 31 32 C31 32.66 31 33.32 31 34 C31.99 34.33 32.98 34.66 34 35 C34 35.66 34 36.32 34 37 C34.5775 37.2475 35.155 37.495 35.75 37.75 C38.32939979 39.18299988 40.06121592 40.78424676 42 43 C42 43.66 42 44.32 42 45 C42.66 45 43.32 45 44 45 C45.625 46.375 45.625 46.375 47 48 C47 48.66 47 49.32 47 50 C48.485 50.495 48.485 50.495 50 51 C50 51.66 50 52.32 50 53 C50.66 53 51.32 53 52 53 C52.33 53.66 52.66 54.32 53 55 C54.134375 54.90460938 55.26875 54.80921875 56.4375 54.7109375 C57.95828374 54.59828685 59.47912015 54.48634561 61 54.375 C62.11568359 54.27832031 62.11568359 54.27832031 63.25390625 54.1796875 C73.72412486 53.45132447 81.4775767 56.98619324 90 63 C96.10547272 68.44140345 101.5275716 75.25002151 102.21972656 83.67431641 C102.16497898 87.46324942 101.93972386 91.22497195 101.66796875 95.00390625 C101.46686221 100.003831 101.52401084 103.11907841 104.8203125 107.0546875 C106.79588303 109.05836699 108.62894207 110.41929471 111 112 C111 112.66 111 113.32 111 114 C111.99 114.33 112.98 114.66 114 115 C116.6875 117.4375 116.6875 117.4375 119 120 C119 120.66 119 121.32 119 122 C119.99 122.33 120.98 122.66 122 123 C124.6875 125.4375 124.6875 125.4375 127 128 C127 128.66 127 129.32 127 130 C127.99 130.33 128.98 130.66 130 131 C132.6875 133.4375 132.6875 133.4375 135 136 C135 136.66 135 137.32 135 138 C135.99 138.33 136.98 138.66 138 139 C140.6875 141.4375 140.6875 141.4375 143 144 C143 144.66 143 145.32 143 146 C143.99 146.33 144.98 146.66 146 147 C146.95952398 148.1745897 147.87264348 149.38782873 148.75 150.625 C150.27849333 152.54731966 150.27849333 152.54731966 152 154 C154.87245155 154.05663702 154.87245155 154.05663702 156.8359375 153.48828125 C166.77806926 151.24502047 175.1167163 153.52165037 184 158 C184.66 158.33 185.32 158.66 186 159 C186 159.66 186 160.32 186 161 C186.59683594 161.26167969 187.19367188 161.52335938 187.80859375 161.79296875 C193.70673488 165.0416775 197.97902265 171.93706796 200.0546875 178.1640625 C202.16365796 186.72195091 202.55504645 197.13259035 198.265625 205.046875 C191.63412108 215.28067735 184.03813573 222.57523123 172 226 C160.99312924 227.13364178 150.49052167 225.50768251 141.62109375 218.53125 C134.47525286 211.78144366 129.17499922 203.78680193 128.7265625 193.796875 C128.5266325 182.80900611 128.5266325 182.80900611 129.76972961 178.0584259 C130.31697764 174.9385532 130.31697764 174.9385532 128.38737488 172.53886414 C127.57400162 171.73801895 126.76062836 170.93717377 125.92260742 170.11206055 C125.00803268 169.19478683 124.09345795 168.27751312 123.15116882 167.33244324 C122.13637302 166.35008287 121.12112875 165.3681856 120.10546875 164.38671875 C119.07604914 163.36782158 118.04809835 162.34743847 117.02156067 161.32563782 C114.31685222 158.64196743 111.59134743 155.98039539 108.86138916 153.32244873 C106.63374058 151.14662293 104.42104954 148.95593137 102.20904064 146.76422405 C97.64331194 142.24079839 93.0659126 137.72919467 88.46557617 133.2409668 C87.64981613 132.44409958 86.83405609 131.64723236 85.99357605 130.82621765 C84.12822252 128.94977817 84.12822252 128.94977817 82 128 C82 170.24 82 212.48 82 256 C83.65 256.66 85.3 257.32 87 258 C94.98014886 263.65744441 99.77957637 270.43858395 102 280 C102.92572025 289.29423128 102.61920011 297.6437387 98 306 C97.13375 307.5778125 97.13375 307.5778125 96.25 309.1875 C90.68291588 316.14635515 83.10173676 323.06011415 73.95605469 324.27050781 C64.74932238 324.98734343 56.17818259 324.68253794 48 320 C46.4221875 319.13375 46.4221875 319.13375 44.8125 318.25 C37.02489796 312.01991837 31.1408483 304.19186741 29.72949219 294.05761719 C28.69087277 281.97133653 31.24388126 272.49298127 38.9921875 263.05078125 C42.23187413 259.7417628 45.89150171 257.13374147 50 255 C50.66 255 51.32 255 52 255 C52 211.77 52 168.54 52 124 C50.35 123.34 48.7 122.68 47 122 C39.48370702 118.15833914 34.10402762 110.50271353 31 102.75 C28.89798355 95.28514669 29.39402136 86.77959757 30.609375 79.19921875 C31.33134232 75.97235373 31.33134232 75.97235373 29.5 73.4375 C26.99577566 70.99588127 24.41727091 68.71413552 21.734375 66.47265625 C18.53825929 63.75883728 15.68094819 60.88523265 13.125 57.5625 C10.86842716 54.84133864 8.43782796 52.73131032 5.734375 50.47265625 C2.53825929 47.75883728 -0.31905181 44.88523265 -2.875 41.5625 C-5.13020721 38.84298542 -7.55651824 36.73383706 -10.26171875 34.48046875 C-12.64458987 32.45101222 -14.81841949 30.24217997 -17 28 C-17.598125 27.443125 -18.19625 26.88625 -18.8125 26.3125 C-20 25 -20 25 -20 23 C-20.66 23 -21.32 23 -22 23 C-19.33947105 15.44839764 -9.1490385 0 0 0 Z " fill="#FCFCFB" transform="translate(172,50)"/>
<path d="M0 0 C3.60557853 1.33921488 6.90599111 2.69546327 10 5 C10.61523914 7.41501904 10.61523914 7.41501904 10.60127258 10.33403015 C10.6081459 11.44040833 10.61501923 12.5467865 10.62210083 13.68669128 C10.60412445 14.9008522 10.58614807 16.11501312 10.56762695 17.3659668 C10.56872215 19.28320053 10.56872215 19.28320053 10.56983948 21.23916626 C10.57127574 24.74542564 10.54185367 28.25083203 10.50696969 31.75689292 C10.47574029 35.42038904 10.47277818 39.08390413 10.46684265 42.74751282 C10.45129402 49.68558978 10.41025222 56.62327342 10.3600952 63.56117707 C10.30423307 71.45946881 10.2767232 79.3577792 10.25161803 87.25621927 C10.19933688 103.50437654 10.11137533 119.7521381 10 136 C7.525 136.99 7.525 136.99 5 138 C5.16238096 137.44816323 5.32476192 136.89632647 5.49206352 136.32776737 C6.05770397 133.73555471 6.12589806 131.40927567 6.12698364 128.75572205 C6.12980347 127.69437546 6.13262329 126.63302887 6.13552856 125.53952026 C6.13350433 124.38042145 6.1314801 123.22132263 6.12939453 122.02709961 C6.13114685 120.80238449 6.13289917 119.57766937 6.13470459 118.31584167 C6.13835143 114.96059051 6.13749701 111.60540101 6.1343255 108.2501533 C6.13179303 104.73883529 6.13414187 101.2275199 6.13571167 97.71620178 C6.13753053 91.82080614 6.13513423 85.92542303 6.13037109 80.0300293 C6.12492649 73.21241246 6.1266937 66.39482552 6.1321975 59.57720941 C6.13673369 53.72404917 6.13737677 47.87089793 6.13475883 42.01773649 C6.13319917 38.52169114 6.13299385 35.02565985 6.13629532 31.5296154 C6.13971704 27.6342337 6.13497602 23.73888558 6.12939453 19.84350586 C6.13141876 18.68238281 6.13344299 17.52125977 6.13552856 16.32495117 C6.13270874 15.26642441 6.12988892 14.20789764 6.12698364 13.11729431 C6.12660662 12.19608764 6.12622959 11.27488096 6.12584114 10.32575893 C6.09428202 7.84199621 6.09428202 7.84199621 5 5 C3.34051852 3.98812105 1.67419438 2.9873454 0 2 C0 1.34 0 0.68 0 0 Z " fill="#C85140" transform="translate(214,169)"/>
<path d="M0 0 C3.41059403 1.60535287 5.61792484 3.40518901 8.25 6.125 C8.95640625 6.84945312 9.6628125 7.57390625 10.390625 8.3203125 C11.18726563 9.15175781 11.18726563 9.15175781 12 10 C11.34 10.66 10.68 11.32 10 12 C7.5 10.1875 7.5 10.1875 5 8 C5 7.01 5 6.02 5 5 C4.01 5 3.02 5 2 5 C2.16455185 6.25187607 2.3291037 7.50375214 2.49864197 8.79356384 C3.10757632 14.31054154 3.09244822 19.75878459 3.02172852 25.30297852 C3.0073172 26.94354973 3.0073172 26.94354973 2.99261475 28.61726379 C2.95983742 32.20454789 2.91942506 35.79170196 2.87890625 39.37890625 C2.85458432 41.87710624 2.83074182 44.37531095 2.80735779 46.8735199 C2.75111266 52.7594002 2.69006037 58.64521502 2.62663645 64.53102201 C2.54756843 71.89628423 2.47604042 79.26161655 2.40429688 86.62695312 C2.27555053 99.75136693 2.14015456 112.87570332 2 126 C2.66 126 3.32 126 4 126 C4 126.99 4 127.98 4 129 C5.32 128.67 6.64 128.34 8 128 C12 132.75 12 132.75 12 135 C12.61875 135.061875 13.2375 135.12375 13.875 135.1875 C16 136 16 136 17.1875 138.375 C17.455625 139.24125 17.72375 140.1075 18 141 C18.33 141.99 18.66 142.98 19 144 C19.99 144 20.98 144 22 144 C22 145.32 22 146.64 22 148 C22.66 148.33 23.32 148.66 24 149 C23.67 154.94 23.34 160.88 23 167 C22.01 166.67 21.02 166.34 20 166 C19.97421875 165.11699219 19.9484375 164.23398437 19.921875 163.32421875 C19.43584118 153.04018505 18.14111804 143.41793231 10.8585577 135.63332558 C8.8185071 133.84050159 6.76348816 132.82350486 4.35682678 131.57772827 C1.502896 129.68603861 0.22404964 128.70894677 -0.81723213 125.41408157 C-1.1104399 122.10103019 -1.113269 118.89387842 -1.02172852 115.56884766 C-1.02304276 114.31951447 -1.02435699 113.07018127 -1.02571106 111.7829895 C-1.02052474 108.36829336 -0.97551114 104.95853466 -0.91254544 101.54471254 C-0.85616119 97.97342869 -0.85098757 94.40207409 -0.84031677 90.83041382 C-0.81237822 84.07261583 -0.73857417 77.31613316 -0.64817137 70.55891359 C-0.547463 62.86382304 -0.49806323 55.1686686 -0.45291245 47.47308278 C-0.35891836 31.6479609 -0.2006878 15.82415026 0 0 Z " fill="#C76251" transform="translate(254,178)"/>
<path d="M0 0 C3.40868289 1.13622763 4.49111247 2.64448097 6.68359375 5.38671875 C9.46316823 8.79314088 12.59422132 11.67030482 16 14.4375 C19.07903881 17.06751232 21.45078401 19.8625034 24 23 C26.61776887 25.75201343 29.28878494 28.25744142 32.25 30.625 C35 33 35 33 36 36 C35.34 36 34.68 36 34 36 C33.278125 35.236875 32.55625 34.47375 31.8125 33.6875 C29.16861428 30.78274769 29.16861428 30.78274769 25.5 29.8125 C21.58221421 27.78364665 21.34824525 27.16214271 19.6875 23.3125 C17.31289889 17.88030215 14.04086362 15.13916972 9.3046875 11.69140625 C7 10 7 10 5.6328125 8.27734375 C2.87011228 6.11609262 0.38314217 6.67953389 -3 7 C-5.78073243 8.7544618 -5.78073243 8.7544618 -8.20762634 11.36584473 C-8.92101059 12.07025751 -8.92101059 12.07025751 -9.64880663 12.78890085 C-11.23341044 14.36200164 -12.79174074 15.95875483 -14.35131836 17.55664062 C-15.48383727 18.69113463 -16.61790099 19.82408832 -17.75338745 20.95561218 C-20.8286628 24.02887936 -23.88188062 27.12324787 -26.93160319 30.22184563 C-30.12346372 33.45746963 -33.33516298 36.67327691 -36.54481506 39.89123535 C-42.61838965 45.98656539 -48.6739008 52.09951859 -54.72313172 58.21899843 C-61.61137569 65.18548815 -68.5195106 72.13210799 -75.42939174 79.0771265 C-89.64184568 93.36274554 -103.8291228 107.67314507 -118 122 C-118.66 121.67 -119.32 121.34 -120 121 C-119.09966805 120.10105074 -119.09966805 120.10105074 -118.18114758 119.18394089 C-103.58147015 104.60634088 -88.98455631 90.02597872 -74.39071941 75.44253159 C-67.33320748 68.39017751 -60.27476074 61.3387638 -53.21411133 54.28955078 C-47.06057494 48.14597676 -40.90879409 42.00065123 -34.75912124 35.85320973 C-31.50240403 32.59779698 -28.24481023 29.34327238 -24.98511314 26.0908432 C-21.91734119 23.02985592 -18.85192111 19.96653307 -15.78829193 16.90139961 C-14.66325273 15.77663564 -13.53735557 14.65272909 -12.41053963 13.5297451 C-10.87221553 11.99639642 -9.33700836 10.45999239 -7.80253601 8.92279053 C-6.51248673 7.63412394 -6.51248673 7.63412394 -5.19637585 6.31942368 C-3.28243144 4.29825413 -1.6077623 2.2676806 0 0 Z " fill="#C26F65" transform="translate(149,72)"/>
<path d="M0 0 C1.485 0.99 1.485 0.99 3 2 C2.84144531 2.81984375 2.68289063 3.6396875 2.51953125 4.484375 C0.99528881 14.79879755 0.55692786 25.77044289 6 35 C6.81017578 36.05767578 6.81017578 36.05767578 7.63671875 37.13671875 C9 39 9 39 9 41 C9.99 41.33 10.98 41.66 12 42 C12.7734375 42.86625 12.7734375 42.86625 13.5625 43.75 C21.30923777 50.90083487 30.23828447 52.37212701 40.390625 52.27734375 C48.76971399 51.633496 55.93836677 47.73713466 62 42 C63.73492295 39.90599714 65.33118696 37.77968982 66.87109375 35.5390625 C67.24363281 35.03117187 67.61617188 34.52328125 68 34 C68.33 34 68.66 34 69 34 C69 35.65 69 37.3 69 39 C68.01 39.495 68.01 39.495 67 40 C65.98470459 42.32671865 64.98511802 44.6603447 64 47 C63.34 47.66 62.68 48.32 62 49 C61.01 49 60.02 49 59 49 C58.95875 49.61875 58.9175 50.2375 58.875 50.875 C58.58625 51.57625 58.2975 52.2775 58 53 C53.78434086 54.70633822 49.61277627 55.4838891 45.125 56.125 C43.39636719 56.37636719 43.39636719 56.37636719 41.6328125 56.6328125 C40.76398438 56.75398438 39.89515625 56.87515625 39 57 C39 56.67 39 56.34 39 56 C38.29875 55.96261719 37.5975 55.92523438 36.875 55.88671875 C30.67748398 55.45727131 25.69990204 54.47354239 20 52 C20 51.34 20 50.68 20 50 C18.8553125 49.814375 18.8553125 49.814375 17.6875 49.625 C15 49 15 49 12 47 C12 46.34 12 45.68 12 45 C10.68 45 9.36 45 8 45 C8 43.35 8 41.7 8 40 C7.01 39.67 6.02 39.34 5 39 C3 36 3 36 3 33 C2.01 33 1.02 33 0 33 C-1.31547495 21.90953423 -0.72009071 11.11155359 0 0 Z " fill="#D64E3A" transform="translate(300,223)"/>
<path d="M0 0 C-1 3 -1 3 -3.375 4.1875 C-6 5 -6 5 -9 5 C-9 5.66 -9 6.32 -9 7 C-9.85078125 7.12181641 -9.85078125 7.12181641 -10.71875 7.24609375 C-16.02492477 8.99967548 -20.62721168 14.58856246 -23.33203125 19.33984375 C-23.65558594 20.05269531 -23.97914063 20.76554687 -24.3125 21.5 C-24.869375 22.655 -25.42625 23.81 -26 25 C-28.10546875 25.71875 -28.10546875 25.71875 -30 26 C-30 26.66 -30 27.32 -30 28 C-30.969375 28.7425 -31.93875 29.485 -32.9375 30.25 C-35.59729339 32.34654302 -35.95610421 32.83382309 -36.875 36.3125 C-36.91625 37.199375 -36.9575 38.08625 -37 39 C-37.66 39 -38.32 39 -39 39 C-39.2475 39.556875 -39.495 40.11375 -39.75 40.6875 C-41.25686838 43.47520651 -42.8181426 45.69346503 -45 48 C-47.5625 48.75 -47.5625 48.75 -50 49 C-51.485 49.495 -51.485 49.495 -53 50 C-53.73323796 52.01508358 -53.73323796 52.01508358 -54 54 C-54.99 53.34 -55.98 52.68 -57 52 C-57 48 -57 48 -55.54196167 46.37159729 C-54.54061691 45.57966225 -54.54061691 45.57966225 -53.51904297 44.77172852 C-48.9457067 40.99291732 -44.83577675 36.89539061 -40.6953125 32.65234375 C-39.12675371 31.06140356 -37.55772896 29.47092267 -35.98828125 27.88085938 C-33.55265254 25.40817849 -31.12024349 22.93262732 -28.69580078 20.44897461 C-26.32994077 18.02824505 -23.95124307 15.62074035 -21.5703125 13.21484375 C-20.85956573 12.48031479 -20.14881897 11.74578583 -19.41653442 10.98899841 C-6.37040612 -2.12346871 -6.37040612 -2.12346871 0 0 Z " fill="#D24A3B" transform="translate(229,1)"/>
<path d="M0 0 C0.33 0 0.66 0 1 0 C1.0934141 17.01115688 1.16396474 34.02223379 1.20724869 51.03358841 C1.22787979 58.93214742 1.25601066 66.83054714 1.30175781 74.72900391 C1.34160904 81.61277997 1.36742884 88.49644068 1.37635398 95.38032889 C1.38157171 99.02583581 1.39384608 102.67101268 1.42292023 106.31641388 C1.45510353 110.38459454 1.45596053 114.45220031 1.45410156 118.52050781 C1.47567322 120.33635628 1.47567322 120.33635628 1.49768066 122.18888855 C1.49218201 123.29664139 1.48668335 124.40439423 1.48101807 125.54571533 C1.48470524 126.50806721 1.48839241 127.47041908 1.49219131 128.46193314 C0.84713766 131.78826022 -0.31046837 132.98993279 -3 135 C-4.32 135 -5.64 135 -7 135 C-7 135.66 -7 136.32 -7 137 C-7.61875 137.0825 -8.2375 137.165 -8.875 137.25 C-11.14785979 137.80581505 -11.14785979 137.80581505 -12.1875 139.875 C-12.83464059 141.56752155 -13.42698864 143.28096593 -14 145 C-14.66 145.33 -15.32 145.66 -16 146 C-16.33 146.99 -16.66 147.98 -17 149 C-17.66 149 -18.32 149 -19 149 C-16.88867297 140.3435592 -11.15050614 135.75449635 -3.953125 131.06640625 C-2 130 -2 130 0 130 C0 87.1 0 44.2 0 0 Z " fill="#F9C5BD" transform="translate(224,175)"/>
<path d="M0 0 C0.33 0 0.66 0 1 0 C1 41.91 1 83.82 1 127 C2.65 127.66 4.3 128.32 6 129 C8.8125 131.625 8.8125 131.625 11 134 C9.3501725 133.57781184 7.70516335 133.13675575 6.0625 132.6875 C5.14597656 132.44386719 4.22945313 132.20023438 3.28515625 131.94921875 C2.53105469 131.63597656 1.77695313 131.32273437 1 131 C0.00289497 128.0086849 -0.13871829 125.99523265 -0.16494751 122.86924744 C-0.17618149 121.80783035 -0.18741547 120.74641327 -0.19898987 119.65283203 C-0.20631638 118.48856689 -0.21364288 117.32430176 -0.22119141 116.12475586 C-0.2326973 114.89858047 -0.24420319 113.67240509 -0.25605774 112.40907288 C-0.28648343 109.04559597 -0.31250255 105.6821426 -0.3362546 102.31861567 C-0.35667159 99.51269973 -0.38021178 96.70681371 -0.40379179 93.90092283 C-0.45939614 87.28415682 -0.51012643 80.667366 -0.55761719 74.05053711 C-0.60672438 67.2175362 -0.66302817 60.38462229 -0.72303832 53.55170912 C-0.77432954 47.68927257 -0.82167641 41.82681379 -0.86572587 35.96431834 C-0.89205787 32.46100693 -0.91978841 28.95772137 -0.9510994 25.45445061 C-0.98572845 21.5516177 -1.01209331 17.64875335 -1.03759766 13.74584961 C-1.05466011 11.99641556 -1.05466011 11.99641556 -1.07206726 10.2116394 C-1.07766159 9.15304214 -1.08325592 8.09444489 -1.08901978 7.00376892 C-1.09601709 6.08034163 -1.10301441 5.15691435 -1.11022377 4.20550442 C-1 2 -1 2 0 0 Z " fill="#FEEDDE" transform="translate(253,179)"/>
<path d="M0 0 C2.69082872 0.17635452 5.32851446 0.61835921 8 1 C6.43528652 4.84066037 3.93965873 7.13033315 1 10 C-5.82160205 17.23503248 -7.53732374 25.39928684 -7.48974609 35.08813477 C-7.29729116 40.30738832 -6.12909637 44.40574142 -3.6796875 48.984375 C-3 51 -3 51 -3.8828125 53.265625 C-4.43582031 54.12414062 -4.43582031 54.12414062 -5 55 C-10.03406302 42.18602139 -10.65493638 31.62367269 -9 18 C-8.34 18 -7.68 18 -7 18 C-7.33 17.01 -7.66 16.02 -8 15 C-7.4375 12.4375 -7.4375 12.4375 -6 10 C-2.875 8.6875 -2.875 8.6875 0 8 C-0.2784375 6.2984375 -0.2784375 6.2984375 -0.5625 4.5625 C-0.706875 3.386875 -0.85125 2.21125 -1 1 C-0.67 0.67 -0.34 0.34 0 0 Z " fill="#C25E50" transform="translate(210,305)"/>
<path d="M0 0 C4.455 0.99 4.455 0.99 9 2 C9 3.32 9 4.64 9 6 C14.94 5.67 20.88 5.34 27 5 C27 4.01 27 3.02 27 2 C28.98 2 30.96 2 33 2 C32.67 3.98 32.34 5.96 32 8 C33.28197266 8.27263672 33.28197266 8.27263672 34.58984375 8.55078125 C35.69457031 8.80214844 36.79929688 9.05351563 37.9375 9.3125 C39.59072266 9.67794922 39.59072266 9.67794922 41.27734375 10.05078125 C42.62505859 10.52064453 42.62505859 10.52064453 44 11 C44.495 12.485 44.495 12.485 45 14 C45.66 14.33 46.32 14.66 47 15 C46.67 15.99 46.34 16.98 46 18 C44.58847656 17.15115234 44.58847656 17.15115234 43.1484375 16.28515625 C41.89091398 15.54378044 40.63308515 14.80292234 39.375 14.0625 C38.75753906 13.68931641 38.14007813 13.31613281 37.50390625 12.93164062 C28.49348936 7.66766023 18.99782523 8.70398562 9 10 C8.67 9.01 8.34 8.02 8 7 C7.34 7 6.68 7 6 7 C4.375 5.625 4.375 5.625 3 4 C3 3.34 3 2.68 3 2 C2.01 1.67 1.02 1.34 0 1 C0 0.67 0 0.34 0 0 Z " fill="#C85A4B" transform="translate(216,96)"/>
<path d="M0 0 C7.02305029 5.74088886 13.3234361 12.19693456 19.71484375 18.6171875 C20.93773316 19.84194489 22.1608457 21.06647953 23.38417053 22.290802 C26.58385956 25.49428634 29.78053248 28.70076366 32.9765625 31.90789795 C36.246212 35.18782616 39.5187384 38.46488126 42.79101562 41.7421875 C49.19681119 48.15866765 55.59942049 54.578317 62 61 C61.505 61.99 61.505 61.99 61 63 C60.608125 62.566875 60.21625 62.13375 59.8125 61.6875 C58.05005887 59.89330887 58.05005887 59.89330887 55.6875 58.8125 C53.11968939 57.08072075 52.21001584 56.04575664 50.51123047 53.57373047 C46.71656814 48.40819803 42.21891323 43.99237665 37.66141129 39.5110817 C36.10181308 37.97732675 34.54882785 36.43713287 32.99728394 34.89523315 C29.71215858 31.63277328 26.41914565 28.37834831 23.125 25.125 C19.28467719 21.3319085 15.44767177 17.53557772 11.61892319 13.73080063 C10.08730497 12.21216098 8.54980274 10.69965276 7.01199341 9.18728638 C6.09038422 8.27228363 5.16877502 7.35728088 4.21923828 6.41455078 C3.40238556 5.60817169 2.58553284 4.8017926 1.743927 3.97097778 C0 2 0 2 0 0 Z " fill="#B56966" transform="translate(342,92)"/>
<path d="M0 0 C7.3300401 5.03041968 13.32904503 11.1401553 19.50927734 17.47900391 C20.89552184 18.89340011 22.3005648 20.2893045 23.70703125 21.68359375 C25.57211344 23.56773981 27.30868369 25.46273262 29 27.5 C32.46794943 31.58722612 36.06245533 35.28787542 40.3125 38.5625 C41.199375 39.366875 42.08625 40.17125 43 41 C43 42.32 43 43.64 43 45 C41.125 44.875 41.125 44.875 39 44 C38.29618843 42.01276732 37.6288189 40.01222047 37 38 C36.01 37.67 35.02 37.34 34 37 C34 36.34 34 35.68 34 35 C33.34 35 32.68 35 32 35 C32 34.34 32 33.68 32 33 C31.4225 32.773125 30.845 32.54625 30.25 32.3125 C27.41565264 30.6591307 26.03237811 28.57036056 24 26 C22.989375 25.175 21.97875 24.35 20.9375 23.5 C18 21 18 21 16.5625 18.5625 C13.98822643 14.34069134 10.04653755 11.62650583 6.2109375 8.578125 C4.77660505 7.4225017 3.3841143 6.21531987 2 5 C2 4.34 2 3.68 2 3 C1.01 3 0.02 3 -1 3 C-0.67 2.01 -0.34 1.02 0 0 Z " fill="#BA473E" transform="translate(255,6)"/>
<path d="M0 0 C-1 3 -1 3 -3.375 4.1875 C-6 5 -6 5 -9 5 C-9 5.66 -9 6.32 -9 7 C-9.57176971 7.0837941 -10.14353943 7.1675882 -10.7326355 7.25392151 C-13.68967986 8.22693983 -15.08903806 9.72852046 -17.27783203 11.93725586 C-18.52900314 13.18876686 -18.52900314 13.18876686 -19.80545044 14.46556091 C-20.69722992 15.37282425 -21.5890094 16.28008759 -22.5078125 17.21484375 C-23.89055862 18.60395714 -23.89055862 18.60395714 -25.30123901 20.02113342 C-27.75008191 22.48141649 -30.18978648 24.95057051 -32.62768555 27.42169189 C-35.10964395 29.9343055 -37.60007865 32.4384855 -40.08984375 34.94335938 C-44.46394577 39.34616747 -48.83057405 43.75629795 -53.19192505 48.17173767 C-54.45756724 49.45151091 -55.72727267 50.72727267 -57 52 C-57 48 -57 48 -55.54196167 46.37159729 C-54.54061691 45.57966225 -54.54061691 45.57966225 -53.51904297 44.77172852 C-48.9457067 40.99291732 -44.83577675 36.89539061 -40.6953125 32.65234375 C-39.12675371 31.06140356 -37.55772896 29.47092267 -35.98828125 27.88085938 C-33.55265254 25.40817849 -31.12024349 22.93262732 -28.69580078 20.44897461 C-26.32994077 18.02824505 -23.95124307 15.62074035 -21.5703125 13.21484375 C-20.85956573 12.48031479 -20.14881897 11.74578583 -19.41653442 10.98899841 C-6.37040612 -2.12346871 -6.37040612 -2.12346871 0 0 Z " fill="#C7756B" transform="translate(229,1)"/>
<path d="M0 0 C2.75 -0.3125 2.75 -0.3125 6 0 C10 4 10 4 10 7 C10.928125 7.0928125 10.928125 7.0928125 11.875 7.1875 C14 8 14 8 15.1875 10.375 C15.455625 11.24125 15.72375 12.1075 16 13 C16.33 13.99 16.66 14.98 17 16 C17.99 16 18.98 16 20 16 C20 17.32 20 18.64 20 20 C20.66 20.33 21.32 20.66 22 21 C21.67 26.94 21.34 32.88 21 39 C19.515 38.505 19.515 38.505 18 38 C17.97421875 37.11699219 17.9484375 36.23398437 17.921875 35.32421875 C17.42712791 24.85582007 16.06877513 15.38231574 8.66015625 7.5 C5.95238867 5.05345235 3.01578673 3.05073498 0 1 C0 0.67 0 0.34 0 0 Z " fill="#D55849" transform="translate(256,306)"/>
<path d="M0 0 C-0.66 0.66 -1.32 1.32 -2 2 C-3.34386088 1.71202981 -4.6757713 1.36784131 -6 1 C-7.99963028 0.96154557 -10.00051633 0.95455719 -12 1 C-11.67 0.34 -11.34 -0.32 -11 -1 C-17.40766041 -2.83292414 -22.41276707 -3.04559253 -29 -2 C-29 -1.34 -29 -0.68 -29 0 C-31.99332739 -0.9977758 -32.94766315 -1.7522025 -35 -4 C-34.67 -4.66 -34.34 -5.32 -34 -6 C-21.59128643 -8.87816989 -10.6909575 -6.48386774 0 0 Z " fill="#F9E7E1" transform="translate(259,111)"/>
<path d="M0 0 C6.46650724 2.73582999 10.67253791 7.67389281 15 13 C17.55612636 15.68720976 20.1199811 18.09748464 23 20.4375 C26.13501227 23.11532298 28.41420165 25.80177573 31 29 C32.31543863 30.35099103 33.64175118 31.69205669 35 33 C34.01 33.495 34.01 33.495 33 34 C32.319375 33.236875 31.63875 32.47375 30.9375 31.6875 C28.17390001 28.79739732 28.17390001 28.79739732 24.5 27.8125 C20.58221421 25.78364665 20.34824525 25.16214271 18.6875 21.3125 C16.31289889 15.88030215 13.04086362 13.13916972 8.3046875 9.69140625 C6 8 6 8 4.39453125 6.3203125 C2.23735526 4.27794419 -0.13203514 4.31866276 -3 4 C-2.01 2.68 -1.02 1.36 0 0 Z " fill="#BE5B4A" transform="translate(150,74)"/>
<path d="M0 0 C0.66 0.33 1.32 0.66 2 1 C1.84015625 2.00289063 1.6803125 3.00578125 1.515625 4.0390625 C-0.01263539 15.77888094 -0.21266831 26.60041712 7.0625 36.3125 C7.56910156 36.92738281 8.07570312 37.54226562 8.59765625 38.17578125 C10.02579106 40.03354994 11.02050108 41.87697123 12 44 C10.68 44 9.36 44 8 44 C7.505 42.515 7.505 42.515 7 41 C6.34 40.67 5.68 40.34 5 40 C5 38.68 5 37.36 5 36 C4.01 35.67 3.02 35.34 2 35 C-0.89424267 32.68186251 -0.99272083 32.04513084 -1.625 28.125 C-1.75276249 26.41687105 -1.87743831 24.70851 -2 23 C-2.12632812 21.96746094 -2.25265625 20.93492187 -2.3828125 19.87109375 C-3.19844065 12.5217635 -2.75044725 6.88388774 0 0 Z " fill="#C15F4B" transform="translate(202,125)"/>
<path d="M0 0 C0.33 0 0.66 0 1 0 C1.99440216 4.7289347 1.96565891 9.09270118 1.5625 13.875 C1.51029297 14.56335938 1.45808594 15.25171875 1.40429688 15.9609375 C1.27594902 17.64112758 1.13887775 19.32064749 1 21 C-0.32 21 -1.64 21 -3 21 C-3.66 20.01 -4.32 19.02 -5 18 C-6.93798263 20.77260299 -6.93798263 20.77260299 -8 23 C-8.66 23 -9.32 23 -10 23 C-9.69255859 22.05640625 -9.69255859 22.05640625 -9.37890625 21.09375 C-7.68028765 15.69718181 -6.52161147 10.63340386 -6 5 C-5.67 5 -5.34 5 -5 5 C-4.67 6.65 -4.34 8.3 -4 10 C-2.55245745 8.55245745 -2.44266439 6.96037087 -2 5 C-1.67 5 -1.34 5 -1 5 C-0.67 3.35 -0.34 1.7 0 0 Z " fill="#D4513F" transform="translate(281,331)"/>
<path d="M0 0 C1.32 0 2.64 0 4 0 C4.5775 1.093125 5.155 2.18625 5.75 3.3125 C7.45672651 6.3358441 9.10530868 8.03574518 12 10 C12 10.66 12 11.32 12 12 C12.9590625 12.1546875 12.9590625 12.1546875 13.9375 12.3125 C14.9584375 12.6528125 14.9584375 12.6528125 16 13 C16.33 13.99 16.66 14.98 17 16 C24.26 16 31.52 16 39 16 C36.29361847 18.70638153 34.59048136 18.35816729 30.8125 18.5625 C26.15167945 18.85186358 21.60691531 19.25003704 17 20 C16.67 19.01 16.34 18.02 16 17 C15.4225 16.731875 14.845 16.46375 14.25 16.1875 C11.61730833 14.79802384 10.25087855 12.97006821 8.4375 10.65234375 C6.33840102 8.23952073 3.87856606 6.34737629 1.35546875 4.39453125 C0 3 0 3 0 0 Z " fill="#BF5A4B" transform="translate(307,185)"/>
<path d="M0 0 C1 2 1 2 0.75 4.8125 C-2.02040621 9.85859702 -6.80666936 10.98838582 -12 13 C-12.99 13.495 -12.99 13.495 -14 14 C-20.4032863 14.36651807 -26.66983002 13.95549736 -33 13 C-33 12.67 -33 12.34 -33 12 C-31.49373047 12.01353516 -31.49373047 12.01353516 -29.95703125 12.02734375 C-18.83894846 11.87846525 -10.03543177 9.70568136 -1.640625 1.76953125 C-0.82851563 0.89361328 -0.82851563 0.89361328 0 0 Z " fill="#C96353" transform="translate(265,362)"/>
<path d="M0 0 C1.485 0.99 1.485 0.99 3 2 C2.84144531 2.81984375 2.68289063 3.6396875 2.51953125 4.484375 C0.99528881 14.79879755 0.55692786 25.77044289 6 35 C6.81017578 36.05767578 6.81017578 36.05767578 7.63671875 37.13671875 C9 39 9 39 9 41 C9.99 41.33 10.98 41.66 12 42 C11.34 42.99 10.68 43.98 10 45 C9.34 45 8.68 45 8 45 C8 43.35 8 41.7 8 40 C7.01 39.67 6.02 39.34 5 39 C3 36 3 36 3 33 C2.01 33 1.02 33 0 33 C-1.31547495 21.90953423 -0.72009071 11.11155359 0 0 Z " fill="#CB5D54" transform="translate(300,223)"/>
<path d="M0 0 C0.99 0.33 1.98 0.66 3 1 C2.67 1.66 2.34 2.32 2 3 C1.34 3 0.68 3 0 3 C0 3.66 0 4.32 0 5 C-0.66 5 -1.32 5 -2 5 C-2.2475 5.61875 -2.495 6.2375 -2.75 6.875 C-4.23740369 9.40358627 -5.43678009 9.71839004 -8 11 C-8.70151152 12.3153341 -9.36525925 13.65117592 -10 15 C-12 17.25 -12 17.25 -14 19 C-14.66 19 -15.32 19 -16 19 C-16 19.66 -16 20.32 -16 21 C-16.99 21.33 -17.98 21.66 -19 22 C-19 20.35 -19 18.7 -19 17 C-18.34 17 -17.68 17 -17 17 C-17 16.34 -17 15.68 -17 15 C-17.66 14.67 -18.32 14.34 -19 14 C-17.35 12.68 -15.7 11.36 -14 10 C-13.01 10.99 -12.02 11.98 -11 13 C-10.67 12.01 -10.34 11.02 -10 10 C-9.34 10 -8.68 10 -8 10 C-7.34 8.68 -6.68 7.36 -6 6 C-5.01 6 -4.02 6 -3 6 C-2.67 4.68 -2.34 3.36 -2 2 C-1.34 2 -0.68 2 0 2 C0 1.34 0 0.68 0 0 Z " fill="#D24738" transform="translate(423,298)"/>
<path d="M0 0 C0.33 0 0.66 0 1 0 C0.96447021 0.56509277 0.92894043 1.13018555 0.89233398 1.71240234 C0.73498198 4.26628572 0.58613992 6.8205954 0.4375 9.375 C0.35338867 10.70917969 0.35338867 10.70917969 0.26757812 12.0703125 C0.21923828 12.92109375 0.17089844 13.771875 0.12109375 14.6484375 C0.0739624 15.43395996 0.02683105 16.21948242 -0.02172852 17.02880859 C-0.14282506 19.07878964 -0.14282506 19.07878964 1 21 C1.12375 19.865625 1.2475 18.73125 1.375 17.5625 C1.58125 16.386875 1.7875 15.21125 2 14 C2.66 13.67 3.32 13.34 4 13 C4.05379226 15.95857409 4.09357093 18.91617721 4.125 21.875 C4.14175781 22.71675781 4.15851563 23.55851562 4.17578125 24.42578125 C4.18222656 25.23144531 4.18867188 26.03710938 4.1953125 26.8671875 C4.20578613 27.61081543 4.21625977 28.35444336 4.22705078 29.12060547 C4 31 4 31 2 33 C-1.38741027 26.66701558 -2.15119439 21.78446588 -2.1875 14.625 C-2.20167969 13.35914063 -2.21585938 12.09328125 -2.23046875 10.7890625 C-1.98885461 6.81676225 -1.22893265 3.75965958 0 0 Z " fill="#FAEBE6" transform="translate(204,126)"/>
<path d="M0 0 C2.97 0.495 2.97 0.495 6 1 C6 1.99 6 2.98 6 4 C6.66 4 7.32 4 8 4 C8.33 5.98 8.66 7.96 9 10 C9.99 10 10.98 10 12 10 C12.309375 11.11375 12.61875 12.2275 12.9375 13.375 C13.82326483 16.7945155 13.82326483 16.7945155 15 19 C15.07194869 21.88370333 15.09291708 24.74239664 15.0625 27.625 C15.05798828 28.42679688 15.05347656 29.22859375 15.04882812 30.0546875 C15.03703168 32.03649006 15.01909605 34.01825433 15 36 C14.01 36.495 14.01 36.495 13 37 C12.96261719 35.9378125 12.92523438 34.875625 12.88671875 33.78125 C12.29675863 20.07602267 8.98984903 10.65463589 0 0 Z " fill="#C15A48" transform="translate(360,211)"/>
<path d="M0 0 C3 1 3 1 4 3 C4.886875 2.835 5.77375 2.67 6.6875 2.5 C16.59785517 1.155883 24.98015089 1.43917336 34 6 C31 7 31 7 28 6 C26.481325 5.90769521 24.95897605 5.8693244 23.4375 5.8671875 C22.55835938 5.86589844 21.67921875 5.86460937 20.7734375 5.86328125 C19.40058594 5.86908203 19.40058594 5.86908203 18 5.875 C17.08476562 5.87113281 16.16953125 5.86726562 15.2265625 5.86328125 C14.34742188 5.86457031 13.46828125 5.86585938 12.5625 5.8671875 C11.75941406 5.86831543 10.95632813 5.86944336 10.12890625 5.87060547 C7.81115535 5.9195645 7.81115535 5.9195645 5 7 C2.3125 5.8125 2.3125 5.8125 0 4 C0 2.68 0 1.36 0 0 Z " fill="#FAE1D4" transform="translate(320,201)"/>
<path d="M0 0 C4.93210831 1.23302708 7.21774571 2.71960878 10 7 C10 7.66 10 8.32 10 9 C10.61875 9.0825 11.2375 9.165 11.875 9.25 C14 10 14 10 15.125 12 C15.41375 12.66 15.7025 13.32 16 14 C16.66 14.33 17.32 14.66 18 15 C18 15.66 18 16.32 18 17 C18.66 17 19.32 17 20 17 C20 17.66 20 18.32 20 19 C20.5775 19.0825 21.155 19.165 21.75 19.25 C24.72576056 20.24192019 26.03998366 21.56687627 28 24 C28.75 26.75 28.75 26.75 29 29 C23.01472264 24.07242944 17.53689775 18.69051775 12.07250977 13.20288086 C10.54492879 11.66986628 9.01197919 10.14236233 7.47851562 8.61523438 C6.50749107 7.64355027 5.53677608 6.67155669 4.56640625 5.69921875 C3.68927979 4.82096436 2.81215332 3.94270996 1.90844727 3.0378418 C0 1 0 1 0 0 Z " fill="#C1544E" transform="translate(45,294)"/>
<path d="M0 0 C0.4375 2.625 0.4375 2.625 0 6 C-2.05514787 8.368645 -4.47824831 10.15175963 -7 12 C-10.53837258 14.56361287 -10.53837258 14.56361287 -13 18 C-14.64551962 18.71727778 -16.31422289 19.38325228 -18 20 C-18.66 20.33 -19.32 20.66 -20 21 C-18.5450489 17.65215892 -16.70194509 15.45622627 -14.12109375 12.890625 C-13.36505859 12.13652344 -12.60902344 11.38242188 -11.83007812 10.60546875 C-11.04052734 9.82816406 -10.25097656 9.05085937 -9.4375 8.25 C-8.64408203 7.45722656 -7.85066406 6.66445312 -7.03320312 5.84765625 C-1.14025522 0 -1.14025522 0 0 0 Z " fill="#C45A49" transform="translate(29,194)"/>
<path d="M0 0 C-3.93864244 4.80094877 -7.54084227 8.95302824 -13 12 C-13.66 12 -14.32 12 -15 12 C-14.67 10.02 -14.34 8.04 -14 6 C-13.34 6 -12.68 6 -12 6 C-12 5.34 -12 4.68 -12 4 C-9.79666035 1.49064095 -7.95877329 -0.57701179 -4.875 -1.9375 C-3 -2 -3 -2 0 0 Z " fill="#F7FAF7" transform="translate(367,260)"/>
<path d="M0 0 C2.69082872 0.17635452 5.32851446 0.61835921 8 1 C6.43528652 4.84066037 3.93965873 7.13033315 1 10 C0.29875 10.928125 -0.4025 11.85625 -1.125 12.8125 C-1.74375 13.534375 -2.3625 14.25625 -3 15 C-3.99 15 -4.98 15 -6 15 C-6.33 15.99 -6.66 16.98 -7 18 C-8 15 -8 15 -7.4375 12.4375 C-6 10 -6 10 -2.875 8.6875 C-1.92625 8.460625 -0.9775 8.23375 0 8 C-0.2784375 6.2984375 -0.2784375 6.2984375 -0.5625 4.5625 C-0.706875 3.386875 -0.85125 2.21125 -1 1 C-0.67 0.67 -0.34 0.34 0 0 Z " fill="#CD4D34" transform="translate(210,305)"/>
<path d="M0 0 C2.875 0.25 2.875 0.25 6 1 C7.0625 2.8125 7.0625 2.8125 8 5 C8.825 5.66 9.65 6.32 10.5 7 C13.01039563 9.0083165 13.61432585 10.2286517 15 13 C17.0335948 14.26804566 17.0335948 14.26804566 19 15 C19 15.66 19 16.32 19 17 C19.66 17 20.32 17 21 17 C21 17.66 21 18.32 21 19 C21.639375 19.28875 22.27875 19.5775 22.9375 19.875 C25 21 25 21 26 23 C21.53366624 21.57370728 18.58160603 19.11826133 15.25 15.9375 C14.73211914 15.4523291 14.21423828 14.9671582 13.68066406 14.46728516 C4.04273658 5.38984023 4.04273658 5.38984023 0 1 C0 0.67 0 0.34 0 0 Z " fill="#C45C54" transform="translate(199,448)"/>
<path d="M0 0 C1.98 0 3.96 0 6 0 C5.67 1.98 5.34 3.96 5 6 C5.85464844 6.18175781 6.70929688 6.36351563 7.58984375 6.55078125 C9.24693359 6.92783203 9.24693359 6.92783203 10.9375 7.3125 C12.03964844 7.55613281 13.14179688 7.79976563 14.27734375 8.05078125 C15.62505859 8.52064453 15.62505859 8.52064453 17 9 C17.33 9.99 17.66 10.98 18 12 C18.66 12.33 19.32 12.66 20 13 C19.67 13.99 19.34 14.98 19 16 C18.0821875 15.45730469 17.164375 14.91460937 16.21875 14.35546875 C9.95332458 10.68940124 3.94863281 7.2235625 -3 5 C-2.01 4.34 -1.02 3.68 0 3 C0 2.01 0 1.02 0 0 Z " fill="#D14F36" transform="translate(243,98)"/>
<path d="M0 0 C0.70125 0.39832031 1.4025 0.79664063 2.125 1.20703125 C5.06242566 2.84735998 8.02083592 4.4368338 11 6 C11.66644531 6.35191406 12.33289063 6.70382812 13.01953125 7.06640625 C20.76297881 10.55854927 30.43949519 10.13263193 38.375 7.5 C39.57125 7.005 40.7675 6.51 42 6 C41 9 41 9 39.0546875 10.171875 C34.7223278 11.34637661 30.5931844 11.28925199 26.125 11.25 C25.25230469 11.25773437 24.37960937 11.26546875 23.48046875 11.2734375 C18.26677448 11.25775722 13.9346739 10.69419322 9 9 C9 8.34 9 7.68 9 7 C8.2575 6.9175 7.515 6.835 6.75 6.75 C3.45697405 5.85190201 2.14023212 4.61583926 0 2 C0 1.34 0 0.68 0 0 Z " fill="#BF574B" transform="translate(311,266)"/>
<path d="M0 0 C4.65296587 2.81342122 7.57480224 5.6965464 11 10 C12.62739052 11.71233672 14.30506424 13.35349098 16 15 C15.01 16.485 15.01 16.485 14 18 C9.125 15.375 9.125 15.375 8 12 C6.36370154 10.05202564 5.29319767 9.10348153 2.875 8.25 C1 7 1 7 0.25 3.375 C0.1675 2.26125 0.085 1.1475 0 0 Z " fill="#CA5846" transform="translate(186,109)"/>
<path d="M0 0 C3.47717781 2.68691013 4.08125616 5.81842757 5 10 C5.23259677 12.67756752 5.38079698 15.20259125 5.375 17.875 C5.37483887 18.57318848 5.37467773 19.27137695 5.37451172 19.99072266 C5.2272886 26.66535383 3.77504649 32.22495351 -1 37 C-1.495 35.515 -1.495 35.515 -2 34 C-1.360625 32.906875 -0.72125 31.81375 -0.0625 30.6875 C4.76942523 21.57539187 1.97839038 9.64465311 0 0 Z " fill="#FBDCCE" transform="translate(368,222)"/>
<path d="M0 0 C0.99 0.66 1.98 1.32 3 2 C2.57912109 2.3494165 2.15824219 2.69883301 1.72460938 3.05883789 C-5.40109819 9.12549364 -11.91202828 15.80185453 -18.5 22.4375 C-19.71591114 23.6584369 -20.93205516 24.87914192 -22.1484375 26.09960938 C-25.10164966 29.06374013 -28.05169398 32.03098958 -31 35 C-31.66 34.67 -32.32 34.34 -33 34 C-32.10692139 33.1121582 -31.21384277 32.22431641 -30.29370117 31.30957031 C-26.97572312 28.00971495 -23.66107411 24.70653273 -20.34741211 21.40234375 C-18.9137461 19.97370132 -17.47918315 18.54595838 -16.04370117 17.11914062 C-13.97858063 15.06617205 -11.91672471 13.00997284 -9.85546875 10.953125 C-9.21473923 10.31755676 -8.5740097 9.68198853 -7.91386414 9.02716064 C-5.04184193 6.15549974 -2.30356661 3.36533814 0 0 Z " fill="#C26E65" transform="translate(149,72)"/>
<path d="M0 0 C0.99 0 1.98 0 3 0 C3.33 0.99 3.66 1.98 4 3 C-0.95 7.95 -5.9 12.9 -11 18 C-11.33 17.01 -11.66 16.02 -12 15 C-11.01 14.01 -10.02 13.02 -9 12 C-9.33 11.34 -9.66 10.68 -10 10 C-8.35 10 -6.7 10 -5 10 C-5.33 8.35 -5.66 6.7 -6 5 C-2.25 3.875 -2.25 3.875 0 5 C0 3.35 0 1.7 0 0 Z " fill="#CE4E3D" transform="translate(348,370)"/>
<path d="M0 0 C0.33 0.66 0.66 1.32 1 2 C1.763125 2.28875 2.52625 2.5775 3.3125 2.875 C6 4 6 4 8 6.1875 C8.66 6.785625 9.32 7.38375 10 8 C12.70705512 7.85974801 12.70705512 7.85974801 15 7 C14.95875 8.11375 14.9175 9.2275 14.875 10.375 C14.58878141 14.04366025 14.58878141 14.04366025 17 16 C16.67 16.99 16.34 17.98 16 19 C13.35812146 16.4336037 10.94536321 13.93242291 8.625 11.0625 C5.80242724 7.59064533 2.46228649 4.81373138 -1 2 C-0.67 1.34 -0.34 0.68 0 0 Z " fill="#F9EAE4" transform="translate(169,89)"/>
<path d="M0 0 C3.3907519 1.45317939 5.41300312 3.41300312 8 6 C8.99 6.33 9.98 6.66 11 7 C11.309375 7.804375 11.61875 8.60875 11.9375 9.4375 C12.76608159 12.14157493 12.76608159 12.14157493 15.125 13.3125 C15.74375 13.539375 16.3625 13.76625 17 14 C17 15.65 17 17.3 17 19 C12.7018064 15.52838209 8.94240176 11.93838922 5.421875 7.6796875 C3.413167 5.30676321 1.22999835 3.16441016 -1 1 C-0.67 0.67 -0.34 0.34 0 0 Z " fill="#F9DED7" transform="translate(187,107)"/>
<path d="M0 0 C1.1875 3.5625 1.1875 3.5625 2 7 C3.98 7 5.96 7 8 7 C8.5534764 9.07553648 9 10.84365964 9 13 C1.47071278 10.34260451 -2.71798255 6.54896787 -7 0 C-3.98968256 -0.93423645 -3.13349732 -1.04449911 0 0 Z " fill="#F6E4DC" transform="translate(215,161)"/>
<path d="M0 0 C0.99 0.33 1.98 0.66 3 1 C0.05226582 3.99707817 -2.90191208 6.98760494 -5.86230469 9.97216797 C-6.86899728 10.98893399 -7.87388966 12.00748562 -8.87695312 13.02783203 C-10.31694371 14.49201218 -11.76323256 15.94970205 -13.2109375 17.40625 C-14.08024902 18.28603516 -14.94956055 19.16582031 -15.84521484 20.07226562 C-18 22 -18 22 -20 22 C-20 20 -20 20 -18 18 C-17.67 17.34 -17.34 16.68 -17 16 C-16.34 16.33 -15.68 16.66 -15 17 C-15 16.01 -15 15.02 -15 14 C-14.34 14 -13.68 14 -13 14 C-13 13.34 -13 12.68 -13 12 C-12.01 12 -11.02 12 -10 12 C-9.67 11.01 -9.34 10.02 -9 9 C-6.25147379 5.95433582 -3.82622743 3.5588334 0 2 C0 1.34 0 0.68 0 0 Z " fill="#CA594F" transform="translate(308,413)"/>
<path d="M0 0 C0.34375 2.13671875 0.34375 2.13671875 0 5 C-1.78663019 7.1491769 -3.46395503 8.93903847 -5.5 10.8125 C-6.02464844 11.31458984 -6.54929687 11.81667969 -7.08984375 12.33398438 C-8.38222532 13.56762133 -9.68969599 14.78541625 -11 16 C-12 13 -12 13 -11.1875 10.875 C-10 9 -10 9 -8 8 C-7.71125 7.21625 -7.4225 6.4325 -7.125 5.625 C-5.69068785 2.27827166 -3.82481358 0 0 0 Z " fill="#D54838" transform="translate(332,388)"/>
<path d="M0 0 C2.75 -0.3125 2.75 -0.3125 6 0 C10 4 10 4 10 7 C10.928125 7.0928125 10.928125 7.0928125 11.875 7.1875 C14 8 14 8 15.1875 10.125 C16.11356543 13.40184691 16.60246437 16.62094717 17 20 C15.37535118 17.9111658 13.90816575 15.84428106 12.5625 13.5625 C9.11994073 7.9167028 5.36220901 4.71229855 0 1 C0 0.67 0 0.34 0 0 Z " fill="#C55F52" transform="translate(256,306)"/>
<path d="M0 0 C2.64 0 5.28 0 8 0 C8.66 1.65 9.32 3.3 10 5 C9.34 5 8.68 5 8 5 C8 5.66 8 6.32 8 7 C9.98 7.66 11.96 8.32 14 9 C14 10.65 14 12.3 14 14 C9.10565787 9.90473413 4.29279666 5.73642915 0 1 C0 0.67 0 0.34 0 0 Z " fill="#F9F8F2" transform="translate(286,208)"/>
<path d="M0 0 C0.99 1.32 1.98 2.64 3 4 C-2.08597071 10.85120453 -2.08597071 10.85120453 -5.6875 11.4375 C-6.450625 11.293125 -7.21375 11.14875 -8 11 C-8.99 11 -9.98 11 -11 11 C-7.37 7.37 -3.74 3.74 0 0 Z " fill="#D4492F" transform="translate(44,180)"/>
<path d="M0 0 C5.5145187 3.78447362 10.26752738 8.04854728 15 12.75 C15.8820813 13.61854614 15.8820813 13.61854614 16.78198242 14.50463867 C21 18.75251392 21 18.75251392 21 21 C20.01 21 19.02 21 18 21 C17.5875 20.29875 17.175 19.5975 16.75 18.875 C14.08291523 14.49336074 10.19015167 11.74064456 6.2109375 8.578125 C4.77660505 7.4225017 3.3841143 6.21531987 2 5 C2 4.34 2 3.68 2 3 C1.01 3 0.02 3 -1 3 C-0.67 2.01 -0.34 1.02 0 0 Z " fill="#BE4943" transform="translate(255,6)"/>
<path d="M0 0 C0 1.66666667 0 3.33333333 0 5 C0.061875 6.134375 0.12375 7.26875 0.1875 8.4375 C0 12 0 12 -1.375 13.9375 C-3 15 -3 15 -5 15 C-5 14.34 -5 13.68 -5 13 C-5.66 13 -6.32 13 -7 13 C-6.65986985 7.55791766 -3.29703472 4.06331802 0 0 Z " fill="#DE5649" transform="translate(7,216)"/>
<path d="M0 0 C4.34015435 3.63155772 8.46063176 7.35299254 12.421875 11.39453125 C13.7328347 12.7282056 15.08080479 14.02537891 16.4375 15.3125 C18 17 18 17 18 19 C14.73810844 18.4376049 13.08865152 17.5859495 11 15 C10.67 14.01 10.34 13.02 10 12 C9.2575 11.5875 8.515 11.175 7.75 10.75 C4.19742477 8.48927031 2.06613284 5.64870267 0 2 C0 1.34 0 0.68 0 0 Z " fill="#B45752" transform="translate(438,188)"/>
<path d="M0 0 C1.66611905 -0.042721 3.33382885 -0.04063832 5 0 C5.33 0.33 5.66 0.66 6 1 C8.65653443 1.10002455 11.28129272 1.13877463 13.9375 1.125 C14.67935547 1.12886719 15.42121094 1.13273437 16.18554688 1.13671875 C20.22322878 1.21739668 20.22322878 1.21739668 24 0 C25.99960012 -0.039992 28.00047242 -0.04346799 30 0 C25.90340878 4.09659122 20.68040089 4.29394075 15.125 4.3125 C9.36065956 4.24533078 5.17638503 3.48466482 0 1 C0 0.67 0 0.34 0 0 Z " fill="#F9D5CB" transform="translate(322,272)"/>
<path d="M0 0 C0.66 0 1.32 0 2 0 C2.03738281 1.17175781 2.07476562 2.34351563 2.11328125 3.55078125 C2.46065453 12.3942084 3.04643897 20.56656159 6 29 C3 29 3 29 1.33081055 27.36621094 C-0.32861123 24.41572187 -0.34459606 22.51360944 -0.29296875 19.140625 C-0.28330078 18.02558594 -0.27363281 16.91054687 -0.26367188 15.76171875 C-0.23853516 14.60285156 -0.21339844 13.44398438 -0.1875 12.25 C-0.17396484 11.07566406 -0.16042969 9.90132812 -0.14648438 8.69140625 C-0.1111478 5.79380702 -0.06180979 2.89713573 0 0 Z " fill="#C75D55" transform="translate(273,128)"/>
<path d="M0 0 C-0.125 2.1875 -0.125 2.1875 -1 5 C-2.95927063 6.7143618 -4.95880212 8.38405168 -7 10 C-7.33 10.99 -7.66 11.98 -8 13 C-8.99 13 -9.98 13 -11 13 C-10.86409102 7.42773177 -8.56589519 5.03285868 -4.7890625 1.3203125 C-3 0 -3 0 0 0 Z " fill="#E04D3D" transform="translate(112,115)"/>
<path d="M0 0 C4.75 1.875 4.75 1.875 7 3 C7 3.99 7 4.98 7 6 C7.66 6 8.32 6 9 6 C9 11.94 9 17.88 9 24 C8.34 23.67 7.68 23.34 7 23 C6.71232959 20.51476492 6.53251504 18.11856552 6.4375 15.625 C6.22883692 10.23664857 6.22883692 10.23664857 5 5 C3.34051852 3.98812105 1.67419438 2.9873454 0 2 C0 1.34 0 0.68 0 0 Z " fill="#CD5447" transform="translate(214,169)"/>
<path d="M0 0 C0.33 0 0.66 0 1 0 C1.02689216 1.47906892 1.04634621 2.95827483 1.0625 4.4375 C1.07410156 5.26121094 1.08570313 6.08492188 1.09765625 6.93359375 C1 9 1 9 0 10 C-0.4869389 15.37897624 -0.03950421 19.96122489 2 25 C2.33 25.99 2.66 26.98 3 28 C2.34 28.33 1.68 28.66 1 29 C-1.69884514 23.60230973 -2.30158162 18.81214975 -2.3125 12.8125 C-2.31765625 12.12349609 -2.3228125 11.43449219 -2.328125 10.72460938 C-2.27390431 6.72389677 -1.75542332 3.60176497 0 0 Z " fill="#FBDDD8" transform="translate(204,325)"/>
<path d="M0 0 C-0.33 0.99 -0.66 1.98 -1 3 C-2.98 3.33 -4.96 3.66 -7 4 C-7 4.66 -7 5.32 -7 6 C-7.928125 6.12375 -7.928125 6.12375 -8.875 6.25 C-11.14785979 6.80581505 -11.14785979 6.80581505 -12.1875 8.875 C-12.83464059 10.56752155 -13.42698864 12.28096593 -14 14 C-14.99 14.495 -14.99 14.495 -16 15 C-16.33 15.99 -16.66 16.98 -17 18 C-17.66 18 -18.32 18 -19 18 C-16.93410595 9.5298344 -9.20468089 0 0 0 Z " fill="#FAD8D1" transform="translate(224,306)"/>
<path d="M0 0 C6.41069287 5.27101414 12.18590512 11.09128152 18 17 C17.34 17.33 16.68 17.66 16 18 C15.67 18.66 15.34 19.32 15 20 C15 18.68 15 17.36 15 16 C14.34 16 13.68 16 13 16 C13 15.34 13 14.68 13 14 C12.34 14 11.68 14 11 14 C11 13.34 11 12.68 11 12 C10.34 12 9.68 12 9 12 C9 11.34 9 10.68 9 10 C8.34 10 7.68 10 7 10 C7 9.34 7 8.68 7 8 C6.21625 7.79375 5.4325 7.5875 4.625 7.375 C2 6 2 6 0.6875 2.875 C0.460625 1.92625 0.23375 0.9775 0 0 Z " fill="#BB5E49" transform="translate(282,205)"/>
<path d="M0 0 C4 0 4 0 5.75 1.375 C7 3 7 3 7 5 C7.61875 5.04125 8.2375 5.0825 8.875 5.125 C9.57625 5.41375 10.2775 5.7025 11 6 C12.25 9.0625 12.25 9.0625 13 12 C13.66 12 14.32 12 15 12 C15.33 13.32 15.66 14.64 16 16 C10.35573231 11.31645873 4.9941954 6.3792354 0 1 C0 0.67 0 0.34 0 0 Z " fill="#C2554C" transform="translate(122,371)"/>
<path d="M0 0 C4.0555478 -0.34433896 7.95686082 -0.53765149 12 0 C14.56834049 2.68508324 16 4.22212653 16 8 C15.34 8 14.68 8 14 8 C14 7.34 14 6.68 14 6 C13.175 5.731875 12.35 5.46375 11.5 5.1875 C7.63084439 3.87475078 3.82005706 2.44898716 0 1 C0 0.67 0 0.34 0 0 Z " fill="#C95948" transform="translate(344,203)"/>
<path d="M0 0 C0.99 0.495 0.99 0.495 2 1 C2 1.66 2 2.32 2 3 C2.99 3.33 3.98 3.66 5 4 C7.6875 6.4375 7.6875 6.4375 10 9 C10 9.66 10 10.32 10 11 C10.99 11.33 11.98 11.66 13 12 C14.1875 14.0625 14.1875 14.0625 15 16 C12.1875 15.875 12.1875 15.875 9 15 C7.4375 12.25 7.4375 12.25 6 9 C5.13375 8.13375 4.2675 7.2675 3.375 6.375 C1.08830082 4.08830082 0.34819276 3.13373483 0 0 Z " fill="#F6CFC7" transform="translate(289,169)"/>
<path d="M0 0 C3.62483055 1.06612663 6.16106851 2.70370533 9.1875 4.9375 C6.17718256 5.87173645 5.32099732 5.98199911 2.1875 4.9375 C0.12131251 5.03018505 0.12131251 5.03018505 -2 5.375 C-3.258125 5.560625 -4.51625 5.74625 -5.8125 5.9375 C-5.8125 2.9375 -5.8125 2.9375 -4.6875 1.1875 C-2.8125 -0.0625 -2.8125 -0.0625 0 0 Z " fill="#D84D34" transform="translate(245.8125,0.0625)"/>
<path d="M0 0 C0.70125 0.721875 1.4025 1.44375 2.125 2.1875 C7.37295957 7.39135907 12.32271393 10.90465888 19 14 C20.33518903 14.66294229 21.66904121 15.32860523 23 16 C20.3333581 17.33332095 18.83319697 16.67102033 16 16 C16 15.34 16 14.68 16 14 C14.6696875 13.9071875 14.6696875 13.9071875 13.3125 13.8125 C9.18358962 12.7997484 7.82490092 11.11463435 5 8 C4.071875 7.319375 3.14375 6.63875 2.1875 5.9375 C1.465625 5.298125 0.74375 4.65875 0 4 C0 2.68 0 1.36 0 0 Z " fill="#C16453" transform="translate(207,358)"/>
<path d="M0 0 C0.99 0.33 1.98 0.66 3 1 C4.1875 3.5625 4.1875 3.5625 5 6 C5.99 5.67 6.98 5.34 8 5 C10.52259061 6.97420135 10.9929808 7.96745642 11.6875 11.1875 C11.790625 12.115625 11.89375 13.04375 12 14 C8.66950878 12.57369692 6.68261063 10.84985604 4.3125 8.125 C3.71050781 7.44695312 3.10851562 6.76890625 2.48828125 6.0703125 C0.99233806 3.98934166 0.4210244 2.50369174 0 0 Z " fill="#F3EBE1" transform="translate(206,354)"/>
<path d="M0 0 C0.99 0.33 1.98 0.66 3 1 C3 1.66 3 2.32 3 3 C3.88945312 3.38285156 3.88945312 3.38285156 4.796875 3.7734375 C7.21224538 5.11816498 8.51211706 6.49214367 10.25 8.625 C10.77078125 9.25664062 11.2915625 9.88828125 11.828125 10.5390625 C12.40820312 11.26222656 12.40820312 11.26222656 13 12 C12.34 13.32 11.68 14.64 11 16 C11 15.01 11 14.02 11 13 C10.01 13 9.02 13 8 13 C7.71125 12.2575 7.4225 11.515 7.125 10.75 C5.7398151 7.28490054 5.7398151 7.28490054 4 4 C3.01 3.67 2.02 3.34 1 3 C0.67 2.01 0.34 1.02 0 0 Z M6 13 C6.66 13.33 7.32 13.66 8 14 C7.01 14.66 6.02 15.32 5 16 C5.33 15.01 5.66 14.02 6 13 Z " fill="#F9E7E0" transform="translate(355,208)"/>
<path d="M0 0 C1.32 0 2.64 0 4 0 C4.33 1.32 4.66 2.64 5 4 C6.32 4.33 7.64 4.66 9 5 C9 5.66 9 6.32 9 7 C9.99 7.33 10.98 7.66 12 8 C12.33333333 9.33333333 12.66666667 10.66666667 13 12 C13.99 12.33 14.98 12.66 16 13 C15.67 13.99 15.34 14.98 15 16 C12.49599357 13.5248518 9.99748094 11.04423106 7.5 8.5625 C6.78457031 7.85544922 6.06914062 7.14839844 5.33203125 6.41992188 C4.65527344 5.74638672 3.97851562 5.07285156 3.28125 4.37890625 C2.65283203 3.7557251 2.02441406 3.13254395 1.37695312 2.49047852 C0 1 0 1 0 0 Z " fill="#C2564D" transform="translate(138,387)"/>
<path d="M0 0 C2.00720923 0.28674418 4.0085944 0.61866701 6 1 C6.33 1.99 6.66 2.98 7 4 C-2.39325843 7.20224719 -2.39325843 7.20224719 -6 6 C-4 4 -2 2 0 0 Z " fill="#E4462E" transform="translate(279,435)"/>
<path d="M0 0 C1.32 0.99 2.64 1.98 4 3 C2.78395887 4.32467011 1.55154778 5.63432405 0.3125 6.9375 C-0.37199219 7.66839844 -1.05648438 8.39929688 -1.76171875 9.15234375 C-4.23537632 11.19429843 -5.85043641 11.65249999 -9 12 C-9.33 11.34 -9.66 10.68 -10 10 C-8.35 10 -6.7 10 -5 10 C-5.33 8.35 -5.66 6.7 -6 5 C-2.25 3.875 -2.25 3.875 0 5 C0 3.35 0 1.7 0 0 Z " fill="#CC4D3D" transform="translate(316,402)"/>
<path d="M0 0 C2.99693138 0.99897713 4.02709413 1.65130253 6 4 C6 4.66 6 5.32 6 6 C6.66 6 7.32 6 8 6 C9.7265625 7.96875 9.7265625 7.96875 11.625 10.5 C12.25664063 11.3353125 12.88828125 12.170625 13.5390625 13.03125 C14.26222656 14.00578125 14.26222656 14.00578125 15 15 C14.67 15.66 14.34 16.32 14 17 C9.05 12.05 4.1 7.1 -1 2 C-0.67 1.34 -0.34 0.68 0 0 Z " fill="#BF544C" transform="translate(75,322)"/>
<path d="M0 0 C5.9370044 2.56311203 10.01523804 7.6023187 12.4375 13.5 C12.623125 14.325 12.80875 15.15 13 16 C9.52094954 14.84031651 9.18861128 14.16252073 7.375 11.125 C6.94960938 10.42632812 6.52421875 9.72765625 6.0859375 9.0078125 C5 7 5 7 4 4 C1.98491642 3.26676204 1.98491642 3.26676204 0 3 C0 2.01 0 1.02 0 0 Z " fill="#FADDD5" transform="translate(259,112)"/>
<path d="M0 0 C0.33 0 0.66 0 1 0 C1 1.65 1 3.3 1 5 C0.01 5.495 0.01 5.495 -1 6 C-1.433125 6.928125 -1.433125 6.928125 -1.875 7.875 C-3.21085048 10.39827313 -4.596054 11.49753375 -7 13 C-7.66 13 -8.32 13 -9 13 C-9 13.66 -9 14.32 -9 15 C-10.65 15 -12.3 15 -14 15 C-11.78339963 12.71413086 -9.44052838 10.66801808 -7 8.625 C-3.95899268 5.9969001 -1.85923664 3.60910643 0 0 Z " fill="#C65F52" transform="translate(368,257)"/>
<path d="M0 0 C6.58928571 2.19642857 6.58928571 2.19642857 8.4375 5.8125 C8.99232829 8.95652696 9.15167269 11.81487341 9 15 C8.57074219 14.42378906 8.14148438 13.84757812 7.69921875 13.25390625 C6.61272162 11.81273649 5.51236067 10.38184893 4.39453125 8.96484375 C3.87246094 8.29582031 3.35039062 7.62679687 2.8125 6.9375 C2.28269531 6.26589844 1.75289063 5.59429687 1.20703125 4.90234375 C0 3 0 3 0 0 Z " fill="#C15845" transform="translate(264,113)"/>
<path d="M0 0 C0.33 0 0.66 0 1 0 C1.79690262 17.84176416 1.79690262 17.84176416 -3 26 C-3.66 26.66 -4.32 27.32 -5 28 C-5 26.02 -5 24.04 -5 22 C-4.34 21.67 -3.68 21.34 -3 21 C-2.59270772 18.67843403 -2.25561323 16.3431213 -2 14 C-1.34 14 -0.68 14 0 14 C0 9.38 0 4.76 0 0 Z " fill="#FDE1D9" transform="translate(273,330)"/>
<path d="M0 0 C4.13371903 3.67441691 7.3543783 7.62501483 9 13 C8.6015625 15.24609375 8.6015625 15.24609375 8 17 C8 16.34 8 15.68 8 15 C7.34 15 6.68 15 6 15 C4.99267601 13.06629769 3.99436712 11.12789694 3 9.1875 C2.443125 8.10855469 1.88625 7.02960938 1.3125 5.91796875 C0 3 0 3 0 0 Z " fill="#FBDFD4" transform="translate(264,313)"/>
<path d="M0 0 C2.9719385 1.12451727 5.33440687 2.22293791 8 4 C8 4.66 8 5.32 8 6 C9.98 6.66 11.96 7.32 14 8 C13.34 9.32 12.68 10.64 12 12 C7.47384007 8.32167983 3.60575001 4.58913637 0 0 Z " fill="#C8564D" transform="translate(27,276)"/>
<path d="M0 0 C2.00720923 0.28674418 4.0085944 0.61866701 6 1 C5.06725891 2.12894876 4.12859878 3.25300876 3.1875 4.375 C2.66542969 5.00148438 2.14335937 5.62796875 1.60546875 6.2734375 C0 8 0 8 -3 10 C-3.66 8.68 -4.32 7.36 -5 6 C-4.34 6 -3.68 6 -3 6 C-2.67 5.34 -2.34 4.68 -2 4 C-2 4.66 -2 5.32 -2 6 C-1.34 6 -0.68 6 0 6 C-0.2784375 4.7934375 -0.2784375 4.7934375 -0.5625 3.5625 C-0.706875 2.716875 -0.85125 1.87125 -1 1 C-0.67 0.67 -0.34 0.34 0 0 Z " fill="#D04F3F" transform="translate(455,262)"/>
<path d="M0 0 C5.66129431 4.69766975 10.85228904 9.74723372 16 15 C15.34 15.66 14.68 16.32 14 17 C12.5 15.625 12.5 15.625 11 14 C11 13.34 11 12.68 11 12 C10.34 12 9.68 12 9 12 C9 11.34 9 10.68 9 10 C8.34 10 7.68 10 7 10 C7 9.34 7 8.68 7 8 C5.68 7.67 4.36 7.34 3 7 C3 6.01 3 5.02 3 4 C2.34 4 1.68 4 1 4 C0.67 2.68 0.34 1.36 0 0 Z " fill="#BB5D4C" transform="translate(266,189)"/>
<path d="M0 0 C1.32 0.33 2.64 0.66 4 1 C4 1.99 4 2.98 4 4 C4.5775 4.268125 5.155 4.53625 5.75 4.8125 C8.12367963 6.06527536 10.06206571 7.13127765 12 9 C12.25 11.6875 12.25 11.6875 12 14 C9.07648458 11.82824569 6.59700829 9.6341397 4.3125 6.8125 C2.30609749 3.98352767 2.30609749 3.98352767 0 3 C0 2.01 0 1.02 0 0 Z " fill="#C55D50" transform="translate(203,81)"/>
<path d="M0 0 C0 3.64960364 -1.01458657 4.98511294 -3 8 C-3.6496875 9.11375 -3.6496875 9.11375 -4.3125 10.25 C-6.65098821 12.67509888 -8.72373618 12.70877655 -12 13 C-8.19524578 8.43969176 -4.25030379 4.14910608 0 0 Z " fill="#C44335" transform="translate(93,131)"/>
<path d="M0 0 C3.08403417 1.19934662 6.06088917 2.47977026 9 4 C9.66 4.33 10.32 4.66 11 5 C11.72693904 6.97888961 12.39816251 8.97954558 13 11 C9.59509942 10.74778514 8.83498757 9.81436101 6.5 7.1875 C6.08363281 6.65253906 5.66726562 6.11757812 5.23828125 5.56640625 C3.64421437 3.54993679 1.84955002 1.78104817 0 0 Z " fill="#F8DFD7" transform="translate(155,77)"/>
<path d="M0 0 C0.99 0.33 1.98 0.66 3 1 C2.67 1.66 2.34 2.32 2 3 C1.34 3 0.68 3 0 3 C0 3.66 0 4.32 0 5 C-0.66 5 -1.32 5 -2 5 C-2.2475 5.61875 -2.495 6.2375 -2.75 6.875 C-4.20628639 9.35068687 -5.37812506 9.95125002 -8 11 C-8 11.66 -8 12.32 -8 13 C-8.66 13 -9.32 13 -10 13 C-10 12.01 -10 11.02 -10 10 C-9.34 10 -8.68 10 -8 10 C-7.34 8.68 -6.68 7.36 -6 6 C-5.01 6 -4.02 6 -3 6 C-2.67 4.68 -2.34 3.36 -2 2 C-1.34 2 -0.68 2 0 2 C0 1.34 0 0.68 0 0 Z " fill="#C2524A" transform="translate(423,298)"/>
<path d="M0 0 C1.98 0.66 3.96 1.32 6 2 C6 2.66 6 3.32 6 4 C7.32 4.66 8.64 5.32 10 6 C10 6.99 10 7.98 10 9 C11.32 9.33 12.64 9.66 14 10 C13.67 10.99 13.34 11.98 13 13 C8.11950075 9.0580583 3.9419417 4.88049925 0 0 Z " fill="#FBE3D9" transform="translate(260,182)"/>
<path d="M0 0 C0 3.15081975 -0.27898465 4.41847698 -2 7 C-4.125 7.75 -4.125 7.75 -6 8 C-6 8.66 -6 9.32 -6 10 C-7.53125 11.5078125 -7.53125 11.5078125 -9.5 13.125 C-10.1496875 13.66382813 -10.799375 14.20265625 -11.46875 14.7578125 C-11.9740625 15.16773438 -12.479375 15.57765625 -13 16 C-13.66 15.67 -14.32 15.34 -15 15 C-10.05 10.05 -5.1 5.1 0 0 Z " fill="#C04034" transform="translate(205,19)"/>
<path d="M0 0 C0.66 0 1.32 0 2 0 C2 0.66 2 1.32 2 2 C2.9075 2.28875 3.815 2.5775 4.75 2.875 C7.32202908 3.76531776 9.61346766 4.71494413 12 6 C12 7.65 12 9.3 12 11 C7.13009871 8.22226504 3.17785262 5.76677893 0 1 C0 0.67 0 0.34 0 0 Z " fill="#F8E1D9" transform="translate(308,261)"/>
<path d="M0 0 C-0.44479039 5.04095775 -2.66154153 7.41115715 -6 11 C-6.33 11 -6.66 11 -7 11 C-7.3125 7.75 -7.3125 7.75 -7 4 C-3.1025641 0 -3.1025641 0 0 0 Z " fill="#C75948" transform="translate(474,245)"/>
<path d="M0 0 C4.80172134 1.10808954 7.91161335 2.04686508 11 6 C11 6.66 11 7.32 11 8 C11.66 8 12.32 8 13 8 C13 8.66 13 9.32 13 10 C12.01 10.33 11.02 10.66 10 11 C9.61328125 10.54109375 9.2265625 10.0821875 8.828125 9.609375 C5.99804049 6.274919 3.15638645 3.03498697 0 0 Z " fill="#BF5E4D" transform="translate(278,158)"/>
<path d="M0 0 C0.66 0.33 1.32 0.66 2 1 C1.67 2.65 1.34 4.3 1 6 C0.34 6 -0.32 6 -1 6 C-0.95875 7.2375 -0.9175 8.475 -0.875 9.75 C-0.7638784 13.08364791 -1.34123921 15.1004339 -3 18 C-3.0809723 15.56183415 -3.14046972 13.12635616 -3.1875 10.6875 C-3.21263672 9.99720703 -3.23777344 9.30691406 -3.26367188 8.59570312 C-3.33834499 3.44325817 -3.33834499 3.44325817 -1.48828125 1.01953125 C-0.99714844 0.68308594 -0.50601562 0.34664062 0 0 Z " fill="#CF4D37" transform="translate(278,128)"/>
<path d="M0 0 C3.29159316 -0.05790353 6.58305603 -0.09356261 9.875 -0.125 C10.81214844 -0.14175781 11.74929687 -0.15851563 12.71484375 -0.17578125 C13.61074219 -0.18222656 14.50664062 -0.18867187 15.4296875 -0.1953125 C16.25710449 -0.20578613 17.08452148 -0.21625977 17.93701172 -0.22705078 C20 0 20 0 22 2 C20.85724609 1.98259766 20.85724609 1.98259766 19.69140625 1.96484375 C13.36159678 1.90952706 7.27444451 2.1634074 1 3 C0.67 2.01 0.34 1.02 0 0 Z " fill="#B85E54" transform="translate(224,103)"/>
<path d="M0 0 C2.875 0.25 2.875 0.25 6 1 C7.0625 2.8125 7.0625 2.8125 8 5 C10.53442406 7.22816986 10.53442406 7.22816986 13 9 C11.296875 9.7734375 11.296875 9.7734375 9 10 C6.640625 8.1640625 6.640625 8.1640625 4.25 5.625 C3.45078125 4.79226563 2.6515625 3.95953125 1.828125 3.1015625 C0 1 0 1 0 0 Z " fill="#C7544A" transform="translate(199,448)"/>
<path d="M0 0 C0.99 0.33 1.98 0.66 3 1 C2.48050781 1.50789063 1.96101563 2.01578125 1.42578125 2.5390625 C-2.6224371 6.53490094 -6.44650891 10.55813614 -10 15 C-10.33 14.01 -10.66 13.02 -11 12 C-10.34 12 -9.68 12 -9 12 C-8.71125 11.4225 -8.4225 10.845 -8.125 10.25 C-7.08333333 8.16666667 -6.04166667 6.08333333 -5 4 C-4.01 4 -3.02 4 -2 4 C-1.34 2.68 -0.68 1.36 0 0 Z " fill="#D25C4E" transform="translate(281,439)"/>
<path d="M0 0 C0.99 0.33 1.98 0.66 3 1 C-0.63 4.63 -4.26 8.26 -8 12 C-9.2077558 8.37673261 -8.54311128 7.35853631 -7 4 C-5.35 4 -3.7 4 -2 4 C-2 3.34 -2 2.68 -2 2 C-1.34 2 -0.68 2 0 2 C0 1.34 0 0.68 0 0 Z " fill="#C14F46" transform="translate(441,280)"/>
<path d="M0 0 C0.66 0.99 1.32 1.98 2 3 C1.34 3 0.68 3 0 3 C-0.185625 3.556875 -0.37125 4.11375 -0.5625 4.6875 C-2.66360714 8.06754192 -5.70665994 9.85140381 -9 12 C-9.66 11.67 -10.32 11.34 -11 11 C-7.37 7.37 -3.74 3.74 0 0 Z " fill="#C44530" transform="translate(76,148)"/>
<path d="M0 0 C0.99 0 1.98 0 3 0 C3 0.66 3 1.32 3 2 C3.99 2.33 4.98 2.66 6 3 C7.45132327 4.46797325 8.84226398 5.99673349 10.1875 7.5625 C11.26064453 8.80193359 11.26064453 8.80193359 12.35546875 10.06640625 C12.89816406 10.70449219 13.44085938 11.34257812 14 12 C13.67 12.66 13.34 13.32 13 14 C10.83031809 11.85714108 8.66416525 9.71091768 6.5 7.5625 C5.87996094 6.95083984 5.25992188 6.33917969 4.62109375 5.70898438 C4.03457031 5.12568359 3.44804688 4.54238281 2.84375 3.94140625 C2.02680664 3.13231812 2.02680664 3.13231812 1.19335938 2.30688477 C0 1 0 1 0 0 Z " fill="#BF544E" transform="translate(92,341)"/>
<path d="M0 0 C3.3 0.33 6.6 0.66 10 1 C10.33 1.99 10.66 2.98 11 4 C11.66 4.33 12.32 4.66 13 5 C12.67 5.99 12.34 6.98 12 8 C9.99743426 6.85865673 7.99800203 5.71181367 6 4.5625 C4.88625 3.92441406 3.7725 3.28632812 2.625 2.62890625 C1.75875 2.09136719 0.8925 1.55382812 0 1 C0 0.67 0 0.34 0 0 Z " fill="#C36857" transform="translate(250,106)"/>
<path d="M0 0 C-1 3 -1 3 -3.375 4.1875 C-6 5 -6 5 -9 5 C-9 5.66 -9 6.32 -9 7 C-9.66 7 -10.32 7 -11 7 C-10.9375 5.25 -10.9375 5.25 -10 3 C-6.69928831 0.41203839 -4.20321079 -1.40107026 0 0 Z " fill="#BF5B56" transform="translate(229,1)"/>
<path d="M0 0 C-1.20381448 2.49361571 -2.45428722 4.68143083 -4 7 C-4.99 7 -5.98 7 -7 7 C-7.33 7.99 -7.66 8.98 -8 10 C-9 7 -9 7 -8.3125 4.4375 C-6.25931284 0.62443813 -4.22851835 0 0 0 Z " fill="#C95947" transform="translate(211,313)"/>
<path d="M0 0 C3.21524305 1.40844718 5.32183868 3.10344786 7.75 5.625 C8.67039062 6.57246094 8.67039062 6.57246094 9.609375 7.5390625 C10.29773438 8.26222656 10.29773438 8.26222656 11 9 C10.34 9.66 9.68 10.32 9 11 C6.5 9.1875 6.5 9.1875 4 7 C4 6.01 4 5.02 4 4 C2.68 4 1.36 4 0 4 C0 2.68 0 1.36 0 0 Z " fill="#BB5C4A" transform="translate(255,179)"/>
<path d="M0 0 C1.7074998 1.28062485 3.37373596 2.61767557 5 4 C5 4.66 5 5.32 5 6 C5.99 6.33 6.98 6.66 8 7 C8 7.66 8 8.32 8 9 C8.66 9.33 9.32 9.66 10 10 C6.6875 9.875 6.6875 9.875 3 9 C0.83577992 5.78857666 0 3.87553592 0 0 Z " fill="#F6E0D1" transform="translate(174,54)"/>
<path d="M0 0 C2.96175123 0.61277612 4.38058783 1.25372522 7 3 C7 3.66 7 4.32 7 5 C7.66 5 8.32 5 9 5 C9.33 6.98 9.66 8.96 10 11 C9.34 10.67 8.68 10.34 8 10 C8 9.34 8 8.68 8 8 C7.34 8 6.68 8 6 8 C4.4921875 6.50390625 4.4921875 6.50390625 2.875 4.5625 C2.33617187 3.92441406 1.79734375 3.28632812 1.2421875 2.62890625 C0 1 0 1 0 0 Z " fill="#C56051" transform="translate(192,71)"/>
<path d="M0 0 C1.32 0.66 2.64 1.32 4 2 C3.04578192 3.14926266 2.08647955 4.29430541 1.125 5.4375 C0.59132813 6.07558594 0.05765625 6.71367187 -0.4921875 7.37109375 C-2 9 -2 9 -4 10 C-4 9.01 -4 8.02 -4 7 C-4.66 6.34 -5.32 5.68 -6 5 C-2.25 3.875 -2.25 3.875 0 5 C0 3.35 0 1.7 0 0 Z " fill="#CB503F" transform="translate(364,354)"/>
<path d="M0 0 C0.66 0.66 1.32 1.32 2 2 C-0.31 4.31 -2.62 6.62 -5 9 C-6 6 -6 6 -6 3 C-5.67 2.34 -5.34 1.68 -5 1 C-2.5625 0.25 -2.5625 0.25 0 0 Z " fill="#C85044" transform="translate(374,347)"/>
<path d="M0 0 C0.66 0 1.32 0 2 0 C2.05423638 1.91635217 2.09289963 3.83314925 2.125 5.75 C2.14820313 6.81734375 2.17140625 7.8846875 2.1953125 8.984375 C2.00487687 11.92470106 1.52670104 13.52361878 0 16 C-0.66 14.35 -1.32 12.7 -2 11 C-1.67 10.67 -1.34 10.34 -1 10 C-0.76712992 8.31816052 -0.58735834 6.6287584 -0.4375 4.9375 C-0.35371094 4.01839844 -0.26992188 3.09929687 -0.18359375 2.15234375 C-0.12300781 1.44207031 -0.06242187 0.73179687 0 0 Z " fill="#CA4D3A" transform="translate(298,231)"/>
<path d="M0 0 C1.485 0.99 1.485 0.99 3 2 C2.34 8.6 1.68 15.2 1 22 C0.67 22 0.34 22 0 22 C0 14.74 0 7.48 0 0 Z " fill="#CA756D" transform="translate(300,223)"/>
<path d="M0 0 C1.32 0 2.64 0 4 0 C6 3 6 3 6 6 C6.99 6.33 7.98 6.66 9 7 C8.67 8.32 8.34 9.64 8 11 C7.59007812 10.50628906 7.18015625 10.01257813 6.7578125 9.50390625 C6.21898437 8.86324219 5.68015625 8.22257813 5.125 7.5625 C4.59132813 6.92441406 4.05765625 6.28632813 3.5078125 5.62890625 C2.0777243 3.89194996 2.0777243 3.89194996 0 3 C0 2.01 0 1.02 0 0 Z " fill="#C4594D" transform="translate(291,169)"/>
<path d="M0 0 C0.66 1.32 1.32 2.64 2 4 C-0.31 5.98 -2.62 7.96 -5 10 C-5.33 8.68 -5.66 7.36 -6 6 C-4.78515625 4.296875 -4.78515625 4.296875 -3.0625 2.75 C-2.21365234 1.96882813 -2.21365234 1.96882813 -1.34765625 1.171875 C-0.90292969 0.78515625 -0.45820312 0.3984375 0 0 Z " fill="#CD4830" transform="translate(124,100)"/>
<path d="M0 0 C1.9375 0.3125 1.9375 0.3125 4 1 C4.33 1.99 4.66 2.98 5 4 C7.01508358 4.73323796 7.01508358 4.73323796 9 5 C9.33 6.98 9.66 8.96 10 11 C9.34 10.67 8.68 10.34 8 10 C8 9.34 8 8.68 8 8 C7.34 8 6.68 8 6 8 C4.4921875 6.25 4.4921875 6.25 2.875 4 C2.33617187 3.2575 1.79734375 2.515 1.2421875 1.75 C0.62730469 0.88375 0.62730469 0.88375 0 0 Z " fill="#C45D4F" transform="translate(176,55)"/>
<path d="M0 0 C0.75 1.9375 0.75 1.9375 1 4 C0.67 4.66 0.34 5.32 0 6 C-3.36720387 4.60667426 -4.9859524 3.0210714 -7 0 C-3.98968256 -0.93423645 -3.13349732 -1.04449911 0 0 Z " fill="#F7F0E8" transform="translate(215,161)"/>
<path d="M0 0 C0.33 0.66 0.66 1.32 1 2 C1.78375 2.28875 2.5675 2.5775 3.375 2.875 C6.33946122 4.14548338 7.37208332 5.25824559 9 8 C9 8.66 9 9.32 9 10 C9.66 10 10.32 10 11 10 C10.67 10.99 10.34 11.98 10 13 C9.484375 12.29875 8.96875 11.5975 8.4375 10.875 C5.58060284 7.50532643 2.41128003 4.78843396 -1 2 C-0.67 1.34 -0.34 0.68 0 0 Z " fill="#F8D5CF" transform="translate(169,89)"/>
<path d="M0 0 C2.375 0.25 2.375 0.25 5 1 C6.0625 2.9375 6.0625 2.9375 7 5 C9.0335948 6.26804566 9.0335948 6.26804566 11 7 C10.67 8.32 10.34 9.64 10 11 C8.33035479 9.35718838 6.6643536 7.71067239 5 6.0625 C4.071875 5.14597656 3.14375 4.22945313 2.1875 3.28515625 C0 1 0 1 0 0 Z " fill="#C75D55" transform="translate(167,416)"/>
<path d="M0 0 C0.99 0 1.98 0 3 0 C3.12375 0.639375 3.2475 1.27875 3.375 1.9375 C3.684375 2.9584375 3.684375 2.9584375 4 4 C4.66 4.33 5.32 4.66 6 5 C6 5.66 6 6.32 6 7 C6.99 7.33 7.98 7.66 9 8 C9.6875 10.0625 9.6875 10.0625 10 12 C5.86378916 8.6189962 2.18683431 5.33409466 -1 1 C-0.67 0.67 -0.34 0.34 0 0 Z " fill="#C2554F" transform="translate(17,264)"/>
<path d="M0 0 C3.5718623 3.5718623 4 8.10186234 4 13 C3.01 13 2.02 13 1 13 C0.67 8.71 0.34 4.42 0 0 Z " fill="#C15649" transform="translate(299,243)"/>
<path d="M0 0 C1.98 0.66 3.96 1.32 6 2 C6 2.66 6 3.32 6 4 C6.99 4.33 7.98 4.66 9 5 C9.33 6.65 9.66 8.3 10 10 C2.51708428 3.84965831 2.51708428 3.84965831 0 0 Z " fill="#FBE5D7" transform="translate(276,198)"/>
<path d="M0 0 C3.94455388 2.07608099 4.91100178 2.82200357 7 7 C4.03 6.67 1.06 6.34 -2 6 C-1.34 4.02 -0.68 2.04 0 0 Z " fill="#D05035" transform="translate(162,87)"/>
<path d="M0 0 C2.375 0.1875 2.375 0.1875 5 1 C6.3125 3.5625 6.3125 3.5625 7 6 C7.66 6 8.32 6 9 6 C9.33 7.32 9.66 8.64 10 10 C2.51708428 3.84965831 2.51708428 3.84965831 0 0 Z " fill="#C1534F" transform="translate(112,361)"/>
<path d="M0 0 C0.66 0 1.32 0 2 0 C1.54636829 1.58468677 1.08688548 3.16769924 0.625 4.75 C0.36976563 5.63171875 0.11453125 6.5134375 -0.1484375 7.421875 C-1 10 -1 10 -3 14 C-3 10.37 -3 6.74 -3 3 C-2.01 3 -1.02 3 0 3 C0 2.01 0 1.02 0 0 Z " fill="#BA5B4A" transform="translate(204,320)"/>
<path d="M0 0 C0.99 0 1.98 0 3 0 C1.84906278 3.45281166 0.6794007 4.38082163 -2.0625 6.6875 C-2.79597656 7.31011719 -3.52945312 7.93273437 -4.28515625 8.57421875 C-4.85105469 9.04472656 -5.41695313 9.51523437 -6 10 C-6.33 9.01 -6.66 8.02 -7 7 C-6.360625 6.731875 -5.72125 6.46375 -5.0625 6.1875 C-2.66868314 5.11332248 -2.66868314 5.11332248 -2 2 C-1.34 2 -0.68 2 0 2 C0 1.34 0 0.68 0 0 Z " fill="#BE5549" transform="translate(399,322)"/>
<path d="M0 0 C-1.1427919 1.16964602 -2.28931715 2.33564556 -3.4375 3.5 C-4.07558594 4.1496875 -4.71367187 4.799375 -5.37109375 5.46875 C-7 7 -7 7 -8 7 C-8 5.02 -8 3.04 -8 1 C-3.375 -1.125 -3.375 -1.125 0 0 Z " fill="#C55146" transform="translate(452,273)"/>
<path d="M0 0 C0.33 0 0.66 0 1 0 C1.144375 1.11375 1.28875 2.2275 1.4375 3.375 C1.78372035 6.82142047 1.78372035 6.82142047 3 9 C2.01 9 1.02 9 0 9 C0 10.32 0 11.64 0 13 C-0.66 13 -1.32 13 -2 13 C-2.16682272 8.07872966 -2.24828052 4.49656104 0 0 Z " fill="#D45648" transform="translate(372,248)"/>
<path d="M0 0 C4.67692308 1.47692308 4.67692308 1.47692308 6.3125 4.125 C6.539375 4.74375 6.76625 5.3625 7 6 C3.79604584 6 1.90600261 5.25664978 -1 4 C-0.67 2.68 -0.34 1.36 0 0 Z " fill="#C14F47" transform="translate(411,163)"/>
<path d="M0 0 C0.99 0.33 1.98 0.66 3 1 C3 1.66 3 2.32 3 3 C3.99 3.33 4.98 3.66 6 4 C6.33 4.99 6.66 5.98 7 7 C4.625 7.1875 4.625 7.1875 2 7 C0 4 0 4 0 0 Z " fill="#F7DAD3" transform="translate(280,161)"/>
<path d="M0 0 C0.99 0.33 1.98 0.66 3 1 C0.36 3.64 -2.28 6.28 -5 9 C-5.66 8.01 -6.32 7.02 -7 6 C-6.67 5.34 -6.34 4.68 -6 4 C-5.360625 3.855625 -4.72125 3.71125 -4.0625 3.5625 C-1.61789145 3.13834965 -1.61789145 3.13834965 0 0 Z " fill="#CB5342" transform="translate(264,456)"/>
<path d="M0 0 C3.83219177 1.56126332 6.17361222 4.02866925 9 7 C9.598125 7.598125 10.19625 8.19625 10.8125 8.8125 C11.204375 9.204375 11.59625 9.59625 12 10 C11.67 10.66 11.34 11.32 11 12 C9.16364422 10.19047409 7.33083792 8.37759362 5.5 6.5625 C4.97535156 6.04623047 4.45070312 5.52996094 3.91015625 4.99804688 C2.58775448 3.68423213 1.29164432 2.34406495 0 1 C0 0.67 0 0.34 0 0 Z " fill="#C45E55" transform="translate(154,403)"/>
<path d="M0 0 C0.66 0 1.32 0 2 0 C2.268125 0.969375 2.53625 1.93875 2.8125 2.9375 C3.204375 3.948125 3.59625 4.95875 4 6 C4.99 6.33 5.98 6.66 7 7 C6.67 8.32 6.34 9.64 6 11 C3.02753198 8.45217026 1.58464712 5.54659117 0 2 C0 1.34 0 0.68 0 0 Z " fill="#FCE4DA" transform="translate(302,250)"/>
<path d="M0 0 C1.1055189 0.93590504 2.20935453 1.87379858 3.3125 2.8125 C3.92738281 3.33457031 4.54226563 3.85664063 5.17578125 4.39453125 C6.85424679 5.87172469 8.43882034 7.40039131 10 9 C9.67 9.66 9.34 10.32 9 11 C1.31509847 5.9059081 1.31509847 5.9059081 0 2.125 C0 1.42375 0 0.7225 0 0 Z " fill="#AE5650" transform="translate(425,175)"/>
<path d="M0 0 C3.28788824 3.11016455 5.83735988 6.01618925 8 10 C6.68 10 5.36 10 4 10 C3.67 9.01 3.34 8.02 3 7 C2.34 6.67 1.68 6.34 1 6 C0.375 2.9375 0.375 2.9375 0 0 Z " fill="#C46254" transform="translate(206,159)"/>
<path d="M0 0 C1.32 0 2.64 0 4 0 C4 0.66 4 1.32 4 2 C4.99 2 5.98 2 7 2 C7.33 3.65 7.66 5.3 8 7 C4.2047869 5.50902342 2.38957269 3.24299151 0 0 Z " fill="#C95C52" transform="translate(178,427)"/>
<path d="M0 0 C1.98 0 3.96 0 6 0 C5.04578192 1.14926266 4.08647955 2.29430541 3.125 3.4375 C2.59132813 4.07558594 2.05765625 4.71367187 1.5078125 5.37109375 C0 7 0 7 -2 8 C-1.33333333 5.33333333 -0.66666667 2.66666667 0 0 Z " fill="#C04F44" transform="translate(322,396)"/>
<path d="M0 0 C1.98 0 3.96 0 6 0 C5.04578192 1.14926266 4.08647955 2.29430541 3.125 3.4375 C2.59132813 4.07558594 2.05765625 4.71367187 1.5078125 5.37109375 C0 7 0 7 -2 8 C-1.33333333 5.33333333 -0.66666667 2.66666667 0 0 Z " fill="#C35144" transform="translate(354,364)"/>
<path d="M0 0 C1.66666667 0 3.33333333 0 5 0 C4.34 1.98 3.68 3.96 3 6 C2.01 6 1.02 6 0 6 C-0.38218767 4.34385343 -0.71395102 2.67542976 -1 1 C-0.67 0.67 -0.34 0.34 0 0 Z " fill="#D94B27" transform="translate(10,214)"/>
<path d="M0 0 C1.1055189 0.93590504 2.20935453 1.87379858 3.3125 2.8125 C3.92738281 3.33457031 4.54226563 3.85664063 5.17578125 4.39453125 C6.85424679 5.87172469 8.43882034 7.40039131 10 9 C9.67 9.66 9.34 10.32 9 11 C7.49117739 9.73965413 5.99315956 8.46636351 4.5 7.1875 C3.6646875 6.47980469 2.829375 5.77210938 1.96875 5.04296875 C0 3 0 3 0 0 Z " fill="#B4544D" transform="translate(457,208)"/>
<path d="M0 0 C0.66 0.33 1.32 0.66 2 1 C2 1.66 2 2.32 2 3 C2.99 3.33 3.98 3.66 5 4 C5.33 4.99 5.66 5.98 6 7 C4.35 7 2.7 7 1 7 C-0.0625 4.625 -0.0625 4.625 -1 2 C-0.67 1.34 -0.34 0.68 0 0 Z " fill="#F6DAD2" transform="translate(313,193)"/>
<path d="M0 0 C4.57478244 2.0214155 7.61831569 4.31993178 11 8 C10.67 8.66 10.34 9.32 10 10 C9.608125 9.566875 9.21625 9.13375 8.8125 8.6875 C7.00156582 6.86824774 7.00156582 6.86824774 4.4375 5.5625 C1.84222021 3.89885911 1.07434297 2.83235875 0 0 Z " fill="#B1504B" transform="translate(393,145)"/>
<path d="M0 0 C8.36628849 7.05024311 8.36628849 7.05024311 11 10 C11 10.66 11 11.32 11 12 C10.01 12 9.02 12 8 12 C6.96564444 10.35443434 5.97236487 8.6829392 5 7 C4.113125 6.113125 3.22625 5.22625 2.3125 4.3125 C1.549375 3.549375 0.78625 2.78625 0 2 C0 1.34 0 0.68 0 0 Z " fill="#B56460" transform="translate(265,15)"/>
<path d="M0 0 C0.33 0.66 0.66 1.32 1 2 C2.98 2 4.96 2 7 2 C7 3.32 7 4.64 7 6 C6.34 6.66 5.68 7.32 5 8 C3.02 5.69 1.04 3.38 -1 1 C-0.67 0.67 -0.34 0.34 0 0 Z " fill="#CE5D55" transform="translate(193,440)"/>
<path d="M0 0 C2.3125 -0.3125 2.3125 -0.3125 5 0 C6.8125 2.5 6.8125 2.5 8 5 C5.125 4.75 5.125 4.75 2 4 C0.625 1.9375 0.625 1.9375 0 0 Z " fill="#FAE2DC" transform="translate(296,180)"/>
<path d="M0 0 C2.04119788 1.61594832 4.04072937 3.2856382 6 5 C6 5.66 6 6.32 6 7 C6.66 7.33 7.32 7.66 8 8 C5.69 7.67 3.38 7.34 1 7 C0.67 4.69 0.34 2.38 0 0 Z " fill="#F5E2D4" transform="translate(208,88)"/>
<path d="M0 0 C2.04119788 1.61594832 4.04072937 3.2856382 6 5 C6 5.66 6 6.32 6 7 C6.66 7.33 7.32 7.66 8 8 C5.69 7.67 3.38 7.34 1 7 C0.67 4.69 0.34 2.38 0 0 Z " fill="#F5E2D4" transform="translate(192,72)"/>
<path d="M0 0 C0 3.63563409 -0.82542733 5.12645755 -3 8 C-4.32 8 -5.64 8 -7 8 C-6.02133662 6.85373678 -5.04205413 5.70800212 -4.0625 4.5625 C-3.51722656 3.92441406 -2.97195312 3.28632812 -2.41015625 2.62890625 C-1.63204305 1.73008851 -0.84063472 0.84063472 0 0 Z " fill="#C54135" transform="translate(189,35)"/>
<path d="M0 0 C4.43090471 1.20842856 6.98112756 2.51668565 10 6 C5.87248551 5.39301257 2.6678852 3.96189209 -1 2 C-0.67 1.34 -0.34 0.68 0 0 Z " fill="#BB6355" transform="translate(245,0)"/>
<path d="M0 0 C1.65 0 3.3 0 5 0 C3.50902342 3.7952131 1.24299151 5.61042731 -2 8 C-1.42655063 5.13275314 -1.1385485 4.1385485 1 2 C0.67 1.34 0.34 0.68 0 0 Z " fill="#C04F43" transform="translate(338,380)"/>
<path d="M0 0 C-1.49097658 3.7952131 -3.75700849 5.61042731 -7 8 C-7.66 7.34 -8.32 6.68 -9 6 C-8.34 6 -7.68 6 -7 6 C-7 5.34 -7 4.68 -7 4 C-2.52941176 0 -2.52941176 0 0 0 Z " fill="#FADCD3" transform="translate(268,358)"/>
<path d="M0 0 C3.59634744 3.49359465 6.83451967 7.11098131 10 11 C9.01 11 8.02 11 7 11 C5.62517293 9.36739286 4.29352333 7.69774938 3 6 C2.01 5.34 1.02 4.68 0 4 C0 2.68 0 1.36 0 0 Z " fill="#C0514C" transform="translate(207,358)"/>
<path d="M0 0 C-0.33 0.99 -0.66 1.98 -1 3 C-2.98 3.33 -4.96 3.66 -7 4 C-7 4.66 -7 5.32 -7 6 C-7.66 6 -8.32 6 -9 6 C-6.97377245 1.32409027 -5.29661848 0 0 0 Z " fill="#FCE6E2" transform="translate(224,306)"/>
<path d="M0 0 C0.99 0.33 1.98 0.66 3 1 C-0.19990508 3.74277578 -3.00499382 5.6302836 -7 7 C-6.67 6.01 -6.34 5.02 -6 4 C-3.9375 3.3125 -3.9375 3.3125 -2 3 C-2 2.34 -2 1.68 -2 1 C-1.34 0.67 -0.68 0.34 0 0 Z " fill="#FADED6" transform="translate(359,265)"/>
<path d="M0 0 C5.75 1.875 5.75 1.875 8 3 C8 4.65 8 6.3 8 8 C6.85073734 7.04578192 5.70569459 6.08647955 4.5625 5.125 C3.92441406 4.59132812 3.28632813 4.05765625 2.62890625 3.5078125 C1 2 1 2 0 0 Z " fill="#FAE5D6" transform="translate(292,214)"/>
<path d="M0 0 C0.66 0.99 1.32 1.98 2 3 C-0.52956528 6.0916909 -3.22454612 6.90931332 -7 8 C-6.02133662 6.85373678 -5.04205413 5.70800212 -4.0625 4.5625 C-3.51722656 3.92441406 -2.97195312 3.28632813 -2.41015625 2.62890625 C-1.63204305 1.73008851 -0.84063472 0.84063472 0 0 Z " fill="#C54533" transform="translate(40,184)"/>
<path d="M0 0 C0.66 0.99 1.32 1.98 2 3 C1.125 6.6875 1.125 6.6875 0 10 C-0.99 10 -1.98 10 -3 10 C-2.39009109 6.44219804 -1.4216319 3.3171411 0 0 Z " fill="#D84B40" transform="translate(200,150)"/>
<path d="M0 0 C0 3.60777515 -0.9904432 5.06295544 -3 8 C-3.99 8.495 -3.99 8.495 -5 9 C-5.66 8.34 -6.32 7.68 -7 7 C-4.69 4.69 -2.38 2.38 0 0 Z " fill="#C24236" transform="translate(109,115)"/>
<path d="M0 0 C0 0.66 0 1.32 0 2 C-1.26839526 2.50615298 -2.53983102 3.00469099 -3.8125 3.5 C-4.87404297 3.91765625 -4.87404297 3.91765625 -5.95703125 4.34375 C-8 5 -8 5 -11 5 C-11 4.34 -11 3.68 -11 3 C-9.73160474 2.49384702 -8.46016898 1.99530901 -7.1875 1.5 C-6.12595703 1.08234375 -6.12595703 1.08234375 -5.04296875 0.65625 C-3 0 -3 0 0 0 Z " fill="#E64C43" transform="translate(231,3)"/>
<path d="M0 0 C0.33 0 0.66 0 1 0 C1 2.64 1 5.28 1 8 C0.01 8.33 -0.98 8.66 -2 9 C-2.66 8.34 -3.32 7.68 -4 7 C-2.68 4.69 -1.36 2.38 0 0 Z " fill="#CB6150" transform="translate(270,354)"/>
<path d="M0 0 C0 3.23655184 -0.6550847 4.78752639 -2 7.6875 C-2.37125 8.49574219 -2.7425 9.30398437 -3.125 10.13671875 C-3.41375 10.75160156 -3.7025 11.36648437 -4 12 C-4.66 10.68 -5.32 9.36 -6 8 C-4.02 5.36 -2.04 2.72 0 0 Z " fill="#BE584F" transform="translate(7,216)"/>
<path d="M0 0 C2.52259061 1.97420135 2.9929808 2.96745642 3.6875 6.1875 C3.790625 7.115625 3.89375 8.04375 4 9 C2.35 7.68 0.7 6.36 -1 5 C-0.67 3.35 -0.34 1.7 0 0 Z " fill="#C7553C" transform="translate(202,152)"/>
<path d="M0 0 C2.25 -0.25 2.25 -0.25 5 0 C7.3125 2 7.3125 2 9 4 C8.67 4.66 8.34 5.32 8 6 C2.25 3.375 2.25 3.375 0 0 Z " fill="#C9483A" transform="translate(222,467)"/>
<path d="M0 0 C1 2 1 2 0.0625 5.125 C-0.288125 6.07375 -0.63875 7.0225 -1 8 C-1.99 7.67 -2.98 7.34 -4 7 C-3.43628586 3.73045798 -2.50037734 2.17424117 0 0 Z " fill="#C55C47" transform="translate(265,362)"/>
<path d="M0 0 C0.99 0.33 1.98 0.66 3 1 C3.70211894 2.65204456 4.36971413 4.31923769 5 6 C5.66 6.33 6.32 6.66 7 7 C6.67 7.99 6.34 8.98 6 10 C0.42857143 3.71428571 0.42857143 3.71428571 0 0 Z " fill="#FCD8D2" transform="translate(206,354)"/>
<path d="M0 0 C0.33 0 0.66 0 1 0 C1.29341888 5.67276511 1.00559652 8.99067246 -2 14 C-2.33 14 -2.66 14 -3 14 C-3 12.02 -3 10.04 -3 8 C-2.34 7.67 -1.68 7.34 -1 7 C-0.59270772 4.67843403 -0.25561323 2.3431213 0 0 Z " fill="#FEEBE4" transform="translate(271,344)"/>
<path d="M0 0 C0.99 0.33 1.98 0.66 3 1 C0.69 3.31 -1.62 5.62 -4 8 C-4.33 7.01 -4.66 6.02 -5 5 C-4.34 4.01 -3.68 3.02 -3 2 C-2.01 2 -1.02 2 0 2 C0 1.34 0 0.68 0 0 Z " fill="#C25249" transform="translate(381,340)"/>
<path d="M0 0 C2.31 0 4.62 0 7 0 C5.25 3.875 5.25 3.875 3 5 C1.5 3.625 1.5 3.625 0 2 C0 1.34 0 0.68 0 0 Z " fill="#CA5846" transform="translate(211,306)"/>
<path d="M0 0 C2.69504819 2.69504819 5 6.08360477 5 10 C2 9 2 9 0.25 6.125 C-1 3 -1 3 0 0 Z " fill="#C2433D" transform="translate(467,218)"/>
<path d="M0 0 C0 0.99 0 1.98 0 3 C0.66 3.33 1.32 3.66 2 4 C0.02 4.99 0.02 4.99 -2 6 C-2.66 5.34 -3.32 4.68 -4 4 C-4 3.01 -4 2.02 -4 1 C-2 0 -2 0 0 0 Z " fill="#F2E2E2" transform="translate(172,50)"/>
<path d="M0 0 C0.99 0.33 1.98 0.66 3 1 C3 1.66 3 2.32 3 3 C3.61875 3.268125 4.2375 3.53625 4.875 3.8125 C7 5 7 5 9 8 C7.0625 7.6875 7.0625 7.6875 5 7 C4.67 6.01 4.34 5.02 4 4 C3.01 3.67 2.02 3.34 1 3 C0.67 2.01 0.34 1.02 0 0 Z " fill="#FCD9D1" transform="translate(355,208)"/>
<path d="M0 0 C0.99 0.495 0.99 0.495 2 1 C2.59355614 3.64860427 2.74209269 6.29197322 3 9 C2.01 9 1.02 9 0 9 C0 6.03 0 3.06 0 0 Z " fill="#D5502B" transform="translate(278,144)"/>
<path d="M0 0 C0.99 0.33 1.98 0.66 3 1 C2.0479279 2.00596297 1.08812654 3.00461563 0.125 4 C-0.40867187 4.556875 -0.94234375 5.11375 -1.4921875 5.6875 C-3 7 -3 7 -5 7 C-4.1875 5.0625 -4.1875 5.0625 -3 3 C-2.01 2.67 -1.02 2.34 0 2 C0 1.34 0 0.68 0 0 Z " fill="#BB5148" transform="translate(308,413)"/>
<path d="M0 0 C1.32 0.33 2.64 0.66 4 1 C2.35 2.98 0.7 4.96 -1 7 C-1.33 6.34 -1.66 5.68 -2 5 C-1.0625 2.375 -1.0625 2.375 0 0 Z " fill="#C55B48" transform="translate(463,256)"/>
<path d="M0 0 C0.99 0.33 1.98 0.66 3 1 C3 1.66 3 2.32 3 3 C3.66 3 4.32 3 5 3 C5 3.66 5 4.32 5 5 C4.01 5.33 3.02 5.66 2 6 C1.01 4.35 0.02 2.7 -1 1 C-0.67 0.67 -0.34 0.34 0 0 Z " fill="#C15E4C" transform="translate(302,179)"/>
<path d="M0 0 C1.32 0.66 2.64 1.32 4 2 C2.68 3.32 1.36 4.64 0 6 C-0.66 5.67 -1.32 5.34 -2 5 C-2 4.34 -2 3.68 -2 3 C-1.34 3 -0.68 3 0 3 C0 2.01 0 1.02 0 0 Z " fill="#CF5145" transform="translate(388,330)"/>
<path d="M0 0 C2.97 0.495 2.97 0.495 6 1 C6 2.65 6 4.3 6 6 C3.97945196 4.35830472 1.97956942 2.69088222 0 1 C0 0.67 0 0.34 0 0 Z " fill="#FBE1DB" transform="translate(286,208)"/>
<path d="M0 0 C1.98 1.65 3.96 3.3 6 5 C5.67 5.66 5.34 6.32 5 7 C3.0625 6.3125 3.0625 6.3125 1 5 C0.25 2.375 0.25 2.375 0 0 Z " fill="#C25F52" transform="translate(282,205)"/>
<path d="M0 0 C0.66 0 1.32 0 2 0 C2.99 2.31 3.98 4.62 5 7 C4.34 7.66 3.68 8.32 3 9 C0 3.375 0 3.375 0 0 Z " fill="#F9D4CD" transform="translate(203,150)"/>
<path d="M0 0 C1.14926266 0.95421808 2.29430541 1.91352045 3.4375 2.875 C4.07558594 3.40867187 4.71367187 3.94234375 5.37109375 4.4921875 C7 6 7 6 8 8 C5.625 7.75 5.625 7.75 3 7 C1.48887058 4.73330587 0.86560153 2.5968046 0 0 Z " fill="#B24035" transform="translate(361,113)"/>
<path d="M0 0 C0.99 0.66 1.98 1.32 3 2 C-0.465 4.97 -0.465 4.97 -4 8 C-4.66 7.67 -5.32 7.34 -6 7 C-4.02 4.69 -2.04 2.38 0 0 Z " fill="#C28B89" transform="translate(149,72)"/>
<path d="M0 0 C4.75 0.75 4.75 0.75 7 3 C6.67 3.99 6.34 4.98 6 6 C3.97945196 4.35830472 1.97956942 2.69088222 0 1 C0 0.67 0 0.34 0 0 Z " fill="#C33732" transform="translate(274,27)"/>
<path d="M0 0 C0.99 0.66 1.98 1.32 3 2 C1.35 3.65 -0.3 5.3 -2 7 C-1.125 1.125 -1.125 1.125 0 0 Z " fill="#FCE0D7" transform="translate(364,258)"/>
<path d="M0 0 C3.465 1.98 3.465 1.98 7 4 C7 4.66 7 5.32 7 6 C3.75728494 5.4409112 2.06942576 4.5867822 0 2 C0 1.34 0 0.68 0 0 Z " fill="#BA423B" transform="translate(449,201)"/>
<path d="M0 0 C0.66 0 1.32 0 2 0 C2 0.66 2 1.32 2 2 C2.99 2.33 3.98 2.66 5 3 C5 3.66 5 4.32 5 5 C5.66 5.33 6.32 5.66 7 6 C4.625 5.8125 4.625 5.8125 2 5 C0.6875 2.4375 0.6875 2.4375 0 0 Z " fill="#F9D7CE" transform="translate(217,98)"/>
<path d="M0 0 C0.66 0 1.32 0 2 0 C2 0.66 2 1.32 2 2 C2.99 2.33 3.98 2.66 5 3 C5 3.66 5 4.32 5 5 C5.66 5.33 6.32 5.66 7 6 C4.625 5.8125 4.625 5.8125 2 5 C0.6875 2.4375 0.6875 2.4375 0 0 Z " fill="#F9D8CE" transform="translate(201,82)"/>
<path d="M0 0 C2.31 1.98 4.62 3.96 7 6 C6.01 6.33 5.02 6.66 4 7 C1.8125 5.8125 1.8125 5.8125 0 4 C0 2.68 0 1.36 0 0 Z " fill="#D2533D" transform="translate(154,79)"/>
<path d="M0 0 C0.66 0 1.32 0 2 0 C2 0.66 2 1.32 2 2 C2.99 2.33 3.98 2.66 5 3 C5 3.66 5 4.32 5 5 C5.66 5.33 6.32 5.66 7 6 C4.625 5.8125 4.625 5.8125 2 5 C0.6875 2.4375 0.6875 2.4375 0 0 Z " fill="#F9D7CE" transform="translate(185,66)"/>
</svg>
