<?xml version="1.0" encoding="UTF-8"?>
<svg version="1.1" xmlns="http://www.w3.org/2000/svg" width="310" height="309">
<path d="M0 0 C1.31548828 -0.00773438 2.63097656 -0.01546875 3.98632812 -0.0234375 C45.04548432 0.05782753 79.39854122 18.48090989 108.1640625 46.62109375 C109.5625 48.25 109.5625 48.25 109.5625 50.25 C110.14515625 50.47945312 110.7278125 50.70890625 111.328125 50.9453125 C115.95799164 53.6487661 118.57612677 58.9121294 121.5625 63.25 C122.56023437 64.63445313 122.56023437 64.63445313 123.578125 66.046875 C134.85410882 82.11737163 141.53499093 100.65466801 145.875 119.6875 C146.03452148 120.38415771 146.19404297 121.08081543 146.35839844 121.79858398 C148.53178707 131.98064585 148.74411744 142.24816779 148.75 152.625 C148.76224609 153.75421875 148.77449219 154.8834375 148.78710938 156.046875 C148.8006944 163.96241597 147.96060264 171.46596908 146.5625 179.25 C146.34886448 180.56769312 146.13530454 181.8853985 145.921875 183.203125 C140.87537631 210.5059769 127.11623357 237.45816921 107.5625 257.25 C106.5725 257.58 105.5825 257.91 104.5625 258.25 C104.5625 258.91 104.5625 259.57 104.5625 260.25 C103.9025 260.25 103.2425 260.25 102.5625 260.25 C102.36011719 260.79785156 102.15773438 261.34570312 101.94921875 261.91015625 C100.01378091 265.17586686 97.27542853 267.31379449 94.375 269.6875 C93.78928223 270.17323486 93.20356445 270.65896973 92.60009766 271.15942383 C81.56405553 280.25 81.56405553 280.25 77.5625 280.25 C77.5625 280.91 77.5625 281.57 77.5625 282.25 C45.32721273 300.20282088 5.35627732 310.84063894 -31.39257812 300.84082031 C-32.06740234 300.64584961 -32.74222656 300.45087891 -33.4375 300.25 C-34.24896484 300.01893555 -35.06042969 299.78787109 -35.89648438 299.54980469 C-65.87202685 290.76920179 -92.43004694 273.96974098 -112.75 250.125 C-113.46168335 249.2901709 -113.46168335 249.2901709 -114.18774414 248.43847656 C-117.4375 244.51217119 -117.4375 244.51217119 -117.4375 242.25 C-118.0975 242.25 -118.7575 242.25 -119.4375 242.25 C-121.41189364 238.80583441 -123.38331626 235.36006617 -125.34765625 231.91015625 C-126.51030219 229.86865167 -127.68143669 227.83457647 -128.87109375 225.80859375 C-148.55376427 191.79952042 -153.12148867 149.73190971 -143.16845703 111.92480469 C-142.92724121 111.04211914 -142.68602539 110.15943359 -142.4375 109.25 C-142.21819824 108.42661133 -141.99889648 107.60322266 -141.77294922 106.75488281 C-137.2566504 90.32029129 -128.95411288 75.30863266 -119.4375 61.25 C-118.7775 60.26 -118.1175 59.27 -117.4375 58.25 C-116.7775 58.25 -116.1175 58.25 -115.4375 58.25 C-115.17066406 57.66605469 -114.90382812 57.08210938 -114.62890625 56.48046875 C-110.7528496 49.22398236 -103.55568662 42.63300737 -97.4375 37.25 C-96.7775 37.25 -96.1175 37.25 -95.4375 37.25 C-95.4375 36.59 -95.4375 35.93 -95.4375 35.25 C-93.5390625 33.5234375 -93.5390625 33.5234375 -91.0625 31.625 C-90.25039062 30.99335937 -89.43828125 30.36171875 -88.6015625 29.7109375 C-86.4375 28.25 -86.4375 28.25 -84.4375 28.25 C-84.4375 27.59 -84.4375 26.93 -84.4375 26.25 C-68.29358386 13.5948115 -47.26153925 6.37332991 -27.4375 2.25 C-26.14042114 1.97857178 -26.14042114 1.97857178 -24.81713867 1.70166016 C-16.52302637 0.13436758 -8.42415395 -0.04938439 0 0 Z " fill="#080808" transform="translate(155.4375,1.75)"/>
<path d="M0 0 C0.72590332 0.21930176 1.45180664 0.43860352 2.19970703 0.66455078 C18.8963902 5.88348593 34.80955632 14.52606384 48 26 C48.54881836 26.47727539 49.09763672 26.95455078 49.66308594 27.44628906 C66.48204663 42.24119145 78.74176396 58.62578977 88 79 C88.28359375 79.61842773 88.5671875 80.23685547 88.859375 80.87402344 C97.02268367 98.98155128 99.24446608 117.52112548 99.3125 137.1875 C99.31545074 137.93723083 99.31840149 138.68696167 99.32144165 139.45941162 C99.33481499 154.43794976 98.23319104 169.17850728 92.68969727 183.24414062 C92.12777272 184.67471101 91.6285215 186.12977178 91.1484375 187.58984375 C84.98797479 206.28902602 73.53150892 222.89268219 60 237 C58.67935547 238.43279297 58.67935547 238.43279297 57.33203125 239.89453125 C49.75196414 247.95469529 41.32259931 254.09011631 32 260 C30.95714844 260.6703125 29.91429687 261.340625 28.83984375 262.03125 C19.9769198 267.47067573 8.66137276 274.14458646 -2 273 C-4.2154241 271.39088512 -4.91523472 270.50524168 -5.37181091 267.78382874 C-5.37084915 266.92067551 -5.36988739 266.05752228 -5.36889648 265.16821289 C-5.37577988 264.18611343 -5.38266327 263.20401398 -5.38975525 262.19215393 C-5.38359695 261.1297197 -5.37743866 260.06728546 -5.37109375 258.97265625 C-5.38849385 256.71288925 -5.40607801 254.45312366 -5.42382812 252.19335938 C-5.43385036 248.63888737 -5.43751065 245.08451476 -5.43579102 241.5300293 C-5.43939354 238.09394165 -5.4668756 234.65860808 -5.49609375 231.22265625 C-5.48791122 230.17844009 -5.4797287 229.13422394 -5.47129822 228.05836487 C-5.57377592 217.73999707 -8.47016043 208.68974789 -14 200 C-13.11441406 199.85304687 -12.22882813 199.70609375 -11.31640625 199.5546875 C7.97385714 196.06196551 25.91314774 190.39934707 37.6171875 173.69140625 C48.16065478 157.29919965 50.70744531 135.16784703 47.3125 116.1484375 C45.1061669 108.44465776 41.68165891 100.07700484 36.25390625 94.06640625 C34.43994494 91.07704323 35.29968095 89.4082194 36 86 C36.21453782 82.41751225 36.23060438 78.8381899 36.25 75.25 C36.270625 74.3115625 36.29125 73.373125 36.3125 72.40625 C36.34905354 65.79005918 35.24660756 60.21798623 33 54 C20.87581332 52.78758133 10.04082169 59.18876631 0.05859375 65.328125 C-5.20309967 68.20424861 -8.44991701 68.11030431 -14.1875 66.5859375 C-22.06418594 64.78514147 -29.61093706 64.54287322 -37.66796875 64.60888672 C-39.99799094 64.62498612 -42.32627952 64.60893384 -44.65625 64.58984375 C-53.14848365 64.58063844 -60.74449758 65.24161552 -68.984375 67.45458984 C-75.25708699 68.58908131 -79.24603554 66.51531436 -84.5 63.25 C-93.37354565 57.94566845 -102.43748348 53.57269213 -113 54 C-115.90468969 60.98899884 -116.40585525 67.17235479 -116.25 74.6875 C-116.24226563 76.19666992 -116.24226563 76.19666992 -116.234375 77.73632812 C-116.19191181 81.76236951 -116.11001576 85.47047361 -115.2890625 89.421875 C-115 92 -115 92 -116.2578125 94.31640625 C-116.87398437 95.05761719 -117.49015625 95.79882812 -118.125 96.5625 C-128.9580211 110.86208786 -129.87557262 129.22986565 -127.68359375 146.49169922 C-126.84474857 151.12672607 -125.5277845 155.54187474 -124 160 C-123.45666016 161.62808594 -123.45666016 161.62808594 -122.90234375 163.2890625 C-117.73272057 177.13313814 -107.93132067 186.26938138 -94.8125 192.75 C-85.69951731 196.63121277 -75.79162766 198.73165445 -66 200 C-66.49371094 200.94101563 -66.98742187 201.88203125 -67.49609375 202.8515625 C-68.14365932 204.1091536 -68.79077071 205.36697864 -69.4375 206.625 C-69.92573242 207.55119141 -69.92573242 207.55119141 -70.42382812 208.49609375 C-72.38259628 212.33285611 -73.53221258 215.71743908 -74 220 C-82.73941736 223.38300027 -93.44838158 225.3932142 -102.375 221.5625 C-108.57199252 217.81517333 -112.88447671 211.58637304 -117.0625 205.8125 C-121.0438812 200.3921957 -125.49774606 196.07151453 -132 194 C-134.89651829 193.76028911 -134.89651829 193.76028911 -137.8125 193.875 C-138.78832031 193.89304688 -139.76414063 193.91109375 -140.76953125 193.9296875 C-141.50558594 193.95289063 -142.24164063 193.97609375 -143 194 C-140.92203421 197.92654575 -138.86300982 200.07794028 -135.25 202.625 C-128.32945478 207.98186518 -124.31159 214.69985837 -120.9375 222.6875 C-117.28504067 231.26617548 -112.50716775 236.18287082 -104 240 C-103.24702637 240.34675781 -102.49405273 240.69351563 -101.71826172 241.05078125 C-98.71596835 242.09918404 -96.43345338 242.2292348 -93.26171875 242.1953125 C-92.19501953 242.18886719 -91.12832031 242.18242187 -90.02929688 242.17578125 C-88.92650391 242.15902344 -87.82371094 242.14226562 -86.6875 242.125 C-85.56537109 242.11597656 -84.44324219 242.10695313 -83.28710938 242.09765625 C-80.52452091 242.07414486 -77.76237068 242.04128155 -75 242 C-74.88391873 246.41644598 -74.8127868 250.83250017 -74.75 255.25 C-74.71648437 256.50425781 -74.68296875 257.75851562 -74.6484375 259.05078125 C-74.62910156 260.85869141 -74.62910156 260.85869141 -74.609375 262.703125 C-74.5779541 264.36843262 -74.5779541 264.36843262 -74.54589844 266.06738281 C-75.10538619 269.6805908 -76.10137908 270.8345387 -79 273 C-95.14129151 274.96338517 -114.20813754 259.33755662 -126.30078125 249.9453125 C-134.99586895 243.06971556 -142.24627883 235.80439651 -149 227 C-149.66773438 226.14792969 -150.33546875 225.29585937 -151.0234375 224.41796875 C-161.03788693 211.21710359 -168.85034762 196.32575268 -173.32421875 180.3515625 C-173.80790571 178.6684437 -174.35759174 177.00374647 -174.94921875 175.35546875 C-184.74167708 144.08512783 -182.12632801 105.32339355 -167 76 C-166.26330078 74.53046875 -166.26330078 74.53046875 -165.51171875 73.03125 C-147.40621068 38.06888959 -118.32638351 12.49996311 -81 0 C-55.40469476 -7.81482811 -25.60254253 -7.90410521 0 0 Z " fill="#FAFAFA" transform="translate(196,16)"/>
<path d="M0 0 C1.31548828 -0.00773438 2.63097656 -0.01546875 3.98632812 -0.0234375 C15.37318101 -0.00090043 26.22841227 1.43129225 37.25 4.25 C37.93771484 4.415 38.62542969 4.58 39.33398438 4.75 C44.31348296 6.00098296 44.31348296 6.00098296 46.5625 8.25 C45.5725 8.58 44.5825 8.91 43.5625 9.25 C43.8925 10.57 44.2225 11.89 44.5625 13.25 C42.39091382 14.56960694 41.11885256 15.31419712 38.55249023 15.01806641 C37.83262939 14.79812012 37.11276855 14.57817383 36.37109375 14.3515625 C13.06789704 7.92945668 -14.15862845 7.11681301 -37.4375 14.25 C-38.21899414 14.48605957 -39.00048828 14.72211914 -39.80566406 14.96533203 C-77.43588891 26.73711072 -106.27319524 53.70464415 -124.4375 88.25 C-125.18692428 90.0123558 -125.91959846 91.78206652 -126.625 93.5625 C-127.50390625 95.671875 -127.50390625 95.671875 -128.4375 97.25 C-131.0625 98.3125 -131.0625 98.3125 -133.4375 98.25 C-135.64831851 98.14459074 -135.64831851 98.14459074 -138.4375 99.25 C-135.49686766 85.49324869 -127.18709863 72.79926333 -119.4375 61.25 C-118.7775 60.26 -118.1175 59.27 -117.4375 58.25 C-116.7775 58.25 -116.1175 58.25 -115.4375 58.25 C-115.17066406 57.66605469 -114.90382813 57.08210938 -114.62890625 56.48046875 C-110.7528496 49.22398236 -103.55568662 42.63300737 -97.4375 37.25 C-96.7775 37.25 -96.1175 37.25 -95.4375 37.25 C-95.4375 36.59 -95.4375 35.93 -95.4375 35.25 C-93.5390625 33.5234375 -93.5390625 33.5234375 -91.0625 31.625 C-90.25039062 30.99335937 -89.43828125 30.36171875 -88.6015625 29.7109375 C-86.4375 28.25 -86.4375 28.25 -84.4375 28.25 C-84.4375 27.59 -84.4375 26.93 -84.4375 26.25 C-68.29358386 13.5948115 -47.26153925 6.37332991 -27.4375 2.25 C-26.14042114 1.97857178 -26.14042114 1.97857178 -24.81713867 1.70166016 C-16.52302637 0.13436758 -8.42415395 -0.04938439 0 0 Z " fill="#1E1E1E" transform="translate(155.4375,1.75)"/>
<path d="M0 0 C0.66 0.99 1.32 1.98 2 3 C3.32 2.01 4.64 1.02 6 0 C7.26953125 2.13671875 7.26953125 2.13671875 8 5 C6.65051242 7.23027202 5.39578007 8.8898593 3.6875 10.8125 C-0.37011234 15.71015933 -3.79258131 20.68424931 -6.875 26.25 C-7.43973022 27.26682861 -7.43973022 27.26682861 -8.01586914 28.30419922 C-9.99428029 31.94248265 -11.71855407 35.58438203 -13.25 39.4375 C-15 43 -15 43 -17.625 44.0625 C-18.40875 44.041875 -19.1925 44.02125 -20 44 C-22.21081851 43.89459074 -22.21081851 43.89459074 -25 45 C-22.05936766 31.24324869 -13.74959863 18.54926333 -6 7 C-5.34 6.01 -4.68 5.02 -4 4 C-3.34 4 -2.68 4 -2 4 C-1.34 2.68 -0.68 1.36 0 0 Z " fill="#2B2B2B" transform="translate(42,56)"/>
<path d="M0 0 C0.8971875 0.5259375 0.8971875 0.5259375 1.8125 1.0625 C1.06357534 4.83486125 -0.49706825 8.09170175 -2.125 11.5625 C-2.64964844 12.6865625 -3.17429687 13.810625 -3.71484375 14.96875 C-4.20082031 15.9896875 -4.68679687 17.010625 -5.1875 18.0625 C-5.52910156 18.84109375 -5.87070312 19.6196875 -6.22265625 20.421875 C-7.1875 22.0625 -7.1875 22.0625 -9.6875 22.8125 C-12.1875 23.0625 -12.1875 23.0625 -14.1875 23.0625 C-15.1775 23.3925 -16.1675 23.7225 -17.1875 24.0625 C-15.45846377 17.67030544 -13.52824874 11.8044119 -10.1875 6.0625 C-9.1975 5.7325 -8.2075 5.4025 -7.1875 5.0625 C-6.8575 4.2375 -6.5275 3.4125 -6.1875 2.5625 C-5.8575 1.7375 -5.5275 0.9125 -5.1875 0.0625 C-2.1875 -0.9375 -2.1875 -0.9375 0 0 Z " fill="#212121" transform="translate(34.1875,76.9375)"/>
<path d="M0 0 C0.17175026 7.385261 0.17175026 7.385261 -1 11 C-3.36328125 13.16796875 -3.36328125 13.16796875 -6.3125 15.1875 C-7.27800781 15.86167969 -8.24351563 16.53585938 -9.23828125 17.23046875 C-11.45708358 18.65213418 -13.61350419 19.89461595 -16 21 C-15.67 20.01 -15.34 19.02 -15 18 C-14.34 18 -13.68 18 -13 18 C-13.66 16.35 -14.32 14.7 -15 13 C-16.32 13.33 -17.64 13.66 -19 14 C-16.34345343 10.26115668 -14.41889613 8.35021826 -10 7 C-10 6.34 -10 5.68 -10 5 C-8.3203125 3.7109375 -8.3203125 3.7109375 -6.125 2.375 C-5.40570313 1.92898437 -4.68640625 1.48296875 -3.9453125 1.0234375 C-2 0 -2 0 0 0 Z " fill="#2A2A2A" transform="translate(81,23)"/>
<path d="M0 0 C0.33 0.66 0.66 1.32 1 2 C-1.47812494 5.45167403 -2.79606135 7.23163306 -7 8 C-6.02133662 6.85373678 -5.04205413 5.70800212 -4.0625 4.5625 C-3.51722656 3.92441406 -2.97195312 3.28632812 -2.41015625 2.62890625 C-1.63204305 1.73008851 -0.84063472 0.84063472 0 0 Z " fill="#686868" transform="translate(52,45)"/>
<path d="M0 0 C1.32 0.33 2.64 0.66 4 1 C2.02 3.97 2.02 3.97 0 7 C-0.66 6.01 -1.32 5.02 -2 4 C-1.34 2.68 -0.68 1.36 0 0 Z " fill="#E4E4E4" transform="translate(267,234)"/>
<path d="M0 0 C-0.99 0 -1.98 0 -3 0 C-3.33 0.66 -3.66 1.32 -4 2 C-4.99 2.66 -5.98 3.32 -7 4 C-7.66 2.68 -8.32 1.36 -9 0 C-5.62182575 -0.84454356 -3.32534757 -1.10844919 0 0 Z " fill="#DDDDDD" transform="translate(191,216)"/>
<path d="M0 0 C0.33 0.66 0.66 1.32 1 2 C1.66 2 2.32 2 3 2 C3.625 3.8125 3.625 3.8125 4 6 C3.01 7.485 3.01 7.485 2 9 C1.34 6.03 0.68 3.06 0 0 Z " fill="#666666" transform="translate(14,195)"/>
</svg>
