<?xml version="1.0" encoding="UTF-8"?>
<svg version="1.1" xmlns="http://www.w3.org/2000/svg" width="238" height="194">
<path d="M0 0 C0.78181641 0.00016113 1.56363281 0.00032227 2.36914062 0.00048828 C9.73287577 0.14348804 18.95034163 0.95034163 24.375 6.375 C24.11340986 11.37427825 22.13038519 15.15637347 19.625 19.375 C19.28984375 19.96539062 18.9546875 20.55578125 18.609375 21.1640625 C17.57860197 22.93667976 16.49719503 24.65893193 15.375 26.375 C14.99762695 26.96603516 14.62025391 27.55707031 14.23144531 28.16601562 C13.03125 29.84375 13.03125 29.84375 10.375 32.375 C7.140625 32.53125 7.140625 32.53125 3.625 31.875 C-1.47505451 31.26963639 -4.48249085 31.1493976 -8.875 33.9375 C-12.34062737 36.75251703 -14.09864228 38.8132331 -14.625 43.375 C-14.73215992 48.41975921 -14.53921744 52.81172619 -11.3125 56.875 C-6.46754029 61.38193927 -2.81086203 61.81646942 3.6796875 61.6953125 C8.35695758 61.13946301 10.95660807 58.84404878 14.125 55.5625 C15.79556572 52.63900999 16.5183407 49.61806734 17.375 46.375 C20.07571153 43.67428847 28.17170964 45.18934718 31.8125 45.1875 C33.07900391 45.17525391 34.34550781 45.16300781 35.65039062 45.15039062 C36.85759766 45.14845703 38.06480469 45.14652344 39.30859375 45.14453125 C40.9800647 45.13836792 40.9800647 45.13836792 42.68530273 45.13208008 C45.375 45.375 45.375 45.375 47.375 47.375 C47.97513214 58.71749739 43.50276591 68.98252567 36.703125 77.796875 C28.22034145 87.19056148 16.87920769 92.642984 4.28125 93.61328125 C-10.66949614 93.93904292 -22.53571928 89.69186856 -33.484375 79.5625 C-42.18557222 70.67076561 -45.96976917 59.69427317 -46.0625 47.3125 C-45.82251826 34.11820961 -42.35311619 23.63368911 -33.296875 13.86328125 C-23.81342265 4.84207265 -13.1424312 -0.02546983 0 0 Z " fill="#05FC05" transform="translate(67.625,98.625)"/>
<path d="M0 0 C9.8525114 8.35033477 16.01508724 19.08468123 17.36328125 32.02734375 C18.24810885 46.04633105 14.25128941 58.03679603 5.36328125 69.02734375 C2.33500363 72.26614334 -0.8173337 74.76400446 -4.63671875 77.02734375 C-6.6015625 77.02734375 -6.6015625 77.02734375 -8.63671875 76.02734375 C-10.6015625 73.40234375 -10.6015625 73.40234375 -12.57421875 70.02734375 C-12.91831787 69.44154541 -13.26241699 68.85574707 -13.61694336 68.25219727 C-14.63260403 66.5158525 -15.63485922 64.7716881 -16.63671875 63.02734375 C-17.18585938 62.12886719 -17.735 61.23039062 -18.30078125 60.3046875 C-18.76226562 59.53253906 -19.22375 58.76039062 -19.69921875 57.96484375 C-20.10269531 57.29324219 -20.50617188 56.62164062 -20.921875 55.9296875 C-21.83028546 53.51222361 -21.59963328 52.40058763 -20.63671875 50.02734375 C-18.97005208 48.36067708 -17.30338542 46.69401042 -15.63671875 45.02734375 C-12.87390928 40.5063828 -13.53722082 36.01597485 -14.63671875 31.02734375 C-16.47004039 26.90237006 -18.75413499 24.34037237 -22.63671875 22.02734375 C-29.09850088 20.41464091 -33.88484788 20.69125864 -39.63671875 24.02734375 C-43.06548761 26.91472805 -44.4405461 28.97878676 -44.875 33.515625 C-45.03478107 39.59571508 -44.81442276 43.25282489 -40.63671875 48.02734375 C-40.03859375 48.52234375 -39.44046875 49.01734375 -38.82421875 49.52734375 C-37.63671875 51.02734375 -37.63671875 51.02734375 -37.79296875 53.6484375 C-38.83910536 57.83782717 -40.67215633 60.95747378 -42.94921875 64.58984375 C-43.34044922 65.23630859 -43.73167969 65.88277344 -44.13476562 66.54882812 C-46.40874922 70.25583621 -48.83576276 73.6879889 -51.63671875 77.02734375 C-57.96054058 75.85679434 -62.76841654 71.41745693 -66.63671875 66.46875 C-74.44885043 54.59902407 -78.60345513 42.42512311 -76.140625 28.15234375 C-72.73339086 14.60040682 -66.14467121 4.35970972 -54.38671875 -3.34765625 C-36.89075717 -13.47795926 -16.2159785 -12.13195429 0 0 Z " fill="#F70404" transform="translate(148.63671875,18.97265625)"/>
<path d="M0 0 C3.47824637 1.31808121 4.77209952 4.780342 6.50878906 7.88623047 C6.88648438 8.53849609 7.26417969 9.19076172 7.65332031 9.86279297 C8.40909653 11.17176622 9.15793494 12.48477062 9.8996582 13.80175781 C10.64680044 15.12171457 11.40672526 16.43450762 12.1784668 17.74023438 C15.00209458 22.53361792 15.00209458 22.53361792 15.07128906 24.88623047 C13.51938891 27.6248778 11.2276622 29.54235734 9.00878906 31.76123047 C6.61367775 35.68050353 6.8419697 39.13539592 7.46582031 43.54638672 C8.6893081 48.53716063 11.68947299 52.11390772 16.00878906 54.76123047 C21.37829611 56.55106615 26.20614239 56.6455477 31.32128906 54.13623047 C36.28689909 49.74801696 38.69930154 45.65427932 39.17675781 39.06982422 C38.79941141 33.88350505 36.15638286 30.03633469 32.75878906 26.26123047 C32.18128906 25.76623047 31.60378906 25.27123047 31.00878906 24.76123047 C32.56358798 19.06643444 35.38198393 14.4307233 38.44628906 9.44873047 C38.93677734 8.62566406 39.42726562 7.80259766 39.93261719 6.95458984 C40.41021484 6.17277344 40.8878125 5.39095703 41.37988281 4.58544922 C41.81228271 3.87477295 42.24468262 3.16409668 42.69018555 2.43188477 C44.00878906 0.76123047 44.00878906 0.76123047 47.00878906 -0.23876953 C57.2879246 5.00336168 64.15216981 15.25070162 68.00878906 25.76123047 C71.16305364 36.70057952 70.35866805 50.67497637 65.61816406 60.96826172 C58.09863125 74.01793638 48.280027 81.28760407 34.00878906 85.76123047 C21.96034757 88.6985058 9.36986566 86.74447292 -1.30371094 80.44873047 C-2.55405599 79.582702 -3.78345043 78.68572092 -4.99121094 77.76123047 C-5.66796875 77.24689453 -6.34472656 76.73255859 -7.04199219 76.20263672 C-15.5042578 69.30214517 -20.96900214 60.54255715 -22.99121094 49.76123047 C-24.46361623 34.14931081 -22.95655335 21.9670778 -13.21386719 9.29248047 C-4.57278473 -0.54833049 -4.57278473 -0.54833049 0 0 Z " fill="#0304F4" transform="translate(147.9912109375,105.23876953125)"/>
<path d="M0 0 C7.2053965 6.10681586 12.23755344 13.08180844 15.36328125 22.02734375 C14.98828125 24.33984375 14.98828125 24.33984375 14.36328125 26.02734375 C14.36328125 25.36734375 14.36328125 24.70734375 14.36328125 24.02734375 C13.70328125 24.02734375 13.04328125 24.02734375 12.36328125 24.02734375 C11.86828125 21.05734375 11.86828125 21.05734375 11.36328125 18.02734375 C10.70328125 18.02734375 10.04328125 18.02734375 9.36328125 18.02734375 C8.99203125 16.97546875 8.99203125 16.97546875 8.61328125 15.90234375 C6.49713487 11.03520708 4.02171868 6.74476558 -0.63671875 4.02734375 C-2.65514838 3.25354415 -4.67694568 2.53452585 -6.734375 1.87109375 C-8.63671875 1.02734375 -8.63671875 1.02734375 -10.09765625 -0.49609375 C-12.06007169 -2.37881719 -13.54630992 -2.61689847 -16.19921875 -3.09765625 C-20.49498647 -3.90179011 -20.49498647 -3.90179011 -22.63671875 -4.97265625 C-28.49293801 -5.28770602 -34.41029225 -5.08090685 -40.26171875 -4.72265625 C-41.45667969 -4.65304687 -41.45667969 -4.65304687 -42.67578125 -4.58203125 C-44.82845016 -4.16606065 -44.82845016 -4.16606065 -45.66796875 -2.01953125 C-46.1475 -1.00632812 -46.1475 -1.00632812 -46.63671875 0.02734375 C-48.44140625 0.93359375 -48.44140625 0.93359375 -50.51171875 1.52734375 C-53.40015975 2.47284062 -54.55384793 2.94447293 -56.76171875 5.15234375 C-59.22935583 7.61998083 -61.23350928 7.71796107 -64.63671875 8.02734375 C-64.67410156 8.60742188 -64.71148437 9.1875 -64.75 9.78515625 C-65.17898427 14.88249879 -66.07263597 18.51455806 -68.63671875 23.02734375 C-70.91134755 27.65444036 -71.27444487 32.27938465 -71.76171875 37.33984375 C-71.84808594 38.17580078 -71.93445313 39.01175781 -72.0234375 39.87304688 C-72.23437417 41.92382005 -72.43643521 43.97550278 -72.63671875 46.02734375 C-71.64671875 46.02734375 -70.65671875 46.02734375 -69.63671875 46.02734375 C-69.69859375 46.79046875 -69.76046875 47.55359375 -69.82421875 48.33984375 C-69.59451951 51.63219952 -68.93311898 51.81599538 -66.63671875 54.02734375 C-65.95176846 55.72341113 -65.26713178 57.4196081 -64.5859375 59.1171875 C-62.31904071 63.67896747 -58.83387205 67.22924155 -54.63671875 70.02734375 C-53.64671875 70.02734375 -52.65671875 70.02734375 -51.63671875 70.02734375 C-51.36859375 69.32609375 -51.10046875 68.62484375 -50.82421875 67.90234375 C-49.55856799 64.83813664 -48.27566027 61.91188083 -46.63671875 59.02734375 C-45.15171875 58.53234375 -45.15171875 58.53234375 -43.63671875 58.02734375 C-43.63671875 55.05734375 -43.63671875 52.08734375 -43.63671875 49.02734375 C-44.95671875 48.69734375 -46.27671875 48.36734375 -47.63671875 48.02734375 C-51.39109241 42.93212235 -51.34465619 37.11376694 -50.63671875 31.02734375 C-49.6171875 28.69140625 -49.6171875 28.69140625 -48.63671875 27.02734375 C-47.64671875 27.02734375 -46.65671875 27.02734375 -45.63671875 27.02734375 C-45.57484375 26.24359375 -45.51296875 25.45984375 -45.44921875 24.65234375 C-45.18109375 23.78609375 -44.91296875 22.91984375 -44.63671875 22.02734375 C-42.07421875 20.71484375 -42.07421875 20.71484375 -39.63671875 20.02734375 C-39.63671875 19.36734375 -39.63671875 18.70734375 -39.63671875 18.02734375 C-30.48463922 16.3494625 -20.48914467 17.65463128 -12.63671875 23.02734375 C-10.54628233 27.01492281 -10.42172483 30.38514447 -10.51171875 34.83984375 C-10.52976562 36.00128906 -10.5478125 37.16273437 -10.56640625 38.359375 C-10.58960938 39.23980469 -10.6128125 40.12023438 -10.63671875 41.02734375 C-11.29671875 41.02734375 -11.95671875 41.02734375 -12.63671875 41.02734375 C-12.82234375 42.23390625 -12.82234375 42.23390625 -13.01171875 43.46484375 C-13.21796875 44.31046875 -13.42421875 45.15609375 -13.63671875 46.02734375 C-14.62671875 46.52234375 -14.62671875 46.52234375 -15.63671875 47.02734375 C-15.11078125 45.57328125 -15.11078125 45.57328125 -14.57421875 44.08984375 C-13.0184885 38.61145078 -13.58549343 33.39260072 -15.88671875 28.21484375 C-19.3341854 23.90551044 -22.00871902 21.86644311 -27.51171875 21.08984375 C-33.54684855 20.71264814 -37.33006686 22.08490005 -42.01171875 26.02734375 C-45.26656039 30.0333027 -44.96492261 34.35853962 -44.92578125 39.296875 C-44.44440741 43.84390631 -42.27506421 46.67147165 -38.82421875 49.52734375 C-37.63671875 51.02734375 -37.63671875 51.02734375 -37.79296875 53.6484375 C-38.83910536 57.83782717 -40.67215633 60.95747378 -42.94921875 64.58984375 C-43.34044922 65.23630859 -43.73167969 65.88277344 -44.13476562 66.54882812 C-46.40874922 70.25583621 -48.83576276 73.6879889 -51.63671875 77.02734375 C-57.96054058 75.85679434 -62.76841654 71.41745693 -66.63671875 66.46875 C-74.44885043 54.59902407 -78.60345513 42.42512311 -76.140625 28.15234375 C-72.73339086 14.60040682 -66.14467121 4.35970972 -54.38671875 -3.34765625 C-36.89075717 -13.47795926 -16.2159785 -12.13195429 0 0 Z " fill="#D6171B" transform="translate(148.63671875,18.97265625)"/>
<path d="M0 0 C0.78181641 0.00016113 1.56363281 0.00032227 2.36914062 0.00048828 C9.73287577 0.14348804 18.95034163 0.95034163 24.375 6.375 C24.11340986 11.37427825 22.13038519 15.15637347 19.625 19.375 C19.28984375 19.96539062 18.9546875 20.55578125 18.609375 21.1640625 C17.57860197 22.93667976 16.49719503 24.65893193 15.375 26.375 C14.99762695 26.96603516 14.62025391 27.55707031 14.23144531 28.16601562 C13.03125 29.84375 13.03125 29.84375 10.375 32.375 C7.140625 32.53125 7.140625 32.53125 3.625 31.875 C-1.47505451 31.26963639 -4.48249085 31.1493976 -8.875 33.9375 C-12.34062737 36.75251703 -14.09864228 38.8132331 -14.625 43.375 C-14.73215992 48.41975921 -14.53921744 52.81172619 -11.3125 56.875 C-6.46754029 61.38193927 -2.81086203 61.81646942 3.6796875 61.6953125 C8.35695758 61.13946301 10.95660807 58.84404878 14.125 55.5625 C15.79556572 52.63900999 16.5183407 49.61806734 17.375 46.375 C20.07571153 43.67428847 28.17170964 45.18934718 31.8125 45.1875 C33.07900391 45.17525391 34.34550781 45.16300781 35.65039062 45.15039062 C36.85759766 45.14845703 38.06480469 45.14652344 39.30859375 45.14453125 C40.9800647 45.13836792 40.9800647 45.13836792 42.68530273 45.13208008 C45.375 45.375 45.375 45.375 47.375 47.375 C47.97513214 58.71749739 43.50276591 68.98252567 36.703125 77.796875 C28.22034145 87.19056148 16.87920769 92.642984 4.28125 93.61328125 C-10.66949614 93.93904292 -22.53571928 89.69186856 -33.484375 79.5625 C-42.18557222 70.67076561 -45.96976917 59.69427317 -46.0625 47.3125 C-45.82251826 34.11820961 -42.35311619 23.63368911 -33.296875 13.86328125 C-23.81342265 4.84207265 -13.1424312 -0.02546983 0 0 Z M-21.625 8.375 C-22.31813908 10.03083225 -22.98974424 11.69610979 -23.625 13.375 C-25.4375 13.9375 -25.4375 13.9375 -27.625 14.375 C-30.37756794 16.22664036 -30.37756794 16.22664036 -32.625 18.375 C-32.625 19.035 -32.625 19.695 -32.625 20.375 C-33.223125 20.6225 -33.82125 20.87 -34.4375 21.125 C-39.01667225 23.74166986 -40.1107911 27.52953153 -41.625 32.375 C-42.13752319 33.30203735 -42.13752319 33.30203735 -42.66040039 34.24780273 C-46.07866141 41.78597238 -44.8975959 55.42554709 -42.75 63.30078125 C-41.62569802 66.09304438 -40.66616582 68.16710529 -38.625 70.375 C-34.96878592 71.75983922 -34.96878592 71.75983922 -31.625 71.375 C-30.965 73.355 -30.305 75.335 -29.625 77.375 C-28.635 77.375 -27.645 77.375 -26.625 77.375 C-26.625 78.035 -26.625 78.695 -26.625 79.375 C-23.91620665 80.72939668 -21.61566732 80.44001451 -18.625 80.375 C-18.625 82.025 -18.625 83.675 -18.625 85.375 C-17.490625 85.849375 -16.35625 86.32375 -15.1875 86.8125 C-11.625 88.375 -11.625 88.375 -10.625 89.375 C-0.16473945 90.00748087 9.28061568 89.32431577 19.375 86.375 C19.375 85.715 19.375 85.055 19.375 84.375 C19.96667969 84.37242187 20.55835937 84.36984375 21.16796875 84.3671875 C25.83965112 84.13855704 27.76172609 83.98827391 31.1875 80.5625 C32.2703125 78.9846875 32.2703125 78.9846875 33.375 77.375 C34.035 76.75625 34.695 76.1375 35.375 75.5 C39.42915306 71.19246237 42.69831891 66.9768644 42.6875 60.875 C42.584375 59.72 42.48125 58.565 42.375 57.375 C43.035 57.375 43.695 57.375 44.375 57.375 C44.395625 56.075625 44.41625 54.77625 44.4375 53.4375 C44.44910156 52.70660156 44.46070312 51.97570312 44.47265625 51.22265625 C44.58061184 49.35767859 44.58061184 49.35767859 43.375 48.375 C41.81327255 48.28814397 40.24770656 48.26797781 38.68359375 48.27734375 C37.73935547 48.28056641 36.79511719 48.28378906 35.82226562 48.28710938 C34.33243164 48.29967773 34.33243164 48.29967773 32.8125 48.3125 C31.81541016 48.31701172 30.81832031 48.32152344 29.79101562 48.32617188 C27.31895151 48.33799993 24.84700482 48.35448151 22.375 48.375 C21.715 49.695 21.055 51.015 20.375 52.375 C19.715 52.375 19.055 52.375 18.375 52.375 C17.983125 53.2825 17.59125 54.19 17.1875 55.125 C15.28956265 58.52819801 13.43822467 60.05688403 10.375 62.375 C10.375 63.035 10.375 63.695 10.375 64.375 C-4.77114534 65.13125691 -4.77114534 65.13125691 -10.625 60.375 C-11.20121094 59.93542969 -11.77742188 59.49585938 -12.37109375 59.04296875 C-15.43838243 56.24486475 -16.50484927 54.1628586 -17.13671875 50.01953125 C-17.34436946 43.22434079 -17.20008659 38.52197241 -12.625 33.375 C-12.625 32.715 -12.625 32.055 -12.625 31.375 C-11.92375 31.25125 -11.2225 31.1275 -10.5 31 C-7.61832886 30.45871647 -7.61832886 30.45871647 -5 29.3125 C-0.89720234 28.17283398 2.75133604 28.26933843 6.984375 28.40234375 C9.39125698 28.54893594 9.39125698 28.54893594 11.375 27.375 C11.66375 26.446875 11.9525 25.51875 12.25 24.5625 C13.47170704 21.10099672 14.7456306 19.84501368 17.375 17.375 C19.18107665 14.85939324 20.2494702 12.87711919 21 9.875 C20.12554955 6.37719822 18.3330232 5.2760938 15.359375 3.37890625 C12.33138982 1.84703186 9.75654009 1.54694272 6.375 1.375 C5.63507813 1.32472656 4.89515625 1.27445312 4.1328125 1.22265625 C-4.7715183 0.86705198 -14.7939359 2.26299528 -21.625 8.375 Z " fill="#55CC57" transform="translate(67.625,98.625)"/>
<path d="M0 0 C3.47824637 1.31808121 4.77209952 4.780342 6.50878906 7.88623047 C6.88648438 8.53849609 7.26417969 9.19076172 7.65332031 9.86279297 C8.40909653 11.17176622 9.15793494 12.48477062 9.8996582 13.80175781 C10.64680044 15.12171457 11.40672526 16.43450762 12.1784668 17.74023438 C15.00209458 22.53361792 15.00209458 22.53361792 15.07128906 24.88623047 C13.51938891 27.6248778 11.2276622 29.54235734 9.00878906 31.76123047 C6.61367775 35.68050353 6.8419697 39.13539592 7.46582031 43.54638672 C8.6893081 48.53716063 11.68947299 52.11390772 16.00878906 54.76123047 C21.37829611 56.55106615 26.20614239 56.6455477 31.32128906 54.13623047 C36.28689909 49.74801696 38.69930154 45.65427932 39.17675781 39.06982422 C38.79941141 33.88350505 36.15638286 30.03633469 32.75878906 26.26123047 C32.18128906 25.76623047 31.60378906 25.27123047 31.00878906 24.76123047 C32.56358798 19.06643444 35.38198393 14.4307233 38.44628906 9.44873047 C38.93677734 8.62566406 39.42726562 7.80259766 39.93261719 6.95458984 C40.41021484 6.17277344 40.8878125 5.39095703 41.37988281 4.58544922 C41.81228271 3.87477295 42.24468262 3.16409668 42.69018555 2.43188477 C44.00878906 0.76123047 44.00878906 0.76123047 47.00878906 -0.23876953 C57.2879246 5.00336168 64.15216981 15.25070162 68.00878906 25.76123047 C71.16305364 36.70057952 70.35866805 50.67497637 65.61816406 60.96826172 C60.3943916 70.03378916 53.32347467 78.21319943 43.44628906 82.19873047 C42.64191406 82.38435547 41.83753906 82.56998047 41.00878906 82.76123047 C41.33878906 82.10123047 41.66878906 81.44123047 42.00878906 80.76123047 C42.66878906 80.76123047 43.32878906 80.76123047 44.00878906 80.76123047 C44.21503906 80.14248047 44.42128906 79.52373047 44.63378906 78.88623047 C46.00878906 76.76123047 46.00878906 76.76123047 48.94628906 76.01123047 C52.08231813 75.12981 52.08231813 75.12981 52.89160156 72.93310547 C53.34231979 71.49287942 53.78512776 70.05015239 54.21972656 68.60498047 C55.00878906 66.76123047 55.00878906 66.76123047 57.69628906 65.26123047 C58.45941406 65.09623047 59.22253906 64.93123047 60.00878906 64.76123047 C60.00878906 63.77123047 60.00878906 62.78123047 60.00878906 61.76123047 C60.99878906 61.76123047 61.98878906 61.76123047 63.00878906 61.76123047 C63.49091121 60.19963988 63.96934779 58.63691119 64.44628906 57.07373047 C64.713125 56.20361328 64.97996094 55.33349609 65.25488281 54.43701172 C68.68659722 42.25709272 68.02544627 29.25560547 62.25878906 17.94873047 C59.65425724 13.44308053 57.19702962 10.79102151 53.00878906 7.76123047 C52.12191406 6.83310547 51.23503906 5.90498047 50.32128906 4.94873047 C48.1760895 2.41763054 48.1760895 2.41763054 45.00878906 2.76123047 C40.62281771 9.86952887 37.0007467 17.19287041 38.00878906 25.76123047 C39.33216192 27.91463576 39.33216192 27.91463576 41.00878906 29.76123047 C43.42914264 34.20677786 42.96355529 38.04977226 42.25878906 42.88623047 C42.17113281 43.60166016 42.08347656 44.31708984 41.99316406 45.05419922 C41.51397898 48.61481057 41.03120122 50.72761223 39.00878906 53.76123047 C38.01878906 53.76123047 37.02878906 53.76123047 36.00878906 53.76123047 C36.00878906 54.42123047 36.00878906 55.08123047 36.00878906 55.76123047 C29.29436916 58.25961927 20.35326386 59.60391146 13.61425781 56.74560547 C13.08445313 56.42076172 12.55464844 56.09591797 12.00878906 55.76123047 C12.00878906 55.10123047 12.00878906 54.44123047 12.00878906 53.76123047 C11.34878906 53.76123047 10.68878906 53.76123047 10.00878906 53.76123047 C6.00878906 47.13623047 6.00878906 47.13623047 6.00878906 43.76123047 C5.34878906 43.76123047 4.68878906 43.76123047 4.00878906 43.76123047 C3.73356601 36.8806542 4.07463296 31.66246462 8.00878906 25.76123047 C8.66878906 25.76123047 9.32878906 25.76123047 10.00878906 25.76123047 C9.4138822 23.52957476 8.8074678 21.30098482 8.19628906 19.07373047 C7.85984375 17.83236328 7.52339844 16.59099609 7.17675781 15.31201172 C6.11108188 12.07221431 4.81080498 9.62690048 3.00878906 6.76123047 C3.00878906 6.10123047 3.00878906 5.44123047 3.00878906 4.76123047 C-2.45311877 5.1981831 -5.90519687 6.03052197 -9.99121094 9.76123047 C-11.48461039 12.58713827 -12.73299893 15.42806358 -13.91308594 18.39794922 C-14.99121094 20.76123047 -14.99121094 20.76123047 -16.99121094 21.76123047 C-17.64165415 24.46146492 -18.16546598 27.08936437 -18.61621094 29.82373047 C-18.75027344 30.56300781 -18.88433594 31.30228516 -19.02246094 32.06396484 C-20.27667666 39.37809023 -20.67454905 45.86958134 -18.17871094 53.01123047 C-17.84226563 54.00638672 -17.50582031 55.00154297 -17.15917969 56.02685547 C-16.11141549 58.78228855 -16.11141549 58.78228855 -14.35449219 60.93310547 C-12.99121094 62.76123047 -12.99121094 62.76123047 -12.99121094 65.76123047 C-12.33121094 65.76123047 -11.67121094 65.76123047 -10.99121094 65.76123047 C-6.99121094 71.17299517 -6.99121094 71.17299517 -6.99121094 73.76123047 C-9.90906756 73.42906376 -10.92279806 72.83244934 -12.99121094 70.67919922 C-22.70849693 57.41282635 -24.49793712 44.88118271 -22.99121094 28.76123047 C-20.87447913 17.21181253 -13.11000866 7.89755386 -4.06933594 0.80810547 C-1.99121094 -0.23876953 -1.99121094 -0.23876953 0 0 Z " fill="#2A29A7" transform="translate(147.9912109375,105.23876953125)"/>
<path d="M0 0 C1.26650391 -0.01224609 2.53300781 -0.02449219 3.83789062 -0.03710938 C5.04509766 -0.03904297 6.25230469 -0.04097656 7.49609375 -0.04296875 C9.1675647 -0.04913208 9.1675647 -0.04913208 10.87280273 -0.05541992 C13.5625 0.1875 13.5625 0.1875 15.5625 2.1875 C16.16263214 13.52999739 11.69026591 23.79502567 4.890625 32.609375 C-3.56547288 41.97351023 -14.99873493 47.58155459 -27.6015625 48.390625 C-35.391652 48.49613411 -42.05907907 47.71724432 -49.4375 45.1875 C-49.4375 44.8575 -49.4375 44.5275 -49.4375 44.1875 C-48.40625 44.331875 -47.375 44.47625 -46.3125 44.625 C-44.68798122 44.81662457 -43.06289414 45.00344802 -41.4375 45.1875 C-40.3959375 45.31769531 -39.354375 45.44789063 -38.28125 45.58203125 C-29.39150156 46.49303025 -19.31435079 46.78580211 -11.40234375 41.94140625 C-10.02373279 40.75319169 -8.72443862 39.47443862 -7.4375 38.1875 C-6.138125 37.6925 -6.138125 37.6925 -4.8125 37.1875 C-1.66189699 35.86093031 -0.43375569 33.91571611 1.5625 31.1875 C2.04203125 30.71570313 2.5215625 30.24390625 3.015625 29.7578125 C8.11136593 24.58486338 10.17889717 19.34808616 10.5625 12.1875 C11.2225 12.1875 11.8825 12.1875 12.5625 12.1875 C12.0675 8.2275 12.0675 8.2275 11.5625 4.1875 C8.104324 4.1006671 4.64642656 4.04716718 1.1875 4 C0.20265625 3.97486328 -0.7821875 3.94972656 -1.796875 3.92382812 C-2.73789063 3.91416016 -3.67890625 3.90449219 -4.6484375 3.89453125 C-5.51774902 3.8788208 -6.38706055 3.86311035 -7.28271484 3.84692383 C-8.3493335 4.01550903 -8.3493335 4.01550903 -9.4375 4.1875 C-10.0975 5.1775 -10.7575 6.1675 -11.4375 7.1875 C-12.0975 7.1875 -12.7575 7.1875 -13.4375 7.1875 C-13.623125 8.0846875 -13.623125 8.0846875 -13.8125 9 C-14.4375 11.1875 -14.4375 11.1875 -16.4375 14.1875 C-17.0975 14.1875 -17.7575 14.1875 -18.4375 14.1875 C-18.7675 15.1775 -19.0975 16.1675 -19.4375 17.1875 C-20.0975 17.1875 -20.7575 17.1875 -21.4375 17.1875 C-21.4375 17.8475 -21.4375 18.5075 -21.4375 19.1875 C-27.44319152 20.73735588 -33.74212245 21.46703161 -39.3125 18.375 C-41.64099949 16.74505036 -43.60907539 15.33858778 -45.4375 13.1875 C-45.1075 12.1975 -44.7775 11.2075 -44.4375 10.1875 C-42.94010417 11.45703125 -41.44270833 12.7265625 -39.9453125 13.99609375 C-35.73946428 17.3193676 -30.54758176 16.71438696 -25.4375 16.1875 C-21.46719927 14.20234963 -18.64723457 12.05453549 -16.4375 8.1875 C-15.72937186 5.86641331 -15.05725848 3.53372853 -14.4375 1.1875 C-11.73678847 -1.51321153 -3.64079036 0.00184718 0 0 Z " fill="#5DCE5C" transform="translate(99.4375,143.8125)"/>
<path d="M0 0 C1.216875 0.061875 2.43375 0.12375 3.6875 0.1875 C7.89127032 1.21861347 10.9996805 2.849222 14 6 C14.80039756 9.20159022 14.2154109 10.54650336 12.8125 13.5 C11 16 11 16 8.375 18.5 C5.86816166 21.1387772 5.30492562 22.44253443 5 26 C0.11492921 26.74338034 -4.73932902 27.25629679 -9.66796875 27.62109375 C-12.1267112 28.02058792 -13.79888285 28.87437694 -16 30 C-16.99 30 -17.98 30 -19 30 C-19.433125 30.86625 -19.433125 30.86625 -19.875 31.75 C-21 34 -21 34 -22.0390625 35.71875 C-24.17877499 40.79839266 -23.71727678 46.63237876 -23 52 C-21.42393201 55.16129917 -19.54383158 57.5621614 -17 60 C-20.34617626 58.40056984 -22.64171067 56.92753158 -25 54 C-26.77225789 47.50172107 -26.60478926 41.18637449 -24 35 C-23.83242243 31.79129767 -23.83242243 31.79129767 -24 29 C-19.545 28.01 -19.545 28.01 -15 27 C-15 26.34 -15 25.68 -15 25 C-10.11132099 22.55566049 -3.14846902 23.94390379 2 25 C2.0825 24.2575 2.165 23.515 2.25 22.75 C3.14597236 19.46476803 4.51280722 18.25401846 7 16 C7.33 15.34 7.66 14.68 8 14 C8.66 14 9.32 14 10 14 C10.66 11.36 11.32 8.72 12 6 C4.78542719 4.6163833 -2.28627432 3.79028578 -9.625 3.75 C-10.31142578 3.74097656 -10.99785156 3.73195313 -11.70507812 3.72265625 C-15.35989983 3.74451959 -16.87551403 3.91700936 -20 6 C-23.1875 6.125 -23.1875 6.125 -26 6 C-18.94112319 0.02839095 -8.9003557 -0.604728 0 0 Z " fill="#1AED1C" transform="translate(74,100)"/>
<path d="M0 0 C0.33 0.66 0.66 1.32 1 2 C1.66 2 2.32 2 3 2 C3.268125 2.804375 3.53625 3.60875 3.8125 4.4375 C4.204375 5.283125 4.59625 6.12875 5 7 C5.99 7.33 6.98 7.66 8 8 C8 8.66 8 9.32 8 10 C10.64 10.33 13.28 10.66 16 11 C16 12.65 16 14.3 16 16 C16.94875 16.12375 17.8975 16.2475 18.875 16.375 C22 17 22 17 24 19 C26.64768365 19.20343784 29.1657906 19.28216836 31.8125 19.25 C32.56845459 19.24613281 33.32440918 19.24226563 34.10327148 19.23828125 C40.86705374 19.13572416 47.35581013 18.29417264 54 17 C54 16.34 54 15.68 54 15 C55.65 14.67 57.3 14.34 59 14 C53.72729792 20.29322506 47.53971718 21.83641494 39.5625 22.875 C34.14540392 23.21617957 29.02721621 22.64623465 23.6875 21.8125 C22.5584021 21.64306885 22.5584021 21.64306885 21.40649414 21.47021484 C14.22593504 20.20740221 8.33394529 17.04562392 3 12 C-1 6.18300654 -1 6.18300654 -1 3 C-1.66 3 -2.32 3 -3 3 C-3 2.34 -3 1.68 -3 1 C-2.01 0.67 -1.02 0.34 0 0 Z " fill="#28E528" transform="translate(33,168)"/>
<path d="M0 0 C8.26428776 2.32433093 14.61514267 9.94779623 19 17 C24.89706821 28.41732694 26.38895533 42.35753164 23.1640625 54.921875 C19.23952128 65.93166177 11.86568193 74.76808674 2 81 C-1.5625 82.4375 -1.5625 82.4375 -4 83 C-3.505 82.01 -3.505 82.01 -3 81 C-2.34 81 -1.68 81 -1 81 C-0.79375 80.38125 -0.5875 79.7625 -0.375 79.125 C1 77 1 77 3.9375 76.25 C7.07352907 75.36857953 7.07352907 75.36857953 7.8828125 73.171875 C8.33353073 71.73164895 8.7763387 70.28892192 9.2109375 68.84375 C10 67 10 67 12.6875 65.5 C13.450625 65.335 14.21375 65.17 15 65 C15 64.01 15 63.02 15 62 C15.99 62 16.98 62 18 62 C18.48212214 60.43840941 18.96055873 58.87568072 19.4375 57.3125 C19.70433594 56.44238281 19.97117188 55.57226562 20.24609375 54.67578125 C23.67780815 42.49586225 23.01665721 29.494375 17.25 18.1875 C14.64546818 13.68185006 12.18824056 11.02979104 8 8 C7.113125 7.071875 6.22625 6.14375 5.3125 5.1875 C3.16730044 2.65640007 3.16730044 2.65640007 0 3 C-2.04124678 6.5607399 -4.07415494 10.12471747 -6.0703125 13.7109375 C-6.75520833 14.93229167 -7.44010417 16.15364583 -8.125 17.375 C-8.47175781 18.00277344 -8.81851563 18.63054687 -9.17578125 19.27734375 C-11.77443609 23.88721805 -11.77443609 23.88721805 -14 25 C-12.45320346 19.26666433 -9.55758603 14.66925068 -6.4375 9.6875 C-5.93025391 8.86443359 -5.42300781 8.04136719 -4.90039062 7.19335938 C-1.17307562 1.17307562 -1.17307562 1.17307562 0 0 Z " fill="#4242A6" transform="translate(193,105)"/>
<path d="M0 0 C0.33 0 0.66 0 1 0 C3.9628053 14.44367582 0.78688357 26.63259669 -7 39 C-10.56592916 44.07874759 -14.65818202 47.83447824 -20 51 C-21.96484375 51 -21.96484375 51 -24 50 C-25.96484375 47.375 -25.96484375 47.375 -27.9375 44 C-28.28159912 43.41420166 -28.62569824 42.82840332 -28.98022461 42.22485352 C-29.99588528 40.48850875 -30.99814047 38.74434435 -32 37 C-32.54914063 36.10152344 -33.09828125 35.20304687 -33.6640625 34.27734375 C-34.35628906 33.11912109 -34.35628906 33.11912109 -35.0625 31.9375 C-35.46597656 31.26589844 -35.86945313 30.59429687 -36.28515625 29.90234375 C-37.1905551 27.49289435 -36.98767843 26.35561306 -36 24 C-33.4375 22.25 -33.4375 22.25 -31 21 C-31.309375 21.53625 -31.61875 22.0725 -31.9375 22.625 C-33.17827439 25.3984957 -33.5909675 28.00042837 -34 31 C-33.34 31 -32.68 31 -32 31 C-31.608125 31.886875 -31.21625 32.77375 -30.8125 33.6875 C-28.92429787 37.13835216 -26.79911414 39.27265802 -24 42 C-23.29539115 43.31367751 -22.62052133 44.64457553 -22 46 C-20.5164999 45.57742724 -19.03823576 45.13643678 -17.5625 44.6875 C-16.73878906 44.44386719 -15.91507813 44.20023438 -15.06640625 43.94921875 C-14.38449219 43.63597656 -13.70257813 43.32273438 -13 43 C-12.67 42.01 -12.34 41.02 -12 40 C-11.01 39.505 -11.01 39.505 -10 39 C-9.15835291 37.12511739 -9.15835291 37.12511739 -8.5 34.875 C-8.11908203 33.66650391 -8.11908203 33.66650391 -7.73046875 32.43359375 C-6.78890348 29.29672121 -5.87312232 26.156673 -5 23 C-4.01 23 -3.02 23 -2 23 C-2 21.68 -2 20.36 -2 19 C-1.34 19 -0.68 19 0 19 C0 12.73 0 6.46 0 0 Z " fill="#B53F41" transform="translate(164,45)"/>
<path d="M0 0 C0.33 0.66 0.66 1.32 1 2 C0.22345891 3.76625032 -0.59836909 5.51261243 -1.4375 7.25 C-5.34467012 16.82364613 -4.44484601 26.83424212 -4 37 C-3.34 37 -2.68 37 -2 37 C-2 38.32 -2 39.64 -2 41 C-1.34 41 -0.68 41 0 41 C1.4606285 43.64738916 2 44.89448334 2 48 C2.66 48 3.32 48 4 48 C4.32613281 48.61488281 4.65226562 49.22976562 4.98828125 49.86328125 C5.42527344 50.67152344 5.86226562 51.47976562 6.3125 52.3125 C6.74175781 53.11300781 7.17101562 53.91351563 7.61328125 54.73828125 C8.9313272 56.88799564 10.03582664 58.42866131 12 60 C15.61023099 60.73041853 15.61023099 60.73041853 19 61 C19.38091797 60.16855469 19.38091797 60.16855469 19.76953125 59.3203125 C20.28580078 58.23363281 20.28580078 58.23363281 20.8125 57.125 C21.14894531 56.40570313 21.48539063 55.68640625 21.83203125 54.9453125 C23 53 23 53 26 51 C24.86935881 54.289138 23.37513313 57.25592608 21.625 60.25 C21.22539063 60.93578125 20.82578125 61.6215625 20.4140625 62.328125 C19 64 19 64 17.13671875 64.9375 C13.04388038 65.05721739 10.51467892 62.02658424 7.53515625 59.5078125 C-1.45758247 50.61206788 -7.04553863 38.01752781 -7.25 25.375 C-7.15786559 16.00032429 -4.46237441 8.15537392 0 0 Z " fill="#C34D4D" transform="translate(79,31)"/>
<path d="M0 0 C1.26650391 -0.01224609 2.53300781 -0.02449219 3.83789062 -0.03710938 C5.04509766 -0.03904297 6.25230469 -0.04097656 7.49609375 -0.04296875 C9.1675647 -0.04913208 9.1675647 -0.04913208 10.87280273 -0.05541992 C13.5625 0.1875 13.5625 0.1875 15.5625 2.1875 C15.5390625 4.7890625 15.5390625 4.7890625 15.1875 7.8125 C15.07664063 8.81539062 14.96578125 9.81828125 14.8515625 10.8515625 C14.70847656 12.00785156 14.70847656 12.00785156 14.5625 13.1875 C14.2325 13.1875 13.9025 13.1875 13.5625 13.1875 C13.50191406 12.47722656 13.44132812 11.76695312 13.37890625 11.03515625 C13.29511719 10.11605469 13.21132812 9.19695312 13.125 8.25 C13.04378906 7.33347656 12.96257812 6.41695312 12.87890625 5.47265625 C12.80205024 3.22590268 12.80205024 3.22590268 11.5625 2.1875 C9.78178754 2.10023777 7.9976686 2.08050959 6.21484375 2.08984375 C5.13525391 2.09306641 4.05566406 2.09628906 2.94335938 2.09960938 C1.23889648 2.11217773 1.23889648 2.11217773 -0.5 2.125 C-2.21026367 2.13176758 -2.21026367 2.13176758 -3.95507812 2.13867188 C-6.78260351 2.15050253 -9.6100264 2.1669859 -12.4375 2.1875 C-12.58695068 2.80334961 -12.73640137 3.41919922 -12.89038086 4.05371094 C-13.45476878 6.25484903 -14.18696388 8.31653622 -15 10.4375 C-15.26941406 11.14390625 -15.53882812 11.8503125 -15.81640625 12.578125 C-16.02136719 13.10921875 -16.22632812 13.6403125 -16.4375 14.1875 C-17.0975 14.1875 -17.7575 14.1875 -18.4375 14.1875 C-18.7675 15.1775 -19.0975 16.1675 -19.4375 17.1875 C-20.0975 17.1875 -20.7575 17.1875 -21.4375 17.1875 C-21.4375 17.8475 -21.4375 18.5075 -21.4375 19.1875 C-27.44319152 20.73735588 -33.74212245 21.46703161 -39.3125 18.375 C-41.64099949 16.74505036 -43.60907539 15.33858778 -45.4375 13.1875 C-45.1075 12.1975 -44.7775 11.2075 -44.4375 10.1875 C-42.94010417 11.45703125 -41.44270833 12.7265625 -39.9453125 13.99609375 C-35.73946428 17.3193676 -30.54758176 16.71438696 -25.4375 16.1875 C-21.46719927 14.20234963 -18.64723457 12.05453549 -16.4375 8.1875 C-15.72937186 5.86641331 -15.05725848 3.53372853 -14.4375 1.1875 C-11.73678847 -1.51321153 -3.64079036 0.00184718 0 0 Z " fill="#5AD652" transform="translate(99.4375,143.8125)"/>
<path d="M0 0 C0.99 0 1.98 0 3 0 C2.9071875 1.1446875 2.9071875 1.1446875 2.8125 2.3125 C3.04219924 5.60485577 3.70359977 5.78865163 6 8 C6.68495029 9.69606738 7.36958697 11.39226435 8.05078125 13.08984375 C10.31767804 17.65162372 13.8028467 21.2018978 18 24 C18.99 24 19.98 24 21 24 C21.268125 23.29875 21.53625 22.5975 21.8125 21.875 C23.07815076 18.81079289 24.36105848 15.88453708 26 13 C26.99 12.67 27.98 12.34 29 12 C29 9.03 29 6.06 29 3 C29.66 3.33 30.32 3.66 31 4 C31.44917264 11.33648653 29.43146829 16.27602013 25 22 C23.96958573 23.98450156 22.96314063 25.98199105 22 28 C18.60309294 27.93206186 15.97006258 27.79269222 13.26953125 25.5859375 C10.07667395 22.00678389 8.15232444 18.72453021 7 14 C6.34 14 5.68 14 5 14 C4.34 11.69 3.68 9.38 3 7 C2.34 7 1.68 7 1 7 C0.67 4.69 0.34 2.38 0 0 Z " fill="#D9120F" transform="translate(76,65)"/>
<path d="M0 0 C0 3.90617433 -1.31784596 6.50629545 -3 10 C-3.99 10.495 -3.99 10.495 -5 11 C-5.65044322 13.70023445 -6.17425504 16.3281339 -6.625 19.0625 C-6.82609375 20.17141602 -6.82609375 20.17141602 -7.03125 21.30273438 C-8.28546573 28.61685976 -8.68333811 35.10835087 -6.1875 42.25 C-5.85105469 43.24515625 -5.51460937 44.2403125 -5.16796875 45.265625 C-4.12020456 48.02105808 -4.12020456 48.02105808 -2.36328125 50.171875 C-1 52 -1 52 -1 55 C-0.34 55 0.32 55 1 55 C5 60.41176471 5 60.41176471 5 63 C2.12750173 62.65941296 1.05427108 62.05364608 -1.03515625 59.98828125 C-10.28825288 47.77561999 -11.55235678 33.67763883 -9.56640625 18.73828125 C-8.02830624 11.27706317 -4.7557954 5.88936854 0 0 Z " fill="#272BB5" transform="translate(136,116)"/>
<path d="M0 0 C1.125 3.75 1.125 3.75 0 6 C-0.43771856 10.81432631 -0.43771856 10.81432631 1.375 15.125 C2.179375 16.053125 2.179375 16.053125 3 17 C5.42035358 21.44554739 4.95476622 25.28854179 4.25 30.125 C4.16234375 30.84042969 4.0746875 31.55585938 3.984375 32.29296875 C3.50518992 35.8535801 3.02241216 37.96638176 1 41 C0.01 41 -0.98 41 -2 41 C-2 41.66 -2 42.32 -2 43 C-3.98 43.495 -3.98 43.495 -6 44 C-5.42128458 40.0936709 -3.4312999 38.02070594 -1 35 C1.6665762 30.42872651 1.24404172 25.99381288 0 21 C-1.83317376 17.70751892 -1.83317376 17.70751892 -4 15 C-5.30859375 13.19140625 -5.30859375 13.19140625 -6 11 C-4.8828125 8.203125 -4.8828125 8.203125 -3.125 5.25 C-2.55007812 4.26515625 -1.97515625 3.2803125 -1.3828125 2.265625 C-0.92648438 1.51796875 -0.47015625 0.7703125 0 0 Z " fill="#1C1BB3" transform="translate(186,118)"/>
<path d="M0 0 C1.51953125 1.92578125 1.51953125 1.92578125 2.8125 4.3125 C3.25207031 5.09238281 3.69164062 5.87226562 4.14453125 6.67578125 C5.10863264 9.29514348 4.9599526 10.42638476 4 13 C3.34 12.67 2.68 12.34 2 12 C1.375 8.9375 1.375 8.9375 1 6 C0.34 6 -0.32 6 -1 6 C-1.33 4.35 -1.66 2.7 -2 1 C-3.32 1 -4.64 1 -6 1 C-6.33 1.99 -6.66 2.98 -7 4 C-7.66 4.309375 -8.32 4.61875 -9 4.9375 C-11.1837643 5.7999615 -11.1837643 5.7999615 -11.625 7.9375 C-11.74875 8.618125 -11.8725 9.29875 -12 10 C-12.99 11.485 -12.99 11.485 -14 13 C-14.68177416 14.32567199 -15.35191436 15.65753688 -16 17 C-16.99 17 -17.98 17 -19 17 C-21.06627421 26.28820348 -21.57800555 35.52733516 -22 45 C-24.49093857 41.26359214 -24.09638863 38.64990673 -23.75 34.375 C-23.6969873 33.65948975 -23.64397461 32.94397949 -23.58935547 32.20678711 C-23.16487545 26.9859194 -22.58345767 22.01428263 -21 17 C-20.01 16.67 -19.02 16.34 -18 16 C-17.9175 15.319375 -17.835 14.63875 -17.75 13.9375 C-16.50484176 9.06063023 -14.91377447 5.43533086 -10.875 2.40625 C-3.78935226 -1.78919932 -3.78935226 -1.78919932 0 0 Z " fill="#0807E4" transform="translate(151,110)"/>
<path d="M0 0 C0 3.60681758 -0.94781223 4.81106642 -2.875 7.8125 C-5.15459752 11.48875234 -6.80575272 14.82013452 -8 19 C-8.33781494 19.61029053 -8.67562988 20.22058105 -9.02368164 20.84936523 C-10.89986529 24.98222389 -10.42619395 29.59272344 -10.4375 34.0625 C-10.44136719 35.09785889 -10.44523437 36.13321777 -10.44921875 37.19995117 C-10.33023212 45.06112541 -9.1118269 50.2595409 -5 57 C-5 57.66 -5 58.32 -5 59 C-4.34 59 -3.68 59 -3 59 C-1.61061923 60.96147874 -0.2739589 62.96166576 1 65 C0.505 65.99 0.505 65.99 0 67 C-11.12146688 54.31288972 -14.05750797 42.67702223 -13 26 C-11.7237162 16.02391012 -7.4370849 6.915582 0 0 Z " fill="#5BCE55" transform="translate(35,112)"/>
<path d="M0 0 C0 4.24645065 -1.81750806 6.38524772 -4 10 C-8.95 10 -13.9 10 -19 10 C-19 10.66 -19 11.32 -19 12 C-21.21446463 13.51276185 -23.51424915 14.83045507 -25.8359375 16.171875 C-28.70008614 18.59140851 -29.22934501 20.34814624 -30 24 C-30.02966794 27.66687869 -30.02966794 27.66687869 -29.625 31.375 C-29.45871094 33.24285156 -29.45871094 33.24285156 -29.2890625 35.1484375 C-29.19367187 36.08945313 -29.09828125 37.03046875 -29 38 C-31.86585922 35.69819657 -32.90995116 34.50427351 -33.56640625 30.828125 C-33.55290679 18.46261782 -33.55290679 18.46261782 -29.79296875 13.5546875 C-22.52861912 7.25575253 -13.08725733 7.4799026 -4 8 C-4.04125 7.21238281 -4.0825 6.42476563 -4.125 5.61328125 C-4.08375 4.75089844 -4.0425 3.88851562 -4 3 C-2 1.1875 -2 1.1875 0 0 Z " fill="#47D64D" transform="translate(83,118)"/>
<path d="M0 0 C2.31 0.66 4.62 1.32 7 2 C7 2.99 7 3.98 7 5 C7.85271484 5.07347656 7.85271484 5.07347656 8.72265625 5.1484375 C9.88087891 5.26058594 9.88087891 5.26058594 11.0625 5.375 C12.19365234 5.47941406 12.19365234 5.47941406 13.34765625 5.5859375 C16 6 16 6 19.03125 7.03125 C24.37430913 8.62150646 29.91766378 8.21017255 35.4375 8.125 C37.1071582 8.11146484 37.1071582 8.11146484 38.81054688 8.09765625 C41.54059023 8.0742224 44.2701801 8.041414 47 8 C42.73464561 12.26535439 35.51349778 12.17939038 29.75 12.375 C19.93123709 12.202741 9.65794454 9.41176984 2 3 C1.34 2.01 0.68 1.02 0 0 Z " fill="#2828AD" transform="translate(141,180)"/>
<path d="M0 0 C7.20783037 4.97683526 11.40457397 12.3688651 13.375 20.875 C14.92800901 30.99357417 14.71889215 41.35842777 11 51 C9.39453125 52.8359375 9.39453125 52.8359375 8 54 C8.875 49.25 8.875 49.25 10 47 C11.86872192 36.29522256 11.73974106 25.29824217 8 15 C6.70758535 13.62696689 5.3757125 12.2895622 4 11 C2.98828125 8.96484375 2.98828125 8.96484375 2.3125 6.9375 C2.08175781 6.26589844 1.85101563 5.59429687 1.61328125 4.90234375 C1.30970703 3.96068359 1.30970703 3.96068359 1 3 C0.67 2.01 0.34 1.02 0 0 Z " fill="#0E0AD1" transform="translate(202,113)"/>
<path d="M0 0 C3.47914941 -0.02887814 6.95826831 -0.04675687 10.4375 -0.0625 C11.92733398 -0.07506836 11.92733398 -0.07506836 13.44726562 -0.08789062 C14.39150391 -0.09111328 15.33574219 -0.09433594 16.30859375 -0.09765625 C17.62041626 -0.10551147 17.62041626 -0.10551147 18.95874023 -0.11352539 C21 0 21 0 22 1 C22.14115161 3.67058851 22.04247107 6.32432238 22 9 C21.34 9 20.68 9 20 9 C20 6.69 20 4.38 20 2 C19.01 2 18.02 2 17 2 C17 2.99 17 3.98 17 5 C16.01 5 15.02 5 14 5 C14 4.01 14 3.02 14 2 C9.71 2 5.42 2 1 2 C0.4225 3.4025 -0.155 4.805 -0.75 6.25 C-2.36721846 9.85895066 -3.73101503 12.62255639 -7 15 C-9.75 15.75 -9.75 15.75 -12 16 C-12 15.34 -12 14.68 -12 14 C-11.236875 13.4225 -10.47375 12.845 -9.6875 12.25 C-6.70305031 9.75139096 -5.52819035 7.53896713 -4 4 C-3.34 4 -2.68 4 -2 4 C-1.34 2.68 -0.68 1.36 0 0 Z " fill="#15F019" transform="translate(90,147)"/>
<path d="M0 0 C0.66 0.33 1.32 0.66 2 1 C2.125 7.625 2.125 7.625 1 11 C1.66 11 2.32 11 3 11 C3.33 9.68 3.66 8.36 4 7 C5.06544301 10.19632902 5.19353531 10.97025652 4 14 C1.79637053 16.36103158 -0.55396106 18.50681544 -2.9375 20.6875 C-5.30729625 23.69791221 -5.30729625 23.69791221 -4.6484375 26.38671875 C-3.88277083 28.66582936 -3.02818508 30.827778 -2 33 C-4 31.1875 -4 31.1875 -6 29 C-6 28.01 -6 27.02 -6 26 C-6.66 26 -7.32 26 -8 26 C-8.6796875 24.28515625 -8.6796875 24.28515625 -9 22 C-7.8203125 19.74609375 -7.8203125 19.74609375 -6.125 17.4375 C-4.25550846 14.85934074 -3.01465361 13.04396084 -2 10 C-1.34 10 -0.68 10 0 10 C0 6.7 0 3.4 0 0 Z " fill="#F0080D" transform="translate(138,50)"/>
<path d="M0 0 C-3.66363568 1.22121189 -4.76308449 0.29919151 -8.13671875 -1.23046875 C-19.010547 -5.72133702 -35.09023552 -3.63658816 -46 0 C-45 -3 -45 -3 -43.36328125 -3.9140625 C-28.16539536 -9.18266294 -14.05412481 -7.68999282 0 0 Z " fill="#BB383A" transform="translate(144,16)"/>
<path d="M0 0 C0.66 0.33 1.32 0.66 2 1 C1.67 3.97 1.34 6.94 1 10 C1.66 10 2.32 10 3 10 C5.875 16.625 5.875 16.625 7 20 C7.66 20 8.32 20 9 20 C9.33 20.66 9.66 21.32 10 22 C13.76300374 23.25433458 17.27210909 23.10695422 21.1875 23.0625 C21.93708984 23.05798828 22.68667969 23.05347656 23.45898438 23.04882812 C25.30602383 23.03706354 27.15302213 23.01912865 29 23 C29 23.66 29 24.32 29 25 C26.12442297 25.08138426 23.25117738 25.14067851 20.375 25.1875 C19.56675781 25.21263672 18.75851563 25.23777344 17.92578125 25.26367188 C12.85706735 25.32548546 9.32646987 24.93513815 5 22 C1.33697407 18.00457607 -1.77439846 13.58574071 -2.25390625 8.08984375 C-1.65178571 1.65178571 -1.65178571 1.65178571 0 0 Z " fill="#0A09D0" transform="translate(151,139)"/>
<path d="M0 0 C0.33 0 0.66 0 1 0 C3.21175077 10.78228499 2.47260426 22.60894008 -2.84765625 32.40625 C-4.50782246 34.70234428 -6.43969455 35.86208647 -9 37 C-7.66666667 32.33333333 -6.33333333 27.66666667 -5 23 C-4.01 23 -3.02 23 -2 23 C-2 21.68 -2 20.36 -2 19 C-1.34 19 -0.68 19 0 19 C0 12.73 0 6.46 0 0 Z " fill="#C22224" transform="translate(164,45)"/>
<path d="M0 0 C0.33 0.99 0.66 1.98 1 3 C3.01508358 3.73323796 3.01508358 3.73323796 5 4 C3.76044505 7.71866485 1.81445146 9.32283886 -1 12 C-1.66 12.66 -2.32 13.32 -3 14 C-5.1640625 14.4140625 -5.1640625 14.4140625 -7.625 14.625 C-8.44226563 14.69976562 -9.25953125 14.77453125 -10.1015625 14.8515625 C-10.72804688 14.90054688 -11.35453125 14.94953125 -12 15 C-10.25 13 -10.25 13 -8 11 C-6.68 11 -5.36 11 -4 11 C-4.33 8.03 -4.66 5.06 -5 2 C-2 0 -2 0 0 0 Z " fill="#0CF711" transform="translate(99,168)"/>
<path d="M0 0 C0.5625 1.9375 0.5625 1.9375 1 4 C0.67 4.33 0.34 4.66 0 5 C-0.15656012 7.78496364 -0.23853111 10.52584046 -0.25 13.3125 C-0.25394775 14.12541504 -0.25789551 14.93833008 -0.26196289 15.77587891 C-0.20519966 21.69681041 0.62615639 26.95360794 2.44140625 32.6171875 C3.04076021 35.17387221 2.86017256 36.55050198 2 39 C-3.02312058 31.66265602 -3.49456891 24.79912224 -3.5 16.125 C-3.50580078 15.11429443 -3.51160156 14.10358887 -3.51757812 13.06225586 C-3.36885124 4.13938636 -3.36885124 4.13938636 0 0 Z " fill="#20EA20" transform="translate(27,130)"/>
<path d="M0 0 C8.19227443 2.23425666 12.69865582 9.64207821 16.73828125 16.5703125 C20.14193713 23.12472104 20.14193713 23.12472104 19.625 26.3125 C19.315625 27.1478125 19.315625 27.1478125 19 28 C19 27.34 19 26.68 19 26 C18.34 26 17.68 26 17 26 C16.67 24.02 16.34 22.04 16 20 C15.34 20 14.68 20 14 20 C13.7525 19.29875 13.505 18.5975 13.25 17.875 C10.58898813 11.75467269 7.59683354 8.56162135 2 5 C2 4.34 2 3.68 2 3 C1.34 3 0.68 3 0 3 C0 2.01 0 1.02 0 0 Z " fill="#B53639" transform="translate(144,17)"/>
<path d="M0 0 C1.32 0.33 2.64 0.66 4 1 C1.68407095 6.04055147 -0.99086096 6.97876846 -6 9 C-6.598125 9.70125 -7.19625 10.4025 -7.8125 11.125 C-14.09496843 16.50997294 -27.12571619 14.09449141 -35 14 C-35 13.67 -35 13.34 -35 13 C-34.44014404 12.9498877 -33.88028809 12.89977539 -33.3034668 12.84814453 C-30.76392044 12.61586413 -28.22579309 12.37058215 -25.6875 12.125 C-24.80642578 12.04636719 -23.92535156 11.96773437 -23.01757812 11.88671875 C-22.17001953 11.80292969 -21.32246094 11.71914062 -20.44921875 11.6328125 C-19.66893311 11.55949707 -18.88864746 11.48618164 -18.0847168 11.41064453 C-15.70505767 11.08029789 -15.70505767 11.08029789 -13 9 C-11.01363702 8.29373761 -9.01151741 7.63106429 -7 7 C-5.88625 6.62875 -4.7725 6.2575 -3.625 5.875 C-2.75875 5.58625 -1.8925 5.2975 -1 5 C-0.67 3.35 -0.34 1.7 0 0 Z " fill="#0B0AD1" transform="translate(199,175)"/>
<path d="M0 0 C1.53527344 -0.01836914 1.53527344 -0.01836914 3.1015625 -0.03710938 C4.07867187 -0.03904297 5.05578125 -0.04097656 6.0625 -0.04296875 C7.41021484 -0.04913208 7.41021484 -0.04913208 8.78515625 -0.05541992 C11 0.1875 11 0.1875 13 2.1875 C13.30078125 4.46484375 13.30078125 4.46484375 13.3125 7.125 C13.32925781 8.00027344 13.34601563 8.87554687 13.36328125 9.77734375 C12.93939398 12.58958512 12.18325915 13.44204479 10 15.1875 C10 13.8675 10 12.5475 10 11.1875 C10.66 11.1875 11.32 11.1875 12 11.1875 C11.67 8.5475 11.34 5.9075 11 3.1875 C7.541824 3.1006671 4.08392656 3.04716718 0.625 3 C-0.35984375 2.97486328 -1.3446875 2.94972656 -2.359375 2.92382812 C-3.30039063 2.91416016 -4.24140625 2.90449219 -5.2109375 2.89453125 C-6.08024902 2.8788208 -6.94956055 2.86311035 -7.84521484 2.84692383 C-8.9118335 3.01550903 -8.9118335 3.01550903 -10 3.1875 C-10.99 4.6725 -10.99 4.6725 -12 6.1875 C-12.66 6.1875 -13.32 6.1875 -14 6.1875 C-14.33 7.5075 -14.66 8.8275 -15 10.1875 C-15.33 9.5275 -15.66 8.8675 -16 8.1875 C-12.56488949 -1.13637138 -9.07399191 0.0057141 0 0 Z " fill="#40D442" transform="translate(100,144.8125)"/>
<path d="M0 0 C0.66 0 1.32 0 2 0 C0.49966419 5.16602115 -1.78982291 9.54657973 -4.4375 14.1875 C-4.83259766 14.89841797 -5.22769531 15.60933594 -5.63476562 16.34179688 C-9.30018487 22.82489281 -9.30018487 22.82489281 -12 25 C-15.35546875 24.85546875 -15.35546875 24.85546875 -19.1875 24.1875 C-20.45980469 23.97480469 -21.73210937 23.76210937 -23.04296875 23.54296875 C-24.01878906 23.36378906 -24.99460937 23.18460938 -26 23 C-26 22.67 -26 22.34 -26 22 C-24.44539063 22.01353516 -24.44539063 22.01353516 -22.859375 22.02734375 C-15.64104403 22.21279975 -15.64104403 22.21279975 -9.21875 19.65625 C-8.16390628 17.78475308 -7.55898581 16.07340128 -7 14 C-6.48856157 12.5799146 -5.96776307 11.16316414 -5.4375 9.75 C-5.22996094 9.10546875 -5.02242187 8.4609375 -4.80859375 7.796875 C-3.87037738 5.71194973 -2.61585603 4.59442558 -1 3 C-0.67 2.01 -0.34 1.02 0 0 Z " fill="#55CD56" transform="translate(90,106)"/>
<path d="M0 0 C0.33 0.66 0.66 1.32 1 2 C1.66 2 2.32 2 3 2 C3.268125 2.804375 3.53625 3.60875 3.8125 4.4375 C4.204375 5.283125 4.59625 6.12875 5 7 C5.99 7.33 6.98 7.66 8 8 C8 8.66 8 9.32 8 10 C10.64 10.33 13.28 10.66 16 11 C16 12.65 16 14.3 16 16 C15.01 15.67 14.02 15.34 13 15 C13 14.34 13 13.68 13 13 C11.1746875 12.9071875 11.1746875 12.9071875 9.3125 12.8125 C5.84821114 12.38253507 4.95993004 11.96845556 2.0625 9.6875 C0.21738963 7.28326527 -0.67099252 5.9610673 -1 3 C-1.66 3 -2.32 3 -3 3 C-3 2.34 -3 1.68 -3 1 C-2.01 0.67 -1.02 0.34 0 0 Z " fill="#14F012" transform="translate(33,168)"/>
<path d="M0 0 C0.66 0.33 1.32 0.66 2 1 C1.38511719 1.79921875 0.77023438 2.5984375 0.13671875 3.421875 C-10.65931529 17.89216152 -11.48524079 32.29265938 -9 50 C-14.48921358 41.76617963 -13.05793904 27.93658787 -11.38671875 18.55859375 C-9.05570007 11.50392489 -4.59035036 5.7602212 0 0 Z " fill="#4949A9" transform="translate(137,112)"/>
<path d="M0 0 C0.495 0.99 0.495 0.99 1 2 C-0.11242065 2.029729 -0.11242065 2.029729 -1.24731445 2.06005859 C-4.60273834 2.15522928 -7.95753286 2.26494094 -11.3125 2.375 C-13.06336914 2.42140625 -13.06336914 2.42140625 -14.84960938 2.46875 C-16.52700195 2.52675781 -16.52700195 2.52675781 -18.23828125 2.5859375 C-19.7857605 2.63306885 -19.7857605 2.63306885 -21.36450195 2.68115234 C-24.22843236 2.82674629 -24.22843236 2.82674629 -27 5 C-30.1875 5.125 -30.1875 5.125 -33 5 C-24.34623503 -2.32083909 -10.62241038 -2.26008732 0 0 Z " fill="#25E129" transform="translate(81,101)"/>
<path d="M0 0 C1.26650391 -0.01224609 2.53300781 -0.02449219 3.83789062 -0.03710938 C5.04509766 -0.03904297 6.25230469 -0.04097656 7.49609375 -0.04296875 C9.1675647 -0.04913208 9.1675647 -0.04913208 10.87280273 -0.05541992 C13.5625 0.1875 13.5625 0.1875 15.5625 2.1875 C15.5390625 4.7890625 15.5390625 4.7890625 15.1875 7.8125 C15.07664063 8.81539062 14.96578125 9.81828125 14.8515625 10.8515625 C14.70847656 12.00785156 14.70847656 12.00785156 14.5625 13.1875 C14.2325 13.1875 13.9025 13.1875 13.5625 13.1875 C13.50191406 12.47722656 13.44132812 11.76695312 13.37890625 11.03515625 C13.29511719 10.11605469 13.21132812 9.19695312 13.125 8.25 C13.04378906 7.33347656 12.96257812 6.41695312 12.87890625 5.47265625 C12.80205024 3.22590268 12.80205024 3.22590268 11.5625 2.1875 C9.78178754 2.10023777 7.9976686 2.08050959 6.21484375 2.08984375 C5.13525391 2.09306641 4.05566406 2.09628906 2.94335938 2.09960938 C1.23889648 2.11217773 1.23889648 2.11217773 -0.5 2.125 C-2.21026367 2.13176758 -2.21026367 2.13176758 -3.95507812 2.13867188 C-6.78260351 2.15050253 -9.6100264 2.1669859 -12.4375 2.1875 C-12.57027344 2.78046875 -12.70304687 3.3734375 -12.83984375 3.984375 C-13.64071236 6.93659653 -15.02444277 9.48426008 -16.4375 12.1875 C-17.4275 12.1875 -18.4175 12.1875 -19.4375 12.1875 C-18.98375 11.671875 -18.53 11.15625 -18.0625 10.625 C-16.05792356 7.61813533 -15.35547729 4.66269975 -14.4375 1.1875 C-11.73678847 -1.51321153 -3.64079036 0.00184718 0 0 Z " fill="#60B762" transform="translate(99.4375,143.8125)"/>
<path d="M0 0 C4.95 0.99 4.95 0.99 10 2 C10 2.66 10 3.32 10 4 C10.92232422 4.14695313 10.92232422 4.14695313 11.86328125 4.296875 C12.67152344 4.44640625 13.47976562 4.5959375 14.3125 4.75 C15.11300781 4.88921875 15.91351563 5.0284375 16.73828125 5.171875 C19.53810196 6.19702524 20.43899479 7.51451598 22 10 C12.86437995 9.30812151 6.50798734 7.70978539 0 1 C0 0.67 0 0.34 0 0 Z " fill="#2AE529" transform="translate(36,179)"/>
<path d="M0 0 C2.39621451 1.01578983 3.03828202 1.9199823 4.35668945 4.14038086 C4.75436523 4.80489258 5.15204102 5.4694043 5.56176758 6.15405273 C5.96202148 6.85208008 6.36227539 7.55010742 6.7746582 8.26928711 C7.19424805 8.96344727 7.61383789 9.65760742 8.04614258 10.37280273 C9.0912964 12.15145825 10.03537557 13.98868215 10.9621582 15.83178711 C10.6321582 16.49178711 10.3021582 17.15178711 9.9621582 17.83178711 C4.5908598 9.56982811 4.5908598 9.56982811 2.9621582 4.83178711 C-1.59521443 5.26999602 -4.61437625 5.6821988 -8.0378418 8.83178711 C-8.6978418 8.50178711 -9.3578418 8.17178711 -10.0378418 7.83178711 C-3.50560749 -0.28936906 -3.50560749 -0.28936906 0 0 Z " fill="#393AA7" transform="translate(148.037841796875,105.168212890625)"/>
<path d="M0 0 C3.375 0.6875 3.375 0.6875 7 2 C9.20554368 5.90211575 9.21414161 9.39999011 9.125 13.8125 C9.10695312 14.97394531 9.08890625 16.13539062 9.0703125 17.33203125 C9.04710937 18.21246094 9.02390625 19.09289062 9 20 C8.34 20 7.68 20 7 20 C6.814375 21.2065625 6.814375 21.2065625 6.625 22.4375 C6.41875 23.283125 6.2125 24.12875 6 25 C5.34 25.33 4.68 25.66 4 26 C4.350625 25.030625 4.70125 24.06125 5.0625 23.0625 C6.36430974 18.52450126 5.71290711 14.59339012 5 10 C4.896875 8.700625 4.79375 7.40125 4.6875 6.0625 C4.33738876 2.89028729 4.33738876 2.89028729 1.9375 1.5625 C1.298125 1.376875 0.65875 1.19125 0 1 C0 0.67 0 0.34 0 0 Z " fill="#C72629" transform="translate(129,40)"/>
<path d="M0 0 C0.66 0.99 1.32 1.98 2 3 C-0.04202819 7.32429498 -2.20196575 8.90210616 -6.28125 11.01953125 C-8.57818755 12.32982972 -10.24813722 14.03791369 -12 16 C-12.33 15.34 -12.66 14.68 -13 14 C-9.36452739 7.88761199 -6.06990899 3.76334357 0 0 Z " fill="#34DF38" transform="translate(45,104)"/>
<path d="M0 0 C2.5 2.25 2.5 2.25 5 5 C5 6.32 5 7.64 5 9 C5.66 9 6.32 9 7 9 C7.33 10.98 7.66 12.96 8 15 C8.66 15 9.32 15 10 15 C11.17426264 17.34852528 11.11508173 18.73774065 11.09765625 21.3515625 C11.09443359 22.20234375 11.09121094 23.053125 11.08789062 23.9296875 C11.07951172 24.81914063 11.07113281 25.70859375 11.0625 26.625 C11.05798828 27.5221875 11.05347656 28.419375 11.04882812 29.34375 C11.03702591 31.56256648 11.02056155 33.78125018 11 36 C10.67 36 10.34 36 10 36 C9.96132812 34.67548828 9.96132812 34.67548828 9.921875 33.32421875 C9.35301167 20.1386085 9.35301167 20.1386085 3 9 C3 7.68 3 6.36 3 5 C2.01 4.67 1.02 4.34 0 4 C0 2.68 0 1.36 0 0 Z " fill="#D61112" transform="translate(153,28)"/>
<path d="M0 0 C0 3.90617433 -1.31784596 6.50629545 -3 10 C-3.99 10.495 -3.99 10.495 -5 11 C-5.62481162 13.67861822 -6.13015997 16.28939618 -6.5625 19 C-6.69180908 19.77077881 -6.82111816 20.54155762 -6.9543457 21.33569336 C-7.81211358 26.54321697 -8.52206982 31.74276799 -9 37 C-9.33 37 -9.66 37 -10 37 C-10.5330134 22.54941454 -9.40217862 11.64324585 0 0 Z " fill="#1311B6" transform="translate(136,116)"/>
<path d="M0 0 C2.58559775 1.24988439 3.3374178 2.7160893 4.6953125 5.22265625 C5.13488281 6.00253906 5.57445312 6.78242187 6.02734375 7.5859375 C6.99144514 10.20529973 6.8427651 11.33654101 5.8828125 13.91015625 C5.2228125 13.58015625 4.5628125 13.25015625 3.8828125 12.91015625 C3.2578125 9.84765625 3.2578125 9.84765625 2.8828125 6.91015625 C2.2228125 6.91015625 1.5628125 6.91015625 0.8828125 6.91015625 C0.5528125 5.26015625 0.2228125 3.61015625 -0.1171875 1.91015625 C-1.4371875 1.91015625 -2.7571875 1.91015625 -4.1171875 1.91015625 C-4.4471875 2.90015625 -4.7771875 3.89015625 -5.1171875 4.91015625 C-8.6796875 6.59765625 -8.6796875 6.59765625 -12.1171875 7.91015625 C-10.91195702 4.29446481 -10.04533186 3.9634608 -6.8046875 2.16015625 C-6.02480469 1.7115625 -5.24492187 1.26296875 -4.44140625 0.80078125 C-2.1171875 -0.08984375 -2.1171875 -0.08984375 0 0 Z " fill="#0D0BCE" transform="translate(149.1171875,109.08984375)"/>
<path d="M0 0 C0.99 0 1.98 0 3 0 C2.9071875 1.1446875 2.9071875 1.1446875 2.8125 2.3125 C3.04219924 5.60485577 3.70359977 5.78865163 6 8 C6.433125 9.0725 6.86625 10.145 7.3125 11.25 C9.60563511 16.88729047 13.11004765 20.91502736 18.375 23.9375 C19.674375 24.4634375 19.674375 24.4634375 21 25 C19.375 25.8125 19.375 25.8125 17 26 C13.75 23.6875 13.75 23.6875 11 21 C11 20.34 11 19.68 11 19 C10.01 18.67 9.02 18.34 8 18 C7.3125 15.9375 7.3125 15.9375 7 14 C6.34 14 5.68 14 5 14 C4.34 11.69 3.68 9.38 3 7 C2.34 7 1.68 7 1 7 C0.67 4.69 0.34 2.38 0 0 Z " fill="#E30C0D" transform="translate(76,65)"/>
<path d="M0 0 C0.66 0 1.32 0 2 0 C0.53841581 4.51762387 -1.94734745 7.41313326 -5 11 C-5.2784375 11.65226563 -5.556875 12.30453125 -5.84375 12.9765625 C-7.4106198 15.71858466 -9.29292674 16.7268161 -12 18.3125 C-12.886875 18.84488281 -13.77375 19.37726563 -14.6875 19.92578125 C-15.450625 20.28027344 -16.21375 20.63476562 -17 21 C-17.66 20.67 -18.32 20.34 -19 20 C-18.01 19.67 -17.02 19.34 -16 19 C-15.731875 18.360625 -15.46375 17.72125 -15.1875 17.0625 C-14.795625 16.381875 -14.40375 15.70125 -14 15 C-13.030625 14.7525 -12.06125 14.505 -11.0625 14.25 C-7.92647093 13.36857953 -7.92647093 13.36857953 -7.1171875 11.171875 C-6.66646927 9.73164895 -6.2236613 8.28892192 -5.7890625 6.84375 C-5 5 -5 5 -2.3125 3.5 C-1.1678125 3.2525 -1.1678125 3.2525 0 3 C0 2.01 0 1.02 0 0 Z " fill="#1311C1" transform="translate(208,167)"/>
<path d="M0 0 C0.33 0 0.66 0 1 0 C1.09796875 0.58007812 1.1959375 1.16015625 1.296875 1.7578125 C2.4802051 7.93969215 4.19034204 12.53090664 9.0625 16.8125 C12.21607617 18.74533701 14.82078287 19.13719803 18.4375 19.125 C19.19933594 19.12757813 19.96117187 19.13015625 20.74609375 19.1328125 C22.95315859 19.00276015 24.87969276 18.60856199 27 18 C27 18.66 27 19.32 27 20 C23.66749498 21.11083501 21.06961042 21.16759585 17.5625 21.1875 C16.42941406 21.20167969 15.29632813 21.21585938 14.12890625 21.23046875 C11.14542021 21.01071135 9.50704577 20.55843386 7 19 C7 18.34 7 17.68 7 17 C6.34 17 5.68 17 5 17 C1.45881547 10.94571676 -0.13575666 7.19510272 0 0 Z " fill="#393DA3" transform="translate(153,142)"/>
<path d="M0 0 C1.125 3.75 1.125 3.75 0 6 C-0.36643553 10.94687964 -0.12356591 13.19739802 3 17 C2.67 17.99 2.34 18.98 2 20 C1.7525 19.360625 1.505 18.72125 1.25 18.0625 C0.21186805 15.80364886 0.21186805 15.80364886 -2 15.5 C-4 15 -4 15 -5.3046875 13.328125 C-6 11 -6 11 -4.8828125 8.203125 C-4.30273438 7.22859375 -3.72265625 6.2540625 -3.125 5.25 C-2.55007812 4.26515625 -1.97515625 3.2803125 -1.3828125 2.265625 C-0.92648438 1.51796875 -0.47015625 0.7703125 0 0 Z " fill="#1211B3" transform="translate(186,118)"/>
<path d="M0 0 C0.33 0.66 0.66 1.32 1 2 C-0.14453125 4.3125 -0.14453125 4.3125 -1.8125 7 C-2.35519531 7.886875 -2.89789063 8.77375 -3.45703125 9.6875 C-5 12 -5 12 -7 14 C-10.68459902 13.69295008 -12.94559179 11.70577134 -15.75 9.4375 C-16.54921875 8.79683594 -17.3484375 8.15617187 -18.171875 7.49609375 C-18.77515625 7.00238281 -19.3784375 6.50867188 -20 6 C-19.67 5.34 -19.34 4.68 -19 4 C-17.7315625 5.2065625 -17.7315625 5.2065625 -16.4375 6.4375 C-13.1484842 9.21628662 -10.31370396 9.74117776 -6 10 C-5.73445313 9.44570312 -5.46890625 8.89140625 -5.1953125 8.3203125 C-4.84210938 7.59585938 -4.48890625 6.87140625 -4.125 6.125 C-3.77695313 5.40570313 -3.42890625 4.68640625 -3.0703125 3.9453125 C-2 2 -2 2 0 0 Z " fill="#BC4542" transform="translate(104,82)"/>
<path d="M0 0 C0.86625 1.11375 0.86625 1.11375 1.75 2.25 C3.86447107 5.00883686 3.86447107 5.00883686 6.3125 6.9375 C8 9 8 9 8 11.875 C6.8639263 15.42523032 5.20563153 18.01172502 3 21 C2 18 2 18 3 15 C3.38036706 9.86504475 2.83530346 7.25295519 0 3 C0 2.01 0 1.02 0 0 Z " fill="#B04343" transform="translate(103,61)"/>
<path d="M0 0 C0.66 0.33 1.32 0.66 2 1 C1.67 2.65 1.34 4.3 1 6 C0.34 6 -0.32 6 -1 6 C-1.10634766 6.93585938 -1.10634766 6.93585938 -1.21484375 7.890625 C-2 10 -2 10 -4.06640625 11.046875 C-4.89011719 11.27890625 -5.71382812 11.5109375 -6.5625 11.75 C-7.80193359 12.11351563 -7.80193359 12.11351563 -9.06640625 12.484375 C-10.02353516 12.73960938 -10.02353516 12.73960938 -11 13 C-12.5625 10.625 -12.5625 10.625 -14 8 C-13.67 7.34 -13.34 6.68 -13 6 C-12.731875 6.639375 -12.46375 7.27875 -12.1875 7.9375 C-11.11332248 10.33131686 -11.11332248 10.33131686 -8 11 C-7.773125 10.4225 -7.54625 9.845 -7.3125 9.25 C-5.67490316 6.44269113 -3.52735142 5.00892036 -1 3 C-0.67 2.01 -0.34 1.02 0 0 Z " fill="#DE0E11" transform="translate(153,79)"/>
<path d="M0 0 C0.33 1.32 0.66 2.64 1 4 C1.66 4 2.32 4 3 4 C4.4606285 6.64738916 5 7.89448334 5 11 C5.66 11 6.32 11 7 11 C8.06775224 12.96466413 9.06553465 14.96855359 10 17 C9.67 17.66 9.34 18.32 9 19 C3.9898652 14.40737643 0.1999994 10.14999056 -0.25 3.0625 C-0.1675 2.051875 -0.085 1.04125 0 0 Z " fill="#C53834" transform="translate(76,68)"/>
<path d="M0 0 C0 0.99 0 1.98 0 3 C-0.598125 3.226875 -1.19625 3.45375 -1.8125 3.6875 C-4.1651438 4.84214131 -4.1651438 4.84214131 -5.1875 7.25 C-7.9015977 11.36794133 -11.84157395 13.46309858 -16 16 C-14.60976117 11.58716327 -12.58553133 9.33661417 -9.125 6.3125 C-7.82949219 5.16201172 -7.82949219 5.16201172 -6.5078125 3.98828125 C-4.37084828 2.29402146 -2.48609772 1.08116343 0 0 Z " fill="#C43E44" transform="translate(96,15)"/>
<path d="M0 0 C3.34249629 0.59687434 5.46436342 1.73603877 8 4 C8 4.66 8 5.32 8 6 C6.1128125 5.9071875 6.1128125 5.9071875 4.1875 5.8125 C0.88800769 5.77388125 0.88800769 5.77388125 -1.9375 7.375 C-3.05923484 9.02249424 -3.05923484 9.02249424 -4 11 C-4.66 11 -5.32 11 -6 11 C-4.54955729 6.89041233 -2.48889248 3.56741255 0 0 Z " fill="#0F0ECD" transform="translate(193,107)"/>
<path d="M0 0 C0.86625 0.495 1.7325 0.99 2.625 1.5 C8.3907724 4.04266982 14.83958491 3.23069516 21 3 C19.90234375 4.48046875 19.90234375 4.48046875 18 6 C15.00390625 6.36328125 15.00390625 6.36328125 11.5625 6.3125 C10.42941406 6.30863281 9.29632813 6.30476562 8.12890625 6.30078125 C5.16516488 6.01587727 3.44171933 5.66083535 1 4 C0.25 1.875 0.25 1.875 0 0 Z " fill="#1CEA1B" transform="translate(57,160)"/>
<path d="M0 0 C0 4.08039768 -1.14235303 7.11726965 -4 10 C-7.24515661 11.01392381 -10.37044583 10.97993163 -13.75 10.9375 C-14.63816406 10.95361328 -15.52632813 10.96972656 -16.44140625 10.98632812 C-18.62917244 11.02161468 -20.81223013 11.0251066 -23 11 C-20.57800538 8.57800538 -19.64908926 8.65092009 -16.3125 8.375 C-14.98025391 8.26478516 -14.98025391 8.26478516 -13.62109375 8.15234375 C-10.40037954 7.96514874 -7.22494003 7.92989261 -4 8 C-4.12375 6.8553125 -4.12375 6.8553125 -4.25 5.6875 C-4 3 -4 3 -2 1.1875 C-1.34 0.795625 -0.68 0.40375 0 0 Z " fill="#3CE03F" transform="translate(83,118)"/>
<path d="M0 0 C4.66861981 1.60483806 9.09258167 3.97490194 13 7 C13 7.66 13 8.32 13 9 C11.68 9.33 10.36 9.66 9 10 C9 9.01 9 8.02 9 7 C7.700625 6.87625 6.40125 6.7525 5.0625 6.625 C2.84765625 6.4140625 2.84765625 6.4140625 1 6 C0.67 5.34 0.34 4.68 0 4 C0.66 4 1.32 4 2 4 C1.34 2.68 0.68 1.36 0 0 Z " fill="#0C09D4" transform="translate(139,175)"/>
<path d="M0 0 C1.485 0.99 1.485 0.99 3 2 C3 2.66 3 3.32 3 4 C3.66 4 4.32 4 5 4 C5.33 4.66 5.66 5.32 6 6 C9.76300374 7.25433458 13.27210909 7.10695422 17.1875 7.0625 C18.31188477 7.05573242 18.31188477 7.05573242 19.45898438 7.04882812 C21.30602383 7.03706354 23.15302213 7.01912865 25 7 C25 7.66 25 8.32 25 9 C22.12442297 9.08138426 19.25117738 9.14067851 16.375 9.1875 C15.16263672 9.22520508 15.16263672 9.22520508 13.92578125 9.26367188 C8.88801974 9.32510799 5.30212414 8.94069245 1 6 C0.125 2.8125 0.125 2.8125 0 0 Z " fill="#1212C1" transform="translate(155,155)"/>
<path d="M0 0 C2 0 2 0 4.6875 2.5 C6.23538814 4.42575494 6.95933321 5.52586224 7.171875 8.00390625 C6.72702585 11.91116459 5.67339039 15.4301005 4 19 C3.34 19 2.68 19 2 19 C2.10699219 18.29875 2.21398437 17.5975 2.32421875 16.875 C3.1620712 10.24425377 2.85573906 6.05416681 0 0 Z " fill="#2429A5" transform="translate(184,134)"/>
<path d="M0 0 C1.1161656 3.71429898 1.3124195 7.39161508 1.5625 11.25 C1.64628906 12.51328125 1.73007812 13.7765625 1.81640625 15.078125 C1.87699219 16.04234375 1.93757813 17.0065625 2 18 C-0.58271415 15.84093264 -1.88257801 14.685625 -2.4609375 11.30859375 C-2.43257812 10.36113281 -2.40421875 9.41367188 -2.375 8.4375 C-2.36210938 7.48746094 -2.34921875 6.53742188 -2.3359375 5.55859375 C-2 3 -2 3 0 0 Z " fill="#4ECA50" transform="translate(52,138)"/>
<path d="M0 0 C0.625 1.875 0.625 1.875 1 4 C0.34 4.66 -0.32 5.32 -1 6 C-1.27808217 8.52377655 -1.27808217 8.52377655 -1.1953125 11.4453125 C-1.18886719 12.52167969 -1.18242187 13.59804687 -1.17578125 14.70703125 C-1.15902344 15.83496094 -1.14226563 16.96289062 -1.125 18.125 C-1.11597656 19.26066406 -1.10695313 20.39632812 -1.09765625 21.56640625 C-1.07403098 24.37781299 -1.04109013 27.18880298 -1 30 C-4.02664797 26.97335203 -3.29317878 24.03084265 -3.32226562 19.89257812 C-3.31743164 18.30606445 -3.31743164 18.30606445 -3.3125 16.6875 C-3.33666992 15.11838867 -3.33666992 15.11838867 -3.36132812 13.51757812 C-3.36197266 12.50501953 -3.36261719 11.49246094 -3.36328125 10.44921875 C-3.36626221 9.52455811 -3.36924316 8.59989746 -3.37231445 7.6472168 C-2.9313758 4.51207069 -1.77326543 2.59205631 0 0 Z " fill="#2AE128" transform="translate(27,130)"/>
<path d="M0 0 C0.33 0.66 0.66 1.32 1 2 C0.21625 2.721875 -0.5675 3.44375 -1.375 4.1875 C-5.36656821 8.46418023 -6.20362702 12.2926603 -7 18 C-7.66 18 -8.32 18 -9 18 C-9.66964286 10.23214286 -9.66964286 10.23214286 -6.625 6.5 C-4 4 -4 4 -2 4 C-1.34 2.68 -0.68 1.36 0 0 Z " fill="#16EE14" transform="translate(37,115)"/>
<path d="M0 0 C0.66 0.33 1.32 0.66 2 1 C2.36134972 6.78159553 1.45790037 10.72006588 -1 16 C-1.99 16.33 -2.98 16.66 -4 17 C-4 17.66 -4 18.32 -4 19 C-4.66 18.67 -5.32 18.34 -6 18 C-4.68 15.36 -3.36 12.72 -2 10 C-1.34 10 -0.68 10 0 10 C0 6.7 0 3.4 0 0 Z " fill="#DA0F06" transform="translate(138,50)"/>
<path d="M0 0 C0 0.33 0 0.66 0 1 C-0.6290625 1.07476562 -1.258125 1.14953125 -1.90625 1.2265625 C-8.68117079 2.26728828 -12.89375811 4.46428793 -18 9 C-17.875 6.1875 -17.875 6.1875 -17 3 C-11.94226794 -0.99294636 -6.12048287 -0.29404455 0 0 Z " fill="#C63238" transform="translate(122,38)"/>
<path d="M0 0 C0 3.22124915 -0.79255542 5.05685384 -2 8 C-2 8.66 -2 9.32 -2 10 C-1.34 10 -0.68 10 0 10 C1.52448631 12.9826906 2.93940067 15.818202 4 19 C0.09949718 17.69983239 -0.31143857 16.23996087 -2.25 12.6875 C-3.06210938 11.23923828 -3.06210938 11.23923828 -3.890625 9.76171875 C-5 7 -5 7 -4.80078125 4.75390625 C-3.71613655 2.37826982 -2.16213806 1.39492778 0 0 Z " fill="#C6454A" transform="translate(132,66)"/>
<path d="M0 0 C2.31 0.66 4.62 1.32 7 2 C7 2.99 7 3.98 7 5 C7.61488281 5.19335938 8.22976562 5.38671875 8.86328125 5.5859375 C10.07564453 5.97652344 10.07564453 5.97652344 11.3125 6.375 C12.11300781 6.63023437 12.91351563 6.88546875 13.73828125 7.1484375 C16 8 16 8 19 10 C12.8341801 9.60643703 8.0310876 7.61731298 3 4 C1.234375 1.83203125 1.234375 1.83203125 0 0 Z " fill="#4341AE" transform="translate(141,180)"/>
<path d="M0 0 C0.66 0 1.32 0 2 0 C3.1446875 1.175625 3.1446875 1.175625 4.3125 2.375 C6.89815676 4.90052521 8.60841682 5.93407386 12 7 C12 6.34 12 5.68 12 5 C12.66 5 13.32 5 14 5 C14.33 4.01 14.66 3.02 15 2 C14.67 3.98 14.34 5.96 14 8 C10.8966499 8.9753386 9.46268126 9.20312836 6.4375 7.875 C3.78584213 5.83526317 1.93389067 3.72177206 0 1 C0 0.67 0 0.34 0 0 Z " fill="#C81714" transform="translate(85,84)"/>
<path d="M0 0 C0.66 0.33 1.32 0.66 2 1 C4.09821215 0.60061233 4.09821215 0.60061233 6 0 C3.41377035 2.69398922 0.70147664 5.24053318 -2.0625 7.75 C-3.06990234 8.67039062 -3.06990234 8.67039062 -4.09765625 9.609375 C-6 11 -6 11 -9 11 C-6.65137797 7.14154952 -5.11938002 4.84661863 -1 3 C-0.67 2.01 -0.34 1.02 0 0 Z " fill="#D5121A" transform="translate(97,14)"/>
<path d="M0 0 C0.33 0 0.66 0 1 0 C1.61669998 6.90703976 0.11242982 10.47759424 -4 16 C-4.58203125 14.14453125 -4.58203125 14.14453125 -5 12 C-4.04060332 10.30963442 -3.03357147 8.64605826 -2 7 C-1.27833809 4.68308546 -0.59940471 2.35151077 0 0 Z " fill="#20EA1E" transform="translate(109,156)"/>
<path d="M0 0 C3.71888239 0.50712033 6.73454239 1.11608215 10 3 C10 3.99 10 4.98 10 6 C10.66 6 11.32 6 12 6 C12 6.66 12 7.32 12 8 C6.80421104 6.63919813 3.86388964 4.58789752 0 1 C0 0.67 0 0.34 0 0 Z " fill="#D81115" transform="translate(134,14)"/>
<path d="M0 0 C3.4375 0.8125 3.4375 0.8125 7 2 C7.33 2.99 7.66 3.98 8 5 C11.00847418 6.22520264 11.00847418 6.22520264 14 7 C14 7.66 14 8.32 14 9 C8.40440609 7.60110152 4.29704147 4.74082545 0 1 C0 0.67 0 0.34 0 0 Z " fill="#5BD458" transform="translate(36,179)"/>
<path d="M0 0 C0.99 0.33 1.98 0.66 3 1 C5.73289293 1.22797562 8.45042204 1.41668187 11.1875 1.5625 C11.93708984 1.60568359 12.68667969 1.64886719 13.45898438 1.69335938 C15.30578375 1.79922685 17.15286834 1.9000976 19 2 C19 2.33 19 2.66 19 3 C14.38 3.66 9.76 4.32 5 5 C5 4.34 5 3.68 5 3 C3.68 3.33 2.36 3.66 1 4 C0.67 2.68 0.34 1.36 0 0 Z " fill="#0708DF" transform="translate(159,162)"/>
<path d="M0 0 C0.33 0 0.66 0 1 0 C1.3152595 5.98993047 0.68219822 9.63560356 -2 15 C-2.66 15 -3.32 15 -4 15 C-4.33 15.99 -4.66 16.98 -5 18 C-5 16.35 -5 14.7 -5 13 C-4.34 13 -3.68 13 -3 13 C-3 11.02 -3 9.04 -3 7 C-2.34 7 -1.68 7 -1 7 C-0.67 4.69 -0.34 2.38 0 0 Z " fill="#0809DF" transform="translate(212,152)"/>
<path d="M0 0 C5.61 0 11.22 0 17 0 C17 0.33 17 0.66 17 1 C16.01257813 1.03738281 15.02515625 1.07476562 14.0078125 1.11328125 C12.08582031 1.21189453 12.08582031 1.21189453 10.125 1.3125 C8.84882812 1.37050781 7.57265625 1.42851562 6.2578125 1.48828125 C5.18273437 1.65714844 4.10765625 1.82601562 3 2 C2.01 3.485 2.01 3.485 1 5 C0.34 5 -0.32 5 -1 5 C-1.33 6.32 -1.66 7.64 -2 9 C-2.33 8.34 -2.66 7.68 -3 7 C-2.01 4.69 -1.02 2.38 0 0 Z " fill="#36DF35" transform="translate(87,146)"/>
<path d="M0 0 C0.66 0.33 1.32 0.66 2 1 C0.453125 3.046875 0.453125 3.046875 -2 5 C-5.453125 4.953125 -5.453125 4.953125 -9.25 4.25 C-11.14492187 3.91742188 -11.14492187 3.91742188 -13.078125 3.578125 C-14.04234375 3.38734375 -15.0065625 3.1965625 -16 3 C-16 2.67 -16 2.34 -16 2 C-14.92878906 1.93941406 -13.85757813 1.87882812 -12.75390625 1.81640625 C-11.35675609 1.73201463 -9.95962143 1.64736594 -8.5625 1.5625 C-7.50192383 1.50352539 -7.50192383 1.50352539 -6.41992188 1.44335938 C-2.91309581 1.52375562 -2.91309581 1.52375562 0 0 Z " fill="#68CB67" transform="translate(80,126)"/>
<path d="M0 0 C1.32 0 2.64 0 4 0 C4.33 2.64 4.66 5.28 5 8 C4.34 8 3.68 8 3 8 C2.67 7.01 2.34 6.02 2 5 C1.01 5 0.02 5 -1 5 C-0.67 3.35 -0.34 1.7 0 0 Z " fill="#0806E9" transform="translate(153,123)"/>
<path d="M0 0 C-1.41166886 0.98635837 -2.82956184 1.96381255 -4.25 2.9375 C-5.43335938 3.75541016 -5.43335938 3.75541016 -6.640625 4.58984375 C-8.82636993 5.89622441 -10.5153801 6.54980511 -13 7 C-12.67 6.34 -12.34 5.68 -12 5 C-11.34 5 -10.68 5 -10 5 C-9.79375 4.38125 -9.5875 3.7625 -9.375 3.125 C-7.25535372 -0.15081698 -3.63044833 -1.81522417 0 0 Z " fill="#373DAC" transform="translate(202,181)"/>
<path d="M0 0 C0 3 0 3 -2.375 5.5625 C-3.24125 6.366875 -4.1075 7.17125 -5 8 C-5.66 8.66 -6.32 9.32 -7 10 C-7.99 10 -8.98 10 -10 10 C-10 9.34 -10 8.68 -10 8 C-9.01 8 -8.02 8 -7 8 C-7 6.68 -7 5.36 -7 4 C-4.69 2.68 -2.38 1.36 0 0 Z " fill="#25E728" transform="translate(103,172)"/>
<path d="M0 0 C0.99 0 1.98 0 3 0 C3 0.66 3 1.32 3 2 C3.66 2 4.32 2 5 2 C5.268125 2.763125 5.53625 3.52625 5.8125 4.3125 C6.94424112 6.87380884 7.91223401 8.19692938 10 10 C9.01 10.495 9.01 10.495 8 11 C2.42857143 5.85714286 2.42857143 5.85714286 2 2 C1.34 2 0.68 2 0 2 C0 1.34 0 0.68 0 0 Z " fill="#30E031" transform="translate(30,169)"/>
<path d="M0 0 C4 3 4 3 4.6796875 4.97265625 C4.86690434 6.97587648 4.93616074 8.98906341 5 11 C4.34 11.66 3.68 12.32 3 13 C2.01 8.71 1.02 4.42 0 0 Z " fill="#0DF311" transform="translate(27,156)"/>
<path d="M0 0 C1.42020201 0.22906484 2.83845901 0.47251758 4.25 0.75 C4.58 1.74 4.91 2.73 5.25 3.75 C4.56292969 3.64300781 3.87585938 3.53601563 3.16796875 3.42578125 C2.26691406 3.30589844 1.36585938 3.18601562 0.4375 3.0625 C-0.45582031 2.93488281 -1.34914062 2.80726562 -2.26953125 2.67578125 C-4.82024209 2.50108118 -4.82024209 2.50108118 -6.57421875 4.23046875 C-7.15623047 4.98263672 -7.15623047 4.98263672 -7.75 5.75 C-8.08 5.09 -8.41 4.43 -8.75 3.75 C-6.12072175 -0.02244271 -4.38091087 -0.51743042 0 0 Z " fill="#0906E0" transform="translate(197.75,112.25)"/>
<path d="M0 0 C1.66666667 1 3.33333333 2 5 3 C5.86625 3.474375 6.7325 3.94875 7.625 4.4375 C10.07258704 6.04775463 11.40588839 7.56688227 13 10 C9.34603593 9.38821244 7.13957441 7.8335544 4.25 5.5625 C3.45078125 4.94503906 2.6515625 4.32757813 1.828125 3.69140625 C1.22484375 3.13324219 0.6215625 2.57507813 0 2 C0 1.34 0 0.68 0 0 Z " fill="#C35655" transform="translate(84,86)"/>
<path d="M0 0 C0.33 0 0.66 0 1 0 C1.50471197 1.76949612 2.00360685 3.54065223 2.5 5.3125 C2.7784375 6.29863281 3.056875 7.28476563 3.34375 8.30078125 C4 11 4 11 4 14 C1 10.375 1 10.375 1 7 C0.34 7 -0.32 7 -1 7 C-1.625 5.1875 -1.625 5.1875 -2 3 C-1.34 2.01 -0.68 1.02 0 0 Z " fill="#CB181E" transform="translate(131,69)"/>
<path d="M0 0 C1.10370043 3.3111013 0.92673641 5.24748949 0.5625 8.6875 C0.40974609 10.17830078 0.40974609 10.17830078 0.25390625 11.69921875 C0.12822266 12.83810547 0.12822266 12.83810547 0 14 C-3.03084049 10.65536037 -3.03084049 10.65536037 -2.890625 7.67578125 C-2.67921875 6.89589844 -2.4678125 6.11601563 -2.25 5.3125 C-2.04890625 4.52488281 -1.8478125 3.73726562 -1.640625 2.92578125 C-1 1 -1 1 0 0 Z " fill="#CA4247" transform="translate(103,47)"/>
<path d="M0 0 C12.00222145 0.21056529 12.00222145 0.21056529 15.25 3.5625 C15.8275 4.366875 16.405 5.17125 17 6 C16.443125 5.80664062 15.88625 5.61328125 15.3125 5.4140625 C10.24882873 3.68625575 5.20677935 2.2306933 0 1 C0 0.67 0 0.34 0 0 Z " fill="#E20A0F" transform="translate(116,35)"/>
<path d="M0 0 C0.66 0.33 1.32 0.66 2 1 C-2.67460782 5.55774263 -5.48277089 6.66290194 -12 7 C-9.06171403 4.49701566 -6.82097239 3.53069061 -3 3 C-3 2.34 -3 1.68 -3 1 C-2.01 0.67 -1.02 0.34 0 0 Z " fill="#2AE630" transform="translate(90,182)"/>
<path d="M0 0 C0 3.90617433 -1.31784596 6.50629545 -3 10 C-3.99 10.495 -3.99 10.495 -5 11 C-5.33 11.99 -5.66 12.98 -6 14 C-6.66 13.67 -7.32 13.34 -8 13 C-5.76537994 8.20983041 -3.51098025 4.01254885 0 0 Z " fill="#1718BF" transform="translate(136,116)"/>
<path d="M0 0 C0.66 0.33 1.32 0.66 2 1 C2 2.65 2 4.3 2 6 C1.01 6.495 1.01 6.495 0 7 C-1.13350534 9.01669827 -1.13350534 9.01669827 -2 11 C-2 9.35 -2 7.7 -2 6 C-2.66 5.67 -3.32 5.34 -4 5 C-2.68 3.35 -1.36 1.7 0 0 Z " fill="#10F512" transform="translate(105,161)"/>
<path d="M0 0 C1.98 0 3.96 0 6 0 C5.67 1.32 5.34 2.64 5 4 C3.68 4.33 2.36 4.66 1 5 C0.67 3.35 0.34 1.7 0 0 Z " fill="#0CF611" transform="translate(40,118)"/>
<path d="M0 0 C4.455 2.97 4.455 2.97 9 6 C8.67 6.66 8.34 7.32 8 8 C4.67689517 6.83242263 2.16638868 5.85051143 0 3 C0 2.01 0 1.02 0 0 Z " fill="#6BD05F" transform="translate(54,154)"/>
<path d="M0 0 C2.49361571 1.20381448 4.68143083 2.45428722 7 4 C6.67 4.66 6.34 5.32 6 6 C4.35 5.67 2.7 5.34 1 5 C1 4.34 1 3.68 1 3 C0.34 2.67 -0.32 2.34 -1 2 C-0.67 1.34 -0.34 0.68 0 0 Z " fill="#E70B10" transform="translate(146,22)"/>
<path d="M0 0 C1.24546405 2.49092811 0.7767578 3.41080733 0 6 C-2.64 6.33 -5.28 6.66 -8 7 C-6.68 6.34 -5.36 5.68 -4 5 C-4 4.34 -4 3.68 -4 3 C-3.01 3 -2.02 3 -1 3 C-0.67 2.01 -0.34 1.02 0 0 Z " fill="#0807E0" transform="translate(188,156)"/>
<path d="M0 0 C0.99 0.33 1.98 0.66 3 1 C1.02 3.31 -0.96 5.62 -3 8 C-3.33 6.68 -3.66 5.36 -4 4 C-2.0625 1.75 -2.0625 1.75 0 0 Z " fill="#69D05F" transform="translate(104,172)"/>
<path d="M0 0 C4.20626034 1.50223584 5.73900021 4.28550034 8 8 C7.67 8.66 7.34 9.32 7 10 C5.82739389 8.71372289 4.6620717 7.42080217 3.5 6.125 C2.8503125 5.40570313 2.200625 4.68640625 1.53125 3.9453125 C0 2 0 2 0 0 Z " fill="#0C0FB3" transform="translate(133,169)"/>
<path d="M0 0 C1.11672285 3.35016854 0.92467164 3.92559562 -0.3125 7.0625 C-0.57675781 7.75472656 -0.84101563 8.44695312 -1.11328125 9.16015625 C-2 11 -2 11 -4 13 C-3.27991594 8.39146203 -1.68704061 4.32762591 0 0 Z " fill="#0E0BAE" transform="translate(214,154)"/>
<path d="M0 0 C0.66 0 1.32 0 2 0 C0.77472971 4.05281712 -0.69880494 7.44360764 -3 11 C-4 8 -4 8 -3.22265625 5.95703125 C-2.83980469 5.24933594 -2.45695312 4.54164062 -2.0625 3.8125 C-1.68222656 3.09707031 -1.30195312 2.38164063 -0.91015625 1.64453125 C-0.60980469 1.10183594 -0.30945313 0.55914062 0 0 Z " fill="#6DC466" transform="translate(90,106)"/>
<path d="M0 0 C3.35595828 0.59927826 5.37801226 1.84622436 8 4 C7.67 4.66 7.34 5.32 7 6 C3.535 4.02 3.535 4.02 0 2 C-0.33 2.66 -0.66 3.32 -1 4 C-0.67 2.68 -0.34 1.36 0 0 Z " fill="#0E0DA9" transform="translate(193,107)"/>
<path d="M0 0 C0.88336837 2.4667645 1.1312406 3.63859372 0.22265625 6.140625 C-0.16019531 6.83671875 -0.54304687 7.5328125 -0.9375 8.25 C-1.31777344 8.95640625 -1.69804687 9.6628125 -2.08984375 10.390625 C-2.39019531 10.92171875 -2.69054687 11.4528125 -3 12 C-4.21386936 8.35839192 -3.6674695 7.66834531 -2.0625 4.3125 C-1.49208984 3.10013672 -1.49208984 3.10013672 -0.91015625 1.86328125 C-0.60980469 1.24839844 -0.30945313 0.63351563 0 0 Z " fill="#B1333B" transform="translate(163,67)"/>
<path d="M0 0 C1 3 1 3 0.00390625 5.04296875 C-0.47175781 5.75066406 -0.94742188 6.45835937 -1.4375 7.1875 C-1.91058594 7.90292969 -2.38367188 8.61835938 -2.87109375 9.35546875 C-3.24363281 9.89816406 -3.61617188 10.44085938 -4 11 C-4.66 10.67 -5.32 10.34 -6 10 C-5.319375 9.1646875 -5.319375 9.1646875 -4.625 8.3125 C-2.96155067 5.94528365 -2.01954325 3.69450717 -1 1 C-0.67 0.67 -0.34 0.34 0 0 Z " fill="#5CC960" transform="translate(86,146)"/>
<path d="M0 0 C0.99 0.495 0.99 0.495 2 1 C2.4140625 3.06640625 2.4140625 3.06640625 2.625 5.5625 C2.69976562 6.38878906 2.77453125 7.21507812 2.8515625 8.06640625 C2.92503906 9.02353516 2.92503906 9.02353516 3 10 C1.51171875 8.73046875 1.51171875 8.73046875 0 7 C-0.1875 3.3125 -0.1875 3.3125 0 0 Z " fill="#0D09BB" transform="translate(212,128)"/>
<path d="M0 0 C6.57142857 5 6.57142857 5 8 10 C3.65581282 8.55193761 2.82746764 5.61138436 0.8125 1.6875 C0.544375 1.130625 0.27625 0.57375 0 0 Z " fill="#1112B5" transform="translate(202,113)"/>
<path d="M0 0 C2.125 0.9375 2.125 0.9375 4 2 C3.01 2.495 3.01 2.495 2 3 C1.34786708 5.02463255 1.34786708 5.02463255 1 7 C0 5 -1 3 -2 1 C-1.34 0.67 -0.68 0.34 0 0 Z " fill="#45CE3E" transform="translate(88,103)"/>
<path d="M0 0 C0.66 0.66 1.32 1.32 2 2 C1.8125 4.0625 1.8125 4.0625 1 6 C0.01 6.33 -0.98 6.66 -2 7 C-2 7.66 -2 8.32 -2 9 C-2.66 8.67 -3.32 8.34 -4 8 C-2.68 5.36 -1.36 2.72 0 0 Z " fill="#D01B25" transform="translate(136,60)"/>
<path d="M0 0 C2.79872437 2.52788007 4.45773019 4.20411134 5 8 C4.01 8.33 3.02 8.66 2 9 C1.34 6.03 0.68 3.06 0 0 Z " fill="#1613B8" transform="translate(156,121)"/>
<path d="M0 0 C0.99 0.33 1.98 0.66 3 1 C4.6875 4.5625 4.6875 4.5625 6 8 C5.01 7.67 4.02 7.34 3 7 C2.33333333 5.33333333 1.66666667 3.66666667 1 2 C0.01 1.67 -0.98 1.34 -2 1 C-1.34 0.67 -0.68 0.34 0 0 Z " fill="#C71E22" transform="translate(136,84)"/>
<path d="M0 0 C0.99 0.33 1.98 0.66 3 1 C3 1.99 3 2.98 3 4 C3.9590625 4.433125 3.9590625 4.433125 4.9375 4.875 C7 6 7 6 8 8 C6 7 4 6 2 5 C2 4.34 2 3.68 2 3 C1.34 3 0.68 3 0 3 C0 2.01 0 1.02 0 0 Z " fill="#BB282A" transform="translate(144,17)"/>
<path d="M0 0 C0 3.69418201 -1.28179295 5.77836178 -3 9 C-3.66 7.68 -4.32 6.36 -5 5 C-3.35 3.35 -1.7 1.7 0 0 Z " fill="#B04B4F" transform="translate(132,66)"/>
<path d="M0 0 C-0.625 1.9375 -0.625 1.9375 -2 4 C-5.125 4.75 -5.125 4.75 -8 5 C-3.16129032 0 -3.16129032 0 0 0 Z " fill="#E30C0B" transform="translate(104,15)"/>
</svg>
