<?xml version="1.0" encoding="UTF-8"?>
<svg version="1.1" xmlns="http://www.w3.org/2000/svg" width="500" height="500">
<path d="M0 0 C2.63628976 1.29548845 5.27356625 2.58895366 7.91085815 3.88240051 C9.64435504 4.73280801 11.377533 5.58386592 13.11038208 6.43559265 C19.59615407 9.62287888 26.10029689 12.76805479 32.625 15.875 C33.4927002 16.28959473 34.36040039 16.70418945 35.25439453 17.13134766 C40.16799331 19.47716511 45.08990932 21.80473595 50.015625 24.125 C52.30210734 25.20828266 54.58856615 26.29161499 56.875 27.375 C58.46900635 28.12027954 58.46900635 28.12027954 60.09521484 28.88061523 C67.12974754 32.22193257 72.49295793 35.02008001 76.5 41.9375 C77.00015625 42.783125 77.5003125 43.62875 78.015625 44.5 C79.97794126 48.37495363 80.37550218 51.67341268 80.38422108 55.99326515 C80.38867892 57.01918066 80.39313676 58.04509616 80.39772969 59.10210001 C80.39745315 60.79029937 80.39745315 60.79029937 80.39717102 62.51260376 C80.40084771 63.70953019 80.4045244 64.90645663 80.4083125 66.13965356 C80.41743164 69.46338655 80.42204734 72.7870702 80.42470181 76.110811 C80.42860846 79.69515864 80.43818655 83.27949203 80.44691467 86.86383057 C80.46666901 95.52079237 80.47674403 104.17775532 80.48564246 112.83473402 C80.49002709 116.91286804 80.49539346 120.99100076 80.50063133 125.06913376 C80.51764266 138.62822767 80.53213641 152.18732078 80.53938007 165.74642372 C80.54128992 169.26438015 80.54321026 172.78233657 80.54516602 176.30029297 C80.54564976 177.1746486 80.5461335 178.04900423 80.5466319 178.94985549 C80.55493064 193.11104547 80.58026535 207.27215094 80.61274669 221.43330403 C80.64583254 235.97674024 80.66383022 250.52013353 80.66702431 265.06360757 C80.66918801 273.22741142 80.67791605 281.39109203 80.70348549 289.55485916 C80.72521336 296.50809968 80.73323268 303.46118702 80.72351871 310.41445763 C80.71897999 313.96006061 80.72083478 317.50534767 80.74028015 321.05090714 C80.76121214 324.90089982 80.75090718 328.75045958 80.73774719 332.60049438 C80.75420106 334.26861724 80.75420106 334.26861724 80.77098733 335.97043955 C80.70081706 344.48781576 78.76094038 351.05779654 74.12890625 358.21484375 C70.2166802 361.91473732 65.98356621 364.11033806 61.1875 366.5 C60.19032959 367.00885742 59.19315918 367.51771484 58.16577148 368.04199219 C48.93723653 372.70205092 39.5626698 377.04951182 30.16796875 381.36157227 C24.12798076 384.1342104 18.11286045 386.92715189 12.1875 389.9375 C5.4971698 393.33012085 -1.2294339 396.64621204 -7.97824097 399.92089844 C-9.77073957 400.79220098 -11.56033476 401.66946861 -13.34985352 402.546875 C-23.43487766 407.42915089 -32.4013828 411.29171318 -43.5625 407.625 C-49.82167923 404.87753956 -54.39202319 400.1578142 -59.20019531 395.44287109 C-61.74824183 392.96787821 -64.37545515 390.58077267 -67 388.1875 C-67.50732666 387.72182617 -68.01465332 387.25615234 -68.53735352 386.77636719 C-71.18001579 384.35324117 -73.84655743 381.9655207 -76.5625 379.625 C-81.25039834 375.56608592 -85.7387823 371.29262404 -90.26098633 367.05151367 C-93.38263641 364.12917583 -96.50678692 361.22552528 -99.75 358.4375 C-103.68957646 355.05084656 -107.4613489 351.49068261 -111.25 347.9375 C-115.66356317 343.79877803 -120.09508584 339.70731783 -124.6796875 335.7578125 C-129.22810412 331.75863865 -133.63594391 327.59983292 -138.07861328 323.48388672 C-144.24311365 317.78041822 -150.43507875 312.10701003 -156.6875 306.5 C-161.14286804 302.50232627 -165.54083519 298.44549115 -169.93334961 294.37915039 C-173.18365351 291.37353927 -176.45297075 288.39198076 -179.75 285.4375 C-183.61662619 281.9726012 -187.44011713 278.46443248 -191.25 274.9375 C-195.88373371 270.64870256 -200.54835859 266.3980585 -205.25 262.18359375 C-209.76951329 258.12309353 -214.2578674 254.02824432 -218.75 249.9375 C-219.4618042 250.47407227 -219.4618042 250.47407227 -220.18798828 251.02148438 C-223.79453617 253.7340716 -227.41159077 256.43040672 -231.0546875 259.09375 C-239.04087527 264.9335627 -246.96510509 270.83119345 -254.75 276.9375 C-263.2621544 283.6116001 -271.93734568 290.0456598 -280.67626953 296.41894531 C-282.5304948 297.77676038 -284.37504201 299.14618015 -286.21484375 300.5234375 C-287.17519531 301.23757813 -288.13554687 301.95171875 -289.125 302.6875 C-290.31222656 303.57695313 -290.31222656 303.57695313 -291.5234375 304.484375 C-296.25472218 307.57216079 -300.11005111 308.42370249 -305.75 307.9375 C-311.38060723 305.97241146 -314.96215173 303.3312828 -319.1875 299.1875 C-320.32474779 298.10335517 -321.46276571 297.02001762 -322.6015625 295.9375 C-323.14329102 295.41800781 -323.68501953 294.89851563 -324.24316406 294.36328125 C-326.13174256 292.57629188 -328.08532043 290.87552683 -330.0625 289.1875 C-343.22606132 277.70082547 -343.22606132 277.70082547 -344.0625 268.5 C-343.45504623 261.57502697 -340.77797468 257.52825949 -335.75 252.9375 C-334.30895063 251.48267387 -332.87181264 250.0239683 -331.4375 248.5625 C-320.35546979 237.49893984 -320.35546979 237.49893984 -314.75 234.9375 C-314.75 234.2775 -314.75 233.6175 -314.75 232.9375 C-313.421875 231.59765625 -313.421875 231.59765625 -311.5 230 C-307.88628203 226.92897819 -304.36040374 223.77769581 -300.875 220.5625 C-292.92508191 213.24962667 -284.90482643 206.02172073 -276.75 198.9375 C-278.09517259 195.8628198 -279.47906454 194.06178098 -282.0625 191.9375 C-285.79794299 188.77622094 -289.4143824 185.51594154 -293 182.1875 C-294.12623849 181.14446258 -295.25254112 180.10149441 -296.37890625 179.05859375 C-296.93980957 178.53894043 -297.50071289 178.01928711 -298.07861328 177.48388672 C-305.03672791 171.04615694 -312.04305211 164.66346946 -319.1015625 158.3359375 C-321.10782664 156.51905523 -323.10136112 154.69188802 -325.0859375 152.8515625 C-325.95037476 152.04996704 -325.95037476 152.04996704 -326.83227539 151.23217773 C-327.95532437 150.18899565 -329.07699052 149.14432215 -330.19702148 148.09790039 C-332.58563306 145.87839406 -334.96801282 143.76486819 -337.52734375 141.73828125 C-341.05063518 138.88373407 -343.09009162 135.42487695 -343.75 130.9375 C-344.33373855 124.86661906 -343.19522908 120.84915992 -339.75 115.9375 C-334.25375259 109.76150468 -328.07056248 104.25278106 -321.75 98.9375 C-320.39841797 97.76960938 -320.39841797 97.76960938 -319.01953125 96.578125 C-318.06433594 95.76859375 -317.10914063 94.9590625 -316.125 94.125 C-315.24585938 93.37605469 -314.36671875 92.62710938 -313.4609375 91.85546875 C-308.55065609 88.38148003 -304.08283849 87.36084083 -298.22436523 88.28759766 C-290.28274762 90.37349663 -283.0838283 97.6304561 -276.6875 102.5625 C-274.82720544 103.98878032 -272.96652492 105.41455735 -271.10546875 106.83984375 C-270.19587402 107.53706543 -269.2862793 108.23428711 -268.34912109 108.95263672 C-264.75055098 111.70074634 -261.1281007 114.41606702 -257.5 117.125 C-244.82172758 126.60396198 -232.28973402 136.27645275 -219.75 145.9375 C-213.95435399 141.95501699 -209.09312542 137.39297916 -204.1796875 132.375 C-201.53186237 129.71866096 -198.77073177 127.26828296 -195.92578125 124.828125 C-193.26269361 122.51405962 -190.66004483 120.13694441 -188.0625 117.75 C-187.5562207 117.28489014 -187.04994141 116.81978027 -186.52832031 116.34057617 C-183.2735735 113.34655471 -180.02612672 110.3446621 -176.77954102 107.34179688 C-174.61960782 105.3453646 -172.45680601 103.35206283 -170.29296875 101.35986328 C-169.27860885 100.42479037 -168.2655476 99.48830637 -167.25390625 98.55029297 C-165.88176787 97.27901977 -164.50353951 96.01432911 -163.125 94.75 C-162.34898437 94.03457031 -161.57296875 93.31914062 -160.7734375 92.58203125 C-158.75 90.9375 -158.75 90.9375 -155.75 89.9375 C-155.75 89.2775 -155.75 88.6175 -155.75 87.9375 C-154.45703125 86.6328125 -154.45703125 86.6328125 -152.5625 85.0625 C-148.74377946 81.81827724 -145.04491526 78.47230874 -141.375 75.0625 C-137.52440778 71.49274335 -133.66121426 67.94103069 -129.75 64.4375 C-125.88337433 60.97260167 -122.05986214 57.46445432 -118.25 53.9375 C-113.62649899 49.65772376 -108.96907612 45.41991345 -104.27734375 41.21484375 C-101.41917816 38.63940242 -98.58287917 36.04066201 -95.75 33.4375 C-92.12256511 30.10421251 -88.48106924 26.78803693 -84.8125 23.5 C-80.97082906 20.05171616 -77.16564668 16.56658586 -73.375 13.0625 C-72.82827637 12.55775146 -72.28155273 12.05300293 -71.71826172 11.53295898 C-68.98432374 9.00774619 -66.25565462 6.4771873 -63.53515625 3.9375 C-40.32952503 -17.66312035 -26.90533076 -13.30301012 0 0 Z M-34.5 108.9375 C-35.5523584 109.73087769 -35.5523584 109.73087769 -36.62597656 110.5402832 C-43.5183403 115.74397293 -50.38338145 120.98379337 -57.24902344 126.22265625 C-61.73609766 129.64575124 -66.22884551 133.05955172 -70.75 136.4375 C-76.1110426 140.44305172 -81.43057895 144.50188057 -86.75 148.5625 C-94.73231019 154.65524322 -102.7501574 160.69818654 -110.79101562 166.71337891 C-116.30740802 170.84410085 -121.77869284 175.02652854 -127.23046875 179.2421875 C-135.0065397 185.22378054 -142.89254141 191.0635347 -150.75 196.9375 C-149.34044635 201.16616095 -146.23567293 202.79835096 -142.75 205.3125 C-141.27412399 206.39760072 -139.79888326 207.48356592 -138.32421875 208.5703125 C-137.56286621 209.12879883 -136.80151367 209.68728516 -136.01708984 210.26269531 C-132.49926297 212.86147761 -129.0305939 215.52291327 -125.5625 218.1875 C-124.14857815 219.2710169 -122.73451166 220.35434508 -121.3203125 221.4375 C-120.58844727 221.99824219 -119.85658203 222.55898438 -119.10253906 223.13671875 C-108.44161142 231.29726278 -97.77097739 239.44468403 -87.015625 247.48046875 C-82.48903447 250.87541165 -77.99816002 254.31755053 -73.5 257.75 C-64.61700934 264.52479016 -55.71268466 271.26845624 -46.75 277.9375 C-45.92032715 278.5552832 -45.0906543 279.17306641 -44.23583984 279.80957031 C-41.59707283 281.77206554 -38.95531634 283.73046214 -36.3125 285.6875 C-35.05832275 286.61973389 -35.05832275 286.61973389 -33.77880859 287.57080078 C-32.62179443 288.42520752 -32.62179443 288.42520752 -31.44140625 289.296875 C-30.75248291 289.80702148 -30.06355957 290.31716797 -29.35375977 290.84277344 C-27.93597393 292.03146293 -27.93597393 292.03146293 -26.75 291.9375 C-26.75 229.8975 -26.75 167.8575 -26.75 103.9375 C-29.28402053 103.9375 -32.45812321 107.38996461 -34.5 108.9375 Z " fill="#1987D0" transform="translate(378.75,53.0625)"/>
<path d="M0 0 C2.63628976 1.29548845 5.27356625 2.58895366 7.91085815 3.88240051 C9.64435504 4.73280801 11.377533 5.58386592 13.11038208 6.43559265 C19.59615407 9.62287888 26.10029689 12.76805479 32.625 15.875 C33.4927002 16.28959473 34.36040039 16.70418945 35.25439453 17.13134766 C40.16799331 19.47716511 45.08990932 21.80473595 50.015625 24.125 C52.30210734 25.20828266 54.58856615 26.29161499 56.875 27.375 C57.9376709 27.87185303 59.0003418 28.36870605 60.09521484 28.88061523 C67.12974754 32.22193257 72.49295793 35.02008001 76.5 41.9375 C77.00015625 42.783125 77.5003125 43.62875 78.015625 44.5 C79.97794126 48.37495363 80.37550218 51.67341268 80.38422108 55.99326515 C80.38867892 57.01918066 80.39313676 58.04509616 80.39772969 59.10210001 C80.39754533 60.22756625 80.39736097 61.35303249 80.39717102 62.51260376 C80.40084771 63.70953019 80.4045244 64.90645663 80.4083125 66.13965356 C80.41743164 69.46338655 80.42204734 72.7870702 80.42470181 76.110811 C80.42860846 79.69515864 80.43818655 83.27949203 80.44691467 86.86383057 C80.46666901 95.52079237 80.47674403 104.17775532 80.48564246 112.83473402 C80.49002709 116.91286804 80.49539346 120.99100076 80.50063133 125.06913376 C80.51764266 138.62822767 80.53213641 152.18732078 80.53938007 165.74642372 C80.54128992 169.26438015 80.54321026 172.78233657 80.54516602 176.30029297 C80.54564976 177.1746486 80.5461335 178.04900423 80.5466319 178.94985549 C80.55493064 193.11104547 80.58026535 207.27215094 80.61274669 221.43330403 C80.64583254 235.97674024 80.66383022 250.52013353 80.66702431 265.06360757 C80.66918801 273.22741142 80.67791605 281.39109203 80.70348549 289.55485916 C80.72521336 296.50809968 80.73323268 303.46118702 80.72351871 310.41445763 C80.71897999 313.96006061 80.72083478 317.50534767 80.74028015 321.05090714 C80.76121214 324.90089982 80.75090718 328.75045958 80.73774719 332.60049438 C80.74871644 333.71257629 80.75968568 334.8246582 80.77098733 335.97043955 C80.70081706 344.48781576 78.76094038 351.05779654 74.12890625 358.21484375 C70.2166802 361.91473732 65.98356621 364.11033806 61.1875 366.5 C60.19032959 367.00885742 59.19315918 367.51771484 58.16577148 368.04199219 C48.93723653 372.70205092 39.5626698 377.04951182 30.16796875 381.36157227 C24.12798076 384.1342104 18.11286045 386.92715189 12.1875 389.9375 C5.4971698 393.33012085 -1.2294339 396.64621204 -7.97824097 399.92089844 C-9.77073957 400.79220098 -11.56033476 401.66946861 -13.34985352 402.546875 C-31.09481179 411.13741289 -31.09481179 411.13741289 -41.1015625 408.26171875 C-43.0092892 407.55053441 -44.88394646 406.75177791 -46.75 405.9375 C-46.75 405.2775 -46.75 404.6175 -46.75 403.9375 C-46.09773438 403.98390625 -45.44546875 404.0303125 -44.7734375 404.078125 C-38.83082648 404.32354256 -35.38868681 404.03680462 -30.75 399.9375 C-27.16972644 396.50151817 -25.46319084 394.39029052 -25.14872742 389.38162231 C-25.134318 387.58272539 -25.14733761 385.78347672 -25.18237305 383.98486328 C-25.18164291 382.9988765 -25.18091278 382.01288971 -25.18016052 380.99702454 C-25.18363364 377.7500537 -25.22248326 374.50453159 -25.26171875 371.2578125 C-25.27104782 369.00195092 -25.27816348 366.7460792 -25.28315735 364.49020386 C-25.30221952 358.56176635 -25.35131458 352.63394435 -25.40667725 346.70574951 C-25.45788599 340.65287604 -25.48067493 334.5999028 -25.50585938 328.546875 C-25.55943326 316.67681336 -25.64473739 304.80720793 -25.75 292.9375 C-26.41 292.6075 -27.07 292.2775 -27.75 291.9375 C-27.74886084 291.32327171 -27.74772168 290.70904342 -27.746548 290.07620215 C-27.67945167 253.693055 -27.62795951 217.30991699 -27.59680401 180.92672066 C-27.59305177 176.56068477 -27.58916882 172.19464899 -27.58520508 167.82861328 C-27.58402468 166.5247838 -27.58402468 166.5247838 -27.58282044 165.19461432 C-27.56975725 151.10996924 -27.5460984 137.02536079 -27.51854161 122.94073746 C-27.49051278 108.4946419 -27.47382909 94.04856557 -27.46773452 79.60244393 C-27.46361283 70.68438168 -27.45058272 61.76642297 -27.4262506 52.84839258 C-27.41042452 46.73761557 -27.40559252 40.62689229 -27.40949587 34.51609626 C-27.41142231 30.98751534 -27.40841545 27.45911569 -27.39238358 23.93056679 C-27.37514661 20.10897787 -27.38101659 16.28762707 -27.38923645 12.46600342 C-27.38049793 11.34538883 -27.3717594 10.22477424 -27.36275607 9.07020164 C-27.36872922 8.04856933 -27.37470236 7.02693702 -27.38085651 5.97434616 C-27.37971735 5.09187611 -27.37857819 4.20940607 -27.37740451 3.3001945 C-27.82549244 0.45878895 -28.95543014 -0.86298587 -30.75 -3.0625 C-30.75 -3.7225 -30.75 -4.3825 -30.75 -5.0625 C-31.41 -5.0625 -32.07 -5.0625 -32.75 -5.0625 C-32.75 -5.7225 -32.75 -6.3825 -32.75 -7.0625 C-37.04 -7.7225 -41.33 -8.3825 -45.75 -9.0625 C-33.73579169 -21.07670831 -11.98342761 -5.9250585 0 0 Z " fill="#3BA8F1" transform="translate(378.75,53.0625)"/>
<path d="M0 0 C1.35296667 0.62586213 2.69406748 1.28113806 4 2 C4 2.66 4 3.32 4 4 C4.66 4 5.32 4 6 4 C10.46449718 9.07392438 10.57987167 13.38937198 10.53344727 19.96508789 C10.54206284 20.95279678 10.55067841 21.94050568 10.55955505 22.95814514 C10.58220295 26.21325096 10.57547908 29.46749523 10.56640625 32.72265625 C10.57164163 34.9889705 10.57791779 37.25528256 10.58518982 39.52159119 C10.59559135 44.26685861 10.59103479 49.01182609 10.57641602 53.75708008 C10.55921239 59.83932635 10.58274515 65.92062936 10.61790562 72.00277042 C10.63985751 76.68080408 10.63844369 81.35861116 10.6301403 86.03668022 C10.6293199 88.27938307 10.63620025 90.52210241 10.65091133 92.76475716 C10.66831954 95.89853222 10.65384551 99.03060047 10.63110352 102.16430664 C10.64864182 103.55386566 10.64864182 103.55386566 10.66653442 104.97149658 C10.59998435 109.47574248 10.50076688 111.3724571 7.60899353 114.99632263 C6.74802567 115.65753616 5.8870578 116.31874969 5 117 C3.824375 117.93779297 3.824375 117.93779297 2.625 118.89453125 C1.75875 119.52746094 0.8925 120.16039062 0 120.8125 C-5.87581487 125.15391272 -11.69429037 129.56525376 -17.5 134 C-22.98589462 138.18577207 -28.47203195 142.36990893 -34 146.5 C-39.3610426 150.50555172 -44.68057895 154.56438057 -50 158.625 C-57.9814911 164.71711803 -65.99793982 170.76022723 -74.03881836 176.77368164 C-79.58288409 180.92415708 -85.07591919 185.13247066 -90.546875 189.37890625 C-93.33559512 191.51811677 -96.17069777 193.58855347 -99.015625 195.65234375 C-99.89017334 196.28841553 -100.76472168 196.9244873 -101.66577148 197.57983398 C-103.40853813 198.8441878 -105.15536076 200.10297267 -106.90649414 201.35571289 C-107.69660889 201.92926514 -108.48672363 202.50281738 -109.30078125 203.09375 C-110.01403564 203.60615234 -110.72729004 204.11855469 -111.4621582 204.64648438 C-111.969646 205.09314453 -112.47713379 205.53980469 -113 206 C-113 206.66 -113 207.32 -113 208 C-111.551198 209.3493531 -111.551198 209.3493531 -109.640625 210.6796875 C-108.58488281 211.45505859 -108.58488281 211.45505859 -107.5078125 212.24609375 C-106.76273437 212.78363281 -106.01765625 213.32117188 -105.25 213.875 C-96.38452088 220.31265356 -96.38452088 220.31265356 -93 224 C-95.99536702 222.97301702 -98.07651402 221.93841555 -100.5625 219.9375 C-102.86143125 218.11014439 -104.15122727 217.4220404 -107 217 C-107.061875 216.38125 -107.12375 215.7625 -107.1875 215.125 C-107.82051688 212.74397155 -107.82051688 212.74397155 -110.4375 211.8125 C-111.283125 211.544375 -112.12875 211.27625 -113 211 C-113.66 210.67 -114.32 210.34 -115 210 C-115 209.01 -115 208.02 -115 207 C-115.56203125 206.731875 -116.1240625 206.46375 -116.703125 206.1875 C-119.15550646 204.9196021 -121.43927683 203.51027658 -123.75 202 C-124.54921875 201.484375 -125.3484375 200.96875 -126.171875 200.4375 C-126.77515625 199.963125 -127.3784375 199.48875 -128 199 C-128 198.34 -128 197.68 -128 197 C-128.99 196.67 -129.98 196.34 -131 196 C-131 195.34 -131 194.68 -131 194 C-131.99 194 -132.98 194 -134 194 C-134 193.34 -134 192.68 -134 192 C-135.0209375 191.6596875 -135.0209375 191.6596875 -136.0625 191.3125 C-139.6988709 189.68773854 -143.02829263 187.67196743 -146 185 C-146 184.34 -146 183.68 -146 183 C-147.32 182.67 -148.64 182.34 -150 182 C-150 181.34 -150 180.68 -150 180 C-150.5775 179.9175 -151.155 179.835 -151.75 179.75 C-154.64021632 178.78659456 -155.85451437 177.15323107 -158 175 C-159.59844604 173.79720892 -161.22491042 172.63090251 -162.875 171.5 C-163.74769531 170.89542969 -164.62039062 170.29085937 -165.51953125 169.66796875 C-167.50921169 168.33002616 -169.51901665 167.0643191 -171.5625 165.8125 C-174 164 -174 164 -174.875 161.75 C-174.91625 161.1725 -174.9575 160.595 -175 160 C-176.98 159.67 -178.96 159.34 -181 159 C-181 158.34 -181 157.68 -181 157 C-181.556875 156.9175 -182.11375 156.835 -182.6875 156.75 C-185.69256318 155.77538491 -187.57254822 153.99175531 -190 152 C-190.99 151.67 -191.98 151.34 -193 151 C-193.33 150.34 -193.66 149.68 -194 149 C-194.99 148.67 -195.98 148.34 -197 148 C-197.33 147.34 -197.66 146.68 -198 146 C-198.99 145.67 -199.98 145.34 -201 145 C-201.6875 142.9375 -201.6875 142.9375 -202 141 C-197.5469616 143.89650522 -193.31612727 146.98812719 -189.125 150.25 C-188.53203125 150.70890625 -187.9390625 151.1678125 -187.328125 151.640625 C-185.884033 152.75863171 -184.4418176 153.87906168 -183 155 C-177.20435399 151.01751699 -172.34312542 146.45547916 -167.4296875 141.4375 C-164.78186237 138.78116096 -162.02073177 136.33078296 -159.17578125 133.890625 C-156.51269361 131.57655962 -153.91004483 129.19944441 -151.3125 126.8125 C-150.8062207 126.34739014 -150.29994141 125.88228027 -149.77832031 125.40307617 C-146.5235735 122.40905471 -143.27612672 119.4071621 -140.02954102 116.40429688 C-137.86960782 114.4078646 -135.70680601 112.41456283 -133.54296875 110.42236328 C-132.52860885 109.48729037 -131.5155476 108.55080637 -130.50390625 107.61279297 C-129.13176787 106.34151977 -127.75353951 105.07682911 -126.375 103.8125 C-125.59898437 103.09707031 -124.82296875 102.38164062 -124.0234375 101.64453125 C-122 100 -122 100 -119 99 C-119 98.34 -119 97.68 -119 97 C-117.70703125 95.6953125 -117.70703125 95.6953125 -115.8125 94.125 C-111.99377946 90.88077724 -108.29491526 87.53480874 -104.625 84.125 C-100.77440778 80.55524335 -96.91121426 77.00353069 -93 73.5 C-89.13337433 70.03510167 -85.30986214 66.52695432 -81.5 63 C-76.87649899 58.72022376 -72.21907612 54.48241345 -67.52734375 50.27734375 C-64.66917816 47.70190242 -61.83287917 45.10316201 -59 42.5 C-55.37256511 39.16671251 -51.73106924 35.85053693 -48.0625 32.5625 C-44.22082906 29.11421616 -40.41564668 25.62908586 -36.625 22.125 C-35.80491455 21.3678772 -35.80491455 21.3678772 -34.96826172 20.59545898 C-32.23432374 18.07024619 -29.50565462 15.5396873 -26.78515625 13 C-23.88636625 10.29947203 -20.9483678 7.64629837 -18 5 C-17.28199219 4.32195313 -16.56398438 3.64390625 -15.82421875 2.9453125 C-10.69701801 -1.5140164 -6.51274156 -1.77217458 0 0 Z " fill="#2F81B8" transform="translate(342,44)"/>
<path d="M0 0 C0.99 0.495 0.99 0.495 2 1 C2.495 2.485 2.495 2.485 3 4 C5.00016466 5.20882096 5.00016466 5.20882096 7 6 C7 6.66 7 7.32 7 8 C7.66 8 8.32 8 9 8 C9 8.66 9 9.32 9 10 C9.99 10 10.98 10 12 10 C14.6875 12.375 14.6875 12.375 17 15 C17 15.66 17 16.32 17 17 C17.556875 17.04125 18.11375 17.0825 18.6875 17.125 C22.17346586 18.44401411 23.71595476 21.13030213 26 24 C26.99 24.66 27.98 25.32 29 26 C29 26.66 29 27.32 29 28 C29.56203125 28.2475 30.1240625 28.495 30.703125 28.75 C33.39092569 30.21274867 35.46405482 31.96804873 37.75 34 C38.54921875 34.70125 39.3484375 35.4025 40.171875 36.125 C42 38 42 38 42 40 C42.99 40 43.98 40 45 40 C45 40.66 45 41.32 45 42 C45.66 42 46.32 42 47 42 C47 42.66 47 43.32 47 44 C47.66 44 48.32 44 49 44 C50.70993434 45.6222454 52.37347684 47.29413425 54 49 C54.99764983 50.00234466 55.99708031 51.00292824 57 52 C51.605478 56.87888263 46.02201061 61.31013306 40.125 65.5625 C33.663165 70.26983051 27.28734504 75.06207961 21 80 C12.48831517 86.67467109 3.81262871 93.10817847 -4.92626953 99.48144531 C-6.7804948 100.83926038 -8.62504201 102.20868015 -10.46484375 103.5859375 C-11.90537109 104.65714844 -11.90537109 104.65714844 -13.375 105.75 C-14.16648438 106.34296875 -14.95796875 106.9359375 -15.7734375 107.546875 C-20.50472218 110.63466079 -24.36005111 111.48620249 -30 111 C-35.63060723 109.03491146 -39.21215173 106.3937828 -43.4375 102.25 C-44.57474779 101.16585517 -45.71276571 100.08251762 -46.8515625 99 C-47.39329102 98.48050781 -47.93501953 97.96101563 -48.49316406 97.42578125 C-50.38174256 95.63879188 -52.33532043 93.93802683 -54.3125 92.25 C-67.47606132 80.76332547 -67.47606132 80.76332547 -68.3125 71.5625 C-67.70504623 64.63752697 -65.02797468 60.59075949 -60 56 C-58.55895063 54.54517387 -57.12181264 53.0864683 -55.6875 51.625 C-44.60546979 40.56143984 -44.60546979 40.56143984 -39 38 C-39 37.34 -39 36.68 -39 36 C-37.671875 34.66015625 -37.671875 34.66015625 -35.75 33.0625 C-32.13628203 29.99147819 -28.61040374 26.84019581 -25.125 23.625 C-17.67887671 16.77555126 -10.20154243 9.96831478 -2.49609375 3.41015625 C-0.88204282 2.05086049 -0.88204282 2.05086049 0 0 Z " fill="#1773B0" transform="translate(103,250)"/>
<path d="M0 0 C4.20221866 1.31869605 8.09380011 2.90583943 12.05078125 4.8359375 C13.21125977 5.39941895 14.37173828 5.96290039 15.56738281 6.54345703 C16.81576105 7.15395942 18.06413329 7.76447405 19.3125 8.375 C20.61405275 9.00807152 21.91581361 9.64071533 23.21777344 10.27294922 C25.87120212 11.56160334 28.5239418 12.85165972 31.17626953 14.14257812 C36.69088201 16.82413941 42.22031931 19.47468754 47.75 22.125 C48.74974854 22.60565918 49.74949707 23.08631836 50.77954102 23.58154297 C56.15631315 26.16540593 61.54141663 28.7301276 66.9375 31.2734375 C68.07735352 31.81339355 69.21720703 32.35334961 70.39160156 32.90966797 C72.57327879 33.94277683 74.75739988 34.97074617 76.94433594 35.99267578 C83.94412298 39.31579541 89.26317917 42.11748824 93.25 49 C93.75015625 49.845625 94.2503125 50.69125 94.765625 51.5625 C96.73456219 55.45052787 97.12489395 58.74900626 97.12304783 63.08369827 C97.12503888 64.11578077 97.12702993 65.14786326 97.12908131 66.21122098 C97.12616847 67.34350841 97.12325563 68.47579585 97.12025452 69.64239502 C97.12110894 70.84637711 97.12196337 72.05035921 97.12284368 73.29082561 C97.12420745 76.6338727 97.12107666 79.97686142 97.11606562 83.31990147 C97.11175156 86.92450014 97.11320823 90.52909698 97.1139679 94.13369751 C97.11449252 100.37930988 97.1113521 106.6249118 97.10573006 112.87052155 C97.09760679 121.90065057 97.09499899 130.93077455 97.09374207 139.96090683 C97.09155285 154.61131054 97.08489629 169.26170869 97.07543945 183.91210938 C97.06626197 198.14453097 97.05918278 212.37695105 97.05493164 226.609375 C97.05466892 227.48650081 97.05440619 228.36362661 97.05413551 229.26733199 C97.05283048 233.66756639 97.05156677 238.0678008 97.05032361 242.46803522 C97.03995505 278.97869408 97.02234027 315.48934661 97 352 C96.67 352 96.34 352 96 352 C95.99576806 351.01760534 95.99153612 350.03521069 95.98717594 349.02304649 C95.88199949 324.64156487 95.77308067 300.26010189 95.66066074 275.87865257 C95.60636485 264.08593777 95.55311816 252.29322029 95.50268555 240.50048828 C95.44892027 227.95501482 95.39236799 215.40955637 95.33260679 202.86410999 C95.32180488 200.5950032 95.31108593 198.32589602 95.30044985 196.05678844 C95.18141473 170.76238686 95.02065331 145.46956723 94.70654297 120.17675781 C94.69396592 119.15593369 94.68138886 118.13510956 94.66843069 117.08335137 C94.54880558 107.42325864 94.42317519 97.76329747 94.27876043 88.10354137 C94.2281099 84.66636272 94.18127731 81.2291384 94.13515401 77.79189634 C94.10227369 75.46079636 94.06363146 73.1298391 94.02480125 70.79883194 C94.00599067 69.40883056 93.98748555 68.01882499 93.96934509 66.6288147 C93.9510562 65.43679758 93.93276731 64.24478046 93.91392422 63.01664162 C93.98674733 60.46445751 94.23975533 58.42031287 95 56 C94.34 56 93.68 56 93 56 C92.505 56.99 92.505 56.99 92 58 C91.67 57.34 91.34 56.68 91 56 C90.34 55.67 89.68 55.34 89 55 C89.66 53.35 90.32 51.7 91 50 C90.195625 49.773125 89.39125 49.54625 88.5625 49.3125 C87.716875 48.879375 86.87125 48.44625 86 48 C85.896875 47.195625 85.79375 46.39125 85.6875 45.5625 C85.460625 44.716875 85.23375 43.87125 85 43 C82.44717632 41.61449313 79.79026477 40.78178261 77 40 C77 40.66 77 41.32 77 42 C76.1028125 41.7525 76.1028125 41.7525 75.1875 41.5 C72.88655664 40.8885876 72.88655664 40.8885876 70 41 C70.33 39.35 70.66 37.7 71 36 C67.63744091 33.70551773 67.63744091 33.70551773 64 32 C60.62526741 32.59420508 60.62526741 32.59420508 58 34 C57.67 32.35 57.34 30.7 57 29 C56.195625 28.87625 55.39125 28.7525 54.5625 28.625 C53.2940625 28.315625 53.2940625 28.315625 52 28 C51.505 27.01 51.505 27.01 51 26 C48.33571593 24.85816397 47.24522454 24.9080408 44.5 25.9375 C43.675 26.288125 42.85 26.63875 42 27 C40.68 27 39.36 27 38 27 C38 24.36 38 21.72 38 19 C35.69 18.67 33.38 18.34 31 18 C31 17.34 31 16.68 31 16 C30.34 16 29.68 16 29 16 C28.67 16.66 28.34 17.32 28 18 C27.34 17.67 26.68 17.34 26 17 C25.01 17.33 24.02 17.66 23 18 C22.855625 17.113125 22.71125 16.22625 22.5625 15.3125 C20.30417243 10.52484554 16.6646339 9.16915074 12 7 C12.33 7.99 12.66 8.98 13 10 C10.6875 9.8125 10.6875 9.8125 8 9 C6.96210419 7.35666496 5.96432076 5.68756133 5 4 C2.41556677 2.26509754 2.41556677 2.26509754 0 1 C0 0.67 0 0.34 0 0 Z " fill="#5EA9DC" transform="translate(362,46)"/>
<path d="M0 0 C5.79227309 3.99900806 11.41589915 8.18525471 16.98974609 12.48291016 C18.84226105 13.90263732 20.69512916 15.32190378 22.54833984 16.74072266 C23.45696777 17.43713867 24.3655957 18.13355469 25.30175781 18.85107422 C35.07629007 26.32240164 44.94459063 33.66701427 54.92724609 40.85791016 C51.79374877 41.90240926 50.93756353 41.7921466 47.92724609 40.85791016 C47.92724609 40.19791016 47.92724609 39.53791016 47.92724609 38.85791016 C46.60724609 39.18791016 45.28724609 39.51791016 43.92724609 39.85791016 C43.57662109 38.90916016 43.22599609 37.96041016 42.86474609 36.98291016 C41.15581199 33.51454953 41.15581199 33.51454953 37.23974609 32.48291016 C36.14662109 32.27666016 35.05349609 32.07041016 33.92724609 31.85791016 C33.92724609 31.19791016 33.92724609 30.53791016 33.92724609 29.85791016 C31.94724609 30.84791016 29.96724609 31.83791016 27.92724609 32.85791016 C27.36561443 30.12998494 26.92724609 27.71919857 26.92724609 24.92041016 C25.33546011 20.04556557 21.23365395 18.31125766 16.92724609 15.85791016 C15.93724609 16.35291016 15.93724609 16.35291016 14.92724609 16.85791016 C12.80224609 15.92041016 12.80224609 15.92041016 10.92724609 14.85791016 C10.92724609 13.53791016 10.92724609 12.21791016 10.92724609 10.85791016 C9.42823592 8.8778181 9.42823592 8.8778181 6.92724609 7.85791016 C5.19474609 8.13634766 5.19474609 8.13634766 3.42724609 8.42041016 C-0.07275391 8.85791016 -0.07275391 8.85791016 -2.57275391 7.17041016 C-3.06775391 6.40728516 -3.56275391 5.64416016 -4.07275391 4.85791016 C-3.74275391 3.53791016 -3.41275391 2.21791016 -3.07275391 0.85791016 C-7.52775391 1.35291016 -7.52775391 1.35291016 -12.07275391 1.85791016 C-12.73275391 3.83791016 -13.39275391 5.81791016 -14.07275391 7.85791016 C-18.82275391 8.98291016 -18.82275391 8.98291016 -21.07275391 7.85791016 C-21.17587891 8.62103516 -21.27900391 9.38416016 -21.38525391 10.17041016 C-22.12869525 13.07658994 -22.73162354 14.05704064 -25.07275391 15.85791016 C-28.07275391 16.85791016 -28.07275391 16.85791016 -31.07275391 16.85791016 C-35.02037963 18.35528543 -37.91617544 21.13177421 -41.07275391 23.85791016 C-41.73275391 23.52791016 -42.39275391 23.19791016 -43.07275391 22.85791016 C-38.27960834 17.92995737 -33.31399536 13.30474741 -28.07275391 8.85791016 C-27.16783203 8.07544922 -26.26291016 7.29298828 -25.33056641 6.48681641 C-23.90357422 5.27832031 -23.90357422 5.27832031 -22.44775391 4.04541016 C-21.56861328 3.29646484 -20.68947266 2.54751953 -19.78369141 1.77587891 C-13.69546091 -2.53150031 -6.68787921 -3.68502932 0 0 Z " fill="#3492D1" transform="translate(85.07275390625,143.14208984375)"/>
<path d="M0 0 C0.99 0.433125 0.99 0.433125 2 0.875 C2 1.205 2 1.535 2 1.875 C0.72125 2.08125 -0.5575 2.2875 -1.875 2.5 C-4.08444727 2.97228242 -4.08444727 2.97228242 -6 3.875 C-7.40844651 6.76690405 -7.40844651 6.76690405 -8 9.875 C-10.02678473 12.54667078 -11.71996319 13.30947641 -15 13.875 C-15 14.865 -15 15.855 -15 16.875 C-16 19.0625 -16 19.0625 -17 20.875 C-17.763125 20.854375 -18.52625 20.83375 -19.3125 20.8125 C-22.10185786 20.74557159 -22.10185786 20.74557159 -25 21.875 C-24.34 23.525 -23.68 25.175 -23 26.875 C-26.153368 27.57574844 -28.72724974 27.875 -32 27.875 C-32.0825 28.638125 -32.165 29.40125 -32.25 30.1875 C-33 32.875 -33 32.875 -34.875 34.75 C-35.57625 35.12125 -36.2775 35.4925 -37 35.875 C-38.485 35.38 -38.485 35.38 -40 34.875 C-40.0928125 35.98875 -40.0928125 35.98875 -40.1875 37.125 C-41 39.875 -41 39.875 -43.3125 41.6875 C-46.04983677 43.91556482 -46.57550986 44.87784837 -47.875 48 C-49.4555093 51.45536445 -49.66164166 51.73965666 -53.4375 53.25 C-54.613125 53.45625 -55.78875 53.6625 -57 53.875 C-58.67632417 54.51699649 -60.34750513 55.17394157 -62 55.875 C-62 56.535 -62 57.195 -62 57.875 C-63.32 57.545 -64.64 57.215 -66 56.875 C-60.89641127 51.67728771 -55.77773923 46.57734791 -50.24609375 41.8359375 C-47.36344906 39.31926335 -44.55699887 36.72545697 -41.75 34.125 C-40.9142041 33.35095825 -40.9142041 33.35095825 -40.06152344 32.5612793 C-38.92847768 31.51179485 -37.79550253 30.46223418 -36.66259766 29.41259766 C-33.60469326 26.58459738 -30.53345446 23.77115389 -27.45898438 20.96118164 C-24.91634196 18.63644401 -22.38260137 16.30313807 -19.86328125 13.953125 C-4.66610165 -0.1944209 -4.66610165 -0.1944209 0 0 Z " fill="#4189B7" transform="translate(335,43.125)"/>
<path d="M0 0 C0.495 0.99 0.495 0.99 1 2 C1.66 2.33 2.32 2.66 3 3 C3.495 3.99 3.495 3.99 4 5 C4.66 3.68 5.32 2.36 6 1 C6.99 1.33 7.98 1.66 9 2 C9 1.34 9 0.68 9 0 C9.66 0 10.32 0 11 0 C10.83911133 2.30981445 10.83911133 2.30981445 10 5 C7.6550293 6.63745117 7.6550293 6.63745117 4.57421875 8.04296875 C2.91422852 8.81737305 2.91422852 8.81737305 1.22070312 9.60742188 C-0.52823242 10.38956055 -0.52823242 10.38956055 -2.3125 11.1875 C-3.46685547 11.72052734 -4.62121094 12.25355469 -5.81054688 12.80273438 C-7.9587365 13.79391879 -10.11051179 14.77739317 -12.2668457 15.75073242 C-13.90877554 16.50122416 -15.54059416 17.27542483 -17.14916992 18.0949707 C-21.58981992 20.2663847 -26.07393896 21.29854915 -31 21 C-31 21.66 -31 22.32 -31 23 C-31.99 23 -32.98 23 -34 23 C-34 20.69 -34 18.38 -34 16 C-30.11684857 15.92532401 -26.74256137 16.00198364 -23 17 C-21.33376361 17.03786901 -19.66602403 17.04627845 -18 17 C-18 16.01 -18 15.02 -18 14 C-18.66 13.67 -19.32 13.34 -20 13 C-19.34 13 -18.68 13 -18 13 C-17.67 11.35 -17.34 9.7 -17 8 C-14.03 8.495 -14.03 8.495 -11 9 C-11 9.66 -11 10.32 -11 11 C-10.0925 10.505 -9.185 10.01 -8.25 9.5 C-5 8 -5 8 -1 8 C-1.020625 7.05125 -1.04125 6.1025 -1.0625 5.125 C-1 2 -1 2 0 0 Z " fill="#309EE8" transform="translate(394,432)"/>
<path d="M0 0 C0 1.98 0 3.96 0 6 C1.98 5.34 3.96 4.68 6 4 C5.690625 4.680625 5.38125 5.36125 5.0625 6.0625 C4.70354021 8.98668576 4.70354021 8.98668576 6.3515625 10.85546875 C9.48839957 14.09241764 11.58316154 15.97854699 16 17 C16.33 17.66 16.66 18.32 17 19 C17.66 18.34 18.32 17.68 19 17 C22 19 22 19 23 22 C22.34 22 21.68 22 21 22 C22.00916823 24.5748212 22.00916823 24.5748212 24 27 C27.59919423 27.89592083 27.59919423 27.89592083 31 28 C30.01 28.33 29.02 28.66 28 29 C27.505 30.485 27.505 30.485 27 32 C25.78099573 30.88257941 24.56199636 29.76515347 23.34301758 28.64770508 C22.26741479 27.66177707 21.19172918 26.67593942 20.1159668 25.69018555 C17.35795706 23.16271036 14.6011045 20.63400688 11.84765625 18.1015625 C5.94768217 12.67818275 0.01246862 7.29886754 -6 2 C-3 0 -3 0 0 0 Z " fill="#348DC5" transform="translate(64,208)"/>
<path d="M0 0 C0.66 0.66 1.32 1.32 2 2 C0.14375 1.9690625 0.14375 1.9690625 -1.75 1.9375 C-4.6640825 1.93233319 -7.20953327 2.06984442 -10 3 C-10 3.66 -10 4.32 -10 5 C-11.32 4.67 -12.64 4.34 -14 4 C-14 3.34 -14 2.68 -14 2 C-18.29 1.34 -22.58 0.68 -27 0 C-19.5495895 -7.4504105 -8.54615023 -3.94216357 0 0 Z " fill="#61B4E7" transform="translate(360,44)"/>
<path d="M0 0 C1 3 1 3 1 5 C3.475 5.495 3.475 5.495 6 6 C5.67 6.66 5.34 7.32 5 8 C1.9375 8.625 1.9375 8.625 -1 9 C-1 9.66 -1 10.32 -1 11 C-7.45892714 11.40368295 -12.06108578 10.5915262 -18 8 C-18 7.34 -18 6.68 -18 6 C-17.02160156 6.06960938 -17.02160156 6.06960938 -16.0234375 6.140625 C-10.07503884 6.38628158 -6.71972647 6.0117675 -2 2 C-1.34 1.34 -0.68 0.68 0 0 Z " fill="#259CEB" transform="translate(350,451)"/>
<path d="M0 0 C0.99 0.33 1.98 0.66 3 1 C-4.96104019 7.36363735 -13.02046748 13.59013608 -21.1875 19.6875 C-22.01290283 20.31156738 -22.83830566 20.93563477 -23.6887207 21.57861328 C-24.46562256 22.15466309 -25.24252441 22.73071289 -26.04296875 23.32421875 C-26.73414795 23.84072998 -27.42532715 24.35724121 -28.13745117 24.8894043 C-30 26 -30 26 -33 26 C-33 25.34 -33 24.68 -33 24 C-32.01 24 -31.02 24 -30 24 C-30 23.34 -30 22.68 -30 22 C-29.0925 21.5875 -28.185 21.175 -27.25 20.75 C-24.19047606 19.10256403 -22.38114082 17.46618157 -20 15 C-19.34 15 -18.68 15 -18 15 C-18 14.34 -18 13.68 -18 13 C-17.01 13 -16.02 13 -15 13 C-15 12.34 -15 11.68 -15 11 C-14.01 11 -13.02 11 -12 11 C-12.66 9.68 -13.32 8.36 -14 7 C-13.01 6.67 -12.02 6.34 -11 6 C-10.67 5.01 -10.34 4.02 -10 3 C-8.3603125 3.0928125 -8.3603125 3.0928125 -6.6875 3.1875 C-3.07873917 3.35597914 -3.07873917 3.35597914 -1.0625 1.5 C-0.5365625 0.7575 -0.5365625 0.7575 0 0 Z " fill="#2F78A6" transform="translate(259,224)"/>
<path d="M0 0 C0.66 0.33 1.32 0.66 2 1 C1.49396008 3.16874252 1.00016187 4.99967627 0 7 C-0.66 7 -1.32 7 -2 7 C-2.33 8.32 -2.66 9.64 -3 11 C-5.31 11.66 -7.62 12.32 -10 13 C-9.67 14.98 -9.34 16.96 -9 19 C-10.75 20.125 -10.75 20.125 -13 21 C-15.25 20.125 -15.25 20.125 -17 19 C-17.99 19.99 -18.98 20.98 -20 22 C-20.66 21.67 -21.32 21.34 -22 21 C-19.62755857 18.76809748 -17.25158354 16.53999075 -14.875 14.3125 C-14.20984375 13.68666016 -13.5446875 13.06082031 -12.859375 12.41601562 C-9.82752148 9.57736846 -6.79242581 6.79014883 -3.5703125 4.16796875 C-0.96575342 2.2609743 -0.96575342 2.2609743 0 0 Z " fill="#2B77AC" transform="translate(103,250)"/>
<path d="M0 0 C1.32 0.33 2.64 0.66 4 1 C1.08778729 3.29737247 -1.83051624 5.58687699 -4.75 7.875 C-5.575 8.52597656 -6.4 9.17695313 -7.25 9.84765625 C-8.04921875 10.47285156 -8.8484375 11.09804688 -9.671875 11.7421875 C-10.4050293 12.3182373 -11.13818359 12.89428711 -11.89355469 13.48779297 C-13.86699069 14.90451325 -15.79759427 15.98584875 -18 17 C-18 16.34 -18 15.68 -18 15 C-17.34 14.67 -16.68 14.34 -16 14 C-16.66 12.68 -17.32 11.36 -18 10 C-16.37660195 8.29115995 -14.70680947 6.62553283 -13 5 C-12.34 5 -11.68 5 -11 5 C-10.34 5.66 -9.68 6.32 -9 7 C-8.01 7 -7.02 7 -6 7 C-6 6.34 -6 5.68 -6 5 C-5.01 4.67 -4.02 4.34 -3 4 C-2.67 3.34 -2.34 2.68 -2 2 C-1.34 2 -0.68 2 0 2 C0 1.34 0 0.68 0 0 Z " fill="#1C70AA" transform="translate(146,309)"/>
<path d="M0 0 C0 3 0 3 -1.5 5.5 C-3.95264798 11.22284529 -3.97908214 17.17793971 -1.9375 23.0625 C0.73449349 25.73449349 3.35763707 26.24403788 7 27 C7 28.98 7 30.96 7 33 C1.38445955 29.15635338 -3.20593145 25.63467708 -5.75 19.0625 C-6.57809596 12.23070833 -5.63261038 7.76710041 -2 2 C-1.34 1.34 -0.68 0.68 0 0 Z " fill="#4A8FBD" transform="translate(41,167)"/>
<path d="M0 0 C0.33 0.66 0.66 1.32 1 2 C0.2575 2.721875 -0.485 3.44375 -1.25 4.1875 C-4.01267269 6.90711047 -4.01267269 6.90711047 -6.1875 9.8125 C-6.785625 10.534375 -7.38375 11.25625 -8 12 C-8.66 12 -9.32 12 -10 12 C-10.309375 12.86625 -10.309375 12.86625 -10.625 13.75 C-12.51158648 16.83714152 -14.95389235 18.08871677 -18 20 C-21.55278974 22.53578763 -21.55278974 22.53578763 -24 26 C-24.99 25.67 -25.98 25.34 -27 25 C-10.81954573 9.75732457 -10.81954573 9.75732457 -2.72265625 2.5390625 C-1.7972428 1.71227588 -0.8774868 0.8774868 0 0 Z " fill="#4685AE" transform="translate(267,101)"/>
<path d="M0 0 C2.25 1.8125 2.25 1.8125 4 4 C4 4.99 4 5.98 4 7 C4.63106429 9.01151741 5.29373761 11.01363702 6 13 C2.8731209 11.61867539 0.80079608 10.02096237 -1.5625 7.5625 C-2.14128906 6.96566406 -2.72007812 6.36882812 -3.31640625 5.75390625 C-3.87199219 5.17511719 -4.42757812 4.59632813 -5 4 C-5.9977247 2.99772986 -6.99695588 1.99694659 -8 1 C-5.10765685 0.17361624 -3.11257569 0 0 0 Z " fill="#1B80C3" transform="translate(254,380)"/>
<path d="M0 0 C1.98 0 3.96 0 6 0 C5.625 1.9375 5.625 1.9375 5 4 C4.01 4.495 4.01 4.495 3 5 C1.69364726 7.30532837 0.84142926 9.47571223 0 12 C-2.0625 12.6875 -2.0625 12.6875 -4 13 C-3.67 13.66 -3.34 14.32 -3 15 C-4.65 14.67 -6.3 14.34 -8 14 C-6.4387467 10.87749341 -3.88247767 8.59594216 -1.49609375 6.0703125 C0.39047592 3.88537277 0.39047592 3.88537277 0 0 Z " fill="#259EEF" transform="translate(450,400)"/>
<path d="M0 0 C0 0.66 0 1.32 0 2 C-0.99 2 -1.98 2 -3 2 C-3 2.99 -3 3.98 -3 5 C-3.928125 5.433125 -4.85625 5.86625 -5.8125 6.3125 C-10.76975453 9.10915887 -14.45128716 13.27584105 -18.3515625 17.34375 C-20.78045726 19.77980965 -23.27115749 21.91149959 -26 24 C-26.66 23.67 -27.32 23.34 -28 23 C-23.20761763 18.07283188 -18.24700421 13.43907449 -13 9 C-11.57300781 7.79150391 -11.57300781 7.79150391 -10.1171875 6.55859375 C-9.12976563 5.73488281 -8.14234375 4.91117188 -7.125 4.0625 C-6.19945313 3.29035156 -5.27390625 2.51820313 -4.3203125 1.72265625 C-2 0 -2 0 0 0 Z " fill="#4990BD" transform="translate(70,143)"/>
<path d="M0 0 C-1.45855647 3.68646141 -3.30229045 5.16143971 -6.625 7.25 C-7.44226563 7.77078125 -8.25953125 8.2915625 -9.1015625 8.828125 C-10.04128906 9.40820312 -10.04128906 9.40820312 -11 10 C-11.95287489 6.98041673 -12.14972335 6.32190521 -10.75 3.3125 C-7.79412117 -0.59348275 -4.58205499 -0.10182344 0 0 Z " fill="#196EA6" transform="translate(101,345)"/>
<path d="M0 0 C0.99 1.32 1.98 2.64 3 4 C-0.05060947 7.519934 -2.58967104 8.65772597 -7 10 C-7.66 10.66 -8.32 11.32 -9 12 C-11.625 11.625 -11.625 11.625 -14 11 C-13 9 -13 9 -10 8 C-8.42788627 6.87469754 -6.88853393 5.70293902 -5.375 4.5 C-4.57835937 3.8709375 -3.78171875 3.241875 -2.9609375 2.59375 C-1.11489062 1.14914061 -1.11489062 1.14914061 0 0 Z " fill="#207BB6" transform="translate(265,216)"/>
<path d="M0 0 C5.21374018 -0.10026423 9.10864341 0.3695478 14 2 C10.14243493 4.15305957 7.44870215 5.39253254 3 5 C3 5.66 3 6.32 3 7 C2.01 7 1.02 7 0 7 C0 4.69 0 2.38 0 0 Z " fill="#209CEE" transform="translate(360,448)"/>
<path d="M0 0 C0.33 0.99 0.66 1.98 1 3 C0.154375 3.7425 -0.69125 4.485 -1.5625 5.25 C-2.7690625 6.61125 -2.7690625 6.61125 -4 8 C-3.95502158 10.27523089 -3.95502158 10.27523089 -3 12 C-4.2065625 12.3403125 -4.2065625 12.3403125 -5.4375 12.6875 C-6.283125 13.120625 -7.12875 13.55375 -8 14 C-8.89386164 16.54775306 -8.89386164 16.54775306 -9 19 C-9.33 19 -9.66 19 -10 19 C-9.72980587 12.92063217 -9.03723846 8.82225704 -5 4 C-2.25 1.625 -2.25 1.625 0 0 Z " fill="#2C92D5" transform="translate(47,163)"/>
<path d="M0 0 C1.0689485 2.71009886 1.11013214 3.73791862 -0.0390625 6.47265625 C-0.56242187 7.32730469 -1.08578125 8.18195313 -1.625 9.0625 C-2.38683594 10.34833984 -2.38683594 10.34833984 -3.1640625 11.66015625 C-5.18612864 14.23721502 -7.11396398 15.49788228 -10 17 C-10.66 16.01 -11.32 15.02 -12 14 C-11.01 13.67 -10.02 13.34 -9 13 C-8.34 13.33 -7.68 13.66 -7 14 C-7.33 13.01 -7.66 12.02 -8 11 C-7.34 10.67 -6.68 10.34 -6 10 C-4.86649466 7.98330173 -4.86649466 7.98330173 -4 6 C-3.34 6 -2.68 6 -2 6 C-2 5.01 -2 4.02 -2 3 C-1.34 3 -0.68 3 0 3 C0 2.01 0 1.02 0 0 Z " fill="#409FE0" transform="translate(457,398)"/>
<path d="M0 0 C0.99 0.103125 1.98 0.20625 3 0.3125 C5 3.3125 5 3.3125 5 7.3125 C4.67 8.3025 4.34 9.2925 4 10.3125 C1.03 7.6725 -1.94 5.0325 -5 2.3125 C-3 0.3125 -3 0.3125 0 0 Z " fill="#1B6EA5" transform="translate(59,344.6875)"/>
<path d="M0 0 C2.31 0 4.62 0 7 0 C7 1.65 7 3.3 7 5 C7.99 5 8.98 5 10 5 C10.103125 5.7425 10.20625 6.485 10.3125 7.25 C11.04253504 10.17014018 12.06789398 11.73187554 14 14 C10.14406926 12.41438362 7.66783709 9.93490046 4.75 7 C3.85796875 6.113125 2.9659375 5.22625 2.046875 4.3125 C0 2 0 2 0 0 Z " fill="#2471A2" transform="translate(37,329)"/>
<path d="M0 0 C-3.9700218 4.21814817 -8.30840284 7.61227103 -13 11 C-13.66 10.67 -14.32 10.34 -15 10 C-14.0943894 6.03795362 -12.47351586 4.35342382 -9.1875 2.1875 C-6.01230998 0.33675172 -3.74476649 -0.58511976 0 0 Z " fill="#2E7BAC" transform="translate(294,200)"/>
<path d="M0 0 C5.40838443 3.56879789 10.74979781 7.20198139 16 11 C12.86650268 12.04449911 12.01031744 11.93423645 9 11 C9 10.34 9 9.68 9 9 C7.68 9.33 6.36 9.66 5 10 C3.33333333 6.66666667 1.66666667 3.33333333 0 0 Z " fill="#3A8FC4" transform="translate(124,173)"/>
<path d="M0 0 C0.66 0 1.32 0 2 0 C2 0.66 2 1.32 2 2 C2.99 1.67 3.98 1.34 5 1 C8 3 8 3 8.6875 5.625 C8.790625 6.40875 8.89375 7.1925 9 8 C7.68 8.33 6.36 8.66 5 9 C3.02 6.69 1.04 4.38 -1 2 C-0.67 1.34 -0.34 0.68 0 0 Z " fill="#248ED3" transform="translate(71,216)"/>
<path d="M0 0 C0.66 0.33 1.32 0.66 2 1 C1.3503125 1.72316406 1.3503125 1.72316406 0.6875 2.4609375 C0.130625 3.09257812 -0.42625 3.72421875 -1 4.375 C-1.556875 5.00148438 -2.11375 5.62796875 -2.6875 6.2734375 C-4.20172487 7.90389833 -4.20172487 7.90389833 -4 10 C-5.32 10 -6.64 10 -8 10 C-7.34 11.32 -6.68 12.64 -6 14 C-8.6666419 15.33332095 -10.16680303 14.67102033 -13 14 C-11.87050952 10.61152855 -10.87716782 9.80305816 -8.1875 7.5625 C-5.33240495 5.14310168 -2.5947338 2.7028477 0 0 Z " fill="#2E73A0" transform="translate(52,297)"/>
<path d="M0 0 C2.97 0.495 2.97 0.495 6 1 C6 1.66 6 2.32 6 3 C6.99 3 7.98 3 9 3 C9.3403125 4.11375 9.3403125 4.11375 9.6875 5.25 C11.24407532 8.51139591 13.08518854 9.92894975 16 12 C15.67 12.66 15.34 13.32 15 14 C14.50371094 13.56429688 14.00742188 13.12859375 13.49609375 12.6796875 C12.81675781 12.08414062 12.13742188 11.48859375 11.4375 10.875 C10.71433594 10.24078125 9.99117187 9.6065625 9.24609375 8.953125 C7.18031672 7.15679714 5.09348924 5.38883961 3 3.625 C2.01 2.75875 1.02 1.8925 0 1 C0 0.67 0 0.34 0 0 Z " fill="#3485B5" transform="translate(188,328)"/>
<path d="M0 0 C1 2 1 2 0.125 4.9375 C-2.82216552 9.1848856 -6.12008382 9.83373072 -11 11 C-7.6189962 6.86378916 -4.33409466 3.18683431 0 0 Z " fill="#4886AE" transform="translate(295,76)"/>
<path d="M0 0 C1.33333333 0.66666667 2.66666667 1.33333333 4 2 C5.051875 2.45375 6.10375 2.9075 7.1875 3.375 C10 5 10 5 10.875 7.1875 C10.936875 8.0846875 10.936875 8.0846875 11 9 C11.99 9 12.98 9 14 9 C14.99 10.98 15.98 12.96 17 15 C13.93284405 13.64054005 11.92258958 12.11992465 9.625 9.6875 C7.36445928 7.34884124 5.08917095 5.17381356 2.5625 3.125 C1.716875 2.42375 0.87125 1.7225 0 1 C0 0.67 0 0.34 0 0 Z " fill="#217EB9" transform="translate(310,439)"/>
<path d="M0 0 C-4.95 3.63 -9.9 7.26 -15 11 C-15.33 10.34 -15.66 9.68 -16 9 C-15.34 9 -14.68 9 -14 9 C-14.33 7.68 -14.66 6.36 -15 5 C-13.35 5.33 -11.7 5.66 -10 6 C-10 5.01 -10 4.02 -10 3 C-8.68 3 -7.36 3 -6 3 C-6 2.01 -6 1.02 -6 0 C-3 -1 -3 -1 0 0 Z " fill="#286E9C" transform="translate(128,327)"/>
<path d="M0 0 C0 3 0 3 -2 6 C-1.67 6.66 -1.34 7.32 -1 8 C-1.33 8.66 -1.66 9.32 -2 10 C-2.66 9.67 -3.32 9.34 -4 9 C-8.23110014 9.29180001 -10.24938816 12.0201705 -13 15 C-13.66 14.67 -14.32 14.34 -15 14 C-10.18808428 9.07559794 -5.29012124 4.40843437 0 0 Z " fill="#3E7DAA" transform="translate(207,156)"/>
<path d="M0 0 C-3.24132085 1.53985063 -6.49423568 3.05345772 -9.75 4.5625 C-10.67039062 5.00013672 -11.59078125 5.43777344 -12.5390625 5.88867188 C-13.42851562 6.29794922 -14.31796875 6.70722656 -15.234375 7.12890625 C-16.45979004 7.70233765 -16.45979004 7.70233765 -17.70996094 8.28735352 C-20.27193663 9.08462506 -21.51129794 8.90202956 -24 8 C-14.58997722 3.59225513 -14.58997722 3.59225513 -10 3 C-10 2.34 -10 1.68 -10 1 C-6.16112237 -0.48320272 -3.93795909 -1.22419163 0 0 Z " fill="#46A1DD" transform="translate(373,452)"/>
<path d="M0 0 C1.98 0.66 3.96 1.32 6 2 C6 2.66 6 3.32 6 4 C6.99 4.33 7.98 4.66 9 5 C9.33 5.66 9.66 6.32 10 7 C12.01669827 8.13350534 12.01669827 8.13350534 14 9 C14 9.99 14 10.98 14 12 C14.66 12 15.32 12 16 12 C15.67 12.66 15.34 13.32 15 14 C14.50371094 13.56429688 14.00742187 13.12859375 13.49609375 12.6796875 C12.81675781 12.08414062 12.13742187 11.48859375 11.4375 10.875 C10.71433594 10.24078125 9.99117188 9.6065625 9.24609375 8.953125 C7.18031672 7.15679714 5.09348924 5.38883961 3 3.625 C2.01 2.75875 1.02 1.8925 0 1 C0 0.67 0 0.34 0 0 Z " fill="#207FB6" transform="translate(279,411)"/>
<path d="M0 0 C2.31 0 4.62 0 7 0 C8.125 5.625 8.125 5.625 7 9 C4.5 6.6875 4.5 6.6875 2 4 C2 3.01 2 2.02 2 1 C1.34 0.67 0.68 0.34 0 0 Z " fill="#0A7FCE" transform="translate(256,386)"/>
<path d="M0 0 C1.32 0.33 2.64 0.66 4 1 C-2.93 6.445 -2.93 6.445 -10 12 C-10.66 11.67 -11.32 11.34 -12 11 C-11.67 10.01 -11.34 9.02 -11 8 C-9.35 7.67 -7.7 7.34 -6 7 C-6 6.34 -6 5.68 -6 5 C-5.01 4.67 -4.02 4.34 -3 4 C-2.67 3.34 -2.34 2.68 -2 2 C-1.34 2 -0.68 2 0 2 C0 1.34 0 0.68 0 0 Z " fill="#2973A1" transform="translate(146,309)"/>
<path d="M0 0 C2.97 0.495 2.97 0.495 6 1 C5.3125 3.375 5.3125 3.375 4 6 C1.375 7.3125 1.375 7.3125 -1 8 C-1 7.34 -1 6.68 -1 6 C-1.66 5.67 -2.32 5.34 -3 5 C-2.34 5 -1.68 5 -1 5 C-0.67 3.35 -0.34 1.7 0 0 Z " fill="#219DF0" transform="translate(377,440)"/>
<path d="M0 0 C0.99 0.33 1.98 0.66 3 1 C3 1.66 3 2.32 3 3 C4.32 3.33 5.64 3.66 7 4 C6.67 5.32 6.34 6.64 6 8 C5.01 8 4.02 8 3 8 C3 7.34 3 6.68 3 6 C1.35 6 -0.3 6 -2 6 C-2 5.34 -2 4.68 -2 4 C-1.34 4 -0.68 4 0 4 C0 2.68 0 1.36 0 0 Z " fill="#288FD1" transform="translate(146,192)"/>
<path d="M0 0 C0.66 0.33 1.32 0.66 2 1 C-0.66666667 3.66666667 -3.33333333 6.33333333 -6 9 C-6.70125 9.7115625 -7.4025 10.423125 -8.125 11.15625 C-9.97374456 12.97418215 -11.8924855 14.4946325 -14 16 C-14.66 15.67 -15.32 15.34 -16 15 C-15.32626343 14.37170288 -15.32626343 14.37170288 -14.63891602 13.73071289 C-12.61327169 11.84149326 -10.58788262 9.9520002 -8.5625 8.0625 C-7.85544922 7.40314453 -7.14839844 6.74378906 -6.41992188 6.06445312 C-5.74638672 5.43603516 -5.07285156 4.80761719 -4.37890625 4.16015625 C-3.7557251 3.57886963 -3.13254395 2.99758301 -2.49047852 2.39868164 C-1.65000401 1.609971 -0.81500364 0.81500364 0 0 Z " fill="#417CA3" transform="translate(177,183)"/>
<path d="M0 0 C0.99 0.99 1.98 1.98 3 3 C2.01 3.495 2.01 3.495 1 4 C0.01 3.67 -0.98 3.34 -2 3 C-2.33 3.99 -2.66 4.98 -3 6 C-4.98 6 -6.96 6 -9 6 C-9 4 -9 4 -7 2 C-3.99340864 0.933145 -3.14820941 0.95059686 0 2 C0 1.34 0 0.68 0 0 Z " fill="#249EEF" transform="translate(435,416)"/>
<path d="M0 0 C2.31 0 4.62 0 7 0 C7.33 0.99 7.66 1.98 8 3 C8.66 3.66 9.32 4.32 10 5 C9.67 5.99 9.34 6.98 9 8 C8.34 7.67 7.68 7.34 7 7 C7 6.34 7 5.68 7 5 C6.401875 4.896875 5.80375 4.79375 5.1875 4.6875 C2.70470535 3.90719311 1.64939723 2.97927667 0 1 C0 0.67 0 0.34 0 0 Z " fill="#0A7ECD" transform="translate(278,408)"/>
<path d="M0 0 C1.65 0.99 3.3 1.98 5 3 C4.67 3.99 4.34 4.98 4 6 C4.33 6.99 4.66 7.98 5 9 C2.20171644 8.61402985 1.1794116 8.19863427 -0.75 6.0625 C-2 4 -2 4 -2 2 C-1.34 2 -0.68 2 0 2 C0 1.34 0 0.68 0 0 Z " fill="#097ECB" transform="translate(267,392)"/>
<path d="M0 0 C6 4 6 4 12 8 C11.67 9.32 11.34 10.64 11 12 C11 11.34 11 10.68 11 10 C9.35 10 7.7 10 6 10 C6.33 8.68 6.66 7.36 7 6 C6.01 6 5.02 6 4 6 C3.67 5.34 3.34 4.68 3 4 C2.01 3.67 1.02 3.34 0 3 C0 2.01 0 1.02 0 0 Z " fill="#2482BA" transform="translate(339,336)"/>
<path d="M0 0 C3.44137432 1.5294997 6.2222133 3.45369552 9 6 C9 6.99 9 7.98 9 9 C7.68 9.33 6.36 9.66 5 10 C4.67 8.35 4.34 6.7 4 5 C3.34 5 2.68 5 2 5 C1.34 3.35 0.68 1.7 0 0 Z " fill="#1B82C6" transform="translate(312,316)"/>
<path d="M0 0 C2.31 0.33 4.62 0.66 7 1 C6.01 1.495 6.01 1.495 5 2 C4.7834375 2.928125 4.7834375 2.928125 4.5625 3.875 C3.90282543 6.36710392 2.91711371 7.3329446 1 9 C0.29925156 5.846632 0 3.27275026 0 0 Z " fill="#2C95D6" transform="translate(112,167)"/>
<path d="M0 0 C1.32 0.33 2.64 0.66 4 1 C0.4541332 3.954889 -3.63781033 6.45934985 -8 8 C-8.99 7.67 -9.98 7.34 -11 7 C-9.68 6.67 -8.36 6.34 -7 6 C-7 5.01 -7 4.02 -7 3 C-6.030625 2.87625 -5.06125 2.7525 -4.0625 2.625 C-2.5465625 2.315625 -2.5465625 2.315625 -1 2 C-0.67 1.34 -0.34 0.68 0 0 Z " fill="#43A1DF" transform="translate(433,419)"/>
<path d="M0 0 C2.01920337 1.30406884 4.01924973 2.63823419 6 4 C6 4.33 6 4.66 6 5 C4.35 5.33 2.7 5.66 1 6 C1 6.66 1 7.32 1 8 C0.01 7.67 -0.98 7.34 -2 7 C-2 6.34 -2 5.68 -2 5 C-2.66 5 -3.32 5 -4 5 C-4 4.34 -4 3.68 -4 3 C-2.68 3 -1.36 3 0 3 C0 2.01 0 1.02 0 0 Z " fill="#2186C5" transform="translate(276,288)"/>
<path d="M0 0 C3.58513106 1.62184501 6.58992323 3.79256239 9.75 6.125 C11.22726563 7.21167969 11.22726563 7.21167969 12.734375 8.3203125 C13.48203125 8.87460938 14.2296875 9.42890625 15 10 C13.15234375 10.640625 13.15234375 10.640625 11 11 C8.5625 8.75 8.5625 8.75 6 6 C5.0925 5.46375 4.185 4.9275 3.25 4.375 C1 3 1 3 0 0 Z " fill="#448FBC" transform="translate(101,156)"/>
<path d="M0 0 C2.49361571 1.20381448 4.68143083 2.45428722 7 4 C6.67 4.99 6.34 5.98 6 7 C3.69 6.34 1.38 5.68 -1 5 C-0.67 3.35 -0.34 1.7 0 0 Z " fill="#2B92D7" transform="translate(105,161)"/>
<path d="M0 0 C0.66 0.33 1.32 0.66 2 1 C-0.61086256 5.5096717 -2.89971655 9.11420473 -8.1875 10.625 C-8.785625 10.74875 -9.38375 10.8725 -10 11 C-6.79239749 7.19364503 -3.59253891 3.45436433 0 0 Z " fill="#4384AE" transform="translate(279,90)"/>
<path d="M0 0 C0.66 1.32 1.32 2.64 2 4 C1.01 4.33 0.02 4.66 -1 5 C-1 8.96 -1 12.92 -1 17 C-3.50552308 13.24171538 -3.37195709 11.46348506 -3 7 C-2.17213056 4.53553318 -1.14821479 2.34427186 0 0 Z " fill="#2E749F" transform="translate(38,311)"/>
<path d="M0 0 C0.66 1.32 1.32 2.64 2 4 C0 6 0 6 -2.4375 6.125 C-3.283125 6.08375 -4.12875 6.0425 -5 6 C-5.99 6 -6.98 6 -8 6 C-7.0479279 4.99403703 -6.08812654 3.99538437 -5.125 3 C-4.59132813 2.443125 -4.05765625 1.88625 -3.5078125 1.3125 C-2 0 -2 0 0 0 Z " fill="#3D8BBF" transform="translate(318,58)"/>
<path d="M0 0 C1.98 0.66 3.96 1.32 6 2 C6.33 1.34 6.66 0.68 7 0 C7.99 2.97 8.98 5.94 10 9 C8.70391053 8.06862408 7.41328368 7.1296434 6.125 6.1875 C5.40570313 5.66542969 4.68640625 5.14335937 3.9453125 4.60546875 C2 3 2 3 0 0 Z " fill="#3D8EC5" transform="translate(48,200)"/>
<path d="M0 0 C4.875 2.75 4.875 2.75 6 5 C5.34 5.66 4.68 6.32 4 7 C1.5 5.6875 1.5 5.6875 -1 4 C-1 1 -1 1 0 0 Z " fill="#047BCF" transform="translate(314,437)"/>
<path d="M0 0 C0.99 1.32 1.98 2.64 3 4 C1.71034824 5.37562854 0.37310707 6.70766393 -1 8 C-1.66 8 -2.32 8 -3 8 C-3.75 6.25 -3.75 6.25 -4 4 C-2.0625 1.75 -2.0625 1.75 0 0 Z M-6 5 C-4 6 -4 6 -4 6 Z " fill="#297AAF" transform="translate(265,216)"/>
<path d="M0 0 C0.66 0.33 1.32 0.66 2 1 C0.11788404 4.48191452 -1.5009599 7.03178994 -5 9 C-5.99 8.67 -6.98 8.34 -8 8 C-5.36 5.36 -2.72 2.72 0 0 Z " fill="#4D88B0" transform="translate(324,49)"/>
<path d="M0 0 C3.59265709 1.65814943 6.84150442 3.61358111 10 6 C10.67578125 8.1328125 10.67578125 8.1328125 11 10 C9.72390677 9.09066991 8.45434447 8.17217147 7.1875 7.25 C6.47980469 6.73953125 5.77210937 6.2290625 5.04296875 5.703125 C2.97022309 3.97517642 1.52624146 2.21473524 0 0 Z " fill="#368BBF" transform="translate(92,240)"/>
<path d="M0 0 C0.99 0 1.98 0 3 0 C3.33 0.99 3.66 1.98 4 3 C2.68 3.33 1.36 3.66 0 4 C0 4.66 0 5.32 0 6 C-1.32 5.67 -2.64 5.34 -4 5 C-4 4.34 -4 3.68 -4 3 C-2.68 2.67 -1.36 2.34 0 2 C0 1.34 0 0.68 0 0 Z " fill="#55B1F0" transform="translate(350,43)"/>
<path d="M0 0 C0.86625 0.4640625 0.86625 0.4640625 1.75 0.9375 C3.90836595 2.04613432 3.90836595 2.04613432 6 2.5 C8.19929074 3.04982269 10.00722558 3.93244227 12 5 C11.01 5 10.02 5 9 5 C8.67 5.99 8.34 6.98 8 8 C6.66372225 6.85760183 5.33104612 5.71098945 4 4.5625 C3.2575 3.92441406 2.515 3.28632813 1.75 2.62890625 C1.1725 2.09136719 0.595 1.55382812 0 1 C0 0.67 0 0.34 0 0 Z " fill="#3B8AC0" transform="translate(83,232)"/>
<path d="M0 0 C2.97 0.33 5.94 0.66 9 1 C8.67 1.99 8.34 2.98 8 4 C2.25 3.125 2.25 3.125 0 2 C0 1.34 0 0.68 0 0 Z " fill="#309BDA" transform="translate(332,457)"/>
<path d="M0 0 C-3.55991828 2.96659857 -7.65222543 5.381348 -12 7 C-12.66 6.67 -13.32 6.34 -14 6 C-12.61447798 4.98576166 -11.21605712 3.98912998 -9.8125 3 C-9.03519531 2.443125 -8.25789063 1.88625 -7.45703125 1.3125 C-4.71663363 -0.151369 -3.05899163 -0.26080213 0 0 Z " fill="#4BA1D9" transform="translate(387,444)"/>
<path d="M0 0 C2.31 0 4.62 0 7 0 C3.8745041 2.64465038 0.91211733 3.84414715 -3 5 C-3 4.01 -3 3.02 -3 2 C-2.01 2 -1.02 2 0 2 C0 1.34 0 0.68 0 0 Z " fill="#3EA0E0" transform="translate(440,415)"/>
<path d="M0 0 C3.36591866 1.44253657 5.51047079 3.33264727 8 6 C5.36 5.67 2.72 5.34 0 5 C0 3.35 0 1.7 0 0 Z " fill="#2684BE" transform="translate(304,310)"/>
<path d="M0 0 C1.32 0 2.64 0 4 0 C4.12375 0.639375 4.2475 1.27875 4.375 1.9375 C4.684375 2.9584375 4.684375 2.9584375 5 4 C5.66 4.33 6.32 4.66 7 5 C5.02 5.33 3.04 5.66 1 6 C1 4.68 1 3.36 1 2 C0.34 1.67 -0.32 1.34 -1 1 C-0.67 0.67 -0.34 0.34 0 0 Z " fill="#2692D2" transform="translate(136,185)"/>
<path d="M0 0 C0.99 0.33 1.98 0.66 3 1 C2.34 2.65 1.68 4.3 1 6 C-0.32 6 -1.64 6 -3 6 C-2.67 4.68 -2.34 3.36 -2 2 C-1.34 2 -0.68 2 0 2 C0 1.34 0 0.68 0 0 Z " fill="#077FD0" transform="translate(278,401)"/>
<path d="M0 0 C2.1875 0.3125 2.1875 0.3125 4 1 C4 1.99 4 2.98 4 4 C2.1875 4.625 2.1875 4.625 0 5 C-0.99 4.34 -1.98 3.68 -3 3 C-1.75 1.4375 -1.75 1.4375 0 0 Z " fill="#0A80D1" transform="translate(251,376)"/>
<path d="M0 0 C0.99 0.33 1.98 0.66 3 1 C-1.455 4.465 -1.455 4.465 -6 8 C-6.66 7.67 -7.32 7.34 -8 7 C-6.625 5.5 -6.625 5.5 -5 4 C-4.34 4 -3.68 4 -3 4 C-2.67 3.01 -2.34 2.02 -2 1 C-1.34 0.67 -0.68 0.34 0 0 Z " fill="#3C789E" transform="translate(287,203)"/>
<path d="M0 0 C2.97 0.495 2.97 0.495 6 1 C6 2.98 6 4.96 6 7 C3 5.1875 3 5.1875 0 3 C0 2.01 0 1.02 0 0 Z " fill="#3494CA" transform="translate(42,193)"/>
<path d="M0 0 C0.66 0.33 1.32 0.66 2 1 C2.625 3.0625 2.625 3.0625 3 5 C1.02 5.99 1.02 5.99 -1 7 C-1.5534764 4.92446352 -2 3.15634036 -2 1 C-1.34 0.67 -0.68 0.34 0 0 Z " fill="#50B3F6" transform="translate(402,67)"/>
<path d="M0 0 C-5.445 2.475 -5.445 2.475 -11 5 C-10.67 3.68 -10.34 2.36 -10 1 C-8.71073008 0.63720544 -7.41846728 0.28503302 -6.125 -0.0625 C-5.40570313 -0.25972656 -4.68640625 -0.45695312 -3.9453125 -0.66015625 C-2 -1 -2 -1 0 0 Z " fill="#47A1DB" transform="translate(422,428)"/>
<path d="M0 0 C1.11375 0.598125 2.2275 1.19625 3.375 1.8125 C4.00148438 2.14894531 4.62796875 2.48539062 5.2734375 2.83203125 C7 4 7 4 9 7 C5.625 6.3125 5.625 6.3125 2 5 C0.5625 2.375 0.5625 2.375 0 0 Z " fill="#3287BA" transform="translate(266,281)"/>
<path d="M0 0 C0 1.65 0 3.3 0 5 C-1.875 4.6875 -1.875 4.6875 -4 4 C-4.66 3.01 -5.32 2.02 -6 1 C-3 0 -3 0 0 0 Z " fill="#318ECA" transform="translate(64,208)"/>
<path d="M0 0 C-1.13304992 3.39914975 -2.12518475 4.05254451 -5 6 C-5.66 5.67 -6.32 5.34 -7 5 C-6.67 3.68 -6.34 2.36 -6 1 C-3.92446352 0.4465236 -2.15634036 0 0 0 Z " fill="#237EBB" transform="translate(287,200)"/>
<path d="M0 0 C0.99 0.33 1.98 0.66 3 1 C0.36 2.98 -2.28 4.96 -5 7 C-5.66 6.67 -6.32 6.34 -7 6 C-6.67 5.01 -6.34 4.02 -6 3 C-5.34 3 -4.68 3 -4 3 C-3.67 2.34 -3.34 1.68 -3 1 C-2.34 1 -1.68 1 -1 1 C-0.67 0.67 -0.34 0.34 0 0 Z " fill="#3C7DA5" transform="translate(323,176)"/>
<path d="M0 0 C1.65 0.99 3.3 1.98 5 3 C4.01 4.485 4.01 4.485 3 6 C1.68 5.34 0.36 4.68 -1 4 C-0.67 2.68 -0.34 1.36 0 0 Z " fill="#2D94D8" transform="translate(97,154)"/>
<path d="M0 0 C0.66 0.33 1.32 0.66 2 1 C0.86695008 4.39914975 -0.12518475 5.05254451 -3 7 C-3.66 6.67 -4.32 6.34 -5 6 C-5 5.34 -5 4.68 -5 4 C-3.37373596 2.61767557 -1.7074998 1.28062485 0 0 Z " fill="#3B8BBF" transform="translate(301,72)"/>
<path d="M0 0 C0.99 0 1.98 0 3 0 C3 0.66 3 1.32 3 2 C4.32 2.33 5.64 2.66 7 3 C4.36 3.33 1.72 3.66 -1 4 C-0.67 2.68 -0.34 1.36 0 0 Z " fill="#269DEA" transform="translate(413,425)"/>
<path d="M0 0 C2.7839183 1.39195915 2.97898997 3.15575779 4 6 C3.01 6 2.02 6 1 6 C-1.1875 3.5 -1.1875 3.5 -3 1 C-2.01 0.67 -1.02 0.34 0 0 Z " fill="#077CCB" transform="translate(300,424)"/>
<path d="M0 0 C-0.33 1.65 -0.66 3.3 -1 5 C-2.32 4.67 -3.64 4.34 -5 4 C-5 3.34 -5 2.68 -5 2 C-5.66 1.67 -6.32 1.34 -7 1 C-4.53721199 -0.231394 -2.7204945 -0.07159196 0 0 Z " fill="#1180CE" transform="translate(352,346)"/>
<path d="M0 0 C2.97 0.495 2.97 0.495 6 1 C6 1.66 6 2.32 6 3 C6.99 3 7.98 3 9 3 C9 3.66 9 4.32 9 5 C5.22454612 3.90931332 2.52956528 3.0916909 0 0 Z " fill="#2780C0" transform="translate(188,328)"/>
<path d="M0 0 C0.99 0.33 1.98 0.66 3 1 C2.67 2.32 2.34 3.64 2 5 C0.02 5 -1.96 5 -4 5 C-2.68 3.35 -1.36 1.7 0 0 Z " fill="#2778B9" transform="translate(311,182)"/>
<path d="M0 0 C1.32 0.66 2.64 1.32 4 2 C3.34 3.65 2.68 5.3 2 7 C1.01 6.67 0.02 6.34 -1 6 C-0.67 4.02 -0.34 2.04 0 0 Z " fill="#51B3F2" transform="translate(433,81)"/>
<path d="M0 0 C0.763125 0.20625 1.52625 0.4125 2.3125 0.625 C2.3125 0.955 2.3125 1.285 2.3125 1.625 C-0.3275 2.285 -2.9675 2.945 -5.6875 3.625 C-5.6875 4.285 -5.6875 4.945 -5.6875 5.625 C-6.3475 5.625 -7.0075 5.625 -7.6875 5.625 C-6.02612914 1.79106724 -4.59035464 -0.6405146 0 0 Z " fill="#5596BF" transform="translate(334.6875,43.375)"/>
<path d="M0 0 C1.98 0.99 1.98 0.99 4 2 C4 3.32 4 4.64 4 6 C4.66 6.33 5.32 6.66 6 7 C4.125 6.6875 4.125 6.6875 2 6 C0 3 0 3 0 0 Z " fill="#0675CC" transform="translate(324,448)"/>
<path d="M0 0 C1.0625 1.8125 1.0625 1.8125 2 4 C1.67 4.99 1.34 5.98 1 7 C-0.32 5.35 -1.64 3.7 -3 2 C-2.01 1.34 -1.02 0.68 0 0 Z " fill="#1A7DC1" transform="translate(273,400)"/>
<path d="M0 0 C1.65 0 3.3 0 5 0 C5.66 1.98 6.32 3.96 7 6 C3.63279613 4.60667426 2.0140476 3.0210714 0 0 Z " fill="#3384B9" transform="translate(207,345)"/>
<path d="M0 0 C2.88437779 1.29299694 4.87219421 2.65941363 7 5 C6.01 5.495 6.01 5.495 5 6 C4.01 5.67 3.02 5.34 2 5 C0.8125 2.4375 0.8125 2.4375 0 0 Z " fill="#2A84BA" transform="translate(312,316)"/>
<path d="M0 0 C1.11375 0.598125 2.2275 1.19625 3.375 1.8125 C4.00148438 2.14894531 4.62796875 2.48539063 5.2734375 2.83203125 C7 4 7 4 9 7 C5.56072421 5.7580393 2.74792181 4.44259716 0 2 C0 1.34 0 0.68 0 0 Z " fill="#4390BB" transform="translate(92,149)"/>
<path d="M0 0 C2.475 0.99 2.475 0.99 5 2 C5 2.66 5 3.32 5 4 C3.125 4.625 3.125 4.625 1 5 C0.34 4.34 -0.32 3.68 -1 3 C-0.67 2.01 -0.34 1.02 0 0 Z " fill="#3A89BC" transform="translate(273,98)"/>
<path d="M0 0 C-0.99 1.485 -0.99 1.485 -2 3 C-2.66 2.67 -3.32 2.34 -4 2 C-4.99 2.33 -5.98 2.66 -7 3 C-7 2.01 -7 1.02 -7 0 C-4.3333581 -1.33332095 -2.83319697 -0.67102033 0 0 Z " fill="#56B4F7" transform="translate(392,61)"/>
<path d="M0 0 C5.75 0.75 5.75 0.75 8 3 C5.69 3.33 3.38 3.66 1 4 C0.67 2.68 0.34 1.36 0 0 Z " fill="#4193CB" transform="translate(338,44)"/>
</svg>
