<?xml version="1.0" encoding="UTF-8"?>
<svg version="1.1" xmlns="http://www.w3.org/2000/svg" width="467" height="378">
<path d="M0 0 C1.08277554 -0.00467997 2.16555108 -0.00935994 3.281138 -0.01418173 C6.89214662 -0.0261023 10.50277367 -0.01668568 14.11378479 -0.00723267 C16.70969361 -0.01129968 19.3056007 -0.01664229 21.90150452 -0.02316284 C28.21029489 -0.03647281 34.51897793 -0.03363457 40.82777243 -0.02492492 C45.95762974 -0.01813737 51.08745706 -0.01723628 56.21731758 -0.02049637 C56.94868167 -0.02095607 57.68004576 -0.02141577 58.4335724 -0.0218894 C59.91954629 -0.02284862 61.40552017 -0.02382126 62.89149404 -0.02480717 C76.81188974 -0.0333532 90.73222608 -0.02353962 104.65261204 -0.00740607 C116.58322148 0.00599359 128.51374333 0.00367041 140.4443512 -0.01016235 C154.31491237 -0.02623695 168.18542156 -0.03252635 182.05599076 -0.02332556 C183.53666658 -0.02236997 185.01734242 -0.02142685 186.49801826 -0.02049637 C187.59065908 -0.01980213 187.59065908 -0.01980213 188.70537345 -0.01909386 C193.82540939 -0.0165094 198.94541222 -0.02086328 204.06544304 -0.02793503 C210.96427563 -0.03725459 217.86294051 -0.03056664 224.7617569 -0.01325226 C227.29088886 -0.00929193 229.82003476 -0.01041365 232.34916115 -0.01704025 C235.80701644 -0.02526356 239.26434597 -0.0149239 242.72216797 0 C243.71800178 -0.00669217 244.71383558 -0.01338433 245.73984617 -0.02027929 C257.90668132 0.08125474 268.45239039 4.0188367 277.22145081 12.63876343 C285.24485644 22.01951212 289.0100862 32.55624656 289.17066956 44.74813843 C289.20177911 46.44467873 289.23328858 48.14121173 289.26515198 49.83773804 C289.28815872 51.16537674 289.28815872 51.16537674 289.31163025 52.51983643 C289.62492849 104.50078705 289.62492849 104.50078705 313.53395081 149.04501343 C319.67173604 154.76047399 326.96961455 157.22648225 334.92457581 159.38095093 C335.92457581 160.38095093 335.92457581 160.38095093 336.0381012 162.33041382 C336.03286438 163.16306763 336.02762756 163.99572144 336.02223206 164.85360718 C336.0190094 165.75272827 336.01578674 166.65184937 336.01246643 167.57821655 C336.00408752 168.5237439 335.99570862 169.46927124 335.98707581 170.44345093 C335.98256409 171.39284546 335.97805237 172.34223999 335.97340393 173.32040405 C335.96157691 175.67398158 335.94509606 178.0274357 335.92457581 180.38095093 C334.72832581 180.82052124 333.53207581 181.26009155 332.29957581 181.71298218 C316.63307169 187.60515989 307.84493483 195.16745584 300.80445862 210.34140015 C298.28538105 216.18057163 296.51936448 222.23456617 294.92457581 228.38095093 C294.62809143 229.52048218 294.33160706 230.66001343 294.02613831 231.83407593 C289.88271583 249.47438944 289.58221911 267.47072388 289.54371643 285.49960327 C289.48306442 302.49732982 287.62565813 316.01376364 275.73707581 329.06845093 C265.76436236 338.53482352 254.21356114 340.68999751 240.97650146 340.64837646 C239.90738771 340.65290758 238.83827396 340.65743869 237.73676282 340.66210711 C234.17196257 340.67471752 230.60731575 340.6731329 227.04249573 340.67147827 C224.47938847 340.67746557 221.91628302 340.68427158 219.35317993 340.6918335 C213.12395186 340.70764805 206.89477953 340.71394093 200.66553327 340.71505825 C195.59910243 340.71601082 190.532684 340.72013148 185.4662571 340.7264595 C171.08177964 340.74405854 156.69733194 340.75330035 142.31284364 340.75179856 C141.53849211 340.75171864 140.76414058 340.75163873 139.96632385 340.7515564 C139.19102002 340.75147464 138.41571619 340.75139287 137.6169183 340.75130863 C125.05461829 340.75049588 112.49243821 340.76963433 99.93017288 340.79783313 C87.01151972 340.82660168 74.09292497 340.84037128 61.17423898 340.83864558 C53.92930137 340.8379831 46.68448956 340.84341306 39.43958092 340.86500168 C32.62443721 340.88518065 25.80956272 340.88449933 18.99440575 340.86996841 C16.49835827 340.86788093 14.00229414 340.87257753 11.50627518 340.88468933 C-5.70494537 340.96277326 -19.959967 340.69094021 -33.23167419 328.38095093 C-43.41958844 317.73686141 -46.32860627 304.93724251 -46.41917419 290.59579468 C-46.433797 289.69583267 -46.4484198 288.79587067 -46.46348572 287.86863708 C-46.50947537 285.01861961 -46.54390871 282.16866271 -46.57542419 279.31845093 C-46.76284306 262.59059627 -47.26816643 246.15282867 -51.26292419 229.81845093 C-51.47505554 228.94422485 -51.68718689 228.06999878 -51.90574646 227.16928101 C-54.82377937 215.76223606 -59.02242228 204.19795559 -67.07542419 195.38095093 C-67.61940857 194.75833374 -68.16339294 194.13571655 -68.72386169 193.49423218 C-75.48638139 186.19621884 -82.39040407 184.28645697 -92.07542419 181.38095093 C-92.07542419 174.12095093 -92.07542419 166.86095093 -92.07542419 159.38095093 C-89.38386169 158.57657593 -89.38386169 158.57657593 -86.63792419 157.75595093 C-81.43884337 156.04136044 -77.31211539 153.88466233 -72.91526794 150.65048218 C-71.07542419 149.38095093 -71.07542419 149.38095093 -68.07542419 148.38095093 C-67.03020873 146.56790746 -67.03020873 146.56790746 -66.07542419 144.38095093 C-65.00040868 142.77119832 -63.91610792 141.1676291 -62.82542419 139.56845093 C-50.58248855 120.1880362 -47.05907716 96.06027467 -46.86448669 73.45516968 C-46.83641898 71.58732236 -46.80775452 69.71948393 -46.77854919 67.85165405 C-46.73743865 64.96241507 -46.70046891 62.07334231 -46.67405701 59.18392944 C-46.50207456 41.79442889 -45.86031238 25.43145427 -33.26292419 12.00595093 C-23.74155441 3.15433529 -12.76146116 -0.08556742 0 0 Z " fill="#7C11F7" transform="translate(113.07542419433594,18.619049072265625)"/>
<path d="M0 0 C27.39 0 54.78 0 83 0 C83 0.66 83 1.32 83 2 C83.928125 1.938125 84.85625 1.87625 85.8125 1.8125 C91.08376961 1.7799613 95.99975875 3.48093937 101 5 C101 5.66 101 6.32 101 7 C102.06927734 7.13728516 102.06927734 7.13728516 103.16015625 7.27734375 C110.54496147 9.15655828 117.59964047 15.49732354 121.78515625 21.76953125 C128.50919527 34.11495337 129.030974 48.88499522 125.1015625 62.2890625 C120.79332007 72.89161656 112.21885461 81.08708913 102 86 C100.68 86 99.36 86 98 86 C98 86.66 98 87.32 98 88 C100.97 88.33 103.94 88.66 107 89 C107 89.66 107 90.32 107 91 C107.86625 91.103125 108.7325 91.20625 109.625 91.3125 C113.16683123 92.03398414 115.84312042 93.27123261 119 95 C119 95.66 119 96.32 119 97 C119.86625 97.37125 119.86625 97.37125 120.75 97.75 C123.32939979 99.18299988 125.06121592 100.78424676 127 103 C127 103.66 127 104.32 127 105 C127.66 105 128.32 105 129 105 C129.80411238 106.32586469 130.59254807 107.66123831 131.375 109 C131.81585938 109.7425 132.25671875 110.485 132.7109375 111.25 C136.03648173 118.34449436 136.33899819 125.16932727 136.3125 132.875 C136.32861328 133.80441406 136.34472656 134.73382813 136.36132812 135.69140625 C136.36878555 146.38535959 133.51574417 154.57828985 127 163 C126.40058594 163.77601563 125.80117188 164.55203125 125.18359375 165.3515625 C115.01962253 177.63046107 102.55619929 181.08321263 87 184 C58.29 184 29.58 184 0 184 C0 123.28 0 62.56 0 0 Z " fill="#F5ECFC" transform="translate(171,98)"/>
<path d="M0 0 C7.280625 -0.061875 14.56125 -0.12375 22.0625 -0.1875 C25.45994507 -0.22846802 25.45994507 -0.22846802 28.92602539 -0.27026367 C60.06746109 -0.49109274 60.06746109 -0.49109274 71.58203125 10.51171875 C77.76608487 17.30170269 77.51797323 25.24280867 77.30859375 33.8515625 C76.93556923 40.75174227 74.82223292 45.60008223 69.75 50.3125 C63.02834655 55.52757595 56.52064464 58.16076688 48 58 C48 58.66 48 59.32 48 60 C32.16 60 16.32 60 0 60 C0 40.2 0 20.4 0 0 Z " fill="#7711F1" transform="translate(200,199)"/>
<path d="M0 0 C10.704375 -0.0309375 10.704375 -0.0309375 21.625 -0.0625 C24.98872803 -0.07615601 24.98872803 -0.07615601 28.42041016 -0.09008789 C30.20996033 -0.09301019 31.99951117 -0.095558 33.7890625 -0.09765625 C34.70840576 -0.10277222 35.62774902 -0.10788818 36.57495117 -0.11315918 C41.16886247 -0.11378116 45.47976077 0.05474013 50 1 C50 1.66 50 2.32 50 3 C51.485 3.061875 51.485 3.061875 53 3.125 C58.58357021 3.94045042 63.01572973 7.3543063 66.359375 11.8125 C70.38629984 18.58240263 71.11303214 25.81130608 69.46875 33.4765625 C67.1523199 41.00496031 62.95313597 46.20884698 56 50 C55.01 50 54.02 50 53 50 C53 50.66 53 51.32 53 52 C40.83980745 54.5913568 29.35031774 55.38406866 16.9375 55.1875 C11.348125 55.125625 5.75875 55.06375 0 55 C0 36.85 0 18.7 0 0 Z " fill="#7B11F2" transform="translate(200,122)"/>
<path d="M0 0 C0.33 0 0.66 0 1 0 C1 60.72 1 121.44 1 184 C48.87008646 187.65205781 48.87008646 187.65205781 110 177 C110.66 177.33 111.32 177.66 112 178 C109.39878001 181.90182998 107.46100304 181.92320616 103 183 C101.8553125 183.2165625 101.8553125 183.2165625 100.6875 183.4375 C98.59436067 183.94335667 98.59436067 183.94335667 97 187 C93.92254305 187.31584395 91.04236828 187.43733984 87.96044922 187.43237305 C86.55549698 187.44766052 86.55549698 187.44766052 85.12216187 187.46325684 C82.01627736 187.49352896 78.91070051 187.50267446 75.8046875 187.51171875 C73.65519168 187.52855489 71.50570578 187.54670367 69.35623169 187.56611633 C63.69109188 187.61373802 58.02599223 187.6434686 52.36071777 187.66955566 C46.58284571 187.69929992 40.80511222 187.7458512 35.02734375 187.79101562 C23.68496814 187.87718713 12.3425641 187.94447069 1 188 C-1.35384391 184.32740357 -1.27824904 180.79692155 -1.24723816 176.57832336 C-1.24965257 175.82832115 -1.25206699 175.07831893 -1.25455457 174.30558938 C-1.26019253 171.79128429 -1.25152786 169.27723315 -1.24291992 166.76293945 C-1.24399275 164.96103852 -1.24593145 163.15913793 -1.24867249 161.35723877 C-1.25352274 156.46290245 -1.24586363 151.56865721 -1.23571944 146.6743319 C-1.22694532 141.55919003 -1.22869624 136.44405106 -1.2290802 131.3289032 C-1.22814349 122.74163282 -1.21945726 114.15439776 -1.20581055 105.56713867 C-1.19006997 95.62527844 -1.18481295 85.68345687 -1.1855461 75.74158508 C-1.18615541 66.19052804 -1.18105983 56.63948365 -1.17275429 47.0884304 C-1.16921502 43.01706023 -1.16739013 38.94569453 -1.16686058 34.87432289 C-1.16585957 30.08666686 -1.15978294 25.29904356 -1.14969444 20.51139832 C-1.14676208 18.74929187 -1.14554555 16.98718165 -1.14612198 15.22507286 C-1.14660913 12.83025513 -1.14099226 10.43553053 -1.13371277 8.04072571 C-1.13526137 7.33432349 -1.13680997 6.62792127 -1.1384055 5.90011293 C-1.11417892 1.11417892 -1.11417892 1.11417892 0 0 Z " fill="#7623D3" transform="translate(170,98)"/>
<path d="M0 0 C0 3.72913872 -0.75548689 4.2144927 -3.3125 6.8125 C-13.69753474 16.77552803 -25.00884314 19.31125441 -38.94807434 19.26742554 C-40.01718809 19.27195665 -41.08630185 19.27648776 -42.18781298 19.28115618 C-45.75261324 19.29376659 -49.31726006 19.29218197 -52.88208008 19.29052734 C-55.44518733 19.29651464 -58.00829278 19.30332065 -60.57139587 19.31088257 C-66.80062394 19.32669712 -73.02979628 19.33299 -79.25904254 19.33410732 C-84.32547338 19.33505989 -89.3918918 19.33918056 -94.45831871 19.34550858 C-108.84279617 19.36310761 -123.22724386 19.37234942 -137.61173216 19.37084763 C-138.38608369 19.37076772 -139.16043522 19.3706878 -139.95825195 19.37060547 C-140.73355578 19.37052371 -141.50885962 19.37044195 -142.3076575 19.37035771 C-154.86995752 19.36954495 -167.43213759 19.38868341 -179.99440292 19.4168822 C-192.91305609 19.44565075 -205.83165083 19.45942035 -218.75033683 19.45769465 C-225.99527443 19.45703217 -233.24008625 19.46246214 -240.48499489 19.48405075 C-247.3001386 19.50422972 -254.11501308 19.5035484 -260.93017006 19.48901749 C-263.42621753 19.48693 -265.92228167 19.49162661 -268.41830063 19.5037384 C-296.90048453 19.63295648 -296.90048453 19.63295648 -308 11 C-305 10 -305 10 -303.0625 10.5 C-300.68227266 11.07702481 -299.30293321 10.74022853 -297 10 C-296.79375 10.61875 -296.5875 11.2375 -296.375 11.875 C-294.35795692 14.9922484 -292.60496069 15.1118929 -289 16 C-285.43217849 16.2813035 -281.87807683 16.26554413 -278.30070496 16.24723816 C-277.2223097 16.24965257 -276.14391445 16.25206699 -275.03284055 16.25455457 C-271.41921166 16.26019056 -267.80575962 16.25152915 -264.19213867 16.24291992 C-261.60177564 16.2439928 -259.01141283 16.24593156 -256.42105103 16.24867249 C-250.11688958 16.25370866 -243.81278068 16.24808084 -237.50862577 16.23882218 C-230.17098827 16.22843307 -222.8333621 16.22850848 -215.49571864 16.22899476 C-202.40932542 16.22949514 -189.32295666 16.22033888 -176.23657227 16.20581055 C-163.5282344 16.19170916 -150.81991806 16.18464041 -138.11157227 16.18530273 C-137.32813417 16.18534269 -136.54469608 16.18538265 -135.73751744 16.18542381 C-134.95545213 16.18546417 -134.17338682 16.18550452 -133.36762255 16.1855461 C-118.90774152 16.18623509 -104.44786966 16.18035266 -89.9879916 16.17139288 C-84.86828283 16.16837176 -79.74857575 16.16731278 -74.6288662 16.16686058 C-67.74820957 16.16610909 -60.86757618 16.15978555 -53.98692703 16.14969444 C-51.45401588 16.14676119 -48.9211021 16.14554573 -46.38818932 16.14612198 C-42.94689385 16.14660884 -39.5056633 16.1409951 -36.06437683 16.13371277 C-35.04806299 16.13526137 -34.03174915 16.13680997 -32.98463792 16.1384055 C-32.07021402 16.13518106 -31.15579013 16.13195661 -30.21365643 16.12863445 C-29.0207073 16.12757782 -29.0207073 16.12757782 -27.80365819 16.12649983 C-25.97796062 16.1965948 -25.97796062 16.1965948 -25 15 C-22.66702567 14.95907063 -20.33294775 14.95758277 -18 15 C-18 14.34 -18 13.68 -18 13 C-17.38125 12.896875 -16.7625 12.79375 -16.125 12.6875 C-13.63473516 12.12474627 -13.63473516 12.12474627 -12 9 C-11.154375 8.67 -10.30875 8.34 -9.4375 8 C-8.633125 7.67 -7.82875 7.34 -7 7 C-6.67 6.01 -6.34 5.02 -6 4 C-3.5 2.375 -3.5 2.375 -1 1 C-0.67 0.67 -0.34 0.34 0 0 Z " fill="#7432C6" transform="translate(393,340)"/>
<path d="M0 0 C33.46180958 -0.06870421 66.92360158 -0.12154812 100.38546606 -0.15319599 C104.33819494 -0.156948 108.29092367 -0.16083097 112.24365234 -0.16479492 C113.03055154 -0.16558185 113.81745073 -0.16636878 114.62819536 -0.16717956 C127.36051845 -0.18022455 140.09280081 -0.20387339 152.82509975 -0.23145839 C165.89486892 -0.25953784 178.96461679 -0.27618163 192.03441489 -0.28226548 C200.09567071 -0.28637666 208.15681136 -0.29934975 216.21803172 -0.3237494 C222.40502362 -0.34151937 228.59192818 -0.34335921 234.77894211 -0.33932304 C237.3129141 -0.34014751 239.84689051 -0.34610343 242.38083649 -0.35761642 C245.84571473 -0.37258526 249.31010387 -0.36893716 252.7749939 -0.36076355 C253.77307583 -0.36950207 254.77115777 -0.3782406 255.79948461 -0.38724393 C267.78302662 -0.31105724 278.27350331 3.55863419 287.02734375 11.94140625 C291 16.41882353 291 16.41882353 291 19 C290.01 18.67 289.02 18.34 288 18 C288 17.34 288 16.68 288 16 C287.34 16 286.68 16 286 16 C286 15.34 286 14.68 286 14 C284.35 13.34 282.7 12.68 281 12 C281 11.34 281 10.68 281 10 C278.69 10 276.38 10 274 10 C274 9.01 274 8.02 274 7 C271.03 6.01 268.06 5.02 265 4 C265 3.34 265 2.68 265 2 C177.55 2 90.1 2 0 2 C0 1.34 0 0.68 0 0 Z " fill="#7425BF" transform="translate(103,19)"/>
<path d="M0 0 C0.99 0 1.98 0 3 0 C3 1.32 3 2.64 3 4 C3.66 4 4.32 4 5 4 C9.30769231 21.38461538 9.30769231 21.38461538 6 28 C5.34 28 4.68 28 4 28 C4.33 28.66 4.66 29.32 5 30 C5.68651774 35.72098121 4.37014557 38.46879736 1.24609375 43 C-0.55898205 45.89717495 -1.24107024 48.6883065 -2 52 C-4.97 52.495 -4.97 52.495 -8 53 C-9.91149096 57.90650483 -9.91149096 57.90650483 -9.375 62.9375 C-7.36064774 65.95902839 -5.38784814 66.74524143 -2 68 C0.72423367 68.23028594 3.25726355 68.14186568 6 68 C5.835 68.721875 5.67 69.44375 5.5 70.1875 C5.02412881 72.86427545 4.922557 75.28949487 5 78 C5.66 78 6.32 78 7 78 C7.33 79.32 7.66 80.64 8 82 C7.01 81.505 7.01 81.505 6 81 C6 80.34 6 79.68 6 79 C5.34 79 4.68 79 4 79 C2.5625 77.50390625 2.5625 77.50390625 1 75.5625 C-1.14525044 72.84811762 -1.14525044 72.84811762 -4 71 C-4 70.34 -4 69.68 -4 69 C-4.86625 68.71125 -5.7325 68.4225 -6.625 68.125 C-9.75 67.08333333 -12.875 66.04166667 -16 65 C-16 64.34 -16 63.68 -16 63 C-18.97 62.67 -21.94 62.34 -25 62 C-25 61.34 -25 60.68 -25 60 C-24.030625 59.62875 -23.06125 59.2575 -22.0625 58.875 C-14.71021496 55.69845494 -8.72003013 51.47318418 -4 45 C-3.29875 44.13375 -2.5975 43.2675 -1.875 42.375 C3.93910707 31.90960727 4.71035449 18.32569111 2.3203125 6.69140625 C1.63972541 4.40657815 0.90916224 2.20255376 0 0 Z " fill="#761DE2" transform="translate(294,124)"/>
<path d="M0 0 C0.33 0.66 0.66 1.32 1 2 C2.485 1.505 2.485 1.505 4 1 C4.99 1.33 5.98 1.66 7 2 C7.33 1.34 7.66 0.68 8 0 C8.33 0.99 8.66 1.98 9 3 C7.865625 3.144375 6.73125 3.28875 5.5625 3.4375 C2.19222799 3.61171478 2.19222799 3.61171478 1 5 C-0.38135329 5.09646433 -1.7676122 5.12371904 -3.15232944 5.12304783 C-4.05303655 5.12503888 -4.95374366 5.12702993 -5.88174492 5.12908131 C-6.88269674 5.12616847 -7.88364856 5.12325563 -8.91493225 5.12025452 C-10.49654865 5.12153615 -10.49654865 5.12153615 -12.1101169 5.12284368 C-15.67246782 5.12450163 -19.2347725 5.11897199 -22.79711914 5.11352539 C-25.33910623 5.11324356 -27.8810934 5.11340117 -30.42308044 5.1139679 C-35.91081909 5.11419622 -41.39854262 5.11134471 -46.88627815 5.10573006 C-54.82070802 5.09761738 -62.75513214 5.09500008 -70.68956571 5.09374207 C-83.56135761 5.09155118 -96.43314318 5.0848901 -109.30493164 5.07543945 C-121.81176726 5.06626628 -134.31860116 5.05918499 -146.82543945 5.05493164 C-147.59582159 5.05466892 -148.36620372 5.05440619 -149.15993077 5.05413551 C-153.02455051 5.05283051 -156.88917026 5.05156679 -160.75379002 5.05032361 C-192.83586461 5.03994985 -224.91793143 5.02233054 -257 5 C-256.67 4.34 -256.34 3.68 -256 3 C-225.59563805 2.97717111 -195.19127699 2.95948191 -164.78690843 2.94893467 C-161.19469024 2.94768401 -157.60247207 2.94638969 -154.01025391 2.94506836 C-153.29512947 2.94480605 -152.58000502 2.94454374 -151.84321015 2.94427348 C-140.2748808 2.93992611 -128.70655643 2.93204369 -117.13823004 2.9228472 C-105.26175173 2.91348472 -93.38527603 2.90793889 -81.50879419 2.90591151 C-74.84063277 2.90466437 -68.17248044 2.90154828 -61.50432205 2.89426994 C-55.22535158 2.88747207 -48.94639705 2.88539072 -42.66742325 2.88689232 C-40.36566583 2.88661769 -38.06390786 2.88463495 -35.76215363 2.88079453 C-32.61270745 2.87579842 -29.46332093 2.87702348 -26.31387329 2.87974548 C-25.40917411 2.87683264 -24.50447494 2.8739198 -23.57236063 2.87091869 C-17.66143159 2.88466866 -11.86996749 3.30996934 -6 4 C-5.67 3.34 -5.34 2.68 -5 2 C-4.67 2.33 -4.34 2.66 -4 3 C-3.34 2.34 -2.68 1.68 -2 1 C-1.01 1.495 -1.01 1.495 0 2 C0 1.34 0 0.68 0 0 Z " fill="#7014E6" transform="translate(366,352)"/>
<path d="M0 0 C10.704375 -0.0309375 10.704375 -0.0309375 21.625 -0.0625 C24.98872803 -0.07615601 24.98872803 -0.07615601 28.42041016 -0.09008789 C30.20996033 -0.09301019 31.99951117 -0.095558 33.7890625 -0.09765625 C34.70840576 -0.10277222 35.62774902 -0.10788818 36.57495117 -0.11315918 C41.16886247 -0.11378116 45.47976077 0.05474013 50 1 C50 1.33 50 1.66 50 2 C34.16 2 18.32 2 2 2 C2 18.83 2 35.66 2 53 C8.373125 52.855625 14.74625 52.71125 21.3125 52.5625 C23.30063721 52.51939697 25.28877441 52.47629395 27.3371582 52.43188477 C35.92288295 52.23348818 44.46225832 52.01181612 53 51 C43.6370449 57.24197007 28.00907845 55.23811514 17.125 55.125 C8.648125 55.063125 8.648125 55.063125 0 55 C0 36.85 0 18.7 0 0 Z " fill="#9E5FE6" transform="translate(200,122)"/>
<path d="M0 0 C15.18 0 30.36 0 46 0 C46 0.33 46 0.66 46 1 C31.48 1 16.96 1 2 1 C2 19.81 2 38.62 2 58 C17.18 58 32.36 58 48 58 C48 58.66 48 59.32 48 60 C32.16 60 16.32 60 0 60 C0 40.2 0 20.4 0 0 Z " fill="#9A5AE4" transform="translate(200,199)"/>
<path d="M0 0 C8.064375 -0.04125 16.12875 -0.0825 24.4375 -0.125 C26.96591553 -0.14320801 29.49433105 -0.16141602 32.09936523 -0.18017578 C34.12743925 -0.18602288 36.15551564 -0.19111792 38.18359375 -0.1953125 C39.21713989 -0.20554443 40.25068604 -0.21577637 41.31555176 -0.22631836 C52.63268406 -0.2290158 61.18348463 1.56494413 69.60546875 9.515625 C74.7840707 15.28650108 75.32639817 21.30871017 75.25 28.6875 C75.26160156 29.82541992 75.26160156 29.82541992 75.2734375 30.98632812 C75.25981991 34.84350994 75.18605874 36.72091189 73 40 C73.02320313 38.9378125 73.04640625 37.875625 73.0703125 36.78125 C73.50152977 26.15546682 73.50152977 26.15546682 71 16 C69.02477154 14.95191959 67.02518491 13.9479589 65 13 C64.125 9.8125 64.125 9.8125 64 7 C60.7 6.01 57.4 5.02 54 4 C54 3.34 54 2.68 54 2 C37.17 1.67 20.34 1.34 3 1 C2.38339529 5.31623299 1.8750011 8.87540717 1.88647461 13.10913086 C1.88655014 14.04957748 1.88662567 14.99002411 1.88670349 15.95896912 C1.89186478 16.95090775 1.89702606 17.94284637 1.90234375 18.96484375 C1.9037587 19.99815323 1.90517365 21.03146271 1.90663147 22.09608459 C1.91220161 25.3765866 1.92474859 28.65701883 1.9375 31.9375 C1.94251886 34.16992089 1.94708109 36.40234285 1.95117188 38.63476562 C1.96216125 44.08986731 1.9788695 49.54492867 2 55 C3.65 55.33 5.3 55.66 7 56 C7 56.33 7 56.66 7 57 C4.69 57 2.38 57 0 57 C0 38.19 0 19.38 0 0 Z " fill="#6E15D5" transform="translate(202,200)"/>
<path d="M0 0 C0.66 0 1.32 0 2 0 C3.1577506 3.47325181 3.06866652 6.36067448 3 10 C3.66 10 4.32 10 5 10 C5.33 11.32 5.66 12.64 6 14 C6.66 13.67 7.32 13.34 8 13 C8 14.65 8 16.3 8 18 C7.34 18 6.68 18 6 18 C6.165 18.680625 6.33 19.36125 6.5 20.0625 C7.07059525 23.4147471 7 26.60390904 7 30 C7.32767762 31.33473453 7.66113843 32.66806091 8 34 C8.16307734 36.76619482 8.28046227 39.51270572 8.3515625 42.28125 C8.37471527 43.09057983 8.39786804 43.89990967 8.42172241 44.73376465 C8.46929691 46.44842468 8.51453875 48.1631508 8.55761719 49.87792969 C8.62405403 52.46318962 8.70217084 55.0479124 8.78125 57.6328125 C9.0282386 66.49360854 9.0551523 75.17670536 8 84 C4.53047163 77.98615083 4.83604507 71.3434279 4.75390625 64.60546875 C4.72092067 62.74283468 4.68770995 60.88020458 4.65429688 59.01757812 C4.60734441 56.1199055 4.56297699 53.22224306 4.52319336 50.32446289 C4.30851313 35.38040523 3.73207616 20.60479254 0.3671875 5.98046875 C0 4 0 4 0 0 Z " fill="#7C32CF" transform="translate(62,245)"/>
<path d="M0 0 C0.33 0 0.66 0 1 0 C0.57070531 5.02726682 0.12462582 10.04890822 -0.48535156 15.05786133 C-1.49996737 23.57583243 -2.16820168 32.00558228 -2.2734375 40.5859375 C-2.28462616 41.4715184 -2.29581482 42.3570993 -2.30734253 43.26951599 C-2.34570921 46.88591329 -2.37313573 50.50205377 -2.38085938 54.11865234 C-2.47368135 80.13201044 -2.47368135 80.13201044 -11 90 C-10.38938879 85.8478438 -8.86617941 82.73235883 -7 79 C-5.59383606 74.08424642 -5.89216892 69.05733094 -5.9375 63.9921875 C-5.94128662 63.02975128 -5.94507324 62.06731506 -5.94897461 61.07571411 C-5.96116665 58.00876341 -5.97980083 54.94190779 -6 51.875 C-6.02654466 47.83073175 -6.04655627 43.78650986 -6.0625 39.7421875 C-6.07079834 38.81091034 -6.07909668 37.87963318 -6.08764648 36.9201355 C-6.09260132 35.62331345 -6.09260132 35.62331345 -6.09765625 34.30029297 C-6.10289307 33.54038055 -6.10812988 32.78046814 -6.11352539 31.99752808 C-6 30 -6 30 -5 27 C-4.741247 23.54277237 -4.55711958 20.09143556 -4.39453125 16.62890625 C-4.10148709 11.10148709 -4.10148709 11.10148709 -3 10 C-2.63272554 8.50794753 -2.3050154 7.00601352 -2 5.5 C-1.11111111 1.11111111 -1.11111111 1.11111111 0 0 Z " fill="#6520CC" transform="translate(405,250)"/>
<path d="M0 0 C0.33 0 0.66 0 1 0 C0.67 16.5 0.34 33 0 50 C-0.66 50 -1.32 50 -2 50 C-1.98839844 50.65484375 -1.97679688 51.3096875 -1.96484375 51.984375 C-1.85381425 63.21421541 -2.34867256 74.27313375 -6 85 C-6.99 85.99 -6.99 85.99 -8 87 C-7.54462211 82.57758013 -7.06680043 78.19665528 -6.28125 73.8203125 C-3.69551183 58.69801001 -3.55130439 43.62577421 -3.46679688 28.31884766 C-3.37570192 18.45044721 -2.88361964 9.51616527 0 0 Z " fill="#882AE3" transform="translate(70,46)"/>
<path d="M0 0 C8.04559072 0.51849362 13.99243537 2.30862298 20 8 C24.71510259 14.77202655 25.66372922 20.91672626 25 29 C23.27575207 37.03803813 19.65360809 42.32028812 12.85546875 46.9296875 C7.75610917 49.87121282 2.77218903 50.23559955 -3 50 C-3 49.67 -3 49.34 -3 49 C-2.32453125 48.87882812 -1.6490625 48.75765625 -0.953125 48.6328125 C0.38492188 48.38144531 0.38492188 48.38144531 1.75 48.125 C3.07257813 47.88136719 3.07257813 47.88136719 4.421875 47.6328125 C8.71321322 46.57948403 10.50857731 45.73713403 13 42 C13.99 42 14.98 42 16 42 C16.33 41.01 16.66 40.02 17 39 C17.33 38.34 17.66 37.68 18 37 C17.34 37 16.68 37 16 37 C16.66 34.69 17.32 32.38 18 30 C18.66 30 19.32 30 20 30 C20 30.66 20 31.32 20 32 C20.66 32 21.32 32 22 32 C21.53479018 28.84251211 21.05431123 25.68948125 20.54296875 22.5390625 C20.21424284 20.39643178 19.93218705 18.24494831 19.73828125 16.0859375 C19.1673302 11.15969829 19.1673302 11.15969829 16.1875 7.37890625 C11.16027492 4.43763046 5.57575308 2.62131827 0 1 C0 0.67 0 0.34 0 0 Z " fill="#8638E4" transform="translate(245,124)"/>
<path d="M0 0 C0.99 0.495 0.99 0.495 2 1 C-0.60121999 4.90182998 -2.53899696 4.92320616 -7 6 C-8.1446875 6.2165625 -8.1446875 6.2165625 -9.3125 6.4375 C-11.40563933 6.94335667 -11.40563933 6.94335667 -13 10 C-16.05290084 10.25616216 -18.89702233 10.31849805 -21.94775391 10.2487793 C-22.87463516 10.23946381 -23.80151642 10.23014832 -24.75648499 10.22055054 C-27.83020963 10.1860853 -30.90316065 10.13020737 -33.9765625 10.07421875 C-36.10361061 10.04619629 -38.23067664 10.01950476 -40.35775757 9.99409485 C-45.96399488 9.9235311 -51.56980591 9.83482971 -57.17572021 9.74243164 C-62.89304143 9.65138022 -68.61057995 9.57736984 -74.328125 9.50195312 C-85.5523631 9.35137473 -96.77622473 9.18164673 -108 9 C-108 8.67 -108 8.34 -108 8 C-107.04660736 7.99635437 -106.09321472 7.99270874 -105.1109314 7.98895264 C-96.0230128 7.95163513 -86.93542161 7.89347371 -77.84775352 7.81609726 C-73.17827546 7.77697692 -68.50897599 7.74461825 -63.83935547 7.72900391 C-31.03151383 8.68439796 -31.03151383 8.68439796 0 0 Z " fill="#6A15D0" transform="translate(280,275)"/>
<path d="M0 0 C0 3.72913872 -0.75548689 4.2144927 -3.3125 6.8125 C-9.96720658 13.24182436 -18.09423625 18.13140493 -27.50518799 18.12025452 C-28.40258698 18.12162918 -29.29998596 18.12300385 -30.22457886 18.12442017 C-31.68977463 18.11902725 -31.68977463 18.11902725 -33.18457031 18.11352539 C-34.2190329 18.11367142 -35.25349548 18.11381744 -36.31930542 18.1139679 C-39.73893327 18.11327117 -43.15850666 18.10548994 -46.578125 18.09765625 C-48.94895396 18.09579122 -51.31978331 18.09436772 -53.69061279 18.09336853 C-59.93116316 18.08955006 -66.17169027 18.07972545 -72.41223145 18.06866455 C-78.7800261 18.05843606 -85.1478245 18.05386782 -91.515625 18.04882812 C-104.01042689 18.03810262 -116.50521151 18.02103419 -129 18 C-129 17.67 -129 17.34 -129 17 C-127.71182877 16.98969254 -126.42365753 16.97938507 -125.09645081 16.96876526 C-112.98532537 16.87121426 -100.87425341 16.76849805 -88.76321507 16.66066074 C-82.53609086 16.60538186 -76.308962 16.55195407 -70.08178711 16.50268555 C-64.07768959 16.45511506 -58.07365122 16.40277518 -52.06962395 16.34705925 C-49.77340089 16.32660243 -47.47716159 16.307895 -45.18091011 16.29092598 C-41.97674786 16.26695535 -38.7726986 16.23689113 -35.56860352 16.20532227 C-34.60907272 16.1995668 -33.64954193 16.19381134 -32.66093445 16.18788147 C-31.35888565 16.17319824 -31.35888565 16.17319824 -30.03053284 16.15821838 C-28.8925794 16.14853956 -28.8925794 16.14853956 -27.731637 16.1386652 C-25.96977847 16.18591441 -25.96977847 16.18591441 -25 15 C-22.66702567 14.95907063 -20.33294775 14.95758277 -18 15 C-18 14.34 -18 13.68 -18 13 C-17.38125 12.896875 -16.7625 12.79375 -16.125 12.6875 C-13.63473516 12.12474627 -13.63473516 12.12474627 -12 9 C-11.154375 8.67 -10.30875 8.34 -9.4375 8 C-8.633125 7.67 -7.82875 7.34 -7 7 C-6.67 6.01 -6.34 5.02 -6 4 C-3.5 2.375 -3.5 2.375 -1 1 C-0.67 0.67 -0.34 0.34 0 0 Z " fill="#7428DA" transform="translate(393,340)"/>
<path d="M0 0 C2.86261462 2.86261462 3.73281451 4.29260493 5.125 7.9375 C5.45757812 8.79214844 5.79015625 9.64679687 6.1328125 10.52734375 C7.5356913 14.52744412 8.13312037 17.97794194 8.20532227 22.22753906 C8.22526749 23.26831604 8.24521271 24.30909302 8.26576233 25.38140869 C8.28247482 26.49820007 8.29918732 27.61499146 8.31640625 28.765625 C8.33718735 29.91415955 8.35796844 31.06269409 8.37937927 32.24603271 C8.44474993 35.91396111 8.50370194 39.58196093 8.5625 43.25 C8.60569707 45.73698654 8.64931175 48.22396587 8.69335938 50.7109375 C8.80041858 56.80721622 8.90220825 62.90356595 9 69 C3.09908508 60.14862762 5.67509307 42.17607176 5.4375 31.625 C5.39418263 29.80988859 5.35056479 27.99478433 5.30664062 26.1796875 C5.2009712 21.78653281 5.09933961 17.39330219 5 13 C4.34 13 3.68 13 3 13 C2.01 8.71 1.02 4.42 0 0 Z " fill="#7024CA" transform="translate(394,38)"/>
<path d="M0 0 C0 0.99 0 1.98 0 3 C-1.3921875 3.0928125 -1.3921875 3.0928125 -2.8125 3.1875 C-6.19930106 3.65547246 -6.19930106 3.65547246 -7.5625 6.5625 C-8.036875 7.366875 -8.51125 8.17125 -9 9 C-11.5 9.25 -11.5 9.25 -14 9 C-19.34703238 10.78234413 -22.72509425 15.55548506 -26 20 C-26.33 20.99 -26.66 21.98 -27 23 C-27.66 23 -28.32 23 -29 23 C-29 23.66 -29 24.32 -29 25 C-29.66 25 -30.32 25 -31 25 C-28.75808456 16.03233824 -22.28369123 9.3640642 -15 4 C-5.39045271 -1.67289912 -5.39045271 -1.67289912 0 0 Z " fill="#822BD3" transform="translate(102,21)"/>
<path d="M0 0 C0.33 0 0.66 0 1 0 C1.15855469 1.10214844 1.31710937 2.20429687 1.48046875 3.33984375 C4.49650138 23.35917766 9.82132831 41.55033581 22 58 C20.35 57.34 18.7 56.68 17 56 C17 55.01 17 54.02 17 53 C15.515 52.505 15.515 52.505 14 52 C13.855625 51.360625 13.71125 50.72125 13.5625 50.0625 C13.19895007 47.79688294 13.19895007 47.79688294 10.9375 46.75 C10.298125 46.5025 9.65875 46.255 9 46 C9 43.69 9 41.38 9 39 C8.360625 38.773125 7.72125 38.54625 7.0625 38.3125 C5 37 5 37 4.4296875 34.83203125 C3.77953464 30.54693285 3.18237272 26.25540976 2.59765625 21.9609375 C2.16036241 18.82984369 2.16036241 18.82984369 0 16 C-0.14245897 13.23344676 -0.18769445 10.57346694 -0.125 7.8125 C-0.11597656 7.06291016 -0.10695313 6.31332031 -0.09765625 5.54101562 C-0.07412578 3.69387346 -0.03825561 1.84689588 0 0 Z " fill="#6D22D5" transform="translate(403,109)"/>
<path d="M0 0 C0.66 0 1.32 0 2 0 C2 0.66 2 1.32 2 2 C2.66 2 3.32 2 4 2 C4 2.66 4 3.32 4 4 C4.66 4 5.32 4 6 4 C6.144375 5.093125 6.28875 6.18625 6.4375 7.3125 C6.88288104 10.93122987 6.88288104 10.93122987 8 14 C8.09265595 15.54473203 8.13068262 17.09311809 8.1328125 18.640625 C8.13474609 19.99994141 8.13474609 19.99994141 8.13671875 21.38671875 C8.13285156 22.33160156 8.12898438 23.27648437 8.125 24.25 C8.12886719 25.17941406 8.13273437 26.10882813 8.13671875 27.06640625 C8.12952474 32.15257183 7.87228352 36.98783122 7 42 C6.01 42 5.02 42 4 42 C2.72382581 39.44765162 3.28615386 38.70328323 4 36 C4.24629247 32.46159819 4.23116265 28.9211319 4.25 25.375 C4.270625 24.42753906 4.29125 23.48007813 4.3125 22.50390625 C4.34914692 15.8066823 3.15767797 10.30760252 1 4 C0.65257006 2.6702702 0.31440256 1.33792373 0 0 Z " fill="#8743E0" transform="translate(302,206)"/>
<path d="M0 0 C2.24757332 4.05288277 2.36270375 7.728728 2.44921875 12.28125 C2.47095657 13.09057983 2.4926944 13.89990967 2.51509094 14.73376465 C2.55896579 16.44837587 2.59817518 18.16311193 2.63305664 19.87792969 C2.68673886 22.46334226 2.75717607 25.04787867 2.83007812 27.6328125 C3.05418298 36.48928267 3.04447126 45.18248708 2 54 C-1.65558464 47.66365329 -1.08392159 40.85275539 -0.87890625 33.7890625 C-0.85529526 32.82092621 -0.83168427 31.85278992 -0.80735779 30.85531616 C-0.73109209 27.77838102 -0.64690904 24.70172145 -0.5625 21.625 C-0.50924215 19.53256534 -0.45650203 17.44011744 -0.40429688 15.34765625 C-0.27552738 10.23159799 -0.13965925 5.1157721 0 0 Z " fill="#7D29E0" transform="translate(68,275)"/>
<path d="M0 0 C14.19 0 28.38 0 43 0 C43 0.33 43 0.66 43 1 C30.46 1 17.92 1 5 1 C5 1.99 5 2.98 5 4 C4.01 4.66 3.02 5.32 2 6 C1.5254169 8.01076785 1.5254169 8.01076785 1.56762695 10.35791016 C1.54783279 11.25869293 1.52803864 12.15947571 1.50764465 13.08755493 C1.50125473 14.06155243 1.49486481 15.03554993 1.48828125 16.0390625 C1.47033005 17.03505463 1.45237885 18.03104675 1.43388367 19.05722046 C1.37959002 22.24643689 1.34582383 25.43550209 1.3125 28.625 C1.27934376 30.78387531 1.24485571 32.9427306 1.20898438 35.1015625 C1.123853 40.40090603 1.05558425 45.70026869 1 51 C0.67 51 0.34 51 0 51 C0 34.17 0 17.34 0 0 Z " fill="#7312DB" transform="translate(202,124)"/>
<path d="M0 0 C7.26277748 0.30905436 12.37130796 3.58217626 17.61328125 8.51953125 C22.78095638 14.29696156 23.32639724 20.30879965 23.25 27.6875 C23.25773437 28.44611328 23.26546875 29.20472656 23.2734375 29.98632812 C23.25981991 33.84350994 23.18605874 35.72091189 21 39 C21.02320313 37.9378125 21.04640625 36.875625 21.0703125 35.78125 C21.50152977 25.15546682 21.50152977 25.15546682 19 15 C17.02477154 13.95191959 15.02518491 12.9479589 13 12 C12.125 8.8125 12.125 8.8125 12 6 C8.7 5.01 5.4 4.02 2 3 C2 2.34 2 1.68 2 1 C1.34 0.67 0.68 0.34 0 0 Z " fill="#7328D1" transform="translate(254,201)"/>
<path d="M0 0 C1.32 0.33 2.64 0.66 4 1 C3.34773438 1.53367188 2.69546875 2.06734375 2.0234375 2.6171875 C-10.88297398 13.61999846 -17.19684735 28.65311581 -21 45 C-21.33 45 -21.66 45 -22 45 C-21.88506243 43.10353002 -21.75760358 41.20781668 -21.625 39.3125 C-21.55539062 38.25675781 -21.48578125 37.20101562 -21.4140625 36.11328125 C-21.01239911 33.09322731 -20.25930981 30.75921946 -19 28 C-18.34 28 -17.68 28 -17 28 C-17 26.35 -17 24.7 -17 23 C-16.34 23 -15.68 23 -15 23 C-14.01 19.7 -13.02 16.4 -12 13 C-11.34 13 -10.68 13 -10 13 C-10 11.68 -10 10.36 -10 9 C-9.01 9 -8.02 9 -7 9 C-6.896875 8.21625 -6.79375 7.4325 -6.6875 6.625 C-6 4 -6 4 -3 2 C-2.01 2 -1.02 2 0 2 C0 1.34 0 0.68 0 0 Z " fill="#691CD6" transform="translate(428,205)"/>
<path d="M0 0 C0.66 0 1.32 0 2 0 C0.02104913 10.88422977 -7.18362899 20.62777539 -15.84375 27.453125 C-17.19373723 28.35736173 -18.59141474 29.19006348 -20 30 C-20.66 29.67 -21.32 29.34 -22 29 C-21.67 28.34 -21.34 27.68 -21 27 C-20.01 27 -19.02 27 -18 27 C-17.731875 26.443125 -17.46375 25.88625 -17.1875 25.3125 C-14.86851289 20.79657772 -13.56490022 18.28245011 -9 16 C-8.3185177 14.10820797 -8.3185177 14.10820797 -8 12 C-7.1875 9.875 -7.1875 9.875 -6 8 C-5.34 7.71125 -4.68 7.4225 -4 7.125 C-1.65312369 6.0800808 -1.65312369 6.0800808 -0.75 2.875 C-0.5025 1.92625 -0.255 0.9775 0 0 Z " fill="#ECD5FB" transform="translate(304,244)"/>
<path d="M0 0 C1.19234985 2.87689064 1.02291478 3.93988906 -0.109375 6.91015625 C-0.65078125 7.95042969 -1.1921875 8.99070312 -1.75 10.0625 C-2.28109375 11.10535156 -2.8121875 12.14820313 -3.359375 13.22265625 C-4.76321507 15.59915693 -5.81592808 17.33895583 -8 19 C-8.99 19 -9.98 19 -11 19 C-11.061875 19.61875 -11.12375 20.2375 -11.1875 20.875 C-11.455625 21.57625 -11.72375 22.2775 -12 23 C-13.64551962 23.71727778 -15.31422289 24.38325228 -17 25 C-17.66 25.99 -18.32 26.98 -19 28 C-19.99 27.67 -20.98 27.34 -22 27 C-21 24 -21 24 -19 22.9375 C-18.01 22.4734375 -18.01 22.4734375 -17 22 C-16.67 21.34 -16.34 20.68 -16 20 C-15.01 20.33 -14.02 20.66 -13 21 C-12.74605469 20.40832031 -12.49210937 19.81664062 -12.23046875 19.20703125 C-8.31863186 10.22592259 -8.31863186 10.22592259 -6 7 C-5.01 6.67 -4.02 6.34 -3 6 C-1.29144978 2.99992729 -1.29144978 2.99992729 0 0 Z " fill="#6913EA" transform="translate(398,325)"/>
<path d="M0 0 C5.875 0.875 5.875 0.875 7 2 C7.08669432 3.4887186 7.10703494 4.981445 7.09765625 6.47265625 C7.09443359 7.37177734 7.09121094 8.27089844 7.08789062 9.19726562 C7.07951172 10.14279297 7.07113281 11.08832031 7.0625 12.0625 C7.05798828 13.01189453 7.05347656 13.96128906 7.04882812 14.93945312 C7.0370011 17.29303065 7.02052025 19.64648477 7 22 C2.68620093 23.63138376 -1.61724013 25.24940692 -6 26.6875 C-6.763125 26.93886719 -7.52625 27.19023437 -8.3125 27.44921875 C-8.869375 27.63097656 -9.42625 27.81273437 -10 28 C-8.6875 26 -8.6875 26 -7 24 C-6.01 24 -5.02 24 -4 24 C-3.67 23.01 -3.34 22.02 -3 21 C-1 20 -1 20 5 20 C5 14.06 5 8.12 5 2 C3.35 1.67 1.7 1.34 0 1 C0 0.67 0 0.34 0 0 Z " fill="#6827CB" transform="translate(442,177)"/>
<path d="M0 0 C0.33 0 0.66 0 1 0 C1.02557182 6.47378689 1.04295904 12.94756052 1.05493164 19.42138672 C1.05992838 21.61898282 1.06672801 23.81657564 1.07543945 26.01416016 C1.08771089 29.19174003 1.09327505 32.36927557 1.09765625 35.546875 C1.10281754 36.5130072 1.10797882 37.4791394 1.11329651 38.47454834 C1.11402727 47.56965776 0.86198802 56.78448128 -1.4375 65.625 C-1.80681641 67.09839844 -1.80681641 67.09839844 -2.18359375 68.6015625 C-3 71 -3 71 -5 73 C-4.54303387 68.56654979 -4.06179583 64.1736725 -3.28125 59.78515625 C0.0723461 40.04587686 -0.25163583 19.96681614 0 0 Z " fill="#823AC8" transform="translate(67,60)"/>
<path d="M0 0 C7.91376057 -1.07914917 14.559979 2.98113881 20.96484375 7.3359375 C24.10567833 9.84540838 26.69308359 12.71708049 29 16 C29 16.66 29 17.32 29 18 C28.01 17.67 27.02 17.34 26 17 C26 16.34 26 15.68 26 15 C25.34 15 24.68 15 24 15 C24 14.34 24 13.68 24 13 C22.35 12.34 20.7 11.68 19 11 C19 10.34 19 9.68 19 9 C16.69 9 14.38 9 12 9 C12 8.01 12 7.02 12 6 C9.03 5.01 6.06 4.02 3 3 C3 2.34 3 1.68 3 1 C2.01 0.67 1.02 0.34 0 0 Z " fill="#7324D3" transform="translate(365,20)"/>
<path d="M0 0 C0.495 1.485 0.495 1.485 1 3 C0.00664799 4.67063747 -0.99431758 6.33675599 -2 8 C-2.0928125 9.423125 -2.0928125 9.423125 -2.1875 10.875 C-3.29269363 15.12574474 -5.64054174 16.69674476 -8.9921875 19.38671875 C-10.98888341 20.89226206 -10.98888341 20.89226206 -12.359375 22.5703125 C-14.77329895 24.6738748 -17.32516261 25.2767362 -20.375 26.1875 C-21.49648438 26.53167969 -22.61796875 26.87585938 -23.7734375 27.23046875 C-26.67457571 27.9223867 -29.03890942 28.16080829 -32 28 C-29.10496959 26.48577903 -26.19091086 25.30975709 -23.125 24.1875 C-18.57667622 22.40976283 -15.60454185 20.24408767 -12 17 C-11.34 17 -10.68 17 -10 17 C-9.74347656 16.45601562 -9.48695312 15.91203125 -9.22265625 15.3515625 C-7.78162366 12.57999184 -6.13160817 9.99927612 -4.4375 7.375 C-2.08171635 3.76549898 -2.08171635 3.76549898 0 0 Z " fill="#832AD6" transform="translate(55,150)"/>
<path d="M0 0 C1.32 0.33 2.64 0.66 4 1 C2.23084525 1.98219627 0.45961431 2.96065359 -1.3125 3.9375 C-2.29863281 4.48277344 -3.28476562 5.02804688 -4.30078125 5.58984375 C-7.68118552 7.35587261 -10.2467261 8.12540465 -14.01245117 8.11352539 C-14.81305466 8.11344986 -15.61365814 8.11337433 -16.43852234 8.11329651 C-17.29798965 8.10813522 -18.15745697 8.10297394 -19.04296875 8.09765625 C-19.9265657 8.0962413 -20.81016266 8.09482635 -21.72053528 8.09336853 C-24.54289128 8.08777069 -27.36516797 8.07521861 -30.1875 8.0625 C-32.10091031 8.05748472 -34.01432187 8.05292186 -35.92773438 8.04882812 C-40.61852014 8.03780197 -45.30924663 8.02053883 -50 8 C-50 7.67 -50 7.34 -50 7 C-45.78661704 6.85520227 -41.57315868 6.71290331 -37.35961914 6.57275391 C-35.9312115 6.5249102 -34.50282515 6.47642598 -33.07446289 6.42724609 C-24.71462473 6.13988582 -16.36620759 5.91995124 -8 6 C-8 5.01 -8 4.02 -8 3 C-5.36 2.67 -2.72 2.34 0 2 C0 1.34 0 0.68 0 0 Z " fill="#7115E2" transform="translate(265,249)"/>
<path d="M0 0 C0.99 0 1.98 0 3 0 C3 1.32 3 2.64 3 4 C3.66 4 4.32 4 5 4 C9.30769231 21.38461538 9.30769231 21.38461538 6 28 C5.34 28 4.68 28 4 28 C3.67 30.97 3.34 33.94 3 37 C2.34 36.67 1.68 36.34 1 36 C1.495 34.2984375 1.495 34.2984375 2 32.5625 C4.33891236 21.92802076 4.17537621 10.11534594 0 0 Z " fill="#9049E4" transform="translate(294,124)"/>
<path d="M0 0 C11.93004554 -0.41859809 21.59544985 4.6571229 32 10 C31.67 11.32 31.34 12.64 31 14 C30.45730469 13.65066406 29.91460937 13.30132812 29.35546875 12.94140625 C28.64003906 12.48636719 27.92460937 12.03132813 27.1875 11.5625 C26.47980469 11.11003906 25.77210938 10.65757813 25.04296875 10.19140625 C22.91865448 8.85913661 22.91865448 8.85913661 20 8 C20 7.34 20 6.68 20 6 C14.01270113 4.88482498 8.03748977 3.80499864 2 3 C2 2.34 2 1.68 2 1 C1.34 0.67 0.68 0.34 0 0 Z " fill="#8437E2" transform="translate(252,97)"/>
<path d="M0 0 C1.32 0.66 2.64 1.32 4 2 C3.67 2.66 3.34 3.32 3 4 C3.66 4.33 4.32 4.66 5 5 C4.88838822 8.14645401 4.75819443 11.29189157 4.625 14.4375 C4.57859375 15.75524414 4.57859375 15.75524414 4.53125 17.09960938 C4.28046144 22.76325099 4.00382079 28.64104694 2 34 C-0.5625 35.875 -0.5625 35.875 -3 37 C-3.33 37.99 -3.66 38.98 -4 40 C-6.06640625 40.73046875 -6.06640625 40.73046875 -8.5625 41.1875 C-9.38878906 41.34605469 -10.21507812 41.50460938 -11.06640625 41.66796875 C-11.70449219 41.77753906 -12.34257812 41.88710937 -13 42 C-11.08134131 39.98455437 -9.4499826 38.64892506 -7.0625 37.125 C-1.91748773 33.55499149 0.38468425 29.99477095 2 24 C2.27304618 21.18132328 2.28002603 18.39245319 2.25 15.5625 C2.25773437 14.83740234 2.26546875 14.11230469 2.2734375 13.36523438 C2.25613905 8.55193961 1.51688315 4.56870759 0 0 Z " fill="#D6AFFB" transform="translate(274,213)"/>
<path d="M0 0 C14.85 0 29.7 0 45 0 C43.68 0.99 42.36 1.98 41 3 C40.34 2.67 39.68 2.34 39 2 C35.77708217 1.87838046 32.79577313 1.83060275 29.6328125 2.50390625 C26.75710297 3.04576843 24.11098535 3.09772272 21.1875 3.0625 C19.72376953 3.04896484 19.72376953 3.04896484 18.23046875 3.03515625 C17.12638672 3.01775391 17.12638672 3.01775391 16 3 C16 2.34 16 1.68 16 1 C11.05 1.33 6.1 1.66 1 2 C0.67 1.34 0.34 0.68 0 0 Z " fill="#8315F1" transform="translate(209,21)"/>
<path d="M0 0 C0.66 0 1.32 0 2 0 C2 3.33333333 2 6.66666667 2 10 C2.04125 11.175625 2.0825 12.35125 2.125 13.5625 C2 17 2 17 0 19 C-0.99 19 -1.98 19 -3 19 C-3.66 19.33 -4.32 19.66 -5 20 C-4.45484328 12.91296261 -2.39081395 6.67203894 0 0 Z " fill="#8819F2" transform="translate(61,133)"/>
<path d="M0 0 C1.30926892 2.61853783 0.75888131 4.25537758 -0.0546875 6.98828125 C-1.60103905 10.27907071 -4.03618161 12.70084988 -6.5390625 15.30078125 C-8.21731302 16.87927193 -8.21731302 16.87927193 -8 19 C-8.763125 19.103125 -9.52625 19.20625 -10.3125 19.3125 C-13.02954673 19.75593985 -13.02954673 19.75593985 -14.5 21.5625 C-16 23 -16 23 -18.6875 23.1875 C-19.8321875 23.0946875 -19.8321875 23.0946875 -21 23 C-20.34 22.484375 -19.68 21.96875 -19 21.4375 C-18.01 20.633125 -17.02 19.82875 -16 19 C-15.37222656 18.50242187 -14.74445313 18.00484375 -14.09765625 17.4921875 C-8.94377314 13.23850278 -5.46090268 8.68734325 -2 3 C-1.34 2.01 -0.68 1.02 0 0 Z " fill="#823BDE" transform="translate(303,252)"/>
<path d="M0 0 C0.66 0.33 1.32 0.66 2 1 C-0.60121999 4.90182998 -2.53899696 4.92320616 -7 6 C-7.763125 6.144375 -8.52625 6.28875 -9.3125 6.4375 C-11.40563933 6.94335667 -11.40563933 6.94335667 -13 10 C-13.99 9.67 -14.98 9.34 -16 9 C-18.05893621 8.77674186 -20.12233653 8.59294241 -22.1875 8.4375 C-23.27417969 8.35371094 -24.36085937 8.26992188 -25.48046875 8.18359375 C-26.31191406 8.12300781 -27.14335937 8.06242187 -28 8 C-28 7.67 -28 7.34 -28 7 C-27.36497559 6.89453857 -26.72995117 6.78907715 -26.07568359 6.68041992 C-23.17368896 6.1926964 -20.27442957 5.69023842 -17.375 5.1875 C-16.37597656 5.02185547 -15.37695312 4.85621094 -14.34765625 4.68554688 C-9.02501034 3.75144014 -4.79972659 2.58626045 0 0 Z " fill="#742AD5" transform="translate(280,275)"/>
<path d="M0 0 C0 0.99 0 1.98 0 3 C-0.928125 3.061875 -1.85625 3.12375 -2.8125 3.1875 C-6.19930106 3.65547246 -6.19930106 3.65547246 -7.5625 6.5625 C-8.036875 7.366875 -8.51125 8.17125 -9 9 C-11.5625 9.25 -11.5625 9.25 -14 9 C-14.99 9.495 -14.99 9.495 -16 10 C-15.33333333 8.66666667 -14.66666667 7.33333333 -14 6 C-13.79375 5.319375 -13.5875 4.63875 -13.375 3.9375 C-10.34186302 -0.33646575 -4.82910432 -1.59165546 0 0 Z " fill="#8D17F1" transform="translate(102,21)"/>
<path d="M0 0 C1.60875 0.2784375 1.60875 0.2784375 3.25 0.5625 C6.40391546 0.9304568 8.09818492 1.04465343 11 0 C11.20625 0.61875 11.4125 1.2375 11.625 1.875 C13.54775888 4.84653645 15.66594527 5.13024659 19 6 C19 6.99 19 7.98 19 9 C4.91284899 5.07064631 4.91284899 5.07064631 0 1 C0 0.67 0 0.34 0 0 Z " fill="#7616E7" transform="translate(85,350)"/>
<path d="M0 0 C0 3.72913872 -0.75548689 4.2144927 -3.3125 6.8125 C-9.4990576 12.7682979 -16.42393754 16.90598617 -25 18 C-25 17.01 -25 16.02 -25 15 C-22.69 15 -20.38 15 -18 15 C-18 14.34 -18 13.68 -18 13 C-17.38125 12.896875 -16.7625 12.79375 -16.125 12.6875 C-13.63473516 12.12474627 -13.63473516 12.12474627 -12 9 C-11.154375 8.67 -10.30875 8.34 -9.4375 8 C-8.633125 7.67 -7.82875 7.34 -7 7 C-6.67 6.01 -6.34 5.02 -6 4 C-3.5 2.375 -3.5 2.375 -1 1 C-0.67 0.67 -0.34 0.34 0 0 Z " fill="#651ECA" transform="translate(393,340)"/>
<path d="M0 0 C0.33 0 0.66 0 1 0 C0.88570603 1.77155654 0.75816963 3.54226229 0.625 5.3125 C0.55539062 6.29863281 0.48578125 7.28476563 0.4140625 8.30078125 C0 11 0 11 -2 14 C-2.39013716 15.9896995 -2.73202649 17.99019869 -3 20 C-3.33 20 -3.66 20 -4 20 C-4.71444082 14.43835302 -5.21558564 9.53766791 -4 4 C-4 3.01 -4 2.02 -4 1 C-2.02 1.495 -2.02 1.495 0 2 C0 1.34 0 0.68 0 0 Z " fill="#6F10F5" transform="translate(406,239)"/>
<path d="M0 0 C0.66 0.33 1.32 0.66 2 1 C2.02726927 3.35424675 2.04696719 5.70816962 2.0625 8.0625 C2.07410156 9.37347656 2.08570313 10.68445313 2.09765625 12.03515625 C1.85338259 21.95266682 1.85338259 21.95266682 -0.375 24.6875 C-1.179375 25.3371875 -1.179375 25.3371875 -2 26 C-2.45375 26.70125 -2.9075 27.4025 -3.375 28.125 C-5.43661429 30.50378572 -6.93425649 30.66856827 -10 31 C-9.60167969 30.55269531 -9.20335937 30.10539062 -8.79296875 29.64453125 C-2.12999856 22.04128789 0.15815884 16.92299606 0.0625 6.6875 C0.04896484 4.80611328 0.04896484 4.80611328 0.03515625 2.88671875 C0.02355469 1.93410156 0.01195312 0.98148438 0 0 Z " fill="#FAE1FE" transform="translate(269,139)"/>
<path d="M0 0 C0.66 0 1.32 0 2 0 C2 0.66 2 1.32 2 2 C2.66 2 3.32 2 4 2 C4 2.66 4 3.32 4 4 C4.66 4 5.32 4 6 4 C6.144375 5.093125 6.28875 6.18625 6.4375 7.3125 C6.88288104 10.93122987 6.88288104 10.93122987 8 14 C8.12781786 16.67394964 8.04391871 19.32095857 8 22 C7.34 21.67 6.68 21.34 6 21 C6 18.69 6 16.38 6 14 C5.34 14 4.68 14 4 14 C3.5196682 12.41701974 3.04078388 10.83360022 2.5625 9.25 C2.29566406 8.36828125 2.02882813 7.4865625 1.75390625 6.578125 C1.11531506 4.39434165 0.53224167 2.21164502 0 0 Z " fill="#7A2DDF" transform="translate(302,206)"/>
<path d="M0 0 C0.66 0.33 1.32 0.66 2 1 C2 1.66 2 2.32 2 3 C1.01 3.33 0.02 3.66 -1 4 C-2.68538601 5.99665314 -2.68538601 5.99665314 -4 8 C-3.34 8.33 -2.68 8.66 -2 9 C-2 9.66 -2 10.32 -2 11 C-5.63 10.34 -9.26 9.68 -13 9 C-13 8.34 -13 7.68 -13 7 C-11.96875 6.5875 -10.9375 6.175 -9.875 5.75 C-6.25451241 4.20889632 -3.2079923 2.26906772 0 0 Z " fill="#752ED2" transform="translate(282,177)"/>
<path d="M0 0 C0.33 0 0.66 0 1 0 C1.58768478 5.64177387 0.51794804 8.46984652 -2.7109375 13.10546875 C-4.06568518 14.97774318 -4.06568518 14.97774318 -4.96875 17.16015625 C-6 19 -6 19 -9.125 20.25 C-10.07375 20.4975 -11.0225 20.745 -12 21 C-11.60167969 20.40832031 -11.20335937 19.81664062 -10.79296875 19.20703125 C-7.39814969 14.14974303 -7.39814969 14.14974303 -4.25 8.9375 C-3.63125 7.9784375 -3.63125 7.9784375 -3 7 C-2.34 7 -1.68 7 -1 7 C-0.67 4.69 -0.34 2.38 0 0 Z " fill="#701BD5" transform="translate(298,154)"/>
<path d="M0 0 C0.33 0 0.66 0 1 0 C1.19335938 1.17175781 1.38671875 2.34351562 1.5859375 3.55078125 C2.9922079 12.04628229 4.41524229 20.53552942 6 29 C5.34 29 4.68 29 4 29 C3.81824219 27.96939453 3.81824219 27.96939453 3.6328125 26.91796875 C3.46523438 26.01691406 3.29765625 25.11585938 3.125 24.1875 C2.96257812 23.29417969 2.80015625 22.40085938 2.6328125 21.48046875 C2.08811551 18.77272154 2.08811551 18.77272154 0 16 C-0.14245897 13.23344676 -0.18769445 10.57346694 -0.125 7.8125 C-0.11597656 7.06291016 -0.10695313 6.31332031 -0.09765625 5.54101562 C-0.07412578 3.69387346 -0.03825561 1.84689588 0 0 Z " fill="#712DC9" transform="translate(403,109)"/>
<path d="M0 0 C0.66 0.33 1.32 0.66 2 1 C1.60167969 1.88300781 1.20335937 2.76601562 0.79296875 3.67578125 C-2.44869491 11.01881985 -5.17432321 18.15279273 -7 26 C-7.33 26 -7.66 26 -8 26 C-7.88506243 24.10353002 -7.75760358 22.20781668 -7.625 20.3125 C-7.55539062 19.25675781 -7.48578125 18.20101562 -7.4140625 17.11328125 C-7.01239911 14.09322731 -6.25930981 11.75921946 -5 9 C-4.34 9 -3.68 9 -3 9 C-3 7.35 -3 5.7 -3 4 C-2.34 4 -1.68 4 -1 4 C-0.67 2.68 -0.34 1.36 0 0 Z " fill="#6725C2" transform="translate(414,224)"/>
<path d="M0 0 C7.98896421 0.51484436 14.08605318 2.25032948 20 8 C21.3125 11.25 21.3125 11.25 22 14 C21.01 14.495 21.01 14.495 20 15 C19.855625 14.113125 19.71125 13.22625 19.5625 12.3125 C16.95744296 6.78977909 11.93214246 5.1039693 6.40625 3.0234375 C4.28117926 2.30387241 2.15414674 1.6263831 0 1 C0 0.67 0 0.34 0 0 Z " fill="#782FCF" transform="translate(245,124)"/>
<path d="M0 0 C3.06525777 2.04350518 3.60095284 2.75996631 5.0625 5.9375 C7.36938148 11.2166366 7.36938148 11.2166366 12.125 14.1875 C13.07375 14.455625 14.0225 14.72375 15 15 C15 16.65 15 18.3 15 20 C7.41024504 16.7044485 3.15402612 9.31734059 0 2 C0 1.34 0 0.68 0 0 Z " fill="#772BCD" transform="translate(70,330)"/>
<path d="M0 0 C1.65 0 3.3 0 5 0 C6 3 6 3 5.22265625 4.82421875 C4.1484375 6.54947917 3.07421875 8.27473958 2 10 C1.01 10 0.02 10 -1 10 C-0.835 9.071875 -0.67 8.14375 -0.5 7.1875 C0.07748388 4.04378647 0.07748388 4.04378647 0 1 C0 0.67 0 0.34 0 0 Z " fill="#7311E4" transform="translate(258,132)"/>
<path d="M0 0 C0.99 0.33 1.98 0.66 3 1 C3 1.66 3 2.32 3 3 C3.66 3 4.32 3 5 3 C5.53181175 5.24743045 6.05007126 7.49807102 6.5625 9.75 C6.85253906 11.00296875 7.14257812 12.2559375 7.44140625 13.546875 C7.93444283 16.59473748 8.07666879 18.17641828 7 21 C4.66666667 14 2.33333333 7 0 0 Z " fill="#7727CF" transform="translate(54,224)"/>
<path d="M0 0 C7.3557797 -1.00306087 12.6942879 2.52098642 19 6 C15.63759717 7.12080094 15.21532319 6.93568182 12.125 5.625 C9.0925557 4.39971347 6.24764163 3.507444 3 3 C3 2.34 3 1.68 3 1 C2.01 0.67 1.02 0.34 0 0 Z " fill="#7828D4" transform="translate(365,20)"/>
<path d="M0 0 C1.32 0.33 2.64 0.66 4 1 C2.29807615 1.9902653 0.58811989 2.96673206 -1.125 3.9375 C-2.07632812 4.48277344 -3.02765625 5.02804688 -4.0078125 5.58984375 C-7.06256432 7.02948527 -9.66134387 7.60867384 -13 8 C-13 7.34 -13 6.68 -13 6 C-11.35 6 -9.7 6 -8 6 C-8 5.01 -8 4.02 -8 3 C-5.36 2.67 -2.72 2.34 0 2 C0 1.34 0 0.68 0 0 Z " fill="#7626DD" transform="translate(265,249)"/>
<path d="M0 0 C2.8443681 2.8443681 3.80736519 4.38264704 5.25 8 C5.60578125 8.86625 5.9615625 9.7325 6.328125 10.625 C7 13 7 13 6 16 C5.67 15.01 5.34 14.02 5 13 C4.34 13 3.68 13 3 13 C2.01 8.71 1.02 4.42 0 0 Z " fill="#752ACE" transform="translate(394,38)"/>
<path d="M0 0 C6.67353409 0.28398017 10.71077185 3.07805532 16 7 C15.34 7.66 14.68 8.32 14 9 C13.67 8.34 13.34 7.68 13 7 C11.17489003 6.21984379 9.31393324 5.52204594 7.4375 4.875 C6.42558594 4.52179688 5.41367187 4.16859375 4.37109375 3.8046875 C3.19740234 3.40636719 3.19740234 3.40636719 2 3 C2 2.34 2 1.68 2 1 C1.34 0.67 0.68 0.34 0 0 Z " fill="#782ED3" transform="translate(254,201)"/>
<path d="M0 0 C2.61815739 2.61815739 2.26112488 4.50468338 2.2734375 8.07226562 C2.26570313 8.85279297 2.25796875 9.63332031 2.25 10.4375 C2.25773437 11.21416016 2.26546875 11.99082031 2.2734375 12.79101562 C2.25996806 16.70052168 2.21368645 18.67947032 0 22 C0.03480469 20.60587891 0.03480469 20.60587891 0.0703125 19.18359375 C0.23503625 9.90052792 0.23503625 9.90052792 -2 1 C-1.34 0.67 -0.68 0.34 0 0 Z " fill="#6F18D8" transform="translate(266,138)"/>
<path d="M0 0 C0 1.32 0 2.64 0 4 C-1.1446875 4.1546875 -1.1446875 4.1546875 -2.3125 4.3125 C-5.02954673 4.75593985 -5.02954673 4.75593985 -6.5 6.5625 C-8 8 -8 8 -10.6875 8.1875 C-11.450625 8.125625 -12.21375 8.06375 -13 8 C-11.33333333 6.66666667 -9.66666667 5.33333333 -8 4 C-7.13375 3.2575 -6.2675 2.515 -5.375 1.75 C-3 0 -3 0 0 0 Z " fill="#7328D6" transform="translate(295,267)"/>
<path d="M0 0 C1.32 0 2.64 0 4 0 C6 2.6875 6 2.6875 8 6 C8.721875 6.845625 9.44375 7.69125 10.1875 8.5625 C12.10058036 11.13526325 12.63996464 12.84969056 13 16 C12.484375 15.34 11.96875 14.68 11.4375 14 C8.90083299 10.87794829 6.26160177 7.87000722 3.5859375 4.8671875 C2 3 2 3 0 0 Z " fill="#792DC8" transform="translate(41,208)"/>
<path d="M0 0 C-5.04140164 2.81532819 -9.22621075 4.5188509 -15 5 C-15 4.34 -15 3.68 -15 3 C-13.35 2.67 -11.7 2.34 -10 2 C-9.67 1.01 -9.34 0.02 -9 -1 C-5.12506344 -2.07637127 -3.47547073 -1.94566951 0 0 Z " fill="#E1BFFB" transform="translate(282,275)"/>
<path d="M0 0 C1.32 0.33 2.64 0.66 4 1 C4 2.65 4 4.3 4 6 C4.66 6 5.32 6 6 6 C6 6.99 6 7.98 6 9 C5.01 9.33 4.02 9.66 3 10 C3 9.34 3 8.68 3 8 C2.34 8 1.68 8 1 8 C0.67 5.36 0.34 2.72 0 0 Z " fill="#7211EF" transform="translate(298,194)"/>
<path d="M0 0 C0.99 0.33 1.98 0.66 3 1 C-5.261959 8.66742597 -5.261959 8.66742597 -10 10 C-9.67 9.01 -9.34 8.02 -9 7 C-8.01 7 -7.02 7 -6 7 C-5.7525 6.401875 -5.505 5.80375 -5.25 5.1875 C-3.80517427 2.65905497 -2.51719455 1.44929383 0 0 Z " fill="#E5C7FD" transform="translate(292,264)"/>
<path d="M0 0 C0.66 0 1.32 0 2 0 C3.1577506 3.47325181 3.06866652 6.36067448 3 10 C3.66 10 4.32 10 5 10 C4.67 11.32 4.34 12.64 4 14 C3.34 14 2.68 14 2 14 C1.66179834 12.4176994 1.32964061 10.83410625 1 9.25 C0.814375 8.36828125 0.62875 7.4865625 0.4375 6.578125 C0 4 0 4 0 0 Z " fill="#7825D6" transform="translate(62,245)"/>
<path d="M0 0 C3.625 0.375 3.625 0.375 7 1 C6.01 2.485 6.01 2.485 5 4 C3.68 4 2.36 4 1 4 C1 4.66 1 5.32 1 6 C0.34 6 -0.32 6 -1 6 C-1.625 4.125 -1.625 4.125 -2 2 C-1.34 1.34 -0.68 0.68 0 0 Z " fill="#6A12F1" transform="translate(427,201)"/>
<path d="M0 0 C3.41541438 0.71860965 6.39462631 1.98501914 9.5625 3.4375 C10.51253906 3.86933594 11.46257812 4.30117188 12.44140625 4.74609375 C15 6 15 6 18 8 C11.61736662 7.5837413 6.44195901 5.34649204 1 2 C0.67 1.34 0.34 0.68 0 0 Z " fill="#742BC9" transform="translate(85,350)"/>
<path d="M0 0 C2.97 0.33 5.94 0.66 9 1 C9 1.66 9 2.32 9 3 C11.97 3.495 11.97 3.495 15 4 C11.72814447 5.07310858 9.57052408 4.89263102 6.25 4.0625 C5.45078125 3.86785156 4.6515625 3.67320312 3.828125 3.47265625 C3.22484375 3.31667969 2.6215625 3.16070312 2 3 C2 2.34 2 1.68 2 1 C1.34 0.67 0.68 0.34 0 0 Z " fill="#ECD1FE" transform="translate(269,186)"/>
<path d="M0 0 C-1.32 0.33 -2.64 0.66 -4 1 C-4 1.66 -4 2.32 -4 3 C-5.62626404 4.38232443 -7.2925002 5.71937515 -9 7 C-9.33 4.69 -9.66 2.38 -10 0 C-6.33694766 -0.74926071 -3.57644848 -1.2380014 0 0 Z " fill="#891BF1" transform="translate(32,178)"/>
<path d="M0 0 C0.73605469 0.48210937 1.47210938 0.96421875 2.23046875 1.4609375 C3.20628906 2.09257812 4.18210937 2.72421875 5.1875 3.375 C6.63189453 4.31472656 6.63189453 4.31472656 8.10546875 5.2734375 C10.69803936 6.81988312 13.16853116 7.97508075 16 9 C16 9.33 16 9.66 16 10 C14.02 10 12.04 10 10 10 C10 9.34 10 8.68 10 8 C8.906875 7.7525 7.81375 7.505 6.6875 7.25 C2.94133822 5.98011465 1.81045651 5.40791814 0 2 C0 1.34 0 0.68 0 0 Z " fill="#6A28C6" transform="translate(425,167)"/>
<path d="M0 0 C3.30268312 4.4035775 3.34612599 5.03330078 2.8125 10.1875 C2.71582031 11.25355469 2.61914062 12.31960937 2.51953125 13.41796875 C2.34808594 14.27003906 2.17664063 15.12210938 2 16 C1.34 16.33 0.68 16.66 0 17 C0 11.39 0 5.78 0 0 Z " fill="#6F19E7" transform="translate(401,104)"/>
<path d="M0 0 C0.66 0 1.32 0 2 0 C3.125 5.625 3.125 5.625 2 9 C1.01 9.33 0.02 9.66 -1 10 C-1.33 7.36 -1.66 4.72 -2 2 C-1.34 2 -0.68 2 0 2 C0 1.34 0 0.68 0 0 Z " fill="#7613E5" transform="translate(300,150)"/>
<path d="M0 0 C1 3 1 3 0.1796875 5.12109375 C-2.37554679 9.65778217 -4.54497311 13.0724109 -9 16 C-7.30523158 12.47351217 -5.35497316 9.1232876 -3.375 5.75 C-2.74335937 4.67234375 -2.11171875 3.5946875 -1.4609375 2.484375 C-0.73777344 1.25460938 -0.73777344 1.25460938 0 0 Z " fill="#802FC8" transform="translate(55,150)"/>
<path d="M0 0 C1 2 1 2 0.1875 4.625 C-0.204375 5.73875 -0.59625 6.8525 -1 8 C-1.71206678 10.65710826 -2.35444847 13.32557224 -3 16 C-3.33 16 -3.66 16 -4 16 C-4.33 12.7 -4.66 9.4 -5 6 C-4.01 5.67 -3.02 5.34 -2 5 C-0.78130071 2.49552484 -0.78130071 2.49552484 0 0 Z " fill="#6812E9" transform="translate(406,243)"/>
<path d="M0 0 C0.99 0 1.98 0 3 0 C3.19477739 1.62414378 3.38059458 3.24936423 3.5625 4.875 C3.66691406 5.77992188 3.77132813 6.68484375 3.87890625 7.6171875 C4 10 4 10 3 12 C2.01 12 1.02 12 0 12 C-0.08098342 8.43672942 0.14012536 5.43949858 1 2 C0.67 1.34 0.34 0.68 0 0 Z " fill="#6F11F1" transform="translate(409,148)"/>
<path d="M0 0 C2.9375 1.1875 2.9375 1.1875 6 3 C6.875 5.6875 6.875 5.6875 7 8 C5.02 7.34 3.04 6.68 1 6 C0.67 4.02 0.34 2.04 0 0 Z " fill="#6C18D4" transform="translate(266,207)"/>
<path d="M0 0 C0.66 0 1.32 0 2 0 C2.33 0.99 2.66 1.98 3 3 C3.66 3.33 4.32 3.66 5 4 C5.66 4.33 6.32 4.66 7 5 C7.33 5.99 7.66 6.98 8 8 C6.68 8.33 5.36 8.66 4 9 C3.34 8.01 2.68 7.02 2 6 C1.34 5.34 0.68 4.68 0 4 C0 2.68 0 1.36 0 0 Z " fill="#6D13EC" transform="translate(418,162)"/>
<path d="M0 0 C3.18005028 3.88672813 6.10554447 7.89952133 9 12 C6.525 11.01 6.525 11.01 4 10 C4 9.01 4 8.02 4 7 C3.01 6.67 2.02 6.34 1 6 C0.67 4.02 0.34 2.04 0 0 Z " fill="#6D28C2" transform="translate(416,155)"/>
<path d="M0 0 C0.33 0 0.66 0 1 0 C0.63495936 5.66442374 -0.0554321 10.00703705 -3 15 C-3.33 13.68 -3.66 12.36 -4 11 C-3.34 11 -2.68 11 -2 11 C-2.33 9.35 -2.66 7.7 -3 6 C-2.34 6 -1.68 6 -1 6 C-0.67 4.02 -0.34 2.04 0 0 Z " fill="#EED1FE" transform="translate(296,151)"/>
<path d="M0 0 C0.99 0 1.98 0 3 0 C3 1.32 3 2.64 3 4 C3.66 4 4.32 4 5 4 C5.33 6.64 5.66 9.28 6 12 C5.34 12 4.68 12 4 12 C2.68 8.04 1.36 4.08 0 0 Z " fill="#8032E0" transform="translate(294,124)"/>
<path d="M0 0 C0.66 0.66 1.32 1.32 2 2 C0.88200014 3.33920838 -0.24461897 4.67122556 -1.375 6 C-2.00148438 6.7425 -2.62796875 7.485 -3.2734375 8.25 C-3.84320313 8.8275 -4.41296875 9.405 -5 10 C-5.66 10 -6.32 10 -7 10 C-7 9.34 -7 8.68 -7 8 C-6.34 8 -5.68 8 -5 8 C-4.67 6.68 -4.34 5.36 -4 4 C-3.01 4 -2.02 4 -1 4 C-0.67 2.68 -0.34 1.36 0 0 Z " fill="#E8C6FD" transform="translate(289,167)"/>
<path d="M0 0 C0 3 0 3 -1.75 5.04296875 C-2.4925 5.75066406 -3.235 6.45835937 -4 7.1875 C-4.7425 7.90292969 -5.485 8.61835938 -6.25 9.35546875 C-6.8275 9.89816406 -7.405 10.44085938 -8 11 C-8 7.78465943 -7.73523928 6.64417414 -6 4 C-3.4375 2.3125 -3.4375 2.3125 -1 1 C-0.67 0.67 -0.34 0.34 0 0 Z " fill="#6627C3" transform="translate(393,340)"/>
<path d="M0 0 C1.18771723 3.42943519 0.80226223 5.37784675 -0.4375 8.75 C-0.86869141 9.94882813 -0.86869141 9.94882813 -1.30859375 11.171875 C-1.53675781 11.77515625 -1.76492187 12.3784375 -2 13 C-2.66 13 -3.32 13 -4 13 C-3.52140759 11.39566191 -3.04210442 9.79153584 -2.5625 8.1875 C-2.29566406 7.29417969 -2.02882812 6.40085938 -1.75390625 5.48046875 C-1.19612127 3.64526945 -0.60655425 1.81966274 0 0 Z " fill="#7929D1" transform="translate(60,137)"/>
<path d="M0 0 C0 0.33 0 0.66 0 1 C-1.98 1 -3.96 1 -6 1 C-6 1.66 -6 2.32 -6 3 C-7.98 3.33 -9.96 3.66 -12 4 C-12.33 3.34 -12.66 2.68 -13 2 C-8.50343896 -0.24828052 -4.92127034 -0.16682272 0 0 Z " fill="#EFD2FE" transform="translate(273,277)"/>
<path d="M0 0 C0.33 0.66 0.66 1.32 1 2 C0.67 2.66 0.34 3.32 0 4 C-0.66 4 -1.32 4 -2 4 C-2 5.65 -2 7.3 -2 9 C-2.99 8.67 -3.98 8.34 -5 8 C-5 6.02 -5 4.04 -5 2 C-3.68 2.33 -2.36 2.66 -1 3 C-0.67 2.01 -0.34 1.02 0 0 Z " fill="#6C12EB" transform="translate(413,224)"/>
<path d="M0 0 C2.80045623 3.14591933 3.35261589 5.067064 3.1875 9.25 C3.16042969 10.14203125 3.13335937 11.0340625 3.10546875 11.953125 C3.07066406 12.62859375 3.03585937 13.3040625 3 14 C2.34 13.67 1.68 13.34 1 13 C0.5859375 10.05859375 0.5859375 10.05859375 0.375 6.4375 C0.30023438 5.23996094 0.22546875 4.04242188 0.1484375 2.80859375 C0.09945313 1.88175781 0.05046875 0.95492187 0 0 Z " fill="#6C15DE" transform="translate(307,214)"/>
<path d="M0 0 C-0.33 0.66 -0.66 1.32 -1 2 C-3.50390625 2.4140625 -3.50390625 2.4140625 -6.5625 2.625 C-7.57441406 2.69976563 -8.58632812 2.77453125 -9.62890625 2.8515625 C-10.41136719 2.90054687 -11.19382812 2.94953125 -12 3 C-4.82142857 -1.78571429 -4.82142857 -1.78571429 0 0 Z " fill="#8134C7" transform="translate(102,21)"/>
<path d="M0 0 C0.97140086 3.02213602 1.19248372 5.0187907 0 8 C-0.99 8.66 -1.98 9.32 -3 10 C-2.69201674 8.51988629 -2.378482 7.04092675 -2.0625 5.5625 C-1.88847656 4.73878906 -1.71445312 3.91507813 -1.53515625 3.06640625 C-1 1 -1 1 0 0 Z " fill="#6B18D9" transform="translate(306,247)"/>
<path d="M0 0 C0.66 0 1.32 0 2 0 C1.69381595 3.67420866 1.24228216 4.78135513 -1.5625 7.3125 C-2.366875 7.869375 -3.17125 8.42625 -4 9 C-3.67 7.68 -3.34 6.36 -3 5 C-2.34 5 -1.68 5 -1 5 C-0.67 3.35 -0.34 1.7 0 0 Z " fill="#7A2DD6" transform="translate(273,240)"/>
<path d="M0 0 C1.485 0.99 1.485 0.99 3 2 C3 2.66 3 3.32 3 4 C3.66 4 4.32 4 5 4 C5.66 5.65 6.32 7.3 7 9 C4.625 8.4375 4.625 8.4375 2 7 C0.6875 3.375 0.6875 3.375 0 0 Z " fill="#E8C8FD" transform="translate(295,199)"/>
<path d="M0 0 C1.32 0 2.64 0 4 0 C3.67 1.65 3.34 3.3 3 5 C2.34 5 1.68 5 1 5 C1 4.34 1 3.68 1 3 C0.34 2.67 -0.32 2.34 -1 2 C-0.67 1.34 -0.34 0.68 0 0 Z " fill="#6C12E8" transform="translate(443,179)"/>
<path d="M0 0 C1 4 1 4 0 7 C-3.0625 8.1875 -3.0625 8.1875 -6 9 C-4.02 6.03 -2.04 3.06 0 0 Z " fill="#7D35D9" transform="translate(292,166)"/>
<path d="M0 0 C0.33 0.99 0.66 1.98 1 3 C-0.125 5.125 -0.125 5.125 -2 7 C-4.6875 7.75 -4.6875 7.75 -7 8 C-6.02133662 6.85373678 -5.04205413 5.70800212 -4.0625 4.5625 C-3.51722656 3.92441406 -2.97195313 3.28632813 -2.41015625 2.62890625 C-1.63204305 1.73008851 -0.84063472 0.84063472 0 0 Z " fill="#E7C9FD" transform="translate(266,162)"/>
<path d="M0 0 C0.93423645 3.01031744 1.04449911 3.86650268 0 7 C-0.66 7 -1.32 7 -2 7 C-2 7.66 -2 8.32 -2 9 C-2.66 9 -3.32 9 -4 9 C-2.94124926 5.59687262 -1.99097846 2.98646769 0 0 Z " fill="#8331D0" transform="translate(75,37)"/>
<path d="M0 0 C1.32 0.33 2.64 0.66 4 1 C1.36 2.98 -1.28 4.96 -4 7 C-3.67 5.35 -3.34 3.7 -3 2 C-2.01 2 -1.02 2 0 2 C0 1.34 0 0.68 0 0 Z " fill="#5E1EC7" transform="translate(428,205)"/>
<path d="M0 0 C0.66 0.33 1.32 0.66 2 1 C2 1.66 2 2.32 2 3 C3.65 3.33 5.3 3.66 7 4 C3.25 5.125 3.25 5.125 1 4 C0.34 4.66 -0.32 5.32 -1 6 C-1.625 4.125 -1.625 4.125 -2 2 C-1.34 1.34 -0.68 0.68 0 0 Z " fill="#6E12EE" transform="translate(426,170)"/>
<path d="M0 0 C4.40114397 0.50298788 6.71195019 2.08772731 10 5 C6.7 4.34 3.4 3.68 0 3 C0 2.01 0 1.02 0 0 Z " fill="#772FC5" transform="translate(374,22)"/>
<path d="M0 0 C0.33 0 0.66 0 1 0 C1.33 2.64 1.66 5.28 2 8 C1.01 8 0.02 8 -1 8 C-2 6 -2 6 -1.0625 2.875 C-0.5365625 1.451875 -0.5365625 1.451875 0 0 Z " fill="#7B2FDE" transform="translate(307,240)"/>
<path d="M0 0 C1.875 1.25 1.875 1.25 3.875 3.25 C1.875 4.25 1.875 4.25 -0.0703125 3.69140625 C-0.78960937 3.40136719 -1.50890625 3.11132812 -2.25 2.8125 C-2.97445313 2.52503906 -3.69890625 2.23757812 -4.4453125 1.94140625 C-5.27675781 1.59916016 -5.27675781 1.59916016 -6.125 1.25 C-2.69883966 -0.95253165 -2.69883966 -0.95253165 0 0 Z " fill="#8C43E1" transform="translate(284.125,187.75)"/>
<path d="M0 0 C2 2 2 2 2 6 C0.68 6 -0.64 6 -2 6 C-1.125 1.125 -1.125 1.125 0 0 Z " fill="#7713EA" transform="translate(394,40)"/>
<path d="M0 0 C-1.5 1.5625 -1.5 1.5625 -4 3 C-6.77437543 2.96823234 -9.25286467 2.50364148 -12 2 C-12 1.67 -12 1.34 -12 1 C-10.37681021 0.63762737 -8.7513642 0.28534843 -7.125 -0.0625 C-6.22007812 -0.25972656 -5.31515625 -0.45695313 -4.3828125 -0.66015625 C-2 -1 -2 -1 0 0 Z " fill="#D7AEFE" transform="translate(260,256)"/>
<path d="M0 0 C1.32 0.33 2.64 0.66 4 1 C-1.75 5 -1.75 5 -4 5 C-4 4.34 -4 3.68 -4 3 C-2.68 2.67 -1.36 2.34 0 2 C0 1.34 0 0.68 0 0 Z " fill="#E8C8FE" transform="translate(278,177)"/>
<path d="M0 0 C0.66 0.33 1.32 0.66 2 1 C2.59355614 3.64860427 2.74209269 6.29197322 3 9 C0.9375 6.75 0.9375 6.75 -1 4 C-0.75 1.6875 -0.75 1.6875 0 0 Z " fill="#6F12E3" transform="translate(404,127)"/>
<path d="M0 0 C3.3 0 6.6 0 10 0 C8.515 1.485 8.515 1.485 7 3 C4.69 2.34 2.38 1.68 0 1 C0 0.67 0 0.34 0 0 Z " fill="#7815EB" transform="translate(358,21)"/>
</svg>
