<?xml version="1.0" encoding="UTF-8"?>
<svg version="1.1" xmlns="http://www.w3.org/2000/svg" width="216" height="219">
<path d="M0 0 C0.66 0.66 1.32 1.32 2 2 C1.66226563 2.7528125 1.32453125 3.505625 0.9765625 4.28125 C-6.89669266 23.03142991 -6.30081736 42.10019863 1 61 C11.02981833 84.00417049 29.6023103 102.24632498 52.9375 111.4921875 C74.14350536 119.47456168 97.50599871 120.11460462 118.62109375 111.52734375 C126.5221807 107.92975518 136.91553339 102.16893321 141 94 C141.66 94 142.32 94 143 94 C140.05959189 107.69127525 127.73746383 119.91549549 116.6328125 127.6484375 C96.82069921 140.11804235 71.69132894 143.62800667 48.77734375 138.81640625 C24.10596955 131.56420202 1.71843772 115.47916126 -10.99169922 92.88134766 C-20.69005487 74.785578 -25.3527245 55.02062098 -20.9375 34.5625 C-17.4662108 23.26473933 -11.86792504 14.17518623 -4.13671875 5.42578125 C-1.90165725 2.99735158 -1.90165725 2.99735158 0 0 Z " fill="#1268AB" transform="translate(44,56)"/>
<path d="M0 0 C0.66 0.33 1.32 0.66 2 1 C1.6390625 1.77859375 1.278125 2.5571875 0.90625 3.359375 C-4.2882256 15.88383284 -5.26661203 29.33785815 -1.0625 42.375 C6.74320317 61.07340759 19.52883967 73.96081115 38.2109375 81.93359375 C53.0093057 87.59179336 69.28996852 88.40342341 84 82 C90.83567944 78.65918202 98.47829758 74.04340485 102 67 C102.66 67 103.32 67 104 67 C102.30577866 77.65476975 94.30259387 86.5548666 86 93 C70.98260153 103.00138604 54.05238051 104.76051268 36.5390625 102.56640625 C24.23371869 99.91069532 13.2763284 93.34033851 4 85 C3.37738281 84.47019531 2.75476563 83.94039063 2.11328125 83.39453125 C-10.28250056 72.11297702 -15.95052631 56.35831596 -16.93212891 40.06152344 C-17.4444847 24.4991769 -9.28144342 11.81274617 0 0 Z " fill="#1468AA" transform="translate(87,41)"/>
<path d="M0 0 C0.95514676 3.07250006 1.00170571 3.99408687 0.0625 7.25 C-2.51132785 16.33409831 -0.55101993 24.27278682 3.625 32.5 C10.13485467 43.78687032 18.75243994 48.91747998 31 53 C34.22377712 53.30336914 37.45111565 53.32359173 40.6875 53.375 C41.99750977 53.43107422 41.99750977 53.43107422 43.33398438 53.48828125 C51.20624904 53.59410706 55.81201604 50.94888517 61.5 45.6875 C61.995 45.130625 62.49 44.57375 63 44 C63.66 44.33 64.32 44.66 65 45 C59.76619181 53.74283867 53.80339118 60.82270563 43.96875 64.34375 C31.79291752 67.03524981 20.04610341 65.1667176 9.375 58.875 C-0.30212285 52.34157525 -6.14247789 44.17319198 -9.61328125 33.03125 C-11.35819826 23.86602936 -10.22124123 15.08956115 -5.2421875 7.22265625 C-3.54458536 4.77247341 -1.80646966 2.3706821 0 0 Z " fill="#1269AB" transform="translate(122,33)"/>
<path d="M0 0 C0.66 0 1.32 0 2 0 C-0.19441664 10.21775246 -8.27137597 20.25420677 -16 27 C-16.66 27 -17.32 27 -18 27 C-18 26.01 -18 25.02 -18 24 C-17.01 24 -16.02 24 -15 24 C-15 23.34 -15 22.68 -15 22 C-15.99 21.67 -16.98 21.34 -18 21 C-17.34 20.34 -16.68 19.68 -16 19 C-19.63 19.66 -23.26 20.32 -27 21 C-26.505 22.485 -26.505 22.485 -26 24 C-26.99 24.495 -26.99 24.495 -28 25 C-28.66 24.67 -29.32 24.34 -30 24 C-34.14503661 23.75212983 -34.14503661 23.75212983 -38 25 C-42.56828204 25.21182418 -47.14024478 25.18579675 -51.71289062 25.18530273 C-53.99107477 25.18749143 -56.26877643 25.20565804 -58.546875 25.22460938 C-59.98958167 25.22754293 -61.43229065 25.22952798 -62.875 25.23046875 C-64.19242187 25.23457764 -65.50984375 25.23868652 -66.8671875 25.24291992 C-70 25 -70 25 -72 23 C-70.70920532 23.0314209 -70.70920532 23.0314209 -69.39233398 23.06347656 C-47.26370548 24.06323179 -47.26370548 24.06323179 -26 19 C-24.21529297 18.27103516 -24.21529297 18.27103516 -22.39453125 17.52734375 C-14.44951702 14.03526238 -4.062292 8.12458399 0 0 Z " fill="#22679D" transform="translate(185,150)"/>
<path d="M0 0 C0.66 0 1.32 0 2 0 C0.26199561 10.93011651 -7.95975257 19.00425601 -16 26 C-18.3359375 27.3125 -18.3359375 27.3125 -20 28 C-19.39622642 22.56603774 -19.39622642 22.56603774 -17.6875 20.125 C-16 19 -16 19 -12 19 C-12 17.68 -12 16.36 -12 15 C-13.32 14.67 -14.64 14.34 -16 14 C-15.14728516 13.48953125 -15.14728516 13.48953125 -14.27734375 12.96875 C-9.08606256 9.71011607 -5.21869307 6.3470026 -1.41015625 1.5390625 C-0.71212891 0.77722656 -0.71212891 0.77722656 0 0 Z " fill="#1E66A2" transform="translate(189,108)"/>
<path d="M0 0 C0.66 0.66 1.32 1.32 2 2 C1.49339844 3.19882812 1.49339844 3.19882812 0.9765625 4.421875 C-2.06642412 11.91500967 -4.03079867 18.97154119 -5 27 C-5.66 27 -6.32 27 -7 27 C-7.33 25.35 -7.66 23.7 -8 22 C-10.34533951 21.23043864 -10.34533951 21.23043864 -13 21 C-14.8354799 22.33378575 -14.8354799 22.33378575 -16 24 C-14.58719993 18.30464971 -11.68568573 14.70663711 -8 10.3125 C-6.9157621 8.99683868 -5.83239435 7.68045967 -4.75 6.36328125 C-4.27046875 5.78876221 -3.7909375 5.21424316 -3.296875 4.62231445 C-2.11516085 3.14405945 -1.04978916 1.57468375 0 0 Z " fill="#1965A6" transform="translate(44,56)"/>
<path d="M0 0 C0.66 0.33 1.32 0.66 2 1 C-1.84811247 7.42809697 -6.67116891 15.3660727 -14.2421875 17.6875 C-14.82226562 17.790625 -15.40234375 17.89375 -16 18 C-15.67 17.34 -15.34 16.68 -15 16 C-14.34 16 -13.68 16 -13 16 C-13 15.01 -13 14.02 -13 13 C-15.64 12.67 -18.28 12.34 -21 12 C-20.67 11.34 -20.34 10.68 -20 10 C-17.92578125 9.5078125 -17.92578125 9.5078125 -15.3125 9.125 C-8.68817536 7.91542289 -4.55012579 4.90013547 0 0 Z " fill="#2168A0" transform="translate(185,77)"/>
<path d="M0 0 C1.16700635 2.91751587 0.95467375 4.15713101 0.0625 7.25 C-2.08490642 14.82908148 -1.40214442 22.43739033 2.28125 29.43359375 C3.18851092 31.00869951 4.11810625 32.57124784 5.07421875 34.1171875 C5.37972656 34.73851562 5.68523437 35.35984375 6 36 C5.67 36.66 5.34 37.32 5 38 C3.68 38 2.36 38 1 38 C0 35 0 35 0 31 C-0.7425 29.6078125 -0.7425 29.6078125 -1.5 28.1875 C-4.22219044 22.38527249 -3.2178778 15.27003888 -3 9 C-3.66 9 -4.32 9 -5 9 C-3.7508258 5.54074837 -2.32472205 2.85306797 0 0 Z " fill="#286698" transform="translate(122,33)"/>
<path d="M0 0 C0.66 0.33 1.32 0.66 2 1 C1.65066406 1.79019531 1.30132812 2.58039062 0.94140625 3.39453125 C-3.17842997 13.60658987 -3.87157097 23.04850673 -4 34 C-4.33 34 -4.66 34 -5 34 C-5 26.74 -5 19.48 -5 12 C-5.66 12 -6.32 12 -7 12 C-5.44298069 7.32894208 -2.91552627 3.91294315 0 0 Z " fill="#286694" transform="translate(87,41)"/>
<path d="M0 0 C0.66 0.66 1.32 1.32 2 2 C1.21086057 4.08429193 0.41859037 6.16739869 -0.375 8.25 C-0.81585938 9.41015625 -1.25671875 10.5703125 -1.7109375 11.765625 C-2.70590855 14.26209781 -3.74410046 16.62904947 -5 19 C-5 16.69 -5 14.38 -5 12 C-5.99 12 -6.98 12 -8 12 C-6.59023295 8.96147295 -4.91129772 6.4060405 -2.875 3.75 C-2.06675781 2.69039062 -2.06675781 2.69039062 -1.2421875 1.609375 C-0.83226562 1.07828125 -0.42234375 0.5471875 0 0 Z " fill="#25679C" transform="translate(44,56)"/>
<path d="M0 0 C1 2 1 2 1 5 C1.66 5 2.32 5 3 5 C3.99 6.485 3.99 6.485 5 8 C5.99 8 6.98 8 8 8 C8 11 8 14 8 17 C6.53308542 15.44555348 5.07679359 13.88107825 3.625 12.3125 C2.81289063 11.44238281 2.00078125 10.57226562 1.1640625 9.67578125 C-0.88977509 7.13628893 -1.9900668 5.07974134 -3 2 C-2.01 1.34 -1.02 0.68 0 0 Z " fill="#1C669E" transform="translate(39,150)"/>
<path d="M0 0 C0.33 0.99 0.66 1.98 1 3 C9.82679919 4.6928108 19.16197094 4.68343411 28 3 C23.81432384 7.18567616 17.80318013 6.2414315 12.22607422 6.25537109 C5.82394587 6.16950486 -1.27150228 5.72849772 -6 1 C-4.02 0.67 -2.04 0.34 0 0 Z " fill="#2A6497" transform="translate(141,92)"/>
<path d="M0 0 C4.52515959 2.20515391 8.92568 4.65336191 13.3359375 7.078125 C17.1445211 9.13598872 20.8286604 10.76022105 25 12 C19.75973878 13.83050221 15.75711665 11.27367169 11 9 C1.29048414 3.87145242 1.29048414 3.87145242 0 0 Z " fill="#296797" transform="translate(106,113)"/>
<path d="M0 0 C0.66 0 1.32 0 2 0 C1.32902328 4.19360449 -0.8558394 7.40334352 -3 11 C-3.33 10.34 -3.66 9.68 -4 9 C-4.78375 9.515625 -5.5675 10.03125 -6.375 10.5625 C-7.24125 11.036875 -8.1075 11.51125 -9 12 C-9.66 11.67 -10.32 11.34 -11 11 C-10.28972656 10.37351563 -9.57945312 9.74703125 -8.84765625 9.1015625 C-7.46900391 7.87566406 -7.46900391 7.87566406 -6.0625 6.625 C-5.14597656 5.81289062 -4.22945312 5.00078125 -3.28515625 4.1640625 C-0.96398605 2.21290653 -0.96398605 2.21290653 0 0 Z " fill="#316B99" transform="translate(185,150)"/>
<path d="M0 0 C3.06655481 1.53327741 3.16253344 3.94234787 4.25 7.125 C6.3837754 12.91485624 8.65887358 16.65887358 13 21 C12.67 21.66 12.34 22.32 12 23 C5.72324722 16.68706997 0 9.22408145 0 0 Z " fill="#286695" transform="translate(113,64)"/>
<path d="M0 0 C0.66 0.33 1.32 0.66 2 1 C1.04737966 2.48285242 0.08771595 3.96118201 -0.875 5.4375 C-1.67550781 6.67306641 -1.67550781 6.67306641 -2.4921875 7.93359375 C-4 10 -4 10 -6 11 C-6.33 10.34 -6.66 9.68 -7 9 C-8.65 9.33 -10.3 9.66 -12 10 C-11.42765625 9.58105469 -10.8553125 9.16210938 -10.265625 8.73046875 C-8.00791958 7.00604892 -5.87881944 5.19295717 -3.75 3.3125 C-2.69039062 2.37857422 -2.69039062 2.37857422 -1.609375 1.42578125 C-1.07828125 0.95527344 -0.5471875 0.48476562 0 0 Z " fill="#31648F" transform="translate(185,77)"/>
<path d="M0 0 C0.66 0 1.32 0 2 0 C1.42365861 4.75481646 -0.55068521 7.97048212 -3 12 C-3.33 11.01 -3.66 10.02 -4 9 C-4.99 8.67 -5.98 8.34 -7 8 C-5.88200014 6.66079162 -4.75538103 5.32877444 -3.625 4 C-2.68527344 2.88625 -2.68527344 2.88625 -1.7265625 1.75 C-1.15679687 1.1725 -0.58703125 0.595 0 0 Z " fill="#316794" transform="translate(189,108)"/>
<path d="M0 0 C1.53720703 0.52400391 1.53720703 0.52400391 3.10546875 1.05859375 C4.46609137 1.51839036 5.82677151 1.9780168 7.1875 2.4375 C8.19780273 2.78264648 8.19780273 2.78264648 9.22851562 3.13476562 C12.79514491 4.33524085 16.2871161 5.37277495 20 6 C19.67 6.66 19.34 7.32 19 8 C16.03 7.67 13.06 7.34 10 7 C10 6.34 10 5.68 10 5 C9.36191406 4.89042969 8.72382812 4.78085938 8.06640625 4.66796875 C7.24011719 4.50941406 6.41382812 4.35085937 5.5625 4.1875 C4.73878906 4.03667969 3.91507812 3.88585937 3.06640625 3.73046875 C2.38449219 3.48941406 1.70257813 3.24835938 1 3 C0.67 2.01 0.34 1.02 0 0 Z " fill="#266899" transform="translate(92,166)"/>
<path d="M0 0 C1.79398267 0.95399078 3.58511655 1.91334026 5.375 2.875 C6.37273437 3.40867188 7.37046875 3.94234375 8.3984375 4.4921875 C11 6 11 6 13 8 C10.69 8.33 8.38 8.66 6 9 C6 8.34 6 7.68 6 7 C5.01 6.34 4.02 5.68 3 5 C3 4.34 3 3.68 3 3 C2.01 2.67 1.02 2.34 0 2 C0 1.34 0 0.68 0 0 Z " fill="#23659C" transform="translate(78,158)"/>
<path d="M0 0 C1.32 0.33 2.64 0.66 4 1 C4 4.3 4 7.6 4 11 C3.01 11.495 3.01 11.495 2 12 C1.34 8.04 0.68 4.08 0 0 Z " fill="#0E66B2" transform="translate(114,45)"/>
<path d="M0 0 C5.28 0.66 10.56 1.32 16 2 C12.79619983 4.13586678 11.98060033 4.23132175 8.3125 4.125 C7.50425781 4.10695313 6.69601563 4.08890625 5.86328125 4.0703125 C4.94095703 4.03550781 4.94095703 4.03550781 4 4 C4 3.34 4 2.68 4 2 C2.68 2 1.36 2 0 2 C0 1.34 0 0.68 0 0 Z " fill="#2A689C" transform="translate(147,85)"/>
<path d="M0 0 C0.99 0 1.98 0 3 0 C3.69289369 3.72430357 4.11144596 7.21083746 4 11 C1.55160412 7.32740617 0 4.45351799 0 0 Z " fill="#1F669B" transform="translate(25,128)"/>
<path d="M0 0 C2.0343459 1.41519715 2.90410393 2.54982123 3.421875 4.98046875 C3.66273952 6.98176954 3.83532741 8.9909944 4 11 C1.66666177 8.87878343 0.0851114 6.98405635 -1 4 C-0.625 1.75 -0.625 1.75 0 0 Z " fill="#1E639B" transform="translate(76,100)"/>
<path d="M0 0 C0.66 0.33 1.32 0.66 2 1 C0.68 4.3 -0.64 7.6 -2 11 C-2.33 10.01 -2.66 9.02 -3 8 C-3.66 7.67 -4.32 7.34 -5 7 C-3.35 4.69 -1.7 2.38 0 0 Z " fill="#3C689A" transform="translate(87,41)"/>
<path d="M0 0 C0.33 0 0.66 0 1 0 C1.04254356 1.99954746 1.04080783 4.00041636 1 6 C0.67 6.33 0.34 6.66 0 7 C-0.23287008 8.68183948 -0.41264166 10.3712416 -0.5625 12.0625 C-0.64628906 12.98160156 -0.73007813 13.90070312 -0.81640625 14.84765625 C-0.87699219 15.55792969 -0.93757813 16.26820312 -1 17 C-1.33 17 -1.66 17 -2 17 C-2.05441656 15.10448978 -2.09298035 13.2085208 -2.125 11.3125 C-2.14820312 10.25675781 -2.17140625 9.20101562 -2.1953125 8.11328125 C-1.99858729 4.97748141 -1.33057654 2.82354627 0 0 Z " fill="#286695" transform="translate(114,47)"/>
<path d="M0 0 C1.60080151 4.00200378 0.29279692 7.04556236 -1 11 C-1.33 10.01 -1.66 9.02 -2 8 C-2.99 8.33 -3.98 8.66 -5 9 C-3.7508258 5.54074837 -2.32472205 2.85306797 0 0 Z " fill="#376691" transform="translate(122,33)"/>
<path d="M0 0 C1.90318884 2.85478326 2.4619099 4.41941308 3.125 7.6875 C3.29257813 8.49574219 3.46015625 9.30398437 3.6328125 10.13671875 C3.75398438 10.75160156 3.87515625 11.36648437 4 12 C2 11.0625 2 11.0625 0 9 C-0.36475845 5.97465051 -0.22893297 3.03336186 0 0 Z " fill="#226796" transform="translate(83,76)"/>
<path d="M0 0 C1.32 0 2.64 0 4 0 C4 0.66 4 1.32 4 2 C5.32 2.33 6.64 2.66 8 3 C8 2.34 8 1.68 8 1 C8.66 1.33 9.32 1.66 10 2 C9.67 3.32 9.34 4.64 9 6 C5.06326356 4.68775452 2.77280706 3.08089673 0 0 Z " fill="#216899" transform="translate(126,87)"/>
<path d="M0 0 C3.08089673 2.77280706 4.68775452 5.06326356 6 9 C5.38125 8.814375 4.7625 8.62875 4.125 8.4375 C1.95839822 7.76313824 1.95839822 7.76313824 0 9 C0.185625 8.071875 0.37125 7.14375 0.5625 6.1875 C1.24123881 2.98656229 1.24123881 2.98656229 0 0 Z " fill="#1C669D" transform="translate(122,62)"/>
<path d="M0 0 C5 2 5 2 10 4 C10 4.99 10 5.98 10 7 C5.56541027 5.6062718 3.12621626 3.39417765 0 0 Z " fill="#296594" transform="translate(58,176)"/>
<path d="M0 0 C2.38672669 2.96283313 4.7353371 5.94270509 7 9 C6.67 9.66 6.34 10.32 6 11 C3 9 3 9 2.3125 6.375 C2.209375 5.59125 2.10625 4.8075 2 4 C1.34 4 0.68 4 0 4 C0 2.68 0 1.36 0 0 Z " fill="#226792" transform="translate(89,92)"/>
<path d="M0 0 C1.32 0.33 2.64 0.66 4 1 C3.67 2.65 3.34 4.3 3 6 C1.35 5.01 -0.3 4.02 -2 3 C-1.34 2.01 -0.68 1.02 0 0 Z " fill="#126AB0" transform="translate(172,164)"/>
<path d="M0 0 C0.33 0.99 0.66 1.98 1 3 C3.01508358 3.73323796 3.01508358 3.73323796 5 4 C-1.4 4.36923077 -1.4 4.36923077 -4.4375 2.5 C-4.953125 2.005 -5.46875 1.51 -6 1 C-4.02 0.67 -2.04 0.34 0 0 Z " fill="#1E689D" transform="translate(141,92)"/>
<path d="M0 0 C2.64 0.33 5.28 0.66 8 1 C4.55549263 3.29633824 2.06187717 3.54016485 -2 4 C-1.34 3.67 -0.68 3.34 0 3 C0 2.01 0 1.02 0 0 Z " fill="#276A9B" transform="translate(154,138)"/>
<path d="M0 0 C0.66 0.66 1.32 1.32 2 2 C1.01 4.31 0.02 6.62 -1 9 C-1.33 8.01 -1.66 7.02 -2 6 C-2.66 5.67 -3.32 5.34 -4 5 C-2.68 3.35 -1.36 1.7 0 0 Z " fill="#3E6B99" transform="translate(44,56)"/>
<path d="M0 0 C0 3 0 3 -2.5 5.6875 C-3.325 6.450625 -4.15 7.21375 -5 8 C-5 6.68 -5 5.36 -5 4 C-2.5 1.75 -2.5 1.75 0 0 Z " fill="#286798" transform="translate(180,161)"/>
</svg>
