<?xml version="1.0" encoding="UTF-8"?>
<svg version="1.1" xmlns="http://www.w3.org/2000/svg" width="639" height="390">
<path d="M0 0 C0.90363281 0.20898926 1.80726563 0.41797852 2.73828125 0.63330078 C45.2240321 10.77609001 75.28047708 37.86338196 105.06689453 68.1628418 C112.7111057 75.9294143 120.3247892 83.3723714 129 90 C129.62406738 90.47783936 130.24813477 90.95567871 130.89111328 91.44799805 C140.76227313 98.81389925 151.02097368 104.08527208 163 107 C163.68416992 107.16918945 164.36833984 107.33837891 165.07324219 107.51269531 C189.86276938 113.11615091 214.87345601 108.42038669 236.19921875 94.984375 C241.551452 91.19227669 246.44658422 86.9598123 251.22265625 82.46875 C253 81 253 81 255 81 C255 80.34 255 79.68 255 79 C255.66 79 256.32 79 257 79 C257.26296875 78.40703125 257.5259375 77.8140625 257.796875 77.203125 C259.05402509 74.90107093 260.33587918 73.52616617 262.25 71.75 C265.52711201 68.59603625 268.15218508 65.237804 270.73828125 61.50390625 C271.15464844 61.00761719 271.57101562 60.51132813 272 60 C272.66 60 273.32 60 274 60 C272.72836596 67.6669555 270.54422513 74.77383058 267.875 82.0625 C267.27449829 83.70786743 267.27449829 83.70786743 266.66186523 85.38647461 C259.32952925 105.15322435 249.96980823 123.06995225 236 139 C235.30519531 139.82757813 234.61039062 140.65515625 233.89453125 141.5078125 C214.79330306 163.70559681 188.24267461 177.43163485 160 184 C158.7315625 184.29648437 157.463125 184.59296875 156.15625 184.8984375 C110.17034913 194.49466888 57.38775552 189.12708534 17 164 C7.94598377 158.05615657 -0.78977013 151.64722903 -8.6640625 144.1953125 C-10.62952582 142.34817139 -12.63174892 140.58939554 -14.67675781 138.83251953 C-18.80943029 135.22249844 -22.67341184 131.40654562 -26.5078125 127.484375 C-27.92157199 126.05308606 -29.33564466 124.62210639 -30.75 123.19140625 C-32.93154965 120.97912368 -35.11068034 118.76462729 -37.28417969 116.54443359 C-60.4723198 92.88662019 -84.36749935 74.92636102 -118.875 74.5625 C-146.82595128 74.7039632 -169.35754567 86.76374118 -189 106 C-189.73863281 106.69996094 -190.47726563 107.39992188 -191.23828125 108.12109375 C-195.73726108 112.46282768 -199.62149552 117.14026032 -203.43359375 122.09375 C-203.95050781 122.7228125 -204.46742188 123.351875 -205 124 C-205.33 124 -205.66 124 -206 124 C-205.50593778 116.11175229 -203.3619913 109.28701577 -200.6875 101.875 C-200.24599609 100.64958496 -199.80449219 99.42416992 -199.34960938 98.16162109 C-190.90904329 75.21867855 -178.92092203 55.54669578 -162 38 C-161.27296875 37.20980469 -160.5459375 36.41960937 -159.796875 35.60546875 C-153.58349357 29.03539321 -146.47650388 24.01214358 -139 19 C-138.19046875 18.44441406 -137.3809375 17.88882813 -136.546875 17.31640625 C-123.2040512 8.7088853 -107.40360038 3.45189854 -92 0 C-90.73978027 -0.29414795 -90.73978027 -0.29414795 -89.45410156 -0.59423828 C-61.02867444 -6.96365883 -28.32399676 -6.72540316 0 0 Z " fill="#38BCF7" transform="translate(206,195)"/>
<path d="M0 0 C3.00745969 0.01610355 6.01357623 0.00003158 9.02099609 -0.01904297 C25.41458728 -0.03787108 41.57869054 1.3717872 57.32177734 6.20361328 C58.19157227 6.46295654 59.06136719 6.7222998 59.95751953 6.98950195 C77.24260328 12.26008269 93.29632635 19.8049096 108.13427734 30.14111328 C108.75351074 30.56924316 109.37274414 30.99737305 110.01074219 31.43847656 C124.29122818 41.70132264 136.64621289 54.28014038 148.94677734 66.76611328 C151.18681523 69.03402138 153.42843849 71.30030776 155.67311096 73.56362915 C157.05291161 74.9554354 158.43003864 76.34990002 159.80381775 77.74765015 C170.70400467 88.76053261 182.5647633 98.49291665 196.50927734 105.39111328 C197.24533203 105.77009766 197.98138672 106.14908203 198.73974609 106.53955078 C218.37151899 116.05148446 243.36223532 115.7167828 263.82958984 109.35986328 C275.79444922 105.09287729 286.86837035 98.65726571 296.50927734 90.39111328 C297.30720703 89.71435547 298.10513672 89.03759766 298.92724609 88.34033203 C306.19120787 81.99985067 313.40046866 75.1777808 318.67333984 67.05908203 C319.27919922 66.17865234 319.88505859 65.29822266 320.50927734 64.39111328 C321.16927734 64.39111328 321.82927734 64.39111328 322.50927734 64.39111328 C321.93269077 70.64707762 320.52611803 76.20062104 318.50927734 82.14111328 C318.20094971 83.0521582 317.89262207 83.96320313 317.57495117 84.90185547 C310.6802855 104.759314 301.51817147 124.51802189 287.50927734 140.39111328 C286.77837891 141.23029297 286.04748047 142.06947266 285.29443359 142.93408203 C283.0657373 145.45231836 280.79792443 147.92735619 278.50927734 150.39111328 C277.90857422 151.05755859 277.30787109 151.72400391 276.68896484 152.41064453 C251.35862314 179.33098604 211.39604413 191.36178721 175.37988281 192.54785156 C143.69075066 193.3548272 143.69075066 193.3548272 128.50927734 190.39111328 C127.67605957 190.22981934 126.8428418 190.06852539 125.984375 189.90234375 C98.59687378 184.43461603 73.63668515 174.8204345 51.50927734 157.39111328 C50.59791016 156.68857422 49.68654297 155.98603516 48.74755859 155.26220703 C38.00515067 146.74669243 28.22073461 137.16005589 18.59130859 127.42626953 C17.96838928 126.7979422 17.34546997 126.16961487 16.70367432 125.52224731 C13.55527491 122.34537946 10.4157357 119.16061208 7.29101562 115.96044922 C-14.21097313 94.09524074 -38.28336618 78.75283481 -69.80322266 78.07861328 C-98.71381222 79.00471852 -122.57687314 91.93799802 -142.49072266 112.39111328 C-147.12308692 117.45617886 -151.68090415 122.67638553 -155.49072266 128.39111328 C-156.15072266 128.39111328 -156.81072266 128.39111328 -157.49072266 128.39111328 C-148.45783308 84.49126994 -124.91901952 46.12090618 -87.46728516 21.39501953 C-76.18690112 14.45681072 -63.82911006 9.89246185 -51.17822266 6.14111328 C-50.4106665 5.90706787 -49.64311035 5.67302246 -48.85229492 5.43188477 C-32.84926325 0.91164781 -16.54448538 -0.10493331 0 0 Z " fill="#38BCF7" transform="translate(316.49072265625,-0.39111328125)"/>
<path d="M0 0 C0.66 0 1.32 0 2 0 C0.70830761 7.96076855 -1.67139134 15.31400509 -4.4375 22.875 C-4.83259766 23.98875 -5.22769531 25.1025 -5.63476562 26.25 C-8.87767926 35.2071325 -8.87767926 35.2071325 -12 39 C-12.6875 36.75 -12.6875 36.75 -13 34 C-11.5625 31.6875 -11.5625 31.6875 -10 30 C-11.32 30.33 -12.64 30.66 -14 31 C-14 28.36 -14 25.72 -14 23 C-14.75925781 23.56589844 -15.51851563 24.13179688 -16.30078125 24.71484375 C-17.29464844 25.44832031 -18.28851563 26.18179687 -19.3125 26.9375 C-20.29863281 27.66839844 -21.28476562 28.39929688 -22.30078125 29.15234375 C-25 31 -25 31 -28 32 C-28.639375 32.70125 -29.27875 33.4025 -29.9375 34.125 C-30.9584375 35.053125 -30.9584375 35.053125 -32 36 C-34.12890625 35.6171875 -34.12890625 35.6171875 -36 35 C-35.10796875 34.32453125 -34.2159375 33.6490625 -33.296875 32.953125 C-32.11446376 32.05224025 -30.93217876 31.1511898 -29.75 30.25 C-29.16347656 29.8065625 -28.57695312 29.363125 -27.97265625 28.90625 C-25.38205552 26.92691461 -22.99863134 24.99861272 -20.703125 22.671875 C-19 21 -19 21 -17 21 C-17 20.34 -17 19.68 -17 19 C-16.34 19 -15.68 19 -15 19 C-14.73703125 18.40703125 -14.4740625 17.8140625 -14.203125 17.203125 C-12.94597491 14.90107093 -11.66412082 13.52616617 -9.75 11.75 C-6.47288799 8.59603625 -3.84781492 5.237804 -1.26171875 1.50390625 C-0.63716797 0.75947266 -0.63716797 0.75947266 0 0 Z " fill="#3CBEF5" transform="translate(478,255)"/>
<path d="M0 0 C0.33 0 0.66 0 1 0 C0.67 2.64 0.34 5.28 0 8 C1.32 8.33 2.64 8.66 4 9 C3.01 10.485 3.01 10.485 2 12 C3.65 12.99 5.3 13.98 7 15 C6.21625 15.9075 5.4325 16.815 4.625 17.75 C2.52647443 20.19073118 0.45640107 22.65215263 -1.58984375 25.13671875 C-2.26297607 25.95221191 -2.26297607 25.95221191 -2.94970703 26.78417969 C-3.85549179 27.88306439 -4.75883165 28.98396912 -5.65966797 30.08691406 C-6.75125774 31.40961944 -7.87294092 32.70738422 -9 34 C-9.33 34 -9.66 34 -10 34 C-9.53684716 26.059034 -7.23035562 19.34947364 -4.4375 11.9375 C-4.01275391 10.78572266 -3.58800781 9.63394531 -3.15039062 8.44726562 C-2.10926067 5.62802609 -1.05898188 2.81257165 0 0 Z " fill="#42BCF2" transform="translate(10,285)"/>
<path d="M0 0 C2.97131772 2.10770302 4.59284684 3.59937986 6 7 C6.99 7 7.98 7 9 7 C9.99 7 10.98 7 12 7 C11.071875 7.86625 10.14375 8.7325 9.1875 9.625 C4.91494442 13.8537794 1.33441809 18.57662443 -2.2668457 23.37548828 C-3.46751828 24.95127795 -4.72904231 26.48033086 -6 28 C-6.66 28 -7.32 28 -8 28 C-6.64909235 21.50121609 -4.92169754 15.24896681 -2.875 8.9375 C-2.45927734 7.6390918 -2.45927734 7.6390918 -2.03515625 6.31445312 C-1.36031038 4.2084686 -0.68188659 2.10371313 0 0 Z " fill="#3FBBF2" transform="translate(167,100)"/>
<path d="M0 0 C0.66 0 1.32 0 2 0 C0.72404757 7.6834064 -1.49026212 14.80731811 -4.125 22.125 C-4.68380859 23.7028125 -4.68380859 23.7028125 -5.25390625 25.3125 C-6.16321807 27.87722564 -7.07865751 30.43957707 -8 33 C-8.33 33 -8.66 33 -9 33 C-9 30.69 -9 28.38 -9 26 C-8.34 26 -7.68 26 -7 26 C-7 24.35 -7 22.7 -7 21 C-6.34 21 -5.68 21 -5 21 C-5.63979849 18.96758273 -5.63979849 18.96758273 -7 17 C-9.55519921 16.18828772 -9.55519921 16.18828772 -12 16 C-10.5058722 12.58373904 -8.51749146 10.17249532 -6 7.4375 C-3.76639308 5.00270422 -1.83774888 2.75662332 0 0 Z " fill="#4ABBED" transform="translate(478,255)"/>
<path d="M0 0 C1.084021 0.00523682 2.16804199 0.01047363 3.28491211 0.01586914 C4.45473633 0.0190918 5.62456055 0.02231445 6.82983398 0.02563477 C8.0615332 0.03401367 9.29323242 0.04239258 10.56225586 0.05102539 C12.41560547 0.05779297 12.41560547 0.05779297 14.30639648 0.06469727 C17.37089703 0.07652931 20.43530307 0.09301366 23.49975586 0.11352539 C23.49975586 0.77352539 23.49975586 1.43352539 23.49975586 2.11352539 C26.46975586 2.11352539 29.43975586 2.11352539 32.49975586 2.11352539 C32.99475586 3.10352539 32.99475586 3.10352539 33.49975586 4.11352539 C32.84056152 4.04496338 32.18136719 3.97640137 31.50219727 3.90576172 C14.37010678 2.22268827 -1.94387563 2.10894596 -18.50024414 7.11352539 C-20.11479492 7.5756543 -20.11479492 7.5756543 -21.76196289 8.04711914 C-24.01976682 8.70525167 -26.26338823 9.38805861 -28.50024414 10.11352539 C-28.50024414 9.45352539 -28.50024414 8.79352539 -28.50024414 8.11352539 C-27.18024414 8.11352539 -25.86024414 8.11352539 -24.50024414 8.11352539 C-24.50024414 7.45352539 -24.50024414 6.79352539 -24.50024414 6.11352539 C-22.85024414 6.11352539 -21.20024414 6.11352539 -19.50024414 6.11352539 C-19.50024414 5.45352539 -19.50024414 4.79352539 -19.50024414 4.11352539 C-17.19024414 4.11352539 -14.88024414 4.11352539 -12.50024414 4.11352539 C-12.17024414 3.12352539 -11.84024414 2.13352539 -11.50024414 1.11352539 C-10.20086914 1.13415039 -8.90149414 1.15477539 -7.56274414 1.17602539 C-6.20858781 1.19751994 -4.85268331 1.18500738 -3.50024414 1.11352539 C-2.50024414 0.11352539 -2.50024414 0.11352539 0 0 Z " fill="#56BAE6" transform="translate(76.500244140625,266.886474609375)"/>
<path d="M0 0 C5.54074074 1.51111111 5.54074074 1.51111111 7.9375 4.0625 C10.76406319 6.71775633 13.21942016 6.70918617 17 7 C16.67 9.31 16.34 11.62 16 14 C18.97 14.495 18.97 14.495 22 15 C24.125 20.625 24.125 20.625 23 24 C19.72128157 20.74592504 16.44580355 17.48863647 13.17333984 14.22827148 C12.05867476 13.11864792 10.94311557 12.0099218 9.82666016 10.90209961 C8.22585196 9.31336495 6.62824388 7.72147383 5.03125 6.12890625 C4.52815308 5.63097061 4.02505615 5.13303497 3.50671387 4.62001038 C2.31867898 3.43217036 1.15643985 2.21862122 0 1 C0 0.67 0 0.34 0 0 Z " fill="#45BCEF" transform="translate(157,299)"/>
<path d="M0 0 C0 0.66 0 1.32 0 2 C-3 4 -3 4 -6 4 C-6.0825 4.78375 -6.165 5.5675 -6.25 6.375 C-7 9 -7 9 -9.0625 10.3125 C-9.701875 10.539375 -10.34125 10.76625 -11 11 C-11.33 10.67 -11.66 10.34 -12 10 C-12.33 10.66 -12.66 11.32 -13 12 C-12.34 12.33 -11.68 12.66 -11 13 C-14.20773302 16.07407748 -16.86278228 16.37110737 -21.09375 16.75 C-23.36252358 17.04754408 -25.06506858 17.79066786 -27 19 C-9.1875 -0 -9.1875 -0 0 0 Z " fill="#4ABAEC" transform="translate(235,19)"/>
<path d="M0 0 C0.33 0.66 0.66 1.32 1 2 C0.67 2.66 0.34 3.32 0 4 C0.66 4 1.32 4 2 4 C2 4.66 2 5.32 2 6 C1.01 6.66 0.02 7.32 -1 8 C-0.34 9.65 0.32 11.3 1 13 C-2 13 -5 13 -8 13 C-7.67 15.97 -7.34 18.94 -7 22 C-11.75 22.125 -11.75 22.125 -14 21 C-12.53261666 16.69303159 -10.32966207 13.53163004 -7.5625 9.9375 C-6.78003906 8.91527344 -5.99757812 7.89304687 -5.19140625 6.83984375 C-4.46824219 5.90269531 -3.74507812 4.96554688 -3 4 C-1.99754491 2.66851152 -0.99640803 1.33601977 0 0 Z " fill="#43BAEC" transform="translate(198,47)"/>
<path d="M0 0 C0.66 0 1.32 0 2 0 C2.33 2.64 2.66 5.28 3 8 C3.598125 8.0928125 4.19625 8.185625 4.8125 8.28125 C8.12411854 9.36935324 9.39470019 11.69731982 11.4375 14.40625 C13.2486132 16.25358547 14.47903989 16.60881654 17 17 C17.33 18.32 17.66 19.64 18 21 C18.66 21 19.32 21 20 21 C20 21.66 20 22.32 20 23 C15.56764588 20.94883804 12.27947401 18.00297091 8.625 14.8125 C7.97789062 14.26013672 7.33078125 13.70777344 6.6640625 13.13867188 C2.34154486 9.38697058 -1.36829193 5.42438739 -5 1 C-3.68 1 -2.36 1 -1 1 C-0.67 0.67 -0.34 0.34 0 0 Z " fill="#4BBFF0" transform="translate(188,324)"/>
<path d="M0 0 C2.97 0.33 5.94 0.66 9 1 C9 1.33 9 1.66 9 2 C-3.64789845 3.86638043 -16.23054302 4.56564071 -29 5 C-24.63185656 0.63185656 -14.97694761 1.71752596 -9 1.4375 C-8.12988281 1.39431641 -7.25976562 1.35113281 -6.36328125 1.30664062 C-4.24231781 1.20175782 -2.12117567 1.10049925 0 1 C0 0.67 0 0.34 0 0 Z " fill="#57C0EB" transform="translate(347,379)"/>
<path d="M0 0 C0.63164062 0.36351562 1.26328125 0.72703125 1.9140625 1.1015625 C8.43668826 4.76701502 15.03643733 7.83637395 21.93359375 10.703125 C24.34624097 11.72350573 26.67858849 12.79081268 29 14 C24.17639811 14.19294408 20.50353262 13.75747614 16 12 C16 11.34 16 10.68 16 10 C13.36 9.67 10.72 9.34 8 9 C8 8.01 8 7.02 8 6 C3.38492226 4.95785309 3.38492226 4.95785309 -1 6 C-0.67 4.02 -0.34 2.04 0 0 Z " fill="#49B8E9" transform="translate(339,289)"/>
<path d="M0 0 C1.02019573 0.9793879 2.02149805 1.97895449 3 3 C5.10332891 3.71447643 5.10332891 3.71447643 7 4 C7 4.66 7 5.32 7 6 C9.64 6.33 12.28 6.66 15 7 C15 7.33 15 7.66 15 8 C8.3801072 7.47650497 2.68234447 6.15274936 -3.5625 3.9375 C-4.38041016 3.65583984 -5.19832031 3.37417969 -6.04101562 3.08398438 C-8.03023483 2.39764559 -10.0155524 1.7000155 -12 1 C-11.401875 0.855625 -10.80375 0.71125 -10.1875 0.5625 C-3.69230769 -1.10769231 -3.69230769 -1.10769231 0 0 Z " fill="#4CBBE7" transform="translate(420,179)"/>
<path d="M0 0 C-1.43820813 5.03372844 -3.90245515 6.98955889 -8 10 C-8.99 10.33 -9.98 10.66 -11 11 C-11.9590625 12.051875 -11.9590625 12.051875 -12.9375 13.125 C-13.618125 13.74375 -14.29875 14.3625 -15 15 C-17.12890625 14.6171875 -17.12890625 14.6171875 -19 14 C-18.10796875 13.32453125 -17.2159375 12.6490625 -16.296875 11.953125 C-15.11446376 11.05224025 -13.93217876 10.1511898 -12.75 9.25 C-12.16347656 8.8065625 -11.57695312 8.363125 -10.97265625 7.90625 C-8.38205552 5.92691461 -5.99863134 3.99861272 -3.703125 1.671875 C-2 0 -2 0 0 0 Z " fill="#49B9EF" transform="translate(461,276)"/>
<path d="M0 0 C0 3.9308352 -1.33746371 5.00319931 -3.8125 8 C-4.52019531 8.86625 -5.22789062 9.7325 -5.95703125 10.625 C-7.57653444 12.50771116 -9.20945558 14.28288485 -11 16 C-10.56852759 13.49746 -10.35368939 12.29927563 -8.375 10.625 C-7.92125 10.08875 -7.4675 9.5525 -7 9 C-7.32882152 5.94363898 -7.32882152 5.94363898 -8 3 C-7.67 2.34 -7.34 1.68 -7 1 C-5.824375 1.309375 -5.824375 1.309375 -4.625 1.625 C-3.75875 1.74875 -2.8925 1.8725 -2 2 C-1.34 1.34 -0.68 0.68 0 0 Z " fill="#4CB7E9" transform="translate(450,321)"/>
<path d="M0 0 C3.21043882 1.38188453 5.04936365 2.92421903 7.25 5.625 C7.77078125 6.25664063 8.2915625 6.88828125 8.828125 7.5390625 C9.40820312 8.26222656 9.40820312 8.26222656 10 9 C1.42857143 8.28571429 1.42857143 8.28571429 -2 5 C-1.34 3.35 -0.68 1.7 0 0 Z " fill="#46BAEC" transform="translate(443,46)"/>
<path d="M0 0 C2.97 0 5.94 0 9 0 C9 0.66 9 1.32 9 2 C10.13888672 2.09087891 10.13888672 2.09087891 11.30078125 2.18359375 C12.29464844 2.26738281 13.28851563 2.35117188 14.3125 2.4375 C15.29863281 2.51871094 16.28476562 2.59992188 17.30078125 2.68359375 C20 3 20 3 23 4 C22.34 4 21.68 4 21 4 C21.33 5.32 21.66 6.64 22 8 C17.17500801 6.43513773 12.43063236 4.6866916 7.68359375 2.90234375 C5.12942277 2.0435177 2.65113407 1.46502713 0 1 C0 0.67 0 0.34 0 0 Z " fill="#58B9E1" transform="translate(267,79)"/>
<path d="M0 0 C0.33 0 0.66 0 1 0 C0.42934122 6.41991126 -1.67344909 12.01589463 -4 18 C-3.01 18.33 -2.02 18.66 -1 19 C-2.65 20.65 -4.3 22.3 -6 24 C-5.55052002 15.45988044 -2.85091417 7.98466367 0 0 Z " fill="#5BBCE3" transform="translate(6,295)"/>
<path d="M0 0 C0 0.99 0 1.98 0 3 C1.65 3 3.3 3 5 3 C5.33 3.66 5.66 4.32 6 5 C-0.49850211 4.48446121 -6.66226532 3.53332291 -13 2 C-13 1.67 -13 1.34 -13 1 C-8.62426048 0.40667939 -4.42471556 -0.13827236 0 0 Z " fill="#53BEEC" transform="translate(282,376)"/>
<path d="M0 0 C0.66 0.33 1.32 0.66 2 1 C-0.32537671 5.52156583 -2.86785295 8.13279593 -7 11 C-8.32 10.67 -9.64 10.34 -11 10 C-5.555 5.05 -5.555 5.05 0 0 Z " fill="#4FB9E3" transform="translate(58,220)"/>
<path d="M0 0 C0.33 0 0.66 0 1 0 C1.66 2.64 2.32 5.28 3 8 C0 9 -3 10 -6 11 C-4.55007731 6.89188572 -2.54592427 3.53144334 0 0 Z " fill="#48BAEB" transform="translate(28,252)"/>
<path d="M0 0 C7.48291572 6.15034169 7.48291572 6.15034169 10 10 C5.545 9.01 5.545 9.01 1 8 C0 4 0 4 0 0 Z " fill="#46B8E8" transform="translate(459,61)"/>
<path d="M0 0 C0.99 0.495 0.99 0.495 2 1 C5.86061033 2.28687011 8.94150283 2.13757618 13 2 C12.67 2.66 12.34 3.32 12 4 C11.01 4 10.02 4 9 4 C9 4.66 9 5.32 9 6 C10.98 6 12.96 6 15 6 C15 6.99 15 7.98 15 9 C10.74502732 8.44800354 8.14602576 7.00038603 4.6875 4.5 C3.80449219 3.8709375 2.92148438 3.241875 2.01171875 2.59375 C1.34785156 2.0678125 0.68398437 1.541875 0 1 C0 0.67 0 0.34 0 0 Z " fill="#4BBEEA" transform="translate(215,352)"/>
<path d="M0 0 C7.35012956 0.57648075 14.01424576 2.71046164 21 5 C21 5.33 21 5.66 21 6 C15.57878002 6.27908468 11.62142765 5.42721053 6.5625 3.5 C5.92634766 3.26152344 5.29019531 3.02304688 4.63476562 2.77734375 C3.08597268 2.19509076 1.54239747 1.59898931 0 1 C0 0.67 0 0.34 0 0 Z " fill="#53B7E1" transform="translate(202,195)"/>
<path d="M0 0 C1.32 0.33 2.64 0.66 4 1 C0.04 4.96 -3.92 8.92 -8 13 C-8 10 -8 10 -7 7 C-6.34 7 -5.68 7 -5 7 C-5 6.34 -5 5.68 -5 5 C-4.01 5 -3.02 5 -2 5 C-2 4.01 -2 3.02 -2 2 C-1.34 2 -0.68 2 0 2 C0 1.34 0 0.68 0 0 Z " fill="#52B9E9" transform="translate(596,144)"/>
<path d="M0 0 C6.09534117 2.88210297 11.62961655 5.91383868 17 10 C15 11 15 11 12 10.25 C9 9 9 9 7 6 C5.66923011 5.65657551 4.33568021 5.32380126 3 5 C1.25 3.5625 1.25 3.5625 0 2 C0 1.34 0 0.68 0 0 Z " fill="#51B8E4" transform="translate(249,212)"/>
<path d="M0 0 C-2.29032311 0.83719383 -4.58210957 1.6698929 -6.875 2.5 C-7.52597656 2.73847656 -8.17695313 2.97695313 -8.84765625 3.22265625 C-13.7734375 5 -13.7734375 5 -16 5 C-16 4.34 -16 3.68 -16 3 C-15.34 3 -14.68 3 -14 3 C-14 2.34 -14 1.68 -14 1 C-12.41913952 0.63495397 -10.83516093 0.28339494 -9.25 -0.0625 C-8.36828125 -0.25972656 -7.4865625 -0.45695312 -6.578125 -0.66015625 C-4.01320972 -0.99825872 -2.42908361 -0.81158635 0 0 Z " fill="#51BCEC" transform="translate(394,370)"/>
<path d="M0 0 C1.35607001 0.90404667 2.71183735 1.80854945 4.06640625 2.71484375 C5.50707924 3.67238196 6.95330035 4.62158283 8.40234375 5.56640625 C9.21832031 6.10136719 10.03429687 6.63632813 10.875 7.1875 C11.65617187 7.69667969 12.43734375 8.20585938 13.2421875 8.73046875 C13.82226562 9.14941406 14.40234375 9.56835938 15 10 C15 10.33 15 10.66 15 11 C13.02 11.33 11.04 11.66 9 12 C8.60167969 11.44570312 8.20335937 10.89140625 7.79296875 10.3203125 C7.26316406 9.59585938 6.73335938 8.87140625 6.1875 8.125 C5.66542969 7.40570313 5.14335937 6.68640625 4.60546875 5.9453125 C2.96727223 3.76971345 2.96727223 3.76971345 0 2 C0 1.34 0 0.68 0 0 Z " fill="#4FB8E7" transform="translate(489,90)"/>
<path d="M0 0 C1.11375 0.598125 2.2275 1.19625 3.375 1.8125 C4.00148438 2.14894531 4.62796875 2.48539063 5.2734375 2.83203125 C7 4 7 4 9 7 C8.01 7.495 8.01 7.495 7 8 C7 7.34 7 6.68 7 6 C4.69 6.66 2.38 7.32 0 8 C-0.33 7.01 -0.66 6.02 -1 5 C-0.34 5 0.32 5 1 5 C0.67 3.35 0.34 1.7 0 0 Z " fill="#48B8E8" transform="translate(266,223)"/>
<path d="M0 0 C1.2380014 3.57644848 0.74926071 6.33694766 0 10 C0.66 10.33 1.32 10.66 2 11 C0.71937515 12.7074998 -0.61767557 14.37373596 -2 16 C-2.66 16 -3.32 16 -4 16 C-2.84941444 10.60204011 -1.57578241 5.29012667 0 0 Z " fill="#63B7DE" transform="translate(163,112)"/>
<path d="M0 0 C0.68384766 0.00902344 1.36769531 0.01804687 2.07226562 0.02734375 C3.73583287 0.05061042 5.39921631 0.08646833 7.0625 0.125 C7.0625 0.455 7.0625 0.785 7.0625 1.125 C-0.26400983 2.18487432 -7.58721227 3.24296547 -14.9375 4.125 C-14.9375 3.465 -14.9375 2.805 -14.9375 2.125 C-9.77803135 0.4208322 -5.4949667 -0.09725605 0 0 Z " fill="#55B8E8" transform="translate(233.9375,76.875)"/>
<path d="M0 0 C0.66 0.99 1.32 1.98 2 3 C1.2265625 4.175625 1.2265625 4.175625 0.4375 5.375 C-0.036875 6.24125 -0.51125 7.1075 -1 8 C-0.67 8.66 -0.34 9.32 0 10 C-1.98 10.66 -3.96 11.32 -6 12 C-4.68139111 7.38486888 -2.78644563 3.90102388 0 0 Z " fill="#4CBAEB" transform="translate(183,68)"/>
<path d="M0 0 C0.33 0.66 0.66 1.32 1 2 C-0.07674702 4.28258633 -1.19546116 6.4356434 -2.4375 8.625 C-2.77587891 9.23601562 -3.11425781 9.84703125 -3.46289062 10.4765625 C-4.30146192 11.988353 -5.14982577 13.49470399 -6 15 C-6.33 15 -6.66 15 -7 15 C-7.61528766 9.92387682 -5.61658349 7.17017994 -3 3 C-2.34 3 -1.68 3 -1 3 C-0.67 2.01 -0.34 1.02 0 0 Z " fill="#53B6E6" transform="translate(464,297)"/>
<path d="M0 0 C0.33 0.66 0.66 1.32 1 2 C-3.79352851 9.34745763 -3.79352851 9.34745763 -8 11 C-8.33 11.66 -8.66 12.32 -9 13 C-9.66 12.67 -10.32 12.34 -11 12 C-3.70159453 3.55353075 -3.70159453 3.55353075 0 0 Z " fill="#4FB9E5" transform="translate(46,231)"/>
<path d="M0 0 C1.98 0 3.96 0 6 0 C3.53031367 2.46968633 1.42511413 3.06997969 -1.875 4.1875 C-2.92429687 4.55230469 -3.97359375 4.91710937 -5.0546875 5.29296875 C-7.93594885 5.98462433 -9.27786612 6.03230681 -12 5 C-10.35 4.67 -8.7 4.34 -7 4 C-7 3.34 -7 2.68 -7 2 C-4.69 2 -2.38 2 0 2 C0 1.34 0 0.68 0 0 Z " fill="#55B9E5" transform="translate(544,179)"/>
<path d="M0 0 C-1.78614318 1.03046722 -3.57910018 2.04913236 -5.375 3.0625 C-6.87160156 3.91521484 -6.87160156 3.91521484 -8.3984375 4.78515625 C-9.25695312 5.18605469 -10.11546875 5.58695312 -11 6 C-11.66 5.67 -12.32 5.34 -13 5 C-10.7952904 1.69293561 -10.11721065 1.40093066 -6.5 0.25 C-5.7059375 -0.01296875 -4.911875 -0.2759375 -4.09375 -0.546875 C-2 -1 -2 -1 0 0 Z " fill="#54BAEA" transform="translate(407,363)"/>
<path d="M0 0 C0.66 0 1.32 0 2 0 C1.25 7.625 1.25 7.625 -1 11 C-1 9.68 -1 8.36 -1 7 C-2.32 7.33 -3.64 7.66 -5 8 C-4.21718695 6.66144944 -3.42348123 5.32926356 -2.625 4 C-2.18414063 3.2575 -1.74328125 2.515 -1.2890625 1.75 C-0.86367188 1.1725 -0.43828125 0.595 0 0 Z " fill="#55BEE8" transform="translate(637,64)"/>
<path d="M0 0 C2.19798983 0.98530579 3.82052548 1.81304737 5.5 3.5625 C7.27460185 5.26316011 8.61006256 5.58794182 11 6 C11.33 7.32 11.66 8.64 12 10 C12.66 10 13.32 10 14 10 C14 10.66 14 11.32 14 12 C10.31291925 10.42351454 7.70126855 8.12557062 4.75 5.4375 C3.85796875 4.63183594 2.9659375 3.82617188 2.046875 2.99609375 C1.37140625 2.33738281 0.6959375 1.67867188 0 1 C0 0.67 0 0.34 0 0 Z " fill="#54B9E3" transform="translate(194,335)"/>
<path d="M0 0 C-5.01372252 3.52913975 -8.83543922 5.61471495 -15 6 C-15 5.34 -15 4.68 -15 4 C-12.87875034 3.13656176 -10.75286928 2.28449352 -8.625 1.4375 C-6.84996094 0.72400391 -6.84996094 0.72400391 -5.0390625 -0.00390625 C-2 -1 -2 -1 0 0 Z " fill="#52B7E7" transform="translate(257,10)"/>
<path d="M0 0 C2.97 0.495 2.97 0.495 6 1 C2.83047153 4.26008643 -0.39937989 7.22237877 -4 10 C-4 9.01 -4 8.02 -4 7 C-3.34 7 -2.68 7 -2 7 C-2 6.34 -2 5.68 -2 5 C-1.34 5 -0.68 5 0 5 C-0.33 4.01 -0.66 3.02 -1 2 C-0.67 1.34 -0.34 0.68 0 0 Z " fill="#4CB7ED" transform="translate(21,290)"/>
<path d="M0 0 C0.33 0.66 0.66 1.32 1 2 C-0.07518118 4.44332726 -1.19808566 6.76754523 -2.4375 9.125 C-2.77587891 9.78371094 -3.11425781 10.44242188 -3.46289062 11.12109375 C-4.30149926 12.75106547 -5.14984811 14.37601909 -6 16 C-7.1171875 12.28125 -7.1171875 12.28125 -6.0625 9.75 C-5.711875 9.1725 -5.36125 8.595 -5 8 C-4.34 8 -3.68 8 -3 8 C-2.690625 6.865625 -2.38125 5.73125 -2.0625 4.5625 C-1 1 -1 1 0 0 Z " fill="#55B7E3" transform="translate(626,100)"/>
<path d="M0 0 C6.35583327 0.86670454 12.67551301 1.93034128 19 3 C19 3.33 19 3.66 19 4 C16.36 4.33 13.72 4.66 11 5 C11 4.34 11 3.68 11 3 C9.741875 3.061875 8.48375 3.12375 7.1875 3.1875 C3.27768014 3.20826011 3.27768014 3.20826011 1 1.5 C0.67 1.005 0.34 0.51 0 0 Z " fill="#55B9DF" transform="translate(522,110)"/>
<path d="M0 0 C5.36095277 1.58921525 10.70843973 3.18972938 16 5 C16 5.33 16 5.66 16 6 C11.17639811 6.19294408 7.50353262 5.75747614 3 4 C3 3.34 3 2.68 3 2 C2.01 1.67 1.02 1.34 0 1 C0 0.67 0 0.34 0 0 Z " fill="#53B8E2" transform="translate(352,297)"/>
<path d="M0 0 C-0.33 0.66 -0.66 1.32 -1 2 C-3.1796875 2.37890625 -3.1796875 2.37890625 -5.875 2.5625 C-8.86796839 2.77628346 -11.1328687 3.04428957 -14 4 C-14.99 3.34 -15.98 2.68 -17 2 C-11.23918159 0.7017874 -5.91260345 -0.25706972 0 0 Z " fill="#55B9E2" transform="translate(131,193)"/>
<path d="M0 0 C-0.38520564 2.53910197 -0.70097943 3.72751123 -2.62890625 5.484375 C-3.26699219 5.90203125 -3.90507812 6.3196875 -4.5625 6.75 C-5.20316406 7.17796875 -5.84382812 7.6059375 -6.50390625 8.046875 C-7.24447266 8.51867187 -7.24447266 8.51867187 -8 9 C-8 8.01 -8 7.02 -8 6 C-7.34 6 -6.68 6 -6 6 C-6 5.01 -6 4.02 -6 3 C-2.66666667 0 -2.66666667 0 0 0 Z " fill="#46BBEE" transform="translate(187,97)"/>
<path d="M0 0 C1.65 0 3.3 0 5 0 C2.25604436 2.94721162 -0.38337216 5.19168608 -4 7 C-4.66 6.67 -5.32 6.34 -6 6 C-5.67 5.34 -5.34 4.68 -5 4 C-4.01 4 -3.02 4 -2 4 C-2 3.34 -2 2.68 -2 2 C-1.34 2 -0.68 2 0 2 C0 1.34 0 0.68 0 0 Z " fill="#52BAE8" transform="translate(413,355)"/>
<path d="M0 0 C0.66 0 1.32 0 2 0 C1.34 2.97 0.68 5.94 0 9 C-0.66 8.01 -1.32 7.02 -2 6 C-2.99 6.66 -3.98 7.32 -5 8 C-3.63055898 5.05043472 -2.12169591 2.47531189 0 0 Z " fill="#59BCE0" transform="translate(478,255)"/>
<path d="M0 0 C1.98 1.65 3.96 3.3 6 5 C5.01 5.33 4.02 5.66 3 6 C2.67 6.66 2.34 7.32 2 8 C0.4375 6.8125 0.4375 6.8125 -1 5 C-0.6875 2.3125 -0.6875 2.3125 0 0 Z " fill="#48BCED" transform="translate(277,231)"/>
<path d="M0 0 C0.66 0.33 1.32 0.66 2 1 C1.34 2.65 0.68 4.3 0 6 C-2.64 6 -5.28 6 -8 6 C-5.63404067 3.38499232 -3.13950774 1.61000397 0 0 Z " fill="#4FB8E5" transform="translate(77,208)"/>
<path d="M0 0 C1.1055189 0.93590504 2.20935453 1.87379858 3.3125 2.8125 C3.92738281 3.33457031 4.54226563 3.85664062 5.17578125 4.39453125 C6.85424679 5.87172469 8.43882034 7.40039131 10 9 C7.36 8.34 4.72 7.68 2 7 C1.34 4.69 0.68 2.38 0 0 Z " fill="#4DB6E6" transform="translate(475,77)"/>
<path d="M0 0 C5.75 1.625 5.75 1.625 8 5 C7.67 5.99 7.34 6.98 7 8 C5.83035398 6.8572081 4.66435444 5.71068285 3.5 4.5625 C2.8503125 3.92441406 2.200625 3.28632813 1.53125 2.62890625 C0 1 0 1 0 0 Z " fill="#4EBBEA" transform="translate(157,299)"/>
<path d="M0 0 C0 0.99 0 1.98 0 3 C-1.98 3.33 -3.96 3.66 -6 4 C-6 4.66 -6 5.32 -6 6 C-7.65 6 -9.3 6 -11 6 C-3.28571429 0 -3.28571429 0 0 0 Z " fill="#53B7E3" transform="translate(442,291)"/>
<path d="M0 0 C0.66 0.33 1.32 0.66 2 1 C-3.0940919 7.86214442 -3.0940919 7.86214442 -6.875 8.4375 C-7.57625 8.293125 -8.2775 8.14875 -9 8 C-6.17493137 5.0702992 -3.21203935 2.49825283 0 0 Z " fill="#55B4E3" transform="translate(451,283)"/>
<path d="M0 0 C2.31 0 4.62 0 7 0 C7.99 1.98 8.98 3.96 10 6 C6.00499382 4.6302836 3.19990508 2.74277578 0 0 Z " fill="#55B8EA" transform="translate(289,87)"/>
<path d="M0 0 C3.58697577 -0.19927643 6.00095064 -0.0683099 9 2 C10.25 4.125 10.25 4.125 11 6 C7.2089881 4.55049545 3.6125362 2.84827434 0 1 C0 0.67 0 0.34 0 0 Z " fill="#56B8EA" transform="translate(123,275)"/>
<path d="M0 0 C3.77545388 1.09068668 6.47043472 1.9083091 9 5 C6.36 5 3.72 5 1 5 C0.67 3.35 0.34 1.7 0 0 Z " fill="#4FB7E5" transform="translate(239,207)"/>
<path d="M0 0 C0.33 1.32 0.66 2.64 1 4 C-1.08676076 6.96539687 -2.30632515 7.07658129 -6 8 C-4.02 5.36 -2.04 2.72 0 0 Z " fill="#4FB6E8" transform="translate(631,72)"/>
<path d="M0 0 C1.60031344 3.20062687 0.03173691 5.72271806 -1 9 C-1.99 9 -2.98 9 -4 9 C-2.94124926 5.59687262 -1.99097846 2.98646769 0 0 Z " fill="#4FB7E6" transform="translate(21,263)"/>
<path d="M0 0 C4.38889325 0.66498383 7.9811485 2.18757677 12 4 C8.87365774 5.04211409 7.95151159 4.99926113 4.875 4.25 C3.81925781 4.01023438 3.81925781 4.01023438 2.7421875 3.765625 C2.16726562 3.51296875 1.59234375 3.2603125 1 3 C0.67 2.01 0.34 1.02 0 0 Z " fill="#51BAE2" transform="translate(224,201)"/>
<path d="M0 0 C0.33 0.66 0.66 1.32 1 2 C2.32 1.34 3.64 0.68 5 0 C3.60667426 3.36720387 2.0210714 4.9859524 -1 7 C-0.67 4.69 -0.34 2.38 0 0 Z " fill="#4FBAE9" transform="translate(166,114)"/>
<path d="M0 0 C0 0.66 0 1.32 0 2 C-3.3 2.33 -6.6 2.66 -10 3 C-4.28571429 -1.28571429 -4.28571429 -1.28571429 0 0 Z " fill="#52B8E5" transform="translate(598,104)"/>
<path d="M0 0 C0.33 0.66 0.66 1.32 1 2 C0.67 2.66 0.34 3.32 0 4 C0.66 4 1.32 4 2 4 C2 4.66 2 5.32 2 6 C-0.31 6.66 -2.62 7.32 -5 8 C-3.62845496 5.04590299 -2.01136276 2.55991624 0 0 Z " fill="#4EB7E5" transform="translate(198,47)"/>
<path d="M0 0 C1.31611677 0.95336021 2.62778961 1.91285774 3.9375 2.875 C4.66839844 3.40867187 5.39929688 3.94234375 6.15234375 4.4921875 C8 6 8 6 9 8 C3.5 6.53333333 3.5 6.53333333 1.125 4 C0 2 0 2 0 0 Z " fill="#53B4E1" transform="translate(319,272)"/>
<path d="M0 0 C0.66 0.33 1.32 0.66 2 1 C-0.31 3.31 -2.62 5.62 -5 8 C-5.33 6.68 -5.66 5.36 -6 4 C-4.02 2.68 -2.04 1.36 0 0 Z " fill="#52B8DF" transform="translate(177,106)"/>
<path d="M0 0 C-0.66 0 -1.32 0 -2 0 C-1.67 1.32 -1.34 2.64 -1 4 C-2.98 3.34 -4.96 2.68 -7 2 C-7 1.34 -7 0.68 -7 0 C-3.98968256 -0.93423645 -3.13349732 -1.04449911 0 0 Z " fill="#4EB8F2" transform="translate(290,83)"/>
<path d="M0 0 C0.99 0.66 1.98 1.32 3 2 C1.69593116 4.01920337 0.36176581 6.01924973 -1 8 C-1.33 8 -1.66 8 -2 8 C-2 6.35 -2 4.7 -2 3 C-1.34 3 -0.68 3 0 3 C0 2.01 0 1.02 0 0 Z " fill="#4FB8E3" transform="translate(453,313)"/>
<path d="M0 0 C0.66 0.33 1.32 0.66 2 1 C-0.625 5.875 -0.625 5.875 -4 7 C-2.92598892 4.08482708 -2.22189824 2.22189824 0 0 Z " fill="#48B7F0" transform="translate(58,220)"/>
<path d="M0 0 C2.97 0.495 2.97 0.495 6 1 C4.68 2.32 3.36 3.64 2 5 C1.34 4.67 0.68 4.34 0 4 C0 2.68 0 1.36 0 0 Z " fill="#4DB9E8" transform="translate(570,164)"/>
<path d="M0 0 C0.6875 1.625 0.6875 1.625 1 4 C-0.4375 7.25 -0.4375 7.25 -2 10 C-2.66 10 -3.32 10 -4 10 C-2.8905928 6.51329166 -1.73662334 3.22515763 0 0 Z " fill="#50B8E4" transform="translate(176,80)"/>
<path d="M0 0 C1.65 1.65 3.3 3.3 5 5 C3.35 5.33 1.7 5.66 0 6 C-1 3 -1 3 0 0 Z " fill="#4CB9EE" transform="translate(437,40)"/>
<path d="M0 0 C0.33 0.99 0.66 1.98 1 3 C-0.65 4.65 -2.3 6.3 -4 8 C-4 4.09161134 -2.49432124 2.88405893 0 0 Z " fill="#50B7E2" transform="translate(34,244)"/>
</svg>
